solid JSCAD
facet normal -1 0 0
outer loop
vertex 0 9393.67 1142.83
vertex 0 12320.1 0
vertex 0 11764.61 0
endloop
endfacet
facet normal -1 0 0
outer loop
vertex 0 9393.67 1142.83
vertex 0 11764.61 0
vertex 0 11670.62 0
endloop
endfacet
facet normal -1 0 0
outer loop
vertex 0 9393.67 1142.83
vertex 0 11670.62 0
vertex 0 0 0
endloop
endfacet
facet normal -1 0 0
outer loop
vertex 0 9393.67 1142.83
vertex 0 0 0
vertex 0 0 3999.9700000000003
endloop
endfacet
facet normal -1 0 0
outer loop
vertex 0 9393.67 1142.83
vertex 0 0 3999.9700000000003
vertex 0 15000.050000000001 3999.9700000000003
endloop
endfacet
facet normal -1 0 0
outer loop
vertex 0 9393.67 1142.83
vertex 0 15000.050000000001 3999.9700000000003
vertex 0 15000.050000000001 0
endloop
endfacet
facet normal -0.9999999999999999 0 0
outer loop
vertex 0 9393.67 1142.83
vertex 0 15000.050000000001 0
vertex 0 12320.1 0
endloop
endfacet
facet normal 1 0 0
outer loop
vertex 19999.98 9419.28 1142.83
vertex 19999.98 0 0
vertex 19999.98 11670.62 0
endloop
endfacet
facet normal 1 0 0
outer loop
vertex 19999.98 9419.28 1142.83
vertex 19999.98 11670.62 0
vertex 19999.98 11944.27 0
endloop
endfacet
facet normal 1 0 0
outer loop
vertex 19999.98 9419.28 1142.83
vertex 19999.98 11944.27 0
vertex 19999.98 12320.1 0
endloop
endfacet
facet normal 0.9999999999999999 0 0
outer loop
vertex 19999.98 9419.28 1142.83
vertex 19999.98 12320.1 0
vertex 19999.98 15000.050000000001 0
endloop
endfacet
facet normal 1 0 0
outer loop
vertex 19999.98 9419.28 1142.83
vertex 19999.98 15000.050000000001 0
vertex 19999.98 15000.050000000001 3999.9700000000003
endloop
endfacet
facet normal 1 0 0
outer loop
vertex 19999.98 9419.28 1142.83
vertex 19999.98 15000.050000000001 3999.9700000000003
vertex 19999.98 0 3999.9700000000003
endloop
endfacet
facet normal 1 0 0
outer loop
vertex 19999.98 9419.28 1142.83
vertex 19999.98 0 3999.9700000000003
vertex 19999.98 0 0
endloop
endfacet
facet normal 0 -1 0
outer loop
vertex 0 0 0
vertex 19999.98 0 0
vertex 19999.98 0 3999.9700000000003
endloop
endfacet
facet normal 0 -1 0
outer loop
vertex 0 0 0
vertex 19999.98 0 3999.9700000000003
vertex 0 0 3999.9700000000003
endloop
endfacet
facet normal 0 1 0
outer loop
vertex 0 15000.050000000001 0
vertex 0 15000.050000000001 3999.9700000000003
vertex 19999.98 15000.050000000001 3999.9700000000003
endloop
endfacet
facet normal 0 1 0
outer loop
vertex 0 15000.050000000001 0
vertex 19999.98 15000.050000000001 3999.9700000000003
vertex 19999.98 15000.050000000001 0
endloop
endfacet
facet normal 0 0 1
outer loop
vertex 0 0 3999.9700000000003
vertex 19999.98 0 3999.9700000000003
vertex 19999.98 15000.050000000001 3999.9700000000003
endloop
endfacet
facet normal 0 0 1
outer loop
vertex 0 0 3999.9700000000003
vertex 19999.98 15000.050000000001 3999.9700000000003
vertex 0 15000.050000000001 3999.9700000000003
endloop
endfacet
facet normal -0.9396129934322677 -0.3422388384933151 0
outer loop
vertex 6124.6900000000005 11192.48 300.04
vertex 6124.6900000000005 11192.48 199.94
vertex 6261.58 10816.65 199.94
endloop
endfacet
facet normal -0.9396129934322677 -0.3422388384933151 0
outer loop
vertex 6124.6900000000005 11192.48 300.04
vertex 6261.58 10816.65 199.94
vertex 6261.58 10816.65 300.04
endloop
endfacet
facet normal -0.9396794505949345 -0.34205632596050894 0
outer loop
vertex 5782.66 12132.25 266.63
vertex 5714.28 12320.1 599.95
vertex 5714.28 12320.1 199.94
endloop
endfacet
facet normal -0.9396794505949346 -0.34205632596050894 0
outer loop
vertex 5782.66 12132.25 266.63
vertex 5714.28 12320.1 199.94
vertex 5714.28 12320.1 0
endloop
endfacet
facet normal -0.9396129834685689 -0.34223883486420115 -0.00014562997284429865
outer loop
vertex 5782.66 12132.25 266.63
vertex 5714.28 12320.1 0
vertex 5851.17 11944.27 0
endloop
endfacet
facet normal -0.9395465562162688 -0.34242118611754935 0
outer loop
vertex 5782.66 12132.25 266.63
vertex 5851.17 11944.27 0
vertex 5851.17 11944.27 199.94
endloop
endfacet
facet normal -0.9395465562162689 -0.3424211861175494 0
outer loop
vertex 5782.66 12132.25 266.63
vertex 5851.17 11944.27 199.94
vertex 5851.17 11944.27 599.95
endloop
endfacet
facet normal -0.9396129870567435 -0.3422388361711357 0.00011649261912803294
outer loop
vertex 5782.66 12132.25 266.63
vertex 5851.17 11944.27 599.95
vertex 5714.28 12320.1 599.95
endloop
endfacet
facet normal -0.3418474244906482 0.939755467326001 0
outer loop
vertex 5851.17 11944.27 599.95
vertex 5851.17 11944.27 199.94
vertex 5475.21 11807.51 199.94
endloop
endfacet
facet normal -0.3418474244906482 0.939755467326001 0
outer loop
vertex 5851.17 11944.27 599.95
vertex 5475.21 11807.51 199.94
vertex 5475.21 11807.51 599.95
endloop
endfacet
facet normal -0.34204311990486386 0.9396842576768789 0
outer loop
vertex 5851.17 11944.27 199.94
vertex 5851.17 11944.27 0
vertex 5099.38 11670.62 0
endloop
endfacet
facet normal -0.34204311990486386 0.9396842576768789 0
outer loop
vertex 5851.17 11944.27 199.94
vertex 5099.38 11670.62 0
vertex 5099.38 11670.62 199.94
endloop
endfacet
facet normal 0.9397554673260021 0.34184742449064487 0
outer loop
vertex 5099.38 11670.62 199.94
vertex 5099.38 11670.62 0
vertex 5065.1900000000005 11764.61 0
endloop
endfacet
facet normal 0.9397554673260021 0.34184742449064487 0
outer loop
vertex 5099.38 11670.62 199.94
vertex 5065.1900000000005 11764.61 0
vertex 5065.1900000000005 11764.61 199.94
endloop
endfacet
facet normal 0.6502022085400015 -0.759761204596355 0
outer loop
vertex 5065.1900000000005 11764.61 199.94
vertex 5065.1900000000005 11764.61 0
vertex 5714.28 12320.1 0
endloop
endfacet
facet normal 0.6502022085400015 -0.759761204596355 0
outer loop
vertex 5065.1900000000005 11764.61 199.94
vertex 5714.28 12320.1 0
vertex 5714.28 12320.1 199.94
endloop
endfacet
facet normal 0 0 -0.9999999999999999
outer loop
vertex 9142.9 13392.08 0
vertex 19999.98 15000.050000000001 0
vertex 19999.98 12320.1 0
endloop
endfacet
facet normal 0 0 -1
outer loop
vertex 9142.9 13392.08 0
vertex 19999.98 12320.1 0
vertex 5714.28 12320.1 0
endloop
endfacet
facet normal 0 0 -1
outer loop
vertex 9142.9 13392.08 0
vertex 5714.28 12320.1 0
vertex 0 12320.1 0
endloop
endfacet
facet normal 0 0 -1
outer loop
vertex 9142.9 13392.08 0
vertex 0 12320.1 0
vertex 0 15000.050000000001 0
endloop
endfacet
facet normal 0 0 -1
outer loop
vertex 9142.9 13392.08 0
vertex 0 15000.050000000001 0
vertex 19999.98 15000.050000000001 0
endloop
endfacet
facet normal 0 0 -1
outer loop
vertex 19999.98 12320.1 0
vertex 19999.98 11944.27 0
vertex 5851.17 11944.27 0
endloop
endfacet
facet normal 0 0 -1
outer loop
vertex 19999.98 12320.1 0
vertex 5851.17 11944.27 0
vertex 5714.28 12320.1 0
endloop
endfacet
facet normal 0 0 -1
outer loop
vertex 5714.28 12320.1 0
vertex 5065.1900000000005 11764.61 0
vertex 0 11764.61 0
endloop
endfacet
facet normal 0 0 -1
outer loop
vertex 5714.28 12320.1 0
vertex 0 11764.61 0
vertex 0 12320.1 0
endloop
endfacet
facet normal 0 0 -1
outer loop
vertex 5065.1900000000005 11764.61 0
vertex 5099.38 11670.62 0
vertex 0 11670.62 0
endloop
endfacet
facet normal 0 0 -1
outer loop
vertex 5065.1900000000005 11764.61 0
vertex 0 11670.62 0
vertex 0 11764.61 0
endloop
endfacet
facet normal 0 0 -1
outer loop
vertex 19999.98 11944.27 0
vertex 19999.98 11670.62 0
vertex 5099.38 11670.62 0
endloop
endfacet
facet normal 0 0 -0.9999999999999999
outer loop
vertex 19999.98 11944.27 0
vertex 5099.38 11670.62 0
vertex 5851.17 11944.27 0
endloop
endfacet
facet normal 0 0 -1
outer loop
vertex 9019.92 7002.320000000001 0
vertex 5099.38 11670.62 0
vertex 19999.98 11670.62 0
endloop
endfacet
facet normal 0 0 -1
outer loop
vertex 9019.92 7002.320000000001 0
vertex 19999.98 11670.62 0
vertex 19999.98 0 0
endloop
endfacet
facet normal 0 0 -1
outer loop
vertex 9019.92 7002.320000000001 0
vertex 19999.98 0 0
vertex 0 0 0
endloop
endfacet
facet normal 0 0 -1
outer loop
vertex 9019.92 7002.320000000001 0
vertex 0 0 0
vertex 0 11670.62 0
endloop
endfacet
facet normal 0 0 -1
outer loop
vertex 9019.92 7002.320000000001 0
vertex 0 11670.62 0
vertex 5099.38 11670.62 0
endloop
endfacet
facet normal 0.34195184543297075 -0.9397174763752059 0
outer loop
vertex 5714.28 12320.1 199.94
vertex 5714.28 12320.1 599.95
vertex 5338.45 12183.34 599.95
endloop
endfacet
facet normal 0.34195184543297075 -0.9397174763752059 0
outer loop
vertex 5714.28 12320.1 199.94
vertex 5338.45 12183.34 599.95
vertex 5338.45 12183.34 199.94
endloop
endfacet
facet normal 0.9397174763752059 0.34195184543297075 0
outer loop
vertex 5475.21 11807.51 599.95
vertex 5475.21 11807.51 199.94
vertex 5338.45 12183.34 199.94
endloop
endfacet
facet normal 0.9397174763752059 0.34195184543297075 0
outer loop
vertex 5475.21 11807.51 599.95
vertex 5338.45 12183.34 199.94
vertex 5338.45 12183.34 599.95
endloop
endfacet
facet normal 0.9397174763752066 0.34195184543296875 0
outer loop
vertex 5885.62 10679.890000000001 300.04
vertex 5885.62 10679.890000000001 199.94
vertex 5748.860000000001 11055.720000000001 199.94
endloop
endfacet
facet normal 0.9397174763752066 0.34195184543296875 0
outer loop
vertex 5885.62 10679.890000000001 300.04
vertex 5748.860000000001 11055.720000000001 199.94
vertex 5748.860000000001 11055.720000000001 300.04
endloop
endfacet
facet normal 0 0 -1
outer loop
vertex 5714.28 12320.1 599.95
vertex 5851.17 11944.27 599.95
vertex 5475.21 11807.51 599.95
endloop
endfacet
facet normal 0 0 -1
outer loop
vertex 5714.28 12320.1 599.95
vertex 5475.21 11807.51 599.95
vertex 5338.45 12183.34 599.95
endloop
endfacet
facet normal 0 0 1
outer loop
vertex 5338.45 12183.34 199.94
vertex 5389.8 12042.42 199.94
vertex 5714.28 12320.1 199.94
endloop
endfacet
facet normal 0 0 1
outer loop
vertex 5748.860000000001 11055.720000000001 199.94
vertex 5885.62 10679.890000000001 199.94
vertex 6261.58 10816.65 199.94
endloop
endfacet
facet normal 0 0 1
outer loop
vertex 5748.860000000001 11055.720000000001 199.94
vertex 6261.58 10816.65 199.94
vertex 6124.6900000000005 11192.48 199.94
endloop
endfacet
facet normal 0 0 -1
outer loop
vertex 5475.21 11807.51 199.94
vertex 5099.38 11670.62 199.94
vertex 5065.1900000000005 11764.61 199.94
endloop
endfacet
facet normal 0 0 -1
outer loop
vertex 5475.21 11807.51 199.94
vertex 5065.1900000000005 11764.61 199.94
vertex 5389.8 12042.42 199.94
endloop
endfacet
facet normal 0.34195184543296675 -0.9397174763752074 0
outer loop
vertex 6124.6900000000005 11192.48 199.94
vertex 6124.6900000000005 11192.48 300.04
vertex 5748.860000000001 11055.720000000001 300.04
endloop
endfacet
facet normal 0.34195184543296675 -0.9397174763752074 0
outer loop
vertex 6124.6900000000005 11192.48 199.94
vertex 5748.860000000001 11055.720000000001 300.04
vertex 5748.860000000001 11055.720000000001 199.94
endloop
endfacet
facet normal -0.34184742449064415 0.9397554673260025 0
outer loop
vertex 5885.62 10679.890000000001 300.04
vertex 6261.58 10816.65 300.04
vertex 6261.58 10816.65 199.94
endloop
endfacet
facet normal -0.34184742449064415 0.9397554673260025 0
outer loop
vertex 5885.62 10679.890000000001 300.04
vertex 6261.58 10816.65 199.94
vertex 5885.62 10679.890000000001 199.94
endloop
endfacet
facet normal 0 0 -1
outer loop
vertex 6124.6900000000005 11192.48 300.04
vertex 6261.58 10816.65 300.04
vertex 5885.62 10679.890000000001 300.04
endloop
endfacet
facet normal 0 0 -1
outer loop
vertex 6124.6900000000005 11192.48 300.04
vertex 5885.62 10679.890000000001 300.04
vertex 5748.860000000001 11055.720000000001 300.04
endloop
endfacet
endsolid JSCAD
