solid JSCAD
facet normal -1 0 0
outer loop
vertex 0 8288.54 1142.83
vertex 0 9629.62 0
vertex 0 9593.35 0
endloop
endfacet
facet normal -0.9999999999999999 0 0
outer loop
vertex 0 8288.54 1142.83
vertex 0 9593.35 0
vertex 0 8796.58 0
endloop
endfacet
facet normal -1 0 0
outer loop
vertex 0 8288.54 1142.83
vertex 0 8796.58 0
vertex 0 0 0
endloop
endfacet
facet normal -1 0 0
outer loop
vertex 0 8288.54 1142.83
vertex 0 0 0
vertex 0 0 3999.9700000000003
endloop
endfacet
facet normal -1 0 0
outer loop
vertex 0 8288.54 1142.83
vertex 0 0 3999.9700000000003
vertex 0 15000.050000000001 3999.9700000000003
endloop
endfacet
facet normal -1 0 0
outer loop
vertex 0 8288.54 1142.83
vertex 0 15000.050000000001 3999.9700000000003
vertex 0 15000.050000000001 0
endloop
endfacet
facet normal -1 0 0
outer loop
vertex 0 8288.54 1142.83
vertex 0 15000.050000000001 0
vertex 0 9629.62 0
endloop
endfacet
facet normal 1 0 0
outer loop
vertex 19999.98 8179.860000000001 1142.83
vertex 19999.98 0 0
vertex 19999.98 8796.58 0
endloop
endfacet
facet normal 1 0 0
outer loop
vertex 19999.98 8179.860000000001 1142.83
vertex 19999.98 8796.58 0
vertex 19999.98 8832.85 0
endloop
endfacet
facet normal 0.9999999999999999 0 0
outer loop
vertex 19999.98 8179.860000000001 1142.83
vertex 19999.98 8832.85 0
vertex 19999.98 9629.62 0
endloop
endfacet
facet normal 1 0 0
outer loop
vertex 19999.98 8179.860000000001 1142.83
vertex 19999.98 9629.62 0
vertex 19999.98 15000.050000000001 0
endloop
endfacet
facet normal 1 0 0
outer loop
vertex 19999.98 8179.860000000001 1142.83
vertex 19999.98 15000.050000000001 0
vertex 19999.98 15000.050000000001 3999.9700000000003
endloop
endfacet
facet normal 1 0 0
outer loop
vertex 19999.98 8179.860000000001 1142.83
vertex 19999.98 15000.050000000001 3999.9700000000003
vertex 19999.98 0 3999.9700000000003
endloop
endfacet
facet normal 0.9999999999999999 0 0
outer loop
vertex 19999.98 8179.860000000001 1142.83
vertex 19999.98 0 3999.9700000000003
vertex 19999.98 0 0
endloop
endfacet
facet normal 0 -1 0
outer loop
vertex 0 0 0
vertex 19999.98 0 0
vertex 19999.98 0 3999.9700000000003
endloop
endfacet
facet normal 0 -1 0
outer loop
vertex 0 0 0
vertex 19999.98 0 3999.9700000000003
vertex 0 0 3999.9700000000003
endloop
endfacet
facet normal 0 1 0
outer loop
vertex 0 15000.050000000001 0
vertex 0 15000.050000000001 3999.9700000000003
vertex 19999.98 15000.050000000001 3999.9700000000003
endloop
endfacet
facet normal 0 1 0
outer loop
vertex 0 15000.050000000001 0
vertex 19999.98 15000.050000000001 3999.9700000000003
vertex 19999.98 15000.050000000001 0
endloop
endfacet
facet normal 0 0 1
outer loop
vertex 0 0 3999.9700000000003
vertex 19999.98 0 3999.9700000000003
vertex 19999.98 15000.050000000001 3999.9700000000003
endloop
endfacet
facet normal 0 0 1
outer loop
vertex 0 0 3999.9700000000003
vertex 19999.98 15000.050000000001 3999.9700000000003
vertex 0 15000.050000000001 3999.9700000000003
endloop
endfacet
facet normal 0.09068227320835523 -0.9958798749476592 0
outer loop
vertex 6199.18 11518.130000000001 199.94
vertex 6199.18 11518.130000000001 599.95
vertex 5800.860000000001 11481.86 599.95
endloop
endfacet
facet normal 0.09068227320835523 -0.9958798749476592 0
outer loop
vertex 6199.18 11518.130000000001 199.94
vertex 5800.860000000001 11481.86 599.95
vertex 5800.860000000001 11481.86 199.94
endloop
endfacet
facet normal -0.09035990568286373 0.9959091763032328 0
outer loop
vertex 5916.17 10213.45 599.95
vertex 6314.49 10249.59 599.95
vertex 6314.49 10249.59 199.94
endloop
endfacet
facet normal -0.09035990568286373 0.9959091763032328 0
outer loop
vertex 5916.17 10213.45 599.95
vertex 6314.49 10249.59 199.94
vertex 5916.17 10213.45 199.94
endloop
endfacet
facet normal 0.9958943158971433 0.09052349183525174 -0.00009481410202810217
outer loop
vertex 6169.150000000001 7430.54 1529.71
vertex 6068.66 8535.41 889.2
vertex 6050.59 8734.57 1235.65
endloop
endfacet
facet normal 0.9958943158971433 0.09052349183525228 -0.00009481410202578785
outer loop
vertex 6169.150000000001 7430.54 1529.71
vertex 6050.59 8734.57 1235.65
vertex 6151.08 7629.7 1876.16
endloop
endfacet
facet normal 0.995893206467704 0.09053574604251814 0
outer loop
vertex 5916.17 10213.45 599.95
vertex 5916.17 10213.45 199.94
vertex 5800.860000000001 11481.86 199.94
endloop
endfacet
facet normal 0.995893206467704 0.09053574604251814 0
outer loop
vertex 5916.17 10213.45 599.95
vertex 5800.860000000001 11481.86 199.94
vertex 5800.860000000001 11481.86 599.95
endloop
endfacet
facet normal 0.9958881420507768 0.09059143735835025 0
outer loop
vertex 6300.84 5981.95 599.95
vertex 6300.84 5981.95 199.94
vertex 6186.4400000000005 7239.570000000001 199.94
endloop
endfacet
facet normal 0.9958881420507768 0.09059143735835025 0
outer loop
vertex 6300.84 5981.95 599.95
vertex 6186.4400000000005 7239.570000000001 199.94
vertex 6186.4400000000005 7239.570000000001 599.95
endloop
endfacet
facet normal 0.9958811848241009 0.0906675968562323 -0.0002293330780639692
outer loop
vertex 6045 8796.58 0
vertex 5972.46 9593.35 0
vertex 5933.46 10022.35 248.69
endloop
endfacet
facet normal 0.995881748819098 0.090661473669929 -0.0001988995018165735
outer loop
vertex 6045 8796.58 0
vertex 5933.46 10022.35 248.69
vertex 5951.66 9823.19 595.14
endloop
endfacet
facet normal -0.9958943158971433 -0.09052349183525228 0.00009481410202578785
outer loop
vertex 6448.91 8770.84 1235.65
vertex 6466.9800000000005 8571.68 889.2
vertex 6567.47 7466.81 1529.71
endloop
endfacet
facet normal -0.9958943158971433 -0.09052349183525174 0.00009481410202810217
outer loop
vertex 6448.91 8770.84 1235.65
vertex 6567.47 7466.81 1529.71
vertex 6549.400000000001 7665.97 1876.16
endloop
endfacet
facet normal -0.9958974244754467 -0.09048933596381167 0
outer loop
vertex 6584.89 7275.71 599.95
vertex 6584.89 7275.71 199.94
vertex 6699.16 6018.09 199.94
endloop
endfacet
facet normal -0.9958974244754467 -0.09048933596381167 0
outer loop
vertex 6584.89 7275.71 599.95
vertex 6699.16 6018.09 199.94
vertex 6699.16 6018.09 599.95
endloop
endfacet
facet normal -0.9958940429763202 -0.09052654397622376 0
outer loop
vertex 6199.18 11518.130000000001 599.95
vertex 6199.18 11518.130000000001 199.94
vertex 6314.49 10249.59 199.94
endloop
endfacet
facet normal -0.9958940429763202 -0.09052654397622376 0
outer loop
vertex 6199.18 11518.130000000001 599.95
vertex 6314.49 10249.59 199.94
vertex 6314.49 10249.59 599.95
endloop
endfacet
facet normal -0.9958958684995407 -0.09050644456750688 -0.00005096365765261488
outer loop
vertex 6331.91 10058.62 248.69
vertex 6370.91 9629.62 0
vertex 6443.320000000001 8832.85 0
endloop
endfacet
facet normal -0.9958964227964832 -0.09050032285909146 -0.00008138531009835577
outer loop
vertex 6331.91 10058.62 248.69
vertex 6443.320000000001 8832.85 0
vertex 6349.9800000000005 9859.460000000001 595.14
endloop
endfacet
facet normal 0 0 0.9999999999999999
outer loop
vertex 5800.860000000001 11481.86 199.94
vertex 5916.17 10213.45 199.94
vertex 6314.49 10249.59 199.94
endloop
endfacet
facet normal 0 0 0.9999999999999999
outer loop
vertex 5800.860000000001 11481.86 199.94
vertex 6314.49 10249.59 199.94
vertex 6199.18 11518.130000000001 199.94
endloop
endfacet
facet normal 0 0 0.9999999999999999
outer loop
vertex 6186.4400000000005 7239.570000000001 199.94
vertex 6300.84 5981.95 199.94
vertex 6699.16 6018.09 199.94
endloop
endfacet
facet normal 0 0 1
outer loop
vertex 6186.4400000000005 7239.570000000001 199.94
vertex 6699.16 6018.09 199.94
vertex 6584.89 7275.71 199.94
endloop
endfacet
facet normal 0 0 -1
outer loop
vertex 6314.49 10249.59 599.95
vertex 5916.17 10213.45 599.95
vertex 5800.860000000001 11481.86 599.95
endloop
endfacet
facet normal 0 0 -0.9999999999999999
outer loop
vertex 6314.49 10249.59 599.95
vertex 5800.860000000001 11481.86 599.95
vertex 6199.18 11518.130000000001 599.95
endloop
endfacet
facet normal 0 0 -1
outer loop
vertex 6699.16 6018.09 599.95
vertex 6300.84 5981.95 599.95
vertex 6186.4400000000005 7239.570000000001 599.95
endloop
endfacet
facet normal 0 0 -1
outer loop
vertex 6699.16 6018.09 599.95
vertex 6186.4400000000005 7239.570000000001 599.95
vertex 6584.89 7275.71 599.95
endloop
endfacet
facet normal 0.07853756286594253 -0.8625057083198762 -0.49991574723617843
outer loop
vertex 6331.91 10058.62 248.69
vertex 6349.9800000000005 9859.460000000001 595.14
vertex 5951.66 9823.19 595.14
endloop
endfacet
facet normal 0.0785109929813005 -0.8624953171601543 -0.4999378479950233
outer loop
vertex 6331.91 10058.62 248.69
vertex 5951.66 9823.19 595.14
vertex 5933.46 10022.35 248.69
endloop
endfacet
facet normal 0.04532446352355458 -0.49791928566198224 0.8660381504138044
outer loop
vertex 5972.46 9593.35 0
vertex 6370.91 9629.62 0
vertex 6331.91 10058.62 248.69
endloop
endfacet
facet normal 0.045324463523554556 -0.49791928566198224 0.8660381504138044
outer loop
vertex 5972.46 9593.35 0
vertex 6331.91 10058.62 248.69
vertex 5933.46 10022.35 248.69
endloop
endfacet
facet normal -0.045340087424690485 0.4979284153019701 -0.8660320835322385
outer loop
vertex 6349.9800000000005 9859.460000000001 595.14
vertex 6443.320000000001 8832.85 0
vertex 6045 8796.58 0
endloop
endfacet
facet normal -0.04534008742469031 0.49792841530197013 -0.8660320835322385
outer loop
vertex 6349.9800000000005 9859.460000000001 595.14
vertex 6045 8796.58 0
vertex 5951.66 9823.19 595.14
endloop
endfacet
facet normal 0 0 -1
outer loop
vertex 9274.2 11777.74 0
vertex 19999.98 15000.050000000001 0
vertex 19999.98 9629.62 0
endloop
endfacet
facet normal 0 0 -1
outer loop
vertex 9274.2 11777.74 0
vertex 19999.98 9629.62 0
vertex 6370.91 9629.62 0
endloop
endfacet
facet normal 0 0 -1
outer loop
vertex 9274.2 11777.74 0
vertex 6370.91 9629.62 0
vertex 0 9629.62 0
endloop
endfacet
facet normal 0 0 -1
outer loop
vertex 9274.2 11777.74 0
vertex 0 9629.62 0
vertex 0 15000.050000000001 0
endloop
endfacet
facet normal 0 0 -1
outer loop
vertex 9274.2 11777.74 0
vertex 0 15000.050000000001 0
vertex 19999.98 15000.050000000001 0
endloop
endfacet
facet normal 0 0 -1
outer loop
vertex 6370.91 9629.62 0
vertex 5972.46 9593.35 0
vertex 0 9593.35 0
endloop
endfacet
facet normal 0 0 -1
outer loop
vertex 6370.91 9629.62 0
vertex 0 9593.35 0
vertex 0 9629.62 0
endloop
endfacet
facet normal 0 0 -1
outer loop
vertex 19999.98 9629.62 0
vertex 19999.98 8832.85 0
vertex 6443.320000000001 8832.85 0
endloop
endfacet
facet normal 0 0 -1
outer loop
vertex 19999.98 9629.62 0
vertex 6443.320000000001 8832.85 0
vertex 6370.91 9629.62 0
endloop
endfacet
facet normal 0 0 -1
outer loop
vertex 5972.46 9593.35 0
vertex 6045 8796.58 0
vertex 0 8796.58 0
endloop
endfacet
facet normal 0 0 -1
outer loop
vertex 5972.46 9593.35 0
vertex 0 8796.58 0
vertex 0 9593.35 0
endloop
endfacet
facet normal 0 0 -1
outer loop
vertex 19999.98 8832.85 0
vertex 19999.98 8796.58 0
vertex 6045 8796.58 0
endloop
endfacet
facet normal 0 0 -1
outer loop
vertex 19999.98 8832.85 0
vertex 6045 8796.58 0
vertex 6443.320000000001 8832.85 0
endloop
endfacet
facet normal 0 0 -1
outer loop
vertex 9208.94 5278 0
vertex 6045 8796.58 0
vertex 19999.98 8796.58 0
endloop
endfacet
facet normal 0 0 -1
outer loop
vertex 9208.94 5278 0
vertex 19999.98 8796.58 0
vertex 19999.98 0 0
endloop
endfacet
facet normal 0 0 -0.9999999999999999
outer loop
vertex 9208.94 5278 0
vertex 19999.98 0 0
vertex 0 0 0
endloop
endfacet
facet normal 0 0 -1
outer loop
vertex 9208.94 5278 0
vertex 0 0 0
vertex 0 8796.58 0
endloop
endfacet
facet normal 0 0 -1
outer loop
vertex 9208.94 5278 0
vertex 0 8796.58 0
vertex 6045 8796.58 0
endloop
endfacet
facet normal 0.07853756286594275 -0.8625057083198762 0.49991574723617843
outer loop
vertex 6466.9800000000005 8571.68 889.2
vertex 6448.91 8770.84 1235.65
vertex 6050.59 8734.57 1235.65
endloop
endfacet
facet normal 0.07853756286594256 -0.8625057083198763 0.49991574723617827
outer loop
vertex 6466.9800000000005 8571.68 889.2
vertex 6050.59 8734.57 1235.65
vertex 6068.66 8535.41 889.2
endloop
endfacet
facet normal -0.07853756286594256 0.8625057083198763 -0.49991574723617827
outer loop
vertex 6151.08 7629.7 1876.16
vertex 6549.400000000001 7665.97 1876.16
vertex 6567.47 7466.81 1529.71
endloop
endfacet
facet normal -0.07853756286594275 0.8625057083198762 -0.49991574723617843
outer loop
vertex 6151.08 7629.7 1876.16
vertex 6567.47 7466.81 1529.71
vertex 6169.150000000001 7430.54 1529.71
endloop
endfacet
facet normal -0.04534007615840051 0.49792829157468593 0.866032155259529
outer loop
vertex 6169.150000000001 7430.54 1529.71
vertex 6567.47 7466.81 1529.71
vertex 6466.9800000000005 8571.68 889.2
endloop
endfacet
facet normal -0.045340076158400536 0.497928291574686 0.866032155259529
outer loop
vertex 6169.150000000001 7430.54 1529.71
vertex 6466.9800000000005 8571.68 889.2
vertex 6068.66 8535.41 889.2
endloop
endfacet
facet normal 0.045340076158400536 -0.497928291574686 -0.866032155259529
outer loop
vertex 6448.91 8770.84 1235.65
vertex 6549.400000000001 7665.97 1876.16
vertex 6151.08 7629.7 1876.16
endloop
endfacet
facet normal 0.04534007615840051 -0.49792829157468593 -0.866032155259529
outer loop
vertex 6448.91 8770.84 1235.65
vertex 6151.08 7629.7 1876.16
vertex 6050.59 8734.57 1235.65
endloop
endfacet
facet normal 0.09033066506849625 -0.995911828902681 0
outer loop
vertex 6584.89 7275.71 199.94
vertex 6584.89 7275.71 599.95
vertex 6186.4400000000005 7239.570000000001 599.95
endloop
endfacet
facet normal 0.09033066506849625 -0.995911828902681 0
outer loop
vertex 6584.89 7275.71 199.94
vertex 6186.4400000000005 7239.570000000001 599.95
vertex 6186.4400000000005 7239.570000000001 199.94
endloop
endfacet
facet normal -0.09035990568286599 0.9959091763032327 0
outer loop
vertex 6300.84 5981.95 599.95
vertex 6699.16 6018.09 599.95
vertex 6699.16 6018.09 199.94
endloop
endfacet
facet normal -0.09035990568286599 0.9959091763032327 0
outer loop
vertex 6300.84 5981.95 599.95
vertex 6699.16 6018.09 199.94
vertex 6300.84 5981.95 199.94
endloop
endfacet
facet normal -0.1963036350248737 0.9805431570696015 0
outer loop
vertex 11803.87 5960.76 1200.03
vertex 11803.87 5960.76 1600.04
vertex 12196.08 6039.280000000001 1600.04
endloop
endfacet
facet normal -0.1963036350248737 0.9805431570696015 0
outer loop
vertex 11803.87 5960.76 1200.03
vertex 12196.08 6039.280000000001 1600.04
vertex 12196.08 6039.280000000001 1200.03
endloop
endfacet
facet normal 0.19599112326047607 -0.9806056697791915 0
outer loop
vertex 11950.51 7267.39 1600.04
vertex 11558.300000000001 7189 1600.04
vertex 11558.300000000001 7189 1200.03
endloop
endfacet
facet normal 0.19599112326047607 -0.9806056697791915 0
outer loop
vertex 11950.51 7267.39 1600.04
vertex 11558.300000000001 7189 1200.03
vertex 11950.51 7267.39 1200.03
endloop
endfacet
facet normal -0.9805676626631458 -0.19618118588088748 0.000035294530780336754
outer loop
vertex 11402.43 10007.53 2529.8
vertex 11620.050000000001 8919.69 1889.29
vertex 11659.31 8723.52 2235.61
endloop
endfacet
facet normal -0.9805676626631455 -0.19618118588088845 0.000035294530784838585
outer loop
vertex 11402.43 10007.53 2529.8
vertex 11659.31 8723.52 2235.61
vertex 11441.69 9811.36 2876.12
endloop
endfacet
facet normal -0.9805886594126709 -0.19607621230343322 0
outer loop
vertex 11950.51 7267.39 1600.04
vertex 11950.51 7267.39 1200.03
vertex 12196.08 6039.280000000001 1200.03
endloop
endfacet
facet normal -0.9805886594126709 -0.19607621230343322 0
outer loop
vertex 11950.51 7267.39 1600.04
vertex 12196.08 6039.280000000001 1200.03
vertex 12196.08 6039.280000000001 1600.04
endloop
endfacet
facet normal -0.9805748632063993 -0.1961451953216066 0
outer loop
vertex 11196.12 11039.210000000001 1600.04
vertex 11196.12 11039.210000000001 1200.03
vertex 11364.86 10195.640000000001 1200.03
endloop
endfacet
facet normal -0.9805748632063993 -0.1961451953216066 0
outer loop
vertex 11196.12 11039.210000000001 1600.04
vertex 11364.86 10195.640000000001 1200.03
vertex 11364.86 10195.640000000001 1600.04
endloop
endfacet
facet normal -0.9805816821815071 -0.19611104507678614 -0.00015022974588014716
outer loop
vertex 11656.06 8739.51 954.59
vertex 11695.32 8543.470000000001 608.27
vertex 11912.810000000001 7455.5 1248.78
endloop
endfacet
facet normal -0.9805988871571327 -0.19602490798950944 0.00024073615685625503
outer loop
vertex 11656.06 8739.51 954.59
vertex 11912.810000000001 7455.5 1248.78
vertex 11873.68 7651.67 1595.1000000000001
endloop
endfacet
facet normal 0.9805926520532205 0.19605615601620197 0.00018554617282432639
outer loop
vertex 11266.970000000001 8645.130000000001 2235.61
vertex 11227.84 8841.17 1889.29
vertex 11010.220000000001 9929.01 2529.8
endloop
endfacet
facet normal 0.980578303282127 0.1961279466421423 -0.00014027929986534584
outer loop
vertex 11266.970000000001 8645.130000000001 2235.61
vertex 11010.220000000001 9929.01 2529.8
vertex 11049.48 9732.970000000001 2876.12
endloop
endfacet
facet normal 0.9805806756909201 0.19611613513818402 0
outer loop
vertex 10972.65 10117.12 1600.04
vertex 10972.65 10117.12 1200.03
vertex 10803.91 10960.82 1200.03
endloop
endfacet
facet normal 0.9805806756909201 0.19611613513818402 0
outer loop
vertex 10972.65 10117.12 1600.04
vertex 10803.91 10960.82 1200.03
vertex 10803.91 10960.82 1600.04
endloop
endfacet
facet normal 0.9805926494454733 0.19605625685885872 0
outer loop
vertex 11803.87 5960.76 1600.04
vertex 11803.87 5960.76 1200.03
vertex 11558.300000000001 7189 1200.03
endloop
endfacet
facet normal 0.9805926494454733 0.19605625685885872 0
outer loop
vertex 11803.87 5960.76 1600.04
vertex 11558.300000000001 7189 1200.03
vertex 11558.300000000001 7189 1600.04
endloop
endfacet
facet normal 0.9805845605049173 0.1960966916148062 0.00008507118083482757
outer loop
vertex 11520.6 7377.110000000001 1248.78
vertex 11303.11 8464.95 608.27
vertex 11263.85 8661.12 954.59
endloop
endfacet
facet normal 0.9805845605049173 0.1960966916148062 0.00008507118083484174
outer loop
vertex 11520.6 7377.110000000001 1248.78
vertex 11263.85 8661.12 954.59
vertex 11481.34 7573.280000000001 1595.1000000000001
endloop
endfacet
facet normal 0 0 1
outer loop
vertex 10803.91 10960.82 1200.03
vertex 10972.65 10117.12 1200.03
vertex 11364.86 10195.640000000001 1200.03
endloop
endfacet
facet normal 0 0 1
outer loop
vertex 10803.91 10960.82 1200.03
vertex 11364.86 10195.640000000001 1200.03
vertex 11196.12 11039.210000000001 1200.03
endloop
endfacet
facet normal 0 0 1
outer loop
vertex 11558.300000000001 7189 1200.03
vertex 11803.87 5960.76 1200.03
vertex 12196.08 6039.280000000001 1200.03
endloop
endfacet
facet normal 0 0 0.9999999999999999
outer loop
vertex 11558.300000000001 7189 1200.03
vertex 12196.08 6039.280000000001 1200.03
vertex 11950.51 7267.39 1200.03
endloop
endfacet
facet normal 0 0 -1
outer loop
vertex 11364.86 10195.640000000001 1600.04
vertex 10972.65 10117.12 1600.04
vertex 10803.91 10960.82 1600.04
endloop
endfacet
facet normal 0 0 -1
outer loop
vertex 11364.86 10195.640000000001 1600.04
vertex 10803.91 10960.82 1600.04
vertex 11196.12 11039.210000000001 1600.04
endloop
endfacet
facet normal 0 0 -1
outer loop
vertex 12196.08 6039.280000000001 1600.04
vertex 11803.87 5960.76 1600.04
vertex 11558.300000000001 7189 1600.04
endloop
endfacet
facet normal 0 0 -1
outer loop
vertex 12196.08 6039.280000000001 1600.04
vertex 11558.300000000001 7189 1600.04
vertex 11950.51 7267.39 1600.04
endloop
endfacet
facet normal -0.169655431393388 0.8491212138395506 -0.5002101546413983
outer loop
vertex 11520.6 7377.110000000001 1248.78
vertex 11481.34 7573.280000000001 1595.1000000000001
vertex 11873.68 7651.67 1595.1000000000001
endloop
endfacet
facet normal -0.16971491189931 0.8491374613602379 -0.5001623940218815
outer loop
vertex 11520.6 7377.110000000001 1248.78
vertex 11873.68 7651.67 1595.1000000000001
vertex 11912.810000000001 7455.5 1248.78
endloop
endfacet
facet normal 0.16970950406072546 -0.8491104042308646 0.5002101614905085
outer loop
vertex 11656.06 8739.51 954.59
vertex 11263.85 8661.12 954.59
vertex 11303.11 8464.95 608.27
endloop
endfacet
facet normal 0.17000720478266879 -0.8491916172670658 0.49997114665281345
outer loop
vertex 11656.06 8739.51 954.59
vertex 11303.11 8464.95 608.27
vertex 11695.32 8543.470000000001 608.27
endloop
endfacet
facet normal -0.09815365671266957 0.49028076540086385 0.8660199944296174
outer loop
vertex 11695.32 8543.470000000001 608.27
vertex 11303.11 8464.95 608.27
vertex 11520.6 7377.110000000001 1248.78
endloop
endfacet
facet normal -0.09798895051037727 0.490269757362871 0.8660448779325622
outer loop
vertex 11695.32 8543.470000000001 608.27
vertex 11520.6 7377.110000000001 1248.78
vertex 11912.810000000001 7455.5 1248.78
endloop
endfacet
facet normal 0.09799739554114249 -0.4903120105267472 -0.866020001385864
outer loop
vertex 11481.34 7573.280000000001 1595.1000000000001
vertex 11263.85 8661.12 954.59
vertex 11656.06 8739.51 954.59
endloop
endfacet
facet normal 0.09796448477918306 -0.49030980939233293 -0.8660249710808595
outer loop
vertex 11481.34 7573.280000000001 1595.1000000000001
vertex 11656.06 8739.51 954.59
vertex 11873.68 7651.67 1595.1000000000001
endloop
endfacet
facet normal -0.16968788205646218 0.8492836286010025 0.499923334995984
outer loop
vertex 11227.84 8841.17 1889.29
vertex 11266.970000000001 8645.130000000001 2235.61
vertex 11659.31 8723.52 2235.61
endloop
endfacet
facet normal -0.1699801079624294 0.8490562677527285 0.5002101729142336
outer loop
vertex 11227.84 8841.17 1889.29
vertex 11659.31 8723.52 2235.61
vertex 11620.050000000001 8919.69 1889.29
endloop
endfacet
facet normal 0.16973655946773974 -0.8492457710019499 -0.4999711199813029
outer loop
vertex 11441.69 9811.36 2876.12
vertex 11049.48 9732.970000000001 2876.12
vertex 11010.220000000001 9929.01 2529.8
endloop
endfacet
facet normal 0.1699801079624301 -0.8490562677527278 -0.500210172914235
outer loop
vertex 11441.69 9811.36 2876.12
vertex 11010.220000000001 9929.01 2529.8
vertex 11402.43 10007.53 2529.8
endloop
endfacet
facet normal 0.09815196334181493 -0.4902723069573731 0.8660249748840054
outer loop
vertex 11402.43 10007.53 2529.8
vertex 11010.220000000001 9929.01 2529.8
vertex 11227.84 8841.17 1889.29
endloop
endfacet
facet normal 0.09815196334181456 -0.49027230695737306 0.8660249748840055
outer loop
vertex 11402.43 10007.53 2529.8
vertex 11227.84 8841.17 1889.29
vertex 11620.050000000001 8919.69 1889.29
endloop
endfacet
facet normal -0.09799739554114205 0.49031201052674694 -0.8660200013858642
outer loop
vertex 11266.970000000001 8645.130000000001 2235.61
vertex 11049.48 9732.970000000001 2876.12
vertex 11441.69 9811.36 2876.12
endloop
endfacet
facet normal -0.09796448477918346 0.4903098093923327 -0.8660249710808594
outer loop
vertex 11266.970000000001 8645.130000000001 2235.61
vertex 11441.69 9811.36 2876.12
vertex 11659.31 8723.52 2235.61
endloop
endfacet
facet normal -0.19630363502487277 0.9805431570696015 0
outer loop
vertex 10972.65 10117.12 1200.03
vertex 10972.65 10117.12 1600.04
vertex 11364.86 10195.640000000001 1600.04
endloop
endfacet
facet normal -0.19630363502487277 0.9805431570696015 0
outer loop
vertex 10972.65 10117.12 1200.03
vertex 11364.86 10195.640000000001 1600.04
vertex 11364.86 10195.640000000001 1200.03
endloop
endfacet
facet normal 0.19599112326047735 -0.9806056697791912 0
outer loop
vertex 11196.12 11039.210000000001 1600.04
vertex 10803.91 10960.82 1600.04
vertex 10803.91 10960.82 1200.03
endloop
endfacet
facet normal 0.19599112326047735 -0.9806056697791912 0
outer loop
vertex 11196.12 11039.210000000001 1600.04
vertex 10803.91 10960.82 1200.03
vertex 11196.12 11039.210000000001 1200.03
endloop
endfacet
endsolid JSCAD
