solid JSCAD
facet normal -0.9284775788045709 -0.37138845654812963 0
outer loop
vertex 10000.016000000001 10000.016000000001 600.0106666666668
vertex 10000.016000000001 10000.016000000001 199.99200000000002
vertex 12000.005333333334 5000.008000000001 199.99200000000002
endloop
endfacet
facet normal -0.9284775788045709 -0.37138845654812963 0
outer loop
vertex 10000.016000000001 10000.016000000001 600.0106666666668
vertex 12000.005333333334 5000.008000000001 199.99200000000002
vertex 12000.005333333334 5000.008000000001 600.0106666666668
endloop
endfacet
facet normal 0.371396225879653 0.9284744710558012 0
outer loop
vertex 14999.989333333335 7999.992000000001 600.0106666666668
vertex 14999.989333333335 7999.992000000001 199.99200000000002
vertex 10000.016000000001 10000.016000000001 199.99200000000002
endloop
endfacet
facet normal 0.371396225879653 0.9284744710558012 0
outer loop
vertex 14999.989333333335 7999.992000000001 600.0106666666668
vertex 10000.016000000001 10000.016000000001 199.99200000000002
vertex 10000.016000000001 10000.016000000001 600.0106666666668
endloop
endfacet
facet normal 0.7071067811865475 -0.7071067811865475 0
outer loop
vertex 12000.005333333334 5000.008000000001 600.0106666666668
vertex 12000.005333333334 5000.008000000001 199.99200000000002
vertex 14999.989333333335 7999.992000000001 199.99200000000002
endloop
endfacet
facet normal 0.7071067811865475 -0.7071067811865475 0
outer loop
vertex 12000.005333333334 5000.008000000001 600.0106666666668
vertex 14999.989333333335 7999.992000000001 199.99200000000002
vertex 14999.989333333335 7999.992000000001 600.0106666666668
endloop
endfacet
facet normal 0 0 1
outer loop
vertex 10000.016000000001 10000.016000000001 600.0106666666668
vertex 12000.005333333334 5000.008000000001 600.0106666666668
vertex 14999.989333333335 7999.992000000001 600.0106666666668
endloop
endfacet
facet normal 0 0 -1
outer loop
vertex 14999.989333333335 7999.992000000001 199.99200000000002
vertex 12000.005333333334 5000.008000000001 199.99200000000002
vertex 10000.016000000001 10000.016000000001 199.99200000000002
endloop
endfacet
endsolid JSCAD
