solid JSCAD
facet normal -1 0 0
outer loop
vertex 0 0 0
vertex 0 0 3999.9700000000003
vertex 0 15000.050000000001 3999.9700000000003
endloop
endfacet
facet normal -1 0 0
outer loop
vertex 0 0 0
vertex 0 15000.050000000001 3999.9700000000003
vertex 0 15000.050000000001 0
endloop
endfacet
facet normal 1 0 0
outer loop
vertex 19999.98 0 0
vertex 19999.98 15000.050000000001 0
vertex 19999.98 15000.050000000001 3999.9700000000003
endloop
endfacet
facet normal 1 0 0
outer loop
vertex 19999.98 0 0
vertex 19999.98 15000.050000000001 3999.9700000000003
vertex 19999.98 0 3999.9700000000003
endloop
endfacet
facet normal 0 -1 0
outer loop
vertex 0 0 0
vertex 19999.98 0 0
vertex 19999.98 0 3999.9700000000003
endloop
endfacet
facet normal 0 -1 0
outer loop
vertex 0 0 0
vertex 19999.98 0 3999.9700000000003
vertex 0 0 3999.9700000000003
endloop
endfacet
facet normal 0 1 0
outer loop
vertex 0 15000.050000000001 0
vertex 0 15000.050000000001 3999.9700000000003
vertex 19999.98 15000.050000000001 3999.9700000000003
endloop
endfacet
facet normal 0 1 0
outer loop
vertex 0 15000.050000000001 0
vertex 19999.98 15000.050000000001 3999.9700000000003
vertex 19999.98 15000.050000000001 0
endloop
endfacet
facet normal 0 0 -1
outer loop
vertex 0 0 0
vertex 0 15000.050000000001 0
vertex 19999.98 15000.050000000001 0
endloop
endfacet
facet normal 0 0 -1
outer loop
vertex 0 0 0
vertex 19999.98 15000.050000000001 0
vertex 19999.98 0 0
endloop
endfacet
facet normal 0 0 1
outer loop
vertex 0 0 3999.9700000000003
vertex 19999.98 0 3999.9700000000003
vertex 19999.98 15000.050000000001 3999.9700000000003
endloop
endfacet
facet normal 0 0 1
outer loop
vertex 0 0 3999.9700000000003
vertex 19999.98 15000.050000000001 3999.9700000000003
vertex 0 15000.050000000001 3999.9700000000003
endloop
endfacet
facet normal 0.09068227320835523 -0.9958798749476592 0
outer loop
vertex 6199.18 11518.130000000001 199.94
vertex 6199.18 11518.130000000001 599.95
vertex 5800.860000000001 11481.86 599.95
endloop
endfacet
facet normal 0.09068227320835523 -0.9958798749476592 0
outer loop
vertex 6199.18 11518.130000000001 199.94
vertex 5800.860000000001 11481.86 599.95
vertex 5800.860000000001 11481.86 199.94
endloop
endfacet
facet normal -0.09035990568286599 0.9959091763032327 0
outer loop
vertex 6300.84 5981.95 599.95
vertex 6699.16 6018.09 599.95
vertex 6699.16 6018.09 199.94
endloop
endfacet
facet normal -0.09035990568286599 0.9959091763032327 0
outer loop
vertex 6300.84 5981.95 599.95
vertex 6699.16 6018.09 199.94
vertex 6300.84 5981.95 199.94
endloop
endfacet
facet normal 0.9958933994136695 0.09053362361181291 0
outer loop
vertex 5800.860000000001 11481.86 599.95
vertex 6300.84 5981.95 599.95
vertex 6300.84 5981.95 199.94
endloop
endfacet
facet normal 0.9958933994136695 0.09053362361181291 0
outer loop
vertex 5800.860000000001 11481.86 599.95
vertex 6300.84 5981.95 199.94
vertex 5800.860000000001 11481.86 199.94
endloop
endfacet
facet normal -0.995893592346066 -0.09053150128020623 0
outer loop
vertex 6699.16 6018.09 199.94
vertex 6699.16 6018.09 599.95
vertex 6199.18 11518.130000000001 599.95
endloop
endfacet
facet normal -0.995893592346066 -0.09053150128020623 0
outer loop
vertex 6699.16 6018.09 199.94
vertex 6199.18 11518.130000000001 599.95
vertex 6199.18 11518.130000000001 199.94
endloop
endfacet
facet normal 0 0 1
outer loop
vertex 6300.84 5981.95 199.94
vertex 6699.16 6018.09 199.94
vertex 6199.18 11518.130000000001 199.94
endloop
endfacet
facet normal 0 0 1
outer loop
vertex 6300.84 5981.95 199.94
vertex 6199.18 11518.130000000001 199.94
vertex 5800.860000000001 11481.86 199.94
endloop
endfacet
facet normal 0 0 -1
outer loop
vertex 6199.18 11518.130000000001 599.95
vertex 6699.16 6018.09 599.95
vertex 6300.84 5981.95 599.95
endloop
endfacet
facet normal 0 0 -1
outer loop
vertex 6199.18 11518.130000000001 599.95
vertex 6300.84 5981.95 599.95
vertex 5800.860000000001 11481.86 599.95
endloop
endfacet
endsolid JSCAD
