solid JSCAD
facet normal -1 0 0
outer loop
vertex 0 0 0
vertex 0 0 3999.9700000000003
vertex 0 15000.050000000001 3999.9700000000003
endloop
endfacet
facet normal -1 0 0
outer loop
vertex 0 0 0
vertex 0 15000.050000000001 3999.9700000000003
vertex 0 15000.050000000001 0
endloop
endfacet
facet normal 1 0 0
outer loop
vertex 19999.98 0 0
vertex 19999.98 15000.050000000001 0
vertex 19999.98 15000.050000000001 3999.9700000000003
endloop
endfacet
facet normal 1 0 0
outer loop
vertex 19999.98 0 0
vertex 19999.98 15000.050000000001 3999.9700000000003
vertex 19999.98 0 3999.9700000000003
endloop
endfacet
facet normal 0 -1 0
outer loop
vertex 0 0 0
vertex 19999.98 0 0
vertex 19999.98 0 3999.9700000000003
endloop
endfacet
facet normal 0 -1 0
outer loop
vertex 0 0 0
vertex 19999.98 0 3999.9700000000003
vertex 0 0 3999.9700000000003
endloop
endfacet
facet normal 0 1 0
outer loop
vertex 0 15000.050000000001 0
vertex 0 15000.050000000001 3999.9700000000003
vertex 19999.98 15000.050000000001 3999.9700000000003
endloop
endfacet
facet normal 0 1 0
outer loop
vertex 0 15000.050000000001 0
vertex 19999.98 15000.050000000001 3999.9700000000003
vertex 19999.98 15000.050000000001 0
endloop
endfacet
facet normal 0 0 -1
outer loop
vertex 0 0 0
vertex 0 15000.050000000001 0
vertex 19999.98 15000.050000000001 0
endloop
endfacet
facet normal 0 0 -1
outer loop
vertex 0 0 0
vertex 19999.98 15000.050000000001 0
vertex 19999.98 0 0
endloop
endfacet
facet normal 0 0 1
outer loop
vertex 0 0 3999.9700000000003
vertex 19999.98 0 3999.9700000000003
vertex 19999.98 15000.050000000001 3999.9700000000003
endloop
endfacet
facet normal 0 0 1
outer loop
vertex 0 0 3999.9700000000003
vertex 19999.98 15000.050000000001 3999.9700000000003
vertex 0 15000.050000000001 3999.9700000000003
endloop
endfacet
facet normal 0.09035990568287276 -0.9959091763032322 0
outer loop
vertex 6000.02 11500.06 495.17
vertex 6199.18 11518.130000000001 199.94
vertex 6199.18 11518.130000000001 580.97
endloop
endfacet
facet normal 0.09035990568287275 -0.9959091763032321 0
outer loop
vertex 6000.02 11500.06 495.17
vertex 6199.18 11518.130000000001 580.97
vertex 6199.18 11518.130000000001 599.82
endloop
endfacet
facet normal 0.09035990568286668 -0.9959091763032326 0
outer loop
vertex 6000.02 11500.06 495.17
vertex 6199.18 11518.130000000001 599.82
vertex 6199.18 11518.130000000001 599.95
endloop
endfacet
facet normal 0.09068225590317544 -0.9958796849008101 -0.0006177913677920192
outer loop
vertex 6000.02 11500.06 495.17
vertex 6199.18 11518.130000000001 599.95
vertex 5800.860000000001 11481.86 599.95
endloop
endfacet
facet normal 0.09100461223061189 -0.9958504709808375 0
outer loop
vertex 6000.02 11500.06 495.17
vertex 5800.860000000001 11481.86 599.95
vertex 5800.860000000001 11481.86 599.82
endloop
endfacet
facet normal 0.09100461223061944 -0.9958504709808369 0
outer loop
vertex 6000.02 11500.06 495.17
vertex 5800.860000000001 11481.86 599.82
vertex 5800.860000000001 11481.86 580.97
endloop
endfacet
facet normal 0.09100461223061938 -0.9958504709808368 0
outer loop
vertex 6000.02 11500.06 495.17
vertex 5800.860000000001 11481.86 580.97
vertex 5800.860000000001 11481.86 199.94
endloop
endfacet
facet normal 0.09068227102857837 -0.9958798510091776 0.00021926020497338238
outer loop
vertex 6000.02 11500.06 495.17
vertex 5800.860000000001 11481.86 199.94
vertex 6199.18 11518.130000000001 199.94
endloop
endfacet
facet normal 0.9958932064677039 0.09053574604251814 0
outer loop
vertex 5916.17 10213.45 599.95
vertex 5916.17 10213.45 599.82
vertex 5800.860000000001 11481.86 599.82
endloop
endfacet
facet normal 0.9958932064677039 0.09053574604251814 0
outer loop
vertex 5916.17 10213.45 599.95
vertex 5800.860000000001 11481.86 599.82
vertex 5800.860000000001 11481.86 599.95
endloop
endfacet
facet normal 0.9958958697401085 0.09050644468024784 -0.000010292438070449018
outer loop
vertex 6033.95 8917.48 889.2
vertex 5988.58 9416.68 599.82
vertex 5916.17 10213.45 599.82
endloop
endfacet
facet normal 0.9958978008941849 0.09048513040734936 -0.00010653305447569798
outer loop
vertex 6033.95 8917.48 889.2
vertex 5916.17 10213.45 599.82
vertex 6015.88 9116.77 1235.65
endloop
endfacet
facet normal 0.9958945383387436 0.09052109299195162 -0.00001518562842160175
outer loop
vertex 6186.4400000000005 7239.570000000001 599.82
vertex 6114.030000000001 8036.21 599.82
vertex 6068.66 8535.41 889.2
endloop
endfacet
facet normal 0.995896472687113 0.09049977412935786 0.00008106726553945821
outer loop
vertex 6186.4400000000005 7239.570000000001 599.82
vertex 6068.66 8535.41 889.2
vertex 6086.7300000000005 8336.25 1235.65
endloop
endfacet
facet normal 0.9958881420507767 0.09059143735835024 0
outer loop
vertex 6300.84 5981.95 599.95
vertex 6300.84 5981.95 599.82
vertex 6186.4400000000005 7239.570000000001 599.82
endloop
endfacet
facet normal 0.9958881420507767 0.09059143735835024 0
outer loop
vertex 6300.84 5981.95 599.95
vertex 6186.4400000000005 7239.570000000001 599.82
vertex 6186.4400000000005 7239.570000000001 599.95
endloop
endfacet
facet normal 0.9958939748891595 0.09050686481948657 -0.0019230704660507044
outer loop
vertex 5988.58 9416.68 599.82
vertex 5985.59 9449.18 580.97
vertex 5800.860000000001 11481.86 580.97
endloop
endfacet
facet normal 0.9958942341093822 0.09052444127243753 0
outer loop
vertex 5988.58 9416.68 599.82
vertex 5800.860000000001 11481.86 580.97
vertex 5800.860000000001 11481.86 599.82
endloop
endfacet
facet normal 0.9958921566257479 0.09054729356152297 0
outer loop
vertex 6300.84 5981.95 599.82
vertex 6300.84 5981.95 580.97
vertex 6117.02 8003.71 580.97
endloop
endfacet
facet normal 0.9958889669422439 0.09056400743551452 0.0018237543502847686
outer loop
vertex 6300.84 5981.95 599.82
vertex 6117.02 8003.71 580.97
vertex 6114.030000000001 8036.21 599.82
endloop
endfacet
facet normal 0.9959001254909751 0.09045937523595525 -0.00020366389145347167
outer loop
vertex 5985.59 9449.18 580.97
vertex 5933.46 10022.35 248.69
vertex 5916.17 10213.45 580.97
endloop
endfacet
facet normal 0.9958987439939591 0.09047463921278923 0.00017711739138914187
outer loop
vertex 6186.4400000000005 7239.570000000001 580.97
vertex 6169.150000000001 7430.54 248.69
vertex 6117.02 8003.71 580.97
endloop
endfacet
facet normal 0.9958932064677039 0.09053574604251814 0
outer loop
vertex 5916.17 10213.45 580.97
vertex 5916.17 10213.45 199.94
vertex 5800.860000000001 11481.86 199.94
endloop
endfacet
facet normal 0.9958932064677039 0.09053574604251814 0
outer loop
vertex 5916.17 10213.45 580.97
vertex 5800.860000000001 11481.86 199.94
vertex 5800.860000000001 11481.86 580.97
endloop
endfacet
facet normal 0.9958881420507767 0.09059143735835022 0
outer loop
vertex 6300.84 5981.95 580.97
vertex 6300.84 5981.95 199.94
vertex 6186.4400000000005 7239.570000000001 199.94
endloop
endfacet
facet normal 0.9958881420507767 0.09059143735835022 0
outer loop
vertex 6300.84 5981.95 580.97
vertex 6186.4400000000005 7239.570000000001 199.94
vertex 6186.4400000000005 7239.570000000001 580.97
endloop
endfacet
facet normal -0.9958974244754468 -0.09048933596381169 0
outer loop
vertex 6584.89 7275.71 599.95
vertex 6584.89 7275.71 599.82
vertex 6699.16 6018.09 599.82
endloop
endfacet
facet normal -0.9958974244754468 -0.09048933596381169 0
outer loop
vertex 6584.89 7275.71 599.95
vertex 6699.16 6018.09 599.82
vertex 6699.16 6018.09 599.95
endloop
endfacet
facet normal -0.995895765484947 -0.09050643520559862 -0.0004576849641656772
outer loop
vertex 6466.9800000000005 8571.68 889.2
vertex 6512.4800000000005 8072.4800000000005 599.82
vertex 6584.89 7275.71 599.82
endloop
endfacet
facet normal -0.9958825242395546 -0.09065294458636486 0.00020384325974686512
outer loop
vertex 6466.9800000000005 8571.68 889.2
vertex 6584.89 7275.71 599.82
vertex 6485.18 8372.52 1235.65
endloop
endfacet
facet normal -0.9958945383387434 -0.09052109299195273 -0.000015185628426945198
outer loop
vertex 6314.49 10249.59 599.82
vertex 6386.900000000001 9452.95 599.82
vertex 6432.27 8953.75 889.2
endloop
endfacet
facet normal -0.9958964726871131 -0.09049977412935784 0.00008106726553945817
outer loop
vertex 6314.49 10249.59 599.82
vertex 6432.27 8953.75 889.2
vertex 6414.2 9152.91 1235.65
endloop
endfacet
facet normal -0.9958940429763202 -0.09052654397622377 0
outer loop
vertex 6199.18 11518.130000000001 599.95
vertex 6199.18 11518.130000000001 599.82
vertex 6314.49 10249.59 599.82
endloop
endfacet
facet normal -0.9958940429763202 -0.09052654397622377 0
outer loop
vertex 6199.18 11518.130000000001 599.95
vertex 6314.49 10249.59 599.82
vertex 6314.49 10249.59 599.95
endloop
endfacet
facet normal -0.9958802077176856 -0.09054038537342024 0.0050050467142654246
outer loop
vertex 6512.4800000000005 8072.4800000000005 599.82
vertex 6515.34 8039.9800000000005 580.97
vertex 6699.16 6018.09 580.97
endloop
endfacet
facet normal -0.9958968215451605 -0.09049597138131023 0
outer loop
vertex 6512.4800000000005 8072.4800000000005 599.82
vertex 6699.16 6018.09 580.97
vertex 6699.16 6018.09 599.82
endloop
endfacet
facet normal -0.9958958164018249 -0.09050703217619528 0
outer loop
vertex 6199.18 11518.130000000001 599.82
vertex 6199.18 11518.130000000001 580.97
vertex 6383.91 9485.45 580.97
endloop
endfacet
facet normal -0.9958924501092392 -0.090524279111025 0.0018928039638726958
outer loop
vertex 6199.18 11518.130000000001 599.82
vertex 6383.91 9485.45 580.97
vertex 6386.900000000001 9452.95 599.82
endloop
endfacet
facet normal -0.9958848673483727 -0.09062738629552312 0.00008854239838156115
outer loop
vertex 6515.34 8039.9800000000005 580.97
vertex 6567.47 7466.81 248.69
vertex 6584.89 7275.71 580.97
endloop
endfacet
facet normal -0.9958987371263505 -0.09047463858888603 -0.00021251435362221413
outer loop
vertex 6314.49 10249.59 580.97
vertex 6331.91 10058.62 248.69
vertex 6383.91 9485.45 580.97
endloop
endfacet
facet normal -0.995897424475447 -0.0904893359638117 0
outer loop
vertex 6584.89 7275.71 580.97
vertex 6584.89 7275.71 199.94
vertex 6699.16 6018.09 199.94
endloop
endfacet
facet normal -0.995897424475447 -0.0904893359638117 0
outer loop
vertex 6584.89 7275.71 580.97
vertex 6699.16 6018.09 199.94
vertex 6699.16 6018.09 580.97
endloop
endfacet
facet normal -0.9958940429763203 -0.09052654397622377 0
outer loop
vertex 6199.18 11518.130000000001 580.97
vertex 6199.18 11518.130000000001 199.94
vertex 6314.49 10249.59 199.94
endloop
endfacet
facet normal -0.9958940429763203 -0.09052654397622377 0
outer loop
vertex 6199.18 11518.130000000001 580.97
vertex 6314.49 10249.59 199.94
vertex 6314.49 10249.59 580.97
endloop
endfacet
facet normal 0 0 0.9999999999999999
outer loop
vertex 5800.860000000001 11481.86 199.94
vertex 5916.17 10213.45 199.94
vertex 6314.49 10249.59 199.94
endloop
endfacet
facet normal 0 0 0.9999999999999999
outer loop
vertex 5800.860000000001 11481.86 199.94
vertex 6314.49 10249.59 199.94
vertex 6199.18 11518.130000000001 199.94
endloop
endfacet
facet normal 0 0 0.9999999999999999
outer loop
vertex 6186.4400000000005 7239.570000000001 199.94
vertex 6300.84 5981.95 199.94
vertex 6699.16 6018.09 199.94
endloop
endfacet
facet normal 0 0 1
outer loop
vertex 6186.4400000000005 7239.570000000001 199.94
vertex 6699.16 6018.09 199.94
vertex 6584.89 7275.71 199.94
endloop
endfacet
facet normal 0 0 -1
outer loop
vertex 6314.49 10249.59 599.95
vertex 5916.17 10213.45 599.95
vertex 5800.860000000001 11481.86 599.95
endloop
endfacet
facet normal 0 0 -0.9999999999999999
outer loop
vertex 6314.49 10249.59 599.95
vertex 5800.860000000001 11481.86 599.95
vertex 6199.18 11518.130000000001 599.95
endloop
endfacet
facet normal 0 0 -1
outer loop
vertex 6699.16 6018.09 599.95
vertex 6300.84 5981.95 599.95
vertex 6186.4400000000005 7239.570000000001 599.95
endloop
endfacet
facet normal 0 0 -1
outer loop
vertex 6699.16 6018.09 599.95
vertex 6186.4400000000005 7239.570000000001 599.95
vertex 6584.89 7275.71 599.95
endloop
endfacet
facet normal -0.07825836769559746 0.8625310741701955 -0.49991576688121075
outer loop
vertex 6015.88 9116.77 1235.65
vertex 6414.2 9152.91 1235.65
vertex 6432.27 8953.75 889.2
endloop
endfacet
facet normal -0.07852485495562099 0.8623661490466676 -0.5001584470271588
outer loop
vertex 6015.88 9116.77 1235.65
vertex 6432.27 8953.75 889.2
vertex 6033.95 8917.48 889.2
endloop
endfacet
facet normal -0.04534043750072154 0.4979322598645496 0.8660298547471824
outer loop
vertex 6033.95 8917.48 889.2
vertex 6432.27 8953.75 889.2
vertex 6331.91 10058.62 248.69
endloop
endfacet
facet normal -0.045325404807861666 0.4979296262942433 0.8660321558334187
outer loop
vertex 6033.95 8917.48 889.2
vertex 6331.91 10058.62 248.69
vertex 5933.46 10022.35 248.69
endloop
endfacet
facet normal 0.07826204003475963 -0.8625715491600978 0.4998453517530662
outer loop
vertex 6331.91 10058.62 248.69
vertex 6314.49 10249.59 580.97
vertex 5916.17 10213.45 580.97
endloop
endfacet
facet normal 0.07850379150154786 -0.8624162041298967 0.5000754398828859
outer loop
vertex 6331.91 10058.62 248.69
vertex 5916.17 10213.45 580.97
vertex 5933.46 10022.35 248.69
endloop
endfacet
facet normal 0.04518261146642747 -0.49798389040696417 -0.8660084159615417
outer loop
vertex 6314.49 10249.59 599.82
vertex 6414.2 9152.91 1235.65
vertex 6015.88 9116.77 1235.65
endloop
endfacet
facet normal 0.04518261146642752 -0.49798389040696417 -0.8660084159615419
outer loop
vertex 6314.49 10249.59 599.82
vertex 6015.88 9116.77 1235.65
vertex 5916.17 10213.45 599.82
endloop
endfacet
facet normal -0.09035990568286376 0.9959091763032331 0
outer loop
vertex 6314.49 10249.59 599.95
vertex 6314.49 10249.59 599.82
vertex 5916.17 10213.45 599.82
endloop
endfacet
facet normal -0.09035990568286376 0.9959091763032331 0
outer loop
vertex 6314.49 10249.59 599.95
vertex 5916.17 10213.45 599.82
vertex 5916.17 10213.45 599.95
endloop
endfacet
facet normal -0.09035990568286376 0.9959091763032331 0
outer loop
vertex 6314.49 10249.59 580.97
vertex 6314.49 10249.59 199.94
vertex 5916.17 10213.45 199.94
endloop
endfacet
facet normal -0.09035990568286376 0.9959091763032331 0
outer loop
vertex 6314.49 10249.59 580.97
vertex 5916.17 10213.45 199.94
vertex 5916.17 10213.45 580.97
endloop
endfacet
facet normal 0.07851099298130049 -0.8624953171601543 -0.4999378479950233
outer loop
vertex 6466.9800000000005 8571.68 889.2
vertex 6485.18 8372.52 1235.65
vertex 6086.7300000000005 8336.25 1235.65
endloop
endfacet
facet normal 0.07853756286594256 -0.8625057083198763 -0.49991574723617843
outer loop
vertex 6466.9800000000005 8571.68 889.2
vertex 6086.7300000000005 8336.25 1235.65
vertex 6068.66 8535.41 889.2
endloop
endfacet
facet normal 0.04534007615840051 -0.49792829157468593 0.866032155259529
outer loop
vertex 6169.150000000001 7430.54 248.69
vertex 6567.47 7466.81 248.69
vertex 6466.9800000000005 8571.68 889.2
endloop
endfacet
facet normal 0.045340076158400536 -0.497928291574686 0.866032155259529
outer loop
vertex 6169.150000000001 7430.54 248.69
vertex 6466.9800000000005 8571.68 889.2
vertex 6068.66 8535.41 889.2
endloop
endfacet
facet normal -0.09035990568286828 0.9959091763032327 0
outer loop
vertex 6500 6000.02 495.17
vertex 6300.84 5981.95 580.97
vertex 6300.84 5981.95 599.82
endloop
endfacet
facet normal -0.09035990568285801 0.9959091763032335 0
outer loop
vertex 6500 6000.02 495.17
vertex 6300.84 5981.95 599.82
vertex 6300.84 5981.95 599.95
endloop
endfacet
facet normal -0.090359905682866 0.9959091763032328 4.318793871741547e-15
outer loop
vertex 6500 6000.02 495.17
vertex 6300.84 5981.95 599.95
vertex 6699.16 6018.09 599.95
endloop
endfacet
facet normal -0.09035990568285801 0.9959091763032335 0
outer loop
vertex 6500 6000.02 495.17
vertex 6699.16 6018.09 599.95
vertex 6699.16 6018.09 599.82
endloop
endfacet
facet normal -0.09035990568286378 0.995909176303233 0
outer loop
vertex 6500 6000.02 495.17
vertex 6699.16 6018.09 599.82
vertex 6699.16 6018.09 580.97
endloop
endfacet
facet normal -0.09035990568286376 0.9959091763032331 0
outer loop
vertex 6500 6000.02 495.17
vertex 6699.16 6018.09 580.97
vertex 6699.16 6018.09 199.94
endloop
endfacet
facet normal -0.090359905682866 0.9959091763032328 -1.5327819729738828e-15
outer loop
vertex 6500 6000.02 495.17
vertex 6699.16 6018.09 199.94
vertex 6300.84 5981.95 199.94
endloop
endfacet
facet normal -0.09035990568286827 0.9959091763032326 0
outer loop
vertex 6500 6000.02 495.17
vertex 6300.84 5981.95 199.94
vertex 6300.84 5981.95 580.97
endloop
endfacet
facet normal 0.09033066506849624 -0.9959118289026809 0
outer loop
vertex 6186.4400000000005 7239.570000000001 599.95
vertex 6186.4400000000005 7239.570000000001 599.82
vertex 6584.89 7275.71 599.82
endloop
endfacet
facet normal 0.09033066506849624 -0.9959118289026809 0
outer loop
vertex 6186.4400000000005 7239.570000000001 599.95
vertex 6584.89 7275.71 599.82
vertex 6584.89 7275.71 599.95
endloop
endfacet
facet normal 0.09033066506849625 -0.9959118289026812 0
outer loop
vertex 6186.4400000000005 7239.570000000001 580.97
vertex 6186.4400000000005 7239.570000000001 199.94
vertex 6584.89 7275.71 199.94
endloop
endfacet
facet normal 0.09033066506849625 -0.9959118289026812 0
outer loop
vertex 6186.4400000000005 7239.570000000001 580.97
vertex 6584.89 7275.71 199.94
vertex 6584.89 7275.71 580.97
endloop
endfacet
facet normal -0.07822351628412973 0.8624283360102928 0.5000984370568099
outer loop
vertex 6186.4400000000005 7239.570000000001 580.97
vertex 6584.89 7275.71 580.97
vertex 6567.47 7466.81 248.69
endloop
endfacet
facet normal -0.07854245156806466 0.862559396432068 0.49982233936512366
outer loop
vertex 6186.4400000000005 7239.570000000001 580.97
vertex 6567.47 7466.81 248.69
vertex 6169.150000000001 7430.54 248.69
endloop
endfacet
facet normal -0.04532913184568354 0.49797057027605085 -0.8660084185185855
outer loop
vertex 6186.4400000000005 7239.570000000001 599.82
vertex 6086.7300000000005 8336.25 1235.65
vertex 6485.18 8372.52 1235.65
endloop
endfacet
facet normal -0.04516400814667837 0.4979413128401847 -0.8660338684688492
outer loop
vertex 6186.4400000000005 7239.570000000001 599.82
vertex 6485.18 8372.52 1235.65
vertex 6584.89 7275.71 599.82
endloop
endfacet
facet normal -0.19624109603680606 0.980555675230261 0
outer loop
vertex 12000.04 6000.02 1495.26
vertex 11803.87 5960.76 1200.03
vertex 11803.87 5960.76 1581.06
endloop
endfacet
facet normal -0.19624109603680612 0.980555675230261 0
outer loop
vertex 12000.04 6000.02 1495.26
vertex 11803.87 5960.76 1581.06
vertex 11803.87 5960.76 1599.91
endloop
endfacet
facet normal -0.19624109603680914 0.9805556752302603 0
outer loop
vertex 12000.04 6000.02 1495.26
vertex 11803.87 5960.76 1599.91
vertex 11803.87 5960.76 1600.04
endloop
endfacet
facet normal -0.19630363356933098 0.9805431497991175 -0.0001217764476246054
outer loop
vertex 12000.04 6000.02 1495.26
vertex 11803.87 5960.76 1600.04
vertex 12196.08 6039.280000000001 1600.04
endloop
endfacet
facet normal -0.19636621308650007 0.9805306269352666 0
outer loop
vertex 12000.04 6000.02 1495.26
vertex 12196.08 6039.280000000001 1600.04
vertex 12196.08 6039.280000000001 1599.91
endloop
endfacet
facet normal -0.19636621308650734 0.9805306269352653 0
outer loop
vertex 12000.04 6000.02 1495.26
vertex 12196.08 6039.280000000001 1599.91
vertex 12196.08 6039.280000000001 1581.06
endloop
endfacet
facet normal -0.19636621308650745 0.9805306269352654 0
outer loop
vertex 12000.04 6000.02 1495.26
vertex 12196.08 6039.280000000001 1581.06
vertex 12196.08 6039.280000000001 1200.03
endloop
endfacet
facet normal -0.19630363484153218 0.9805431561538046 0.000043219646596887944
outer loop
vertex 12000.04 6000.02 1495.26
vertex 12196.08 6039.280000000001 1200.03
vertex 11803.87 5960.76 1200.03
endloop
endfacet
facet normal -0.9805886594126708 -0.1960762123034332 0
outer loop
vertex 11950.51 7267.39 1600.04
vertex 11950.51 7267.39 1599.91
vertex 12196.08 6039.280000000001 1599.91
endloop
endfacet
facet normal -0.9805886594126708 -0.1960762123034332 0
outer loop
vertex 11950.51 7267.39 1600.04
vertex 12196.08 6039.280000000001 1599.91
vertex 12196.08 6039.280000000001 1600.04
endloop
endfacet
facet normal -0.980580671885263 -0.1961161343770524 0.00008810248624092676
outer loop
vertex 11695.32 8543.470000000001 1889.29
vertex 11793.6 8051.9400000000005 1599.91
vertex 11950.51 7267.39 1599.91
endloop
endfacet
facet normal -0.9805954270705292 -0.19604220322571186 -0.00025092384360449524
outer loop
vertex 11695.32 8543.470000000001 1889.29
vertex 11950.51 7267.39 1599.91
vertex 11734.45 8347.300000000001 2235.61
endloop
endfacet
facet normal -0.9805744148087617 -0.19614738459963113 -0.00014330798552445687
outer loop
vertex 11364.86 10195.640000000001 1599.91
vertex 11521.77 9411.220000000001 1599.91
vertex 11620.050000000001 8919.69 1889.29
endloop
endfacet
facet normal -0.9805749760144734 -0.19614458796677847 -0.00013048202044756193
outer loop
vertex 11364.86 10195.640000000001 1599.91
vertex 11620.050000000001 8919.69 1889.29
vertex 11580.79 9115.73 2235.61
endloop
endfacet
facet normal -0.9805748632063993 -0.19614519532160657 0
outer loop
vertex 11196.12 11039.210000000001 1600.04
vertex 11196.12 11039.210000000001 1599.91
vertex 11364.86 10195.640000000001 1599.91
endloop
endfacet
facet normal -0.9805748632063993 -0.19614519532160657 0
outer loop
vertex 11196.12 11039.210000000001 1600.04
vertex 11364.86 10195.640000000001 1599.91
vertex 11364.86 10195.640000000001 1600.04
endloop
endfacet
facet normal -0.980577088110954 -0.19611541762219026 0.0027050402430281485
outer loop
vertex 11793.6 8051.9400000000005 1599.91
vertex 11799.970000000001 8019.83 1581.06
vertex 12196.08 6039.280000000001 1581.06
endloop
endfacet
facet normal -0.9805855474757527 -0.1960917746405456 0
outer loop
vertex 11793.6 8051.9400000000005 1599.91
vertex 12196.08 6039.280000000001 1581.06
vertex 12196.08 6039.280000000001 1599.91
endloop
endfacet
facet normal -0.980586819198911 -0.19608541509597813 0
outer loop
vertex 11196.12 11039.210000000001 1599.91
vertex 11196.12 11039.210000000001 1581.06
vertex 11515.27 9443.2 1581.06
endloop
endfacet
facet normal -0.980560582681874 -0.19614343684565136 0.005356852896994203
outer loop
vertex 11196.12 11039.210000000001 1599.91
vertex 11515.27 9443.2 1581.06
vertex 11521.77 9411.220000000001 1599.91
endloop
endfacet
facet normal -0.980567623648357 -0.196181290287628 0.0001918168277848216
outer loop
vertex 11799.970000000001 8019.83 1581.06
vertex 11912.810000000001 7455.5 1248.78
vertex 11950.51 7267.39 1581.06
endloop
endfacet
facet normal -0.9806002147161819 -0.19601839122781972 0.00009591160159688854
outer loop
vertex 11364.86 10195.640000000001 1581.06
vertex 11402.43 10007.53 1248.78
vertex 11515.27 9443.2 1581.06
endloop
endfacet
facet normal -0.9805886594126708 -0.1960762123034332 0
outer loop
vertex 11950.51 7267.39 1581.06
vertex 11950.51 7267.39 1200.03
vertex 12196.08 6039.280000000001 1200.03
endloop
endfacet
facet normal -0.9805886594126708 -0.1960762123034332 0
outer loop
vertex 11950.51 7267.39 1581.06
vertex 12196.08 6039.280000000001 1200.03
vertex 12196.08 6039.280000000001 1581.06
endloop
endfacet
facet normal -0.9805748632063993 -0.1961451953216066 0
outer loop
vertex 11196.12 11039.210000000001 1581.06
vertex 11196.12 11039.210000000001 1200.03
vertex 11364.86 10195.640000000001 1200.03
endloop
endfacet
facet normal -0.9805748632063993 -0.1961451953216066 0
outer loop
vertex 11196.12 11039.210000000001 1581.06
vertex 11364.86 10195.640000000001 1200.03
vertex 11364.86 10195.640000000001 1581.06
endloop
endfacet
facet normal 0.9805806756909202 0.19611613513818402 0
outer loop
vertex 10972.65 10117.12 1600.04
vertex 10972.65 10117.12 1599.91
vertex 10803.91 10960.82 1599.91
endloop
endfacet
facet normal 0.9805806756909202 0.19611613513818402 0
outer loop
vertex 10972.65 10117.12 1600.04
vertex 10803.91 10960.82 1599.91
vertex 10803.91 10960.82 1600.04
endloop
endfacet
facet normal 0.9805744148087618 0.19614738459963113 0.00014330798552445687
outer loop
vertex 11227.84 8841.17 1889.29
vertex 11129.56 9332.7 1599.91
vertex 10972.65 10117.12 1599.91
endloop
endfacet
facet normal 0.9805778282494836 0.19613036095860875 0.00006523627807993383
outer loop
vertex 11227.84 8841.17 1889.29
vertex 10972.65 10117.12 1599.91
vertex 11188.58 9037.34 2235.61
endloop
endfacet
facet normal 0.9805744148087617 0.19614738459963113 -0.00014330798552445687
outer loop
vertex 11558.300000000001 7189 1599.91
vertex 11401.390000000001 7973.42 1599.91
vertex 11303.11 8464.95 1889.29
endloop
endfacet
facet normal 0.9805891924775975 0.19607344870613652 0.00019572586828243285
outer loop
vertex 11558.300000000001 7189 1599.91
vertex 11303.11 8464.95 1889.29
vertex 11342.24 8268.91 2235.61
endloop
endfacet
facet normal 0.9805926494454734 0.19605625685885872 0
outer loop
vertex 11803.87 5960.76 1600.04
vertex 11803.87 5960.76 1599.91
vertex 11558.300000000001 7189 1599.91
endloop
endfacet
facet normal 0.9805926494454734 0.19605625685885872 0
outer loop
vertex 11803.87 5960.76 1600.04
vertex 11558.300000000001 7189 1599.91
vertex 11558.300000000001 7189 1600.04
endloop
endfacet
facet normal 0.9805751048656227 0.19606710233304303 -0.005491365995539408
outer loop
vertex 11129.56 9332.7 1599.91
vertex 11123.06 9364.68 1581.06
vertex 10803.91 10960.82 1581.06
endloop
endfacet
facet normal 0.9805776641951265 0.1961311920160325 0
outer loop
vertex 11129.56 9332.7 1599.91
vertex 10803.91 10960.82 1581.06
vertex 10803.91 10960.82 1599.91
endloop
endfacet
facet normal 0.9805831509827613 0.19610375827280635 0
outer loop
vertex 11803.87 5960.76 1599.91
vertex 11803.87 5960.76 1581.06
vertex 11407.76 7941.4400000000005 1581.06
endloop
endfacet
facet normal 0.9805847066634913 0.19609160649981697 -0.0013095487755260481
outer loop
vertex 11803.87 5960.76 1599.91
vertex 11407.76 7941.4400000000005 1581.06
vertex 11401.390000000001 7973.42 1599.91
endloop
endfacet
facet normal 0.9806002147161819 0.19601839122781972 -0.00009591160159152362
outer loop
vertex 11123.06 9364.68 1581.06
vertex 11010.220000000001 9929.01 1248.78
vertex 10972.65 10117.12 1581.06
endloop
endfacet
facet normal 0.9805676236483566 0.19618129028763004 -0.00019181682778845959
outer loop
vertex 11558.300000000001 7189 1581.06
vertex 11520.6 7377.110000000001 1248.78
vertex 11407.76 7941.4400000000005 1581.06
endloop
endfacet
facet normal 0.9805806756909201 0.19611613513818404 0
outer loop
vertex 10972.65 10117.12 1581.06
vertex 10972.65 10117.12 1200.03
vertex 10803.91 10960.82 1200.03
endloop
endfacet
facet normal 0.9805806756909201 0.19611613513818404 0
outer loop
vertex 10972.65 10117.12 1581.06
vertex 10803.91 10960.82 1200.03
vertex 10803.91 10960.82 1581.06
endloop
endfacet
facet normal 0.9805926494454735 0.19605625685885875 0
outer loop
vertex 11803.87 5960.76 1581.06
vertex 11803.87 5960.76 1200.03
vertex 11558.300000000001 7189 1200.03
endloop
endfacet
facet normal 0.9805926494454735 0.19605625685885875 0
outer loop
vertex 11803.87 5960.76 1581.06
vertex 11558.300000000001 7189 1200.03
vertex 11558.300000000001 7189 1581.06
endloop
endfacet
facet normal 0 0 1
outer loop
vertex 10803.91 10960.82 1200.03
vertex 10972.65 10117.12 1200.03
vertex 11364.86 10195.640000000001 1200.03
endloop
endfacet
facet normal 0 0 1
outer loop
vertex 10803.91 10960.82 1200.03
vertex 11364.86 10195.640000000001 1200.03
vertex 11196.12 11039.210000000001 1200.03
endloop
endfacet
facet normal 0 0 1
outer loop
vertex 11558.300000000001 7189 1200.03
vertex 11803.87 5960.76 1200.03
vertex 12196.08 6039.280000000001 1200.03
endloop
endfacet
facet normal 0 0 0.9999999999999999
outer loop
vertex 11558.300000000001 7189 1200.03
vertex 12196.08 6039.280000000001 1200.03
vertex 11950.51 7267.39 1200.03
endloop
endfacet
facet normal 0 0 -1
outer loop
vertex 11364.86 10195.640000000001 1600.04
vertex 10972.65 10117.12 1600.04
vertex 10803.91 10960.82 1600.04
endloop
endfacet
facet normal 0 0 -1
outer loop
vertex 11364.86 10195.640000000001 1600.04
vertex 10803.91 10960.82 1600.04
vertex 11196.12 11039.210000000001 1600.04
endloop
endfacet
facet normal 0 0 -1
outer loop
vertex 12196.08 6039.280000000001 1600.04
vertex 11803.87 5960.76 1600.04
vertex 11558.300000000001 7189 1600.04
endloop
endfacet
facet normal 0 0 -1
outer loop
vertex 12196.08 6039.280000000001 1600.04
vertex 11558.300000000001 7189 1600.04
vertex 11950.51 7267.39 1600.04
endloop
endfacet
facet normal 0.16974196644528594 -0.849272823823252 -0.4999233296642263
outer loop
vertex 11734.45 8347.300000000001 2235.61
vertex 11342.24 8268.91 2235.61
vertex 11303.11 8464.95 1889.29
endloop
endfacet
facet normal 0.1699855330604822 -0.849083366297137 -0.5001623292768715
outer loop
vertex 11734.45 8347.300000000001 2235.61
vertex 11303.11 8464.95 1889.29
vertex 11695.32 8543.470000000001 1889.29
endloop
endfacet
facet normal 0.09815365671266957 -0.49028076540086385 0.8660199944296174
outer loop
vertex 11695.32 8543.470000000001 1889.29
vertex 11303.11 8464.95 1889.29
vertex 11520.6 7377.110000000001 1248.78
endloop
endfacet
facet normal 0.09798895051037727 -0.490269757362871 0.8660448779325622
outer loop
vertex 11695.32 8543.470000000001 1889.29
vertex 11520.6 7377.110000000001 1248.78
vertex 11912.810000000001 7455.5 1248.78
endloop
endfacet
facet normal -0.16973137826650547 0.8492198478110177 0.500016909029669
outer loop
vertex 11520.6 7377.110000000001 1248.78
vertex 11558.300000000001 7189 1581.06
vertex 11950.51 7267.39 1581.06
endloop
endfacet
facet normal -0.16973137826650309 0.8492198478110196 0.5000169090296666
outer loop
vertex 11520.6 7377.110000000001 1248.78
vertex 11950.51 7267.39 1581.06
vertex 11912.810000000001 7455.5 1248.78
endloop
endfacet
facet normal -0.09797907571753021 0.4902203506464096 -0.8660739625076197
outer loop
vertex 11558.300000000001 7189 1599.91
vertex 11342.24 8268.91 2235.61
vertex 11734.45 8347.300000000001 2235.61
endloop
endfacet
facet normal -0.09797907571752962 0.49022035064640956 -0.8660739625076198
outer loop
vertex 11558.300000000001 7189 1599.91
vertex 11734.45 8347.300000000001 2235.61
vertex 11950.51 7267.39 1599.91
endloop
endfacet
facet normal 0.19599112326047607 -0.9806056697791915 0
outer loop
vertex 11558.300000000001 7189 1600.04
vertex 11558.300000000001 7189 1599.91
vertex 11950.51 7267.39 1599.91
endloop
endfacet
facet normal 0.19599112326047607 -0.9806056697791915 0
outer loop
vertex 11558.300000000001 7189 1600.04
vertex 11950.51 7267.39 1599.91
vertex 11950.51 7267.39 1600.04
endloop
endfacet
facet normal 0.19599112326047605 -0.9806056697791914 0
outer loop
vertex 11558.300000000001 7189 1581.06
vertex 11558.300000000001 7189 1200.03
vertex 11950.51 7267.39 1200.03
endloop
endfacet
facet normal 0.19599112326047605 -0.9806056697791914 0
outer loop
vertex 11558.300000000001 7189 1581.06
vertex 11950.51 7267.39 1200.03
vertex 11950.51 7267.39 1581.06
endloop
endfacet
facet normal -0.16970950406072471 0.8491104042308647 -0.5002101614905082
outer loop
vertex 11227.84 8841.17 1889.29
vertex 11188.58 9037.34 2235.61
vertex 11580.79 9115.73 2235.61
endloop
endfacet
facet normal -0.170007204782668 0.849191617267066 -0.4999711466528133
outer loop
vertex 11227.84 8841.17 1889.29
vertex 11580.79 9115.73 2235.61
vertex 11620.050000000001 8919.69 1889.29
endloop
endfacet
facet normal -0.09815196334181492 0.49027230695737306 0.8660249748840055
outer loop
vertex 11402.43 10007.53 1248.78
vertex 11010.220000000001 9929.01 1248.78
vertex 11227.84 8841.17 1889.29
endloop
endfacet
facet normal -0.09815196334181456 0.4902723069573729 0.8660249748840055
outer loop
vertex 11402.43 10007.53 1248.78
vertex 11227.84 8841.17 1889.29
vertex 11620.050000000001 8919.69 1889.29
endloop
endfacet
facet normal 0.19574094646785928 -0.9806556387824764 0
outer loop
vertex 11000.08 11000.08 1495.26
vertex 11196.12 11039.210000000001 1581.06
vertex 11196.12 11039.210000000001 1599.91
endloop
endfacet
facet normal 0.1957409464678464 -0.980655638782479 0
outer loop
vertex 11000.08 11000.08 1495.26
vertex 11196.12 11039.210000000001 1599.91
vertex 11196.12 11039.210000000001 1600.04
endloop
endfacet
facet normal 0.19599110004439343 -0.9806055536217696 -0.00048673353199289276
outer loop
vertex 11000.08 11000.08 1495.26
vertex 11196.12 11039.210000000001 1600.04
vertex 10803.91 10960.82 1600.04
endloop
endfacet
facet normal 0.19624109603680914 -0.9805556752302603 0
outer loop
vertex 11000.08 11000.08 1495.26
vertex 10803.91 10960.82 1600.04
vertex 10803.91 10960.82 1599.91
endloop
endfacet
facet normal 0.19624109603680612 -0.980555675230261 0
outer loop
vertex 11000.08 11000.08 1495.26
vertex 10803.91 10960.82 1599.91
vertex 10803.91 10960.82 1581.06
endloop
endfacet
facet normal 0.19624109603680606 -0.980555675230261 0
outer loop
vertex 11000.08 11000.08 1495.26
vertex 10803.91 10960.82 1581.06
vertex 10803.91 10960.82 1200.03
endloop
endfacet
facet normal 0.1959911203361577 -0.9806056551478937 0.000172746484986108
outer loop
vertex 11000.08 11000.08 1495.26
vertex 10803.91 10960.82 1200.03
vertex 11196.12 11039.210000000001 1200.03
endloop
endfacet
facet normal 0.19574094646785922 -0.9806556387824763 0
outer loop
vertex 11000.08 11000.08 1495.26
vertex 11196.12 11039.210000000001 1200.03
vertex 11196.12 11039.210000000001 1581.06
endloop
endfacet
facet normal -0.19630363502487283 0.9805431570696017 0
outer loop
vertex 11364.86 10195.640000000001 1600.04
vertex 11364.86 10195.640000000001 1599.91
vertex 10972.65 10117.12 1599.91
endloop
endfacet
facet normal -0.19630363502487283 0.9805431570696017 0
outer loop
vertex 11364.86 10195.640000000001 1600.04
vertex 10972.65 10117.12 1599.91
vertex 10972.65 10117.12 1600.04
endloop
endfacet
facet normal -0.1963036350248728 0.9805431570696016 0
outer loop
vertex 11364.86 10195.640000000001 1581.06
vertex 11364.86 10195.640000000001 1200.03
vertex 10972.65 10117.12 1200.03
endloop
endfacet
facet normal -0.1963036350248728 0.9805431570696016 0
outer loop
vertex 11364.86 10195.640000000001 1581.06
vertex 10972.65 10117.12 1200.03
vertex 10972.65 10117.12 1581.06
endloop
endfacet
facet normal 0.17000766697000214 -0.849193925908104 0.4999670682877007
outer loop
vertex 11364.86 10195.640000000001 1581.06
vertex 10972.65 10117.12 1581.06
vertex 11010.220000000001 9929.01 1248.78
endloop
endfacet
facet normal 0.17000766697000297 -0.8491939259081043 0.4999670682877
outer loop
vertex 11364.86 10195.640000000001 1581.06
vertex 11010.220000000001 9929.01 1248.78
vertex 11402.43 10007.53 1248.78
endloop
endfacet
facet normal 0.09814553090620556 -0.4902401767285115 -0.8660438925853222
outer loop
vertex 11188.58 9037.34 2235.61
vertex 10972.65 10117.12 1599.91
vertex 11364.86 10195.640000000001 1599.91
endloop
endfacet
facet normal 0.09798077599218072 -0.49022885765905827 -0.8660689549073243
outer loop
vertex 11188.58 9037.34 2235.61
vertex 11364.86 10195.640000000001 1599.91
vertex 11580.79 9115.73 2235.61
endloop
endfacet
endsolid JSCAD
