solid JSCAD
facet normal -1 0 0
outer loop
vertex 0 0 0
vertex 0 0 3999.9700000000003
vertex 0 15000.050000000001 3999.9700000000003
endloop
endfacet
facet normal -1 0 0
outer loop
vertex 0 0 0
vertex 0 15000.050000000001 3999.9700000000003
vertex 0 15000.050000000001 0
endloop
endfacet
facet normal 1 0 0
outer loop
vertex 19999.98 0 0
vertex 19999.98 15000.050000000001 0
vertex 19999.98 15000.050000000001 3999.9700000000003
endloop
endfacet
facet normal 1 0 0
outer loop
vertex 19999.98 0 0
vertex 19999.98 15000.050000000001 3999.9700000000003
vertex 19999.98 0 3999.9700000000003
endloop
endfacet
facet normal 0 -1 0
outer loop
vertex 0 0 0
vertex 19999.98 0 0
vertex 19999.98 0 3999.9700000000003
endloop
endfacet
facet normal 0 -1 0
outer loop
vertex 0 0 0
vertex 19999.98 0 3999.9700000000003
vertex 0 0 3999.9700000000003
endloop
endfacet
facet normal 0 1 0
outer loop
vertex 0 15000.050000000001 0
vertex 0 15000.050000000001 3999.9700000000003
vertex 19999.98 15000.050000000001 3999.9700000000003
endloop
endfacet
facet normal 0 1 0
outer loop
vertex 0 15000.050000000001 0
vertex 19999.98 15000.050000000001 3999.9700000000003
vertex 19999.98 15000.050000000001 0
endloop
endfacet
facet normal 0 0 -1
outer loop
vertex 0 0 0
vertex 0 15000.050000000001 0
vertex 19999.98 15000.050000000001 0
endloop
endfacet
facet normal 0 0 -1
outer loop
vertex 0 0 0
vertex 19999.98 15000.050000000001 0
vertex 19999.98 0 0
endloop
endfacet
facet normal 0 0 1
outer loop
vertex 0 0 3999.9700000000003
vertex 19999.98 0 3999.9700000000003
vertex 19999.98 15000.050000000001 3999.9700000000003
endloop
endfacet
facet normal 0 0 1
outer loop
vertex 0 0 3999.9700000000003
vertex 19999.98 15000.050000000001 3999.9700000000003
vertex 0 15000.050000000001 3999.9700000000003
endloop
endfacet
facet normal 1 0 0
outer loop
vertex 6500 8299.98 599.95
vertex 6500 8299.98 199.94
vertex 6500 10700.04 199.94
endloop
endfacet
facet normal 1 0 0
outer loop
vertex 6500 8299.98 599.95
vertex 6500 10700.04 199.94
vertex 6500 10700.04 599.95
endloop
endfacet
facet normal 0 1 0
outer loop
vertex 10099.960000000001 7899.97 599.95
vertex 10099.960000000001 7899.97 199.94
vertex 6900.01 7899.97 199.94
endloop
endfacet
facet normal 0 1 0
outer loop
vertex 10099.960000000001 7899.97 599.95
vertex 6900.01 7899.97 199.94
vertex 6900.01 7899.97 599.95
endloop
endfacet
facet normal -1 0 0
outer loop
vertex 10499.970000000001 10700.04 599.95
vertex 10499.970000000001 10700.04 199.94
vertex 10499.970000000001 8299.98 199.94
endloop
endfacet
facet normal -1 0 0
outer loop
vertex 10499.970000000001 10700.04 599.95
vertex 10499.970000000001 8299.98 199.94
vertex 10499.970000000001 8299.98 599.95
endloop
endfacet
facet normal 0 -1 0
outer loop
vertex 6900.01 11100.050000000001 599.95
vertex 6900.01 11100.050000000001 199.94
vertex 10099.960000000001 11100.050000000001 199.94
endloop
endfacet
facet normal 0 -1 0
outer loop
vertex 6900.01 11100.050000000001 599.95
vertex 10099.960000000001 11100.050000000001 199.94
vertex 10099.960000000001 11100.050000000001 599.95
endloop
endfacet
facet normal 0 0 -1
outer loop
vertex 8500.050000000001 9500.01 599.95
vertex 10099.960000000001 11100.050000000001 599.95
vertex 10178.09 11092.25 599.95
endloop
endfacet
facet normal 0 0 -1
outer loop
vertex 8500.050000000001 9500.01 599.95
vertex 10178.09 11092.25 599.95
vertex 10253.1 11069.5 599.95
endloop
endfacet
facet normal 0 0 -1
outer loop
vertex 8500.050000000001 9500.01 599.95
vertex 10253.1 11069.5 599.95
vertex 10322.26 11032.58 599.95
endloop
endfacet
facet normal 0 0 -1
outer loop
vertex 8500.050000000001 9500.01 599.95
vertex 10322.26 11032.58 599.95
vertex 10382.84 10982.79 599.95
endloop
endfacet
facet normal 0 0 -1
outer loop
vertex 8500.050000000001 9500.01 599.95
vertex 10382.84 10982.79 599.95
vertex 10432.630000000001 10922.210000000001 599.95
endloop
endfacet
facet normal 0 0 -1
outer loop
vertex 8500.050000000001 9500.01 599.95
vertex 10432.630000000001 10922.210000000001 599.95
vertex 10469.550000000001 10853.050000000001 599.95
endloop
endfacet
facet normal 0 0 -1
outer loop
vertex 8500.050000000001 9500.01 599.95
vertex 10469.550000000001 10853.050000000001 599.95
vertex 10492.300000000001 10778.04 599.95
endloop
endfacet
facet normal 0 0 -1
outer loop
vertex 8500.050000000001 9500.01 599.95
vertex 10492.300000000001 10778.04 599.95
vertex 10499.970000000001 10700.04 599.95
endloop
endfacet
facet normal 0 0 -0.9999999999999999
outer loop
vertex 8500.050000000001 9500.01 599.95
vertex 10499.970000000001 10700.04 599.95
vertex 10499.970000000001 8299.98 599.95
endloop
endfacet
facet normal 0 0 -1
outer loop
vertex 8500.050000000001 9500.01 599.95
vertex 10499.970000000001 8299.98 599.95
vertex 10492.300000000001 8221.98 599.95
endloop
endfacet
facet normal 0 0 -1
outer loop
vertex 8500.050000000001 9500.01 599.95
vertex 10492.300000000001 8221.98 599.95
vertex 10469.550000000001 8146.97 599.95
endloop
endfacet
facet normal 0 0 -1
outer loop
vertex 8500.050000000001 9500.01 599.95
vertex 10469.550000000001 8146.97 599.95
vertex 10432.630000000001 8077.81 599.95
endloop
endfacet
facet normal 0 0 -1
outer loop
vertex 8500.050000000001 9500.01 599.95
vertex 10432.630000000001 8077.81 599.95
vertex 10382.84 8017.1 599.95
endloop
endfacet
facet normal 0 0 -1
outer loop
vertex 8500.050000000001 9500.01 599.95
vertex 10382.84 8017.1 599.95
vertex 10322.26 7967.4400000000005 599.95
endloop
endfacet
facet normal 0 0 -0.9999999999999999
outer loop
vertex 8500.050000000001 9500.01 599.95
vertex 10322.26 7967.4400000000005 599.95
vertex 10253.1 7930.39 599.95
endloop
endfacet
facet normal 0 0 -1
outer loop
vertex 8500.050000000001 9500.01 599.95
vertex 10253.1 7930.39 599.95
vertex 10178.09 7907.64 599.95
endloop
endfacet
facet normal 0 0 -1
outer loop
vertex 8500.050000000001 9500.01 599.95
vertex 10178.09 7907.64 599.95
vertex 10099.960000000001 7899.97 599.95
endloop
endfacet
facet normal 0 0 -1
outer loop
vertex 8500.050000000001 9500.01 599.95
vertex 10099.960000000001 7899.97 599.95
vertex 6900.01 7899.97 599.95
endloop
endfacet
facet normal 0 0 -1
outer loop
vertex 8500.050000000001 9500.01 599.95
vertex 6900.01 7899.97 599.95
vertex 6822.01 7907.64 599.95
endloop
endfacet
facet normal 0 0 -1
outer loop
vertex 8500.050000000001 9500.01 599.95
vertex 6822.01 7907.64 599.95
vertex 6746.87 7930.39 599.95
endloop
endfacet
facet normal 0 0 -0.9999999999999999
outer loop
vertex 8500.050000000001 9500.01 599.95
vertex 6746.87 7930.39 599.95
vertex 6677.71 7967.4400000000005 599.95
endloop
endfacet
facet normal 0 0 -1
outer loop
vertex 8500.050000000001 9500.01 599.95
vertex 6677.71 7967.4400000000005 599.95
vertex 6617.13 8017.1 599.95
endloop
endfacet
facet normal 0 0 -0.9999999999999999
outer loop
vertex 8500.050000000001 9500.01 599.95
vertex 6617.13 8017.1 599.95
vertex 6567.47 8077.81 599.95
endloop
endfacet
facet normal 0 0 -1
outer loop
vertex 8500.050000000001 9500.01 599.95
vertex 6567.47 8077.81 599.95
vertex 6530.42 8146.97 599.95
endloop
endfacet
facet normal 0 0 -0.9999999999999999
outer loop
vertex 8500.050000000001 9500.01 599.95
vertex 6530.42 8146.97 599.95
vertex 6507.67 8221.98 599.95
endloop
endfacet
facet normal 0 0 -0.9999999999999999
outer loop
vertex 8500.050000000001 9500.01 599.95
vertex 6507.67 8221.98 599.95
vertex 6500 8299.98 599.95
endloop
endfacet
facet normal 0 0 -1
outer loop
vertex 8500.050000000001 9500.01 599.95
vertex 6500 8299.98 599.95
vertex 6500 10700.04 599.95
endloop
endfacet
facet normal 0 0 -0.9999999999999999
outer loop
vertex 8500.050000000001 9500.01 599.95
vertex 6500 10700.04 599.95
vertex 6507.67 10778.04 599.95
endloop
endfacet
facet normal 0 0 -0.9999999999999999
outer loop
vertex 8500.050000000001 9500.01 599.95
vertex 6507.67 10778.04 599.95
vertex 6530.42 10853.050000000001 599.95
endloop
endfacet
facet normal 0 0 -1
outer loop
vertex 8500.050000000001 9500.01 599.95
vertex 6530.42 10853.050000000001 599.95
vertex 6567.47 10922.210000000001 599.95
endloop
endfacet
facet normal 0 0 -1
outer loop
vertex 8500.050000000001 9500.01 599.95
vertex 6567.47 10922.210000000001 599.95
vertex 6617.13 10982.79 599.95
endloop
endfacet
facet normal 0 0 -0.9999999999999999
outer loop
vertex 8500.050000000001 9500.01 599.95
vertex 6617.13 10982.79 599.95
vertex 6677.71 11032.58 599.95
endloop
endfacet
facet normal 0 0 -1
outer loop
vertex 8500.050000000001 9500.01 599.95
vertex 6677.71 11032.58 599.95
vertex 6746.87 11069.5 599.95
endloop
endfacet
facet normal 0 0 -1
outer loop
vertex 8500.050000000001 9500.01 599.95
vertex 6746.87 11069.5 599.95
vertex 6822.01 11092.25 599.95
endloop
endfacet
facet normal 0 0 -1
outer loop
vertex 8500.050000000001 9500.01 599.95
vertex 6822.01 11092.25 599.95
vertex 6900.01 11100.050000000001 599.95
endloop
endfacet
facet normal 0 0 -1
outer loop
vertex 8500.050000000001 9500.01 599.95
vertex 6900.01 11100.050000000001 599.95
vertex 10099.960000000001 11100.050000000001 599.95
endloop
endfacet
facet normal 0 0 1
outer loop
vertex 8500.050000000001 9500.01 199.94
vertex 6900.01 11100.050000000001 199.94
vertex 6822.01 11092.25 199.94
endloop
endfacet
facet normal 0 0 1
outer loop
vertex 8500.050000000001 9500.01 199.94
vertex 6822.01 11092.25 199.94
vertex 6746.87 11069.5 199.94
endloop
endfacet
facet normal 0 0 1
outer loop
vertex 8500.050000000001 9500.01 199.94
vertex 6746.87 11069.5 199.94
vertex 6677.71 11032.58 199.94
endloop
endfacet
facet normal 0 0 0.9999999999999999
outer loop
vertex 8500.050000000001 9500.01 199.94
vertex 6677.71 11032.58 199.94
vertex 6617.13 10982.79 199.94
endloop
endfacet
facet normal 0 0 1
outer loop
vertex 8500.050000000001 9500.01 199.94
vertex 6617.13 10982.79 199.94
vertex 6567.47 10922.210000000001 199.94
endloop
endfacet
facet normal 0 0 1
outer loop
vertex 8500.050000000001 9500.01 199.94
vertex 6567.47 10922.210000000001 199.94
vertex 6530.42 10853.050000000001 199.94
endloop
endfacet
facet normal 0 0 0.9999999999999999
outer loop
vertex 8500.050000000001 9500.01 199.94
vertex 6530.42 10853.050000000001 199.94
vertex 6507.67 10778.04 199.94
endloop
endfacet
facet normal 0 0 0.9999999999999999
outer loop
vertex 8500.050000000001 9500.01 199.94
vertex 6507.67 10778.04 199.94
vertex 6500 10700.04 199.94
endloop
endfacet
facet normal 0 0 1
outer loop
vertex 8500.050000000001 9500.01 199.94
vertex 6500 10700.04 199.94
vertex 6500 8299.98 199.94
endloop
endfacet
facet normal 0 0 0.9999999999999999
outer loop
vertex 8500.050000000001 9500.01 199.94
vertex 6500 8299.98 199.94
vertex 6507.67 8221.98 199.94
endloop
endfacet
facet normal 0 0 0.9999999999999999
outer loop
vertex 8500.050000000001 9500.01 199.94
vertex 6507.67 8221.98 199.94
vertex 6530.42 8146.97 199.94
endloop
endfacet
facet normal 0 0 1
outer loop
vertex 8500.050000000001 9500.01 199.94
vertex 6530.42 8146.97 199.94
vertex 6567.47 8077.81 199.94
endloop
endfacet
facet normal 0 0 0.9999999999999999
outer loop
vertex 8500.050000000001 9500.01 199.94
vertex 6567.47 8077.81 199.94
vertex 6617.13 8017.1 199.94
endloop
endfacet
facet normal 0 0 1
outer loop
vertex 8500.050000000001 9500.01 199.94
vertex 6617.13 8017.1 199.94
vertex 6677.71 7967.4400000000005 199.94
endloop
endfacet
facet normal 0 0 0.9999999999999999
outer loop
vertex 8500.050000000001 9500.01 199.94
vertex 6677.71 7967.4400000000005 199.94
vertex 6746.87 7930.39 199.94
endloop
endfacet
facet normal 0 0 1
outer loop
vertex 8500.050000000001 9500.01 199.94
vertex 6746.87 7930.39 199.94
vertex 6822.01 7907.64 199.94
endloop
endfacet
facet normal 0 0 1
outer loop
vertex 8500.050000000001 9500.01 199.94
vertex 6822.01 7907.64 199.94
vertex 6900.01 7899.97 199.94
endloop
endfacet
facet normal 0 0 1
outer loop
vertex 8500.050000000001 9500.01 199.94
vertex 6900.01 7899.97 199.94
vertex 10099.960000000001 7899.97 199.94
endloop
endfacet
facet normal 0 0 1
outer loop
vertex 8500.050000000001 9500.01 199.94
vertex 10099.960000000001 7899.97 199.94
vertex 10178.09 7907.64 199.94
endloop
endfacet
facet normal 0 0 1
outer loop
vertex 8500.050000000001 9500.01 199.94
vertex 10178.09 7907.64 199.94
vertex 10253.1 7930.39 199.94
endloop
endfacet
facet normal 0 0 0.9999999999999999
outer loop
vertex 8500.050000000001 9500.01 199.94
vertex 10253.1 7930.39 199.94
vertex 10322.26 7967.4400000000005 199.94
endloop
endfacet
facet normal 0 0 1
outer loop
vertex 8500.050000000001 9500.01 199.94
vertex 10322.26 7967.4400000000005 199.94
vertex 10382.84 8017.1 199.94
endloop
endfacet
facet normal 0 0 1
outer loop
vertex 8500.050000000001 9500.01 199.94
vertex 10382.84 8017.1 199.94
vertex 10432.630000000001 8077.81 199.94
endloop
endfacet
facet normal 0 0 1
outer loop
vertex 8500.050000000001 9500.01 199.94
vertex 10432.630000000001 8077.81 199.94
vertex 10469.550000000001 8146.97 199.94
endloop
endfacet
facet normal 0 0 1
outer loop
vertex 8500.050000000001 9500.01 199.94
vertex 10469.550000000001 8146.97 199.94
vertex 10492.300000000001 8221.98 199.94
endloop
endfacet
facet normal 0 0 1
outer loop
vertex 8500.050000000001 9500.01 199.94
vertex 10492.300000000001 8221.98 199.94
vertex 10499.970000000001 8299.98 199.94
endloop
endfacet
facet normal 0 0 0.9999999999999999
outer loop
vertex 8500.050000000001 9500.01 199.94
vertex 10499.970000000001 8299.98 199.94
vertex 10499.970000000001 10700.04 199.94
endloop
endfacet
facet normal 0 0 1
outer loop
vertex 8500.050000000001 9500.01 199.94
vertex 10499.970000000001 10700.04 199.94
vertex 10492.300000000001 10778.04 199.94
endloop
endfacet
facet normal 0 0 1
outer loop
vertex 8500.050000000001 9500.01 199.94
vertex 10492.300000000001 10778.04 199.94
vertex 10469.550000000001 10853.050000000001 199.94
endloop
endfacet
facet normal 0 0 1
outer loop
vertex 8500.050000000001 9500.01 199.94
vertex 10469.550000000001 10853.050000000001 199.94
vertex 10432.630000000001 10922.210000000001 199.94
endloop
endfacet
facet normal 0 0 1
outer loop
vertex 8500.050000000001 9500.01 199.94
vertex 10432.630000000001 10922.210000000001 199.94
vertex 10382.84 10982.79 199.94
endloop
endfacet
facet normal 0 0 1
outer loop
vertex 8500.050000000001 9500.01 199.94
vertex 10382.84 10982.79 199.94
vertex 10322.26 11032.58 199.94
endloop
endfacet
facet normal 0 0 1
outer loop
vertex 8500.050000000001 9500.01 199.94
vertex 10322.26 11032.58 199.94
vertex 10253.1 11069.5 199.94
endloop
endfacet
facet normal 0 0 1
outer loop
vertex 8500.050000000001 9500.01 199.94
vertex 10253.1 11069.5 199.94
vertex 10178.09 11092.25 199.94
endloop
endfacet
facet normal 0 0 1
outer loop
vertex 8500.050000000001 9500.01 199.94
vertex 10178.09 11092.25 199.94
vertex 10099.960000000001 11100.050000000001 199.94
endloop
endfacet
facet normal 0 0 1
outer loop
vertex 8500.050000000001 9500.01 199.94
vertex 10099.960000000001 11100.050000000001 199.94
vertex 6900.01 11100.050000000001 199.94
endloop
endfacet
facet normal 0.09950371902101272 -0.9950371902099879 0
outer loop
vertex 6900.01 11100.050000000001 199.94
vertex 6900.01 11100.050000000001 599.95
vertex 6822.01 11092.25 599.95
endloop
endfacet
facet normal 0.09950371902101272 -0.9950371902099879 0
outer loop
vertex 6900.01 11100.050000000001 199.94
vertex 6822.01 11092.25 599.95
vertex 6822.01 11092.25 199.94
endloop
endfacet
facet normal 0.2897775981273447 -0.9570940098148912 0
outer loop
vertex 6822.01 11092.25 199.94
vertex 6822.01 11092.25 599.95
vertex 6746.87 11069.5 599.95
endloop
endfacet
facet normal 0.2897775981273447 -0.9570940098148912 0
outer loop
vertex 6822.01 11092.25 199.94
vertex 6746.87 11069.5 599.95
vertex 6746.87 11069.5 199.94
endloop
endfacet
facet normal 0.470932465130188 -0.8821692656664049 0
outer loop
vertex 6746.87 11069.5 199.94
vertex 6746.87 11069.5 599.95
vertex 6677.71 11032.58 599.95
endloop
endfacet
facet normal 0.470932465130188 -0.8821692656664049 0
outer loop
vertex 6746.87 11069.5 199.94
vertex 6677.71 11032.58 599.95
vertex 6677.71 11032.58 199.94
endloop
endfacet
facet normal 0.6349515217551432 -0.772551982083295 0
outer loop
vertex 6677.71 11032.58 199.94
vertex 6677.71 11032.58 599.95
vertex 6617.13 10982.79 599.95
endloop
endfacet
facet normal 0.6349515217551432 -0.772551982083295 0
outer loop
vertex 6677.71 11032.58 199.94
vertex 6617.13 10982.79 599.95
vertex 6617.13 10982.79 199.94
endloop
endfacet
facet normal 0.7733654271742705 -0.6339605003874911 0
outer loop
vertex 6617.13 10982.79 199.94
vertex 6617.13 10982.79 599.95
vertex 6567.47 10922.210000000001 599.95
endloop
endfacet
facet normal 0.7733654271742705 -0.6339605003874911 0
outer loop
vertex 6617.13 10982.79 199.94
vertex 6567.47 10922.210000000001 599.95
vertex 6567.47 10922.210000000001 199.94
endloop
endfacet
facet normal 0.8814799700287805 -0.4722214125154215 0
outer loop
vertex 6567.47 10922.210000000001 199.94
vertex 6567.47 10922.210000000001 599.95
vertex 6530.42 10853.050000000001 599.95
endloop
endfacet
facet normal 0.8814799700287805 -0.4722214125154215 0
outer loop
vertex 6567.47 10922.210000000001 199.94
vertex 6530.42 10853.050000000001 599.95
vertex 6530.42 10853.050000000001 199.94
endloop
endfacet
facet normal 0.9569546332671864 -0.2902375404189898 0
outer loop
vertex 6530.42 10853.050000000001 199.94
vertex 6530.42 10853.050000000001 599.95
vertex 6507.67 10778.04 599.95
endloop
endfacet
facet normal 0.9569546332671864 -0.2902375404189898 0
outer loop
vertex 6530.42 10853.050000000001 199.94
vertex 6507.67 10778.04 599.95
vertex 6507.67 10778.04 199.94
endloop
endfacet
facet normal 0.9952000594324646 -0.09786133917752662 0
outer loop
vertex 6507.67 10778.04 199.94
vertex 6507.67 10778.04 599.95
vertex 6500 10700.04 599.95
endloop
endfacet
facet normal 0.9952000594324646 -0.09786133917752662 0
outer loop
vertex 6507.67 10778.04 199.94
vertex 6500 10700.04 599.95
vertex 6500 10700.04 199.94
endloop
endfacet
facet normal -0.9952000594324646 -0.09786133917752662 0
outer loop
vertex 10499.970000000001 10700.04 199.94
vertex 10499.970000000001 10700.04 599.95
vertex 10492.300000000001 10778.04 599.95
endloop
endfacet
facet normal -0.9952000594324646 -0.09786133917752662 0
outer loop
vertex 10499.970000000001 10700.04 199.94
vertex 10492.300000000001 10778.04 599.95
vertex 10492.300000000001 10778.04 199.94
endloop
endfacet
facet normal -0.9569546332671864 -0.2902375404189898 0
outer loop
vertex 10492.300000000001 10778.04 199.94
vertex 10492.300000000001 10778.04 599.95
vertex 10469.550000000001 10853.050000000001 599.95
endloop
endfacet
facet normal -0.9569546332671864 -0.2902375404189898 0
outer loop
vertex 10492.300000000001 10778.04 199.94
vertex 10469.550000000001 10853.050000000001 599.95
vertex 10469.550000000001 10853.050000000001 199.94
endloop
endfacet
facet normal -0.8821692656664049 -0.470932465130188 0
outer loop
vertex 10469.550000000001 10853.050000000001 199.94
vertex 10469.550000000001 10853.050000000001 599.95
vertex 10432.630000000001 10922.210000000001 599.95
endloop
endfacet
facet normal -0.8821692656664049 -0.470932465130188 0
outer loop
vertex 10469.550000000001 10853.050000000001 199.94
vertex 10432.630000000001 10922.210000000001 599.95
vertex 10432.630000000001 10922.210000000001 199.94
endloop
endfacet
facet normal -0.7725519820832836 -0.634951521755157 0
outer loop
vertex 10432.630000000001 10922.210000000001 199.94
vertex 10432.630000000001 10922.210000000001 599.95
vertex 10382.84 10982.79 599.95
endloop
endfacet
facet normal -0.7725519820832836 -0.634951521755157 0
outer loop
vertex 10432.630000000001 10922.210000000001 199.94
vertex 10382.84 10982.79 599.95
vertex 10382.84 10982.79 199.94
endloop
endfacet
facet normal -0.6349515217551432 -0.772551982083295 0
outer loop
vertex 10382.84 10982.79 199.94
vertex 10382.84 10982.79 599.95
vertex 10322.26 11032.58 599.95
endloop
endfacet
facet normal -0.6349515217551432 -0.772551982083295 0
outer loop
vertex 10382.84 10982.79 199.94
vertex 10322.26 11032.58 599.95
vertex 10322.26 11032.58 199.94
endloop
endfacet
facet normal -0.470932465130188 -0.8821692656664049 0
outer loop
vertex 10322.26 11032.58 199.94
vertex 10322.26 11032.58 599.95
vertex 10253.1 11069.5 599.95
endloop
endfacet
facet normal -0.470932465130188 -0.8821692656664049 0
outer loop
vertex 10322.26 11032.58 199.94
vertex 10253.1 11069.5 599.95
vertex 10253.1 11069.5 199.94
endloop
endfacet
facet normal -0.2902375404189898 -0.9569546332671864 0
outer loop
vertex 10253.1 11069.5 199.94
vertex 10253.1 11069.5 599.95
vertex 10178.09 11092.25 599.95
endloop
endfacet
facet normal -0.2902375404189898 -0.9569546332671864 0
outer loop
vertex 10253.1 11069.5 199.94
vertex 10178.09 11092.25 599.95
vertex 10178.09 11092.25 199.94
endloop
endfacet
facet normal -0.0993397906234751 -0.9950535694116595 0
outer loop
vertex 10178.09 11092.25 199.94
vertex 10178.09 11092.25 599.95
vertex 10099.960000000001 11100.050000000001 599.95
endloop
endfacet
facet normal -0.0993397906234751 -0.9950535694116595 0
outer loop
vertex 10178.09 11092.25 199.94
vertex 10099.960000000001 11100.050000000001 599.95
vertex 10099.960000000001 11100.050000000001 199.94
endloop
endfacet
facet normal -0.09770006388284165 0.9952159049760453 0
outer loop
vertex 10099.960000000001 7899.97 199.94
vertex 10099.960000000001 7899.97 599.95
vertex 10178.09 7907.64 599.95
endloop
endfacet
facet normal -0.09770006388284165 0.9952159049760453 0
outer loop
vertex 10099.960000000001 7899.97 199.94
vertex 10178.09 7907.64 599.95
vertex 10178.09 7907.64 199.94
endloop
endfacet
facet normal -0.2902375404189898 0.9569546332671864 0
outer loop
vertex 10178.09 7907.64 199.94
vertex 10178.09 7907.64 599.95
vertex 10253.1 7930.39 599.95
endloop
endfacet
facet normal -0.2902375404189898 0.9569546332671864 0
outer loop
vertex 10178.09 7907.64 199.94
vertex 10253.1 7930.39 599.95
vertex 10253.1 7930.39 199.94
endloop
endfacet
facet normal -0.4722214125154215 0.8814799700287805 0
outer loop
vertex 10253.1 7930.39 199.94
vertex 10253.1 7930.39 599.95
vertex 10322.26 7967.4400000000005 599.95
endloop
endfacet
facet normal -0.4722214125154215 0.8814799700287805 0
outer loop
vertex 10253.1 7930.39 199.94
vertex 10322.26 7967.4400000000005 599.95
vertex 10322.26 7967.4400000000005 199.94
endloop
endfacet
facet normal -0.6339605003874911 0.7733654271742705 0
outer loop
vertex 10322.26 7967.4400000000005 199.94
vertex 10322.26 7967.4400000000005 599.95
vertex 10382.84 8017.1 599.95
endloop
endfacet
facet normal -0.6339605003874911 0.7733654271742705 0
outer loop
vertex 10322.26 7967.4400000000005 199.94
vertex 10382.84 8017.1 599.95
vertex 10382.84 8017.1 199.94
endloop
endfacet
facet normal -0.7732190790565262 0.634138987748725 0
outer loop
vertex 10382.84 8017.1 199.94
vertex 10382.84 8017.1 599.95
vertex 10432.630000000001 8077.81 599.95
endloop
endfacet
facet normal -0.7732190790565262 0.634138987748725 0
outer loop
vertex 10382.84 8017.1 199.94
vertex 10432.630000000001 8077.81 599.95
vertex 10432.630000000001 8077.81 199.94
endloop
endfacet
facet normal -0.8821692656664049 0.470932465130188 0
outer loop
vertex 10432.630000000001 8077.81 199.94
vertex 10432.630000000001 8077.81 599.95
vertex 10469.550000000001 8146.97 599.95
endloop
endfacet
facet normal -0.8821692656664049 0.470932465130188 0
outer loop
vertex 10432.630000000001 8077.81 199.94
vertex 10469.550000000001 8146.97 599.95
vertex 10469.550000000001 8146.97 199.94
endloop
endfacet
facet normal -0.9569546332671854 0.290237540418993 0
outer loop
vertex 10469.550000000001 8146.97 199.94
vertex 10469.550000000001 8146.97 599.95
vertex 10492.300000000001 8221.98 599.95
endloop
endfacet
facet normal -0.9569546332671854 0.290237540418993 0
outer loop
vertex 10469.550000000001 8146.97 199.94
vertex 10492.300000000001 8221.98 599.95
vertex 10492.300000000001 8221.98 199.94
endloop
endfacet
facet normal -0.9952000594324646 0.09786133917752662 0
outer loop
vertex 10492.300000000001 8221.98 199.94
vertex 10492.300000000001 8221.98 599.95
vertex 10499.970000000001 8299.98 599.95
endloop
endfacet
facet normal -0.9952000594324646 0.09786133917752662 0
outer loop
vertex 10492.300000000001 8221.98 199.94
vertex 10499.970000000001 8299.98 599.95
vertex 10499.970000000001 8299.98 199.94
endloop
endfacet
facet normal 0.9952000594324646 0.09786133917752662 0
outer loop
vertex 6500 8299.98 199.94
vertex 6500 8299.98 599.95
vertex 6507.67 8221.98 599.95
endloop
endfacet
facet normal 0.9952000594324646 0.09786133917752662 0
outer loop
vertex 6500 8299.98 199.94
vertex 6507.67 8221.98 599.95
vertex 6507.67 8221.98 199.94
endloop
endfacet
facet normal 0.9569546332671854 0.290237540418993 0
outer loop
vertex 6507.67 8221.98 199.94
vertex 6507.67 8221.98 599.95
vertex 6530.42 8146.97 599.95
endloop
endfacet
facet normal 0.9569546332671854 0.290237540418993 0
outer loop
vertex 6507.67 8221.98 199.94
vertex 6530.42 8146.97 599.95
vertex 6530.42 8146.97 199.94
endloop
endfacet
facet normal 0.8814799700287805 0.4722214125154215 0
outer loop
vertex 6530.42 8146.97 199.94
vertex 6530.42 8146.97 599.95
vertex 6567.47 8077.81 599.95
endloop
endfacet
facet normal 0.8814799700287805 0.4722214125154215 0
outer loop
vertex 6530.42 8146.97 199.94
vertex 6567.47 8077.81 599.95
vertex 6567.47 8077.81 199.94
endloop
endfacet
facet normal 0.774031140912622 0.6331475285409435 0
outer loop
vertex 6567.47 8077.81 199.94
vertex 6567.47 8077.81 599.95
vertex 6617.13 8017.1 599.95
endloop
endfacet
facet normal 0.774031140912622 0.6331475285409435 0
outer loop
vertex 6567.47 8077.81 199.94
vertex 6617.13 8017.1 599.95
vertex 6617.13 8017.1 199.94
endloop
endfacet
facet normal 0.6339605003874911 0.7733654271742705 0
outer loop
vertex 6617.13 8017.1 199.94
vertex 6617.13 8017.1 599.95
vertex 6677.71 7967.4400000000005 599.95
endloop
endfacet
facet normal 0.6339605003874911 0.7733654271742705 0
outer loop
vertex 6617.13 8017.1 199.94
vertex 6677.71 7967.4400000000005 599.95
vertex 6677.71 7967.4400000000005 199.94
endloop
endfacet
facet normal 0.4722214125154215 0.8814799700287805 0
outer loop
vertex 6677.71 7967.4400000000005 199.94
vertex 6677.71 7967.4400000000005 599.95
vertex 6746.87 7930.39 599.95
endloop
endfacet
facet normal 0.4722214125154215 0.8814799700287805 0
outer loop
vertex 6677.71 7967.4400000000005 199.94
vertex 6746.87 7930.39 599.95
vertex 6746.87 7930.39 199.94
endloop
endfacet
facet normal 0.2897775981273447 0.9570940098148912 0
outer loop
vertex 6746.87 7930.39 199.94
vertex 6746.87 7930.39 599.95
vertex 6822.01 7907.64 599.95
endloop
endfacet
facet normal 0.2897775981273447 0.9570940098148912 0
outer loop
vertex 6746.87 7930.39 199.94
vertex 6822.01 7907.64 599.95
vertex 6822.01 7907.64 199.94
endloop
endfacet
facet normal 0.09786133917752662 0.9952000594324646 0
outer loop
vertex 6822.01 7907.64 199.94
vertex 6822.01 7907.64 599.95
vertex 6900.01 7899.97 599.95
endloop
endfacet
facet normal 0.09786133917752662 0.9952000594324646 0
outer loop
vertex 6822.01 7907.64 199.94
vertex 6900.01 7899.97 599.95
vertex 6900.01 7899.97 199.94
endloop
endfacet
endsolid JSCAD
