solid JSCAD
facet normal -1 0 0
outer loop
vertex 0 0 0
vertex 0 0 3999.9700000000003
vertex 0 15000.050000000001 3999.9700000000003
endloop
endfacet
facet normal -1 0 0
outer loop
vertex 0 0 0
vertex 0 15000.050000000001 3999.9700000000003
vertex 0 15000.050000000001 0
endloop
endfacet
facet normal 1 0 0
outer loop
vertex 19999.98 0 0
vertex 19999.98 15000.050000000001 0
vertex 19999.98 15000.050000000001 3999.9700000000003
endloop
endfacet
facet normal 1 0 0
outer loop
vertex 19999.98 0 0
vertex 19999.98 15000.050000000001 3999.9700000000003
vertex 19999.98 0 3999.9700000000003
endloop
endfacet
facet normal 0 -1 0
outer loop
vertex 0 0 0
vertex 19999.98 0 0
vertex 19999.98 0 3999.9700000000003
endloop
endfacet
facet normal 0 -1 0
outer loop
vertex 0 0 0
vertex 19999.98 0 3999.9700000000003
vertex 0 0 3999.9700000000003
endloop
endfacet
facet normal 0 1 0
outer loop
vertex 0 15000.050000000001 0
vertex 0 15000.050000000001 3999.9700000000003
vertex 19999.98 15000.050000000001 3999.9700000000003
endloop
endfacet
facet normal 0 1 0
outer loop
vertex 0 15000.050000000001 0
vertex 19999.98 15000.050000000001 3999.9700000000003
vertex 19999.98 15000.050000000001 0
endloop
endfacet
facet normal 0 0 -1
outer loop
vertex 0 0 0
vertex 0 15000.050000000001 0
vertex 19999.98 15000.050000000001 0
endloop
endfacet
facet normal 0 0 -1
outer loop
vertex 0 0 0
vertex 19999.98 15000.050000000001 0
vertex 19999.98 0 0
endloop
endfacet
facet normal 0 0 1
outer loop
vertex 0 0 3999.9700000000003
vertex 19999.98 0 3999.9700000000003
vertex 19999.98 15000.050000000001 3999.9700000000003
endloop
endfacet
facet normal 0 0 1
outer loop
vertex 0 0 3999.9700000000003
vertex 19999.98 15000.050000000001 3999.9700000000003
vertex 0 15000.050000000001 3999.9700000000003
endloop
endfacet
facet normal 0 0 1
outer loop
vertex 3000.01 10999.95 199.94
vertex 2961.01 11196.12 199.94
vertex 2923.44 11184.81 199.94
endloop
endfacet
facet normal 0 0 1
outer loop
vertex 3000.01 10999.95 199.94
vertex 2923.44 11184.81 199.94
vertex 2888.86 11166.35 199.94
endloop
endfacet
facet normal 0 0 0.9999999999999999
outer loop
vertex 3000.01 10999.95 199.94
vertex 2888.86 11166.35 199.94
vertex 2858.57 11141.390000000001 199.94
endloop
endfacet
facet normal 0 0 1
outer loop
vertex 3000.01 10999.95 199.94
vertex 2858.57 11141.390000000001 199.94
vertex 2833.7400000000002 11111.1 199.94
endloop
endfacet
facet normal 0 0 0.9999999999999999
outer loop
vertex 3000.01 10999.95 199.94
vertex 2833.7400000000002 11111.1 199.94
vertex 2815.28 11076.52 199.94
endloop
endfacet
facet normal 0 0 1
outer loop
vertex 3000.01 10999.95 199.94
vertex 2815.28 11076.52 199.94
vertex 2803.84 11039.08 199.94
endloop
endfacet
facet normal 0 0 1
outer loop
vertex 3000.01 10999.95 199.94
vertex 2803.84 11039.08 199.94
vertex 2799.94 10999.95 199.94
endloop
endfacet
facet normal 0 0 1
outer loop
vertex 3000.01 10999.95 199.94
vertex 2799.94 10999.95 199.94
vertex 2803.84 10960.95 199.94
endloop
endfacet
facet normal 0 0 0.9999999999999999
outer loop
vertex 3000.01 10999.95 199.94
vertex 2803.84 10960.95 199.94
vertex 2815.28 10923.51 199.94
endloop
endfacet
facet normal 0 0 1
outer loop
vertex 3000.01 10999.95 199.94
vertex 2815.28 10923.51 199.94
vertex 2833.7400000000002 10888.93 199.94
endloop
endfacet
facet normal 0 0 0.9999999999999999
outer loop
vertex 3000.01 10999.95 199.94
vertex 2833.7400000000002 10888.93 199.94
vertex 2858.57 10858.640000000001 199.94
endloop
endfacet
facet normal 0 0 1
outer loop
vertex 3000.01 10999.95 199.94
vertex 2858.57 10858.640000000001 199.94
vertex 2888.86 10833.68 199.94
endloop
endfacet
facet normal 0 0 1
outer loop
vertex 3000.01 10999.95 199.94
vertex 2888.86 10833.68 199.94
vertex 2923.44 10815.220000000001 199.94
endloop
endfacet
facet normal 0 0 1
outer loop
vertex 3000.01 10999.95 199.94
vertex 2923.44 10815.220000000001 199.94
vertex 2961.01 10803.78 199.94
endloop
endfacet
facet normal 0 0 1
outer loop
vertex 3000.01 10999.95 199.94
vertex 2961.01 10803.78 199.94
vertex 3000.01 10800.01 199.94
endloop
endfacet
facet normal 0 0 1
outer loop
vertex 3000.01 10999.95 199.94
vertex 3000.01 10800.01 199.94
vertex 3039.01 10803.78 199.94
endloop
endfacet
facet normal 0 0 1
outer loop
vertex 3000.01 10999.95 199.94
vertex 3039.01 10803.78 199.94
vertex 3076.58 10815.220000000001 199.94
endloop
endfacet
facet normal 0 0 1
outer loop
vertex 3000.01 10999.95 199.94
vertex 3076.58 10815.220000000001 199.94
vertex 3111.1600000000003 10833.68 199.94
endloop
endfacet
facet normal 0 0 1
outer loop
vertex 3000.01 10999.95 199.94
vertex 3111.1600000000003 10833.68 199.94
vertex 3141.4500000000003 10858.640000000001 199.94
endloop
endfacet
facet normal 0 0 0.9999999999999999
outer loop
vertex 3000.01 10999.95 199.94
vertex 3141.4500000000003 10858.640000000001 199.94
vertex 3166.28 10888.93 199.94
endloop
endfacet
facet normal 0 0 1
outer loop
vertex 3000.01 10999.95 199.94
vertex 3166.28 10888.93 199.94
vertex 3184.7400000000002 10923.51 199.94
endloop
endfacet
facet normal 0 0 0.9999999999999999
outer loop
vertex 3000.01 10999.95 199.94
vertex 3184.7400000000002 10923.51 199.94
vertex 3196.1800000000003 10960.95 199.94
endloop
endfacet
facet normal 0 0 1
outer loop
vertex 3000.01 10999.95 199.94
vertex 3196.1800000000003 10960.95 199.94
vertex 3199.9500000000003 10999.95 199.94
endloop
endfacet
facet normal 0 0 0.9999999999999999
outer loop
vertex 3000.01 10999.95 199.94
vertex 3199.9500000000003 10999.95 199.94
vertex 3196.1800000000003 11039.08 199.94
endloop
endfacet
facet normal 0 0 1
outer loop
vertex 3000.01 10999.95 199.94
vertex 3196.1800000000003 11039.08 199.94
vertex 3184.7400000000002 11076.52 199.94
endloop
endfacet
facet normal 0 0 0.9999999999999999
outer loop
vertex 3000.01 10999.95 199.94
vertex 3184.7400000000002 11076.52 199.94
vertex 3166.28 11111.1 199.94
endloop
endfacet
facet normal 0 0 1
outer loop
vertex 3000.01 10999.95 199.94
vertex 3166.28 11111.1 199.94
vertex 3141.4500000000003 11141.390000000001 199.94
endloop
endfacet
facet normal 0 0 0.9999999999999999
outer loop
vertex 3000.01 10999.95 199.94
vertex 3141.4500000000003 11141.390000000001 199.94
vertex 3111.1600000000003 11166.35 199.94
endloop
endfacet
facet normal 0 0 0.9999999999999999
outer loop
vertex 3000.01 10999.95 199.94
vertex 3111.1600000000003 11166.35 199.94
vertex 3076.58 11184.81 199.94
endloop
endfacet
facet normal 0 0 1
outer loop
vertex 3000.01 10999.95 199.94
vertex 3076.58 11184.81 199.94
vertex 3039.01 11196.12 199.94
endloop
endfacet
facet normal 0 0 1
outer loop
vertex 3000.01 10999.95 199.94
vertex 3039.01 11196.12 199.94
vertex 3000.01 11200.02 199.94
endloop
endfacet
facet normal 0 0 1
outer loop
vertex 3000.01 10999.95 199.94
vertex 3000.01 11200.02 199.94
vertex 2961.01 11196.12 199.94
endloop
endfacet
facet normal 0 0 1
outer loop
vertex 4281.9400000000005 10993.84 199.94
vertex 4473.95 11190.140000000001 199.94
vertex 4352.14 11160.890000000001 199.94
endloop
endfacet
facet normal 0 0 0.9999999999999999
outer loop
vertex 4281.9400000000005 10993.84 199.94
vertex 4352.14 11160.890000000001 199.94
vertex 4236.31 11112.92 199.94
endloop
endfacet
facet normal 0 0 1
outer loop
vertex 4281.9400000000005 10993.84 199.94
vertex 4236.31 11112.92 199.94
vertex 4129.32 11047.4 199.94
endloop
endfacet
facet normal 0 0 1
outer loop
vertex 4281.9400000000005 10993.84 199.94
vertex 4129.32 11047.4 199.94
vertex 4034.03 10966.02 199.94
endloop
endfacet
facet normal 0 0 1
outer loop
vertex 4281.9400000000005 10993.84 199.94
vertex 4034.03 10966.02 199.94
vertex 3952.65 10870.6 199.94
endloop
endfacet
facet normal 0 0 1
outer loop
vertex 4281.9400000000005 10993.84 199.94
vertex 3952.65 10870.6 199.94
vertex 3906.2400000000002 10795.07 199.94
endloop
endfacet
facet normal 0 0 1
outer loop
vertex 4281.9400000000005 10993.84 199.94
vertex 3906.2400000000002 10795.07 199.94
vertex 4536.610000000001 10795.07 199.94
endloop
endfacet
facet normal 0 0 1
outer loop
vertex 4281.9400000000005 10993.84 199.94
vertex 4536.610000000001 10795.07 199.94
vertex 4599.01 10800.01 199.94
endloop
endfacet
facet normal 0 0 1
outer loop
vertex 4281.9400000000005 10993.84 199.94
vertex 4599.01 10800.01 199.94
vertex 4599.01 11200.02 199.94
endloop
endfacet
facet normal 0 0 1
outer loop
vertex 4281.9400000000005 10993.84 199.94
vertex 4599.01 11200.02 199.94
vertex 4473.95 11190.140000000001 199.94
endloop
endfacet
facet normal 0 0 1
outer loop
vertex 3906.2400000000002 10795.07 199.94
vertex 3897.4 10780.51 199.94
vertex 4475.64 10780.51 199.94
endloop
endfacet
facet normal 0 0 0.9999999999999999
outer loop
vertex 3906.2400000000002 10795.07 199.94
vertex 4475.64 10780.51 199.94
vertex 4536.610000000001 10795.07 199.94
endloop
endfacet
facet normal 0 0 0.9999999999999999
outer loop
vertex 4112.42 10767.51 199.94
vertex 3897.4 10780.51 199.94
vertex 3887.13 10763.74 199.94
endloop
endfacet
facet normal 0 0 1
outer loop
vertex 4112.42 10767.51 199.94
vertex 3887.13 10763.74 199.94
vertex 3884.1400000000003 10756.460000000001 199.94
endloop
endfacet
facet normal 0 0 0.9999999999999999
outer loop
vertex 4112.42 10767.51 199.94
vertex 3884.1400000000003 10756.460000000001 199.94
vertex 4417.92 10756.460000000001 199.94
endloop
endfacet
facet normal 0 0 1
outer loop
vertex 4112.42 10767.51 199.94
vertex 4417.92 10756.460000000001 199.94
vertex 4475.64 10780.51 199.94
endloop
endfacet
facet normal 0 0 0.9999999999999999
outer loop
vertex 4112.42 10767.51 199.94
vertex 4475.64 10780.51 199.94
vertex 3897.4 10780.51 199.94
endloop
endfacet
facet normal 0 0 0.9999999999999999
outer loop
vertex 3884.1400000000003 10756.460000000001 199.94
vertex 3870.4900000000002 10723.83 199.94
vertex 4364.49 10723.83 199.94
endloop
endfacet
facet normal 0 0 1
outer loop
vertex 3884.1400000000003 10756.460000000001 199.94
vertex 4364.49 10723.83 199.94
vertex 4417.92 10756.460000000001 199.94
endloop
endfacet
facet normal 0 0 1
outer loop
vertex 3870.4900000000002 10723.83 199.94
vertex 3853.7200000000003 10683.140000000001 199.94
vertex 4316.91 10683.140000000001 199.94
endloop
endfacet
facet normal 0 0 1
outer loop
vertex 3870.4900000000002 10723.83 199.94
vertex 4316.91 10683.140000000001 199.94
vertex 4364.49 10723.83 199.94
endloop
endfacet
facet normal 0 0 1
outer loop
vertex 4024.4100000000003 10657.01 199.94
vertex 3853.7200000000003 10683.140000000001 199.94
vertex 3839.1600000000003 10647.91 199.94
endloop
endfacet
facet normal 0 0 0.9999999999999999
outer loop
vertex 4024.4100000000003 10657.01 199.94
vertex 3839.1600000000003 10647.91 199.94
vertex 3836.17 10635.56 199.94
endloop
endfacet
facet normal 0 0 1
outer loop
vertex 4024.4100000000003 10657.01 199.94
vertex 3836.17 10635.56 199.94
vertex 4276.22 10635.56 199.94
endloop
endfacet
facet normal 0 0 1
outer loop
vertex 4024.4100000000003 10657.01 199.94
vertex 4276.22 10635.56 199.94
vertex 4316.91 10683.140000000001 199.94
endloop
endfacet
facet normal 0 0 1
outer loop
vertex 4024.4100000000003 10657.01 199.94
vertex 4316.91 10683.140000000001 199.94
vertex 3853.7200000000003 10683.140000000001 199.94
endloop
endfacet
facet normal 0 0 1
outer loop
vertex 3836.17 10635.56 199.94
vertex 3823.3 10582.130000000001 199.94
vertex 4243.46 10582.130000000001 199.94
endloop
endfacet
facet normal 0 0 1
outer loop
vertex 3836.17 10635.56 199.94
vertex 4243.46 10582.130000000001 199.94
vertex 4276.22 10635.56 199.94
endloop
endfacet
facet normal 0 0 1
outer loop
vertex 3981.1200000000003 10547.81 199.94
vertex 3823.3 10582.130000000001 199.94
vertex 3809.78 10525.970000000001 199.94
endloop
endfacet
facet normal 0 0 1
outer loop
vertex 3981.1200000000003 10547.81 199.94
vertex 3809.78 10525.970000000001 199.94
vertex 3809.65 10524.28 199.94
endloop
endfacet
facet normal 0 0 0.9999999999999999
outer loop
vertex 3981.1200000000003 10547.81 199.94
vertex 3809.65 10524.28 199.94
vertex 4219.54 10524.28 199.94
endloop
endfacet
facet normal 0 0 1
outer loop
vertex 3981.1200000000003 10547.81 199.94
vertex 4219.54 10524.28 199.94
vertex 4243.46 10582.130000000001 199.94
endloop
endfacet
facet normal 0 0 1
outer loop
vertex 3981.1200000000003 10547.81 199.94
vertex 4243.46 10582.130000000001 199.94
vertex 3823.3 10582.130000000001 199.94
endloop
endfacet
facet normal 0 0 1
outer loop
vertex 3809.65 10524.28 199.94
vertex 3804.9700000000003 10463.44 199.94
vertex 4204.85 10463.44 199.94
endloop
endfacet
facet normal 0 0 1
outer loop
vertex 3809.65 10524.28 199.94
vertex 4204.85 10463.44 199.94
vertex 4219.54 10524.28 199.94
endloop
endfacet
facet normal 0 0 1
outer loop
vertex 3804.9700000000003 10463.44 199.94
vertex 3800.03 10401.04 199.94
vertex 4200.04 10401.04 199.94
endloop
endfacet
facet normal 0 0 1
outer loop
vertex 3804.9700000000003 10463.44 199.94
vertex 4200.04 10401.04 199.94
vertex 4204.85 10463.44 199.94
endloop
endfacet
facet normal -0.9953908344575539 -0.09590144252249008 0
outer loop
vertex 3199.9500000000003 10999.95 199.94
vertex 3199.9500000000003 10999.95 599.95
vertex 3196.1800000000003 11039.08 599.95
endloop
endfacet
facet normal -0.9953908344575539 -0.09590144252249008 0
outer loop
vertex 3199.9500000000003 10999.95 199.94
vertex 3196.1800000000003 11039.08 599.95
vertex 3196.1800000000003 11039.08 199.94
endloop
endfacet
facet normal 0 0 -1
outer loop
vertex 3000.01 10999.95 599.95
vertex 3039.01 11196.12 599.95
vertex 3076.58 11184.81 599.95
endloop
endfacet
facet normal 0 0 -0.9999999999999999
outer loop
vertex 3000.01 10999.95 599.95
vertex 3076.58 11184.81 599.95
vertex 3111.1600000000003 11166.35 599.95
endloop
endfacet
facet normal 0 0 -0.9999999999999999
outer loop
vertex 3000.01 10999.95 599.95
vertex 3111.1600000000003 11166.35 599.95
vertex 3141.4500000000003 11141.390000000001 599.95
endloop
endfacet
facet normal 0 0 -1
outer loop
vertex 3000.01 10999.95 599.95
vertex 3141.4500000000003 11141.390000000001 599.95
vertex 3166.28 11111.1 599.95
endloop
endfacet
facet normal 0 0 -0.9999999999999999
outer loop
vertex 3000.01 10999.95 599.95
vertex 3166.28 11111.1 599.95
vertex 3184.7400000000002 11076.52 599.95
endloop
endfacet
facet normal 0 0 -1
outer loop
vertex 3000.01 10999.95 599.95
vertex 3184.7400000000002 11076.52 599.95
vertex 3196.1800000000003 11039.08 599.95
endloop
endfacet
facet normal 0 0 -0.9999999999999999
outer loop
vertex 3000.01 10999.95 599.95
vertex 3196.1800000000003 11039.08 599.95
vertex 3199.9500000000003 10999.95 599.95
endloop
endfacet
facet normal 0 0 -1
outer loop
vertex 3000.01 10999.95 599.95
vertex 3199.9500000000003 10999.95 599.95
vertex 3196.1800000000003 10960.95 599.95
endloop
endfacet
facet normal 0 0 -0.9999999999999999
outer loop
vertex 3000.01 10999.95 599.95
vertex 3196.1800000000003 10960.95 599.95
vertex 3184.7400000000002 10923.51 599.95
endloop
endfacet
facet normal 0 0 -1
outer loop
vertex 3000.01 10999.95 599.95
vertex 3184.7400000000002 10923.51 599.95
vertex 3166.28 10888.93 599.95
endloop
endfacet
facet normal 0 0 -0.9999999999999999
outer loop
vertex 3000.01 10999.95 599.95
vertex 3166.28 10888.93 599.95
vertex 3141.4500000000003 10858.640000000001 599.95
endloop
endfacet
facet normal 0 0 -1
outer loop
vertex 3000.01 10999.95 599.95
vertex 3141.4500000000003 10858.640000000001 599.95
vertex 3111.1600000000003 10833.68 599.95
endloop
endfacet
facet normal 0 0 -1
outer loop
vertex 3000.01 10999.95 599.95
vertex 3111.1600000000003 10833.68 599.95
vertex 3076.58 10815.220000000001 599.95
endloop
endfacet
facet normal 0 0 -1
outer loop
vertex 3000.01 10999.95 599.95
vertex 3076.58 10815.220000000001 599.95
vertex 3039.01 10803.78 599.95
endloop
endfacet
facet normal 0 0 -1
outer loop
vertex 3000.01 10999.95 599.95
vertex 3039.01 10803.78 599.95
vertex 3000.01 10800.01 599.95
endloop
endfacet
facet normal 0 0 -1
outer loop
vertex 3000.01 10999.95 599.95
vertex 3000.01 10800.01 599.95
vertex 2961.01 10803.78 599.95
endloop
endfacet
facet normal 0 0 -1
outer loop
vertex 3000.01 10999.95 599.95
vertex 2961.01 10803.78 599.95
vertex 2923.44 10815.220000000001 599.95
endloop
endfacet
facet normal 0 0 -1
outer loop
vertex 3000.01 10999.95 599.95
vertex 2923.44 10815.220000000001 599.95
vertex 2888.86 10833.68 599.95
endloop
endfacet
facet normal 0 0 -1
outer loop
vertex 3000.01 10999.95 599.95
vertex 2888.86 10833.68 599.95
vertex 2858.57 10858.640000000001 599.95
endloop
endfacet
facet normal 0 0 -0.9999999999999999
outer loop
vertex 3000.01 10999.95 599.95
vertex 2858.57 10858.640000000001 599.95
vertex 2833.7400000000002 10888.93 599.95
endloop
endfacet
facet normal 0 0 -1
outer loop
vertex 3000.01 10999.95 599.95
vertex 2833.7400000000002 10888.93 599.95
vertex 2815.28 10923.51 599.95
endloop
endfacet
facet normal 0 0 -0.9999999999999999
outer loop
vertex 3000.01 10999.95 599.95
vertex 2815.28 10923.51 599.95
vertex 2803.84 10960.95 599.95
endloop
endfacet
facet normal 0 0 -1
outer loop
vertex 3000.01 10999.95 599.95
vertex 2803.84 10960.95 599.95
vertex 2799.94 10999.95 599.95
endloop
endfacet
facet normal 0 0 -1
outer loop
vertex 3000.01 10999.95 599.95
vertex 2799.94 10999.95 599.95
vertex 2803.84 11039.08 599.95
endloop
endfacet
facet normal 0 0 -1
outer loop
vertex 3000.01 10999.95 599.95
vertex 2803.84 11039.08 599.95
vertex 2815.28 11076.52 599.95
endloop
endfacet
facet normal 0 0 -0.9999999999999999
outer loop
vertex 3000.01 10999.95 599.95
vertex 2815.28 11076.52 599.95
vertex 2833.7400000000002 11111.1 599.95
endloop
endfacet
facet normal 0 0 -1
outer loop
vertex 3000.01 10999.95 599.95
vertex 2833.7400000000002 11111.1 599.95
vertex 2858.57 11141.390000000001 599.95
endloop
endfacet
facet normal 0 0 -0.9999999999999999
outer loop
vertex 3000.01 10999.95 599.95
vertex 2858.57 11141.390000000001 599.95
vertex 2888.86 11166.35 599.95
endloop
endfacet
facet normal 0 0 -1
outer loop
vertex 3000.01 10999.95 599.95
vertex 2888.86 11166.35 599.95
vertex 2923.44 11184.81 599.95
endloop
endfacet
facet normal 0 0 -1
outer loop
vertex 3000.01 10999.95 599.95
vertex 2923.44 11184.81 599.95
vertex 2961.01 11196.12 599.95
endloop
endfacet
facet normal 0 0 -1
outer loop
vertex 3000.01 10999.95 599.95
vertex 2961.01 11196.12 599.95
vertex 3000.01 11200.02 599.95
endloop
endfacet
facet normal 0 0 -1
outer loop
vertex 3000.01 10999.95 599.95
vertex 3000.01 11200.02 599.95
vertex 3039.01 11196.12 599.95
endloop
endfacet
facet normal 0 0 -1
outer loop
vertex 4281.9400000000005 10993.84 599.95
vertex 4599.01 10800.01 599.95
vertex 4536.610000000001 10795.07 599.95
endloop
endfacet
facet normal 0 0 -1
outer loop
vertex 4281.9400000000005 10993.84 599.95
vertex 4536.610000000001 10795.07 599.95
vertex 3906.2400000000002 10795.07 599.95
endloop
endfacet
facet normal 0 0 -1
outer loop
vertex 4281.9400000000005 10993.84 599.95
vertex 3906.2400000000002 10795.07 599.95
vertex 3952.65 10870.6 599.95
endloop
endfacet
facet normal 0 0 -1
outer loop
vertex 4281.9400000000005 10993.84 599.95
vertex 3952.65 10870.6 599.95
vertex 4034.03 10966.02 599.95
endloop
endfacet
facet normal 0 0 -1
outer loop
vertex 4281.9400000000005 10993.84 599.95
vertex 4034.03 10966.02 599.95
vertex 4129.32 11047.4 599.95
endloop
endfacet
facet normal 0 0 -1
outer loop
vertex 4281.9400000000005 10993.84 599.95
vertex 4129.32 11047.4 599.95
vertex 4236.31 11112.92 599.95
endloop
endfacet
facet normal 0 0 -0.9999999999999999
outer loop
vertex 4281.9400000000005 10993.84 599.95
vertex 4236.31 11112.92 599.95
vertex 4352.14 11160.890000000001 599.95
endloop
endfacet
facet normal 0 0 -1
outer loop
vertex 4281.9400000000005 10993.84 599.95
vertex 4352.14 11160.890000000001 599.95
vertex 4473.95 11190.140000000001 599.95
endloop
endfacet
facet normal 0 0 -1
outer loop
vertex 4281.9400000000005 10993.84 599.95
vertex 4473.95 11190.140000000001 599.95
vertex 4599.01 11200.02 599.95
endloop
endfacet
facet normal 0 0 -1
outer loop
vertex 4281.9400000000005 10993.84 599.95
vertex 4599.01 11200.02 599.95
vertex 4599.01 10800.01 599.95
endloop
endfacet
facet normal 0 0 -1
outer loop
vertex 4536.610000000001 10795.07 599.95
vertex 4475.64 10780.51 599.95
vertex 3897.4 10780.51 599.95
endloop
endfacet
facet normal 0 0 -0.9999999999999999
outer loop
vertex 4536.610000000001 10795.07 599.95
vertex 3897.4 10780.51 599.95
vertex 3906.2400000000002 10795.07 599.95
endloop
endfacet
facet normal 0 0 -1
outer loop
vertex 4112.42 10767.51 599.95
vertex 4475.64 10780.51 599.95
vertex 4417.92 10756.460000000001 599.95
endloop
endfacet
facet normal 0 0 -0.9999999999999999
outer loop
vertex 4112.42 10767.51 599.95
vertex 4417.92 10756.460000000001 599.95
vertex 3884.1400000000003 10756.460000000001 599.95
endloop
endfacet
facet normal 0 0 -1
outer loop
vertex 4112.42 10767.51 599.95
vertex 3884.1400000000003 10756.460000000001 599.95
vertex 3887.13 10763.74 599.95
endloop
endfacet
facet normal 0 0 -0.9999999999999999
outer loop
vertex 4112.42 10767.51 599.95
vertex 3887.13 10763.74 599.95
vertex 3897.4 10780.51 599.95
endloop
endfacet
facet normal 0 0 -0.9999999999999999
outer loop
vertex 4112.42 10767.51 599.95
vertex 3897.4 10780.51 599.95
vertex 4475.64 10780.51 599.95
endloop
endfacet
facet normal 0 0 -1
outer loop
vertex 4417.92 10756.460000000001 599.95
vertex 4364.49 10723.83 599.95
vertex 3870.4900000000002 10723.83 599.95
endloop
endfacet
facet normal 0 0 -1
outer loop
vertex 4417.92 10756.460000000001 599.95
vertex 3870.4900000000002 10723.83 599.95
vertex 3884.1400000000003 10756.460000000001 599.95
endloop
endfacet
facet normal 0 0 -1
outer loop
vertex 4364.49 10723.83 599.95
vertex 4316.91 10683.140000000001 599.95
vertex 3853.7200000000003 10683.140000000001 599.95
endloop
endfacet
facet normal 0 0 -1
outer loop
vertex 4364.49 10723.83 599.95
vertex 3853.7200000000003 10683.140000000001 599.95
vertex 3870.4900000000002 10723.83 599.95
endloop
endfacet
facet normal 0 0 -1
outer loop
vertex 4024.4100000000003 10657.01 599.95
vertex 4316.91 10683.140000000001 599.95
vertex 4276.22 10635.56 599.95
endloop
endfacet
facet normal 0 0 -1
outer loop
vertex 4024.4100000000003 10657.01 599.95
vertex 4276.22 10635.56 599.95
vertex 3836.17 10635.56 599.95
endloop
endfacet
facet normal 0 0 -0.9999999999999999
outer loop
vertex 4024.4100000000003 10657.01 599.95
vertex 3836.17 10635.56 599.95
vertex 3839.1600000000003 10647.91 599.95
endloop
endfacet
facet normal 0 0 -1
outer loop
vertex 4024.4100000000003 10657.01 599.95
vertex 3839.1600000000003 10647.91 599.95
vertex 3853.7200000000003 10683.140000000001 599.95
endloop
endfacet
facet normal 0 0 -1
outer loop
vertex 4024.4100000000003 10657.01 599.95
vertex 3853.7200000000003 10683.140000000001 599.95
vertex 4316.91 10683.140000000001 599.95
endloop
endfacet
facet normal 0 0 -1
outer loop
vertex 4276.22 10635.56 599.95
vertex 4243.46 10582.130000000001 599.95
vertex 3823.3 10582.130000000001 599.95
endloop
endfacet
facet normal 0 0 -1
outer loop
vertex 4276.22 10635.56 599.95
vertex 3823.3 10582.130000000001 599.95
vertex 3836.17 10635.56 599.95
endloop
endfacet
facet normal 0 0 -1
outer loop
vertex 3981.1200000000003 10547.81 599.95
vertex 4243.46 10582.130000000001 599.95
vertex 4219.54 10524.28 599.95
endloop
endfacet
facet normal 0 0 -0.9999999999999999
outer loop
vertex 3981.1200000000003 10547.81 599.95
vertex 4219.54 10524.28 599.95
vertex 3809.65 10524.28 599.95
endloop
endfacet
facet normal 0 0 -1
outer loop
vertex 3981.1200000000003 10547.81 599.95
vertex 3809.65 10524.28 599.95
vertex 3809.78 10525.970000000001 599.95
endloop
endfacet
facet normal 0 0 -1
outer loop
vertex 3981.1200000000003 10547.81 599.95
vertex 3809.78 10525.970000000001 599.95
vertex 3823.3 10582.130000000001 599.95
endloop
endfacet
facet normal 0 0 -1
outer loop
vertex 3981.1200000000003 10547.81 599.95
vertex 3823.3 10582.130000000001 599.95
vertex 4243.46 10582.130000000001 599.95
endloop
endfacet
facet normal 0 0 -1
outer loop
vertex 4219.54 10524.28 599.95
vertex 4204.85 10463.44 599.95
vertex 3804.9700000000003 10463.44 599.95
endloop
endfacet
facet normal 0 0 -1
outer loop
vertex 4219.54 10524.28 599.95
vertex 3804.9700000000003 10463.44 599.95
vertex 3809.65 10524.28 599.95
endloop
endfacet
facet normal 0 0 -1
outer loop
vertex 4204.85 10463.44 599.95
vertex 4200.04 10401.04 599.95
vertex 3800.03 10401.04 599.95
endloop
endfacet
facet normal 0 0 -1
outer loop
vertex 4204.85 10463.44 599.95
vertex 3800.03 10401.04 599.95
vertex 3804.9700000000003 10463.44 599.95
endloop
endfacet
facet normal -0.9563515710513395 -0.29221853559901784 0
outer loop
vertex 3196.1800000000003 11039.08 199.94
vertex 3196.1800000000003 11039.08 599.95
vertex 3184.7400000000002 11076.52 599.95
endloop
endfacet
facet normal -0.9563515710513395 -0.29221853559901784 0
outer loop
vertex 3196.1800000000003 11039.08 199.94
vertex 3184.7400000000002 11076.52 599.95
vertex 3184.7400000000002 11076.52 199.94
endloop
endfacet
facet normal -0.8821692656664049 -0.470932465130188 0
outer loop
vertex 3184.7400000000002 11076.52 199.94
vertex 3184.7400000000002 11076.52 599.95
vertex 3166.28 11111.1 599.95
endloop
endfacet
facet normal -0.8821692656664049 -0.470932465130188 0
outer loop
vertex 3184.7400000000002 11076.52 199.94
vertex 3166.28 11111.1 599.95
vertex 3166.28 11111.1 199.94
endloop
endfacet
facet normal -0.7733654271742799 -0.6339605003874798 0
outer loop
vertex 3166.28 11111.1 199.94
vertex 3166.28 11111.1 599.95
vertex 3141.4500000000003 11141.390000000001 599.95
endloop
endfacet
facet normal -0.7733654271742799 -0.6339605003874798 0
outer loop
vertex 3166.28 11111.1 199.94
vertex 3141.4500000000003 11141.390000000001 599.95
vertex 3141.4500000000003 11141.390000000001 199.94
endloop
endfacet
facet normal -0.6359394184773447 -0.7717389817980538 0
outer loop
vertex 3141.4500000000003 11141.390000000001 199.94
vertex 3141.4500000000003 11141.390000000001 599.95
vertex 3111.1600000000003 11166.35 599.95
endloop
endfacet
facet normal -0.6359394184773447 -0.7717389817980538 0
outer loop
vertex 3141.4500000000003 11141.390000000001 199.94
vertex 3111.1600000000003 11166.35 599.95
vertex 3111.1600000000003 11166.35 199.94
endloop
endfacet
facet normal -0.4709324651301652 -0.8821692656664172 0
outer loop
vertex 3111.1600000000003 11166.35 199.94
vertex 3111.1600000000003 11166.35 599.95
vertex 3076.58 11184.81 599.95
endloop
endfacet
facet normal -0.4709324651301652 -0.8821692656664172 0
outer loop
vertex 3111.1600000000003 11166.35 199.94
vertex 3076.58 11184.81 599.95
vertex 3076.58 11184.81 199.94
endloop
endfacet
facet normal -0.28825968092877124 -0.957552273429938 0
outer loop
vertex 3076.58 11184.81 199.94
vertex 3076.58 11184.81 599.95
vertex 3039.01 11196.12 599.95
endloop
endfacet
facet normal -0.28825968092877124 -0.957552273429938 0
outer loop
vertex 3076.58 11184.81 199.94
vertex 3039.01 11196.12 599.95
vertex 3039.01 11196.12 199.94
endloop
endfacet
facet normal -0.09950371902098973 -0.99503719020999 0
outer loop
vertex 3039.01 11196.12 199.94
vertex 3039.01 11196.12 599.95
vertex 3000.01 11200.02 599.95
endloop
endfacet
facet normal -0.09950371902098973 -0.99503719020999 0
outer loop
vertex 3039.01 11196.12 199.94
vertex 3000.01 11200.02 599.95
vertex 3000.01 11200.02 199.94
endloop
endfacet
facet normal 0.09950371902098973 -0.99503719020999 0
outer loop
vertex 3000.01 11200.02 199.94
vertex 3000.01 11200.02 599.95
vertex 2961.01 11196.12 599.95
endloop
endfacet
facet normal 0.09950371902098973 -0.99503719020999 0
outer loop
vertex 3000.01 11200.02 199.94
vertex 2961.01 11196.12 599.95
vertex 2961.01 11196.12 199.94
endloop
endfacet
facet normal 0.2882596809287681 -0.957552273429939 0
outer loop
vertex 2961.01 11196.12 199.94
vertex 2961.01 11196.12 599.95
vertex 2923.44 11184.81 599.95
endloop
endfacet
facet normal 0.2882596809287681 -0.957552273429939 0
outer loop
vertex 2961.01 11196.12 199.94
vertex 2923.44 11184.81 599.95
vertex 2923.44 11184.81 199.94
endloop
endfacet
facet normal 0.47093246513016995 -0.8821692656664146 0
outer loop
vertex 2923.44 11184.81 199.94
vertex 2923.44 11184.81 599.95
vertex 2888.86 11166.35 599.95
endloop
endfacet
facet normal 0.47093246513016995 -0.8821692656664146 0
outer loop
vertex 2923.44 11184.81 199.94
vertex 2888.86 11166.35 599.95
vertex 2888.86 11166.35 199.94
endloop
endfacet
facet normal 0.6359394184773447 -0.7717389817980538 0
outer loop
vertex 2888.86 11166.35 199.94
vertex 2888.86 11166.35 599.95
vertex 2858.57 11141.390000000001 599.95
endloop
endfacet
facet normal 0.6359394184773447 -0.7717389817980538 0
outer loop
vertex 2888.86 11166.35 199.94
vertex 2858.57 11141.390000000001 599.95
vertex 2858.57 11141.390000000001 199.94
endloop
endfacet
facet normal 0.7733654271742799 -0.6339605003874798 0
outer loop
vertex 2858.57 11141.390000000001 199.94
vertex 2858.57 11141.390000000001 599.95
vertex 2833.7400000000002 11111.1 599.95
endloop
endfacet
facet normal 0.7733654271742799 -0.6339605003874798 0
outer loop
vertex 2858.57 11141.390000000001 199.94
vertex 2833.7400000000002 11111.1 599.95
vertex 2833.7400000000002 11111.1 199.94
endloop
endfacet
facet normal 0.8821692656664049 -0.470932465130188 0
outer loop
vertex 2833.7400000000002 11111.1 199.94
vertex 2833.7400000000002 11111.1 599.95
vertex 2815.28 11076.52 599.95
endloop
endfacet
facet normal 0.8821692656664049 -0.470932465130188 0
outer loop
vertex 2833.7400000000002 11111.1 199.94
vertex 2815.28 11076.52 599.95
vertex 2815.28 11076.52 199.94
endloop
endfacet
facet normal 0.9563515710513395 -0.29221853559901784 0
outer loop
vertex 2815.28 11076.52 199.94
vertex 2815.28 11076.52 599.95
vertex 2803.84 11039.08 599.95
endloop
endfacet
facet normal 0.9563515710513395 -0.29221853559901784 0
outer loop
vertex 2815.28 11076.52 199.94
vertex 2803.84 11039.08 599.95
vertex 2803.84 11039.08 199.94
endloop
endfacet
facet normal 0.9950698678600606 -0.09917639879004361 0
outer loop
vertex 2803.84 11039.08 199.94
vertex 2803.84 11039.08 599.95
vertex 2799.94 10999.95 599.95
endloop
endfacet
facet normal 0.9950698678600606 -0.09917639879004361 0
outer loop
vertex 2803.84 11039.08 199.94
vertex 2799.94 10999.95 599.95
vertex 2799.94 10999.95 199.94
endloop
endfacet
facet normal 0.9950371902099889 0.09950371902100122 0
outer loop
vertex 2799.94 10999.95 199.94
vertex 2799.94 10999.95 599.95
vertex 2803.84 10960.95 599.95
endloop
endfacet
facet normal 0.9950371902099889 0.09950371902100122 0
outer loop
vertex 2799.94 10999.95 199.94
vertex 2803.84 10960.95 599.95
vertex 2803.84 10960.95 199.94
endloop
endfacet
facet normal 0.9563515710513395 0.29221853559901784 0
outer loop
vertex 2803.84 10960.95 199.94
vertex 2803.84 10960.95 599.95
vertex 2815.28 10923.51 599.95
endloop
endfacet
facet normal 0.9563515710513395 0.29221853559901784 0
outer loop
vertex 2803.84 10960.95 199.94
vertex 2815.28 10923.51 599.95
vertex 2815.28 10923.51 199.94
endloop
endfacet
facet normal 0.8821692656664049 0.470932465130188 0
outer loop
vertex 2815.28 10923.51 199.94
vertex 2815.28 10923.51 599.95
vertex 2833.7400000000002 10888.93 599.95
endloop
endfacet
facet normal 0.8821692656664049 0.470932465130188 0
outer loop
vertex 2815.28 10923.51 199.94
vertex 2833.7400000000002 10888.93 599.95
vertex 2833.7400000000002 10888.93 199.94
endloop
endfacet
facet normal 0.7733654271742612 0.6339605003875025 0
outer loop
vertex 2833.7400000000002 10888.93 199.94
vertex 2833.7400000000002 10888.93 599.95
vertex 2858.57 10858.640000000001 599.95
endloop
endfacet
facet normal 0.7733654271742612 0.6339605003875025 0
outer loop
vertex 2833.7400000000002 10888.93 199.94
vertex 2858.57 10858.640000000001 599.95
vertex 2858.57 10858.640000000001 199.94
endloop
endfacet
facet normal 0.6359394184773722 0.7717389817980309 0
outer loop
vertex 2858.57 10858.640000000001 199.94
vertex 2858.57 10858.640000000001 599.95
vertex 2888.86 10833.68 599.95
endloop
endfacet
facet normal 0.6359394184773722 0.7717389817980309 0
outer loop
vertex 2858.57 10858.640000000001 199.94
vertex 2888.86 10833.68 599.95
vertex 2888.86 10833.68 199.94
endloop
endfacet
facet normal 0.47093246513016995 0.8821692656664146 0
outer loop
vertex 2888.86 10833.68 199.94
vertex 2888.86 10833.68 599.95
vertex 2923.44 10815.220000000001 599.95
endloop
endfacet
facet normal 0.47093246513016995 0.8821692656664146 0
outer loop
vertex 2888.86 10833.68 199.94
vertex 2923.44 10815.220000000001 599.95
vertex 2923.44 10815.220000000001 199.94
endloop
endfacet
facet normal 0.2912933318541911 0.956633783021112 0
outer loop
vertex 2923.44 10815.220000000001 199.94
vertex 2923.44 10815.220000000001 599.95
vertex 2961.01 10803.78 599.95
endloop
endfacet
facet normal 0.2912933318541911 0.956633783021112 0
outer loop
vertex 2923.44 10815.220000000001 199.94
vertex 2961.01 10803.78 599.95
vertex 2961.01 10803.78 199.94
endloop
endfacet
facet normal 0.09621815937084051 0.9953602693534073 0
outer loop
vertex 2961.01 10803.78 199.94
vertex 2961.01 10803.78 599.95
vertex 3000.01 10800.01 599.95
endloop
endfacet
facet normal 0.09621815937084051 0.9953602693534073 0
outer loop
vertex 2961.01 10803.78 199.94
vertex 3000.01 10800.01 599.95
vertex 3000.01 10800.01 199.94
endloop
endfacet
facet normal -0.09621815937084051 0.9953602693534073 0
outer loop
vertex 3000.01 10800.01 199.94
vertex 3000.01 10800.01 599.95
vertex 3039.01 10803.78 599.95
endloop
endfacet
facet normal -0.09621815937084051 0.9953602693534073 0
outer loop
vertex 3000.01 10800.01 199.94
vertex 3039.01 10803.78 599.95
vertex 3039.01 10803.78 199.94
endloop
endfacet
facet normal -0.2912933318541943 0.956633783021111 0
outer loop
vertex 3039.01 10803.78 199.94
vertex 3039.01 10803.78 599.95
vertex 3076.58 10815.220000000001 599.95
endloop
endfacet
facet normal -0.2912933318541943 0.956633783021111 0
outer loop
vertex 3039.01 10803.78 199.94
vertex 3076.58 10815.220000000001 599.95
vertex 3076.58 10815.220000000001 199.94
endloop
endfacet
facet normal -0.4709324651301652 0.8821692656664172 0
outer loop
vertex 3076.58 10815.220000000001 199.94
vertex 3076.58 10815.220000000001 599.95
vertex 3111.1600000000003 10833.68 599.95
endloop
endfacet
facet normal -0.4709324651301652 0.8821692656664172 0
outer loop
vertex 3076.58 10815.220000000001 199.94
vertex 3111.1600000000003 10833.68 599.95
vertex 3111.1600000000003 10833.68 199.94
endloop
endfacet
facet normal -0.6359394184773722 0.7717389817980309 0
outer loop
vertex 3111.1600000000003 10833.68 199.94
vertex 3111.1600000000003 10833.68 599.95
vertex 3141.4500000000003 10858.640000000001 599.95
endloop
endfacet
facet normal -0.6359394184773722 0.7717389817980309 0
outer loop
vertex 3111.1600000000003 10833.68 199.94
vertex 3141.4500000000003 10858.640000000001 599.95
vertex 3141.4500000000003 10858.640000000001 199.94
endloop
endfacet
facet normal -0.7733654271742612 0.6339605003875025 0
outer loop
vertex 3141.4500000000003 10858.640000000001 199.94
vertex 3141.4500000000003 10858.640000000001 599.95
vertex 3166.28 10888.93 599.95
endloop
endfacet
facet normal -0.7733654271742612 0.6339605003875025 0
outer loop
vertex 3141.4500000000003 10858.640000000001 199.94
vertex 3166.28 10888.93 599.95
vertex 3166.28 10888.93 199.94
endloop
endfacet
facet normal -0.8821692656664049 0.470932465130188 0
outer loop
vertex 3166.28 10888.93 199.94
vertex 3166.28 10888.93 599.95
vertex 3184.7400000000002 10923.51 599.95
endloop
endfacet
facet normal -0.8821692656664049 0.470932465130188 0
outer loop
vertex 3166.28 10888.93 199.94
vertex 3184.7400000000002 10923.51 599.95
vertex 3184.7400000000002 10923.51 199.94
endloop
endfacet
facet normal -0.9563515710513395 0.29221853559901784 0
outer loop
vertex 3184.7400000000002 10923.51 199.94
vertex 3184.7400000000002 10923.51 599.95
vertex 3196.1800000000003 10960.95 599.95
endloop
endfacet
facet normal -0.9563515710513395 0.29221853559901784 0
outer loop
vertex 3184.7400000000002 10923.51 199.94
vertex 3196.1800000000003 10960.95 599.95
vertex 3196.1800000000003 10960.95 199.94
endloop
endfacet
facet normal -0.9953602693534084 0.096218159370829 0
outer loop
vertex 3196.1800000000003 10960.95 199.94
vertex 3196.1800000000003 10960.95 599.95
vertex 3199.9500000000003 10999.95 599.95
endloop
endfacet
facet normal -0.9953602693534084 0.096218159370829 0
outer loop
vertex 3196.1800000000003 10960.95 199.94
vertex 3199.9500000000003 10999.95 599.95
vertex 3199.9500000000003 10999.95 199.94
endloop
endfacet
facet normal -1 0 0
outer loop
vertex 4599.01 11200.02 599.95
vertex 4599.01 11200.02 199.94
vertex 4599.01 10800.01 199.94
endloop
endfacet
facet normal -1 0 0
outer loop
vertex 4599.01 11200.02 599.95
vertex 4599.01 10800.01 199.94
vertex 4599.01 10800.01 599.95
endloop
endfacet
facet normal 0.07875668811724175 -0.9968938680104334 0
outer loop
vertex 4473.95 11190.140000000001 599.95
vertex 4473.95 11190.140000000001 199.94
vertex 4599.01 11200.02 199.94
endloop
endfacet
facet normal 0.07875668811724175 -0.9968938680104334 0
outer loop
vertex 4473.95 11190.140000000001 599.95
vertex 4599.01 11200.02 199.94
vertex 4599.01 11200.02 599.95
endloop
endfacet
facet normal 0.2334906969554836 -0.972359035765721 0
outer loop
vertex 4352.14 11160.890000000001 599.95
vertex 4352.14 11160.890000000001 199.94
vertex 4473.95 11190.140000000001 199.94
endloop
endfacet
facet normal 0.2334906969554836 -0.972359035765721 0
outer loop
vertex 4352.14 11160.890000000001 599.95
vertex 4473.95 11190.140000000001 199.94
vertex 4473.95 11190.140000000001 599.95
endloop
endfacet
facet normal 0.38262653549905334 -0.9239030979123252 0
outer loop
vertex 4236.31 11112.92 599.95
vertex 4236.31 11112.92 199.94
vertex 4352.14 11160.890000000001 199.94
endloop
endfacet
facet normal 0.38262653549905334 -0.9239030979123252 0
outer loop
vertex 4236.31 11112.92 599.95
vertex 4352.14 11160.890000000001 199.94
vertex 4352.14 11160.890000000001 599.95
endloop
endfacet
facet normal 0.5222461448529767 -0.8527947960595232 0
outer loop
vertex 4129.32 11047.4 599.95
vertex 4129.32 11047.4 199.94
vertex 4236.31 11112.92 199.94
endloop
endfacet
facet normal 0.5222461448529767 -0.8527947960595232 0
outer loop
vertex 4129.32 11047.4 599.95
vertex 4236.31 11112.92 199.94
vertex 4236.31 11112.92 599.95
endloop
endfacet
facet normal 0.6494233685820576 -0.760427043403595 0
outer loop
vertex 4034.03 10966.02 599.95
vertex 4034.03 10966.02 199.94
vertex 4129.32 11047.4 199.94
endloop
endfacet
facet normal 0.6494233685820576 -0.760427043403595 0
outer loop
vertex 4034.03 10966.02 599.95
vertex 4129.32 11047.4 199.94
vertex 4129.32 11047.4 599.95
endloop
endfacet
facet normal 0.7608640576866068 -0.6489113080542454 0
outer loop
vertex 3952.65 10870.6 599.95
vertex 3952.65 10870.6 199.94
vertex 4034.03 10966.02 199.94
endloop
endfacet
facet normal 0.7608640576866068 -0.6489113080542454 0
outer loop
vertex 3952.65 10870.6 599.95
vertex 4034.03 10966.02 199.94
vertex 4034.03 10966.02 599.95
endloop
endfacet
facet normal 0.8525118060632667 -0.5227079686811241 0
outer loop
vertex 3887.13 10763.74 599.95
vertex 3887.13 10763.74 199.94
vertex 3952.65 10870.6 199.94
endloop
endfacet
facet normal 0.8525118060632667 -0.5227079686811241 0
outer loop
vertex 3887.13 10763.74 599.95
vertex 3952.65 10870.6 199.94
vertex 3952.65 10870.6 599.95
endloop
endfacet
facet normal 0.9239030979123292 -0.3826265354990441 0
outer loop
vertex 3839.1600000000003 10647.91 599.95
vertex 3839.1600000000003 10647.91 199.94
vertex 3887.13 10763.74 199.94
endloop
endfacet
facet normal 0.9239030979123292 -0.3826265354990441 0
outer loop
vertex 3839.1600000000003 10647.91 599.95
vertex 3887.13 10763.74 199.94
vertex 3887.13 10763.74 599.95
endloop
endfacet
facet normal 0.9721799453227471 -0.23423525335068657 0
outer loop
vertex 3809.78 10525.970000000001 599.95
vertex 3809.78 10525.970000000001 199.94
vertex 3839.1600000000003 10647.91 199.94
endloop
endfacet
facet normal 0.9721799453227471 -0.23423525335068657 0
outer loop
vertex 3809.78 10525.970000000001 599.95
vertex 3839.1600000000003 10647.91 199.94
vertex 3839.1600000000003 10647.91 599.95
endloop
endfacet
facet normal 0.9969684316406463 -0.07780710964937389 0
outer loop
vertex 3800.03 10401.04 599.95
vertex 3800.03 10401.04 199.94
vertex 3809.78 10525.970000000001 199.94
endloop
endfacet
facet normal 0.9969684316406463 -0.07780710964937389 0
outer loop
vertex 3800.03 10401.04 599.95
vertex 3809.78 10525.970000000001 199.94
vertex 3809.78 10525.970000000001 599.95
endloop
endfacet
facet normal 0 1 0
outer loop
vertex 4200.04 10401.04 599.95
vertex 4200.04 10401.04 199.94
vertex 3800.03 10401.04 199.94
endloop
endfacet
facet normal 0 1 0
outer loop
vertex 4200.04 10401.04 599.95
vertex 3800.03 10401.04 199.94
vertex 3800.03 10401.04 599.95
endloop
endfacet
facet normal -0.9970422541937637 0.0768553404274428 0
outer loop
vertex 4204.85 10463.44 599.95
vertex 4204.85 10463.44 199.94
vertex 4200.04 10401.04 199.94
endloop
endfacet
facet normal -0.9970422541937637 0.0768553404274428 0
outer loop
vertex 4204.85 10463.44 599.95
vertex 4200.04 10401.04 199.94
vertex 4200.04 10401.04 599.95
endloop
endfacet
facet normal -0.9720658697602034 0.23470821214294812 0
outer loop
vertex 4219.54 10524.28 599.95
vertex 4219.54 10524.28 199.94
vertex 4204.85 10463.44 199.94
endloop
endfacet
facet normal -0.9720658697602034 0.23470821214294812 0
outer loop
vertex 4219.54 10524.28 599.95
vertex 4204.85 10463.44 199.94
vertex 4204.85 10463.44 599.95
endloop
endfacet
facet normal -0.9241179981727761 0.3821072172220006 0
outer loop
vertex 4243.46 10582.130000000001 599.95
vertex 4243.46 10582.130000000001 199.94
vertex 4219.54 10524.28 199.94
endloop
endfacet
facet normal -0.9241179981727761 0.3821072172220006 0
outer loop
vertex 4243.46 10582.130000000001 599.95
vertex 4219.54 10524.28 199.94
vertex 4219.54 10524.28 599.95
endloop
endfacet
facet normal -0.8525118060632572 0.5227079686811396 0
outer loop
vertex 4276.22 10635.56 599.95
vertex 4276.22 10635.56 199.94
vertex 4243.46 10582.130000000001 199.94
endloop
endfacet
facet normal -0.8525118060632572 0.5227079686811396 0
outer loop
vertex 4276.22 10635.56 599.95
vertex 4243.46 10582.130000000001 199.94
vertex 4243.46 10582.130000000001 599.95
endloop
endfacet
facet normal -0.7599889936399298 0.6499359426483249 0
outer loop
vertex 4316.91 10683.140000000001 599.95
vertex 4316.91 10683.140000000001 199.94
vertex 4276.22 10635.56 199.94
endloop
endfacet
facet normal -0.7599889936399298 0.6499359426483249 0
outer loop
vertex 4316.91 10683.140000000001 599.95
vertex 4276.22 10635.56 199.94
vertex 4276.22 10635.56 599.95
endloop
endfacet
facet normal -0.6499359426483309 0.7599889936399247 0
outer loop
vertex 4364.49 10723.83 599.95
vertex 4364.49 10723.83 199.94
vertex 4316.91 10683.140000000001 199.94
endloop
endfacet
facet normal -0.6499359426483309 0.7599889936399247 0
outer loop
vertex 4364.49 10723.83 599.95
vertex 4316.91 10683.140000000001 199.94
vertex 4316.91 10683.140000000001 599.95
endloop
endfacet
facet normal -0.5211980086301587 0.8534357830557359 0
outer loop
vertex 4417.92 10756.460000000001 599.95
vertex 4417.92 10756.460000000001 199.94
vertex 4364.49 10723.83 199.94
endloop
endfacet
facet normal -0.5211980086301587 0.8534357830557359 0
outer loop
vertex 4417.92 10756.460000000001 599.95
vertex 4364.49 10723.83 199.94
vertex 4364.49 10723.83 599.95
endloop
endfacet
facet normal -0.3846153846153732 0.9230769230769277 0
outer loop
vertex 4475.64 10780.51 599.95
vertex 4475.64 10780.51 199.94
vertex 4417.92 10756.460000000001 199.94
endloop
endfacet
facet normal -0.3846153846153732 0.9230769230769277 0
outer loop
vertex 4475.64 10780.51 599.95
vertex 4417.92 10756.460000000001 199.94
vertex 4417.92 10756.460000000001 599.95
endloop
endfacet
facet normal -0.2322746820558079 0.9726502311087337 0
outer loop
vertex 4536.610000000001 10795.07 599.95
vertex 4536.610000000001 10795.07 199.94
vertex 4475.64 10780.51 199.94
endloop
endfacet
facet normal -0.2322746820558079 0.9726502311087337 0
outer loop
vertex 4536.610000000001 10795.07 599.95
vertex 4475.64 10780.51 199.94
vertex 4475.64 10780.51 599.95
endloop
endfacet
facet normal -0.07891974368501241 0.996880972863206 0
outer loop
vertex 4599.01 10800.01 599.95
vertex 4599.01 10800.01 199.94
vertex 4536.610000000001 10795.07 199.94
endloop
endfacet
facet normal -0.07891974368501241 0.996880972863206 0
outer loop
vertex 4599.01 10800.01 599.95
vertex 4536.610000000001 10795.07 199.94
vertex 4536.610000000001 10795.07 599.95
endloop
endfacet
endsolid JSCAD
