solid JSCAD
facet normal -1 0 0
outer loop
vertex 0 9523.800000000001 3619.07
vertex 0 0 0
vertex 0 0 3999.9700000000003
endloop
endfacet
facet normal -1 0 0
outer loop
vertex 0 9523.800000000001 3619.07
vertex 0 0 3999.9700000000003
vertex 0 9599.98 3999.9700000000003
endloop
endfacet
facet normal -0.9999999999999999 0 0
outer loop
vertex 0 9523.800000000001 3619.07
vertex 0 9599.98 3999.9700000000003
vertex 0 9607.65 3999.9700000000003
endloop
endfacet
facet normal -1 0 0
outer loop
vertex 0 9523.800000000001 3619.07
vertex 0 9607.65 3999.9700000000003
vertex 0 9630.4 3999.9700000000003
endloop
endfacet
facet normal -1 0 0
outer loop
vertex 0 9523.800000000001 3619.07
vertex 0 9630.4 3999.9700000000003
vertex 0 9667.45 3999.9700000000003
endloop
endfacet
facet normal -1 0 0
outer loop
vertex 0 9523.800000000001 3619.07
vertex 0 9667.45 3999.9700000000003
vertex 0 9717.11 3999.9700000000003
endloop
endfacet
facet normal -1 0 0
outer loop
vertex 0 9523.800000000001 3619.07
vertex 0 9717.11 3999.9700000000003
vertex 0 9777.82 3999.9700000000003
endloop
endfacet
facet normal -1 0 0
outer loop
vertex 0 9523.800000000001 3619.07
vertex 0 9777.82 3999.9700000000003
vertex 0 9846.98 3999.9700000000003
endloop
endfacet
facet normal -1 0 0
outer loop
vertex 0 9523.800000000001 3619.07
vertex 0 9846.98 3999.9700000000003
vertex 0 9921.99 3999.9700000000003
endloop
endfacet
facet normal -0.9999999999999999 0 0
outer loop
vertex 0 9523.800000000001 3619.07
vertex 0 9921.99 3999.9700000000003
vertex 0 9999.99 3999.9700000000003
endloop
endfacet
facet normal -0.9999999999999999 0 0
outer loop
vertex 0 9523.800000000001 3619.07
vertex 0 9999.99 3999.9700000000003
vertex 0 10077.99 3999.9700000000003
endloop
endfacet
facet normal -1 0 0
outer loop
vertex 0 9523.800000000001 3619.07
vertex 0 10077.99 3999.9700000000003
vertex 0 10153.130000000001 3999.9700000000003
endloop
endfacet
facet normal -1 0 0
outer loop
vertex 0 9523.800000000001 3619.07
vertex 0 10153.130000000001 3999.9700000000003
vertex 0 10222.29 3999.9700000000003
endloop
endfacet
facet normal -1 0 0
outer loop
vertex 0 9523.800000000001 3619.07
vertex 0 10222.29 3999.9700000000003
vertex 0 10282.87 3999.9700000000003
endloop
endfacet
facet normal -1 0 0
outer loop
vertex 0 9523.800000000001 3619.07
vertex 0 10282.87 3999.9700000000003
vertex 0 10332.53 3999.9700000000003
endloop
endfacet
facet normal -1 0 0
outer loop
vertex 0 9523.800000000001 3619.07
vertex 0 10332.53 3999.9700000000003
vertex 0 10369.58 3999.9700000000003
endloop
endfacet
facet normal -1 0 0
outer loop
vertex 0 9523.800000000001 3619.07
vertex 0 10369.58 3999.9700000000003
vertex 0 10392.33 3999.9700000000003
endloop
endfacet
facet normal -1 0 0
outer loop
vertex 0 9523.800000000001 3619.07
vertex 0 10392.33 3999.9700000000003
vertex 0 10400 3999.9700000000003
endloop
endfacet
facet normal -1 0 0
outer loop
vertex 0 9523.800000000001 3619.07
vertex 0 10400 3999.9700000000003
vertex 0 15000.050000000001 3999.9700000000003
endloop
endfacet
facet normal -1 0 0
outer loop
vertex 0 9523.800000000001 3619.07
vertex 0 15000.050000000001 3999.9700000000003
vertex 0 15000.050000000001 0
endloop
endfacet
facet normal -0.9999999999999999 0 0
outer loop
vertex 0 9523.800000000001 3619.07
vertex 0 15000.050000000001 0
vertex 0 0 0
endloop
endfacet
facet normal 0.9999999999999999 0 0
outer loop
vertex 19999.98 9523.800000000001 3619.07
vertex 19999.98 0 0
vertex 19999.98 15000.050000000001 0
endloop
endfacet
facet normal 1 0 0
outer loop
vertex 19999.98 9523.800000000001 3619.07
vertex 19999.98 15000.050000000001 0
vertex 19999.98 15000.050000000001 3999.9700000000003
endloop
endfacet
facet normal 1 0 0
outer loop
vertex 19999.98 9523.800000000001 3619.07
vertex 19999.98 15000.050000000001 3999.9700000000003
vertex 19999.98 10400 3999.9700000000003
endloop
endfacet
facet normal 1 0 0
outer loop
vertex 19999.98 9523.800000000001 3619.07
vertex 19999.98 10400 3999.9700000000003
vertex 19999.98 10392.33 3999.9700000000003
endloop
endfacet
facet normal 1 0 0
outer loop
vertex 19999.98 9523.800000000001 3619.07
vertex 19999.98 10392.33 3999.9700000000003
vertex 19999.98 10369.58 3999.9700000000003
endloop
endfacet
facet normal 1 0 0
outer loop
vertex 19999.98 9523.800000000001 3619.07
vertex 19999.98 10369.58 3999.9700000000003
vertex 19999.98 10332.53 3999.9700000000003
endloop
endfacet
facet normal 1 0 0
outer loop
vertex 19999.98 9523.800000000001 3619.07
vertex 19999.98 10332.53 3999.9700000000003
vertex 19999.98 10282.87 3999.9700000000003
endloop
endfacet
facet normal 1 0 0
outer loop
vertex 19999.98 9523.800000000001 3619.07
vertex 19999.98 10282.87 3999.9700000000003
vertex 19999.98 10222.29 3999.9700000000003
endloop
endfacet
facet normal 1 0 0
outer loop
vertex 19999.98 9523.800000000001 3619.07
vertex 19999.98 10222.29 3999.9700000000003
vertex 19999.98 10153.130000000001 3999.9700000000003
endloop
endfacet
facet normal 1 0 0
outer loop
vertex 19999.98 9523.800000000001 3619.07
vertex 19999.98 10153.130000000001 3999.9700000000003
vertex 19999.98 10077.99 3999.9700000000003
endloop
endfacet
facet normal 0.9999999999999999 0 0
outer loop
vertex 19999.98 9523.800000000001 3619.07
vertex 19999.98 10077.99 3999.9700000000003
vertex 19999.98 9999.99 3999.9700000000003
endloop
endfacet
facet normal 0.9999999999999999 0 0
outer loop
vertex 19999.98 9523.800000000001 3619.07
vertex 19999.98 9999.99 3999.9700000000003
vertex 19999.98 9921.99 3999.9700000000003
endloop
endfacet
facet normal 1 0 0
outer loop
vertex 19999.98 9523.800000000001 3619.07
vertex 19999.98 9921.99 3999.9700000000003
vertex 19999.98 9846.98 3999.9700000000003
endloop
endfacet
facet normal 1 0 0
outer loop
vertex 19999.98 9523.800000000001 3619.07
vertex 19999.98 9846.98 3999.9700000000003
vertex 19999.98 9777.82 3999.9700000000003
endloop
endfacet
facet normal 1 0 0
outer loop
vertex 19999.98 9523.800000000001 3619.07
vertex 19999.98 9777.82 3999.9700000000003
vertex 19999.98 9717.11 3999.9700000000003
endloop
endfacet
facet normal 1 0 0
outer loop
vertex 19999.98 9523.800000000001 3619.07
vertex 19999.98 9717.11 3999.9700000000003
vertex 19999.98 9667.45 3999.9700000000003
endloop
endfacet
facet normal 1 0 0
outer loop
vertex 19999.98 9523.800000000001 3619.07
vertex 19999.98 9667.45 3999.9700000000003
vertex 19999.98 9630.4 3999.9700000000003
endloop
endfacet
facet normal 1 0 0
outer loop
vertex 19999.98 9523.800000000001 3619.07
vertex 19999.98 9630.4 3999.9700000000003
vertex 19999.98 9607.65 3999.9700000000003
endloop
endfacet
facet normal 0.9999999999999999 0 0
outer loop
vertex 19999.98 9523.800000000001 3619.07
vertex 19999.98 9607.65 3999.9700000000003
vertex 19999.98 9599.98 3999.9700000000003
endloop
endfacet
facet normal 1 0 0
outer loop
vertex 19999.98 9523.800000000001 3619.07
vertex 19999.98 9599.98 3999.9700000000003
vertex 19999.98 0 3999.9700000000003
endloop
endfacet
facet normal 1 0 0
outer loop
vertex 19999.98 9523.800000000001 3619.07
vertex 19999.98 0 3999.9700000000003
vertex 19999.98 0 0
endloop
endfacet
facet normal 0 -1 0
outer loop
vertex 0 0 0
vertex 19999.98 0 0
vertex 19999.98 0 3999.9700000000003
endloop
endfacet
facet normal 0 -1 0
outer loop
vertex 0 0 0
vertex 19999.98 0 3999.9700000000003
vertex 0 0 3999.9700000000003
endloop
endfacet
facet normal 0 1 0
outer loop
vertex 0 15000.050000000001 0
vertex 0 15000.050000000001 3999.9700000000003
vertex 19999.98 15000.050000000001 3999.9700000000003
endloop
endfacet
facet normal 0 1 0
outer loop
vertex 0 15000.050000000001 0
vertex 19999.98 15000.050000000001 3999.9700000000003
vertex 19999.98 15000.050000000001 0
endloop
endfacet
facet normal 0 0 -1
outer loop
vertex 0 0 0
vertex 0 15000.050000000001 0
vertex 19999.98 15000.050000000001 0
endloop
endfacet
facet normal 0 0 -1
outer loop
vertex 0 0 0
vertex 19999.98 15000.050000000001 0
vertex 19999.98 0 0
endloop
endfacet
facet normal -0.9486874089354187 -0.31621543309491007 0
outer loop
vertex 2500.03 12500.02 599.95
vertex 2500.03 12500.02 199.94
vertex 3499.9900000000002 9500.01 199.94
endloop
endfacet
facet normal -0.9486874089354187 -0.31621543309491007 0
outer loop
vertex 2500.03 12500.02 599.95
vertex 3499.9900000000002 9500.01 199.94
vertex 3499.9900000000002 9500.01 599.95
endloop
endfacet
facet normal 0.8320392008331315 -0.5547168361217855 0
outer loop
vertex 1499.94 10999.95 599.95
vertex 1499.94 10999.95 199.94
vertex 2500.03 12500.02 199.94
endloop
endfacet
facet normal 0.8320392008331315 -0.5547168361217855 0
outer loop
vertex 1499.94 10999.95 599.95
vertex 2500.03 12500.02 199.94
vertex 2500.03 12500.02 599.95
endloop
endfacet
facet normal 0.9999999999999999 0 0
outer loop
vertex 1499.94 9000.03 599.95
vertex 1499.94 9000.03 199.94
vertex 1499.94 10999.95 199.94
endloop
endfacet
facet normal 0.9999999999999999 0 0
outer loop
vertex 1499.94 9000.03 599.95
vertex 1499.94 10999.95 199.94
vertex 1499.94 10999.95 599.95
endloop
endfacet
facet normal -0.24252078784863698 0.9701462093217067 0
outer loop
vertex 3499.9900000000002 9500.01 599.95
vertex 3499.9900000000002 9500.01 199.94
vertex 1499.94 9000.03 199.94
endloop
endfacet
facet normal -0.24252078784863698 0.9701462093217067 0
outer loop
vertex 3499.9900000000002 9500.01 599.95
vertex 1499.94 9000.03 199.94
vertex 1499.94 9000.03 599.95
endloop
endfacet
facet normal 0 0 -1
outer loop
vertex 3499.9900000000002 9500.01 599.95
vertex 1499.94 9000.03 599.95
vertex 1499.94 10999.95 599.95
endloop
endfacet
facet normal 0 0 -1
outer loop
vertex 3499.9900000000002 9500.01 599.95
vertex 1499.94 10999.95 599.95
vertex 2500.03 12500.02 599.95
endloop
endfacet
facet normal 0 0 -1
outer loop
vertex 5200 9999.99 599.95
vertex 5200 6999.9800000000005 599.95
vertex 4799.99 6999.9800000000005 599.95
endloop
endfacet
facet normal 0 0 -1
outer loop
vertex 5200 9999.99 599.95
vertex 4799.99 6999.9800000000005 599.95
vertex 4799.99 9999.99 599.95
endloop
endfacet
facet normal 0 0 -1
outer loop
vertex 2000.0500000000002 6999.9800000000005 599.95
vertex 2195.05 7980.83 599.95
vertex 2382.64 7923.89 599.95
endloop
endfacet
facet normal 0 0 -1
outer loop
vertex 2000.0500000000002 6999.9800000000005 599.95
vertex 2382.64 7923.89 599.95
vertex 2555.54 7831.46 599.95
endloop
endfacet
facet normal 0 0 -1
outer loop
vertex 2000.0500000000002 6999.9800000000005 599.95
vertex 2555.54 7831.46 599.95
vertex 2707.12 7707.05 599.95
endloop
endfacet
facet normal 0 0 -1
outer loop
vertex 2000.0500000000002 6999.9800000000005 599.95
vertex 2707.12 7707.05 599.95
vertex 2831.53 7555.6 599.95
endloop
endfacet
facet normal 0 0 -0.9999999999999999
outer loop
vertex 2000.0500000000002 6999.9800000000005 599.95
vertex 2831.53 7555.6 599.95
vertex 2923.83 7382.7 599.95
endloop
endfacet
facet normal 0 0 -1
outer loop
vertex 2000.0500000000002 6999.9800000000005 599.95
vertex 2923.83 7382.7 599.95
vertex 2980.77 7195.110000000001 599.95
endloop
endfacet
facet normal 0 0 -1
outer loop
vertex 2000.0500000000002 6999.9800000000005 599.95
vertex 2980.77 7195.110000000001 599.95
vertex 3000.01 6999.9800000000005 599.95
endloop
endfacet
facet normal 0 0 -1
outer loop
vertex 2000.0500000000002 6999.9800000000005 599.95
vertex 3000.01 6999.9800000000005 599.95
vertex 2980.77 6804.85 599.95
endloop
endfacet
facet normal 0 0 -1
outer loop
vertex 2000.0500000000002 6999.9800000000005 599.95
vertex 2980.77 6804.85 599.95
vertex 2923.83 6617.26 599.95
endloop
endfacet
facet normal 0 0 -0.9999999999999999
outer loop
vertex 2000.0500000000002 6999.9800000000005 599.95
vertex 2923.83 6617.26 599.95
vertex 2831.53 6444.49 599.95
endloop
endfacet
facet normal 0 0 -0.9999999999999999
outer loop
vertex 2000.0500000000002 6999.9800000000005 599.95
vertex 2831.53 6444.49 599.95
vertex 2707.12 6292.91 599.95
endloop
endfacet
facet normal 0 0 -1
outer loop
vertex 2000.0500000000002 6999.9800000000005 599.95
vertex 2707.12 6292.91 599.95
vertex 2555.54 6168.5 599.95
endloop
endfacet
facet normal 0 0 -1
outer loop
vertex 2000.0500000000002 6999.9800000000005 599.95
vertex 2555.54 6168.5 599.95
vertex 2382.64 6076.070000000001 599.95
endloop
endfacet
facet normal 0 0 -1
outer loop
vertex 2000.0500000000002 6999.9800000000005 599.95
vertex 2382.64 6076.070000000001 599.95
vertex 2195.05 6019.26 599.95
endloop
endfacet
facet normal 0 0 -1
outer loop
vertex 2000.0500000000002 6999.9800000000005 599.95
vertex 2195.05 6019.26 599.95
vertex 2000.0500000000002 6000.02 599.95
endloop
endfacet
facet normal 0 0 -1
outer loop
vertex 2000.0500000000002 6999.9800000000005 599.95
vertex 2000.0500000000002 6000.02 599.95
vertex 1804.92 6019.26 599.95
endloop
endfacet
facet normal 0 0 -1
outer loop
vertex 2000.0500000000002 6999.9800000000005 599.95
vertex 1804.92 6019.26 599.95
vertex 1617.3300000000002 6076.070000000001 599.95
endloop
endfacet
facet normal 0 0 -1
outer loop
vertex 2000.0500000000002 6999.9800000000005 599.95
vertex 1617.3300000000002 6076.070000000001 599.95
vertex 1444.43 6168.5 599.95
endloop
endfacet
facet normal 0 0 -1
outer loop
vertex 2000.0500000000002 6999.9800000000005 599.95
vertex 1444.43 6168.5 599.95
vertex 1292.8500000000001 6292.91 599.95
endloop
endfacet
facet normal 0 0 -1
outer loop
vertex 2000.0500000000002 6999.9800000000005 599.95
vertex 1292.8500000000001 6292.91 599.95
vertex 1168.57 6444.49 599.95
endloop
endfacet
facet normal 0 0 -1
outer loop
vertex 2000.0500000000002 6999.9800000000005 599.95
vertex 1168.57 6444.49 599.95
vertex 1076.14 6617.26 599.95
endloop
endfacet
facet normal 0 0 -1
outer loop
vertex 2000.0500000000002 6999.9800000000005 599.95
vertex 1076.14 6617.26 599.95
vertex 1019.2 6804.85 599.95
endloop
endfacet
facet normal 0 0 -1
outer loop
vertex 2000.0500000000002 6999.9800000000005 599.95
vertex 1019.2 6804.85 599.95
vertex 999.96 6999.9800000000005 599.95
endloop
endfacet
facet normal 0 0 -1
outer loop
vertex 2000.0500000000002 6999.9800000000005 599.95
vertex 999.96 6999.9800000000005 599.95
vertex 1019.2 7195.110000000001 599.95
endloop
endfacet
facet normal 0 0 -1
outer loop
vertex 2000.0500000000002 6999.9800000000005 599.95
vertex 1019.2 7195.110000000001 599.95
vertex 1076.14 7382.7 599.95
endloop
endfacet
facet normal 0 0 -1
outer loop
vertex 2000.0500000000002 6999.9800000000005 599.95
vertex 1076.14 7382.7 599.95
vertex 1168.57 7555.6 599.95
endloop
endfacet
facet normal 0 0 -1
outer loop
vertex 2000.0500000000002 6999.9800000000005 599.95
vertex 1168.57 7555.6 599.95
vertex 1292.8500000000001 7707.05 599.95
endloop
endfacet
facet normal 0 0 -1
outer loop
vertex 2000.0500000000002 6999.9800000000005 599.95
vertex 1292.8500000000001 7707.05 599.95
vertex 1444.43 7831.46 599.95
endloop
endfacet
facet normal 0 0 -1
outer loop
vertex 2000.0500000000002 6999.9800000000005 599.95
vertex 1444.43 7831.46 599.95
vertex 1617.3300000000002 7923.89 599.95
endloop
endfacet
facet normal 0 0 -0.9999999999999999
outer loop
vertex 2000.0500000000002 6999.9800000000005 599.95
vertex 1617.3300000000002 7923.89 599.95
vertex 1804.92 7980.83 599.95
endloop
endfacet
facet normal 0 0 -1
outer loop
vertex 2000.0500000000002 6999.9800000000005 599.95
vertex 1804.92 7980.83 599.95
vertex 2000.0500000000002 7999.9400000000005 599.95
endloop
endfacet
facet normal 0 0 -1
outer loop
vertex 2000.0500000000002 6999.9800000000005 599.95
vertex 2000.0500000000002 7999.9400000000005 599.95
vertex 2195.05 7980.83 599.95
endloop
endfacet
facet normal 0 0 1
outer loop
vertex 9999.99 9999.99 199.94
vertex 9960.99 10196.16 199.94
vertex 9923.42 10184.720000000001 199.94
endloop
endfacet
facet normal 0 0 1
outer loop
vertex 9999.99 9999.99 199.94
vertex 9923.42 10184.720000000001 199.94
vertex 9888.84 10166.26 199.94
endloop
endfacet
facet normal 0 0 1
outer loop
vertex 9999.99 9999.99 199.94
vertex 9888.84 10166.26 199.94
vertex 9858.550000000001 10141.43 199.94
endloop
endfacet
facet normal 0 0 1
outer loop
vertex 9999.99 9999.99 199.94
vertex 9858.550000000001 10141.43 199.94
vertex 9833.720000000001 10111.140000000001 199.94
endloop
endfacet
facet normal 0 0 0.9999999999999999
outer loop
vertex 9999.99 9999.99 199.94
vertex 9833.720000000001 10111.140000000001 199.94
vertex 9815.26 10076.56 199.94
endloop
endfacet
facet normal 0 0 1
outer loop
vertex 9999.99 9999.99 199.94
vertex 9815.26 10076.56 199.94
vertex 9803.82 10038.99 199.94
endloop
endfacet
facet normal 0 0 1
outer loop
vertex 9999.99 9999.99 199.94
vertex 9803.82 10038.99 199.94
vertex 9800.050000000001 9999.99 199.94
endloop
endfacet
facet normal 0 0 1
outer loop
vertex 9999.99 9999.99 199.94
vertex 9800.050000000001 9999.99 199.94
vertex 9803.82 9960.99 199.94
endloop
endfacet
facet normal 0 0 1
outer loop
vertex 9999.99 9999.99 199.94
vertex 9803.82 9960.99 199.94
vertex 9815.26 9923.42 199.94
endloop
endfacet
facet normal 0 0 0.9999999999999999
outer loop
vertex 9999.99 9999.99 199.94
vertex 9815.26 9923.42 199.94
vertex 9833.720000000001 9888.84 199.94
endloop
endfacet
facet normal 0 0 1
outer loop
vertex 9999.99 9999.99 199.94
vertex 9833.720000000001 9888.84 199.94
vertex 9858.550000000001 9858.550000000001 199.94
endloop
endfacet
facet normal 0 0 1
outer loop
vertex 9999.99 9999.99 199.94
vertex 9858.550000000001 9858.550000000001 199.94
vertex 9888.84 9833.720000000001 199.94
endloop
endfacet
facet normal 0 0 0.9999999999999999
outer loop
vertex 9999.99 9999.99 199.94
vertex 9888.84 9833.720000000001 199.94
vertex 9923.42 9815.26 199.94
endloop
endfacet
facet normal 0 0 1
outer loop
vertex 9999.99 9999.99 199.94
vertex 9923.42 9815.26 199.94
vertex 9960.99 9803.82 199.94
endloop
endfacet
facet normal 0 0 1
outer loop
vertex 9999.99 9999.99 199.94
vertex 9960.99 9803.82 199.94
vertex 9999.99 9800.050000000001 199.94
endloop
endfacet
facet normal 0 0 1
outer loop
vertex 9999.99 9999.99 199.94
vertex 9999.99 9800.050000000001 199.94
vertex 10038.99 9803.82 199.94
endloop
endfacet
facet normal 0 0 1
outer loop
vertex 9999.99 9999.99 199.94
vertex 10038.99 9803.82 199.94
vertex 10076.56 9815.26 199.94
endloop
endfacet
facet normal 0 0 0.9999999999999999
outer loop
vertex 9999.99 9999.99 199.94
vertex 10076.56 9815.26 199.94
vertex 10111.140000000001 9833.720000000001 199.94
endloop
endfacet
facet normal 0 0 1
outer loop
vertex 9999.99 9999.99 199.94
vertex 10111.140000000001 9833.720000000001 199.94
vertex 10141.43 9858.550000000001 199.94
endloop
endfacet
facet normal 0 0 1
outer loop
vertex 9999.99 9999.99 199.94
vertex 10141.43 9858.550000000001 199.94
vertex 10166.26 9888.84 199.94
endloop
endfacet
facet normal 0 0 1
outer loop
vertex 9999.99 9999.99 199.94
vertex 10166.26 9888.84 199.94
vertex 10184.720000000001 9923.42 199.94
endloop
endfacet
facet normal 0 0 1
outer loop
vertex 9999.99 9999.99 199.94
vertex 10184.720000000001 9923.42 199.94
vertex 10196.16 9960.99 199.94
endloop
endfacet
facet normal 0 0 1
outer loop
vertex 9999.99 9999.99 199.94
vertex 10196.16 9960.99 199.94
vertex 10200.06 9999.99 199.94
endloop
endfacet
facet normal 0 0 1
outer loop
vertex 9999.99 9999.99 199.94
vertex 10200.06 9999.99 199.94
vertex 10196.16 10038.99 199.94
endloop
endfacet
facet normal 0 0 1
outer loop
vertex 9999.99 9999.99 199.94
vertex 10196.16 10038.99 199.94
vertex 10184.720000000001 10076.56 199.94
endloop
endfacet
facet normal 0 0 1
outer loop
vertex 9999.99 9999.99 199.94
vertex 10184.720000000001 10076.56 199.94
vertex 10166.26 10111.140000000001 199.94
endloop
endfacet
facet normal 0 0 1
outer loop
vertex 9999.99 9999.99 199.94
vertex 10166.26 10111.140000000001 199.94
vertex 10141.43 10141.43 199.94
endloop
endfacet
facet normal 0 0 1
outer loop
vertex 9999.99 9999.99 199.94
vertex 10141.43 10141.43 199.94
vertex 10111.140000000001 10166.26 199.94
endloop
endfacet
facet normal 0 0 1
outer loop
vertex 9999.99 9999.99 199.94
vertex 10111.140000000001 10166.26 199.94
vertex 10076.56 10184.720000000001 199.94
endloop
endfacet
facet normal 0 0 1
outer loop
vertex 9999.99 9999.99 199.94
vertex 10076.56 10184.720000000001 199.94
vertex 10038.99 10196.16 199.94
endloop
endfacet
facet normal 0 0 1
outer loop
vertex 9999.99 9999.99 199.94
vertex 10038.99 10196.16 199.94
vertex 9999.99 10200.06 199.94
endloop
endfacet
facet normal 0 0 1
outer loop
vertex 9999.99 9999.99 199.94
vertex 9999.99 10200.06 199.94
vertex 9960.99 10196.16 199.94
endloop
endfacet
facet normal 0 0 1
outer loop
vertex 1499.94 10999.95 199.94
vertex 1499.94 9000.03 199.94
vertex 3499.9900000000002 9500.01 199.94
endloop
endfacet
facet normal 0 0 1
outer loop
vertex 1499.94 10999.95 199.94
vertex 3499.9900000000002 9500.01 199.94
vertex 2500.03 12500.02 199.94
endloop
endfacet
facet normal 0 0 1
outer loop
vertex 4799.99 9999.99 199.94
vertex 4799.99 6999.9800000000005 199.94
vertex 5200 6999.9800000000005 199.94
endloop
endfacet
facet normal 0 0 1
outer loop
vertex 4799.99 9999.99 199.94
vertex 5200 6999.9800000000005 199.94
vertex 5200 9999.99 199.94
endloop
endfacet
facet normal 0 0 0.9999999999999999
outer loop
vertex 2000.0500000000002 6999.9800000000005 199.94
vertex 1804.92 7980.83 199.94
vertex 1617.3300000000002 7923.89 199.94
endloop
endfacet
facet normal 0 0 1
outer loop
vertex 2000.0500000000002 6999.9800000000005 199.94
vertex 1617.3300000000002 7923.89 199.94
vertex 1444.43 7831.46 199.94
endloop
endfacet
facet normal 0 0 1
outer loop
vertex 2000.0500000000002 6999.9800000000005 199.94
vertex 1444.43 7831.46 199.94
vertex 1292.8500000000001 7707.05 199.94
endloop
endfacet
facet normal 0 0 1
outer loop
vertex 2000.0500000000002 6999.9800000000005 199.94
vertex 1292.8500000000001 7707.05 199.94
vertex 1168.57 7555.6 199.94
endloop
endfacet
facet normal 0 0 1
outer loop
vertex 2000.0500000000002 6999.9800000000005 199.94
vertex 1168.57 7555.6 199.94
vertex 1076.14 7382.7 199.94
endloop
endfacet
facet normal 0 0 1
outer loop
vertex 2000.0500000000002 6999.9800000000005 199.94
vertex 1076.14 7382.7 199.94
vertex 1019.2 7195.110000000001 199.94
endloop
endfacet
facet normal 0 0 1
outer loop
vertex 2000.0500000000002 6999.9800000000005 199.94
vertex 1019.2 7195.110000000001 199.94
vertex 999.96 6999.9800000000005 199.94
endloop
endfacet
facet normal 0 0 1
outer loop
vertex 2000.0500000000002 6999.9800000000005 199.94
vertex 999.96 6999.9800000000005 199.94
vertex 1019.2 6804.85 199.94
endloop
endfacet
facet normal 0 0 1
outer loop
vertex 2000.0500000000002 6999.9800000000005 199.94
vertex 1019.2 6804.85 199.94
vertex 1076.14 6617.26 199.94
endloop
endfacet
facet normal 0 0 1
outer loop
vertex 2000.0500000000002 6999.9800000000005 199.94
vertex 1076.14 6617.26 199.94
vertex 1168.57 6444.49 199.94
endloop
endfacet
facet normal 0 0 1
outer loop
vertex 2000.0500000000002 6999.9800000000005 199.94
vertex 1168.57 6444.49 199.94
vertex 1292.8500000000001 6292.91 199.94
endloop
endfacet
facet normal 0 0 1
outer loop
vertex 2000.0500000000002 6999.9800000000005 199.94
vertex 1292.8500000000001 6292.91 199.94
vertex 1444.43 6168.5 199.94
endloop
endfacet
facet normal 0 0 1
outer loop
vertex 2000.0500000000002 6999.9800000000005 199.94
vertex 1444.43 6168.5 199.94
vertex 1617.3300000000002 6076.070000000001 199.94
endloop
endfacet
facet normal 0 0 1
outer loop
vertex 2000.0500000000002 6999.9800000000005 199.94
vertex 1617.3300000000002 6076.070000000001 199.94
vertex 1804.92 6019.26 199.94
endloop
endfacet
facet normal 0 0 1
outer loop
vertex 2000.0500000000002 6999.9800000000005 199.94
vertex 1804.92 6019.26 199.94
vertex 2000.0500000000002 6000.02 199.94
endloop
endfacet
facet normal 0 0 1
outer loop
vertex 2000.0500000000002 6999.9800000000005 199.94
vertex 2000.0500000000002 6000.02 199.94
vertex 2195.05 6019.26 199.94
endloop
endfacet
facet normal 0 0 1
outer loop
vertex 2000.0500000000002 6999.9800000000005 199.94
vertex 2195.05 6019.26 199.94
vertex 2382.64 6076.070000000001 199.94
endloop
endfacet
facet normal 0 0 1
outer loop
vertex 2000.0500000000002 6999.9800000000005 199.94
vertex 2382.64 6076.070000000001 199.94
vertex 2555.54 6168.5 199.94
endloop
endfacet
facet normal 0 0 1
outer loop
vertex 2000.0500000000002 6999.9800000000005 199.94
vertex 2555.54 6168.5 199.94
vertex 2707.12 6292.91 199.94
endloop
endfacet
facet normal 0 0 0.9999999999999999
outer loop
vertex 2000.0500000000002 6999.9800000000005 199.94
vertex 2707.12 6292.91 199.94
vertex 2831.53 6444.49 199.94
endloop
endfacet
facet normal 0 0 0.9999999999999999
outer loop
vertex 2000.0500000000002 6999.9800000000005 199.94
vertex 2831.53 6444.49 199.94
vertex 2923.83 6617.26 199.94
endloop
endfacet
facet normal 0 0 1
outer loop
vertex 2000.0500000000002 6999.9800000000005 199.94
vertex 2923.83 6617.26 199.94
vertex 2980.77 6804.85 199.94
endloop
endfacet
facet normal 0 0 1
outer loop
vertex 2000.0500000000002 6999.9800000000005 199.94
vertex 2980.77 6804.85 199.94
vertex 3000.01 6999.9800000000005 199.94
endloop
endfacet
facet normal 0 0 1
outer loop
vertex 2000.0500000000002 6999.9800000000005 199.94
vertex 3000.01 6999.9800000000005 199.94
vertex 2980.77 7195.110000000001 199.94
endloop
endfacet
facet normal 0 0 1
outer loop
vertex 2000.0500000000002 6999.9800000000005 199.94
vertex 2980.77 7195.110000000001 199.94
vertex 2923.83 7382.7 199.94
endloop
endfacet
facet normal 0 0 0.9999999999999999
outer loop
vertex 2000.0500000000002 6999.9800000000005 199.94
vertex 2923.83 7382.7 199.94
vertex 2831.53 7555.6 199.94
endloop
endfacet
facet normal 0 0 1
outer loop
vertex 2000.0500000000002 6999.9800000000005 199.94
vertex 2831.53 7555.6 199.94
vertex 2707.12 7707.05 199.94
endloop
endfacet
facet normal 0 0 1
outer loop
vertex 2000.0500000000002 6999.9800000000005 199.94
vertex 2707.12 7707.05 199.94
vertex 2555.54 7831.46 199.94
endloop
endfacet
facet normal 0 0 1
outer loop
vertex 2000.0500000000002 6999.9800000000005 199.94
vertex 2555.54 7831.46 199.94
vertex 2382.64 7923.89 199.94
endloop
endfacet
facet normal 0 0 1
outer loop
vertex 2000.0500000000002 6999.9800000000005 199.94
vertex 2382.64 7923.89 199.94
vertex 2195.05 7980.83 199.94
endloop
endfacet
facet normal 0 0 1
outer loop
vertex 2000.0500000000002 6999.9800000000005 199.94
vertex 2195.05 7980.83 199.94
vertex 2000.0500000000002 7999.9400000000005 199.94
endloop
endfacet
facet normal 0 0 1
outer loop
vertex 2000.0500000000002 6999.9800000000005 199.94
vertex 2000.0500000000002 7999.9400000000005 199.94
vertex 1804.92 7980.83 199.94
endloop
endfacet
facet normal -0.9951740883188327 -0.09812509331858026 0
outer loop
vertex 3000.01 6999.9800000000005 199.94
vertex 3000.01 6999.9800000000005 599.95
vertex 2980.77 7195.110000000001 599.95
endloop
endfacet
facet normal -0.9951740883188327 -0.09812509331858026 0
outer loop
vertex 3000.01 6999.9800000000005 199.94
vertex 2980.77 7195.110000000001 599.95
vertex 2980.77 7195.110000000001 199.94
endloop
endfacet
facet normal -0.9568904503710991 -0.29044907641201906 0
outer loop
vertex 2980.77 7195.110000000001 199.94
vertex 2980.77 7195.110000000001 599.95
vertex 2923.83 7382.7 599.95
endloop
endfacet
facet normal -0.9568904503710991 -0.29044907641201906 0
outer loop
vertex 2980.77 7195.110000000001 199.94
vertex 2923.83 7382.7 599.95
vertex 2923.83 7382.7 199.94
endloop
endfacet
facet normal -0.8821692656664071 -0.47093246513018433 0
outer loop
vertex 2923.83 7382.7 199.94
vertex 2923.83 7382.7 599.95
vertex 2831.53 7555.6 599.95
endloop
endfacet
facet normal -0.8821692656664071 -0.47093246513018433 0
outer loop
vertex 2923.83 7382.7 199.94
vertex 2831.53 7555.6 599.95
vertex 2831.53 7555.6 199.94
endloop
endfacet
facet normal -0.7727146357282957 -0.6347535677184393 0
outer loop
vertex 2831.53 7555.6 199.94
vertex 2831.53 7555.6 599.95
vertex 2707.12 7707.05 599.95
endloop
endfacet
facet normal -0.7727146357282957 -0.6347535677184393 0
outer loop
vertex 2831.53 7555.6 199.94
vertex 2707.12 7707.05 599.95
vertex 2707.12 7707.05 199.94
endloop
endfacet
facet normal -0.634428353152008 -0.77298167165647 0
outer loop
vertex 2707.12 7707.05 199.94
vertex 2707.12 7707.05 599.95
vertex 2555.54 7831.46 599.95
endloop
endfacet
facet normal -0.634428353152008 -0.77298167165647 0
outer loop
vertex 2707.12 7707.05 199.94
vertex 2555.54 7831.46 599.95
vertex 2555.54 7831.46 199.94
endloop
endfacet
facet normal -0.4714484068002906 -0.8818936442255765 0
outer loop
vertex 2555.54 7831.46 199.94
vertex 2555.54 7831.46 599.95
vertex 2382.64 7923.89 599.95
endloop
endfacet
facet normal -0.4714484068002906 -0.8818936442255765 0
outer loop
vertex 2555.54 7831.46 199.94
vertex 2382.64 7923.89 599.95
vertex 2382.64 7923.89 199.94
endloop
endfacet
facet normal -0.29044907641201634 -0.9568904503711 0
outer loop
vertex 2382.64 7923.89 199.94
vertex 2382.64 7923.89 599.95
vertex 2195.05 7980.83 599.95
endloop
endfacet
facet normal -0.29044907641201634 -0.9568904503711 0
outer loop
vertex 2382.64 7923.89 199.94
vertex 2195.05 7980.83 599.95
vertex 2195.05 7980.83 199.94
endloop
endfacet
facet normal -0.09753276680009257 -0.9952323142866286 0
outer loop
vertex 2195.05 7980.83 199.94
vertex 2195.05 7980.83 599.95
vertex 2000.0500000000002 7999.9400000000005 599.95
endloop
endfacet
facet normal -0.09753276680009257 -0.9952323142866286 0
outer loop
vertex 2195.05 7980.83 199.94
vertex 2000.0500000000002 7999.9400000000005 599.95
vertex 2000.0500000000002 7999.9400000000005 199.94
endloop
endfacet
facet normal 0.09746840578023594 -0.9952386195655087 0
outer loop
vertex 2000.0500000000002 7999.9400000000005 199.94
vertex 2000.0500000000002 7999.9400000000005 599.95
vertex 1804.92 7980.83 599.95
endloop
endfacet
facet normal 0.09746840578023594 -0.9952386195655087 0
outer loop
vertex 2000.0500000000002 7999.9400000000005 199.94
vertex 1804.92 7980.83 599.95
vertex 1804.92 7980.83 199.94
endloop
endfacet
facet normal 0.29044907641201606 -0.9568904503711002 0
outer loop
vertex 1804.92 7980.83 199.94
vertex 1804.92 7980.83 599.95
vertex 1617.3300000000002 7923.89 599.95
endloop
endfacet
facet normal 0.29044907641201606 -0.9568904503711002 0
outer loop
vertex 1804.92 7980.83 199.94
vertex 1617.3300000000002 7923.89 599.95
vertex 1617.3300000000002 7923.89 199.94
endloop
endfacet
facet normal 0.4714484068002906 -0.8818936442255765 0
outer loop
vertex 1617.3300000000002 7923.89 199.94
vertex 1617.3300000000002 7923.89 599.95
vertex 1444.43 7831.46 599.95
endloop
endfacet
facet normal 0.4714484068002906 -0.8818936442255765 0
outer loop
vertex 1617.3300000000002 7923.89 199.94
vertex 1444.43 7831.46 599.95
vertex 1444.43 7831.46 199.94
endloop
endfacet
facet normal 0.634428353152008 -0.77298167165647 0
outer loop
vertex 1444.43 7831.46 199.94
vertex 1444.43 7831.46 599.95
vertex 1292.8500000000001 7707.05 599.95
endloop
endfacet
facet normal 0.634428353152008 -0.77298167165647 0
outer loop
vertex 1444.43 7831.46 199.94
vertex 1292.8500000000001 7707.05 599.95
vertex 1292.8500000000001 7707.05 199.94
endloop
endfacet
facet normal 0.7730399961841107 -0.6343572844223279 0
outer loop
vertex 1292.8500000000001 7707.05 199.94
vertex 1292.8500000000001 7707.05 599.95
vertex 1168.57 7555.6 599.95
endloop
endfacet
facet normal 0.7730399961841107 -0.6343572844223279 0
outer loop
vertex 1292.8500000000001 7707.05 199.94
vertex 1168.57 7555.6 599.95
vertex 1168.57 7555.6 199.94
endloop
endfacet
facet normal 0.881893644225578 -0.47144840680028793 0
outer loop
vertex 1168.57 7555.6 199.94
vertex 1168.57 7555.6 599.95
vertex 1076.14 7382.7 599.95
endloop
endfacet
facet normal 0.881893644225578 -0.47144840680028793 0
outer loop
vertex 1168.57 7555.6 199.94
vertex 1076.14 7382.7 599.95
vertex 1076.14 7382.7 199.94
endloop
endfacet
facet normal 0.9568904503710991 -0.29044907641201906 0
outer loop
vertex 1076.14 7382.7 199.94
vertex 1076.14 7382.7 599.95
vertex 1019.2 7195.110000000001 599.95
endloop
endfacet
facet normal 0.9568904503710991 -0.29044907641201906 0
outer loop
vertex 1076.14 7382.7 199.94
vertex 1019.2 7195.110000000001 599.95
vertex 1019.2 7195.110000000001 199.94
endloop
endfacet
facet normal 0.9951740883188329 -0.0981250933185791 0
outer loop
vertex 1019.2 7195.110000000001 199.94
vertex 1019.2 7195.110000000001 599.95
vertex 999.96 6999.9800000000005 599.95
endloop
endfacet
facet normal 0.9951740883188329 -0.0981250933185791 0
outer loop
vertex 1019.2 7195.110000000001 199.94
vertex 999.96 6999.9800000000005 599.95
vertex 999.96 6999.9800000000005 199.94
endloop
endfacet
facet normal 0.9951740883188329 0.0981250933185791 0
outer loop
vertex 999.96 6999.9800000000005 199.94
vertex 999.96 6999.9800000000005 599.95
vertex 1019.2 6804.85 599.95
endloop
endfacet
facet normal 0.9951740883188329 0.0981250933185791 0
outer loop
vertex 999.96 6999.9800000000005 199.94
vertex 1019.2 6804.85 599.95
vertex 1019.2 6804.85 199.94
endloop
endfacet
facet normal 0.9568904503710995 0.2904490764120178 0
outer loop
vertex 1019.2 6804.85 199.94
vertex 1019.2 6804.85 599.95
vertex 1076.14 6617.26 599.95
endloop
endfacet
facet normal 0.9568904503710995 0.2904490764120178 0
outer loop
vertex 1019.2 6804.85 199.94
vertex 1076.14 6617.26 599.95
vertex 1076.14 6617.26 199.94
endloop
endfacet
facet normal 0.8817461367722454 0.47172423118514967 0
outer loop
vertex 1076.14 6617.26 199.94
vertex 1076.14 6617.26 599.95
vertex 1168.57 6444.49 599.95
endloop
endfacet
facet normal 0.8817461367722454 0.47172423118514967 0
outer loop
vertex 1076.14 6617.26 199.94
vertex 1168.57 6444.49 599.95
vertex 1168.57 6444.49 199.94
endloop
endfacet
facet normal 0.773306810915277 0.6340319993439163 0
outer loop
vertex 1168.57 6444.49 199.94
vertex 1168.57 6444.49 599.95
vertex 1292.8500000000001 6292.91 599.95
endloop
endfacet
facet normal 0.773306810915277 0.6340319993439163 0
outer loop
vertex 1168.57 6444.49 199.94
vertex 1292.8500000000001 6292.91 599.95
vertex 1292.8500000000001 6292.91 199.94
endloop
endfacet
facet normal 0.634428353152008 0.77298167165647 0
outer loop
vertex 1292.8500000000001 6292.91 199.94
vertex 1292.8500000000001 6292.91 599.95
vertex 1444.43 6168.5 599.95
endloop
endfacet
facet normal 0.634428353152008 0.77298167165647 0
outer loop
vertex 1292.8500000000001 6292.91 199.94
vertex 1444.43 6168.5 599.95
vertex 1444.43 6168.5 199.94
endloop
endfacet
facet normal 0.47144840680028705 0.8818936442255785 0
outer loop
vertex 1444.43 6168.5 199.94
vertex 1444.43 6168.5 599.95
vertex 1617.3300000000002 6076.070000000001 599.95
endloop
endfacet
facet normal 0.47144840680028705 0.8818936442255785 0
outer loop
vertex 1444.43 6168.5 199.94
vertex 1617.3300000000002 6076.070000000001 599.95
vertex 1617.3300000000002 6076.070000000001 199.94
endloop
endfacet
facet normal 0.28984171705421347 0.9570745943002902 0
outer loop
vertex 1617.3300000000002 6076.070000000001 199.94
vertex 1617.3300000000002 6076.070000000001 599.95
vertex 1804.92 6019.26 599.95
endloop
endfacet
facet normal 0.28984171705421347 0.9570745943002902 0
outer loop
vertex 1617.3300000000002 6076.070000000001 199.94
vertex 1804.92 6019.26 599.95
vertex 1804.92 6019.26 199.94
endloop
endfacet
facet normal 0.09812509331857795 0.9951740883188329 0
outer loop
vertex 1804.92 6019.26 199.94
vertex 1804.92 6019.26 599.95
vertex 2000.0500000000002 6000.02 599.95
endloop
endfacet
facet normal 0.09812509331857795 0.9951740883188329 0
outer loop
vertex 1804.92 6019.26 199.94
vertex 2000.0500000000002 6000.02 599.95
vertex 2000.0500000000002 6000.02 199.94
endloop
endfacet
facet normal -0.09818987955632845 0.9951676982060429 0
outer loop
vertex 2000.0500000000002 6000.02 199.94
vertex 2000.0500000000002 6000.02 599.95
vertex 2195.05 6019.26 599.95
endloop
endfacet
facet normal -0.09818987955632845 0.9951676982060429 0
outer loop
vertex 2000.0500000000002 6000.02 199.94
vertex 2195.05 6019.26 599.95
vertex 2195.05 6019.26 199.94
endloop
endfacet
facet normal -0.28984171705421374 0.9570745943002901 0
outer loop
vertex 2195.05 6019.26 199.94
vertex 2195.05 6019.26 599.95
vertex 2382.64 6076.070000000001 599.95
endloop
endfacet
facet normal -0.28984171705421374 0.9570745943002901 0
outer loop
vertex 2195.05 6019.26 199.94
vertex 2382.64 6076.070000000001 599.95
vertex 2382.64 6076.070000000001 199.94
endloop
endfacet
facet normal -0.47144840680028705 0.8818936442255785 0
outer loop
vertex 2382.64 6076.070000000001 199.94
vertex 2382.64 6076.070000000001 599.95
vertex 2555.54 6168.5 599.95
endloop
endfacet
facet normal -0.47144840680028705 0.8818936442255785 0
outer loop
vertex 2382.64 6076.070000000001 199.94
vertex 2555.54 6168.5 599.95
vertex 2555.54 6168.5 199.94
endloop
endfacet
facet normal -0.634428353152008 0.77298167165647 0
outer loop
vertex 2555.54 6168.5 199.94
vertex 2555.54 6168.5 599.95
vertex 2707.12 6292.91 599.95
endloop
endfacet
facet normal -0.634428353152008 0.77298167165647 0
outer loop
vertex 2555.54 6168.5 199.94
vertex 2707.12 6292.91 599.95
vertex 2707.12 6292.91 199.94
endloop
endfacet
facet normal -0.7729816716564689 0.6344283531520094 0
outer loop
vertex 2707.12 6292.91 199.94
vertex 2707.12 6292.91 599.95
vertex 2831.53 6444.49 599.95
endloop
endfacet
facet normal -0.7729816716564689 0.6344283531520094 0
outer loop
vertex 2707.12 6292.91 199.94
vertex 2831.53 6444.49 599.95
vertex 2831.53 6444.49 199.94
endloop
endfacet
facet normal -0.8820220348125531 0.47120816005787003 0
outer loop
vertex 2831.53 6444.49 199.94
vertex 2831.53 6444.49 599.95
vertex 2923.83 6617.26 599.95
endloop
endfacet
facet normal -0.8820220348125531 0.47120816005787003 0
outer loop
vertex 2831.53 6444.49 199.94
vertex 2923.83 6617.26 599.95
vertex 2923.83 6617.26 199.94
endloop
endfacet
facet normal -0.9568904503710995 0.2904490764120178 0
outer loop
vertex 2923.83 6617.26 199.94
vertex 2923.83 6617.26 599.95
vertex 2980.77 6804.85 599.95
endloop
endfacet
facet normal -0.9568904503710995 0.2904490764120178 0
outer loop
vertex 2923.83 6617.26 199.94
vertex 2980.77 6804.85 599.95
vertex 2980.77 6804.85 199.94
endloop
endfacet
facet normal -0.9951740883188327 0.09812509331858026 0
outer loop
vertex 2980.77 6804.85 199.94
vertex 2980.77 6804.85 599.95
vertex 3000.01 6999.9800000000005 599.95
endloop
endfacet
facet normal -0.9951740883188327 0.09812509331858026 0
outer loop
vertex 2980.77 6804.85 199.94
vertex 3000.01 6999.9800000000005 599.95
vertex 3000.01 6999.9800000000005 199.94
endloop
endfacet
facet normal 0 -1 0
outer loop
vertex 5200 9999.99 199.94
vertex 5200 9999.99 599.95
vertex 4799.99 9999.99 599.95
endloop
endfacet
facet normal 0 -1 0
outer loop
vertex 5200 9999.99 199.94
vertex 4799.99 9999.99 599.95
vertex 4799.99 9999.99 199.94
endloop
endfacet
facet normal 0 1 0
outer loop
vertex 4799.99 6999.9800000000005 599.95
vertex 5200 6999.9800000000005 599.95
vertex 5200 6999.9800000000005 199.94
endloop
endfacet
facet normal 0 1 0
outer loop
vertex 4799.99 6999.9800000000005 599.95
vertex 5200 6999.9800000000005 199.94
vertex 4799.99 6999.9800000000005 199.94
endloop
endfacet
facet normal 1 0 0
outer loop
vertex 4799.99 9999.99 599.95
vertex 4799.99 6999.9800000000005 599.95
vertex 4799.99 6999.9800000000005 199.94
endloop
endfacet
facet normal 1 0 0
outer loop
vertex 4799.99 9999.99 599.95
vertex 4799.99 6999.9800000000005 199.94
vertex 4799.99 9999.99 199.94
endloop
endfacet
facet normal -1 0 0
outer loop
vertex 5200 6999.9800000000005 199.94
vertex 5200 6999.9800000000005 599.95
vertex 5200 9999.99 599.95
endloop
endfacet
facet normal -1 0 0
outer loop
vertex 5200 6999.9800000000005 199.94
vertex 5200 9999.99 599.95
vertex 5200 9999.99 199.94
endloop
endfacet
facet normal -0.9950371902099902 -0.09950371902098974 0
outer loop
vertex 10200.06 9999.99 199.94
vertex 10200.06 9999.99 3800.03
vertex 10196.16 10038.99 3800.03
endloop
endfacet
facet normal -0.9950371902099902 -0.09950371902098974 0
outer loop
vertex 10200.06 9999.99 199.94
vertex 10196.16 10038.99 3800.03
vertex 10196.16 10038.99 199.94
endloop
endfacet
facet normal -0.956633783021124 -0.29129333185415196 0
outer loop
vertex 10196.16 10038.99 199.94
vertex 10196.16 10038.99 3800.03
vertex 10184.720000000001 10076.56 3800.03
endloop
endfacet
facet normal -0.956633783021124 -0.29129333185415196 0
outer loop
vertex 10196.16 10038.99 199.94
vertex 10184.720000000001 10076.56 3800.03
vertex 10184.720000000001 10076.56 199.94
endloop
endfacet
facet normal -0.8821692656664055 -0.4709324651301868 0
outer loop
vertex 10184.720000000001 10076.56 199.94
vertex 10184.720000000001 10076.56 3800.03
vertex 10166.26 10111.140000000001 3800.03
endloop
endfacet
facet normal -0.8821692656664055 -0.4709324651301868 0
outer loop
vertex 10184.720000000001 10076.56 199.94
vertex 10166.26 10111.140000000001 3800.03
vertex 10166.26 10111.140000000001 199.94
endloop
endfacet
facet normal -0.7733654271742612 -0.6339605003875024 0
outer loop
vertex 10166.26 10111.140000000001 199.94
vertex 10166.26 10111.140000000001 3800.03
vertex 10141.43 10141.43 3800.03
endloop
endfacet
facet normal -0.7733654271742612 -0.6339605003875024 0
outer loop
vertex 10166.26 10111.140000000001 199.94
vertex 10141.43 10141.43 3800.03
vertex 10141.43 10141.43 199.94
endloop
endfacet
facet normal -0.6339605003875024 -0.7733654271742612 0
outer loop
vertex 10141.43 10141.43 199.94
vertex 10141.43 10141.43 3800.03
vertex 10111.140000000001 10166.26 3800.03
endloop
endfacet
facet normal -0.6339605003875024 -0.7733654271742612 0
outer loop
vertex 10141.43 10141.43 199.94
vertex 10111.140000000001 10166.26 3800.03
vertex 10111.140000000001 10166.26 199.94
endloop
endfacet
facet normal -0.4709324651301868 -0.8821692656664055 0
outer loop
vertex 10111.140000000001 10166.26 199.94
vertex 10111.140000000001 10166.26 3800.03
vertex 10076.56 10184.720000000001 3800.03
endloop
endfacet
facet normal -0.4709324651301868 -0.8821692656664055 0
outer loop
vertex 10111.140000000001 10166.26 199.94
vertex 10076.56 10184.720000000001 3800.03
vertex 10076.56 10184.720000000001 199.94
endloop
endfacet
facet normal -0.29129333185415196 -0.956633783021124 0
outer loop
vertex 10076.56 10184.720000000001 199.94
vertex 10076.56 10184.720000000001 3800.03
vertex 10038.99 10196.16 3800.03
endloop
endfacet
facet normal -0.29129333185415196 -0.956633783021124 0
outer loop
vertex 10076.56 10184.720000000001 199.94
vertex 10038.99 10196.16 3800.03
vertex 10038.99 10196.16 199.94
endloop
endfacet
facet normal -0.09950371902098974 -0.9950371902099902 0
outer loop
vertex 10038.99 10196.16 199.94
vertex 10038.99 10196.16 3800.03
vertex 9999.99 10200.06 3800.03
endloop
endfacet
facet normal -0.09950371902098974 -0.9950371902099902 0
outer loop
vertex 10038.99 10196.16 199.94
vertex 9999.99 10200.06 3800.03
vertex 9999.99 10200.06 199.94
endloop
endfacet
facet normal 0.09950371902098974 -0.9950371902099902 0
outer loop
vertex 9999.99 10200.06 199.94
vertex 9999.99 10200.06 3800.03
vertex 9960.99 10196.16 3800.03
endloop
endfacet
facet normal 0.09950371902098974 -0.9950371902099902 0
outer loop
vertex 9999.99 10200.06 199.94
vertex 9960.99 10196.16 3800.03
vertex 9960.99 10196.16 199.94
endloop
endfacet
facet normal 0.29129333185415196 -0.956633783021124 0
outer loop
vertex 9960.99 10196.16 199.94
vertex 9960.99 10196.16 3800.03
vertex 9923.42 10184.720000000001 3800.03
endloop
endfacet
facet normal 0.29129333185415196 -0.956633783021124 0
outer loop
vertex 9960.99 10196.16 199.94
vertex 9923.42 10184.720000000001 3800.03
vertex 9923.42 10184.720000000001 199.94
endloop
endfacet
facet normal 0.47093246513020603 -0.8821692656663953 0
outer loop
vertex 9923.42 10184.720000000001 199.94
vertex 9923.42 10184.720000000001 3800.03
vertex 9888.84 10166.26 3800.03
endloop
endfacet
facet normal 0.47093246513020603 -0.8821692656663953 0
outer loop
vertex 9923.42 10184.720000000001 199.94
vertex 9888.84 10166.26 3800.03
vertex 9888.84 10166.26 199.94
endloop
endfacet
facet normal 0.6339605003875024 -0.7733654271742612 0
outer loop
vertex 9888.84 10166.26 199.94
vertex 9888.84 10166.26 3800.03
vertex 9858.550000000001 10141.43 3800.03
endloop
endfacet
facet normal 0.6339605003875024 -0.7733654271742612 0
outer loop
vertex 9888.84 10166.26 199.94
vertex 9858.550000000001 10141.43 3800.03
vertex 9858.550000000001 10141.43 199.94
endloop
endfacet
facet normal 0.7733654271742612 -0.6339605003875024 0
outer loop
vertex 9858.550000000001 10141.43 199.94
vertex 9858.550000000001 10141.43 3800.03
vertex 9833.720000000001 10111.140000000001 3800.03
endloop
endfacet
facet normal 0.7733654271742612 -0.6339605003875024 0
outer loop
vertex 9858.550000000001 10141.43 199.94
vertex 9833.720000000001 10111.140000000001 3800.03
vertex 9833.720000000001 10111.140000000001 199.94
endloop
endfacet
facet normal 0.8821692656664055 -0.4709324651301868 0
outer loop
vertex 9833.720000000001 10111.140000000001 199.94
vertex 9833.720000000001 10111.140000000001 3800.03
vertex 9815.26 10076.56 3800.03
endloop
endfacet
facet normal 0.8821692656664055 -0.4709324651301868 0
outer loop
vertex 9833.720000000001 10111.140000000001 199.94
vertex 9815.26 10076.56 3800.03
vertex 9815.26 10076.56 199.94
endloop
endfacet
facet normal 0.9566337830211111 -0.29129333185419437 0
outer loop
vertex 9815.26 10076.56 199.94
vertex 9815.26 10076.56 3800.03
vertex 9803.82 10038.99 3800.03
endloop
endfacet
facet normal 0.9566337830211111 -0.29129333185419437 0
outer loop
vertex 9815.26 10076.56 199.94
vertex 9803.82 10038.99 3800.03
vertex 9803.82 10038.99 199.94
endloop
endfacet
facet normal 0.9953602693534118 -0.09621815937079452 0
outer loop
vertex 9803.82 10038.99 199.94
vertex 9803.82 10038.99 3800.03
vertex 9800.050000000001 9999.99 3800.03
endloop
endfacet
facet normal 0.9953602693534118 -0.09621815937079452 0
outer loop
vertex 9803.82 10038.99 199.94
vertex 9800.050000000001 9999.99 3800.03
vertex 9800.050000000001 9999.99 199.94
endloop
endfacet
facet normal 0.9953602693534118 0.09621815937079452 0
outer loop
vertex 9800.050000000001 9999.99 199.94
vertex 9800.050000000001 9999.99 3800.03
vertex 9803.82 9960.99 3800.03
endloop
endfacet
facet normal 0.9953602693534118 0.09621815937079452 0
outer loop
vertex 9800.050000000001 9999.99 199.94
vertex 9803.82 9960.99 3800.03
vertex 9803.82 9960.99 199.94
endloop
endfacet
facet normal 0.9566337830211111 0.29129333185419437 0
outer loop
vertex 9803.82 9960.99 199.94
vertex 9803.82 9960.99 3800.03
vertex 9815.26 9923.42 3800.03
endloop
endfacet
facet normal 0.9566337830211111 0.29129333185419437 0
outer loop
vertex 9803.82 9960.99 199.94
vertex 9815.26 9923.42 3800.03
vertex 9815.26 9923.42 199.94
endloop
endfacet
facet normal 0.8821692656663953 0.47093246513020603 0
outer loop
vertex 9815.26 9923.42 199.94
vertex 9815.26 9923.42 3800.03
vertex 9833.720000000001 9888.84 3800.03
endloop
endfacet
facet normal 0.8821692656663953 0.47093246513020603 0
outer loop
vertex 9815.26 9923.42 199.94
vertex 9833.720000000001 9888.84 3800.03
vertex 9833.720000000001 9888.84 199.94
endloop
endfacet
facet normal 0.7733654271742612 0.6339605003875024 0
outer loop
vertex 9833.720000000001 9888.84 199.94
vertex 9833.720000000001 9888.84 3800.03
vertex 9858.550000000001 9858.550000000001 3800.03
endloop
endfacet
facet normal 0.7733654271742612 0.6339605003875024 0
outer loop
vertex 9833.720000000001 9888.84 199.94
vertex 9858.550000000001 9858.550000000001 3800.03
vertex 9858.550000000001 9858.550000000001 199.94
endloop
endfacet
facet normal 0.6339605003875024 0.7733654271742612 0
outer loop
vertex 9858.550000000001 9858.550000000001 199.94
vertex 9858.550000000001 9858.550000000001 3800.03
vertex 9888.84 9833.720000000001 3800.03
endloop
endfacet
facet normal 0.6339605003875024 0.7733654271742612 0
outer loop
vertex 9858.550000000001 9858.550000000001 199.94
vertex 9888.84 9833.720000000001 3800.03
vertex 9888.84 9833.720000000001 199.94
endloop
endfacet
facet normal 0.47093246513020603 0.8821692656663953 0
outer loop
vertex 9888.84 9833.720000000001 199.94
vertex 9888.84 9833.720000000001 3800.03
vertex 9923.42 9815.26 3800.03
endloop
endfacet
facet normal 0.47093246513020603 0.8821692656663953 0
outer loop
vertex 9888.84 9833.720000000001 199.94
vertex 9923.42 9815.26 3800.03
vertex 9923.42 9815.26 199.94
endloop
endfacet
facet normal 0.29129333185419437 0.9566337830211111 0
outer loop
vertex 9923.42 9815.26 199.94
vertex 9923.42 9815.26 3800.03
vertex 9960.99 9803.82 3800.03
endloop
endfacet
facet normal 0.29129333185419437 0.9566337830211111 0
outer loop
vertex 9923.42 9815.26 199.94
vertex 9960.99 9803.82 3800.03
vertex 9960.99 9803.82 199.94
endloop
endfacet
facet normal 0.09621815937079452 0.9953602693534118 0
outer loop
vertex 9960.99 9803.82 199.94
vertex 9960.99 9803.82 3800.03
vertex 9999.99 9800.050000000001 3800.03
endloop
endfacet
facet normal 0.09621815937079452 0.9953602693534118 0
outer loop
vertex 9960.99 9803.82 199.94
vertex 9999.99 9800.050000000001 3800.03
vertex 9999.99 9800.050000000001 199.94
endloop
endfacet
facet normal -0.09621815937079452 0.9953602693534118 0
outer loop
vertex 9999.99 9800.050000000001 199.94
vertex 9999.99 9800.050000000001 3800.03
vertex 10038.99 9803.82 3800.03
endloop
endfacet
facet normal -0.09621815937079452 0.9953602693534118 0
outer loop
vertex 9999.99 9800.050000000001 199.94
vertex 10038.99 9803.82 3800.03
vertex 10038.99 9803.82 199.94
endloop
endfacet
facet normal -0.29129333185419437 0.9566337830211111 0
outer loop
vertex 10038.99 9803.82 199.94
vertex 10038.99 9803.82 3800.03
vertex 10076.56 9815.26 3800.03
endloop
endfacet
facet normal -0.29129333185419437 0.9566337830211111 0
outer loop
vertex 10038.99 9803.82 199.94
vertex 10076.56 9815.26 3800.03
vertex 10076.56 9815.26 199.94
endloop
endfacet
facet normal -0.4709324651301868 0.8821692656664055 0
outer loop
vertex 10076.56 9815.26 199.94
vertex 10076.56 9815.26 3800.03
vertex 10111.140000000001 9833.720000000001 3800.03
endloop
endfacet
facet normal -0.4709324651301868 0.8821692656664055 0
outer loop
vertex 10076.56 9815.26 199.94
vertex 10111.140000000001 9833.720000000001 3800.03
vertex 10111.140000000001 9833.720000000001 199.94
endloop
endfacet
facet normal -0.6339605003875024 0.7733654271742612 0
outer loop
vertex 10111.140000000001 9833.720000000001 199.94
vertex 10111.140000000001 9833.720000000001 3800.03
vertex 10141.43 9858.550000000001 3800.03
endloop
endfacet
facet normal -0.6339605003875024 0.7733654271742612 0
outer loop
vertex 10111.140000000001 9833.720000000001 199.94
vertex 10141.43 9858.550000000001 3800.03
vertex 10141.43 9858.550000000001 199.94
endloop
endfacet
facet normal -0.7733654271742612 0.6339605003875024 0
outer loop
vertex 10141.43 9858.550000000001 199.94
vertex 10141.43 9858.550000000001 3800.03
vertex 10166.26 9888.84 3800.03
endloop
endfacet
facet normal -0.7733654271742612 0.6339605003875024 0
outer loop
vertex 10141.43 9858.550000000001 199.94
vertex 10166.26 9888.84 3800.03
vertex 10166.26 9888.84 199.94
endloop
endfacet
facet normal -0.8821692656663953 0.47093246513020603 0
outer loop
vertex 10166.26 9888.84 199.94
vertex 10166.26 9888.84 3800.03
vertex 10184.720000000001 9923.42 3800.03
endloop
endfacet
facet normal -0.8821692656663953 0.47093246513020603 0
outer loop
vertex 10166.26 9888.84 199.94
vertex 10184.720000000001 9923.42 3800.03
vertex 10184.720000000001 9923.42 199.94
endloop
endfacet
facet normal -0.956633783021124 0.29129333185415196 0
outer loop
vertex 10184.720000000001 9923.42 199.94
vertex 10184.720000000001 9923.42 3800.03
vertex 10196.16 9960.99 3800.03
endloop
endfacet
facet normal -0.956633783021124 0.29129333185415196 0
outer loop
vertex 10184.720000000001 9923.42 199.94
vertex 10196.16 9960.99 3800.03
vertex 10196.16 9960.99 199.94
endloop
endfacet
facet normal -0.9950371902099902 0.09950371902098974 0
outer loop
vertex 10196.16 9960.99 199.94
vertex 10196.16 9960.99 3800.03
vertex 10200.06 9999.99 3800.03
endloop
endfacet
facet normal -0.9950371902099902 0.09950371902098974 0
outer loop
vertex 10196.16 9960.99 199.94
vertex 10200.06 9999.99 3800.03
vertex 10200.06 9999.99 199.94
endloop
endfacet
facet normal -0.7053456158585978 -0.0705345615858532 0.7053456158585995
outer loop
vertex 10196.16 10038.99 3800.03
vertex 10200.06 9999.99 3800.03
vertex 10400 9999.99 3999.9700000000003
endloop
endfacet
facet normal -0.7052895203449484 -0.0693534695005875 0.7055188082254249
outer loop
vertex 10196.16 10038.99 3800.03
vertex 10400 9999.99 3999.9700000000003
vertex 10392.33 10077.99 3999.9700000000003
endloop
endfacet
facet normal -0.6779947285106697 -0.2064482218302165 0.7054801767696135
outer loop
vertex 10184.720000000001 10076.56 3800.03
vertex 10196.16 10038.99 3800.03
vertex 10392.33 10077.99 3999.9700000000003
endloop
endfacet
facet normal -0.6781625230368942 -0.205326023410821 0.7056463820204374
outer loop
vertex 10184.720000000001 10076.56 3800.03
vertex 10392.33 10077.99 3999.9700000000003
vertex 10369.58 10153.130000000001 3999.9700000000003
endloop
endfacet
facet normal -0.6250415841553217 -0.33366881560171335 0.705682747112012
outer loop
vertex 10166.26 10111.140000000001 3800.03
vertex 10184.720000000001 10076.56 3800.03
vertex 10369.58 10153.130000000001 3999.9700000000003
endloop
endfacet
facet normal -0.6246875699652237 -0.33465405533850684 0.7055296614433976
outer loop
vertex 10166.26 10111.140000000001 3800.03
vertex 10369.58 10153.130000000001 3999.9700000000003
vertex 10332.53 10222.29 3999.9700000000003
endloop
endfacet
facet normal -0.5480674132527169 -0.44927414562777634 0.70553160992326
outer loop
vertex 10141.43 10141.43 3800.03
vertex 10166.26 10111.140000000001 3800.03
vertex 10332.53 10222.29 3999.9700000000003
endloop
endfacet
facet normal -0.5480674132527225 -0.4492741456277671 0.7055316099232616
outer loop
vertex 10141.43 10141.43 3800.03
vertex 10332.53 10222.29 3999.9700000000003
vertex 10282.87 10282.87 3999.9700000000003
endloop
endfacet
facet normal -0.44927414562777596 -0.5480674132527169 0.70553160992326
outer loop
vertex 10222.29 10332.53 3999.9700000000003
vertex 10111.140000000001 10166.26 3800.03
vertex 10141.43 10141.43 3800.03
endloop
endfacet
facet normal -0.4492741456277673 -0.5480674132527223 0.7055316099232616
outer loop
vertex 10222.29 10332.53 3999.9700000000003
vertex 10141.43 10141.43 3800.03
vertex 10282.87 10282.87 3999.9700000000003
endloop
endfacet
facet normal -0.33366881560171363 -0.6250415841553217 0.7056827471120118
outer loop
vertex 10153.130000000001 10369.58 3999.9700000000003
vertex 10076.56 10184.720000000001 3800.03
vertex 10111.140000000001 10166.26 3800.03
endloop
endfacet
facet normal -0.33465405533850684 -0.6246875699652237 0.7055296614433976
outer loop
vertex 10153.130000000001 10369.58 3999.9700000000003
vertex 10111.140000000001 10166.26 3800.03
vertex 10222.29 10332.53 3999.9700000000003
endloop
endfacet
facet normal -0.20644822183021652 -0.6779947285106697 0.7054801767696135
outer loop
vertex 10077.99 10392.33 3999.9700000000003
vertex 10038.99 10196.16 3800.03
vertex 10076.56 10184.720000000001 3800.03
endloop
endfacet
facet normal -0.20532602341082096 -0.6781625230368942 0.7056463820204374
outer loop
vertex 10077.99 10392.33 3999.9700000000003
vertex 10076.56 10184.720000000001 3800.03
vertex 10153.130000000001 10369.58 3999.9700000000003
endloop
endfacet
facet normal -0.07053456158585347 -0.7053456158585978 0.7053456158585995
outer loop
vertex 9999.99 10400 3999.9700000000003
vertex 9999.99 10200.06 3800.03
vertex 10038.99 10196.16 3800.03
endloop
endfacet
facet normal -0.06935346950058725 -0.7052895203449484 0.7055188082254249
outer loop
vertex 9999.99 10400 3999.9700000000003
vertex 10038.99 10196.16 3800.03
vertex 10077.99 10392.33 3999.9700000000003
endloop
endfacet
facet normal 0.06935346950058725 -0.7052895203449484 0.7055188082254249
outer loop
vertex 9999.99 10400 3999.9700000000003
vertex 9921.99 10392.33 3999.9700000000003
vertex 9960.99 10196.16 3800.03
endloop
endfacet
facet normal 0.07053456158585347 -0.7053456158585978 0.7053456158585995
outer loop
vertex 9999.99 10400 3999.9700000000003
vertex 9960.99 10196.16 3800.03
vertex 9999.99 10200.06 3800.03
endloop
endfacet
facet normal 0.20566646547806275 -0.6781117176048146 0.7055960625065938
outer loop
vertex 9921.99 10392.33 3999.9700000000003
vertex 9846.98 10369.58 3999.9700000000003
vertex 9923.42 10184.720000000001 3800.03
endloop
endfacet
facet normal 0.20644822183021652 -0.6779947285106697 0.7054801767696135
outer loop
vertex 9921.99 10392.33 3999.9700000000003
vertex 9923.42 10184.720000000001 3800.03
vertex 9960.99 10196.16 3800.03
endloop
endfacet
facet normal 0.33470543416213494 -0.6247834771026629 0.7054203562995917
outer loop
vertex 9846.98 10369.58 3999.9700000000003
vertex 9777.82 10332.53 3999.9700000000003
vertex 9888.84 10166.26 3800.03
endloop
endfacet
facet normal 0.33371990342201263 -0.6251372838750038 0.7055738107167708
outer loop
vertex 9846.98 10369.58 3999.9700000000003
vertex 9888.84 10166.26 3800.03
vertex 9923.42 10184.720000000001 3800.03
endloop
endfacet
facet normal 0.44872138129653105 -0.548567761951512 0.7054945304641577
outer loop
vertex 9777.82 10332.53 3999.9700000000003
vertex 9717.11 10282.87 3999.9700000000003
vertex 9858.550000000001 10141.43 3800.03
endloop
endfacet
facet normal 0.4493667491138818 -0.5481803798090658 0.7053848566443781
outer loop
vertex 9777.82 10332.53 3999.9700000000003
vertex 9858.550000000001 10141.43 3800.03
vertex 9888.84 10166.26 3800.03
endloop
endfacet
facet normal 0.5480674132527169 -0.44927414562777596 0.70553160992326
outer loop
vertex 9667.45 10222.29 3999.9700000000003
vertex 9833.720000000001 10111.140000000001 3800.03
vertex 9858.550000000001 10141.43 3800.03
endloop
endfacet
facet normal 0.5480674132527223 -0.4492741456277673 0.7055316099232616
outer loop
vertex 9667.45 10222.29 3999.9700000000003
vertex 9858.550000000001 10141.43 3800.03
vertex 9717.11 10282.87 3999.9700000000003
endloop
endfacet
facet normal 0.6250415841553191 -0.33366881560171224 0.7056827471120146
outer loop
vertex 9630.4 10153.130000000001 3999.9700000000003
vertex 9815.26 10076.56 3800.03
vertex 9833.720000000001 10111.140000000001 3800.03
endloop
endfacet
facet normal 0.6246875699652165 -0.3346540553385194 0.7055296614433983
outer loop
vertex 9630.4 10153.130000000001 3999.9700000000003
vertex 9833.720000000001 10111.140000000001 3800.03
vertex 9667.45 10222.29 3999.9700000000003
endloop
endfacet
facet normal 0.6779947285106619 -0.20644822183024703 0.7054801767696119
outer loop
vertex 9607.65 10077.99 3999.9700000000003
vertex 9803.82 10038.99 3800.03
vertex 9815.26 10076.56 3800.03
endloop
endfacet
facet normal 0.6781625230368912 -0.20532602341082004 0.7056463820204404
outer loop
vertex 9607.65 10077.99 3999.9700000000003
vertex 9815.26 10076.56 3800.03
vertex 9630.4 10153.130000000001 3999.9700000000003
endloop
endfacet
facet normal 0.7052324268369138 -0.06817246792754354 0.7056909654759547
outer loop
vertex 9599.98 9999.99 3999.9700000000003
vertex 9800.050000000001 9999.99 3800.03
vertex 9803.82 10038.99 3800.03
endloop
endfacet
facet normal 0.7052895203449484 -0.06935346950058725 0.7055188082254249
outer loop
vertex 9599.98 9999.99 3999.9700000000003
vertex 9803.82 10038.99 3800.03
vertex 9607.65 10077.99 3999.9700000000003
endloop
endfacet
facet normal 0.7052895203449484 0.06935346950058725 0.7055188082254249
outer loop
vertex 9599.98 9999.99 3999.9700000000003
vertex 9607.65 9921.99 3999.9700000000003
vertex 9803.82 9960.99 3800.03
endloop
endfacet
facet normal 0.7052324268369138 0.06817246792754354 0.7056909654759547
outer loop
vertex 9599.98 9999.99 3999.9700000000003
vertex 9803.82 9960.99 3800.03
vertex 9800.050000000001 9999.99 3800.03
endloop
endfacet
facet normal 0.6781117176048115 0.2056664654780618 0.7055960625065968
outer loop
vertex 9607.65 9921.99 3999.9700000000003
vertex 9630.4 9846.98 3999.9700000000003
vertex 9815.26 9923.42 3800.03
endloop
endfacet
facet normal 0.6779947285106619 0.20644822183024703 0.7054801767696119
outer loop
vertex 9607.65 9921.99 3999.9700000000003
vertex 9815.26 9923.42 3800.03
vertex 9803.82 9960.99 3800.03
endloop
endfacet
facet normal 0.6247834771026556 0.3347054341621475 0.7054203562995925
outer loop
vertex 9630.4 9846.98 3999.9700000000003
vertex 9667.45 9777.82 3999.9700000000003
vertex 9833.720000000001 9888.84 3800.03
endloop
endfacet
facet normal 0.6251372838750011 0.33371990342201124 0.7055738107167737
outer loop
vertex 9630.4 9846.98 3999.9700000000003
vertex 9833.720000000001 9888.84 3800.03
vertex 9815.26 9923.42 3800.03
endloop
endfacet
facet normal 0.548567761951512 0.44872138129653105 0.7054945304641577
outer loop
vertex 9667.45 9777.82 3999.9700000000003
vertex 9717.11 9717.11 3999.9700000000003
vertex 9858.550000000001 9858.550000000001 3800.03
endloop
endfacet
facet normal 0.5481803798090658 0.4493667491138818 0.7053848566443781
outer loop
vertex 9667.45 9777.82 3999.9700000000003
vertex 9858.550000000001 9858.550000000001 3800.03
vertex 9833.720000000001 9888.84 3800.03
endloop
endfacet
facet normal 0.44872138129653083 0.5485677619515121 0.7054945304641578
outer loop
vertex 9858.550000000001 9858.550000000001 3800.03
vertex 9717.11 9717.11 3999.9700000000003
vertex 9777.82 9667.45 3999.9700000000003
endloop
endfacet
facet normal 0.4493667491138821 0.5481803798090658 0.7053848566443781
outer loop
vertex 9858.550000000001 9858.550000000001 3800.03
vertex 9777.82 9667.45 3999.9700000000003
vertex 9888.84 9833.720000000001 3800.03
endloop
endfacet
facet normal 0.3347054341621475 0.6247834771026556 0.7054203562995925
outer loop
vertex 9888.84 9833.720000000001 3800.03
vertex 9777.82 9667.45 3999.9700000000003
vertex 9846.98 9630.4 3999.9700000000003
endloop
endfacet
facet normal 0.33371990342201097 0.6251372838750012 0.7055738107167737
outer loop
vertex 9888.84 9833.720000000001 3800.03
vertex 9846.98 9630.4 3999.9700000000003
vertex 9923.42 9815.26 3800.03
endloop
endfacet
facet normal 0.20566646547806186 0.6781117176048115 0.7055960625065968
outer loop
vertex 9923.42 9815.26 3800.03
vertex 9846.98 9630.4 3999.9700000000003
vertex 9921.99 9607.65 3999.9700000000003
endloop
endfacet
facet normal 0.20644822183024694 0.677994728510662 0.7054801767696119
outer loop
vertex 9923.42 9815.26 3800.03
vertex 9921.99 9607.65 3999.9700000000003
vertex 9960.99 9803.82 3800.03
endloop
endfacet
facet normal 0.06819453116219758 0.705460667195406 0.7054606671954012
outer loop
vertex 9999.99 9800.050000000001 3800.03
vertex 9960.99 9803.82 3800.03
vertex 9921.99 9607.65 3999.9700000000003
endloop
endfacet
facet normal 0.06934225130338824 0.7051754369836033 0.7056339385681233
outer loop
vertex 9999.99 9800.050000000001 3800.03
vertex 9921.99 9607.65 3999.9700000000003
vertex 9999.99 9599.98 3999.9700000000003
endloop
endfacet
facet normal -0.06817246792754333 0.7052324268369138 0.7056909654759547
outer loop
vertex 10038.99 9803.82 3800.03
vertex 9999.99 9800.050000000001 3800.03
vertex 9999.99 9599.98 3999.9700000000003
endloop
endfacet
facet normal -0.0693534695005875 0.7052895203449484 0.7055188082254249
outer loop
vertex 10038.99 9803.82 3800.03
vertex 9999.99 9599.98 3999.9700000000003
vertex 10077.99 9607.65 3999.9700000000003
endloop
endfacet
facet normal -0.20644822183024694 0.677994728510662 0.7054801767696119
outer loop
vertex 10076.56 9815.26 3800.03
vertex 10038.99 9803.82 3800.03
vertex 10077.99 9607.65 3999.9700000000003
endloop
endfacet
facet normal -0.2053260234108201 0.6781625230368912 0.7056463820204404
outer loop
vertex 10076.56 9815.26 3800.03
vertex 10077.99 9607.65 3999.9700000000003
vertex 10153.130000000001 9630.4 3999.9700000000003
endloop
endfacet
facet normal -0.3336688156017121 0.6250415841553193 0.7056827471120148
outer loop
vertex 10111.140000000001 9833.720000000001 3800.03
vertex 10076.56 9815.26 3800.03
vertex 10153.130000000001 9630.4 3999.9700000000003
endloop
endfacet
facet normal -0.3346540553385194 0.6246875699652165 0.7055296614433983
outer loop
vertex 10111.140000000001 9833.720000000001 3800.03
vertex 10153.130000000001 9630.4 3999.9700000000003
vertex 10222.29 9667.45 3999.9700000000003
endloop
endfacet
facet normal -0.44927414562777634 0.5480674132527169 0.70553160992326
outer loop
vertex 10141.43 9858.550000000001 3800.03
vertex 10111.140000000001 9833.720000000001 3800.03
vertex 10222.29 9667.45 3999.9700000000003
endloop
endfacet
facet normal -0.4492741456277671 0.5480674132527225 0.7055316099232616
outer loop
vertex 10141.43 9858.550000000001 3800.03
vertex 10222.29 9667.45 3999.9700000000003
vertex 10282.87 9717.11 3999.9700000000003
endloop
endfacet
facet normal -0.5485677619515121 0.44872138129653083 0.7054945304641578
outer loop
vertex 10141.43 9858.550000000001 3800.03
vertex 10282.87 9717.11 3999.9700000000003
vertex 10332.53 9777.82 3999.9700000000003
endloop
endfacet
facet normal -0.5481803798090658 0.4493667491138821 0.7053848566443781
outer loop
vertex 10141.43 9858.550000000001 3800.03
vertex 10332.53 9777.82 3999.9700000000003
vertex 10166.26 9888.84 3800.03
endloop
endfacet
facet normal -0.624783477102663 0.33470543416213505 0.7054203562995919
outer loop
vertex 10166.26 9888.84 3800.03
vertex 10332.53 9777.82 3999.9700000000003
vertex 10369.58 9846.98 3999.9700000000003
endloop
endfacet
facet normal -0.6251372838750038 0.33371990342201235 0.7055738107167709
outer loop
vertex 10166.26 9888.84 3800.03
vertex 10369.58 9846.98 3999.9700000000003
vertex 10184.720000000001 9923.42 3800.03
endloop
endfacet
facet normal -0.6781117176048147 0.2056664654780628 0.7055960625065938
outer loop
vertex 10184.720000000001 9923.42 3800.03
vertex 10369.58 9846.98 3999.9700000000003
vertex 10392.33 9921.99 3999.9700000000003
endloop
endfacet
facet normal -0.6779947285106697 0.2064482218302165 0.7054801767696135
outer loop
vertex 10184.720000000001 9923.42 3800.03
vertex 10392.33 9921.99 3999.9700000000003
vertex 10196.16 9960.99 3800.03
endloop
endfacet
facet normal -0.7051174871147798 0.0705117487114714 0.7055759510205749
outer loop
vertex 10200.06 9999.99 3800.03
vertex 10196.16 9960.99 3800.03
vertex 10392.33 9921.99 3999.9700000000003
endloop
endfacet
facet normal -0.7054036219963287 0.06936468949630624 0.7054036219963303
outer loop
vertex 10200.06 9999.99 3800.03
vertex 10392.33 9921.99 3999.9700000000003
vertex 10400 9999.99 3999.9700000000003
endloop
endfacet
facet normal 0 0 1
outer loop
vertex 9999.99 12240.02 3999.9700000000003
vertex 0 15000.050000000001 3999.9700000000003
vertex 0 10400 3999.9700000000003
endloop
endfacet
facet normal 0 0 1
outer loop
vertex 9999.99 12240.02 3999.9700000000003
vertex 0 10400 3999.9700000000003
vertex 9999.99 10400 3999.9700000000003
endloop
endfacet
facet normal 0 0 1
outer loop
vertex 9999.99 12240.02 3999.9700000000003
vertex 9999.99 10400 3999.9700000000003
vertex 19999.98 10400 3999.9700000000003
endloop
endfacet
facet normal 0 0 1
outer loop
vertex 9999.99 12240.02 3999.9700000000003
vertex 19999.98 10400 3999.9700000000003
vertex 19999.98 15000.050000000001 3999.9700000000003
endloop
endfacet
facet normal 0 0 1
outer loop
vertex 9999.99 12240.02 3999.9700000000003
vertex 19999.98 15000.050000000001 3999.9700000000003
vertex 0 15000.050000000001 3999.9700000000003
endloop
endfacet
facet normal 0 0 1
outer loop
vertex 9999.99 10400 3999.9700000000003
vertex 10077.99 10392.33 3999.9700000000003
vertex 19999.98 10392.33 3999.9700000000003
endloop
endfacet
facet normal 0 0 1
outer loop
vertex 9999.99 10400 3999.9700000000003
vertex 19999.98 10392.33 3999.9700000000003
vertex 19999.98 10400 3999.9700000000003
endloop
endfacet
facet normal 0 0 1
outer loop
vertex 0 10400 3999.9700000000003
vertex 0 10392.33 3999.9700000000003
vertex 9921.99 10392.33 3999.9700000000003
endloop
endfacet
facet normal 0 0 1
outer loop
vertex 0 10400 3999.9700000000003
vertex 9921.99 10392.33 3999.9700000000003
vertex 9999.99 10400 3999.9700000000003
endloop
endfacet
facet normal 0 0 1
outer loop
vertex 10077.99 10392.33 3999.9700000000003
vertex 10153.130000000001 10369.58 3999.9700000000003
vertex 19999.98 10369.58 3999.9700000000003
endloop
endfacet
facet normal 0 0 0.9999999999999999
outer loop
vertex 10077.99 10392.33 3999.9700000000003
vertex 19999.98 10369.58 3999.9700000000003
vertex 19999.98 10392.33 3999.9700000000003
endloop
endfacet
facet normal 0 0 1
outer loop
vertex 0 10392.33 3999.9700000000003
vertex 0 10369.58 3999.9700000000003
vertex 9846.98 10369.58 3999.9700000000003
endloop
endfacet
facet normal 0 0 0.9999999999999999
outer loop
vertex 0 10392.33 3999.9700000000003
vertex 9846.98 10369.58 3999.9700000000003
vertex 9921.99 10392.33 3999.9700000000003
endloop
endfacet
facet normal 0 0 0.9999999999999999
outer loop
vertex 10153.130000000001 10369.58 3999.9700000000003
vertex 10222.29 10332.53 3999.9700000000003
vertex 19999.98 10332.53 3999.9700000000003
endloop
endfacet
facet normal 0 0 1
outer loop
vertex 10153.130000000001 10369.58 3999.9700000000003
vertex 19999.98 10332.53 3999.9700000000003
vertex 19999.98 10369.58 3999.9700000000003
endloop
endfacet
facet normal 0 0 1
outer loop
vertex 0 10369.58 3999.9700000000003
vertex 0 10332.53 3999.9700000000003
vertex 9777.82 10332.53 3999.9700000000003
endloop
endfacet
facet normal 0 0 1
outer loop
vertex 0 10369.58 3999.9700000000003
vertex 9777.82 10332.53 3999.9700000000003
vertex 9846.98 10369.58 3999.9700000000003
endloop
endfacet
facet normal 0 0 0.9999999999999999
outer loop
vertex 10222.29 10332.53 3999.9700000000003
vertex 10282.87 10282.87 3999.9700000000003
vertex 19999.98 10282.87 3999.9700000000003
endloop
endfacet
facet normal 0 0 1
outer loop
vertex 10222.29 10332.53 3999.9700000000003
vertex 19999.98 10282.87 3999.9700000000003
vertex 19999.98 10332.53 3999.9700000000003
endloop
endfacet
facet normal 0 0 1
outer loop
vertex 0 10332.53 3999.9700000000003
vertex 0 10282.87 3999.9700000000003
vertex 9717.11 10282.87 3999.9700000000003
endloop
endfacet
facet normal 0 0 1
outer loop
vertex 0 10332.53 3999.9700000000003
vertex 9717.11 10282.87 3999.9700000000003
vertex 9777.82 10332.53 3999.9700000000003
endloop
endfacet
facet normal 0 0 1
outer loop
vertex 10282.87 10282.87 3999.9700000000003
vertex 10332.53 10222.29 3999.9700000000003
vertex 19999.98 10222.29 3999.9700000000003
endloop
endfacet
facet normal 0 0 1
outer loop
vertex 10282.87 10282.87 3999.9700000000003
vertex 19999.98 10222.29 3999.9700000000003
vertex 19999.98 10282.87 3999.9700000000003
endloop
endfacet
facet normal 0 0 1
outer loop
vertex 0 10282.87 3999.9700000000003
vertex 0 10222.29 3999.9700000000003
vertex 9667.45 10222.29 3999.9700000000003
endloop
endfacet
facet normal 0 0 1
outer loop
vertex 0 10282.87 3999.9700000000003
vertex 9667.45 10222.29 3999.9700000000003
vertex 9717.11 10282.87 3999.9700000000003
endloop
endfacet
facet normal 0 0 1
outer loop
vertex 10332.53 10222.29 3999.9700000000003
vertex 10369.58 10153.130000000001 3999.9700000000003
vertex 19999.98 10153.130000000001 3999.9700000000003
endloop
endfacet
facet normal 0 0 1
outer loop
vertex 10332.53 10222.29 3999.9700000000003
vertex 19999.98 10153.130000000001 3999.9700000000003
vertex 19999.98 10222.29 3999.9700000000003
endloop
endfacet
facet normal 0 0 0.9999999999999999
outer loop
vertex 0 10222.29 3999.9700000000003
vertex 0 10153.130000000001 3999.9700000000003
vertex 9630.4 10153.130000000001 3999.9700000000003
endloop
endfacet
facet normal 0 0 1
outer loop
vertex 0 10222.29 3999.9700000000003
vertex 9630.4 10153.130000000001 3999.9700000000003
vertex 9667.45 10222.29 3999.9700000000003
endloop
endfacet
facet normal 0 0 1
outer loop
vertex 10369.58 10153.130000000001 3999.9700000000003
vertex 10392.33 10077.99 3999.9700000000003
vertex 19999.98 10077.99 3999.9700000000003
endloop
endfacet
facet normal 0 0 1
outer loop
vertex 10369.58 10153.130000000001 3999.9700000000003
vertex 19999.98 10077.99 3999.9700000000003
vertex 19999.98 10153.130000000001 3999.9700000000003
endloop
endfacet
facet normal 0 0 1
outer loop
vertex 0 10153.130000000001 3999.9700000000003
vertex 0 10077.99 3999.9700000000003
vertex 9607.65 10077.99 3999.9700000000003
endloop
endfacet
facet normal 0 0 1
outer loop
vertex 0 10153.130000000001 3999.9700000000003
vertex 9607.65 10077.99 3999.9700000000003
vertex 9630.4 10153.130000000001 3999.9700000000003
endloop
endfacet
facet normal 0 0 1
outer loop
vertex 10392.33 10077.99 3999.9700000000003
vertex 10400 9999.99 3999.9700000000003
vertex 19999.98 9999.99 3999.9700000000003
endloop
endfacet
facet normal 0 0 1
outer loop
vertex 10392.33 10077.99 3999.9700000000003
vertex 19999.98 9999.99 3999.9700000000003
vertex 19999.98 10077.99 3999.9700000000003
endloop
endfacet
facet normal 0 0 1
outer loop
vertex 0 10077.99 3999.9700000000003
vertex 0 9999.99 3999.9700000000003
vertex 9599.98 9999.99 3999.9700000000003
endloop
endfacet
facet normal 0 0 1
outer loop
vertex 0 10077.99 3999.9700000000003
vertex 9599.98 9999.99 3999.9700000000003
vertex 9607.65 10077.99 3999.9700000000003
endloop
endfacet
facet normal 0 0 1
outer loop
vertex 10400 9999.99 3999.9700000000003
vertex 10392.33 9921.99 3999.9700000000003
vertex 19999.98 9921.99 3999.9700000000003
endloop
endfacet
facet normal 0 0 1
outer loop
vertex 10400 9999.99 3999.9700000000003
vertex 19999.98 9921.99 3999.9700000000003
vertex 19999.98 9999.99 3999.9700000000003
endloop
endfacet
facet normal 0 0 1
outer loop
vertex 0 9999.99 3999.9700000000003
vertex 0 9921.99 3999.9700000000003
vertex 9607.65 9921.99 3999.9700000000003
endloop
endfacet
facet normal 0 0 1
outer loop
vertex 0 9999.99 3999.9700000000003
vertex 9607.65 9921.99 3999.9700000000003
vertex 9599.98 9999.99 3999.9700000000003
endloop
endfacet
facet normal 0 0 1
outer loop
vertex 10392.33 9921.99 3999.9700000000003
vertex 10369.58 9846.98 3999.9700000000003
vertex 19999.98 9846.98 3999.9700000000003
endloop
endfacet
facet normal 0 0 1
outer loop
vertex 10392.33 9921.99 3999.9700000000003
vertex 19999.98 9846.98 3999.9700000000003
vertex 19999.98 9921.99 3999.9700000000003
endloop
endfacet
facet normal 0 0 1
outer loop
vertex 0 9921.99 3999.9700000000003
vertex 0 9846.98 3999.9700000000003
vertex 9630.4 9846.98 3999.9700000000003
endloop
endfacet
facet normal 0 0 1
outer loop
vertex 0 9921.99 3999.9700000000003
vertex 9630.4 9846.98 3999.9700000000003
vertex 9607.65 9921.99 3999.9700000000003
endloop
endfacet
facet normal 0 0 1
outer loop
vertex 10369.58 9846.98 3999.9700000000003
vertex 10332.53 9777.82 3999.9700000000003
vertex 19999.98 9777.82 3999.9700000000003
endloop
endfacet
facet normal 0 0 0.9999999999999999
outer loop
vertex 10369.58 9846.98 3999.9700000000003
vertex 19999.98 9777.82 3999.9700000000003
vertex 19999.98 9846.98 3999.9700000000003
endloop
endfacet
facet normal 0 0 1
outer loop
vertex 0 9846.98 3999.9700000000003
vertex 0 9777.82 3999.9700000000003
vertex 9667.45 9777.82 3999.9700000000003
endloop
endfacet
facet normal 0 0 0.9999999999999999
outer loop
vertex 0 9846.98 3999.9700000000003
vertex 9667.45 9777.82 3999.9700000000003
vertex 9630.4 9846.98 3999.9700000000003
endloop
endfacet
facet normal 0 0 1
outer loop
vertex 10332.53 9777.82 3999.9700000000003
vertex 10282.87 9717.11 3999.9700000000003
vertex 19999.98 9717.11 3999.9700000000003
endloop
endfacet
facet normal 0 0 1
outer loop
vertex 10332.53 9777.82 3999.9700000000003
vertex 19999.98 9717.11 3999.9700000000003
vertex 19999.98 9777.82 3999.9700000000003
endloop
endfacet
facet normal 0 0 1
outer loop
vertex 0 9777.82 3999.9700000000003
vertex 0 9717.11 3999.9700000000003
vertex 9717.11 9717.11 3999.9700000000003
endloop
endfacet
facet normal 0 0 1
outer loop
vertex 0 9777.82 3999.9700000000003
vertex 9717.11 9717.11 3999.9700000000003
vertex 9667.45 9777.82 3999.9700000000003
endloop
endfacet
facet normal 0 0 1
outer loop
vertex 10282.87 9717.11 3999.9700000000003
vertex 10222.29 9667.45 3999.9700000000003
vertex 19999.98 9667.45 3999.9700000000003
endloop
endfacet
facet normal 0 0 0.9999999999999999
outer loop
vertex 10282.87 9717.11 3999.9700000000003
vertex 19999.98 9667.45 3999.9700000000003
vertex 19999.98 9717.11 3999.9700000000003
endloop
endfacet
facet normal 0 0 1
outer loop
vertex 0 9717.11 3999.9700000000003
vertex 0 9667.45 3999.9700000000003
vertex 9777.82 9667.45 3999.9700000000003
endloop
endfacet
facet normal 0 0 1
outer loop
vertex 0 9717.11 3999.9700000000003
vertex 9777.82 9667.45 3999.9700000000003
vertex 9717.11 9717.11 3999.9700000000003
endloop
endfacet
facet normal 0 0 1
outer loop
vertex 10222.29 9667.45 3999.9700000000003
vertex 10153.130000000001 9630.4 3999.9700000000003
vertex 19999.98 9630.4 3999.9700000000003
endloop
endfacet
facet normal 0 0 1
outer loop
vertex 10222.29 9667.45 3999.9700000000003
vertex 19999.98 9630.4 3999.9700000000003
vertex 19999.98 9667.45 3999.9700000000003
endloop
endfacet
facet normal 0 0 1
outer loop
vertex 0 9667.45 3999.9700000000003
vertex 0 9630.4 3999.9700000000003
vertex 9846.98 9630.4 3999.9700000000003
endloop
endfacet
facet normal 0 0 1
outer loop
vertex 0 9667.45 3999.9700000000003
vertex 9846.98 9630.4 3999.9700000000003
vertex 9777.82 9667.45 3999.9700000000003
endloop
endfacet
facet normal 0 0 0.9999999999999999
outer loop
vertex 10153.130000000001 9630.4 3999.9700000000003
vertex 10077.99 9607.65 3999.9700000000003
vertex 19999.98 9607.65 3999.9700000000003
endloop
endfacet
facet normal 0 0 1
outer loop
vertex 10153.130000000001 9630.4 3999.9700000000003
vertex 19999.98 9607.65 3999.9700000000003
vertex 19999.98 9630.4 3999.9700000000003
endloop
endfacet
facet normal 0 0 0.9999999999999999
outer loop
vertex 0 9630.4 3999.9700000000003
vertex 0 9607.65 3999.9700000000003
vertex 9921.99 9607.65 3999.9700000000003
endloop
endfacet
facet normal 0 0 1
outer loop
vertex 0 9630.4 3999.9700000000003
vertex 9921.99 9607.65 3999.9700000000003
vertex 9846.98 9630.4 3999.9700000000003
endloop
endfacet
facet normal 0 0 1
outer loop
vertex 10077.99 9607.65 3999.9700000000003
vertex 9999.99 9599.98 3999.9700000000003
vertex 19999.98 9599.98 3999.9700000000003
endloop
endfacet
facet normal 0 0 1
outer loop
vertex 10077.99 9607.65 3999.9700000000003
vertex 19999.98 9599.98 3999.9700000000003
vertex 19999.98 9607.65 3999.9700000000003
endloop
endfacet
facet normal 0 0 1
outer loop
vertex 0 9607.65 3999.9700000000003
vertex 0 9599.98 3999.9700000000003
vertex 9999.99 9599.98 3999.9700000000003
endloop
endfacet
facet normal 0 0 1
outer loop
vertex 0 9607.65 3999.9700000000003
vertex 9999.99 9599.98 3999.9700000000003
vertex 9921.99 9607.65 3999.9700000000003
endloop
endfacet
facet normal 0 0 1
outer loop
vertex 9999.99 5760.04 3999.9700000000003
vertex 9999.99 9599.98 3999.9700000000003
vertex 0 9599.98 3999.9700000000003
endloop
endfacet
facet normal 0 0 1
outer loop
vertex 9999.99 5760.04 3999.9700000000003
vertex 0 9599.98 3999.9700000000003
vertex 0 0 3999.9700000000003
endloop
endfacet
facet normal 0 0 0.9999999999999999
outer loop
vertex 9999.99 5760.04 3999.9700000000003
vertex 0 0 3999.9700000000003
vertex 19999.98 0 3999.9700000000003
endloop
endfacet
facet normal 0 0 1
outer loop
vertex 9999.99 5760.04 3999.9700000000003
vertex 19999.98 0 3999.9700000000003
vertex 19999.98 9599.98 3999.9700000000003
endloop
endfacet
facet normal 0 0 1
outer loop
vertex 9999.99 5760.04 3999.9700000000003
vertex 19999.98 9599.98 3999.9700000000003
vertex 9999.99 9599.98 3999.9700000000003
endloop
endfacet
endsolid JSCAD
