solid JSCAD
facet normal -1 0 0
outer loop
vertex 0 8288.54 1142.83
vertex 0 9629.62 0
vertex 0 9593.35 0
endloop
endfacet
facet normal -0.9999999999999999 0 0
outer loop
vertex 0 8288.54 1142.83
vertex 0 9593.35 0
vertex 0 8796.58 0
endloop
endfacet
facet normal -1 0 0
outer loop
vertex 0 8288.54 1142.83
vertex 0 8796.58 0
vertex 0 0 0
endloop
endfacet
facet normal -1 0 0
outer loop
vertex 0 8288.54 1142.83
vertex 0 0 0
vertex 0 0 3999.9700000000003
endloop
endfacet
facet normal -1 0 0
outer loop
vertex 0 8288.54 1142.83
vertex 0 0 3999.9700000000003
vertex 0 15000.050000000001 3999.9700000000003
endloop
endfacet
facet normal -1 0 0
outer loop
vertex 0 8288.54 1142.83
vertex 0 15000.050000000001 3999.9700000000003
vertex 0 15000.050000000001 0
endloop
endfacet
facet normal -1 0 0
outer loop
vertex 0 8288.54 1142.83
vertex 0 15000.050000000001 0
vertex 0 9629.62 0
endloop
endfacet
facet normal 1 0 0
outer loop
vertex 19999.98 8179.860000000001 1142.83
vertex 19999.98 0 0
vertex 19999.98 8796.58 0
endloop
endfacet
facet normal 1 0 0
outer loop
vertex 19999.98 8179.860000000001 1142.83
vertex 19999.98 8796.58 0
vertex 19999.98 8832.85 0
endloop
endfacet
facet normal 0.9999999999999999 0 0
outer loop
vertex 19999.98 8179.860000000001 1142.83
vertex 19999.98 8832.85 0
vertex 19999.98 9629.62 0
endloop
endfacet
facet normal 1 0 0
outer loop
vertex 19999.98 8179.860000000001 1142.83
vertex 19999.98 9629.62 0
vertex 19999.98 15000.050000000001 0
endloop
endfacet
facet normal 1 0 0
outer loop
vertex 19999.98 8179.860000000001 1142.83
vertex 19999.98 15000.050000000001 0
vertex 19999.98 15000.050000000001 3999.9700000000003
endloop
endfacet
facet normal 1 0 0
outer loop
vertex 19999.98 8179.860000000001 1142.83
vertex 19999.98 15000.050000000001 3999.9700000000003
vertex 19999.98 0 3999.9700000000003
endloop
endfacet
facet normal 0.9999999999999999 0 0
outer loop
vertex 19999.98 8179.860000000001 1142.83
vertex 19999.98 0 3999.9700000000003
vertex 19999.98 0 0
endloop
endfacet
facet normal 0 -1 0
outer loop
vertex 0 0 0
vertex 19999.98 0 0
vertex 19999.98 0 3999.9700000000003
endloop
endfacet
facet normal 0 -1 0
outer loop
vertex 0 0 0
vertex 19999.98 0 3999.9700000000003
vertex 0 0 3999.9700000000003
endloop
endfacet
facet normal 0 1 0
outer loop
vertex 0 15000.050000000001 0
vertex 0 15000.050000000001 3999.9700000000003
vertex 19999.98 15000.050000000001 3999.9700000000003
endloop
endfacet
facet normal 0 1 0
outer loop
vertex 0 15000.050000000001 0
vertex 19999.98 15000.050000000001 3999.9700000000003
vertex 19999.98 15000.050000000001 0
endloop
endfacet
facet normal 0 0 1
outer loop
vertex 0 0 3999.9700000000003
vertex 19999.98 0 3999.9700000000003
vertex 19999.98 15000.050000000001 3999.9700000000003
endloop
endfacet
facet normal 0 0 1
outer loop
vertex 0 0 3999.9700000000003
vertex 19999.98 15000.050000000001 3999.9700000000003
vertex 0 15000.050000000001 3999.9700000000003
endloop
endfacet
facet normal 0.09068227320835523 -0.9958798749476592 0
outer loop
vertex 6199.18 11518.130000000001 199.94
vertex 6199.18 11518.130000000001 599.95
vertex 5800.860000000001 11481.86 599.95
endloop
endfacet
facet normal 0.09068227320835523 -0.9958798749476592 0
outer loop
vertex 6199.18 11518.130000000001 199.94
vertex 5800.860000000001 11481.86 599.95
vertex 5800.860000000001 11481.86 199.94
endloop
endfacet
facet normal -0.09035990568286373 0.9959091763032328 0
outer loop
vertex 5916.17 10213.45 599.95
vertex 6314.49 10249.59 599.95
vertex 6314.49 10249.59 199.94
endloop
endfacet
facet normal -0.09035990568286373 0.9959091763032328 0
outer loop
vertex 5916.17 10213.45 599.95
vertex 6314.49 10249.59 199.94
vertex 5916.17 10213.45 199.94
endloop
endfacet
facet normal 0.9958943158971433 0.09052349183525174 -0.00009481410202810217
outer loop
vertex 6169.150000000001 7430.54 1529.71
vertex 6068.66 8535.41 889.2
vertex 6050.59 8734.57 1235.65
endloop
endfacet
facet normal 0.9958943158971433 0.09052349183525228 -0.00009481410202578785
outer loop
vertex 6169.150000000001 7430.54 1529.71
vertex 6050.59 8734.57 1235.65
vertex 6151.08 7629.7 1876.16
endloop
endfacet
facet normal 0.995893206467704 0.09053574604251814 0
outer loop
vertex 5916.17 10213.45 599.95
vertex 5916.17 10213.45 199.94
vertex 5800.860000000001 11481.86 199.94
endloop
endfacet
facet normal 0.995893206467704 0.09053574604251814 0
outer loop
vertex 5916.17 10213.45 599.95
vertex 5800.860000000001 11481.86 199.94
vertex 5800.860000000001 11481.86 599.95
endloop
endfacet
facet normal 0.9958881420507768 0.09059143735835025 0
outer loop
vertex 6300.84 5981.95 599.95
vertex 6300.84 5981.95 199.94
vertex 6186.4400000000005 7239.570000000001 199.94
endloop
endfacet
facet normal 0.9958881420507768 0.09059143735835025 0
outer loop
vertex 6300.84 5981.95 599.95
vertex 6186.4400000000005 7239.570000000001 199.94
vertex 6186.4400000000005 7239.570000000001 599.95
endloop
endfacet
facet normal 0.9958811848241009 0.0906675968562323 -0.0002293330780639692
outer loop
vertex 6045 8796.58 0
vertex 5972.46 9593.35 0
vertex 5933.46 10022.35 248.69
endloop
endfacet
facet normal 0.995881748819098 0.090661473669929 -0.0001988995018165735
outer loop
vertex 6045 8796.58 0
vertex 5933.46 10022.35 248.69
vertex 5951.66 9823.19 595.14
endloop
endfacet
facet normal -0.9958943158971433 -0.09052349183525228 0.00009481410202578785
outer loop
vertex 6448.91 8770.84 1235.65
vertex 6466.9800000000005 8571.68 889.2
vertex 6567.47 7466.81 1529.71
endloop
endfacet
facet normal -0.9958943158971433 -0.09052349183525174 0.00009481410202810217
outer loop
vertex 6448.91 8770.84 1235.65
vertex 6567.47 7466.81 1529.71
vertex 6549.400000000001 7665.97 1876.16
endloop
endfacet
facet normal -0.9958974244754467 -0.09048933596381167 0
outer loop
vertex 6584.89 7275.71 599.95
vertex 6584.89 7275.71 199.94
vertex 6699.16 6018.09 199.94
endloop
endfacet
facet normal -0.9958974244754467 -0.09048933596381167 0
outer loop
vertex 6584.89 7275.71 599.95
vertex 6699.16 6018.09 199.94
vertex 6699.16 6018.09 599.95
endloop
endfacet
facet normal -0.9958940429763202 -0.09052654397622376 0
outer loop
vertex 6199.18 11518.130000000001 599.95
vertex 6199.18 11518.130000000001 199.94
vertex 6314.49 10249.59 199.94
endloop
endfacet
facet normal -0.9958940429763202 -0.09052654397622376 0
outer loop
vertex 6199.18 11518.130000000001 599.95
vertex 6314.49 10249.59 199.94
vertex 6314.49 10249.59 599.95
endloop
endfacet
facet normal -0.9958958684995407 -0.09050644456750688 -0.00005096365765261488
outer loop
vertex 6331.91 10058.62 248.69
vertex 6370.91 9629.62 0
vertex 6443.320000000001 8832.85 0
endloop
endfacet
facet normal -0.9958964227964832 -0.09050032285909146 -0.00008138531009835577
outer loop
vertex 6331.91 10058.62 248.69
vertex 6443.320000000001 8832.85 0
vertex 6349.9800000000005 9859.460000000001 595.14
endloop
endfacet
facet normal 0 0 0.9999999999999999
outer loop
vertex 5800.860000000001 11481.86 199.94
vertex 5916.17 10213.45 199.94
vertex 6314.49 10249.59 199.94
endloop
endfacet
facet normal 0 0 0.9999999999999999
outer loop
vertex 5800.860000000001 11481.86 199.94
vertex 6314.49 10249.59 199.94
vertex 6199.18 11518.130000000001 199.94
endloop
endfacet
facet normal 0 0 0.9999999999999999
outer loop
vertex 6186.4400000000005 7239.570000000001 199.94
vertex 6300.84 5981.95 199.94
vertex 6699.16 6018.09 199.94
endloop
endfacet
facet normal 0 0 1
outer loop
vertex 6186.4400000000005 7239.570000000001 199.94
vertex 6699.16 6018.09 199.94
vertex 6584.89 7275.71 199.94
endloop
endfacet
facet normal 0 0 -1
outer loop
vertex 6314.49 10249.59 599.95
vertex 5916.17 10213.45 599.95
vertex 5800.860000000001 11481.86 599.95
endloop
endfacet
facet normal 0 0 -0.9999999999999999
outer loop
vertex 6314.49 10249.59 599.95
vertex 5800.860000000001 11481.86 599.95
vertex 6199.18 11518.130000000001 599.95
endloop
endfacet
facet normal 0 0 -1
outer loop
vertex 6699.16 6018.09 599.95
vertex 6300.84 5981.95 599.95
vertex 6186.4400000000005 7239.570000000001 599.95
endloop
endfacet
facet normal 0 0 -1
outer loop
vertex 6699.16 6018.09 599.95
vertex 6186.4400000000005 7239.570000000001 599.95
vertex 6584.89 7275.71 599.95
endloop
endfacet
facet normal 0.07853756286594253 -0.8625057083198762 -0.49991574723617843
outer loop
vertex 6331.91 10058.62 248.69
vertex 6349.9800000000005 9859.460000000001 595.14
vertex 5951.66 9823.19 595.14
endloop
endfacet
facet normal 0.0785109929813005 -0.8624953171601543 -0.4999378479950233
outer loop
vertex 6331.91 10058.62 248.69
vertex 5951.66 9823.19 595.14
vertex 5933.46 10022.35 248.69
endloop
endfacet
facet normal 0.04532446352355458 -0.49791928566198224 0.8660381504138044
outer loop
vertex 5972.46 9593.35 0
vertex 6370.91 9629.62 0
vertex 6331.91 10058.62 248.69
endloop
endfacet
facet normal 0.045324463523554556 -0.49791928566198224 0.8660381504138044
outer loop
vertex 5972.46 9593.35 0
vertex 6331.91 10058.62 248.69
vertex 5933.46 10022.35 248.69
endloop
endfacet
facet normal -0.045340087424690485 0.4979284153019701 -0.8660320835322385
outer loop
vertex 6349.9800000000005 9859.460000000001 595.14
vertex 6443.320000000001 8832.85 0
vertex 6045 8796.58 0
endloop
endfacet
facet normal -0.04534008742469031 0.49792841530197013 -0.8660320835322385
outer loop
vertex 6349.9800000000005 9859.460000000001 595.14
vertex 6045 8796.58 0
vertex 5951.66 9823.19 595.14
endloop
endfacet
facet normal 0 0 -1
outer loop
vertex 9274.2 11777.74 0
vertex 19999.98 15000.050000000001 0
vertex 19999.98 9629.62 0
endloop
endfacet
facet normal 0 0 -1
outer loop
vertex 9274.2 11777.74 0
vertex 19999.98 9629.62 0
vertex 6370.91 9629.62 0
endloop
endfacet
facet normal 0 0 -1
outer loop
vertex 9274.2 11777.74 0
vertex 6370.91 9629.62 0
vertex 0 9629.62 0
endloop
endfacet
facet normal 0 0 -1
outer loop
vertex 9274.2 11777.74 0
vertex 0 9629.62 0
vertex 0 15000.050000000001 0
endloop
endfacet
facet normal 0 0 -1
outer loop
vertex 9274.2 11777.74 0
vertex 0 15000.050000000001 0
vertex 19999.98 15000.050000000001 0
endloop
endfacet
facet normal 0 0 -1
outer loop
vertex 6370.91 9629.62 0
vertex 5972.46 9593.35 0
vertex 0 9593.35 0
endloop
endfacet
facet normal 0 0 -1
outer loop
vertex 6370.91 9629.62 0
vertex 0 9593.35 0
vertex 0 9629.62 0
endloop
endfacet
facet normal 0 0 -1
outer loop
vertex 19999.98 9629.62 0
vertex 19999.98 8832.85 0
vertex 6443.320000000001 8832.85 0
endloop
endfacet
facet normal 0 0 -1
outer loop
vertex 19999.98 9629.62 0
vertex 6443.320000000001 8832.85 0
vertex 6370.91 9629.62 0
endloop
endfacet
facet normal 0 0 -1
outer loop
vertex 5972.46 9593.35 0
vertex 6045 8796.58 0
vertex 0 8796.58 0
endloop
endfacet
facet normal 0 0 -1
outer loop
vertex 5972.46 9593.35 0
vertex 0 8796.58 0
vertex 0 9593.35 0
endloop
endfacet
facet normal 0 0 -1
outer loop
vertex 19999.98 8832.85 0
vertex 19999.98 8796.58 0
vertex 6045 8796.58 0
endloop
endfacet
facet normal 0 0 -1
outer loop
vertex 19999.98 8832.85 0
vertex 6045 8796.58 0
vertex 6443.320000000001 8832.85 0
endloop
endfacet
facet normal 0 0 -1
outer loop
vertex 9208.94 5278 0
vertex 6045 8796.58 0
vertex 19999.98 8796.58 0
endloop
endfacet
facet normal 0 0 -1
outer loop
vertex 9208.94 5278 0
vertex 19999.98 8796.58 0
vertex 19999.98 0 0
endloop
endfacet
facet normal 0 0 -0.9999999999999999
outer loop
vertex 9208.94 5278 0
vertex 19999.98 0 0
vertex 0 0 0
endloop
endfacet
facet normal 0 0 -1
outer loop
vertex 9208.94 5278 0
vertex 0 0 0
vertex 0 8796.58 0
endloop
endfacet
facet normal 0 0 -1
outer loop
vertex 9208.94 5278 0
vertex 0 8796.58 0
vertex 6045 8796.58 0
endloop
endfacet
facet normal 0.07853756286594275 -0.8625057083198762 0.49991574723617843
outer loop
vertex 6466.9800000000005 8571.68 889.2
vertex 6448.91 8770.84 1235.65
vertex 6050.59 8734.57 1235.65
endloop
endfacet
facet normal 0.07853756286594256 -0.8625057083198763 0.49991574723617827
outer loop
vertex 6466.9800000000005 8571.68 889.2
vertex 6050.59 8734.57 1235.65
vertex 6068.66 8535.41 889.2
endloop
endfacet
facet normal -0.07853756286594256 0.8625057083198763 -0.49991574723617827
outer loop
vertex 6151.08 7629.7 1876.16
vertex 6549.400000000001 7665.97 1876.16
vertex 6567.47 7466.81 1529.71
endloop
endfacet
facet normal -0.07853756286594275 0.8625057083198762 -0.49991574723617843
outer loop
vertex 6151.08 7629.7 1876.16
vertex 6567.47 7466.81 1529.71
vertex 6169.150000000001 7430.54 1529.71
endloop
endfacet
facet normal -0.04534007615840051 0.49792829157468593 0.866032155259529
outer loop
vertex 6169.150000000001 7430.54 1529.71
vertex 6567.47 7466.81 1529.71
vertex 6466.9800000000005 8571.68 889.2
endloop
endfacet
facet normal -0.045340076158400536 0.497928291574686 0.866032155259529
outer loop
vertex 6169.150000000001 7430.54 1529.71
vertex 6466.9800000000005 8571.68 889.2
vertex 6068.66 8535.41 889.2
endloop
endfacet
facet normal 0.045340076158400536 -0.497928291574686 -0.866032155259529
outer loop
vertex 6448.91 8770.84 1235.65
vertex 6549.400000000001 7665.97 1876.16
vertex 6151.08 7629.7 1876.16
endloop
endfacet
facet normal 0.04534007615840051 -0.49792829157468593 -0.866032155259529
outer loop
vertex 6448.91 8770.84 1235.65
vertex 6151.08 7629.7 1876.16
vertex 6050.59 8734.57 1235.65
endloop
endfacet
facet normal 0.09033066506849625 -0.995911828902681 0
outer loop
vertex 6584.89 7275.71 199.94
vertex 6584.89 7275.71 599.95
vertex 6186.4400000000005 7239.570000000001 599.95
endloop
endfacet
facet normal 0.09033066506849625 -0.995911828902681 0
outer loop
vertex 6584.89 7275.71 199.94
vertex 6186.4400000000005 7239.570000000001 599.95
vertex 6186.4400000000005 7239.570000000001 199.94
endloop
endfacet
facet normal -0.09035990568286599 0.9959091763032327 0
outer loop
vertex 6300.84 5981.95 599.95
vertex 6699.16 6018.09 599.95
vertex 6699.16 6018.09 199.94
endloop
endfacet
facet normal -0.09035990568286599 0.9959091763032327 0
outer loop
vertex 6300.84 5981.95 599.95
vertex 6699.16 6018.09 199.94
vertex 6300.84 5981.95 199.94
endloop
endfacet
endsolid JSCAD
