solid JSCAD
facet normal -1 0 0
outer loop
vertex 0 0 0
vertex 0 0 3999.9700000000003
vertex 0 15000.050000000001 3999.9700000000003
endloop
endfacet
facet normal -1 0 0
outer loop
vertex 0 0 0
vertex 0 15000.050000000001 3999.9700000000003
vertex 0 15000.050000000001 0
endloop
endfacet
facet normal 1 0 0
outer loop
vertex 19999.98 0 0
vertex 19999.98 15000.050000000001 0
vertex 19999.98 15000.050000000001 3999.9700000000003
endloop
endfacet
facet normal 1 0 0
outer loop
vertex 19999.98 0 0
vertex 19999.98 15000.050000000001 3999.9700000000003
vertex 19999.98 0 3999.9700000000003
endloop
endfacet
facet normal 0 -1 0
outer loop
vertex 0 0 0
vertex 19999.98 0 0
vertex 19999.98 0 3999.9700000000003
endloop
endfacet
facet normal 0 -1 0
outer loop
vertex 0 0 0
vertex 19999.98 0 3999.9700000000003
vertex 0 0 3999.9700000000003
endloop
endfacet
facet normal 0 1 0
outer loop
vertex 0 15000.050000000001 0
vertex 0 15000.050000000001 3999.9700000000003
vertex 19999.98 15000.050000000001 3999.9700000000003
endloop
endfacet
facet normal 0 1 0
outer loop
vertex 0 15000.050000000001 0
vertex 19999.98 15000.050000000001 3999.9700000000003
vertex 19999.98 15000.050000000001 0
endloop
endfacet
facet normal 0 0 -1
outer loop
vertex 0 0 0
vertex 0 15000.050000000001 0
vertex 19999.98 15000.050000000001 0
endloop
endfacet
facet normal 0 0 -1
outer loop
vertex 0 0 0
vertex 19999.98 15000.050000000001 0
vertex 19999.98 0 0
endloop
endfacet
facet normal 0 0 1
outer loop
vertex 0 0 3999.9700000000003
vertex 19999.98 0 3999.9700000000003
vertex 19999.98 15000.050000000001 3999.9700000000003
endloop
endfacet
facet normal 0 0 1
outer loop
vertex 0 0 3999.9700000000003
vertex 19999.98 15000.050000000001 3999.9700000000003
vertex 0 15000.050000000001 3999.9700000000003
endloop
endfacet
facet normal 0.3163577730910925 -0.9486399524608083 0
outer loop
vertex 2642.25 12547.470000000001 199.94
vertex 2642.25 12547.470000000001 700.0500000000001
vertex 2357.6800000000003 12452.57 700.0500000000001
endloop
endfacet
facet normal 0.3163577730910925 -0.9486399524608083 0
outer loop
vertex 2642.25 12547.470000000001 199.94
vertex 2357.6800000000003 12452.57 700.0500000000001
vertex 2357.6800000000003 12452.57 199.94
endloop
endfacet
facet normal 0.9485808533651714 0.3164101887594793 -0.00888577954902258
outer loop
vertex 3399.63 9326.85 1239.68
vertex 3396.77 9335.300000000001 1235.26
vertex 3333.46 9525.1 1235.26
endloop
endfacet
facet normal 0.9485538525215034 0.31661504861447376 0.0007070059890217236
outer loop
vertex 3399.63 9326.85 1239.68
vertex 3333.46 9525.1 1235.26
vertex 3383.6400000000003 9374.56 1326.91
endloop
endfacet
facet normal 0.9487645104959148 0.31582161102809186 0.010129838649638408
outer loop
vertex 3665.8700000000003 8528 1235.26
vertex 3602.69 8717.800000000001 1235.26
vertex 3599.83 8726.25 1239.68
endloop
endfacet
facet normal 0.948747796836181 0.31603400605475823 0.00035357527284516087
outer loop
vertex 3665.8700000000003 8528 1235.26
vertex 3599.83 8726.25 1239.68
vertex 3615.69 8678.54 1326.91
endloop
endfacet
facet normal 0.9486832861682202 0.31622776205607317 0.0001582721531809008
outer loop
vertex 3396.77 9335.300000000001 1235.26
vertex 3444.2200000000003 9193.08 975.52
vertex 3191.2400000000002 9952.02 975.52
endloop
endfacet
facet normal 0.9486180896586517 0.31642260935874295 0.0006725020258001825
outer loop
vertex 3396.77 9335.300000000001 1235.26
vertex 3191.2400000000002 9952.02 975.52
vertex 3333.46 9525.1 1235.26
endloop
endfacet
facet normal 0.9486832980505175 0.316227766016826 3.9488366097759166e-14
outer loop
vertex 3447.86 9182.16 975.52
vertex 3444.2200000000003 9193.08 975.52
vertex 3447.08 9184.5 979.94
endloop
endfacet
facet normal 0.9497699558928904 0.31286539723535384 0.007230082709157006
outer loop
vertex 3555.2400000000002 8860.02 975.52
vertex 3551.6 8871.07 975.52
vertex 3552.38 8868.6 979.94
endloop
endfacet
facet normal 0.9486832861682202 0.31622776205607317 0.0001582721531811109
outer loop
vertex 3665.8700000000003 8528 1235.26
vertex 3808.2200000000003 8101.08 975.52
vertex 3555.2400000000002 8860.02 975.52
endloop
endfacet
facet normal 0.9488131181147959 0.31583779137245904 -0.00039551769290818587
outer loop
vertex 3665.8700000000003 8528 1235.26
vertex 3555.2400000000002 8860.02 975.52
vertex 3602.69 8717.800000000001 1235.26
endloop
endfacet
facet normal 0.9486832576083607 0.3162277525361045 -0.00029199238465384977
outer loop
vertex 3285.75 9668.36 834.73
vertex 3444.2200000000003 9193.08 975.52
vertex 3447.86 9182.16 975.52
endloop
endfacet
facet normal 0.9486235625981438 0.31640666991443467 0.0003946102678683635
outer loop
vertex 3285.75 9668.36 834.73
vertex 3447.86 9182.16 975.52
vertex 3462.81 9137.44 893.88
endloop
endfacet
facet normal 0.9486263722720211 0.3163983388806577 0.0003114218771734119
outer loop
vertex 3285.75 9668.36 834.73
vertex 3462.81 9137.44 893.88
vertex 3327.61 9543.04 647.01
endloop
endfacet
facet normal 0.9486351786250029 0.31637191451948393 0.000331026260713365
outer loop
vertex 3285.75 9668.36 834.73
vertex 3327.61 9543.04 647.01
vertex 3070.86 10312.9 647.01
endloop
endfacet
facet normal 0.9487422872205376 0.31604946565997266 -0.0008987188596990187
outer loop
vertex 3285.75 9668.36 834.73
vertex 3070.86 10312.9 647.01
vertex 3056.04 10357.62 728.65
endloop
endfacet
facet normal 0.94870723634053 0.31615591487804034 -0.00013115922836569308
outer loop
vertex 3285.75 9668.36 834.73
vertex 3056.04 10357.62 728.65
vertex 3191.2400000000002 9952.02 975.52
endloop
endfacet
facet normal 0.9486832576083563 0.31622775253611857 -0.00029199238461412227
outer loop
vertex 3285.75 9668.36 834.73
vertex 3191.2400000000002 9952.02 975.52
vertex 3444.2200000000003 9193.08 975.52
endloop
endfacet
facet normal 0.9452503768142441 0.32633643961443765 0.0025006623725986076
outer loop
vertex 3074.63 10301.98 647.01
vertex 3071.77 10310.300000000001 642.33
vertex 3070.86 10312.9 647.01
endloop
endfacet
facet normal 0.948553044358407 0.3166177742306672 0.0005541476481765237
outer loop
vertex 3327.61 9543.04 647.01
vertex 3185.26 9969.960000000001 387.27000000000004
vertex 3121.9500000000003 10159.630000000001 387.27000000000004
endloop
endfacet
facet normal 0.9486831911098862 0.3162277303699626 -0.0004748164119647694
outer loop
vertex 3327.61 9543.04 647.01
vertex 3121.9500000000003 10159.630000000001 387.27000000000004
vertex 3074.63 10301.98 647.01
endloop
endfacet
facet normal 0.9486832980505135 0.3162277660168392 -4.05833775528091e-15
outer loop
vertex 3185.26 9969.960000000001 387.27000000000004
vertex 3135.08 10120.5 295.62
vertex 3119.2200000000003 10168.08 382.46000000000004
endloop
endfacet
facet normal 0.9484020690545176 0.31656738014362545 0.017849628626701988
outer loop
vertex 3185.26 9969.960000000001 387.27000000000004
vertex 3119.2200000000003 10168.08 382.46000000000004
vertex 3121.9500000000003 10159.630000000001 387.27000000000004
endloop
endfacet
facet normal 0.9487064087827259 0.316158400016825 0.00012662300239127394
outer loop
vertex 3740.88 8303.23 773.89
vertex 3808.2200000000003 8101.08 975.52
vertex 3943.42 7695.4800000000005 728.65
endloop
endfacet
facet normal 0.9487048293503695 0.31616315989537136 0.000055608094874902964
outer loop
vertex 3740.88 8303.23 773.89
vertex 3943.42 7695.4800000000005 728.65
vertex 3864.38 7932.7300000000005 295.62
endloop
endfacet
facet normal 0.948635800748173 0.31637019851349624 -0.00012260262372863824
outer loop
vertex 3740.88 8303.23 773.89
vertex 3864.38 7932.7300000000005 295.62
vertex 3536.65 8915.66 893.88
endloop
endfacet
facet normal 0.948593076570932 0.3164971780501714 -0.0008434263287367847
outer loop
vertex 3740.88 8303.23 773.89
vertex 3536.65 8915.66 893.88
vertex 3551.6 8871.07 975.52
endloop
endfacet
facet normal 0.9486993033186455 0.3161797104087471 0.0001503614226572665
outer loop
vertex 3740.88 8303.23 773.89
vertex 3551.6 8871.07 975.52
vertex 3808.2200000000003 8101.08 975.52
endloop
endfacet
facet normal 0.9486646475970921 0.31628371187825227 0
outer loop
vertex 2798.64 11129.82 450.06
vertex 3019.12 10468.51 700.0500000000001
vertex 3019.12 10468.51 599.95
endloop
endfacet
facet normal 0.948664647597092 0.3162837118782523 0
outer loop
vertex 2798.64 11129.82 450.06
vertex 3019.12 10468.51 599.95
vertex 3019.12 10468.51 300.04
endloop
endfacet
facet normal 0.948664647597092 0.3162837118782523 0
outer loop
vertex 2798.64 11129.82 450.06
vertex 3019.12 10468.51 300.04
vertex 3019.12 10468.51 199.94
endloop
endfacet
facet normal 0.9486708640906176 0.3162650607058748 0.00005479297656132855
outer loop
vertex 2798.64 11129.82 450.06
vertex 3019.12 10468.51 199.94
vertex 2357.6800000000003 12452.57 199.94
endloop
endfacet
facet normal 0.9486739740610323 0.31625573661081263 0
outer loop
vertex 2798.64 11129.82 450.06
vertex 2357.6800000000003 12452.57 199.94
vertex 2357.6800000000003 12452.57 700.0500000000001
endloop
endfacet
facet normal 0.9486708640891361 0.3162650607053809 -0.00005482147004879431
outer loop
vertex 2798.64 11129.82 450.06
vertex 2357.6800000000003 12452.57 700.0500000000001
vertex 3019.12 10468.51 700.0500000000001
endloop
endfacet
facet normal 0.9486903261931887 0.3162066808077608 0
outer loop
vertex 4272.84 6707.35 450.06
vertex 4857.71 4952.610000000001 700.0500000000001
vertex 4857.71 4952.610000000001 199.94
endloop
endfacet
facet normal 0.9486832852366202 0.31622776174554007 -0.00016435954352699012
outer loop
vertex 4272.84 6707.35 450.06
vertex 4857.71 4952.610000000001 199.94
vertex 3980.34 7584.72 199.94
endloop
endfacet
facet normal 0.9486692406717359 0.3162699350291016 0
outer loop
vertex 4272.84 6707.35 450.06
vertex 3980.34 7584.72 199.94
vertex 3980.34 7584.72 300.04
endloop
endfacet
facet normal 0.9486692406717357 0.31626993502910145 0
outer loop
vertex 4272.84 6707.35 450.06
vertex 3980.34 7584.72 300.04
vertex 3980.34 7584.72 599.95
endloop
endfacet
facet normal 0.9486692406717359 0.3162699350291015 0
outer loop
vertex 4272.84 6707.35 450.06
vertex 3980.34 7584.72 599.95
vertex 3980.34 7584.72 700.0500000000001
endloop
endfacet
facet normal 0.9486832852232896 0.3162277617410965 0.0001644450139061286
outer loop
vertex 4272.84 6707.35 450.06
vertex 3980.34 7584.72 700.0500000000001
vertex 4857.71 4952.610000000001 700.0500000000001
endloop
endfacet
facet normal -0.9486832980505137 -0.31622776601683844 -1.958672340681245e-16
outer loop
vertex 4054.7000000000003 8310.12 815.1
vertex 3821.2200000000003 9010.56 893.88
vertex 3956.42 8604.960000000001 647.01
endloop
endfacet
facet normal -0.9486832980505139 -0.3162277660168384 2.1643230581564015e-16
outer loop
vertex 4054.7000000000003 8310.12 815.1
vertex 3956.42 8604.960000000001 647.01
vertex 4209.400000000001 7846.02 647.01
endloop
endfacet
facet normal -0.9486832980505295 -0.31622776601679115 -1.5042045254187168e-13
outer loop
vertex 4054.7000000000003 8310.12 815.1
vertex 4209.400000000001 7846.02 647.01
vertex 4213.04 7835.1 647.01
endloop
endfacet
facet normal -0.9486384300156355 -0.3163620571548171 0.00042177036710046214
outer loop
vertex 4054.7000000000003 8310.12 815.1
vertex 4213.04 7835.1 647.01
vertex 4227.99 7790.38 728.65
endloop
endfacet
facet normal -0.9486553565157312 -0.31631156704854446 0.00008429296934792987
outer loop
vertex 4054.7000000000003 8310.12 815.1
vertex 4227.99 7790.38 728.65
vertex 3900.26 8773.44 1326.91
endloop
endfacet
facet normal -0.9486832980505137 -0.3162277660168385 3.0011974987246814e-16
outer loop
vertex 4054.7000000000003 8310.12 815.1
vertex 3900.26 8773.44 1326.91
vertex 3821.2200000000003 9010.56 893.88
endloop
endfacet
facet normal -0.9485369301875819 -0.3161789767291413 -0.01756549870716315
outer loop
vertex 4209.400000000001 7846.02 647.01
vertex 4212.26 7837.7 642.33
vertex 4213.04 7835.1 647.01
endloop
endfacet
facet normal -0.9487481796939246 -0.3160326355937235 -0.0005145552928223629
outer loop
vertex 3956.42 8604.960000000001 647.01
vertex 4098.77 8178.04 387.27000000000004
vertex 4161.95 7988.37 387.27000000000004
endloop
endfacet
facet normal -0.9486832980505135 -0.3162277660168382 3.0813980836995497e-15
outer loop
vertex 3956.42 8604.960000000001 647.01
vertex 4161.95 7988.37 387.27000000000004
vertex 4209.400000000001 7846.02 647.01
endloop
endfacet
facet normal -0.9486832980505138 -0.31622776601683805 6.53293394752534e-15
outer loop
vertex 4098.77 8178.04 387.27000000000004
vertex 4148.95 8027.5 295.62
vertex 4164.81 7979.92 382.46000000000004
endloop
endfacet
facet normal -0.9487104949620847 -0.3160200826261607 -0.008927716715409708
outer loop
vertex 4098.77 8178.04 387.27000000000004
vertex 4164.81 7979.92 382.46000000000004
vertex 4161.95 7988.37 387.27000000000004
endloop
endfacet
facet normal -0.9486774735959005 -0.31624522122635285 0.0001055613304673334
outer loop
vertex 3340.61 10452.52 728.65
vertex 3419.65 10215.27 295.62
vertex 3747.38 9232.34 893.88
endloop
endfacet
facet normal -0.9486738878901115 -0.31625599463168313 0.000017175133895006174
outer loop
vertex 3340.61 10452.52 728.65
vertex 3747.38 9232.34 893.88
vertex 3668.34 9469.460000000001 1326.91
endloop
endfacet
facet normal -0.9486692406717359 -0.3162699350291012 0
outer loop
vertex 4557.41 6802.12 450.06
vertex 4264.91 7679.490000000001 700.0500000000001
vertex 4264.91 7679.490000000001 599.95
endloop
endfacet
facet normal -0.9486692406717359 -0.3162699350291011 0
outer loop
vertex 4557.41 6802.12 450.06
vertex 4264.91 7679.490000000001 599.95
vertex 4264.91 7679.490000000001 300.04
endloop
endfacet
facet normal -0.9486692406717359 -0.3162699350291012 0
outer loop
vertex 4557.41 6802.12 450.06
vertex 4264.91 7679.490000000001 300.04
vertex 4264.91 7679.490000000001 199.94
endloop
endfacet
facet normal -0.9486832852366203 -0.31622776174554 0.0001643595435261513
outer loop
vertex 4557.41 6802.12 450.06
vertex 4264.91 7679.490000000001 199.94
vertex 5142.28 5047.38 199.94
endloop
endfacet
facet normal -0.9486903261931887 -0.3162066808077608 0
outer loop
vertex 4557.41 6802.12 450.06
vertex 5142.28 5047.38 199.94
vertex 5142.28 5047.38 700.0500000000001
endloop
endfacet
facet normal -0.9486832852232898 -0.31622776174109646 -0.00016444501390528937
outer loop
vertex 4557.41 6802.12 450.06
vertex 5142.28 5047.38 700.0500000000001
vertex 4264.91 7679.490000000001 700.0500000000001
endloop
endfacet
facet normal -0.9486739740610323 -0.31625573661081297 0
outer loop
vertex 3083.21 11224.720000000001 450.06
vertex 2642.25 12547.470000000001 700.0500000000001
vertex 2642.25 12547.470000000001 199.94
endloop
endfacet
facet normal -0.9486770809084994 -0.3162464120855955 0.00005478974568396659
outer loop
vertex 3083.21 11224.720000000001 450.06
vertex 2642.25 12547.470000000001 199.94
vertex 3303.69 10563.28 199.94
endloop
endfacet
facet normal -0.9486832980505139 -0.31622776601683783 0
outer loop
vertex 3083.21 11224.720000000001 450.06
vertex 3303.69 10563.28 199.94
vertex 3303.69 10563.28 300.04
endloop
endfacet
facet normal -0.9486832980505139 -0.3162277660168377 0
outer loop
vertex 3083.21 11224.720000000001 450.06
vertex 3303.69 10563.28 300.04
vertex 3303.69 10563.28 599.95
endloop
endfacet
facet normal -0.9486832980505139 -0.3162277660168377 0
outer loop
vertex 3083.21 11224.720000000001 450.06
vertex 3303.69 10563.28 599.95
vertex 3303.69 10563.28 700.0500000000001
endloop
endfacet
facet normal -0.948677080907018 -0.3162464120851017 -0.00005481823749130892
outer loop
vertex 3083.21 11224.720000000001 450.06
vertex 3303.69 10563.28 700.0500000000001
vertex 2642.25 12547.470000000001 700.0500000000001
endloop
endfacet
facet normal 0 0 1
outer loop
vertex 2357.6800000000003 12452.57 199.94
vertex 3019.12 10468.51 199.94
vertex 3303.69 10563.28 199.94
endloop
endfacet
facet normal 0 0 1
outer loop
vertex 2357.6800000000003 12452.57 199.94
vertex 3303.69 10563.28 199.94
vertex 2642.25 12547.470000000001 199.94
endloop
endfacet
facet normal 0 0 1
outer loop
vertex 3980.34 7584.72 199.94
vertex 4857.71 4952.610000000001 199.94
vertex 5142.28 5047.38 199.94
endloop
endfacet
facet normal 0 0 1
outer loop
vertex 3980.34 7584.72 199.94
vertex 5142.28 5047.38 199.94
vertex 4264.91 7679.490000000001 199.94
endloop
endfacet
facet normal 0 0 -1
outer loop
vertex 3303.69 10563.28 700.0500000000001
vertex 3019.12 10468.51 700.0500000000001
vertex 2357.6800000000003 12452.57 700.0500000000001
endloop
endfacet
facet normal 0 0 -1
outer loop
vertex 3303.69 10563.28 700.0500000000001
vertex 2357.6800000000003 12452.57 700.0500000000001
vertex 2642.25 12547.470000000001 700.0500000000001
endloop
endfacet
facet normal 0 0 -1
outer loop
vertex 5142.28 5047.38 700.0500000000001
vertex 4857.71 4952.610000000001 700.0500000000001
vertex 3980.34 7584.72 700.0500000000001
endloop
endfacet
facet normal 0 0 -1
outer loop
vertex 5142.28 5047.38 700.0500000000001
vertex 3980.34 7584.72 700.0500000000001
vertex 4264.91 7679.490000000001 700.0500000000001
endloop
endfacet
facet normal -0.009636344372441779 0.028916957742631626 0.9995353672692361
outer loop
vertex 3161.34 10515.83 300.04
vertex 2686.9700000000003 10357.75 300.04
vertex 2700.4900000000002 10317.32 301.34000000000003
endloop
endfacet
facet normal -0.009671425335892216 0.028998382128734984 0.9995326694840384
outer loop
vertex 3161.34 10515.83 300.04
vertex 2700.4900000000002 10317.32 301.34000000000003
vertex 3174.86 10475.53 301.34000000000003
endloop
endfacet
facet normal -0.031891375876640926 0.09562171780925391 0.9949067429804174
outer loop
vertex 3174.86 10475.53 301.34000000000003
vertex 2700.4900000000002 10317.32 301.34000000000003
vertex 2713.88 10277.15 305.63
endloop
endfacet
facet normal -0.03177617536575931 0.09535465782044059 0.9949360602124495
outer loop
vertex 3174.86 10475.53 301.34000000000003
vertex 2713.88 10277.15 305.63
vertex 3188.25 10435.23 305.63
endloop
endfacet
facet normal -0.05111418568382699 0.15338459174365518 0.9868437095292809
outer loop
vertex 3188.25 10435.23 305.63
vertex 2713.88 10277.15 305.63
vertex 2727.14 10237.24 312.52000000000004
endloop
endfacet
facet normal -0.05129851641493365 0.1538112460132226 0.9867677349880704
outer loop
vertex 3188.25 10435.23 305.63
vertex 2727.14 10237.24 312.52000000000004
vertex 3201.51 10395.45 312.52000000000004
endloop
endfacet
facet normal -0.07161364314788016 0.21472324062992057 0.9740459003807126
outer loop
vertex 3201.51 10395.45 312.52000000000004
vertex 2727.14 10237.24 312.52000000000004
vertex 2740.27 10197.98 322.14
endloop
endfacet
facet normal -0.07135898058627116 0.21413562513100642 0.9741939385663623
outer loop
vertex 3201.51 10395.45 312.52000000000004
vertex 2740.27 10197.98 322.14
vertex 3214.6400000000003 10356.06 322.14
endloop
endfacet
facet normal -0.09154823421486548 0.2747199890214182 0.9571561254279325
outer loop
vertex 3214.6400000000003 10356.06 322.14
vertex 2740.27 10197.98 322.14
vertex 2753.14 10159.24 334.49
endloop
endfacet
facet normal -0.09154823421486545 0.2747199890214181 0.9571561254279325
outer loop
vertex 3214.6400000000003 10356.06 322.14
vertex 2753.14 10159.24 334.49
vertex 3227.51 10317.32 334.49
endloop
endfacet
facet normal -0.11182881584175104 0.3355784120119655 0.9353509744149301
outer loop
vertex 3227.51 10317.32 334.49
vertex 2753.14 10159.24 334.49
vertex 2765.75 10121.41 349.57
endloop
endfacet
facet normal -0.11182881584175156 0.3355784120119667 0.9353509744149296
outer loop
vertex 3227.51 10317.32 334.49
vertex 2765.75 10121.41 349.57
vertex 3240.12 10279.49 349.57
endloop
endfacet
facet normal -0.1302712966704589 0.3909210210119281 0.9111586824449345
outer loop
vertex 3240.12 10279.49 349.57
vertex 2765.75 10121.41 349.57
vertex 2778.1 10084.62 367.12
endloop
endfacet
facet normal -0.13027129667045834 0.3909210210119267 0.9111586824449351
outer loop
vertex 3240.12 10279.49 349.57
vertex 2778.1 10084.62 367.12
vertex 3252.4700000000003 10242.7 367.12
endloop
endfacet
facet normal 0.1303686477621413 -0.3912131543454389 -0.9110193650783514
outer loop
vertex 2736.11 10210.460000000001 636.22
vertex 2729.48 10230.35 626.73
vertex 3203.85 10388.43 626.73
endloop
endfacet
facet normal 0.13110484186573584 -0.39309906981764386 -0.910101445855276
outer loop
vertex 2736.11 10210.460000000001 636.22
vertex 3203.85 10388.43 626.73
vertex 3210.48 10368.67 636.22
endloop
endfacet
facet normal 0.11097592592601283 -0.3330190408750172 -0.9363667349279061
outer loop
vertex 2729.48 10230.35 626.73
vertex 2722.7200000000003 10250.76 618.6700000000001
vertex 3197.09 10408.84 618.6700000000001
endloop
endfacet
facet normal 0.11097592592601278 -0.33301904087501705 -0.9363667349279062
outer loop
vertex 2729.48 10230.35 626.73
vertex 3197.09 10408.84 618.6700000000001
vertex 3203.85 10388.43 626.73
endloop
endfacet
facet normal 0.09304277755326147 -0.2792048481018481 -0.9557131862340282
outer loop
vertex 2722.7200000000003 10250.76 618.6700000000001
vertex 2715.7000000000003 10271.56 611.91
vertex 3190.07 10429.640000000001 611.91
endloop
endfacet
facet normal 0.09304277755325385 -0.27920484810182844 -0.9557131862340346
outer loop
vertex 2722.7200000000003 10250.76 618.6700000000001
vertex 3190.07 10429.640000000001 611.91
vertex 3197.09 10408.84 618.6700000000001
endloop
endfacet
facet normal 0.0717793539631524 -0.21522010074900697 -0.9739240384024926
outer loop
vertex 2715.7000000000003 10271.56 611.91
vertex 2708.6800000000003 10292.75 606.71
vertex 3183.05 10450.960000000001 606.71
endloop
endfacet
facet normal 0.07135225550711105 -0.21411544436303068 -0.974198866823027
outer loop
vertex 2715.7000000000003 10271.56 611.91
vertex 3183.05 10450.960000000001 606.71
vertex 3190.07 10429.640000000001 611.91
endloop
endfacet
facet normal 0.05172191332241523 -0.15520827443543847 -0.9865268547936452
outer loop
vertex 2708.6800000000003 10292.75 606.71
vertex 2701.53 10314.33 602.94
vertex 3175.9 10472.41 602.94
endloop
endfacet
facet normal 0.05203491136319586 -0.1560192206773217 -0.9863824667838867
outer loop
vertex 2708.6800000000003 10292.75 606.71
vertex 3175.9 10472.41 602.94
vertex 3183.05 10450.960000000001 606.71
endloop
endfacet
facet normal 0.030371991726708545 -0.09114095214700618 -0.9953747379556555
outer loop
vertex 2701.53 10314.33 602.94
vertex 2694.25 10336.04 600.73
vertex 3168.62 10494.12 600.73
endloop
endfacet
facet normal 0.03037199172670856 -0.09114095214700622 -0.9953747379556556
outer loop
vertex 2701.53 10314.33 602.94
vertex 3168.62 10494.12 600.73
vertex 3175.9 10472.41 602.94
endloop
endfacet
facet normal 0.010763094785151086 -0.03229813558471736 -0.9994203251027053
outer loop
vertex 2694.25 10336.04 600.73
vertex 2686.9700000000003 10357.75 599.95
vertex 3161.34 10515.83 599.95
endloop
endfacet
facet normal 0.010763094785151082 -0.03229813558471736 -0.9994203251027053
outer loop
vertex 2694.25 10336.04 600.73
vertex 3161.34 10515.83 599.95
vertex 3168.62 10494.12 600.73
endloop
endfacet
facet normal 0.9490570373872994 0.31508407834508967 0.003572584368108678
outer loop
vertex 3194.4900000000002 8835.32 1316.9
vertex 3220.88 8756.02 1300.26
vertex 3167.71 8915.92 1322.49
endloop
endfacet
facet normal 0.9457941405747501 0.32413042537881986 -0.0203202115691458
outer loop
vertex 3246.4900000000002 8679.58 1272.96
vertex 3270.54 8607.04 1235.26
vertex 3220.88 8756.02 1300.26
endloop
endfacet
facet normal 0.9492063487788481 0.3146481247952437 -0.0019659605195914867
outer loop
vertex 3182.1400000000003 8872.37 1019.46
vertex 3167.71 8915.92 1022.45
vertex 3270.54 8607.04 1235.26
endloop
endfacet
facet normal 0.9486684392360422 0.3162228130786836 -0.005596863948278485
outer loop
vertex 3226.86 8738.210000000001 995.8000000000001
vertex 3210.09 8788.52 995.8000000000001
vertex 3196.44 8829.73 1010.49
endloop
endfacet
facet normal 0.948938345632259 0.3154614546852667 -0.00029461257057739667
outer loop
vertex 3226.86 8738.210000000001 995.8000000000001
vertex 3196.44 8829.73 1010.49
vertex 3270.54 8607.04 1235.26
endloop
endfacet
facet normal 0.948550695623943 0.3166252031164864 -0.00024203879369985432
outer loop
vertex 3112.2000000000003 9082.32 975.52
vertex 3064.75 9224.67 1235.26
vertex 3088.9300000000003 9152.26 1272.96
endloop
endfacet
facet normal 0.9488454486171579 0.31574089775723313 -0.000011043571206966717
outer loop
vertex 3112.2000000000003 9082.32 975.52
vertex 3088.9300000000003 9152.26 1272.96
vertex 3114.4100000000003 9075.69 1300.26
endloop
endfacet
facet normal 0.9487798828057363 0.3159377461499192 -0.0002730216883296983
outer loop
vertex 3270.54 8607.04 1235.26
vertex 3112.2000000000003 9082.32 975.52
vertex 3167.71 8915.92 1322.49
endloop
endfacet
facet normal 0.9486755016040682 0.3162251672013589 0.004054168810257506
outer loop
vertex 3226.86 8738.210000000001 995.8000000000001
vertex 3223.2200000000003 8749.39 975.52
vertex 3210.09 8788.52 995.8000000000001
endloop
endfacet
facet normal 0.9476525933556755 0.31915760916122915 0.009642760017278026
outer loop
vertex 2744.56 10185.37 636.22
vertex 2736.11 10210.460000000001 636.22
vertex 2742.48 10191.220000000001 647.01
endloop
endfacet
facet normal 0.9484264696288155 0.31696117767387655 -0.0047794931750936645
outer loop
vertex 2744.56 10185.37 636.22
vertex 2746.25 10180.17 626.73
vertex 2729.48 10230.35 626.73
endloop
endfacet
facet normal 0.9476743491087403 0.3191649362283235 0.006860869018979671
outer loop
vertex 2744.56 10185.37 636.22
vertex 2729.48 10230.35 626.73
vertex 2736.11 10210.460000000001 636.22
endloop
endfacet
facet normal 0.9488366808985016 0.3157307499696915 -0.004800677565871776
outer loop
vertex 2746.25 10180.17 626.73
vertex 2747.6800000000003 10175.75 618.6700000000001
vertex 2722.7200000000003 10250.76 618.6700000000001
endloop
endfacet
facet normal 0.948412903178858 0.31695664380847627 0.0071729373005084696
outer loop
vertex 2746.25 10180.17 626.73
vertex 2722.7200000000003 10250.76 618.6700000000001
vertex 2729.48 10230.35 626.73
endloop
endfacet
facet normal 0.9482481599037621 0.31732226004622727 0.011489583033513011
outer loop
vertex 2747.6800000000003 10175.75 618.6700000000001
vertex 2748.98 10172.11 611.91
vertex 2715.7000000000003 10271.56 611.91
endloop
endfacet
facet normal 0.9487566052497931 0.31570410434655116 -0.013849999770043897
outer loop
vertex 2747.6800000000003 10175.75 618.6700000000001
vertex 2715.7000000000003 10271.56 611.91
vertex 2722.7200000000003 10250.76 618.6700000000001
endloop
endfacet
facet normal 0.9485523758524814 0.3165169506791932 -0.008087657099434096
outer loop
vertex 2748.98 10172.11 611.91
vertex 2749.89 10169.25 606.71
vertex 2708.6800000000003 10292.75 606.71
endloop
endfacet
facet normal 0.9482311987065241 0.31731658414231495 0.0129529621261601
outer loop
vertex 2748.98 10172.11 611.91
vertex 2708.6800000000003 10292.75 606.71
vertex 2715.7000000000003 10271.56 611.91
endloop
endfacet
facet normal 0.9487122493431857 0.31595805477242006 -0.0107506079186881
outer loop
vertex 2749.89 10169.25 606.71
vertex 2750.54 10167.17 602.94
vertex 2701.53 10314.33 602.94
endloop
endfacet
facet normal 0.9485055987612339 0.31650134190242957 0.012807407721883723
outer loop
vertex 2749.89 10169.25 606.71
vertex 2701.53 10314.33 602.94
vertex 2708.6800000000003 10292.75 606.71
endloop
endfacet
facet normal 0.9485941229485666 0.31595648403787396 -0.018457792442875123
outer loop
vertex 2750.54 10167.17 602.94
vertex 2750.9300000000003 10165.87 600.73
vertex 2694.25 10336.04 600.73
endloop
endfacet
facet normal 0.9485509627771346 0.315904340076836 -0.021342889569827272
outer loop
vertex 2750.54 10167.17 602.94
vertex 2694.25 10336.04 600.73
vertex 2701.53 10314.33 602.94
endloop
endfacet
facet normal 0.9486205225575345 0.31641602059825286 0.00007804765495070696
outer loop
vertex 2728.44 10233.34 419.90000000000003
vertex 2750.9300000000003 10165.87 600.73
vertex 2789.9300000000003 10049 387.27000000000004
endloop
endfacet
facet normal 0.94859000826045 0.3165071122807672 -0.0004940689519269618
outer loop
vertex 2728.44 10233.34 419.90000000000003
vertex 2789.9300000000003 10049 387.27000000000004
vertex 2765.75 10121.41 349.57
endloop
endfacet
facet normal 0.9487857005716265 0.31591992367950344 0.0005442546691371159
outer loop
vertex 2728.44 10233.34 419.90000000000003
vertex 2765.75 10121.41 349.57
vertex 2740.27 10197.98 322.14
endloop
endfacet
facet normal 0.9483659728860755 0.3171781518333311 0.00003835935367670782
outer loop
vertex 2728.44 10233.34 419.90000000000003
vertex 2740.27 10197.98 322.14
vertex 2727.14 10237.24 312.52000000000004
endloop
endfacet
facet normal 0.9489939073754029 0.3152944058274954 -0.000037659683936290326
outer loop
vertex 2728.44 10233.34 419.90000000000003
vertex 2727.14 10237.24 312.52000000000004
vertex 2713.88 10277.15 305.63
endloop
endfacet
facet normal 0.9485181605574977 0.3167222344038646 0.0005703743022318445
outer loop
vertex 2728.44 10233.34 419.90000000000003
vertex 2713.88 10277.15 305.63
vertex 2686.9700000000003 10357.75 300.04
endloop
endfacet
facet normal 0.9486832980505142 0.31622776601683694 0
outer loop
vertex 2728.44 10233.34 419.90000000000003
vertex 2686.9700000000003 10357.75 300.04
vertex 2686.9700000000003 10357.75 599.95
endloop
endfacet
facet normal 0.9481270822262966 0.3178889866681281 -0.0012759718492499066
outer loop
vertex 2728.44 10233.34 419.90000000000003
vertex 2686.9700000000003 10357.75 599.95
vertex 2694.25 10336.04 600.73
endloop
endfacet
facet normal 0.9487557487084226 0.31601031813359376 -0.00009014336105338647
outer loop
vertex 2728.44 10233.34 419.90000000000003
vertex 2694.25 10336.04 600.73
vertex 2750.9300000000003 10165.87 600.73
endloop
endfacet
facet normal 0.9481582553110902 0.31750677948657763 0.013614986797312541
outer loop
vertex 2713.88 10277.15 305.63
vertex 2700.4900000000002 10317.32 301.34000000000003
vertex 2686.9700000000003 10357.75 300.04
endloop
endfacet
facet normal 0.9476409319765402 0.31927126362215097 0.006521063390970532
outer loop
vertex 3125.2000000000003 9043.32 995.8000000000001
vertex 3112.2000000000003 9082.32 975.52
vertex 3270.54 8607.04 1235.26
endloop
endfacet
facet normal 0.9417282145507346 0.3342279045096682 0.03794308588084887
outer loop
vertex 2778.1 10084.62 367.12
vertex 2765.75 10121.41 349.57
vertex 2789.9300000000003 10049 387.27000000000004
endloop
endfacet
facet normal 0.9501792924743373 0.3114194445506478 -0.01331321556701176
outer loop
vertex 2753.14 10159.24 334.49
vertex 2740.27 10197.98 322.14
vertex 2765.75 10121.41 349.57
endloop
endfacet
facet normal 0.31633915086209036 -0.9486461625030966 0
outer loop
vertex 2686.9700000000003 10357.75 599.95
vertex 2686.9700000000003 10357.75 300.04
vertex 3019.12 10468.51 300.04
endloop
endfacet
facet normal 0.31633915086209036 -0.9486461625030966 0
outer loop
vertex 2686.9700000000003 10357.75 599.95
vertex 3019.12 10468.51 300.04
vertex 3019.12 10468.51 599.95
endloop
endfacet
facet normal -0.3159676984167772 0.9487699476465328 0
outer loop
vertex 3303.69 10563.28 700.0500000000001
vertex 3303.69 10563.28 599.95
vertex 3019.12 10468.51 599.95
endloop
endfacet
facet normal -0.3159676984167772 0.9487699476465328 0
outer loop
vertex 3303.69 10563.28 700.0500000000001
vertex 3019.12 10468.51 599.95
vertex 3019.12 10468.51 700.0500000000001
endloop
endfacet
facet normal -0.3162277660168425 0.9486832980505123 0
outer loop
vertex 3303.69 10563.28 599.95
vertex 3303.69 10563.28 300.04
vertex 3161.34 10515.83 300.04
endloop
endfacet
facet normal -0.3162277660168425 0.9486832980505123 0
outer loop
vertex 3303.69 10563.28 599.95
vertex 3161.34 10515.83 300.04
vertex 3161.34 10515.83 599.95
endloop
endfacet
facet normal -0.3159676984167772 0.9487699476465328 0
outer loop
vertex 3303.69 10563.28 300.04
vertex 3303.69 10563.28 199.94
vertex 3019.12 10468.51 199.94
endloop
endfacet
facet normal -0.3159676984167772 0.9487699476465328 0
outer loop
vertex 3303.69 10563.28 300.04
vertex 3019.12 10468.51 199.94
vertex 3019.12 10468.51 300.04
endloop
endfacet
facet normal -0.15818920413815687 0.47435091487455744 0.866006573446072
outer loop
vertex 3462.81 9137.44 893.88
vertex 3747.38 9232.34 893.88
vertex 3419.65 10215.27 295.62
endloop
endfacet
facet normal -0.15798005727570574 0.4743735876221098 0.86603233246207
outer loop
vertex 3462.81 9137.44 893.88
vertex 3419.65 10215.27 295.62
vertex 3135.08 10120.5 295.62
endloop
endfacet
facet normal 0.1581100822096584 -0.47433024662896756 -0.8660323429506301
outer loop
vertex 3340.61 10452.52 728.65
vertex 3668.34 9469.460000000001 1326.91
vertex 3383.6400000000003 9374.56 1326.91
endloop
endfacet
facet normal 0.1581797930648349 -0.47432269454647275 -0.8660237493880522
outer loop
vertex 3340.61 10452.52 728.65
vertex 3383.6400000000003 9374.56 1326.91
vertex 3056.04 10357.62 728.65
endloop
endfacet
facet normal 0.274284005168458 -0.8215008627705717 0.4999046078762985
outer loop
vertex 3340.61 10452.52 728.65
vertex 3261.57 10426.130000000001 728.65
vertex 3261.57 10162.62 295.62
endloop
endfacet
facet normal 0.2736422038134849 -0.8216022712029623 0.5000896442101486
outer loop
vertex 3340.61 10452.52 728.65
vertex 3261.57 10162.62 295.62
vertex 3419.65 10215.27 295.62
endloop
endfacet
facet normal 0.27457165578108406 -0.8214643800007588 0.4998066408438397
outer loop
vertex 3261.57 10426.130000000001 728.65
vertex 3214.12 10410.27 728.65
vertex 3214.12 10357.75 642.33
endloop
endfacet
facet normal 0.27415580027829495 -0.8214642289669073 0.5000351164684061
outer loop
vertex 3261.57 10426.130000000001 728.65
vertex 3214.12 10357.75 642.33
vertex 3261.57 10215.4 382.46000000000004
endloop
endfacet
facet normal 0.2731631008783895 -0.8217406468731818 0.5001242141657886
outer loop
vertex 3261.57 10215.4 382.46000000000004
vertex 3119.2200000000003 10168.08 382.46000000000004
vertex 3135.08 10120.5 295.62
endloop
endfacet
facet normal 0.27369038264273904 -0.8219158713314214 0.499547670300224
outer loop
vertex 3261.57 10215.4 382.46000000000004
vertex 3135.08 10120.5 295.62
vertex 3261.57 10162.62 295.62
endloop
endfacet
facet normal 0.27361862379771 -0.8215314729333766 0.5002188398001061
outer loop
vertex 3214.12 10410.27 728.65
vertex 3056.04 10357.62 728.65
vertex 3071.77 10310.300000000001 642.33
endloop
endfacet
facet normal 0.2738778027612532 -0.8216334082837778 0.4999094833533874
outer loop
vertex 3214.12 10410.27 728.65
vertex 3071.77 10310.300000000001 642.33
vertex 3214.12 10357.75 642.33
endloop
endfacet
facet normal -0.15061820926011485 0.45185462778041974 0.8792846810861056
outer loop
vertex 3119.2200000000003 10168.08 382.46000000000004
vertex 3119.2200000000003 10158.720000000001 387.27000000000004
vertex 3121.9500000000003 10159.630000000001 387.27000000000004
endloop
endfacet
facet normal -0.14863726823264797 0.44678357753215364 0.8822082505508017
outer loop
vertex 3252.4700000000003 10242.7 367.12
vertex 3119.2200000000003 10198.37 367.12
vertex 3119.2200000000003 10168.08 382.46000000000004
endloop
endfacet
facet normal -0.14838887214697966 0.44638960165094405 0.8824494694660192
outer loop
vertex 3252.4700000000003 10242.7 367.12
vertex 3119.2200000000003 10168.08 382.46000000000004
vertex 3261.57 10215.4 382.46000000000004
endloop
endfacet
facet normal -0.14962877631392152 0.4487153246259776 0.8810594683360494
outer loop
vertex 3119.2200000000003 10198.37 367.12
vertex 2778.1 10084.62 367.12
vertex 2789.9300000000003 10049 387.27000000000004
endloop
endfacet
facet normal -0.14926584053663833 0.4479743768712094 0.881497967391725
outer loop
vertex 3119.2200000000003 10198.37 367.12
vertex 2789.9300000000003 10049 387.27000000000004
vertex 3119.2200000000003 10158.720000000001 387.27000000000004
endloop
endfacet
facet normal 0.14881461088745015 -0.44602581409245323 -0.8825617172467778
outer loop
vertex 3071.77 10310.300000000001 642.33
vertex 3071.77 10322.390000000001 636.22
vertex 3210.48 10368.67 636.22
endloop
endfacet
facet normal 0.1482642465151496 -0.4447927395454587 -0.8832763622179305
outer loop
vertex 3071.77 10310.300000000001 642.33
vertex 3210.48 10368.67 636.22
vertex 3214.12 10357.75 642.33
endloop
endfacet
facet normal 0.14242489828676744 -0.44762110890136064 -0.8828082981111585
outer loop
vertex 3071.77 10301.07 647.01
vertex 3071.77 10310.300000000001 642.33
vertex 3074.63 10301.98 647.01
endloop
endfacet
facet normal 0.1487140149523975 -0.4457900590229915 -0.8826977767237301
outer loop
vertex 3071.77 10301.07 647.01
vertex 2742.48 10191.220000000001 647.01
vertex 2736.11 10210.460000000001 636.22
endloop
endfacet
facet normal 0.14889991836365646 -0.4465268167421136 -0.882293951153158
outer loop
vertex 3071.77 10301.07 647.01
vertex 2736.11 10210.460000000001 636.22
vertex 3071.77 10322.390000000001 636.22
endloop
endfacet
facet normal 0 0 -1
outer loop
vertex 3615.69 9152.78 1022.45
vertex 3641.9500000000003 9074 1022.45
vertex 3702.4 8892.65 1022.45
endloop
endfacet
facet normal -0.9486832788311561 -0.3162277596103843 0.0002012907445020666
outer loop
vertex 3615.69 9152.78 1022.45
vertex 3702.4 8892.65 1022.45
vertex 3739.71 8780.85 1226.68
endloop
endfacet
facet normal -0.9482919332232389 -0.31579569150277687 -0.031866763438031194
outer loop
vertex 3641.9500000000003 9074 1022.45
vertex 3656.51 9030.58 1019.46
vertex 3701.88 8894.34 1019.46
endloop
endfacet
facet normal -0.9485936431527987 -0.31619788105093133 -0.013747733958793907
outer loop
vertex 3641.9500000000003 9074 1022.45
vertex 3701.88 8894.34 1019.46
vertex 3702.4 8892.65 1022.45
endloop
endfacet
facet normal -0.9483792305049413 -0.317133182175213 -0.0018384532299896505
outer loop
vertex 3615.69 9152.78 1022.45
vertex 3613.8700000000003 9158.24 1019.46
vertex 3627.52 9117.42 1019.46
endloop
endfacet
facet normal -0.9485936431528 -0.3161978810509333 -0.01374773395865153
outer loop
vertex 3615.69 9152.78 1022.45
vertex 3627.52 9117.42 1019.46
vertex 3641.9500000000003 9074 1022.45
endloop
endfacet
facet normal -0.9486434482910581 -0.31621448276368763 0.009165637181571543
outer loop
vertex 3656.51 9030.58 1019.46
vertex 3670.6800000000003 8987.81 1010.49
vertex 3700.19 8899.28 1010.49
endloop
endfacet
facet normal -0.9487630894637435 -0.3159525937240899 0.004749588427716092
outer loop
vertex 3656.51 9030.58 1019.46
vertex 3700.19 8899.28 1010.49
vertex 3701.88 8894.34 1019.46
endloop
endfacet
facet normal -0.9503963839674524 -0.3110388165712014 0.0012521691488139777
outer loop
vertex 3613.8700000000003 9158.24 1019.46
vertex 3608.54 9174.49 1010.49
vertex 3613.2200000000003 9160.19 1010.49
endloop
endfacet
facet normal -0.9483808105129821 -0.31713371052185085 -0.00021886384440528153
outer loop
vertex 3613.8700000000003 9158.24 1019.46
vertex 3613.2200000000003 9160.19 1010.49
vertex 3627.52 9117.42 1019.46
endloop
endfacet
facet normal -0.9483687917213798 -0.3171696952445683 0.00013895106249203588
outer loop
vertex 3670.6800000000003 8987.81 1010.49
vertex 3684.46 8946.6 995.8000000000001
vertex 3697.59 8907.34 995.8000000000001
endloop
endfacet
facet normal -0.9486684392360426 -0.3162228130786825 -0.005596863948290929
outer loop
vertex 3670.6800000000003 8987.81 1010.49
vertex 3697.59 8907.34 995.8000000000001
vertex 3700.19 8899.28 1010.49
endloop
endfacet
facet normal -0.9503442279078232 -0.3110217473153228 0.010550885233335208
outer loop
vertex 3608.54 9174.49 1010.49
vertex 3599.57 9201.4 995.8000000000001
vertex 3613.2200000000003 9160.19 1010.49
endloop
endfacet
facet normal -0.948802018342546 -0.31587084714116265 -0.0005813049419649738
outer loop
vertex 3646.11 9061.78 1253.5900000000001
vertex 3615.17 9154.6 1316.9
vertex 3588.78 9233.9 1300.26
endloop
endfacet
facet normal -0.9485109166988187 -0.31673072617855386 0.0029475409365583988
outer loop
vertex 3646.11 9061.78 1253.5900000000001
vertex 3588.78 9233.9 1300.26
vertex 3563.17 9310.34 1272.96
endloop
endfacet
facet normal -0.9485968173051498 -0.3164866072079399 -0.0005528621416520706
outer loop
vertex 3646.11 9061.78 1253.5900000000001
vertex 3563.17 9310.34 1272.96
vertex 3541.85 9374.300000000001 1239.68
endloop
endfacet
facet normal -0.9486041640173656 -0.3164650688718044 -0.000013888092430447398
outer loop
vertex 3646.11 9061.78 1253.5900000000001
vertex 3541.85 9374.300000000001 1239.68
vertex 3589.3 9232.08 980.07
endloop
endfacet
facet normal -0.948720621628289 -0.31611569114852056 0.00022783091587535702
outer loop
vertex 3646.11 9061.78 1253.5900000000001
vertex 3589.3 9232.08 980.07
vertex 3739.71 8780.85 1226.68
endloop
endfacet
facet normal -0.9488071990981957 -0.3158422487588642 -0.0029279409796804127
outer loop
vertex 3646.11 9061.78 1253.5900000000001
vertex 3739.71 8780.85 1226.68
vertex 3742.05 8773.7 1239.68
endloop
endfacet
facet normal -0.9487774711961638 -0.3159445275906795 -0.000604678521718548
outer loop
vertex 3646.11 9061.78 1253.5900000000001
vertex 3742.05 8773.7 1239.68
vertex 3720.73 8837.66 1272.96
endloop
endfacet
facet normal -0.9487715568285804 -0.3159617837922175 -0.0008271250884608006
outer loop
vertex 3646.11 9061.78 1253.5900000000001
vertex 3720.73 8837.66 1272.96
vertex 3695.25 8914.1 1300.26
endloop
endfacet
facet normal -0.9488433116051269 -0.3157473114796169 -0.00007290822871394557
outer loop
vertex 3646.11 9061.78 1253.5900000000001
vertex 3695.25 8914.1 1300.26
vertex 3668.86 8993.4 1316.9
endloop
endfacet
facet normal -0.948552863555631 -0.3166168324935287 -0.0011164327913000575
outer loop
vertex 3646.11 9061.78 1253.5900000000001
vertex 3668.86 8993.4 1316.9
vertex 3641.9500000000003 9074 1322.49
endloop
endfacet
facet normal -0.9489599195223775 -0.3153937652572925 -0.0013579311142096367
outer loop
vertex 3646.11 9061.78 1253.5900000000001
vertex 3641.9500000000003 9074 1322.49
vertex 3615.17 9154.6 1316.9
endloop
endfacet
facet normal -0.9483587346343627 -0.31716633178169173 0.004607431698495162
outer loop
vertex 3684.46 8946.6 995.8000000000001
vertex 3694.6 8916.050000000001 979.94
vertex 3697.59 8907.34 995.8000000000001
endloop
endfacet
facet normal -0.9503467736733823 -0.3110225804749603 0.010293891552275187
outer loop
vertex 3210.48 10368.67 636.22
vertex 3215.1600000000003 10354.37 636.22
vertex 3214.12 10357.75 642.33
endloop
endfacet
facet normal -0.948366607159273 -0.31716896464598293 0.0021508813552573326
outer loop
vertex 3210.48 10368.67 636.22
vertex 3203.85 10388.43 626.73
vertex 3216.98 10349.17 626.73
endloop
endfacet
facet normal -0.950330569761426 -0.31101727737650187 -0.011834751802685214
outer loop
vertex 3210.48 10368.67 636.22
vertex 3216.98 10349.17 626.73
vertex 3215.1600000000003 10354.37 636.22
endloop
endfacet
facet normal -0.9488698567718834 -0.3156483904880116 -0.003476850878729966
outer loop
vertex 3203.85 10388.43 626.73
vertex 3197.09 10408.84 618.6700000000001
vertex 3218.4100000000003 10344.75 618.6700000000001
endloop
endfacet
facet normal -0.9483535417359362 -0.31716459508387357 0.005672697963781718
outer loop
vertex 3203.85 10388.43 626.73
vertex 3218.4100000000003 10344.75 618.6700000000001
vertex 3216.98 10349.17 626.73
endloop
endfacet
facet normal -0.9486131369515735 -0.31620437898385295 0.012161706883955762
outer loop
vertex 3197.09 10408.84 618.6700000000001
vertex 3190.07 10429.640000000001 611.91
vertex 3219.58 10341.11 611.91
endloop
endfacet
facet normal -0.9488599767393846 -0.3156451038240566 0.005736983008086482
outer loop
vertex 3197.09 10408.84 618.6700000000001
vertex 3219.58 10341.11 611.91
vertex 3218.4100000000003 10344.75 618.6700000000001
endloop
endfacet
facet normal -0.948564734868393 -0.31618824495612585 -0.015809412247771448
outer loop
vertex 3190.07 10429.640000000001 611.91
vertex 3183.05 10450.960000000001 606.71
vertex 3220.62 10338.25 606.71
endloop
endfacet
facet normal -0.9485647348683931 -0.31618824495612613 -0.015809412247767968
outer loop
vertex 3190.07 10429.640000000001 611.91
vertex 3220.62 10338.25 606.71
vertex 3219.58 10341.11 611.91
endloop
endfacet
facet normal -0.9486832980505131 -0.31622776601683983 1.0235970325789315e-13
outer loop
vertex 3183.05 10450.960000000001 606.71
vertex 3175.9 10472.41 602.94
vertex 3221.27 10336.300000000001 602.94
endloop
endfacet
facet normal -0.9486832980505154 -0.31622776601683333 -1.1777296850834455e-13
outer loop
vertex 3183.05 10450.960000000001 606.71
vertex 3221.27 10336.300000000001 602.94
vertex 3220.62 10338.25 606.71
endloop
endfacet
facet normal -0.9485192085745746 -0.31617306952485913 0.018598415854344883
outer loop
vertex 3175.9 10472.41 602.94
vertex 3168.62 10494.12 600.73
vertex 3221.6600000000003 10335 600.73
endloop
endfacet
facet normal -0.9485192085745728 -0.3161730695248597 0.01859841585442153
outer loop
vertex 3175.9 10472.41 602.94
vertex 3221.6600000000003 10335 600.73
vertex 3221.27 10336.300000000001 602.94
endloop
endfacet
facet normal -0.9481227172834817 -0.31790347732993546 0.0008319089626661434
outer loop
vertex 3206.19 10381.54 398.06
vertex 3168.62 10494.12 600.73
vertex 3161.34 10515.83 599.95
endloop
endfacet
facet normal -0.9484994982988572 -0.31677863205528295 0
outer loop
vertex 3206.19 10381.54 398.06
vertex 3161.34 10515.83 599.95
vertex 3161.34 10515.83 300.04
endloop
endfacet
facet normal -0.9480479844293609 -0.318120787792546 -0.0020453835034069537
outer loop
vertex 3206.19 10381.54 398.06
vertex 3161.34 10515.83 300.04
vertex 3174.86 10475.53 301.34000000000003
endloop
endfacet
facet normal -0.949023624285867 -0.3152030094270091 0.0011060720929654334
outer loop
vertex 3206.19 10381.54 398.06
vertex 3174.86 10475.53 301.34000000000003
vertex 3188.25 10435.23 305.63
endloop
endfacet
facet normal -0.9487088751218535 -0.31615063767815715 0.000494530809761488
outer loop
vertex 3206.19 10381.54 398.06
vertex 3188.25 10435.23 305.63
vertex 3201.51 10395.45 312.52000000000004
endloop
endfacet
facet normal -0.9487198419969917 -0.3161177168663019 0.0005004842054658935
outer loop
vertex 3206.19 10381.54 398.06
vertex 3201.51 10395.45 312.52000000000004
vertex 3214.6400000000003 10356.06 322.14
endloop
endfacet
facet normal -0.9490172342169946 -0.3152241442330181 0.0001674863793977261
outer loop
vertex 3206.19 10381.54 398.06
vertex 3214.6400000000003 10356.06 322.14
vertex 3227.51 10317.32 334.49
endloop
endfacet
facet normal -0.9487931158986724 -0.31589677561598184 0.0009221598096406818
outer loop
vertex 3206.19 10381.54 398.06
vertex 3227.51 10317.32 334.49
vertex 3240.12 10279.49 349.57
endloop
endfacet
facet normal -0.9484648213425799 -0.31686636155077413 0.003192427471710789
outer loop
vertex 3206.19 10381.54 398.06
vertex 3240.12 10279.49 349.57
vertex 3252.4700000000003 10242.7 367.12
endloop
endfacet
facet normal -0.9486832980505148 -0.31622776601683455 -2.146564314890085e-14
outer loop
vertex 3206.19 10381.54 398.06
vertex 3252.4700000000003 10242.7 367.12
vertex 3261.57 10215.4 382.46000000000004
endloop
endfacet
facet normal -0.9486888724398652 -0.316210980016044 -0.000198559990635041
outer loop
vertex 3206.19 10381.54 398.06
vertex 3261.57 10215.4 382.46000000000004
vertex 3221.6600000000003 10335 600.73
endloop
endfacet
facet normal -0.9486832785341448 -0.3162277595113825 -0.00020284012797432407
outer loop
vertex 3206.19 10381.54 398.06
vertex 3221.6600000000003 10335 600.73
vertex 3168.62 10494.12 600.73
endloop
endfacet
facet normal -0.2739733641702652 0.8215985275293873 -0.4999144479676199
outer loop
vertex 2789.9300000000003 10049 387.27000000000004
vertex 2742.48 10191.220000000001 647.01
vertex 3074.63 10301.98 647.01
endloop
endfacet
facet normal -0.273742850703014 0.8215502240840085 -0.5001200665805194
outer loop
vertex 2789.9300000000003 10049 387.27000000000004
vertex 3074.63 10301.98 647.01
vertex 3121.9500000000003 10159.630000000001 387.27000000000004
endloop
endfacet
facet normal -0.10125053011798991 0.3038348555925537 0.9473292514632271
outer loop
vertex 3599.57 9201.4 995.8000000000001
vertex 3125.2000000000003 9043.32 995.8000000000001
vertex 3138.98 9002.11 1010.49
endloop
endfacet
facet normal -0.1013615582485974 0.3040846747457925 0.9472372169072337
outer loop
vertex 3599.57 9201.4 995.8000000000001
vertex 3138.98 9002.11 1010.49
vertex 3613.2200000000003 9160.19 1010.49
endloop
endfacet
facet normal -0.061744478197228676 0.18523343459168623 0.9807528710748284
outer loop
vertex 3613.2200000000003 9160.19 1010.49
vertex 3138.98 9002.11 1010.49
vertex 3153.15 8959.34 1019.46
endloop
endfacet
facet normal -0.06167512485745319 0.18507609424740684 0.9807869382857536
outer loop
vertex 3613.2200000000003 9160.19 1010.49
vertex 3153.15 8959.34 1019.46
vertex 3627.52 9117.42 1019.46
endloop
endfacet
facet normal -0.020597376607340144 0.06180906845409886 0.9978754366822203
outer loop
vertex 3627.52 9117.42 1019.46
vertex 3153.15 8959.34 1019.46
vertex 3167.71 8915.92 1022.45
endloop
endfacet
facet normal -0.02062088723413241 0.06186266170239729 0.9978716300691046
outer loop
vertex 3627.52 9117.42 1019.46
vertex 3167.71 8915.92 1022.45
vertex 3641.9500000000003 9074 1022.45
endloop
endfacet
facet normal 0.020565689506587315 -0.061697068519762005 0.9978830212761347
outer loop
vertex 3641.9500000000003 9074 1022.45
vertex 3167.71 8915.92 1022.45
vertex 3182.1400000000003 8872.37 1019.46
endloop
endfacet
facet normal 0.02061261145141363 -0.0618039598900647 0.997875438514778
outer loop
vertex 3641.9500000000003 9074 1022.45
vertex 3182.1400000000003 8872.37 1019.46
vertex 3656.51 9030.58 1019.46
endloop
endfacet
facet normal 0.06188353351033229 -0.18554890203714355 0.9806844718017544
outer loop
vertex 3656.51 9030.58 1019.46
vertex 3182.1400000000003 8872.37 1019.46
vertex 3196.44 8829.73 1010.49
endloop
endfacet
facet normal 0.06174447819722872 -0.1852334345916863 0.9807528710748287
outer loop
vertex 3656.51 9030.58 1019.46
vertex 3196.44 8829.73 1010.49
vertex 3670.6800000000003 8987.81 1010.49
endloop
endfacet
facet normal 0.10136155824859742 -0.30408467474579254 0.9472372169072337
outer loop
vertex 3670.6800000000003 8987.81 1010.49
vertex 3196.44 8829.73 1010.49
vertex 3210.09 8788.52 995.8000000000001
endloop
endfacet
facet normal 0.10125053011798994 -0.30383485559255374 0.9473292514632271
outer loop
vertex 3670.6800000000003 8987.81 1010.49
vertex 3210.09 8788.52 995.8000000000001
vertex 3684.46 8946.6 995.8000000000001
endloop
endfacet
facet normal -0.1013605329663451 0.30408159889903336 -0.9472383140307331
outer loop
vertex 3496.61 8796.970000000001 1283.88
vertex 3599.83 8797.36 1272.96
vertex 3246.4900000000002 8679.58 1272.96
endloop
endfacet
facet normal -0.10145742587260222 0.30428112090093734 -0.9471638666031209
outer loop
vertex 3496.61 8796.970000000001 1283.88
vertex 3246.4900000000002 8679.58 1272.96
vertex 3220.88 8756.02 1300.26
endloop
endfacet
facet normal -0.10149398884172912 0.3045654319765375 -0.9470685655610898
outer loop
vertex 3496.61 8796.970000000001 1283.88
vertex 3220.88 8756.02 1300.26
vertex 3695.25 8914.1 1300.26
endloop
endfacet
facet normal -0.10142101135489758 0.3044480413820162 -0.9471141264675572
outer loop
vertex 3496.61 8796.970000000001 1283.88
vertex 3695.25 8914.1 1300.26
vertex 3720.73 8837.66 1272.96
endloop
endfacet
facet normal -0.1013605329663449 0.3040815988990404 -0.947238314030731
outer loop
vertex 3496.61 8796.970000000001 1283.88
vertex 3720.73 8837.66 1272.96
vertex 3599.83 8797.36 1272.96
endloop
endfacet
facet normal -0.06173390254810693 0.1852524756562847 -0.9807499403718558
outer loop
vertex 3220.88 8756.02 1300.26
vertex 3194.4900000000002 8835.32 1316.9
vertex 3668.86 8993.4 1316.9
endloop
endfacet
facet normal -0.061733902548106935 0.18525247565628478 -0.9807499403718557
outer loop
vertex 3220.88 8756.02 1300.26
vertex 3668.86 8993.4 1316.9
vertex 3695.25 8914.1 1300.26
endloop
endfacet
facet normal -0.02076823141838316 0.062304694255149534 -0.9978410723344298
outer loop
vertex 3194.4900000000002 8835.32 1316.9
vertex 3167.71 8915.92 1322.49
vertex 3641.9500000000003 9074 1322.49
endloop
endfacet
facet normal -0.02075310801194514 0.062276390736503144 -0.9978431538396597
outer loop
vertex 3194.4900000000002 8835.32 1316.9
vertex 3641.9500000000003 9074 1322.49
vertex 3668.86 8993.4 1316.9
endloop
endfacet
facet normal 0.020753108011945135 -0.062276390736503144 -0.9978431538396597
outer loop
vertex 3167.71 8915.92 1322.49
vertex 3140.8 8996.52 1316.9
vertex 3615.17 9154.6 1316.9
endloop
endfacet
facet normal 0.02076823141838316 -0.06230469425514953 -0.9978410723344298
outer loop
vertex 3167.71 8915.92 1322.49
vertex 3615.17 9154.6 1316.9
vertex 3641.9500000000003 9074 1322.49
endloop
endfacet
facet normal 0.061867404875793265 -0.18550054263908858 -0.9806946379452366
outer loop
vertex 3140.8 8996.52 1316.9
vertex 3114.4100000000003 9075.69 1300.26
vertex 3588.78 9233.9 1300.26
endloop
endfacet
facet normal 0.061733902548106935 -0.18525247565628478 -0.9807499403718557
outer loop
vertex 3140.8 8996.52 1316.9
vertex 3588.78 9233.9 1300.26
vertex 3615.17 9154.6 1316.9
endloop
endfacet
facet normal 0.1013373668011453 -0.30401210040343585 -0.9472631001459422
outer loop
vertex 3114.4100000000003 9075.69 1300.26
vertex 3088.9300000000003 9152.26 1272.96
vertex 3563.17 9310.34 1272.96
endloop
endfacet
facet normal 0.10148009965447743 -0.30427352805192287 -0.9471638767926873
outer loop
vertex 3114.4100000000003 9075.69 1300.26
vertex 3563.17 9310.34 1272.96
vertex 3588.78 9233.9 1300.26
endloop
endfacet
facet normal 0.140236001370837 -0.42032379588957014 -0.896471845920719
outer loop
vertex 3399.63 9255.87 1272.96
vertex 3399.63 9326.85 1239.68
vertex 3541.85 9374.300000000001 1239.68
endloop
endfacet
facet normal 0.1398729257166589 -0.41995260274835083 -0.8967025014442347
outer loop
vertex 3399.63 9255.87 1272.96
vertex 3541.85 9374.300000000001 1239.68
vertex 3563.17 9310.34 1272.96
endloop
endfacet
facet normal 0.13997012432425393 -0.41973475173772246 -0.8967893300437543
outer loop
vertex 3269.8900000000003 9258.99 1251.25
vertex 3399.63 9255.87 1272.96
vertex 3088.9300000000003 9152.26 1272.96
endloop
endfacet
facet normal 0.14015880612187212 -0.42002136671723056 -0.8966256524143625
outer loop
vertex 3269.8900000000003 9258.99 1251.25
vertex 3088.9300000000003 9152.26 1272.96
vertex 3064.75 9224.67 1235.26
endloop
endfacet
facet normal 0.14028951906268564 -0.42103340973689285 -0.8961304139055241
outer loop
vertex 3269.8900000000003 9258.99 1251.25
vertex 3064.75 9224.67 1235.26
vertex 3396.77 9335.300000000001 1235.26
endloop
endfacet
facet normal 0.14039050424092753 -0.4211832481156044 -0.8960441829651968
outer loop
vertex 3269.8900000000003 9258.99 1251.25
vertex 3396.77 9335.300000000001 1235.26
vertex 3399.63 9326.85 1239.68
endloop
endfacet
facet normal 0.13990936209686292 -0.42034341239684075 -0.8965136842526322
outer loop
vertex 3269.8900000000003 9258.99 1251.25
vertex 3399.63 9326.85 1239.68
vertex 3399.63 9255.87 1272.96
endloop
endfacet
facet normal 0.9490192721173416 0.31520736802920063 0.0025954363747211387
outer loop
vertex 3220.88 8756.02 1300.26
vertex 3270.54 8607.04 1235.26
vertex 3167.71 8915.92 1322.49
endloop
endfacet
facet normal 0.947759463901406 0.313907593139321 -0.05669234123581254
outer loop
vertex 3167.71 8915.92 1022.45
vertex 3153.15 8959.34 1019.46
vertex 3139.63 9000.16 1019.46
endloop
endfacet
facet normal 0.9486766147691592 0.31624722492263535 0.0006109982490990939
outer loop
vertex 3167.71 8915.92 1022.45
vertex 3139.63 9000.16 1019.46
vertex 3270.54 8607.04 1235.26
endloop
endfacet
facet normal 0.9475707269507778 0.3187283354289105 0.022846566934454048
outer loop
vertex 3153.15 8959.34 1019.46
vertex 3138.98 9002.11 1010.49
vertex 3134.17 9016.41 1010.49
endloop
endfacet
facet normal 0.9492540016985773 0.31440259928870257 -0.00823685739496651
outer loop
vertex 3153.15 8959.34 1019.46
vertex 3134.17 9016.41 1010.49
vertex 3139.63 9000.16 1019.46
endloop
endfacet
facet normal 0.9482305499564164 0.31757626972064895 0.0020339714033035124
outer loop
vertex 3196.44 8829.73 1010.49
vertex 3182.1400000000003 8872.37 1019.46
vertex 3270.54 8607.04 1235.26
endloop
endfacet
facet normal 0.9478050047413186 0.3188071379584561 0.005261347170358765
outer loop
vertex 3138.98 9002.11 1010.49
vertex 3125.2000000000003 9043.32 995.8000000000001
vertex 3134.17 9016.41 1010.49
endloop
endfacet
facet normal 0.9486832980505143 0.31622776601683605 -9.25830560703152e-16
outer loop
vertex 3112.2000000000003 9082.32 975.52
vertex 3114.4100000000003 9075.69 1300.26
vertex 3140.8 8996.52 1316.9
endloop
endfacet
facet normal 0.9485274726105055 0.31669483211375804 0.00013044372458793975
outer loop
vertex 3112.2000000000003 9082.32 975.52
vertex 3140.8 8996.52 1316.9
vertex 3167.71 8915.92 1322.49
endloop
endfacet
facet normal -0.1398915936731947 0.4192915163793779 0.8970088997952336
outer loop
vertex 3589.3 9231.95 979.94
vertex 3447.08 9184.5 979.94
vertex 3447.08 9150.57 995.8000000000001
endloop
endfacet
facet normal -0.1396228335991942 0.41886850079758375 0.8972483732932126
outer loop
vertex 3589.3 9231.95 979.94
vertex 3447.08 9150.57 995.8000000000001
vertex 3599.57 9201.4 995.8000000000001
endloop
endfacet
facet normal -0.13855309513173011 0.41665131232929836 0.8984457266656073
outer loop
vertex 3315.13 9130.81 984.49
vertex 3447.08 9184.5 979.94
vertex 3444.2200000000003 9193.08 975.52
endloop
endfacet
facet normal -0.139777601363721 0.41900468765603605 0.8971606845372083
outer loop
vertex 3315.13 9130.81 984.49
vertex 3444.2200000000003 9193.08 975.52
vertex 3112.2000000000003 9082.32 975.52
endloop
endfacet
facet normal -0.139928260262532 0.4196996403797709 0.8968122957704092
outer loop
vertex 3315.13 9130.81 984.49
vertex 3112.2000000000003 9082.32 975.52
vertex 3125.2000000000003 9043.32 995.8000000000001
endloop
endfacet
facet normal -0.13966646326945975 0.4191686824911297 0.8971013848258463
outer loop
vertex 3315.13 9130.81 984.49
vertex 3125.2000000000003 9043.32 995.8000000000001
vertex 3447.08 9150.57 995.8000000000001
endloop
endfacet
facet normal -0.13968112221278942 0.41930409841238947 0.8970358170953648
outer loop
vertex 3315.13 9130.81 984.49
vertex 3447.08 9150.57 995.8000000000001
vertex 3447.08 9184.5 979.94
endloop
endfacet
facet normal 0.27372409301920864 -0.8214939289906609 0.5002227958942881
outer loop
vertex 3396.77 9335.300000000001 1235.26
vertex 3064.75 9224.67 1235.26
vertex 3112.2000000000003 9082.32 975.52
endloop
endfacet
facet normal 0.27406989518718616 -0.8215663290000844 0.49991445228699855
outer loop
vertex 3396.77 9335.300000000001 1235.26
vertex 3112.2000000000003 9082.32 975.52
vertex 3444.2200000000003 9193.08 975.52
endloop
endfacet
facet normal -0.2742840051684754 0.8215008627705674 -0.4999046078762957
outer loop
vertex 3589.3 9179.56 893.88
vertex 3589.3 9443.07 1326.91
vertex 3668.34 9469.460000000001 1326.91
endloop
endfacet
facet normal -0.27428400516846646 0.8215008627705689 -0.4999046078762983
outer loop
vertex 3589.3 9179.56 893.88
vertex 3668.34 9469.460000000001 1326.91
vertex 3747.38 9232.34 893.88
endloop
endfacet
facet normal -0.2701929077916666 0.8226643296387313 -0.5002191452944806
outer loop
vertex 3589.3 9231.95 979.94
vertex 3541.85 9374.300000000001 1239.68
vertex 3541.85 9427.34 1326.91
endloop
endfacet
facet normal -0.27248502137222536 0.8219589487674843 -0.5001353813407224
outer loop
vertex 3589.3 9231.95 979.94
vertex 3541.85 9427.34 1326.91
vertex 3589.3 9443.07 1326.91
endloop
endfacet
facet normal -0.2737008071426405 0.8219471770055438 -0.49949044673755727
outer loop
vertex 3589.3 9179.56 893.88
vertex 3462.81 9137.44 893.88
vertex 3447.08 9184.5 979.94
endloop
endfacet
facet normal -0.2740724653945735 0.8214665127168748 -0.5000770462611905
outer loop
vertex 3589.3 9179.56 893.88
vertex 3447.08 9184.5 979.94
vertex 3589.3 9231.95 979.94
endloop
endfacet
facet normal -0.2741465142757188 0.821688456486661 -0.4996716613807928
outer loop
vertex 3541.85 9374.300000000001 1239.68
vertex 3399.63 9326.85 1239.68
vertex 3383.6400000000003 9374.56 1326.91
endloop
endfacet
facet normal -0.27412939823171467 0.8217129991329846 -0.49964069097802033
outer loop
vertex 3541.85 9374.300000000001 1239.68
vertex 3383.6400000000003 9374.56 1326.91
vertex 3541.85 9427.34 1326.91
endloop
endfacet
facet normal 0.15798005727570444 -0.4743735876221103 0.86603233246207
outer loop
vertex 3864.38 7932.7300000000005 295.62
vertex 4148.95 8027.5 295.62
vertex 3821.2200000000003 9010.56 893.88
endloop
endfacet
facet normal 0.15818920413815712 -0.4743509148745577 0.8660065734460717
outer loop
vertex 3864.38 7932.7300000000005 295.62
vertex 3821.2200000000003 9010.56 893.88
vertex 3536.65 8915.66 893.88
endloop
endfacet
facet normal -0.15817508465323646 0.4743085757615552 -0.866032342094674
outer loop
vertex 3900.26 8773.44 1326.91
vertex 4227.99 7790.38 728.65
vertex 3943.42 7695.4800000000005 728.65
endloop
endfacet
facet normal -0.15817508465323613 0.47430857576155533 -0.8660323420946741
outer loop
vertex 3900.26 8773.44 1326.91
vertex 3943.42 7695.4800000000005 728.65
vertex 3615.69 8678.54 1326.91
endloop
endfacet
facet normal 0.27386742695170285 -0.8216022808551275 -0.4999663234143934
outer loop
vertex 3742.05 8720.66 1326.91
vertex 3742.05 8984.17 893.88
vertex 3821.2200000000003 9010.56 893.88
endloop
endfacet
facet normal 0.2740812011621823 -0.8215685266363839 -0.4999046421168911
outer loop
vertex 3742.05 8720.66 1326.91
vertex 3821.2200000000003 9010.56 893.88
vertex 3900.26 8773.44 1326.91
endloop
endfacet
facet normal 0.2730880018693748 -0.8217056920166688 -0.500222649369658
outer loop
vertex 3742.05 8773.7 1239.68
vertex 3694.6 8916.050000000001 979.94
vertex 3694.6 8968.44 893.88
endloop
endfacet
facet normal 0.2724649668823552 -0.8218984538187004 -0.5002457130573201
outer loop
vertex 3742.05 8773.7 1239.68
vertex 3694.6 8968.44 893.88
vertex 3742.05 8984.17 893.88
endloop
endfacet
facet normal 0.27397709547767135 -0.8219312864330348 -0.4993651084488738
outer loop
vertex 3742.05 8720.66 1326.91
vertex 3615.69 8678.54 1326.91
vertex 3599.83 8726.25 1239.68
endloop
endfacet
facet normal 0.27415280084406135 -0.8217072989682168 -0.4996372250060177
outer loop
vertex 3742.05 8720.66 1326.91
vertex 3599.83 8726.25 1239.68
vertex 3742.05 8773.7 1239.68
endloop
endfacet
facet normal 0.27417955593284954 -0.8217874909329653 -0.49949063139819466
outer loop
vertex 3694.6 8916.050000000001 979.94
vertex 3552.38 8868.6 979.94
vertex 3536.65 8915.66 893.88
endloop
endfacet
facet normal 0.2744662210725801 -0.8213705876925625 -0.5000186508158592
outer loop
vertex 3694.6 8916.050000000001 979.94
vertex 3536.65 8915.66 893.88
vertex 3694.6 8968.44 893.88
endloop
endfacet
facet normal 0.13314210806202076 -0.4184466253378651 0.8984295191077337
outer loop
vertex 3552.38 8868.6 979.94
vertex 3552.38 8859.11 975.52
vertex 3555.2400000000002 8860.02 975.52
endloop
endfacet
facet normal 0.13990120966849878 -0.41929094107137355 0.897007669013355
outer loop
vertex 3684.46 8946.6 995.8000000000001
vertex 3552.38 8902.53 995.8000000000001
vertex 3552.38 8868.6 979.94
endloop
endfacet
facet normal 0.13988134488107135 -0.41926079808188904 0.8970248561472532
outer loop
vertex 3684.46 8946.6 995.8000000000001
vertex 3552.38 8868.6 979.94
vertex 3694.6 8916.050000000001 979.94
endloop
endfacet
facet normal 0.13935861550069825 -0.4183936540630989 0.8975109617856801
outer loop
vertex 3552.38 8902.53 995.8000000000001
vertex 3210.09 8788.52 995.8000000000001
vertex 3223.2200000000003 8749.39 975.52
endloop
endfacet
facet normal 0.13967799600110803 -0.4190339880033195 0.8971625127763355
outer loop
vertex 3552.38 8902.53 995.8000000000001
vertex 3223.2200000000003 8749.39 975.52
vertex 3552.38 8859.11 975.52
endloop
endfacet
facet normal -0.1399044763334205 0.41971342900026937 -0.8968095533716774
outer loop
vertex 3599.83 8726.25 1239.68
vertex 3599.83 8797.36 1272.96
vertex 3720.73 8837.66 1272.96
endloop
endfacet
facet normal -0.1400882141430916 0.41988083910284973 -0.8967024998361977
outer loop
vertex 3599.83 8726.25 1239.68
vertex 3720.73 8837.66 1272.96
vertex 3742.05 8773.7 1239.68
endloop
endfacet
facet normal -0.15175122138735977 0.4173158588149076 -0.8960016968672664
outer loop
vertex 3599.83 8716.76 1235.26
vertex 3599.83 8726.25 1239.68
vertex 3602.69 8717.800000000001 1235.26
endloop
endfacet
facet normal -0.13985143428354666 0.41972000360216316 -0.8968147494912397
outer loop
vertex 3599.83 8716.76 1235.26
vertex 3270.54 8607.04 1235.26
vertex 3246.4900000000002 8679.58 1272.96
endloop
endfacet
facet normal -0.13984066244444637 0.4195219873333365 -0.8969090763678258
outer loop
vertex 3599.83 8716.76 1235.26
vertex 3246.4900000000002 8679.58 1272.96
vertex 3599.83 8797.36 1272.96
endloop
endfacet
facet normal -0.9543578436522895 -0.21118843038847804 0.21118843038718527
outer loop
vertex 3589.3 9232.08 980.07
vertex 3589.3 9231.95 979.94
vertex 3599.57 9201.4 995.8000000000001
endloop
endfacet
facet normal -0.9413063391037525 -0.33525606806959923 -0.03931596095231098
outer loop
vertex 3589.3 9232.08 980.07
vertex 3599.57 9201.4 995.8000000000001
vertex 3739.71 8780.85 1226.68
endloop
endfacet
facet normal -0.273742850703014 0.8215502240840088 0.5001200665805189
outer loop
vertex 3555.2400000000002 8860.02 975.52
vertex 3223.2200000000003 8749.39 975.52
vertex 3270.54 8607.04 1235.26
endloop
endfacet
facet normal -0.27397336417027013 0.8215985275293884 0.49991444796761514
outer loop
vertex 3555.2400000000002 8860.02 975.52
vertex 3270.54 8607.04 1235.26
vertex 3602.69 8717.800000000001 1235.26
endloop
endfacet
facet normal 0.009671425335891935 -0.02899838212873431 0.9995326694840385
outer loop
vertex 4583.54 7830.68 301.34000000000003
vertex 4109.17 7672.47 301.34000000000003
vertex 4122.6900000000005 7632.17 300.04
endloop
endfacet
facet normal 0.009648016125148814 -0.02894404837544644 0.9995344705654171
outer loop
vertex 4583.54 7830.68 301.34000000000003
vertex 4122.6900000000005 7632.17 300.04
vertex 4596.93 7790.25 300.04
endloop
endfacet
facet normal 0.03177617536575992 -0.09535465782044251 0.9949360602124494
outer loop
vertex 4570.150000000001 7870.85 305.63
vertex 4095.78 7712.77 305.63
vertex 4109.17 7672.47 301.34000000000003
endloop
endfacet
facet normal 0.031891375876640864 -0.09562171780925427 0.9949067429804173
outer loop
vertex 4570.150000000001 7870.85 305.63
vertex 4109.17 7672.47 301.34000000000003
vertex 4583.54 7830.68 301.34000000000003
endloop
endfacet
facet normal 0.05131117123540981 -0.15380702766374285 0.9867677345493695
outer loop
vertex 4556.76 7910.76 312.52000000000004
vertex 4082.52 7752.55 312.52000000000004
vertex 4095.78 7712.77 305.63
endloop
endfacet
facet normal 0.051065584393233665 -0.15323874790370878 0.9868688829988922
outer loop
vertex 4556.76 7910.76 312.52000000000004
vertex 4095.78 7712.77 305.63
vertex 4570.150000000001 7870.85 305.63
endloop
endfacet
facet normal 0.07137658561022082 -0.2141297568306625 0.9741939387341046
outer loop
vertex 4543.63 7950.02 322.14
vertex 4069.3900000000003 7791.9400000000005 322.14
vertex 4082.52 7752.55 312.52000000000004
endloop
endfacet
facet normal 0.07163130392022789 -0.2147173350049231 0.974045903613927
outer loop
vertex 4543.63 7950.02 322.14
vertex 4082.52 7752.55 312.52000000000004
vertex 4556.76 7910.76 312.52000000000004
endloop
endfacet
facet normal 0.0915708270998299 -0.27471248129948994 0.9571561190540081
outer loop
vertex 4530.76 7988.76 334.49
vertex 4056.52 7830.68 334.49
vertex 4069.3900000000003 7791.9400000000005 322.14
endloop
endfacet
facet normal 0.09157082709983025 -0.2747124812994907 0.9571561190540078
outer loop
vertex 4530.76 7988.76 334.49
vertex 4069.3900000000003 7791.9400000000005 322.14
vertex 4543.63 7950.02 322.14
endloop
endfacet
facet normal 0.11185640523506608 -0.33556921570519854 0.9353509748104647
outer loop
vertex 4518.150000000001 8026.59 349.57
vertex 4043.9100000000003 7868.51 349.57
vertex 4056.52 7830.68 334.49
endloop
endfacet
facet normal 0.11185640523506615 -0.3355692157051987 0.9353509748104646
outer loop
vertex 4518.150000000001 8026.59 349.57
vertex 4056.52 7830.68 334.49
vertex 4530.76 7988.76 334.49
endloop
endfacet
facet normal 0.13027129667045595 -0.3909210210119197 0.9111586824449386
outer loop
vertex 4505.93 8063.38 367.12
vertex 4031.56 7905.3 367.12
vertex 4043.9100000000003 7868.51 349.57
endloop
endfacet
facet normal 0.13041810437777854 -0.391254313133336 0.9109946105795952
outer loop
vertex 4505.93 8063.38 367.12
vertex 4043.9100000000003 7868.51 349.57
vertex 4518.150000000001 8026.59 349.57
endloop
endfacet
facet normal 0.14926584053663317 -0.4479743768712014 0.8814979673917298
outer loop
vertex 4494.1 8099 387.27000000000004
vertex 4164.81 7989.280000000001 387.27000000000004
vertex 4164.81 7949.63 367.12
endloop
endfacet
facet normal 0.14962877631392474 -0.4487153246259867 0.881059468336044
outer loop
vertex 4494.1 8099 387.27000000000004
vertex 4164.81 7949.63 367.12
vertex 4505.93 8063.38 367.12
endloop
endfacet
facet normal 0.1439170309735391 -0.45231066877369236 0.8801721122083206
outer loop
vertex 4164.81 7989.280000000001 387.27000000000004
vertex 4161.95 7988.37 387.27000000000004
vertex 4164.81 7979.92 382.46000000000004
endloop
endfacet
facet normal 0.1483888721469827 -0.4463896016509546 0.8824494694660133
outer loop
vertex 4164.81 7979.92 382.46000000000004
vertex 4022.46 7932.6 382.46000000000004
vertex 4031.56 7905.3 367.12
endloop
endfacet
facet normal 0.14863726823265094 -0.44678357753216413 0.8822082505507958
outer loop
vertex 4164.81 7979.92 382.46000000000004
vertex 4031.56 7905.3 367.12
vertex 4164.81 7949.63 367.12
endloop
endfacet
facet normal -0.13110484186574106 0.3930990698176573 -0.9101014458552693
outer loop
vertex 4080.1800000000003 7759.570000000001 626.73
vertex 4073.55 7779.33 636.22
vertex 4547.92 7937.54 636.22
endloop
endfacet
facet normal -0.13036864776214122 0.39121315434543863 -0.9110193650783516
outer loop
vertex 4080.1800000000003 7759.570000000001 626.73
vertex 4547.92 7937.54 636.22
vertex 4554.55 7917.650000000001 626.73
endloop
endfacet
facet normal -0.11097592592600893 0.33301904087500545 -0.9363667349279108
outer loop
vertex 4086.94 7739.16 618.6700000000001
vertex 4080.1800000000003 7759.570000000001 626.73
vertex 4554.55 7917.650000000001 626.73
endloop
endfacet
facet normal -0.11097592592601277 0.3330190408750154 -0.936366734927907
outer loop
vertex 4086.94 7739.16 618.6700000000001
vertex 4554.55 7917.650000000001 626.73
vertex 4561.31 7897.240000000001 618.6700000000001
endloop
endfacet
facet normal -0.0930427775532609 0.2792048481018483 -0.9557131862340282
outer loop
vertex 4093.96 7718.360000000001 611.91
vertex 4086.94 7739.16 618.6700000000001
vertex 4561.31 7897.240000000001 618.6700000000001
endloop
endfacet
facet normal -0.09322515134351 0.27967545403053 -0.9555578012709626
outer loop
vertex 4093.96 7718.360000000001 611.91
vertex 4561.31 7897.240000000001 618.6700000000001
vertex 4568.2 7876.4400000000005 611.91
endloop
endfacet
facet normal -0.07136987927080235 0.21410963781240705 -0.9741988520464963
outer loop
vertex 4100.9800000000005 7697.04 606.71
vertex 4093.96 7718.360000000001 611.91
vertex 4568.2 7876.4400000000005 611.91
endloop
endfacet
facet normal -0.07165411877979339 0.21484460100859976 -0.9740161624323012
outer loop
vertex 4100.9800000000005 7697.04 606.71
vertex 4568.2 7876.4400000000005 611.91
vertex 4575.35 7855.25 606.71
endloop
endfacet
facet normal -0.05203491136319398 0.15601922067731697 -0.9863824667838876
outer loop
vertex 4108.13 7675.59 602.94
vertex 4100.9800000000005 7697.04 606.71
vertex 4575.35 7855.25 606.71
endloop
endfacet
facet normal -0.05172191332241556 0.15520827443543947 -0.9865268547936452
outer loop
vertex 4108.13 7675.59 602.94
vertex 4575.35 7855.25 606.71
vertex 4582.5 7833.67 602.94
endloop
endfacet
facet normal -0.03037199172670987 0.09114095214701015 -0.995374737955655
outer loop
vertex 4115.41 7653.88 600.73
vertex 4108.13 7675.59 602.94
vertex 4582.5 7833.67 602.94
endloop
endfacet
facet normal -0.03043361410583863 0.09130084231751606 -0.9953582025203637
outer loop
vertex 4115.41 7653.88 600.73
vertex 4582.5 7833.67 602.94
vertex 4589.650000000001 7811.96 600.73
endloop
endfacet
facet normal -0.01076574856672407 0.03229724570017227 -0.9994203252775984
outer loop
vertex 4122.6900000000005 7632.17 599.95
vertex 4115.41 7653.88 600.73
vertex 4589.650000000001 7811.96 600.73
endloop
endfacet
facet normal -0.010765748566724232 0.0322972457001727 -0.9994203252775985
outer loop
vertex 4122.6900000000005 7632.17 599.95
vertex 4589.650000000001 7811.96 600.73
vertex 4596.93 7790.25 599.95
endloop
endfacet
facet normal -0.947695161515802 -0.3191719455882147 -0.0017748208281038627
outer loop
vertex 4539.47 7962.63 636.22
vertex 4547.92 7937.54 636.22
vertex 4541.42 7956.780000000001 647.01
endloop
endfacet
facet normal -0.9484264696288115 -0.3169611776738896 -0.004779493175025692
outer loop
vertex 4539.47 7962.63 636.22
vertex 4537.78 7967.83 626.73
vertex 4554.55 7917.650000000001 626.73
endloop
endfacet
facet normal -0.9476743491087403 -0.3191649362283235 0.006860869018979671
outer loop
vertex 4539.47 7962.63 636.22
vertex 4554.55 7917.650000000001 626.73
vertex 4547.92 7937.54 636.22
endloop
endfacet
facet normal -0.9488366808984997 -0.31573074996969486 -0.004800677565980932
outer loop
vertex 4537.78 7967.83 626.73
vertex 4536.35 7972.25 618.6700000000001
vertex 4561.31 7897.240000000001 618.6700000000001
endloop
endfacet
facet normal -0.9484129031788537 -0.31695664380848915 0.007172937300491506
outer loop
vertex 4537.78 7967.83 626.73
vertex 4561.31 7897.240000000001 618.6700000000001
vertex 4554.55 7917.650000000001 626.73
endloop
endfacet
facet normal -0.9486131369515722 -0.3162043789838545 0.012161706884006099
outer loop
vertex 4536.35 7972.25 618.6700000000001
vertex 4535.05 7975.89 611.91
vertex 4568.2 7876.4400000000005 611.91
endloop
endfacet
facet normal -0.948838447831781 -0.3157313379266965 0.004395698715225446
outer loop
vertex 4536.35 7972.25 618.6700000000001
vertex 4568.2 7876.4400000000005 611.91
vertex 4561.31 7897.240000000001 618.6700000000001
endloop
endfacet
facet normal -0.9485523758524808 -0.31651695067919644 -0.008087657099380648
outer loop
vertex 4535.05 7975.89 611.91
vertex 4534.14 7978.75 606.71
vertex 4575.35 7855.25 606.71
endloop
endfacet
facet normal -0.9485647348683907 -0.31618824495612735 -0.015809412247887084
outer loop
vertex 4535.05 7975.89 611.91
vertex 4575.35 7855.25 606.71
vertex 4568.2 7876.4400000000005 611.91
endloop
endfacet
facet normal -0.9487122493431859 -0.3159580547724231 -0.010750607918575298
outer loop
vertex 4534.14 7978.75 606.71
vertex 4533.49 7980.83 602.94
vertex 4582.5 7833.67 602.94
endloop
endfacet
facet normal -0.9485055987612312 -0.3165013419024322 0.012807407722018943
outer loop
vertex 4534.14 7978.75 606.71
vertex 4582.5 7833.67 602.94
vertex 4575.35 7855.25 606.71
endloop
endfacet
facet normal -0.9480947391186704 -0.31579014992799254 0.037322203364167916
outer loop
vertex 4533.49 7980.83 602.94
vertex 4532.97 7982.13 600.73
vertex 4589.650000000001 7811.96 600.73
endloop
endfacet
facet normal -0.9482041850709194 -0.3157888496216772 0.03444162987738756
outer loop
vertex 4533.49 7980.83 602.94
vertex 4589.650000000001 7811.96 600.73
vertex 4582.5 7833.67 602.94
endloop
endfacet
facet normal -0.9488168718613763 -0.3158267305191497 -0.00014128261276772478
outer loop
vertex 4552.99 7922.070000000001 411.32
vertex 4532.97 7982.13 600.73
vertex 4494.1 8099 387.27000000000004
endloop
endfacet
facet normal -0.9488637517292056 -0.3156842355221098 0.001021810744518709
outer loop
vertex 4552.99 7922.070000000001 411.32
vertex 4494.1 8099 387.27000000000004
vertex 4518.150000000001 8026.59 349.57
endloop
endfacet
facet normal -0.9486832980505157 -0.3162277660168319 2.0952119865716882e-15
outer loop
vertex 4552.99 7922.070000000001 411.32
vertex 4518.150000000001 8026.59 349.57
vertex 4530.76 7988.76 334.49
endloop
endfacet
facet normal -0.948932171739018 -0.31547933790600163 0.0007216599350102074
outer loop
vertex 4552.99 7922.070000000001 411.32
vertex 4530.76 7988.76 334.49
vertex 4543.63 7950.02 322.14
endloop
endfacet
facet normal -0.9483597067038777 -0.31719686552928145 0.00012328395609582075
outer loop
vertex 4552.99 7922.070000000001 411.32
vertex 4543.63 7950.02 322.14
vertex 4556.76 7910.76 312.52000000000004
endloop
endfacet
facet normal -0.9480513126238085 -0.3181173538631663 0.00024042331579318744
outer loop
vertex 4552.99 7922.070000000001 411.32
vertex 4556.76 7910.76 312.52000000000004
vertex 4570.150000000001 7870.85 305.63
endloop
endfacet
facet normal -0.9490154837476611 -0.31522670749456316 -0.0013170001252624033
outer loop
vertex 4552.99 7922.070000000001 411.32
vertex 4570.150000000001 7870.85 305.63
vertex 4596.93 7790.25 300.04
endloop
endfacet
facet normal -0.9486832980505132 -0.31622776601683994 0
outer loop
vertex 4552.99 7922.070000000001 411.32
vertex 4596.93 7790.25 300.04
vertex 4596.93 7790.25 599.95
endloop
endfacet
facet normal -0.9481272182157874 -0.3178885239668151 -0.0012901196040055601
outer loop
vertex 4552.99 7922.070000000001 411.32
vertex 4596.93 7790.25 599.95
vertex 4589.650000000001 7811.96 600.73
endloop
endfacet
facet normal -0.9487557497790889 -0.3160103184902099 -0.00007660832086514986
outer loop
vertex 4552.99 7922.070000000001 411.32
vertex 4589.650000000001 7811.96 600.73
vertex 4532.97 7982.13 600.73
endloop
endfacet
facet normal -0.9492005041583838 -0.3134889159837321 -0.02725990573745048
outer loop
vertex 4570.150000000001 7870.85 305.63
vertex 4583.54 7830.68 301.34000000000003
vertex 4596.93 7790.25 300.04
endloop
endfacet
facet normal -0.9489589159962434 -0.31539943608025545 0.0004140911634320693
outer loop
vertex 4494.1 8099 387.27000000000004
vertex 4505.93 8063.38 367.12
vertex 4518.150000000001 8026.59 349.57
endloop
endfacet
facet normal 0.950346773673396 0.31102258047491477 0.01029389155236472
outer loop
vertex 4073.55 7779.33 636.22
vertex 4068.8700000000003 7793.63 636.22
vertex 4069.9100000000003 7790.25 642.33
endloop
endfacet
facet normal 0.9483666071592708 0.31716896464598954 0.002150881355272425
outer loop
vertex 4073.55 7779.33 636.22
vertex 4080.1800000000003 7759.570000000001 626.73
vertex 4067.05 7798.83 626.73
endloop
endfacet
facet normal 0.9503305697614397 0.31101727737645635 -0.011834751802788127
outer loop
vertex 4073.55 7779.33 636.22
vertex 4067.05 7798.83 626.73
vertex 4068.8700000000003 7793.63 636.22
endloop
endfacet
facet normal 0.9488698567718854 0.3156483904880055 -0.0034768508787485592
outer loop
vertex 4080.1800000000003 7759.570000000001 626.73
vertex 4086.94 7739.16 618.6700000000001
vertex 4065.6200000000003 7803.25 618.6700000000001
endloop
endfacet
facet normal 0.9483535417359339 0.3171645950838801 0.005672697963839076
outer loop
vertex 4080.1800000000003 7759.570000000001 626.73
vertex 4065.6200000000003 7803.25 618.6700000000001
vertex 4067.05 7798.83 626.73
endloop
endfacet
facet normal 0.9482353470822243 0.3174708651024183 0.00787250627028512
outer loop
vertex 4086.94 7739.16 618.6700000000001
vertex 4093.96 7718.360000000001 611.91
vertex 4064.32 7806.89 611.91
endloop
endfacet
facet normal 0.9488013448867401 0.3156255995160708 -0.012509551200344863
outer loop
vertex 4086.94 7739.16 618.6700000000001
vertex 4064.32 7806.89 611.91
vertex 4065.6200000000003 7803.25 618.6700000000001
endloop
endfacet
facet normal 0.9485647348683912 0.3161882449561317 -0.01580941224776989
outer loop
vertex 4093.96 7718.360000000001 611.91
vertex 4100.9800000000005 7697.04 606.71
vertex 4063.4100000000003 7809.75 606.71
endloop
endfacet
facet normal 0.9482291104909846 0.3174687770806816 0.008667733058459179
outer loop
vertex 4093.96 7718.360000000001 611.91
vertex 4063.4100000000003 7809.75 606.71
vertex 4064.32 7806.89 611.91
endloop
endfacet
facet normal 0.9486832980505138 0.31622776601683794 -7.629686300331621e-14
outer loop
vertex 4100.9800000000005 7697.04 606.71
vertex 4108.13 7675.59 602.94
vertex 4062.76 7811.7 602.94
endloop
endfacet
facet normal 0.9486832980505134 0.31622776601683905 -3.858080002859586e-14
outer loop
vertex 4100.9800000000005 7697.04 606.71
vertex 4062.76 7811.7 602.94
vertex 4063.4100000000003 7809.75 606.71
endloop
endfacet
facet normal 0.9485192085745763 0.3161730695248561 0.01859841585431528
outer loop
vertex 4108.13 7675.59 602.94
vertex 4115.41 7653.88 600.73
vertex 4062.3700000000003 7813 600.73
endloop
endfacet
facet normal 0.9485192085745724 0.31617306952485746 0.018598415854484494
outer loop
vertex 4108.13 7675.59 602.94
vertex 4062.3700000000003 7813 600.73
vertex 4062.76 7811.7 602.94
endloop
endfacet
facet normal 0.9481287743870217 0.3178831777049814 0.0014534481576664892
outer loop
vertex 4074.33 7777.25 416.26
vertex 4115.41 7653.88 600.73
vertex 4122.6900000000005 7632.17 599.95
endloop
endfacet
facet normal 0.9486832980505125 0.31622776601684144 0
outer loop
vertex 4074.33 7777.25 416.26
vertex 4122.6900000000005 7632.17 599.95
vertex 4122.6900000000005 7632.17 300.04
endloop
endfacet
facet normal 0.9485154476918511 0.316730105586659 -0.0006969253840474652
outer loop
vertex 4074.33 7777.25 416.26
vertex 4122.6900000000005 7632.17 300.04
vertex 4095.78 7712.77 305.63
endloop
endfacet
facet normal 0.9486567463943011 0.31630712700274954 -0.0004229986349013519
outer loop
vertex 4074.33 7777.25 416.26
vertex 4095.78 7712.77 305.63
vertex 4069.3900000000003 7791.9400000000005 322.14
endloop
endfacet
facet normal 0.9489463538198554 0.31543697957800426 -0.000574009327121364
outer loop
vertex 4074.33 7777.25 416.26
vertex 4069.3900000000003 7791.9400000000005 322.14
vertex 4056.52 7830.68 334.49
endloop
endfacet
facet normal 0.9486832980505159 0.31622776601683206 -2.5448180276801575e-15
outer loop
vertex 4074.33 7777.25 416.26
vertex 4056.52 7830.68 334.49
vertex 4043.9100000000003 7868.51 349.57
endloop
endfacet
facet normal 0.9482754216710306 0.31744338691024543 0.0018495300974161303
outer loop
vertex 4074.33 7777.25 416.26
vertex 4043.9100000000003 7868.51 349.57
vertex 4031.56 7905.3 367.12
endloop
endfacet
facet normal 0.9485685741802281 0.3165710017873992 -0.0006788998537201596
outer loop
vertex 4074.33 7777.25 416.26
vertex 4031.56 7905.3 367.12
vertex 4022.46 7932.6 382.46000000000004
endloop
endfacet
facet normal 0.9485168807630656 0.31672655965502733 0.00011539755113915823
outer loop
vertex 4074.33 7777.25 416.26
vertex 4022.46 7932.6 382.46000000000004
vertex 4062.3700000000003 7813 600.73
endloop
endfacet
facet normal 0.9486832744931637 0.3162277581643852 0.00022285254274988047
outer loop
vertex 4074.33 7777.25 416.26
vertex 4062.3700000000003 7813 600.73
vertex 4115.41 7653.88 600.73
endloop
endfacet
facet normal 0.946864922375949 0.3189859107359234 -0.04116804010347974
outer loop
vertex 4122.6900000000005 7632.17 300.04
vertex 4109.17 7672.47 301.34000000000003
vertex 4095.78 7712.77 305.63
endloop
endfacet
facet normal 0.9486832980504983 0.31622776601688435 -2.558543965066404e-13
outer loop
vertex 4095.78 7712.77 305.63
vertex 4082.52 7752.55 312.52000000000004
vertex 4069.3900000000003 7791.9400000000005 322.14
endloop
endfacet
facet normal 0.27362766178303827 -0.8215260585847981 -0.5002227881387192
outer loop
vertex 4209.400000000001 7846.02 647.01
vertex 4161.95 7988.37 387.27000000000004
vertex 4494.1 8099 387.27000000000004
endloop
endfacet
facet normal 0.2740886886996886 -0.8216226654213643 -0.49981155087970697
outer loop
vertex 4209.400000000001 7846.02 647.01
vertex 4494.1 8099 387.27000000000004
vertex 4541.42 7956.780000000001 647.01
endloop
endfacet
facet normal -0.14901599069095464 0.44651892121833825 -0.8822783503591171
outer loop
vertex 4212.26 7825.610000000001 636.22
vertex 4212.26 7846.93 647.01
vertex 4541.42 7956.780000000001 647.01
endloop
endfacet
facet normal -0.14842547810100853 0.4451040469881603 -0.8830924440879611
outer loop
vertex 4212.26 7825.610000000001 636.22
vertex 4541.42 7956.780000000001 647.01
vertex 4547.92 7937.54 636.22
endloop
endfacet
facet normal -0.14242489828680066 0.44762110890139356 -0.8828082981111364
outer loop
vertex 4212.26 7837.7 642.33
vertex 4209.400000000001 7846.02 647.01
vertex 4212.26 7846.93 647.01
endloop
endfacet
facet normal -0.14838929238367024 0.4447510532959943 -0.8832763545448147
outer loop
vertex 4212.26 7825.610000000001 636.22
vertex 4073.55 7779.33 636.22
vertex 4069.9100000000003 7790.25 642.33
endloop
endfacet
facet normal -0.14867835291094963 0.4460350587328504 -0.8825800098330292
outer loop
vertex 4212.26 7825.610000000001 636.22
vertex 4069.9100000000003 7790.25 642.33
vertex 4212.26 7837.7 642.33
endloop
endfacet
facet normal -0.2738778027612592 0.8216334082837804 0.4999094833533803
outer loop
vertex 4212.26 7837.7 642.33
vertex 4069.9100000000003 7790.25 642.33
vertex 4069.9100000000003 7737.7300000000005 728.65
endloop
endfacet
facet normal -0.27361862379771085 0.8215314729333768 0.5002188398001048
outer loop
vertex 4212.26 7837.7 642.33
vertex 4069.9100000000003 7737.7300000000005 728.65
vertex 4227.99 7790.38 728.65
endloop
endfacet
facet normal -0.2741558002782841 0.8214642289669106 0.500035116468406
outer loop
vertex 4069.9100000000003 7790.25 642.33
vertex 4022.46 7932.6 382.46000000000004
vertex 4022.46 7721.87 728.65
endloop
endfacet
facet normal -0.2745716557810853 0.8214643800007624 0.4998066408438332
outer loop
vertex 4069.9100000000003 7790.25 642.33
vertex 4022.46 7721.87 728.65
vertex 4069.9100000000003 7737.7300000000005 728.65
endloop
endfacet
facet normal -0.2736903826427334 0.8219158713314191 0.4995476703002311
outer loop
vertex 4148.95 8027.5 295.62
vertex 4022.46 7985.38 295.62
vertex 4022.46 7932.6 382.46000000000004
endloop
endfacet
facet normal -0.2731631008783883 0.8217406468731808 0.5001242141657908
outer loop
vertex 4148.95 8027.5 295.62
vertex 4022.46 7932.6 382.46000000000004
vertex 4164.81 7979.92 382.46000000000004
endloop
endfacet
facet normal -0.27364220381348486 0.8216022712029623 0.5000896442101486
outer loop
vertex 4022.46 7985.38 295.62
vertex 3864.38 7932.7300000000005 295.62
vertex 3943.42 7695.4800000000005 728.65
endloop
endfacet
facet normal -0.274284005168458 0.8215008627705717 0.4999046078762985
outer loop
vertex 4022.46 7985.38 295.62
vertex 3943.42 7695.4800000000005 728.65
vertex 4022.46 7721.87 728.65
endloop
endfacet
facet normal -0.31596769841677486 0.9487699476465336 0
outer loop
vertex 4857.71 4952.610000000001 700.0500000000001
vertex 5142.28 5047.38 700.0500000000001
vertex 5142.28 5047.38 199.94
endloop
endfacet
facet normal -0.31596769841677486 0.9487699476465336 0
outer loop
vertex 4857.71 4952.610000000001 700.0500000000001
vertex 5142.28 5047.38 199.94
vertex 4857.71 4952.610000000001 199.94
endloop
endfacet
facet normal 0.31596769841677763 -0.9487699476465326 0
outer loop
vertex 3980.34 7584.72 700.0500000000001
vertex 3980.34 7584.72 599.95
vertex 4264.91 7679.490000000001 599.95
endloop
endfacet
facet normal 0.31596769841677763 -0.9487699476465326 0
outer loop
vertex 3980.34 7584.72 700.0500000000001
vertex 4264.91 7679.490000000001 599.95
vertex 4264.91 7679.490000000001 700.0500000000001
endloop
endfacet
facet normal 0.3162277660168361 -0.9486832980505144 0
outer loop
vertex 3980.34 7584.72 599.95
vertex 3980.34 7584.72 300.04
vertex 4122.6900000000005 7632.17 300.04
endloop
endfacet
facet normal 0.3162277660168361 -0.9486832980505144 0
outer loop
vertex 3980.34 7584.72 599.95
vertex 4122.6900000000005 7632.17 300.04
vertex 4122.6900000000005 7632.17 599.95
endloop
endfacet
facet normal 0.31596769841677763 -0.9487699476465326 0
outer loop
vertex 3980.34 7584.72 300.04
vertex 3980.34 7584.72 199.94
vertex 4264.91 7679.490000000001 199.94
endloop
endfacet
facet normal 0.31596769841677763 -0.9487699476465326 0
outer loop
vertex 3980.34 7584.72 300.04
vertex 4264.91 7679.490000000001 199.94
vertex 4264.91 7679.490000000001 300.04
endloop
endfacet
facet normal -0.3164506098340277 0.948608987694968 0
outer loop
vertex 4596.93 7790.25 599.95
vertex 4596.93 7790.25 300.04
vertex 4264.91 7679.490000000001 300.04
endloop
endfacet
facet normal -0.3164506098340277 0.948608987694968 0
outer loop
vertex 4596.93 7790.25 599.95
vertex 4264.91 7679.490000000001 300.04
vertex 4264.91 7679.490000000001 599.95
endloop
endfacet
endsolid JSCAD
