solid JSCAD
facet normal -1 0 0
outer loop
vertex 0 0 0
vertex 0 0 3999.9700000000003
vertex 0 15000.050000000001 3999.9700000000003
endloop
endfacet
facet normal -1 0 0
outer loop
vertex 0 0 0
vertex 0 15000.050000000001 3999.9700000000003
vertex 0 15000.050000000001 0
endloop
endfacet
facet normal 1 0 0
outer loop
vertex 19999.98 0 0
vertex 19999.98 15000.050000000001 0
vertex 19999.98 15000.050000000001 3999.9700000000003
endloop
endfacet
facet normal 1 0 0
outer loop
vertex 19999.98 0 0
vertex 19999.98 15000.050000000001 3999.9700000000003
vertex 19999.98 0 3999.9700000000003
endloop
endfacet
facet normal 0 -1 0
outer loop
vertex 0 0 0
vertex 19999.98 0 0
vertex 19999.98 0 3999.9700000000003
endloop
endfacet
facet normal 0 -1 0
outer loop
vertex 0 0 0
vertex 19999.98 0 3999.9700000000003
vertex 0 0 3999.9700000000003
endloop
endfacet
facet normal 0 1 0
outer loop
vertex 0 15000.050000000001 0
vertex 0 15000.050000000001 3999.9700000000003
vertex 19999.98 15000.050000000001 3999.9700000000003
endloop
endfacet
facet normal 0 1 0
outer loop
vertex 0 15000.050000000001 0
vertex 19999.98 15000.050000000001 3999.9700000000003
vertex 19999.98 15000.050000000001 0
endloop
endfacet
facet normal 0 0 -1
outer loop
vertex 0 0 0
vertex 0 15000.050000000001 0
vertex 19999.98 15000.050000000001 0
endloop
endfacet
facet normal 0 0 -1
outer loop
vertex 0 0 0
vertex 19999.98 15000.050000000001 0
vertex 19999.98 0 0
endloop
endfacet
facet normal 0 0 1
outer loop
vertex 0 0 3999.9700000000003
vertex 19999.98 0 3999.9700000000003
vertex 19999.98 15000.050000000001 3999.9700000000003
endloop
endfacet
facet normal 0 0 1
outer loop
vertex 0 0 3999.9700000000003
vertex 19999.98 15000.050000000001 3999.9700000000003
vertex 0 15000.050000000001 3999.9700000000003
endloop
endfacet
facet normal 0.4472135954999598 -0.894427190999915 0
outer loop
vertex 2500.03 12500.02 358.54
vertex 2678.9100000000003 12589.460000000001 199.94
vertex 2678.9100000000003 12589.460000000001 275.86
endloop
endfacet
facet normal 0.4472135954999597 -0.8944271909999149 0
outer loop
vertex 2500.03 12500.02 358.54
vertex 2678.9100000000003 12589.460000000001 275.86
vertex 2678.9100000000003 12589.460000000001 599.95
endloop
endfacet
facet normal 0.44721359549995976 -0.894427190999915 0
outer loop
vertex 2500.03 12500.02 358.54
vertex 2678.9100000000003 12589.460000000001 599.95
vertex 2321.15 12410.58 599.95
endloop
endfacet
facet normal 0.4472135954999597 -0.8944271909999149 0
outer loop
vertex 2500.03 12500.02 358.54
vertex 2321.15 12410.58 599.95
vertex 2321.15 12410.58 275.86
endloop
endfacet
facet normal 0.4472135954999598 -0.894427190999915 0
outer loop
vertex 2500.03 12500.02 358.54
vertex 2321.15 12410.58 275.86
vertex 2321.15 12410.58 199.94
endloop
endfacet
facet normal 0.44721359549995976 -0.894427190999915 0
outer loop
vertex 2500.03 12500.02 358.54
vertex 2321.15 12410.58 199.94
vertex 2678.9100000000003 12589.460000000001 199.94
endloop
endfacet
facet normal 0.9135172927605849 0.4060076856713316 0.025375480353703718
outer loop
vertex 3457.87 10137.01 1261.91
vertex 3457.35 10138.18 1261.91
vertex 3457.7400000000002 10137.27 1262.43
endloop
endfacet
facet normal 0.8946609645732143 0.44674422963088795 -0.0011626523256148315
outer loop
vertex 3592.6800000000003 9867.52 1301.82
vertex 3623.36 9806.16 1332.76
vertex 3657.81 9737.130000000001 1317.55
endloop
endfacet
facet normal 0.8945622639796023 0.4469424629024914 0.0008892234497407586
outer loop
vertex 3592.6800000000003 9867.52 1301.82
vertex 3657.81 9737.130000000001 1317.55
vertex 3691.09 9670.57 1292.2
endloop
endfacet
facet normal 0.8945946254168091 0.4468704452446974 0.0026946877676265017
outer loop
vertex 3592.6800000000003 9867.52 1301.82
vertex 3691.09 9670.57 1292.2
vertex 3718.65 9615.58 1261.91
endloop
endfacet
facet normal 0.8943823685474428 0.44730267546900293 -0.0007038108679434783
outer loop
vertex 3592.6800000000003 9867.52 1301.82
vertex 3718.65 9615.58 1261.91
vertex 3457.87 10137.01 1261.91
endloop
endfacet
facet normal 0.8944627209998051 0.4471376459080678 -0.0020895821152340363
outer loop
vertex 3592.6800000000003 9867.52 1301.82
vertex 3457.87 10137.01 1261.91
vertex 3485.4300000000003 10082.02 1292.2
endloop
endfacet
facet normal 0.8944271909999159 0.4472135954999579 0
outer loop
vertex 3592.6800000000003 9867.52 1301.82
vertex 3485.4300000000003 10082.02 1292.2
vertex 3518.71 10015.460000000001 1317.55
endloop
endfacet
facet normal 0.8944961840321639 0.44707253389693347 0.0016511168561242212
outer loop
vertex 3592.6800000000003 9867.52 1301.82
vertex 3518.71 10015.460000000001 1317.55
vertex 3588.26 9876.23 1337.96
endloop
endfacet
facet normal 0.8941368731466506 0.4477914648544332 0.001433904826412197
outer loop
vertex 3592.6800000000003 9867.52 1301.82
vertex 3588.26 9876.23 1337.96
vertex 3623.36 9806.16 1332.76
endloop
endfacet
facet normal 0.9111734343946578 0.4049659708420308 0.07593111953221678
outer loop
vertex 3719.17 9614.41 1261.91
vertex 3718.65 9615.58 1261.91
vertex 3718.78 9615.19 1262.43
endloop
endfacet
facet normal 0.8942647846004507 0.4473550677943986 0.012803840915075262
outer loop
vertex 3614.52 9823.710000000001 1258.27
vertex 3719.17 9614.41 1261.91
vertex 3722.6800000000003 9607.52 1257.49
endloop
endfacet
facet normal 0.8943199648567548 0.4474279033285743 0.00026792090019559075
outer loop
vertex 3614.52 9823.710000000001 1258.27
vertex 3722.6800000000003 9607.52 1257.49
vertex 3721.51 9609.86 1255.15
endloop
endfacet
facet normal 0.8943275578795058 0.44727165922417755 0.011237529627569116
outer loop
vertex 3614.52 9823.710000000001 1258.27
vertex 3721.51 9609.86 1255.15
vertex 3452.02 10148.710000000001 1255.15
endloop
endfacet
facet normal 0.8944266243561668 0.4471294963514747 -0.00873081527174267
outer loop
vertex 3614.52 9823.710000000001 1258.27
vertex 3452.02 10148.710000000001 1255.15
vertex 3457.35 10138.18 1261.91
endloop
endfacet
facet normal 0.8944533687128887 0.4471156824491828 -0.006382609667428865
outer loop
vertex 3614.52 9823.710000000001 1258.27
vertex 3457.35 10138.18 1261.91
vertex 3719.17 9614.41 1261.91
endloop
endfacet
facet normal 0.894109947049666 0.4478351741767094 0.0033255611496129872
outer loop
vertex 3491.02 10070.710000000001 1255.15
vertex 3467.1 10118.68 1226.42
vertex 3429.79 10193.17 1226.42
endloop
endfacet
facet normal 0.8944271909999159 0.4472135954999579 -1.4157270994362442e-14
outer loop
vertex 3491.02 10070.710000000001 1255.15
vertex 3429.79 10193.17 1226.42
vertex 3452.02 10148.710000000001 1255.15
endloop
endfacet
facet normal 0.8943608952101882 0.4473461313574501 0.0001669681225292384
outer loop
vertex 3721.51 9609.86 1255.15
vertex 3679.26 9694.36 1171.3
vertex 3503.76 10045.23 1171.3
endloop
endfacet
facet normal 0.8943767261601299 0.44731450930378297 -0.00003833280597199615
outer loop
vertex 3721.51 9609.86 1255.15
vertex 3503.76 10045.23 1171.3
vertex 3491.02 10070.710000000001 1255.15
endloop
endfacet
facet normal 0.894427190999916 0.447213595499958 0
outer loop
vertex 3467.1 10118.68 1226.42
vertex 3485.9500000000003 10080.98 1153.23
vertex 3373.2400000000002 10306.4 1153.23
endloop
endfacet
facet normal 0.8941131010497878 0.44783675392895195 0.0020010900807458055
outer loop
vertex 3467.1 10118.68 1226.42
vertex 3373.2400000000002 10306.4 1153.23
vertex 3429.79 10193.17 1226.42
endloop
endfacet
facet normal 0.8944271909999159 0.4472135954999579 -2.2544478137425798e-14
outer loop
vertex 3679.26 9694.36 1171.3
vertex 3670.1600000000003 9712.56 1153.23
vertex 3485.9500000000003 10080.98 1153.23
endloop
endfacet
facet normal 0.8943552882644783 0.44734332684588707 0.003544894894861295
outer loop
vertex 3679.26 9694.36 1171.3
vertex 3485.9500000000003 10080.98 1153.23
vertex 3503.76 10045.23 1171.3
endloop
endfacet
facet normal 0.8944271909999159 0.4472135954999578 5.450130197485034e-15
outer loop
vertex 3485.17 10082.54 1078.6100000000001
vertex 3485.9500000000003 10080.98 1153.23
vertex 3670.1600000000003 9712.56 1153.23
endloop
endfacet
facet normal 0.8944271909999163 0.4472135954999575 2.0714911242248667e-15
outer loop
vertex 3485.17 10082.54 1078.6100000000001
vertex 3670.1600000000003 9712.56 1153.23
vertex 3594.8900000000003 9863.1 1003.99
endloop
endfacet
facet normal 0.8944271909999146 0.44721359549996037 -8.967036790854357e-15
outer loop
vertex 3485.17 10082.54 1078.6100000000001
vertex 3594.8900000000003 9863.1 1003.99
vertex 3529.2400000000002 9994.4 1003.99
endloop
endfacet
facet normal 0.8944271909999162 0.44721359549995726 -4.574094524627698e-15
outer loop
vertex 3485.17 10082.54 1078.6100000000001
vertex 3529.2400000000002 9994.4 1003.99
vertex 3257.54 10537.800000000001 1003.99
endloop
endfacet
facet normal 0.8944271909999156 0.44721359549995837 3.5957659866905025e-15
outer loop
vertex 3485.17 10082.54 1078.6100000000001
vertex 3257.54 10537.800000000001 1003.99
vertex 3373.2400000000002 10306.4 1153.23
endloop
endfacet
facet normal 0.8944271909999159 0.44721359549995804 5.449707847158642e-15
outer loop
vertex 3485.17 10082.54 1078.6100000000001
vertex 3373.2400000000002 10306.4 1153.23
vertex 3485.9500000000003 10080.98 1153.23
endloop
endfacet
facet normal 0.8943407918242637 0.44738589971739084 0.0006362493299614222
outer loop
vertex 3529.2400000000002 9994.4 1003.99
vertex 3525.21 10002.460000000001 1001.26
vertex 3255.33 10541.960000000001 1001.26
endloop
endfacet
facet normal 0.8936170212765941 0.44680851063829635 -0.04255319148940934
outer loop
vertex 3529.2400000000002 9994.4 1003.99
vertex 3255.33 10541.960000000001 1001.26
vertex 3257.54 10537.800000000001 1003.99
endloop
endfacet
facet normal 0.8944982767891859 0.4470632493096414 -0.002698877152140178
outer loop
vertex 3525.21 10002.460000000001 1001.26
vertex 3535.8700000000003 9980.880000000001 959.6600000000001
vertex 3223.2200000000003 10606.44 959.6600000000001
endloop
endfacet
facet normal 0.8943365952207714 0.447383800404415 0.003128831190811645
outer loop
vertex 3525.21 10002.460000000001 1001.26
vertex 3223.2200000000003 10606.44 959.6600000000001
vertex 3255.33 10541.960000000001 1001.26
endloop
endfacet
facet normal 0.8937889862295231 0.4484848649763701 0.0016043634029038138
outer loop
vertex 3594.8900000000003 9863.1 1003.99
vertex 3572.53 9907.82 959.6600000000001
vertex 3535.8700000000003 9980.880000000001 959.6600000000001
endloop
endfacet
facet normal 0.8944241142373279 0.4472120571186671 -0.002622944616516602
outer loop
vertex 3594.8900000000003 9863.1 1003.99
vertex 3535.8700000000003 9980.880000000001 959.6600000000001
vertex 3529.2400000000002 9994.4 1003.99
endloop
endfacet
facet normal 0.8943982102302714 0.44727145572266075 -0.00029399425059534553
outer loop
vertex 3970.07 9112.61 937.95
vertex 3568.2400000000002 9916.140000000001 937.95
vertex 3722.6800000000003 9607.52 1257.49
endloop
endfacet
facet normal 0.8903585740042902 0.4483820156856165 0.07883639836237095
outer loop
vertex 3588.26 9876.23 937.95
vertex 3576.56 9899.76 936.26
vertex 3567.46 9917.83 936.26
endloop
endfacet
facet normal 0.893270781762197 0.4480902292878581 0.03581140693561951
outer loop
vertex 3588.26 9876.23 937.95
vertex 3567.46 9917.83 936.26
vertex 3568.2400000000002 9916.140000000001 937.95
endloop
endfacet
facet normal 0.8938710418413964 0.4470137248613673 0.03425332601284667
outer loop
vertex 3970.07 9112.61 937.95
vertex 3971.5 9109.880000000001 936.26
vertex 3599.96 9852.83 936.26
endloop
endfacet
facet normal 0.8944271909999157 0.4472135954999584 0
outer loop
vertex 3970.07 9112.61 937.95
vertex 3599.96 9852.83 936.26
vertex 3588.26 9876.23 937.95
endloop
endfacet
facet normal 0.8931342471027784 0.4497798366704667 0.003052077463202152
outer loop
vertex 3576.56 9899.76 936.26
vertex 3564.9900000000002 9922.77 931.0600000000001
vertex 3567.46 9917.83 936.26
endloop
endfacet
facet normal 0.8943712945407167 0.44718564727035837 -0.011179641181768481
outer loop
vertex 3971.5 9109.880000000001 936.26
vertex 3975.4 9101.95 931.0600000000001
vertex 3611.53 9829.69 931.0600000000001
endloop
endfacet
facet normal 0.8943958346422324 0.44727616717541624 -0.000348211851556174
outer loop
vertex 3971.5 9109.880000000001 936.26
vertex 3611.53 9829.69 931.0600000000001
vertex 3599.96 9852.83 936.26
endloop
endfacet
facet normal 0.8944060218771367 0.4472030109385678 0.006880046322090325
outer loop
vertex 3975.4 9101.95 931.0600000000001
vertex 3982.03 9088.82 922.61
vertex 3622.71 9807.460000000001 922.61
endloop
endfacet
facet normal 0.8944060218771361 0.44720301093856807 0.006880046322138805
outer loop
vertex 3975.4 9101.95 931.0600000000001
vertex 3622.71 9807.460000000001 922.61
vertex 3611.53 9829.69 931.0600000000001
endloop
endfacet
facet normal 0.8944039586376121 0.44725749734595815 -0.001513222124643586
outer loop
vertex 3415.62 10221.51 932.75
vertex 3572.53 9907.82 959.6600000000001
vertex 3553.81 9945.130000000001 922.61
endloop
endfacet
facet normal 0.8944271909999154 0.4472135954999591 3.815484479035542e-15
outer loop
vertex 3415.62 10221.51 932.75
vertex 3553.81 9945.130000000001 922.61
vertex 3543.28 9966.19 911.0400000000001
endloop
endfacet
facet normal 0.8944271909999159 0.44721359549995787 1.8852374861940025e-14
outer loop
vertex 3415.62 10221.51 932.75
vertex 3543.28 9966.19 911.0400000000001
vertex 3185.52 10681.710000000001 911.0400000000001
endloop
endfacet
facet normal 0.894450787889365 0.4471645378793031 -0.0012900028229939197
outer loop
vertex 3415.62 10221.51 932.75
vertex 3185.52 10681.710000000001 911.0400000000001
vertex 3223.2200000000003 10606.44 959.6600000000001
endloop
endfacet
facet normal 0.8944251036138396 0.4472125518069192 -0.002160447110186807
outer loop
vertex 3415.62 10221.51 932.75
vertex 3223.2200000000003 10606.44 959.6600000000001
vertex 3572.53 9907.82 959.6600000000001
endloop
endfacet
facet normal 0.8944271909999157 0.4472135954999584 3.4293787892586e-14
outer loop
vertex 3982.03 9088.82 922.61
vertex 3991 9070.880000000001 911.0400000000001
vertex 3633.2400000000002 9786.4 911.0400000000001
endloop
endfacet
facet normal 0.894427190999916 0.44721359549995754 -3.443840941733412e-14
outer loop
vertex 3982.03 9088.82 922.61
vertex 3633.2400000000002 9786.4 911.0400000000001
vertex 3622.71 9807.460000000001 922.61
endloop
endfacet
facet normal 0.894459636040485 0.44714857736301683 -0.0003305397907241394
outer loop
vertex 3543.28 9966.19 911.0400000000001
vertex 3323.19 10406.24 626.99
vertex 2965.4300000000003 11121.890000000001 626.99
endloop
endfacet
facet normal 0.8944271909999159 0.4472135954999579 1.2807919051895133e-15
outer loop
vertex 3543.28 9966.19 911.0400000000001
vertex 2965.4300000000003 11121.890000000001 626.99
vertex 3185.52 10681.710000000001 911.0400000000001
endloop
endfacet
facet normal 0.8944271909999157 0.4472135954999585 6.60651234922948e-14
outer loop
vertex 3323.19 10406.24 626.99
vertex 3318.38 10415.86 620.75
vertex 2960.23 11132.16 620.75
endloop
endfacet
facet normal 0.894419740408667 0.4471286331706894 -0.00945057491393177
outer loop
vertex 3323.19 10406.24 626.99
vertex 2960.23 11132.16 620.75
vertex 2965.4300000000003 11121.890000000001 626.99
endloop
endfacet
facet normal 0.89437649082183 0.4471882454109144 0.010647339176384068
outer loop
vertex 3318.38 10415.86 620.75
vertex 3314.2200000000003 10424.31 615.2900000000001
vertex 2954.9 11142.95 615.2900000000001
endloop
endfacet
facet normal 0.8943764908218282 0.4471882454109147 0.010647339176531056
outer loop
vertex 3318.38 10415.86 620.75
vertex 2954.9 11142.95 615.2900000000001
vertex 2960.23 11132.16 620.75
endloop
endfacet
facet normal 0.8943581845429203 0.4471790922714607 0.012421641452082967
outer loop
vertex 3314.2200000000003 10424.31 615.2900000000001
vertex 3310.71 10431.460000000001 610.61
vertex 2949.44 11154 610.61
endloop
endfacet
facet normal 0.8943581845429229 0.4471790922714609 0.01242164145190228
outer loop
vertex 3314.2200000000003 10424.31 615.2900000000001
vertex 2949.44 11154 610.61
vertex 2954.9 11142.95 615.2900000000001
endloop
endfacet
facet normal 0.8944271909999157 0.44721359549995837 8.895058835205782e-16
outer loop
vertex 3310.71 10431.460000000001 610.61
vertex 3307.7200000000003 10437.44 606.84
vertex 2943.85 11165.18 606.84
endloop
endfacet
facet normal 0.8944271909999157 0.44721359549995837 0
outer loop
vertex 3310.71 10431.460000000001 610.61
vertex 2943.85 11165.18 606.84
vertex 2949.44 11154 610.61
endloop
endfacet
facet normal 0.8977451501403637 0.44040328120098454 0.009929516950093715
outer loop
vertex 4232.67 8587.28 606.84
vertex 4225.91 8601.06 606.84
vertex 4227.08 8598.59 610.61
endloop
endfacet
facet normal 0.8942286078784415 0.4471934252104889 -0.019319350410797295
outer loop
vertex 3307.7200000000003 10437.44 606.84
vertex 3305.38 10441.99 603.85
vertex 2938 11176.62 603.85
endloop
endfacet
facet normal 0.8937516416656244 0.44687582083281274 -0.038858767028836304
outer loop
vertex 3307.7200000000003 10437.44 606.84
vertex 2938 11176.62 603.85
vertex 2943.85 11165.18 606.84
endloop
endfacet
facet normal 0.8952522194720657 0.44548435801482095 0.008194528324636947
outer loop
vertex 4232.67 8587.28 606.84
vertex 4238.39 8575.84 603.85
vertex 4224.87 8603.01 603.85
endloop
endfacet
facet normal 0.8975080648330938 0.4402869752011917 -0.025033038723659008
outer loop
vertex 4232.67 8587.28 606.84
vertex 4224.87 8603.01 603.85
vertex 4225.91 8601.06 606.84
endloop
endfacet
facet normal 0.8944584837112726 0.447150986520229 -0.00012716491984139197
outer loop
vertex 3305.38 10441.99 603.85
vertex 3303.69 10445.37 601.77
vertex 2932.28 11188.32 601.77
endloop
endfacet
facet normal 0.8929791677537349 0.4465685945977795 0.05625563328957433
outer loop
vertex 3305.38 10441.99 603.85
vertex 2932.28 11188.32 601.77
vertex 2938 11176.62 603.85
endloop
endfacet
facet normal 0.8940780099633845 0.44703900498169225 0.027939937811183126
outer loop
vertex 4238.39 8575.84 603.85
vertex 4244.24 8564.27 601.77
vertex 4224.22 8604.31 601.77
endloop
endfacet
facet normal 0.8952814770586986 0.4454989168139111 -0.0013386385721479734
outer loop
vertex 4238.39 8575.84 603.85
vertex 4224.22 8604.31 601.77
vertex 4224.87 8603.01 603.85
endloop
endfacet
facet normal 0.8935341032175518 0.4467670516087754 0.044676705160603326
outer loop
vertex 3303.69 10445.37 601.77
vertex 3302.78 10447.32 600.47
vertex 2926.4300000000003 11200.02 600.47
endloop
endfacet
facet normal 0.8944582691017875 0.4471508792342624 -0.0007042978493397489
outer loop
vertex 3303.69 10445.37 601.77
vertex 2926.4300000000003 11200.02 600.47
vertex 2932.28 11188.32 601.77
endloop
endfacet
facet normal 0.8944271909999157 0.44721359549995787 0
outer loop
vertex 4244.24 8564.27 601.77
vertex 4250.09 8552.57 600.47
vertex 4223.83 8605.09 600.47
endloop
endfacet
facet normal 0.894427190999916 0.447213595499958 0
outer loop
vertex 4244.24 8564.27 601.77
vertex 4223.83 8605.09 600.47
vertex 4224.22 8604.31 601.77
endloop
endfacet
facet normal 0.8889094300289235 0.44437906314807674 -0.1112082435851393
outer loop
vertex 3302.78 10447.32 600.47
vertex 3302.3900000000003 10447.970000000001 599.95
vertex 2920.58 11211.720000000001 599.95
endloop
endfacet
facet normal 0.8944271909999162 0.44721359549995754 0
outer loop
vertex 3302.78 10447.32 600.47
vertex 2920.58 11211.720000000001 599.95
vertex 2926.4300000000003 11200.02 600.47
endloop
endfacet
facet normal 0.8946034967882238 0.44640174487623446 0.02025007915380635
outer loop
vertex 4250.09 8552.57 600.47
vertex 4255.9400000000005 8540.87 599.95
vertex 4223.7 8605.48 599.95
endloop
endfacet
facet normal 0.8888888888889557 0.44444444444447784 0.11111111111044279
outer loop
vertex 4250.09 8552.57 600.47
vertex 4223.7 8605.48 599.95
vertex 4223.83 8605.09 600.47
endloop
endfacet
facet normal 0.8944582369844342 0.4471514093596134 -0.0002817772329284655
outer loop
vertex 3990.7400000000002 9071.27 704.6
vertex 3991 9070.880000000001 911.0400000000001
vertex 4214.860000000001 8622.9 621.9200000000001
endloop
endfacet
facet normal 0.8945217897237228 0.44702396966752067 0.0005815944975136418
outer loop
vertex 3990.7400000000002 9071.27 704.6
vertex 4214.860000000001 8622.9 621.9200000000001
vertex 4193.54 8665.67 539.37
endloop
endfacet
facet normal 0.8944698415080986 0.4471282075780162 0.0002619552393547917
outer loop
vertex 3990.7400000000002 9071.27 704.6
vertex 4193.54 8665.67 539.37
vertex 3921.19 9210.5 539.37
endloop
endfacet
facet normal 0.8944859999414532 0.4470959001787206 0.00022793007295794697
outer loop
vertex 3990.7400000000002 9071.27 704.6
vertex 3921.19 9210.5 539.37
vertex 3633.2400000000002 9786.4 911.0400000000001
endloop
endfacet
facet normal 0.8944271555313218 0.44721357776566145 -0.00028162064091060107
outer loop
vertex 3990.7400000000002 9071.27 704.6
vertex 3633.2400000000002 9786.4 911.0400000000001
vertex 3991 9070.880000000001 911.0400000000001
endloop
endfacet
facet normal 0.894426928747735 0.4472134643738675 -0.0007657764800874842
outer loop
vertex 4221.62 8609.64 615.2900000000001
vertex 4198.87 8655.01 539.37
vertex 4193.54 8665.67 539.37
endloop
endfacet
facet normal 0.894313185023595 0.4474411898277806 -0.0005556423789732126
outer loop
vertex 4221.62 8609.64 615.2900000000001
vertex 4193.54 8665.67 539.37
vertex 4216.29 8620.300000000001 620.75
endloop
endfacet
facet normal 0.8943421373979747 0.44738329986590536 0.0005694519429185709
outer loop
vertex 4198.87 8655.01 539.37
vertex 4159.74 8733.4 408.07
vertex 4022.7200000000003 9007.31 408.07
endloop
endfacet
facet normal 0.8944690179000112 0.44712984372441467 -0.0002808344171797729
outer loop
vertex 4198.87 8655.01 539.37
vertex 4022.7200000000003 9007.31 408.07
vertex 3921.19 9210.5 539.37
endloop
endfacet
facet normal 0.8943009190160494 0.4474660208767652 0.00016250465697496112
outer loop
vertex 4159.74 8733.4 408.07
vertex 4148.56 8755.76 364.65000000000003
vertex 4056.3900000000003 8939.970000000001 364.65000000000003
endloop
endfacet
facet normal 0.894342233958543 0.4473833481691037 -0.00032914897103852826
outer loop
vertex 4159.74 8733.4 408.07
vertex 4056.3900000000003 8939.970000000001 364.65000000000003
vertex 4022.7200000000003 9007.31 408.07
endloop
endfacet
facet normal 0.8944617635785939 0.447144443659844 0
outer loop
vertex 4821.05 7410.52 599.95
vertex 4821.05 7410.52 364.65000000000003
vertex 4148.56 8755.76 364.65000000000003
endloop
endfacet
facet normal 0.894466109562328 0.447135745587348 -0.00006214885527322331
outer loop
vertex 4821.05 7410.52 599.95
vertex 4148.56 8755.76 364.65000000000003
vertex 4223.7 8605.48 599.95
endloop
endfacet
facet normal 0.8944605328020311 0.4471469056803443 0
outer loop
vertex 4821.05 7410.52 364.65000000000003
vertex 4821.05 7410.52 277.81
vertex 4123.7300000000005 8805.42 277.81
endloop
endfacet
facet normal 0.8944421583495599 0.4471830663333708 0.0007283897754946668
outer loop
vertex 4821.05 7410.52 364.65000000000003
vertex 4123.7300000000005 8805.42 277.81
vertex 4056.3900000000003 8939.970000000001 364.65000000000003
endloop
endfacet
facet normal 0.8944431140056562 0.4471817438133864 -0.00006170804813733907
outer loop
vertex 3302.3900000000003 10447.970000000001 599.95
vertex 3051.23 10950.29 275.86
vertex 2321.15 12410.58 275.86
endloop
endfacet
facet normal 0.8944390399148148 0.44718989688527705 0
outer loop
vertex 3302.3900000000003 10447.970000000001 599.95
vertex 2321.15 12410.58 275.86
vertex 2321.15 12410.58 599.95
endloop
endfacet
facet normal 0.8846517369290969 0.4423258684653221 0.14744195615472053
outer loop
vertex 3051.23 10950.29 275.86
vertex 3051.1 10950.68 275.47
vertex 3050.9700000000003 10950.81 275.86
endloop
endfacet
facet normal 0.8988017944525752 0.4372549270308861 -0.03103970161011928
outer loop
vertex 4126.07 8800.61 277.81
vertex 4125.42 8801.78 275.47
vertex 4123.7300000000005 8805.42 277.81
endloop
endfacet
facet normal 0.9001733201260016 0.43326261149835715 0.04440161270668858
outer loop
vertex 4186.39 8679.970000000001 220.48000000000002
vertex 4169.62 8713.64 231.92000000000002
vertex 4153.110000000001 8746.53 245.70000000000002
endloop
endfacet
facet normal 0.8944271909999144 0.447213595499961 3.548324029179404e-14
outer loop
vertex 2843.88 11364.99 232.96
vertex 3050.9700000000003 10950.81 275.86
vertex 3039.4 10973.95 261.95
endloop
endfacet
facet normal 0.8942950153519187 0.44745822126478235 0.004191150112901974
outer loop
vertex 2843.88 11364.99 232.96
vertex 3039.4 10973.95 261.95
vertex 3023.4100000000003 11006.06 245.70000000000002
endloop
endfacet
facet normal 0.8943555991537557 0.4473565019427227 0.0004716268624517825
outer loop
vertex 2843.88 11364.99 232.96
vertex 3023.4100000000003 11006.06 245.70000000000002
vertex 2990.13 11072.62 220.48000000000002
endloop
endfacet
facet normal 0.8942527422734899 0.4475352624526539 -0.004921564566031453
outer loop
vertex 2843.88 11364.99 232.96
vertex 2990.13 11072.62 220.48000000000002
vertex 2972.9700000000003 11106.81 211.51000000000002
endloop
endfacet
facet normal 0.8942007155325262 0.447622194654343 -0.006281018543798029
outer loop
vertex 2843.88 11364.99 232.96
vertex 2972.9700000000003 11106.81 211.51000000000002
vertex 2955.55 11141.52 205.14000000000001
endloop
endfacet
facet normal 0.8948590177990993 0.44629345741210896 0.007034780364549181
outer loop
vertex 2843.88 11364.99 232.96
vertex 2955.55 11141.52 205.14000000000001
vertex 2920.58 11211.720000000001 199.94
endloop
endfacet
facet normal 0.8944258046382202 0.44721290231911043 0.001760680717803984
outer loop
vertex 2843.88 11364.99 232.96
vertex 2920.58 11211.720000000001 199.94
vertex 2321.15 12410.58 199.94
endloop
endfacet
facet normal 0.894449431580473 0.44716911157342804 0
outer loop
vertex 2843.88 11364.99 232.96
vertex 2321.15 12410.58 199.94
vertex 2321.15 12410.58 275.86
endloop
endfacet
facet normal 0.8944430552586722 0.44718170026023557 -0.0003845151453160876
outer loop
vertex 2843.88 11364.99 232.96
vertex 2321.15 12410.58 275.86
vertex 3050.9700000000003 10950.81 275.86
endloop
endfacet
facet normal 0.8931800732986859 0.44911667279846595 -0.02288167119311006
outer loop
vertex 4255.9400000000005 8540.87 199.94
vertex 4220.84 8610.94 205.14000000000001
vertex 4203.55 8645.65 211.51000000000002
endloop
endfacet
facet normal 0.8944271909999035 0.4472135954999825 -2.0831702696107978e-13
outer loop
vertex 4255.9400000000005 8540.87 199.94
vertex 4203.55 8645.65 211.51000000000002
vertex 4186.39 8679.970000000001 220.48000000000002
endloop
endfacet
facet normal 0.8944477638950342 0.4471724473434975 0
outer loop
vertex 4821.05 7410.52 277.81
vertex 4821.05 7410.52 199.94
vertex 4255.9400000000005 8540.87 199.94
endloop
endfacet
facet normal 0.8944439111928085 0.44718013179058796 0.00013950578301689988
outer loop
vertex 4821.05 7410.52 277.81
vertex 4255.9400000000005 8540.87 199.94
vertex 4126.07 8800.61 277.81
endloop
endfacet
facet normal -0.894671720278056 -0.44672298733434146 -0.0010418837679828518
outer loop
vertex 3933.02 10081.11 1306.76
vertex 3910.92 10125.31 1332.76
vertex 3876.4700000000003 10194.34 1317.55
endloop
endfacet
facet normal -0.894590917111162 -0.4468846918434616 0.0010785259313243498
outer loop
vertex 3933.02 10081.11 1306.76
vertex 3876.4700000000003 10194.34 1317.55
vertex 3843.19 10260.9 1292.2
endloop
endfacet
facet normal -0.8946478020242005 -0.4467624331322915 0.002939162292555057
outer loop
vertex 3933.02 10081.11 1306.76
vertex 3843.19 10260.9 1292.2
vertex 3815.63 10315.890000000001 1261.91
endloop
endfacet
facet normal -0.8944271909999159 -0.4472135954999579 -9.208381481550552e-15
outer loop
vertex 3933.02 10081.11 1306.76
vertex 3815.63 10315.890000000001 1261.91
vertex 4075.63 9795.890000000001 1261.91
endloop
endfacet
facet normal -0.8944271909999156 -0.4472135954999582 -6.518828792152094e-15
outer loop
vertex 3933.02 10081.11 1306.76
vertex 4075.63 9795.890000000001 1261.91
vertex 4015.57 9916.01 1317.55
endloop
endfacet
facet normal -0.8945003614742092 -0.44705750354946894 0.002948193112017305
outer loop
vertex 3933.02 10081.11 1306.76
vertex 4015.57 9916.01 1317.55
vertex 3981.1200000000003 9985.04 1332.76
endloop
endfacet
facet normal -0.8941143379095443 -0.447838282237751 -0.0006509277358157776
outer loop
vertex 3933.02 10081.11 1306.76
vertex 3981.1200000000003 9985.04 1332.76
vertex 3946.02 10055.11 1337.96
endloop
endfacet
facet normal -0.8944271909999133 -0.4472135954999628 -5.1459817265693115e-15
outer loop
vertex 3933.02 10081.11 1306.76
vertex 3946.02 10055.11 1337.96
vertex 3910.92 10125.31 1332.76
endloop
endfacet
facet normal -0.9135172927603066 -0.40600768567183915 -0.025375480355599486
outer loop
vertex 3815.11 10317.06 1261.91
vertex 3815.63 10315.890000000001 1261.91
vertex 3815.5 10316.15 1262.43
endloop
endfacet
facet normal -0.9084782108519207 -0.4101130208981842 -0.08046521296224014
outer loop
vertex 4076.4100000000003 9794.460000000001 1261.91
vertex 4080.44 9786.4 1257.49
vertex 4076.54 9794.07 1262.43
endloop
endfacet
facet normal -0.8944271909999157 -0.4472135954999583 -2.0193573179986897e-15
outer loop
vertex 3972.67 10001.94 1131.39
vertex 3815.11 10317.06 1261.91
vertex 3564.21 10818.86 937.95
endloop
endfacet
facet normal -0.8944424047724735 -0.44718313776776797 0.00016075138606024922
outer loop
vertex 3972.67 10001.94 1131.39
vertex 3564.21 10818.86 937.95
vertex 4327.83 9291.49 937.95
endloop
endfacet
facet normal -0.8944495235755942 -0.44716891737238745 0.00009545365025366231
outer loop
vertex 3972.67 10001.94 1131.39
vertex 4327.83 9291.49 937.95
vertex 4080.44 9786.4 1257.49
endloop
endfacet
facet normal -0.8930456598351715 -0.4499283994558392 -0.005821066282914591
outer loop
vertex 3972.67 10001.94 1131.39
vertex 4080.44 9786.4 1257.49
vertex 4075.63 9795.890000000001 1261.91
endloop
endfacet
facet normal -0.8944717772916108 -0.4471243306790706 -0.00026933915474937044
outer loop
vertex 3972.67 10001.94 1131.39
vertex 4075.63 9795.890000000001 1261.91
vertex 3815.11 10317.06 1261.91
endloop
endfacet
facet normal -0.8943953639073013 -0.4472759317667655 0.0010834589505794674
outer loop
vertex 3946.02 10055.11 937.95
vertex 3957.7200000000003 10031.710000000001 936.26
vertex 4329.26 9288.76 936.26
endloop
endfacet
facet normal -0.8938984134242788 -0.44694920671213884 -0.03438070820892351
outer loop
vertex 3946.02 10055.11 937.95
vertex 4329.26 9288.76 936.26
vertex 4327.83 9291.49 937.95
endloop
endfacet
facet normal -0.8938710418413964 -0.4470137248613673 0.03425332601284667
outer loop
vertex 3564.21 10818.86 937.95
vertex 3562.78 10821.59 936.26
vertex 3934.32 10078.640000000001 936.26
endloop
endfacet
facet normal -0.8939608633555535 -0.4469043499021719 -0.033323817715122495
outer loop
vertex 3564.21 10818.86 937.95
vertex 3934.32 10078.640000000001 936.26
vertex 3946.02 10055.11 937.95
endloop
endfacet
facet normal -0.894427190999916 -0.447213595499958 1.5649373510738842e-13
outer loop
vertex 3957.7200000000003 10031.710000000001 936.26
vertex 3969.29 10008.57 931.0600000000001
vertex 4333.16 9280.83 931.0600000000001
endloop
endfacet
facet normal -0.8943387989068872 -0.4472476443177394 0.011298558404478054
outer loop
vertex 3957.7200000000003 10031.710000000001 936.26
vertex 4333.16 9280.83 931.0600000000001
vertex 4329.26 9288.76 936.26
endloop
endfacet
facet normal -0.8944044482889251 -0.4471223523416142 -0.011058251104277397
outer loop
vertex 3562.78 10821.59 936.26
vertex 3558.88 10829.52 931.0600000000001
vertex 3922.75 10101.65 931.0600000000001
endloop
endfacet
facet normal -0.8943434063529996 -0.44724994844389787 0.0108330572713489
outer loop
vertex 3562.78 10821.59 936.26
vertex 3922.75 10101.65 931.0600000000001
vertex 3934.32 10078.640000000001 936.26
endloop
endfacet
facet normal -0.8944060218771358 -0.44720301093856785 -0.006880046322185713
outer loop
vertex 3969.29 10008.57 931.0600000000001
vertex 3980.4700000000003 9986.34 922.61
vertex 4339.79 9267.7 922.61
endloop
endfacet
facet normal -0.8944060218771358 -0.4472030109385679 -0.006880046322185366
outer loop
vertex 3969.29 10008.57 931.0600000000001
vertex 4339.79 9267.7 922.61
vertex 4333.16 9280.83 931.0600000000001
endloop
endfacet
facet normal -0.8944595486364408 -0.4471488570440539 0.00012448811410233751
outer loop
vertex 3558.88 10829.52 931.0600000000001
vertex 3552.38 10842.52 922.61
vertex 3911.57 10124.01 922.61
endloop
endfacet
facet normal -0.8944591194117347 -0.44714968302079694 0.00021136599736872188
outer loop
vertex 3558.88 10829.52 931.0600000000001
vertex 3911.57 10124.01 922.61
vertex 3922.75 10101.65 931.0600000000001
endloop
endfacet
facet normal -0.8944271909999159 -0.4472135954999579 0
outer loop
vertex 3980.4700000000003 9986.34 922.61
vertex 3991 9965.28 911.0400000000001
vertex 4348.76 9249.76 911.0400000000001
endloop
endfacet
facet normal -0.894427190999916 -0.447213595499958 0
outer loop
vertex 3980.4700000000003 9986.34 922.61
vertex 4348.76 9249.76 911.0400000000001
vertex 4339.79 9267.7 922.61
endloop
endfacet
facet normal -0.8944158993668699 -0.44720794968343436 0.005024808423414473
outer loop
vertex 3552.38 10842.52 922.61
vertex 3543.28 10860.59 911.0400000000001
vertex 3901.04 10145.07 911.0400000000001
endloop
endfacet
facet normal -0.8944595458652473 -0.44714885565870777 0.0001472876222184017
outer loop
vertex 3552.38 10842.52 922.61
vertex 3901.04 10145.07 911.0400000000001
vertex 3911.57 10124.01 922.61
endloop
endfacet
facet normal -0.8944271909999159 -0.4472135954999579 0
outer loop
vertex 3991 9965.28 911.0400000000001
vertex 4211.09 9525.1 626.99
vertex 4568.85 8809.58 626.99
endloop
endfacet
facet normal -0.8944271909999159 -0.4472135954999579 0
outer loop
vertex 3991 9965.28 911.0400000000001
vertex 4568.85 8809.58 626.99
vertex 4348.76 9249.76 911.0400000000001
endloop
endfacet
facet normal -0.8944596778148688 -0.44714859824641634 0.0001258951387676287
outer loop
vertex 3543.28 10860.59 911.0400000000001
vertex 3323.19 11300.77 626.99
vertex 3680.9500000000003 10585.12 626.99
endloop
endfacet
facet normal -0.8944271722654165 -0.4472135861327076 0.0002046744101275749
outer loop
vertex 3543.28 10860.59 911.0400000000001
vertex 3680.9500000000003 10585.12 626.99
vertex 3901.04 10145.07 911.0400000000001
endloop
endfacet
facet normal -0.8944271909999159 -0.4472135954999579 0
outer loop
vertex 4211.09 9525.1 626.99
vertex 4215.900000000001 9515.48 620.75
vertex 4574.05 8799.18 620.75
endloop
endfacet
facet normal -0.894427190999916 -0.447213595499958 0
outer loop
vertex 4211.09 9525.1 626.99
vertex 4574.05 8799.18 620.75
vertex 4568.85 8809.58 626.99
endloop
endfacet
facet normal -0.8943883729025084 -0.44719418645125353 -0.00931654555107465
outer loop
vertex 3323.19 11300.77 626.99
vertex 3318.12 11311.04 620.75
vertex 3676.27 10594.74 620.75
endloop
endfacet
facet normal -0.8943065054079692 -0.44707202595508333 -0.018506160957997363
outer loop
vertex 3323.19 11300.77 626.99
vertex 3676.27 10594.74 620.75
vertex 3680.9500000000003 10585.12 626.99
endloop
endfacet
facet normal -0.8944271909999159 -0.4472135954999579 0
outer loop
vertex 4215.900000000001 9515.48 620.75
vertex 4220.06 9507.16 615.2900000000001
vertex 4579.38 8788.52 615.2900000000001
endloop
endfacet
facet normal -0.8944271909999159 -0.4472135954999579 0
outer loop
vertex 4215.900000000001 9515.48 620.75
vertex 4579.38 8788.52 615.2900000000001
vertex 4574.05 8799.18 620.75
endloop
endfacet
facet normal -0.894376490821829 -0.4471882454109145 0.01064733917645944
outer loop
vertex 3318.12 11311.04 620.75
vertex 3312.6600000000003 11321.83 615.2900000000001
vertex 3671.98 10603.19 615.2900000000001
endloop
endfacet
facet normal -0.89437649082183 -0.4471882454109144 0.010647339176384628
outer loop
vertex 3318.12 11311.04 620.75
vertex 3671.98 10603.19 615.2900000000001
vertex 3676.27 10594.74 620.75
endloop
endfacet
facet normal -0.8944593738409248 -0.447149206501726 -0.00012519176247873643
outer loop
vertex 4220.06 9507.16 615.2900000000001
vertex 4223.7 9499.880000000001 610.61
vertex 4584.84 8777.470000000001 610.61
endloop
endfacet
facet normal -0.8943581845429226 -0.4471790922714613 0.012421641451902308
outer loop
vertex 4220.06 9507.16 615.2900000000001
vertex 4584.84 8777.470000000001 610.61
vertex 4579.38 8788.52 615.2900000000001
endloop
endfacet
facet normal -0.8943581845429208 -0.44717909227145985 -0.012421641452080898
outer loop
vertex 3312.6600000000003 11321.83 615.2900000000001
vertex 3307.2000000000003 11332.880000000001 610.61
vertex 3668.4700000000003 10610.34 610.61
endloop
endfacet
facet normal -0.8943581845429215 -0.44717909227146074 -0.012421641451995166
outer loop
vertex 3312.6600000000003 11321.83 615.2900000000001
vertex 3668.4700000000003 10610.34 610.61
vertex 3671.98 10603.19 615.2900000000001
endloop
endfacet
facet normal -0.8943208571481475 -0.44716042857407373 0.015419325123149013
outer loop
vertex 4223.7 9499.880000000001 610.61
vertex 4226.56 9494.03 606.84
vertex 4590.43 8766.29 606.84
endloop
endfacet
facet normal -0.8944593553754756 -0.44714919727066293 -0.0002386660644301143
outer loop
vertex 4223.7 9499.880000000001 610.61
vertex 4590.43 8766.29 606.84
vertex 4584.84 8777.470000000001 610.61
endloop
endfacet
facet normal -0.8944271909999159 -0.4472135954999579 2.1570517675374024e-13
outer loop
vertex 3307.2000000000003 11332.880000000001 610.61
vertex 3301.61 11344.06 606.84
vertex 3665.48 10616.32 606.84
endloop
endfacet
facet normal -0.8944271909999162 -0.4472135954999575 1.1467616117333008e-13
outer loop
vertex 3307.2000000000003 11332.880000000001 610.61
vertex 3665.48 10616.32 606.84
vertex 3668.4700000000003 10610.34 610.61
endloop
endfacet
facet normal -0.8943955274818474 -0.4472768997812242 0.00012386510655726103
outer loop
vertex 4226.56 9494.03 606.84
vertex 4228.900000000001 9489.35 603.85
vertex 4596.28 8754.720000000001 603.85
endloop
endfacet
facet normal -0.8942581600637018 -0.4471290800318509 -0.01944039478388174
outer loop
vertex 4226.56 9494.03 606.84
vertex 4596.28 8754.720000000001 603.85
vertex 4590.43 8766.29 606.84
endloop
endfacet
facet normal -0.8944588044098631 -0.44715026056589385 0.00030280279270399166
outer loop
vertex 3301.61 11344.06 606.84
vertex 3295.8900000000003 11355.5 603.85
vertex 3663.1400000000003 10620.87 603.85
endloop
endfacet
facet normal -0.8942581600637043 -0.44712908003185214 0.019440394783738265
outer loop
vertex 3301.61 11344.06 606.84
vertex 3663.1400000000003 10620.87 603.85
vertex 3665.48 10616.32 606.84
endloop
endfacet
facet normal -0.8941062131150208 -0.44697488204192665 -0.02806304496527138
outer loop
vertex 4228.900000000001 9489.35 603.85
vertex 4230.59 9486.1 601.77
vertex 4602 8743.15 601.77
endloop
endfacet
facet normal -0.8940353128251944 -0.44709676058113557 0.028378620463503316
outer loop
vertex 4228.900000000001 9489.35 603.85
vertex 4602 8743.15 601.77
vertex 4596.28 8754.720000000001 603.85
endloop
endfacet
facet normal -0.8944584042864882 -0.44715094681478496 0.00044018622258210934
outer loop
vertex 3295.8900000000003 11355.5 603.85
vertex 3290.04 11367.2 601.77
vertex 3661.4500000000003 10624.25 601.77
endloop
endfacet
facet normal -0.8944588380192635 -0.44715027736762025 0.0001286051684491869
outer loop
vertex 3295.8900000000003 11355.5 603.85
vertex 3661.4500000000003 10624.25 601.77
vertex 3663.1400000000003 10620.87 603.85
endloop
endfacet
facet normal -0.8944580840211057 -0.44715178703698094 -0.00012360795771504304
outer loop
vertex 4230.59 9486.1 601.77
vertex 4231.63 9484.02 600.47
vertex 4607.85 8731.45 600.47
endloop
endfacet
facet normal -0.8944582691017873 -0.44715087923426117 -0.0007042978503100554
outer loop
vertex 4230.59 9486.1 601.77
vertex 4607.85 8731.45 600.47
vertex 4602 8743.15 601.77
endloop
endfacet
facet normal -0.8944271909999156 -0.44721359549995837 3.0842800746613886e-13
outer loop
vertex 3290.04 11367.2 601.77
vertex 3284.19 11378.9 600.47
vertex 3660.54 10626.2 600.47
endloop
endfacet
facet normal -0.8935699849809712 -0.4467068148889998 -0.044561232846856064
outer loop
vertex 3290.04 11367.2 601.77
vertex 3660.54 10626.2 600.47
vertex 3661.4500000000003 10624.25 601.77
endloop
endfacet
facet normal -0.8888888888889567 -0.4444444444444773 0.11111111111043807
outer loop
vertex 4231.63 9484.02 600.47
vertex 4231.89 9483.37 599.95
vertex 4613.7 8719.75 599.95
endloop
endfacet
facet normal -0.8944567395692862 -0.44715111492719245 -0.001738234291129749
outer loop
vertex 4231.63 9484.02 600.47
vertex 4613.7 8719.75 599.95
vertex 4607.85 8731.45 600.47
endloop
endfacet
facet normal -0.8944563265367923 -0.4471520393257121 0.0017127887096099609
outer loop
vertex 3284.19 11378.9 600.47
vertex 3278.34 11390.6 599.95
vertex 3660.15 10626.85 599.95
endloop
endfacet
facet normal -0.8888888888888723 -0.44444444444443676 0.11111111111127278
outer loop
vertex 3284.19 11378.9 600.47
vertex 3660.15 10626.85 599.95
vertex 3660.54 10626.2 600.47
endloop
endfacet
facet normal -0.8944271766086025 -0.44721358830430147 -0.00017938772093873886
outer loop
vertex 4231.89 9483.37 599.95
vertex 4483.05 8981.18 275.86
vertex 5178.9400000000005 7589.400000000001 275.86
endloop
endfacet
facet normal -0.8944149123333134 -0.4472381519904035 0
outer loop
vertex 4231.89 9483.37 599.95
vertex 5178.9400000000005 7589.400000000001 275.86
vertex 5178.9400000000005 7589.400000000001 599.95
endloop
endfacet
facet normal -0.8944431157086241 -0.4471817446647938 0
outer loop
vertex 2678.9100000000003 12589.460000000001 599.95
vertex 2678.9100000000003 12589.460000000001 275.86
vertex 3408.9900000000002 11129.17 275.86
endloop
endfacet
facet normal -0.8944390389720343 -0.4471898964139175 0.00004591397937981258
outer loop
vertex 2678.9100000000003 12589.460000000001 599.95
vertex 3408.9900000000002 11129.17 275.86
vertex 3660.15 10626.85 599.95
endloop
endfacet
facet normal -0.9267030948226617 -0.3706812379295833 0.06178020632121902
outer loop
vertex 4483.05 8981.18 275.86
vertex 4483.18 8980.79 275.47
vertex 4483.31 8980.53 275.86
endloop
endfacet
facet normal -0.8846517369295006 -0.4423258684647503 -0.14744195615401418
outer loop
vertex 3408.73 11129.69 275.86
vertex 3408.86 11129.56 275.47
vertex 3408.9900000000002 11129.17 275.86
endloop
endfacet
facet normal -0.8943500011604152 -0.44736782687943455 0.0003207764604536732
outer loop
vertex 4670.77 8605.74 231.79000000000002
vertex 4483.31 8980.53 275.86
vertex 4494.88 8957.39 261.95
endloop
endfacet
facet normal -0.8943475550541726 -0.447372660734849 0.0003914021528762848
outer loop
vertex 4670.77 8605.74 231.79000000000002
vertex 4494.88 8957.39 261.95
vertex 4510.87 8925.41 245.70000000000002
endloop
endfacet
facet normal -0.8944199792942585 -0.4472080750814732 -0.004223531837372882
outer loop
vertex 4670.77 8605.74 231.79000000000002
vertex 4510.87 8925.41 245.70000000000002
vertex 4527.38 8892.52 231.92000000000002
endloop
endfacet
facet normal -0.894414687727883 -0.4472096506140865 0.005088690819870609
outer loop
vertex 4670.77 8605.74 231.79000000000002
vertex 4527.38 8892.52 231.92000000000002
vertex 4544.150000000001 8858.85 220.48000000000002
endloop
endfacet
facet normal -0.8942919218480125 -0.4474781488105948 -0.002294527060532332
outer loop
vertex 4670.77 8605.74 231.79000000000002
vertex 4544.150000000001 8858.85 220.48000000000002
vertex 4578.7300000000005 8789.82 205.14000000000001
endloop
endfacet
facet normal -0.8947838293558763 -0.44645244894161634 0.006489187720154132
outer loop
vertex 4670.77 8605.74 231.79000000000002
vertex 4578.7300000000005 8789.82 205.14000000000001
vertex 4596.150000000001 8754.85 201.24
endloop
endfacet
facet normal -0.894402151942982 -0.44726076645144575 0.0016116429594061085
outer loop
vertex 4670.77 8605.74 231.79000000000002
vertex 4596.150000000001 8754.85 201.24
vertex 4613.7 8719.75 199.94
endloop
endfacet
facet normal -0.8944054125825418 -0.4472541384599079 0.0016412109975519355
outer loop
vertex 4670.77 8605.74 231.79000000000002
vertex 4613.7 8719.75 199.94
vertex 5178.9400000000005 7589.400000000001 199.94
endloop
endfacet
facet normal -0.8944271909999156 -0.44721359549995826 0
outer loop
vertex 4670.77 8605.74 231.79000000000002
vertex 5178.9400000000005 7589.400000000001 199.94
vertex 5178.9400000000005 7589.400000000001 275.86
endloop
endfacet
facet normal -0.8944100585873856 -0.4472468202505468 -0.0009637808279676727
outer loop
vertex 4670.77 8605.74 231.79000000000002
vertex 5178.9400000000005 7589.400000000001 275.86
vertex 4483.31 8980.53 275.86
endloop
endfacet
facet normal -0.8944271909999161 -0.4472135954999577 0
outer loop
vertex 3197.87 11551.54 231.79000000000002
vertex 2678.9100000000003 12589.460000000001 275.86
vertex 2678.9100000000003 12589.460000000001 199.94
endloop
endfacet
facet normal -0.8944271909999161 -0.4472135954999577 -1.7043439647279056e-15
outer loop
vertex 3197.87 11551.54 231.79000000000002
vertex 2678.9100000000003 12589.460000000001 199.94
vertex 3278.34 11390.6 199.94
endloop
endfacet
facet normal -0.8944271909999159 -0.4472135954999579 0
outer loop
vertex 3197.87 11551.54 231.79000000000002
vertex 3278.34 11390.6 199.94
vertex 3295.8900000000003 11355.5 201.24
endloop
endfacet
facet normal -0.8944271909999185 -0.4472135954999526 -4.2514796692978896e-14
outer loop
vertex 3197.87 11551.54 231.79000000000002
vertex 3295.8900000000003 11355.5 201.24
vertex 3313.44 11320.4 205.14000000000001
endloop
endfacet
facet normal -0.8944271909999156 -0.44721359549995865 2.2974990579130732e-14
outer loop
vertex 3197.87 11551.54 231.79000000000002
vertex 3313.44 11320.4 205.14000000000001
vertex 3347.8900000000003 11251.5 220.48000000000002
endloop
endfacet
facet normal -0.8944271909999159 -0.4472135954999579 0
outer loop
vertex 3197.87 11551.54 231.79000000000002
vertex 3347.8900000000003 11251.5 220.48000000000002
vertex 3381.17 11184.94 245.70000000000002
endloop
endfacet
facet normal -0.8943617975050758 -0.4473276408920307 -0.0038674096576622546
outer loop
vertex 3197.87 11551.54 231.79000000000002
vertex 3381.17 11184.94 245.70000000000002
vertex 3397.1600000000003 11152.83 261.95
endloop
endfacet
facet normal -0.8944938735831337 -0.44708011934190545 0.00027750940224138473
outer loop
vertex 3197.87 11551.54 231.79000000000002
vertex 3397.1600000000003 11152.83 261.95
vertex 3408.73 11129.69 275.86
endloop
endfacet
facet normal -0.8944427278969309 -0.44718153659394133 -0.0009379988156870731
outer loop
vertex 3197.87 11551.54 231.79000000000002
vertex 3408.73 11129.69 275.86
vertex 2678.9100000000003 12589.460000000001 275.86
endloop
endfacet
facet normal 0 0 1
outer loop
vertex 2321.15 12410.58 199.94
vertex 2920.58 11211.720000000001 199.94
vertex 3278.34 11390.6 199.94
endloop
endfacet
facet normal 0 0 1
outer loop
vertex 2321.15 12410.58 199.94
vertex 3278.34 11390.6 199.94
vertex 2678.9100000000003 12589.460000000001 199.94
endloop
endfacet
facet normal 0 0 1
outer loop
vertex 4255.9400000000005 8540.87 199.94
vertex 4821.05 7410.52 199.94
vertex 5178.9400000000005 7589.400000000001 199.94
endloop
endfacet
facet normal 0 0 1
outer loop
vertex 4255.9400000000005 8540.87 199.94
vertex 5178.9400000000005 7589.400000000001 199.94
vertex 4613.7 8719.75 199.94
endloop
endfacet
facet normal 0 0 -1
outer loop
vertex 3278.34 11390.6 599.95
vertex 2920.58 11211.720000000001 599.95
vertex 2321.15 12410.58 599.95
endloop
endfacet
facet normal 0 0 -1
outer loop
vertex 3278.34 11390.6 599.95
vertex 2321.15 12410.58 599.95
vertex 2678.9100000000003 12589.460000000001 599.95
endloop
endfacet
facet normal 0 0 -1
outer loop
vertex 5178.9400000000005 7589.400000000001 599.95
vertex 4821.05 7410.52 599.95
vertex 4255.9400000000005 8540.87 599.95
endloop
endfacet
facet normal 0 0 -1
outer loop
vertex 5178.9400000000005 7589.400000000001 599.95
vertex 4255.9400000000005 8540.87 599.95
vertex 4613.7 8719.75 599.95
endloop
endfacet
facet normal -0.014806692656959275 0.0296133853139187 0.9994517543447565
outer loop
vertex 3278.34 11390.6 199.94
vertex 2920.58 11211.720000000001 199.94
vertex 2938.13 11176.62 201.24
endloop
endfacet
facet normal -0.014806692656959273 0.0296133853139187 0.9994517543447566
outer loop
vertex 3278.34 11390.6 199.94
vertex 2938.13 11176.62 201.24
vertex 3295.8900000000003 11355.5 201.24
endloop
endfacet
facet normal -0.04429155312083574 0.08858310624167193 0.9950835601147878
outer loop
vertex 3295.8900000000003 11355.5 201.24
vertex 2938.13 11176.62 201.24
vertex 2955.55 11141.52 205.14000000000001
endloop
endfacet
facet normal -0.04421372537697362 0.08845958282180878 0.9950980095926639
outer loop
vertex 3295.8900000000003 11355.5 201.24
vertex 2955.55 11141.52 205.14000000000001
vertex 3313.44 11320.4 205.14000000000001
endloop
endfacet
facet normal -0.07236501498343315 0.14478262082077925 0.9868137095291664
outer loop
vertex 3313.44 11320.4 205.14000000000001
vertex 2955.55 11141.52 205.14000000000001
vertex 2972.9700000000003 11106.81 211.51000000000002
endloop
endfacet
facet normal -0.07249171136670268 0.14498342273340445 0.9867749281957024
outer loop
vertex 3313.44 11320.4 205.14000000000001
vertex 2972.9700000000003 11106.81 211.51000000000002
vertex 3330.73 11285.69 211.51000000000002
endloop
endfacet
facet normal -0.10209413172580495 0.20418826345160862 0.9735933141387991
outer loop
vertex 3330.73 11285.69 211.51000000000002
vertex 2972.9700000000003 11106.81 211.51000000000002
vertex 2990.13 11072.62 220.48000000000002
endloop
endfacet
facet normal -0.10209413172579936 0.2041882634515998 0.9735933141388017
outer loop
vertex 3330.73 11285.69 211.51000000000002
vertex 2990.13 11072.62 220.48000000000002
vertex 3347.8900000000003 11251.5 220.48000000000002
endloop
endfacet
facet normal -0.1301272648267331 0.2602545296534675 0.9567311402601911
outer loop
vertex 3347.8900000000003 11251.5 220.48000000000002
vertex 2990.13 11072.62 220.48000000000002
vertex 3006.9 11038.95 231.92000000000002
endloop
endfacet
facet normal -0.13012726482673312 0.26025452965346757 0.956731140260191
outer loop
vertex 3347.8900000000003 11251.5 220.48000000000002
vertex 3006.9 11038.95 231.92000000000002
vertex 3364.6600000000003 11217.83 231.92000000000002
endloop
endfacet
facet normal -0.1568230947068323 0.3136461894136662 0.9365001787681936
outer loop
vertex 3364.6600000000003 11217.83 231.92000000000002
vertex 3006.9 11038.95 231.92000000000002
vertex 3023.4100000000003 11006.06 245.70000000000002
endloop
endfacet
facet normal -0.1568230947068406 0.3136461894136792 0.9365001787681878
outer loop
vertex 3364.6600000000003 11217.83 231.92000000000002
vertex 3023.4100000000003 11006.06 245.70000000000002
vertex 3381.17 11184.94 245.70000000000002
endloop
endfacet
facet normal -0.1845404955008043 0.3690809910016063 0.9108918857919361
outer loop
vertex 3381.17 11184.94 245.70000000000002
vertex 3023.4100000000003 11006.06 245.70000000000002
vertex 3039.4 10973.95 261.95
endloop
endfacet
facet normal -0.18454049550079477 0.36908099100159136 0.9108918857919442
outer loop
vertex 3381.17 11184.94 245.70000000000002
vertex 3039.4 10973.95 261.95
vertex 3397.1600000000003 11152.83 261.95
endloop
endfacet
facet normal 0.21306322956732673 -0.42628130159799926 -0.8791406668527263
outer loop
vertex 2965.4300000000003 11121.890000000001 626.99
vertex 2960.23 11132.16 620.75
vertex 3318.12 11311.04 620.75
endloop
endfacet
facet normal 0.21395975242128876 -0.4279195048425792 -0.8781264838957442
outer loop
vertex 2965.4300000000003 11121.890000000001 626.99
vertex 3318.12 11311.04 620.75
vertex 3323.19 11300.77 626.99
endloop
endfacet
facet normal 0.18477119272125886 -0.36954238544251955 -0.9106580212691345
outer loop
vertex 2960.23 11132.16 620.75
vertex 2954.9 11142.95 615.2900000000001
vertex 3312.6600000000003 11321.83 615.2900000000001
endloop
endfacet
facet normal 0.1839802253505432 -0.3680941572602052 -0.9114043932694545
outer loop
vertex 2960.23 11132.16 620.75
vertex 3312.6600000000003 11321.83 615.2900000000001
vertex 3318.12 11311.04 620.75
endloop
endfacet
facet normal 0.15875213447110526 -0.3175042689422089 -0.9348736807742218
outer loop
vertex 2954.9 11142.95 615.2900000000001
vertex 2949.44 11154 610.61
vertex 3307.2000000000003 11332.880000000001 610.61
endloop
endfacet
facet normal 0.15875213447108585 -0.3175042689421733 -0.9348736807742373
outer loop
vertex 2954.9 11142.95 615.2900000000001
vertex 3307.2000000000003 11332.880000000001 610.61
vertex 3312.6600000000003 11321.83 615.2900000000001
endloop
endfacet
facet normal 0.12913783876137644 -0.2582756775227542 -0.9574012184033416
outer loop
vertex 2949.44 11154 610.61
vertex 2943.85 11165.18 606.84
vertex 3301.61 11344.06 606.84
endloop
endfacet
facet normal 0.12913783876139293 -0.2582756775227846 -0.9574012184033313
outer loop
vertex 2949.44 11154 610.61
vertex 3301.61 11344.06 606.84
vertex 3307.2000000000003 11332.880000000001 610.61
endloop
endfacet
facet normal 0.10133455654758432 -0.20274275739498632 -0.9739746824087279
outer loop
vertex 2943.85 11165.18 606.84
vertex 2938 11176.62 603.85
vertex 3295.8900000000003 11355.5 603.85
endloop
endfacet
facet normal 0.10180080961793514 -0.2036016192358713 -0.9737468746063653
outer loop
vertex 2943.85 11165.18 606.84
vertex 3295.8900000000003 11355.5 603.85
vertex 3301.61 11344.06 606.84
endloop
endfacet
facet normal 0.07053456158586716 -0.14106912317173342 -0.987483862202035
outer loop
vertex 2938 11176.62 603.85
vertex 2932.28 11188.32 601.77
vertex 3290.04 11367.2 601.77
endloop
endfacet
facet normal 0.07020841275861298 -0.1404678490730106 -0.9875928119193245
outer loop
vertex 2938 11176.62 603.85
vertex 3290.04 11367.2 601.77
vertex 3295.8900000000003 11355.5 603.85
endloop
endfacet
facet normal 0.04422657820868094 -0.08845315641736223 -0.9950980096954054
outer loop
vertex 2932.28 11188.32 601.77
vertex 2926.4300000000003 11200.02 600.47
vertex 3284.19 11378.9 600.47
endloop
endfacet
facet normal 0.04422657820868673 -0.0884531564173729 -0.9950980096954042
outer loop
vertex 2932.28 11188.32 601.77
vertex 3284.19 11378.9 600.47
vertex 3290.04 11367.2 601.77
endloop
endfacet
facet normal 0.017763747764520027 -0.035527495529040234 -0.9992108117543527
outer loop
vertex 2926.4300000000003 11200.02 600.47
vertex 2920.58 11211.720000000001 599.95
vertex 3278.34 11390.6 599.95
endloop
endfacet
facet normal 0.01776374776452032 -0.035527495529040776 -0.9992108117543528
outer loop
vertex 2926.4300000000003 11200.02 600.47
vertex 3278.34 11390.6 599.95
vertex 3284.19 11378.9 600.47
endloop
endfacet
facet normal 0.892873058259409 0.4480899977561124 0.044643652913008904
outer loop
vertex 2955.55 11141.52 205.14000000000001
vertex 2938.13 11176.62 201.24
vertex 2920.58 11211.720000000001 199.94
endloop
endfacet
facet normal 0.900173320126086 0.43326261149810325 -0.04440161270745714
outer loop
vertex 3023.4100000000003 11006.06 245.70000000000002
vertex 3006.9 11038.95 231.92000000000002
vertex 2990.13 11072.62 220.48000000000002
endloop
endfacet
facet normal -0.8973944094075154 -0.4391332108173998 0.04295692169298937
outer loop
vertex 3313.44 11320.4 205.14000000000001
vertex 3330.73 11285.69 211.51000000000002
vertex 3347.8900000000003 11251.5 220.48000000000002
endloop
endfacet
facet normal -0.9001733201260995 -0.4332626114980601 0.0444016127076013
outer loop
vertex 3347.8900000000003 11251.5 220.48000000000002
vertex 3364.6600000000003 11217.83 231.92000000000002
vertex 3381.17 11184.94 245.70000000000002
endloop
endfacet
facet normal 0.4082482904634882 -0.8164965809269713 0.4082482904657476
outer loop
vertex 3408.86 11129.56 275.47
vertex 3408.73 11129.69 275.86
vertex 3050.9700000000003 10950.81 275.86
endloop
endfacet
facet normal 0.4082482904641983 -0.8164965809284008 0.4082482904621779
outer loop
vertex 3408.86 11129.56 275.47
vertex 3050.9700000000003 10950.81 275.86
vertex 3051.1 10950.68 275.47
endloop
endfacet
facet normal 0.22357263056255078 -0.44714526112510317 -0.8660695089406534
outer loop
vertex 3323.19 11300.77 626.99
vertex 3815.5 10316.15 1262.43
vertex 3457.7400000000002 10137.27 1262.43
endloop
endfacet
facet normal 0.22357263056255072 -0.44714526112510317 -0.8660695089406534
outer loop
vertex 3323.19 11300.77 626.99
vertex 3457.7400000000002 10137.27 1262.43
vertex 2965.4300000000003 11121.890000000001 626.99
endloop
endfacet
facet normal -0.21177948530870433 0.4235589706174108 0.88076514918104
outer loop
vertex 3408.73 11129.69 275.86
vertex 3397.1600000000003 11152.83 261.95
vertex 3039.4 10973.95 261.95
endloop
endfacet
facet normal -0.21177948530869453 0.42355897061738634 0.880765149181054
outer loop
vertex 3408.73 11129.69 275.86
vertex 3039.4 10973.95 261.95
vertex 3050.9700000000003 10950.81 275.86
endloop
endfacet
facet normal -0.19722825216073042 0.3944565043214623 0.897499349720163
outer loop
vertex 3901.04 10145.07 911.0400000000001
vertex 3543.28 9966.19 911.0400000000001
vertex 3553.81 9945.130000000001 922.61
endloop
endfacet
facet normal -0.19722825216072867 0.39445650432145946 0.8974993497201647
outer loop
vertex 3901.04 10145.07 911.0400000000001
vertex 3553.81 9945.130000000001 922.61
vertex 3911.57 10124.01 922.61
endloop
endfacet
facet normal -0.14320342173835157 0.28640684347670464 0.9473457130383491
outer loop
vertex 3911.57 10124.01 922.61
vertex 3553.81 9945.130000000001 922.61
vertex 3564.9900000000002 9922.77 931.0600000000001
endloop
endfacet
facet normal -0.14320342173835277 0.28640684347670664 0.9473457130383485
outer loop
vertex 3911.57 10124.01 922.61
vertex 3564.9900000000002 9922.77 931.0600000000001
vertex 3922.75 10101.65 931.0600000000001
endloop
endfacet
facet normal -0.08850748942649313 0.17701497885298692 0.9802204453984296
outer loop
vertex 3922.75 10101.65 931.0600000000001
vertex 3564.9900000000002 9922.77 931.0600000000001
vertex 3576.56 9899.76 936.26
endloop
endfacet
facet normal -0.08850748942649844 0.177014978852996 0.9802204453984276
outer loop
vertex 3922.75 10101.65 931.0600000000001
vertex 3576.56 9899.76 936.26
vertex 3934.32 10078.640000000001 936.26
endloop
endfacet
facet normal -0.02870176803156743 0.05740353606313457 0.9979383961744887
outer loop
vertex 3934.32 10078.640000000001 936.26
vertex 3576.56 9899.76 936.26
vertex 3588.26 9876.23 937.95
endloop
endfacet
facet normal -0.028701768031567675 0.05740353606313498 0.9979383961744885
outer loop
vertex 3934.32 10078.640000000001 936.26
vertex 3588.26 9876.23 937.95
vertex 3946.02 10055.11 937.95
endloop
endfacet
facet normal 0.028828802523282914 -0.05765760504656546 0.9979200873443563
outer loop
vertex 3946.02 10055.11 937.95
vertex 3588.26 9876.23 937.95
vertex 3599.96 9852.83 936.26
endloop
endfacet
facet normal 0.028828802523282675 -0.05765760504656506 0.9979200873443564
outer loop
vertex 3946.02 10055.11 937.95
vertex 3599.96 9852.83 936.26
vertex 3957.7200000000003 10031.710000000001 936.26
endloop
endfacet
facet normal 0.08812518260821905 -0.1762503652164372 0.9803926565164289
outer loop
vertex 3957.7200000000003 10031.710000000001 936.26
vertex 3599.96 9852.83 936.26
vertex 3611.53 9829.69 931.0600000000001
endloop
endfacet
facet normal 0.08812518260821375 -0.17625036521642817 0.980392656516431
outer loop
vertex 3957.7200000000003 10031.710000000001 936.26
vertex 3611.53 9829.69 931.0600000000001
vertex 3969.29 10008.57 931.0600000000001
endloop
endfacet
facet normal 0.14380355006913678 -0.2876071001382747 0.9468910681475277
outer loop
vertex 3969.29 10008.57 931.0600000000001
vertex 3611.53 9829.69 931.0600000000001
vertex 3622.71 9807.460000000001 922.61
endloop
endfacet
facet normal 0.1438035500691357 -0.2876071001382729 0.9468910681475284
outer loop
vertex 3969.29 10008.57 931.0600000000001
vertex 3622.71 9807.460000000001 922.61
vertex 3980.4700000000003 9986.34 922.61
endloop
endfacet
facet normal 0.19722825216071785 -0.3944565043214377 0.8974993497201765
outer loop
vertex 3980.4700000000003 9986.34 922.61
vertex 3622.71 9807.460000000001 922.61
vertex 3633.2400000000002 9786.4 911.0400000000001
endloop
endfacet
facet normal 0.19722825216073192 -0.39445650432146134 0.8974993497201632
outer loop
vertex 3980.4700000000003 9986.34 922.61
vertex 3633.2400000000002 9786.4 911.0400000000001
vertex 3991 9965.28 911.0400000000001
endloop
endfacet
facet normal -0.14420627546840253 0.2884125509368065 -0.9465847825618449
outer loop
vertex 3691.09 9670.57 1292.2
vertex 3657.81 9737.130000000001 1317.55
vertex 4015.57 9916.01 1317.55
endloop
endfacet
facet normal -0.14420627546840648 0.2884125509368115 -0.9465847825618426
outer loop
vertex 3691.09 9670.57 1292.2
vertex 4015.57 9916.01 1317.55
vertex 4048.8500000000004 9849.45 1292.2
endloop
endfacet
facet normal -0.08650368540628486 0.17300737081256887 -0.9811144490097232
outer loop
vertex 3657.81 9737.130000000001 1317.55
vertex 3623.36 9806.16 1332.76
vertex 3981.1200000000003 9985.04 1332.76
endloop
endfacet
facet normal -0.08650368540628244 0.17300737081256573 -0.9811144490097241
outer loop
vertex 3657.81 9737.130000000001 1317.55
vertex 3981.1200000000003 9985.04 1332.76
vertex 4015.57 9916.01 1317.55
endloop
endfacet
facet normal -0.029608484780904942 0.0592169695618095 -0.9978059371164788
outer loop
vertex 3623.36 9806.16 1332.76
vertex 3588.26 9876.23 1337.96
vertex 3946.02 10055.11 1337.96
endloop
endfacet
facet normal -0.029608484780904838 0.05921696956180938 -0.9978059371164791
outer loop
vertex 3623.36 9806.16 1332.76
vertex 3946.02 10055.11 1337.96
vertex 3981.1200000000003 9985.04 1332.76
endloop
endfacet
facet normal 0.029564812205255708 -0.05912962441051164 -0.9978124119273821
outer loop
vertex 3588.26 9876.23 1337.96
vertex 3553.1600000000003 9946.43 1332.76
vertex 3910.92 10125.31 1332.76
endloop
endfacet
facet normal 0.029564812205256554 -0.059129624410512734 -0.9978124119273821
outer loop
vertex 3588.26 9876.23 1337.96
vertex 3910.92 10125.31 1332.76
vertex 3946.02 10055.11 1337.96
endloop
endfacet
facet normal 0.08650368540628221 -0.1730073708125653 -0.9811144490097241
outer loop
vertex 3553.1600000000003 9946.43 1332.76
vertex 3518.71 10015.460000000001 1317.55
vertex 3876.4700000000003 10194.34 1317.55
endloop
endfacet
facet normal 0.0865036854062825 -0.17300737081256568 -0.981114449009724
outer loop
vertex 3553.1600000000003 9946.43 1332.76
vertex 3876.4700000000003 10194.34 1317.55
vertex 3910.92 10125.31 1332.76
endloop
endfacet
facet normal 0.14420627546840584 -0.2884125509368128 -0.9465847825618426
outer loop
vertex 3518.71 10015.460000000001 1317.55
vertex 3485.4300000000003 10082.02 1292.2
vertex 3843.19 10260.9 1292.2
endloop
endfacet
facet normal 0.14420627546840536 -0.28841255093681223 -0.9465847825618429
outer loop
vertex 3518.71 10015.460000000001 1317.55
vertex 3843.19 10260.9 1292.2
vertex 3876.4700000000003 10194.34 1317.55
endloop
endfacet
facet normal 0.894241728763061 0.4475473029741607 0.005756921000586211
outer loop
vertex 3518.71 10015.460000000001 1317.55
vertex 3553.1600000000003 9946.43 1332.76
vertex 3588.26 9876.23 1337.96
endloop
endfacet
facet normal 0.8949428114887431 0.4461803692750847 0.0006650099042508183
outer loop
vertex 3503.76 10045.23 1171.3
vertex 3485.9500000000003 10080.98 1153.23
vertex 3467.1 10118.68 1226.42
endloop
endfacet
facet normal 0.8948370994228464 0.44639272880021214 0.0003117223234019083
outer loop
vertex 3503.76 10045.23 1171.3
vertex 3467.1 10118.68 1226.42
vertex 3491.02 10070.710000000001 1255.15
endloop
endfacet
facet normal 0.8947466395021012 0.4465677946104139 -0.0023782170817313233
outer loop
vertex 3535.8700000000003 9980.880000000001 959.6600000000001
vertex 3525.21 10002.460000000001 1001.26
vertex 3529.2400000000002 9994.4 1003.99
endloop
endfacet
facet normal 0.8944695488229315 0.44712878185553745 -0.00028047260953317294
outer loop
vertex 3564.9900000000002 9922.77 931.0600000000001
vertex 3553.81 9945.130000000001 922.61
vertex 3722.6800000000003 9607.52 1257.49
endloop
endfacet
facet normal 0.7601079269955626 0.5700809452473367 -0.3118391495377249
outer loop
vertex 4215.25 8622.380000000001 621.9200000000001
vertex 4214.860000000001 8622.9 621.9200000000001
vertex 4211.09 8630.7 626.99
endloop
endfacet
facet normal 0.8943046760912651 0.447458211044222 -0.000543774219714687
outer loop
vertex 4215.25 8622.380000000001 621.9200000000001
vertex 4216.29 8620.300000000001 620.75
vertex 4193.54 8665.67 539.37
endloop
endfacet
facet normal 0.795687730002689 0.5967657975027126 0.10369001520936949
outer loop
vertex 4215.25 8622.380000000001 621.9200000000001
vertex 4193.54 8665.67 539.37
vertex 4214.860000000001 8622.9 621.9200000000001
endloop
endfacet
facet normal 0.8951883702887844 0.44568690467403377 -0.0009821923380090793
outer loop
vertex 4227.08 8598.59 610.61
vertex 4148.56 8755.76 364.65000000000003
vertex 4159.74 8733.4 408.07
endloop
endfacet
facet normal 0.8961008439989435 0.4438434005655656 -0.0025126000031861647
outer loop
vertex 4227.08 8598.59 610.61
vertex 4159.74 8733.4 408.07
vertex 4221.62 8609.64 615.2900000000001
endloop
endfacet
facet normal 0.8942373284769569 0.44758211514739693 -0.0031385599528019436
outer loop
vertex 4169.49 8713.9 244.01000000000002
vertex 4255.9400000000005 8540.87 199.94
vertex 4186.39 8679.970000000001 220.48000000000002
endloop
endfacet
facet normal 0.893587668293554 0.44885573061717815 -0.005441706148687675
outer loop
vertex 4169.49 8713.9 244.01000000000002
vertex 4186.39 8679.970000000001 220.48000000000002
vertex 4153.110000000001 8746.53 245.70000000000002
endloop
endfacet
facet normal 0.8935821337434037 0.44886409013675604 -0.005656751743533633
outer loop
vertex 4169.49 8713.9 244.01000000000002
vertex 4153.110000000001 8746.53 245.70000000000002
vertex 4125.68 8801.52 276.12
endloop
endfacet
facet normal 0.8982444125199134 0.4385480774879466 0.028854100373801744
outer loop
vertex 4169.49 8713.9 244.01000000000002
vertex 4125.68 8801.52 276.12
vertex 4126.07 8800.61 277.81
endloop
endfacet
facet normal 0.8952947345630565 0.4454118734967868 0.0074566220065432854
outer loop
vertex 4169.49 8713.9 244.01000000000002
vertex 4126.07 8800.61 277.81
vertex 4255.9400000000005 8540.87 199.94
endloop
endfacet
facet normal -0.8952411703556938 -0.4455487103622163 -0.005439999515928144
outer loop
vertex 4080.44 9786.4 1257.49
vertex 4048.8500000000004 9849.45 1292.2
vertex 4015.57 9916.01 1317.55
endloop
endfacet
facet normal 0.19757053453172968 -0.39514106906345736 -0.8971228563715422
outer loop
vertex 3485.4300000000003 10082.02 1292.2
vertex 3457.87 10137.01 1261.91
vertex 3815.63 10315.890000000001 1261.91
endloop
endfacet
facet normal 0.19757053453172452 -0.3951410690634506 -0.8971228563715462
outer loop
vertex 3485.4300000000003 10082.02 1292.2
vertex 3815.63 10315.890000000001 1261.91
vertex 3843.19 10260.9 1292.2
endloop
endfacet
facet normal -0.22363350902543733 0.44726701805087693 0.8659909169297598
outer loop
vertex 3408.86 11129.56 275.47
vertex 3051.1 10950.68 275.47
vertex 3543.28 9966.19 911.0400000000001
endloop
endfacet
facet normal -0.22363350902543755 0.4472670180508768 0.8659909169297597
outer loop
vertex 3408.86 11129.56 275.47
vertex 3543.28 9966.19 911.0400000000001
vertex 3901.04 10145.07 911.0400000000001
endloop
endfacet
facet normal -0.3903600291793958 0.7807200583587947 -0.4879500364743316
outer loop
vertex 3457.87 10137.01 1261.91
vertex 3457.7400000000002 10137.27 1262.43
vertex 3815.5 10316.15 1262.43
endloop
endfacet
facet normal -0.3903600291798502 0.7807200583596965 -0.4879500364725252
outer loop
vertex 3457.87 10137.01 1261.91
vertex 3815.5 10316.15 1262.43
vertex 3815.63 10315.890000000001 1261.91
endloop
endfacet
facet normal 0.3521803625299309 -0.7043607250598645 -0.616315634428844
outer loop
vertex 4076.4100000000003 9794.460000000001 1261.91
vertex 4076.54 9794.07 1262.43
vertex 3718.78 9615.19 1262.43
endloop
endfacet
facet normal 0.3521803625304016 -0.7043607250607996 -0.6163156344275063
outer loop
vertex 4076.4100000000003 9794.460000000001 1261.91
vertex 3718.78 9615.19 1262.43
vertex 3718.65 9615.58 1261.91
endloop
endfacet
facet normal 0.22361579291488046 -0.44723158582975814 0.8660137907650483
outer loop
vertex 3991 9965.28 911.0400000000001
vertex 3633.2400000000002 9786.4 911.0400000000001
vertex 4125.42 8801.78 275.47
endloop
endfacet
facet normal 0.22376350982478085 -0.447202018182859 0.8659909044580508
outer loop
vertex 3991 9965.28 911.0400000000001
vertex 4125.42 8801.78 275.47
vertex 4483.18 8980.79 275.47
endloop
endfacet
facet normal -0.19757053453173015 0.3951410690634583 -0.8971228563715415
outer loop
vertex 3718.65 9615.58 1261.91
vertex 3691.09 9670.57 1292.2
vertex 4048.8500000000004 9849.45 1292.2
endloop
endfacet
facet normal -0.19757053453173018 0.3951410690634583 -0.8971228563715415
outer loop
vertex 3718.65 9615.58 1261.91
vertex 4048.8500000000004 9849.45 1292.2
vertex 4076.4100000000003 9794.460000000001 1261.91
endloop
endfacet
facet normal 0.014806692656959275 -0.0296133853139187 0.9994517543447565
outer loop
vertex 4596.150000000001 8754.85 201.24
vertex 4238.39 8575.970000000001 201.24
vertex 4255.9400000000005 8540.87 199.94
endloop
endfacet
facet normal 0.014806692656959457 -0.029613385313918987 0.9994517543447566
outer loop
vertex 4596.150000000001 8754.85 201.24
vertex 4255.9400000000005 8540.87 199.94
vertex 4613.7 8719.75 199.94
endloop
endfacet
facet normal 0.044343837106115364 -0.08871990083803508 0.9950690444918863
outer loop
vertex 4578.7300000000005 8789.82 205.14000000000001
vertex 4220.84 8610.94 205.14000000000001
vertex 4238.39 8575.970000000001 201.24
endloop
endfacet
facet normal 0.044422074513476656 -0.08884414902695376 0.9950544691018656
outer loop
vertex 4578.7300000000005 8789.82 205.14000000000001
vertex 4238.39 8575.970000000001 201.24
vertex 4596.150000000001 8754.85 201.24
endloop
endfacet
facet normal 0.07249171136670259 -0.14498342273340445 0.9867749281957024
outer loop
vertex 4561.31 8824.53 211.51000000000002
vertex 4203.55 8645.65 211.51000000000002
vertex 4220.84 8610.94 205.14000000000001
endloop
endfacet
facet normal 0.07236501498343306 -0.1447826208207793 0.9868137095291665
outer loop
vertex 4561.31 8824.53 211.51000000000002
vertex 4220.84 8610.94 205.14000000000001
vertex 4578.7300000000005 8789.82 205.14000000000001
endloop
endfacet
facet normal 0.10180080961793438 -0.20360161923586978 0.9737468746063657
outer loop
vertex 4544.150000000001 8858.85 220.48000000000002
vertex 4186.39 8679.970000000001 220.48000000000002
vertex 4203.55 8645.65 211.51000000000002
endloop
endfacet
facet normal 0.10180080961793928 -0.20360161923587752 0.9737468746063634
outer loop
vertex 4544.150000000001 8858.85 220.48000000000002
vertex 4203.55 8645.65 211.51000000000002
vertex 4561.31 8824.53 211.51000000000002
endloop
endfacet
facet normal 0.13012726482673867 -0.260254529653476 0.9567311402601881
outer loop
vertex 4527.38 8892.52 231.92000000000002
vertex 4169.62 8713.64 231.92000000000002
vertex 4186.39 8679.970000000001 220.48000000000002
endloop
endfacet
facet normal 0.1301272648267325 -0.26025452965346635 0.9567311402601918
outer loop
vertex 4527.38 8892.52 231.92000000000002
vertex 4186.39 8679.970000000001 220.48000000000002
vertex 4544.150000000001 8858.85 220.48000000000002
endloop
endfacet
facet normal 0.15682309470683412 -0.313646189413669 0.9365001787681922
outer loop
vertex 4510.87 8925.41 245.70000000000002
vertex 4153.110000000001 8746.53 245.70000000000002
vertex 4169.62 8713.64 231.92000000000002
endloop
endfacet
facet normal 0.1568230947068397 -0.3136461894136778 0.9365001787681884
outer loop
vertex 4510.87 8925.41 245.70000000000002
vertex 4169.62 8713.64 231.92000000000002
vertex 4527.38 8892.52 231.92000000000002
endloop
endfacet
facet normal 0.18503802552062668 -0.37007605104125524 0.910387085561487
outer loop
vertex 4494.88 8957.39 261.95
vertex 4137.12 8778.51 261.95
vertex 4153.110000000001 8746.53 245.70000000000002
endloop
endfacet
facet normal 0.1850380255206289 -0.3700760510412587 0.9103870855614851
outer loop
vertex 4494.88 8957.39 261.95
vertex 4153.110000000001 8746.53 245.70000000000002
vertex 4510.87 8925.41 245.70000000000002
endloop
endfacet
facet normal -0.21147221305507752 0.4229444261101572 -0.8811342210627946
outer loop
vertex 4216.29 8620.300000000001 620.75
vertex 4211.09 8630.7 626.99
vertex 4568.85 8809.58 626.99
endloop
endfacet
facet normal -0.2114722130550777 0.42294442611015753 -0.8811342210627943
outer loop
vertex 4216.29 8620.300000000001 620.75
vertex 4568.85 8809.58 626.99
vertex 4574.05 8799.18 620.75
endloop
endfacet
facet normal -0.18626238713449403 0.37252477426899006 -0.9091378419661112
outer loop
vertex 4221.62 8609.64 615.2900000000001
vertex 4216.29 8620.300000000001 620.75
vertex 4574.05 8799.18 620.75
endloop
endfacet
facet normal -0.18626238713451654 0.37252477426903124 -0.9091378419660896
outer loop
vertex 4221.62 8609.64 615.2900000000001
vertex 4574.05 8799.18 620.75
vertex 4579.38 8788.52 615.2900000000001
endloop
endfacet
facet normal -0.15875213447110526 0.3175042689422089 -0.9348736807742218
outer loop
vertex 4227.08 8598.59 610.61
vertex 4221.62 8609.64 615.2900000000001
vertex 4579.38 8788.52 615.2900000000001
endloop
endfacet
facet normal -0.15875213447110542 0.3175042689422092 -0.9348736807742215
outer loop
vertex 4227.08 8598.59 610.61
vertex 4579.38 8788.52 615.2900000000001
vertex 4584.84 8777.470000000001 610.61
endloop
endfacet
facet normal -0.12804561611631213 0.25609123223262303 -0.9581344378358242
outer loop
vertex 4232.67 8587.28 606.84
vertex 4227.08 8598.59 610.61
vertex 4584.84 8777.470000000001 610.61
endloop
endfacet
facet normal -0.12921290753386389 0.2582381419994141 -0.9574012150312612
outer loop
vertex 4232.67 8587.28 606.84
vertex 4584.84 8777.470000000001 610.61
vertex 4590.43 8766.29 606.84
endloop
endfacet
facet normal -0.10185998731076489 0.20357202983240727 -0.9737468724750618
outer loop
vertex 4238.39 8575.84 603.85
vertex 4232.67 8587.28 606.84
vertex 4590.43 8766.29 606.84
endloop
endfacet
facet normal -0.10047175825890448 0.20101653378398399 -0.9744217664532319
outer loop
vertex 4238.39 8575.84 603.85
vertex 4590.43 8766.29 606.84
vertex 4596.28 8754.720000000001 603.85
endloop
endfacet
facet normal -0.07082239734918852 0.14169626446389139 -0.9873734636249307
outer loop
vertex 4244.24 8564.27 601.77
vertex 4238.39 8575.84 603.85
vertex 4596.28 8754.720000000001 603.85
endloop
endfacet
facet normal -0.0711539921163781 0.14230798423275692 -0.9872616406148432
outer loop
vertex 4244.24 8564.27 601.77
vertex 4596.28 8754.720000000001 603.85
vertex 4602 8743.15 601.77
endloop
endfacet
facet normal -0.04422657820868021 0.08845315641736086 -0.9950980096954055
outer loop
vertex 4250.09 8552.57 600.47
vertex 4244.24 8564.27 601.77
vertex 4602 8743.15 601.77
endloop
endfacet
facet normal -0.04422657820868601 0.08845315641737156 -0.9950980096954044
outer loop
vertex 4250.09 8552.57 600.47
vertex 4602 8743.15 601.77
vertex 4607.85 8731.45 600.47
endloop
endfacet
facet normal -0.017763747764522376 0.03552749552904457 -0.9992108117543524
outer loop
vertex 4255.9400000000005 8540.87 599.95
vertex 4250.09 8552.57 600.47
vertex 4607.85 8731.45 600.47
endloop
endfacet
facet normal -0.017763747764520613 0.03552749552904132 -0.9992108117543527
outer loop
vertex 4255.9400000000005 8540.87 599.95
vertex 4607.85 8731.45 600.47
vertex 4613.7 8719.75 599.95
endloop
endfacet
facet normal -0.8919666676578502 -0.4515916534997837 0.021457918740676804
outer loop
vertex 4544.150000000001 8858.85 220.48000000000002
vertex 4561.31 8824.53 211.51000000000002
vertex 4578.7300000000005 8789.82 205.14000000000001
endloop
endfacet
facet normal 0.8945347808946589 0.44644064850564585 0.022322032425456127
outer loop
vertex 4255.9400000000005 8540.87 199.94
vertex 4238.39 8575.970000000001 201.24
vertex 4220.84 8610.94 205.14000000000001
endloop
endfacet
facet normal 0.21177948530870605 -0.42355897061740994 0.8807651491810401
outer loop
vertex 4483.31 8980.53 275.86
vertex 4125.55 8801.65 275.86
vertex 4137.12 8778.51 261.95
endloop
endfacet
facet normal 0.21177948530869403 -0.4235589706173902 0.8807651491810524
outer loop
vertex 4483.31 8980.53 275.86
vertex 4137.12 8778.51 261.95
vertex 4494.88 8957.39 261.95
endloop
endfacet
facet normal 0.8893915422518875 0.45655053149955516 -0.02333016841521687
outer loop
vertex 4125.68 8801.52 276.12
vertex 4153.110000000001 8746.53 245.70000000000002
vertex 4137.12 8778.51 261.95
endloop
endfacet
facet normal 0.8404094194826851 0.5173146534621678 -0.16154738301220953
outer loop
vertex 4125.68 8801.52 276.12
vertex 4137.12 8778.51 261.95
vertex 4125.55 8801.65 275.86
endloop
endfacet
facet normal -0.2235903445974807 0.447180689194963 -0.8660466436710541
outer loop
vertex 4211.09 8630.7 626.99
vertex 3718.78 9615.19 1262.43
vertex 4076.54 9794.07 1262.43
endloop
endfacet
facet normal -0.22359034459748037 0.447180689194963 -0.8660466436710541
outer loop
vertex 4211.09 8630.7 626.99
vertex 4076.54 9794.07 1262.43
vertex 4568.85 8809.58 626.99
endloop
endfacet
facet normal -0.35856858280020615 0.7171371656004086 0.597614304667537
outer loop
vertex 4125.55 8801.65 275.86
vertex 4483.31 8980.53 275.86
vertex 4483.18 8980.79 275.47
endloop
endfacet
facet normal -0.40847899905772644 0.8163647098089052 0.4082812362911381
outer loop
vertex 4125.55 8801.65 275.86
vertex 4483.18 8980.79 275.47
vertex 4125.42 8801.78 275.47
endloop
endfacet
facet normal -0.4472135954999579 0.8944271909999159 0
outer loop
vertex 4974.45 7487.22 359.71000000000004
vertex 4821.05 7410.52 277.81
vertex 4821.05 7410.52 364.65000000000003
endloop
endfacet
facet normal -0.447213595499958 0.894427190999916 0
outer loop
vertex 4974.45 7487.22 359.71000000000004
vertex 4821.05 7410.52 364.65000000000003
vertex 4821.05 7410.52 599.95
endloop
endfacet
facet normal -0.4470836222033103 0.8944921598297337 0.00010373382014976184
outer loop
vertex 4974.45 7487.22 359.71000000000004
vertex 4821.05 7410.52 599.95
vertex 5178.9400000000005 7589.400000000001 599.95
endloop
endfacet
facet normal -0.44698610719107307 0.8945408989968935 0
outer loop
vertex 4974.45 7487.22 359.71000000000004
vertex 5178.9400000000005 7589.400000000001 599.95
vertex 5178.9400000000005 7589.400000000001 275.86
endloop
endfacet
facet normal -0.44698610719107307 0.8945408989968935 0
outer loop
vertex 4974.45 7487.22 359.71000000000004
vertex 5178.9400000000005 7589.400000000001 275.86
vertex 5178.9400000000005 7589.400000000001 199.94
endloop
endfacet
facet normal -0.44708361917002065 0.89449215376095 -0.0001559805519415368
outer loop
vertex 4974.45 7487.22 359.71000000000004
vertex 5178.9400000000005 7589.400000000001 199.94
vertex 4821.05 7410.52 199.94
endloop
endfacet
facet normal -0.4472135954999579 0.8944271909999159 0
outer loop
vertex 4974.45 7487.22 359.71000000000004
vertex 4821.05 7410.52 199.94
vertex 4821.05 7410.52 277.81
endloop
endfacet
endsolid JSCAD
