solid JSCAD
facet normal -1 0 0
outer loop
vertex 0 9480.380000000001 1142.83
vertex 0 12320.1 0
vertex 0 12208.95 0
endloop
endfacet
facet normal -1 0 0
outer loop
vertex 0 9480.380000000001 1142.83
vertex 0 12208.95 0
vertex 0 11833.12 0
endloop
endfacet
facet normal -1 0 0
outer loop
vertex 0 9480.380000000001 1142.83
vertex 0 11833.12 0
vertex 0 0 0
endloop
endfacet
facet normal -0.9999999999999999 0 0
outer loop
vertex 0 9480.380000000001 1142.83
vertex 0 0 0
vertex 0 0 3999.9700000000003
endloop
endfacet
facet normal -1 0 0
outer loop
vertex 0 9480.380000000001 1142.83
vertex 0 0 3999.9700000000003
vertex 0 15000.050000000001 3999.9700000000003
endloop
endfacet
facet normal -1 0 0
outer loop
vertex 0 9480.380000000001 1142.83
vertex 0 15000.050000000001 3999.9700000000003
vertex 0 15000.050000000001 0
endloop
endfacet
facet normal -0.9999999999999999 0 0
outer loop
vertex 0 9480.380000000001 1142.83
vertex 0 15000.050000000001 0
vertex 0 12320.1 0
endloop
endfacet
facet normal 1 0 0
outer loop
vertex 19999.98 9442.550000000001 1142.83
vertex 19999.98 0 0
vertex 19999.98 11833.12 0
endloop
endfacet
facet normal 1 0 0
outer loop
vertex 19999.98 9442.550000000001 1142.83
vertex 19999.98 11833.12 0
vertex 19999.98 11944.27 0
endloop
endfacet
facet normal 1 0 0
outer loop
vertex 19999.98 9442.550000000001 1142.83
vertex 19999.98 11944.27 0
vertex 19999.98 12320.1 0
endloop
endfacet
facet normal 0.9999999999999999 0 0
outer loop
vertex 19999.98 9442.550000000001 1142.83
vertex 19999.98 12320.1 0
vertex 19999.98 15000.050000000001 0
endloop
endfacet
facet normal 1 0 0
outer loop
vertex 19999.98 9442.550000000001 1142.83
vertex 19999.98 15000.050000000001 0
vertex 19999.98 15000.050000000001 3999.9700000000003
endloop
endfacet
facet normal 1 0 0
outer loop
vertex 19999.98 9442.550000000001 1142.83
vertex 19999.98 15000.050000000001 3999.9700000000003
vertex 19999.98 0 3999.9700000000003
endloop
endfacet
facet normal 1 0 0
outer loop
vertex 19999.98 9442.550000000001 1142.83
vertex 19999.98 0 3999.9700000000003
vertex 19999.98 0 0
endloop
endfacet
facet normal 0 -1 0
outer loop
vertex 0 0 0
vertex 19999.98 0 0
vertex 19999.98 0 3999.9700000000003
endloop
endfacet
facet normal 0 -1 0
outer loop
vertex 0 0 0
vertex 19999.98 0 3999.9700000000003
vertex 0 0 3999.9700000000003
endloop
endfacet
facet normal 0 1 0
outer loop
vertex 0 15000.050000000001 0
vertex 0 15000.050000000001 3999.9700000000003
vertex 19999.98 15000.050000000001 3999.9700000000003
endloop
endfacet
facet normal 0 1 0
outer loop
vertex 0 15000.050000000001 0
vertex 19999.98 15000.050000000001 3999.9700000000003
vertex 19999.98 15000.050000000001 0
endloop
endfacet
facet normal 0 0 1
outer loop
vertex 0 0 3999.9700000000003
vertex 19999.98 0 3999.9700000000003
vertex 19999.98 15000.050000000001 3999.9700000000003
endloop
endfacet
facet normal 0 0 1
outer loop
vertex 0 0 3999.9700000000003
vertex 19999.98 15000.050000000001 3999.9700000000003
vertex 0 15000.050000000001 3999.9700000000003
endloop
endfacet
facet normal -0.9396129934322677 -0.3422388384933151 0
outer loop
vertex 6124.6900000000005 11192.48 300.04
vertex 6124.6900000000005 11192.48 199.94
vertex 6261.58 10816.65 199.94
endloop
endfacet
facet normal -0.9396129934322677 -0.3422388384933151 0
outer loop
vertex 6124.6900000000005 11192.48 300.04
vertex 6261.58 10816.65 199.94
vertex 6261.58 10816.65 300.04
endloop
endfacet
facet normal -0.9396129934322669 -0.342238838493317 0
outer loop
vertex 5714.28 12320.1 599.95
vertex 5714.28 12320.1 0
vertex 5851.17 11944.27 0
endloop
endfacet
facet normal -0.9396129934322669 -0.342238838493317 0
outer loop
vertex 5714.28 12320.1 599.95
vertex 5851.17 11944.27 0
vertex 5851.17 11944.27 599.95
endloop
endfacet
facet normal 0.8798959160057346 0.32018350177725163 0.351092156258276
outer loop
vertex 5338.45 12183.34 199.94
vertex 5475.21 11807.51 199.94
vertex 5545.67 11833.12 0
endloop
endfacet
facet normal 0.8798959160057346 0.32018350177725163 0.351092156258276
outer loop
vertex 5338.45 12183.34 199.94
vertex 5545.67 11833.12 0
vertex 5408.91 12208.95 0
endloop
endfacet
facet normal 0.34174306308670854 -0.9397934234884355 0
outer loop
vertex 5502.900000000001 12243.140000000001 280.02
vertex 5338.45 12183.34 599.95
vertex 5338.45 12183.34 199.94
endloop
endfacet
facet normal 0.34172267060854494 -0.9398008374885031 0.00004741383913660552
outer loop
vertex 5502.900000000001 12243.140000000001 280.02
vertex 5338.45 12183.34 199.94
vertex 5408.91 12208.95 0
endloop
endfacet
facet normal 0.3420321243230514 -0.9396882573507019 -0.00007020157954026052
outer loop
vertex 5502.900000000001 12243.140000000001 280.02
vertex 5408.91 12208.95 0
vertex 5714.28 12320.1 0
endloop
endfacet
facet normal 0.34211423948986824 -0.9396583672475168 0
outer loop
vertex 5502.900000000001 12243.140000000001 280.02
vertex 5714.28 12320.1 0
vertex 5714.28 12320.1 599.95
endloop
endfacet
facet normal 0.3419518429084101 -0.9397174694374637 0.00012151374965440591
outer loop
vertex 5502.900000000001 12243.140000000001 280.02
vertex 5714.28 12320.1 599.95
vertex 5338.45 12183.34 599.95
endloop
endfacet
facet normal -0.34192855722492205 0.9397259503462079 0
outer loop
vertex 5639.66 11867.310000000001 280.02
vertex 5851.17 11944.27 599.95
vertex 5851.17 11944.27 0
endloop
endfacet
facet normal -0.3419035966987257 0.9397350318619978 0.000021349597710782888
outer loop
vertex 5639.66 11867.310000000001 280.02
vertex 5851.17 11944.27 0
vertex 5545.67 11833.12 0
endloop
endfacet
facet normal -0.3417226706085463 0.9398008374885025 -0.00004741383913716041
outer loop
vertex 5639.66 11867.310000000001 280.02
vertex 5545.67 11833.12 0
vertex 5475.21 11807.51 199.94
endloop
endfacet
facet normal -0.3417430630867102 0.939793423488435 0
outer loop
vertex 5639.66 11867.310000000001 280.02
vertex 5475.21 11807.51 199.94
vertex 5475.21 11807.51 599.95
endloop
endfacet
facet normal -0.34184742386008604 0.9397554655925546 -0.000060738321993245333
outer loop
vertex 5639.66 11867.310000000001 280.02
vertex 5475.21 11807.51 599.95
vertex 5851.17 11944.27 599.95
endloop
endfacet
facet normal 0 0 -0.9999999999999999
outer loop
vertex 9142.9 13392.08 0
vertex 19999.98 15000.050000000001 0
vertex 19999.98 12320.1 0
endloop
endfacet
facet normal 0 0 -1
outer loop
vertex 9142.9 13392.08 0
vertex 19999.98 12320.1 0
vertex 5714.28 12320.1 0
endloop
endfacet
facet normal 0 0 -1
outer loop
vertex 9142.9 13392.08 0
vertex 5714.28 12320.1 0
vertex 0 12320.1 0
endloop
endfacet
facet normal 0 0 -1
outer loop
vertex 9142.9 13392.08 0
vertex 0 12320.1 0
vertex 0 15000.050000000001 0
endloop
endfacet
facet normal 0 0 -1
outer loop
vertex 9142.9 13392.08 0
vertex 0 15000.050000000001 0
vertex 19999.98 15000.050000000001 0
endloop
endfacet
facet normal 0 0 -1
outer loop
vertex 5714.28 12320.1 0
vertex 5408.91 12208.95 0
vertex 0 12208.95 0
endloop
endfacet
facet normal 0 0 -1
outer loop
vertex 5714.28 12320.1 0
vertex 0 12208.95 0
vertex 0 12320.1 0
endloop
endfacet
facet normal 0 0 -1
outer loop
vertex 19999.98 12320.1 0
vertex 19999.98 11944.27 0
vertex 5851.17 11944.27 0
endloop
endfacet
facet normal 0 0 -1
outer loop
vertex 19999.98 12320.1 0
vertex 5851.17 11944.27 0
vertex 5714.28 12320.1 0
endloop
endfacet
facet normal 0 0 -0.9999999999999999
outer loop
vertex 5408.91 12208.95 0
vertex 5545.67 11833.12 0
vertex 0 11833.12 0
endloop
endfacet
facet normal 0 0 -1
outer loop
vertex 5408.91 12208.95 0
vertex 0 11833.12 0
vertex 0 12208.95 0
endloop
endfacet
facet normal 0 0 -1
outer loop
vertex 19999.98 11944.27 0
vertex 19999.98 11833.12 0
vertex 5545.67 11833.12 0
endloop
endfacet
facet normal 0 0 -1
outer loop
vertex 19999.98 11944.27 0
vertex 5545.67 11833.12 0
vertex 5851.17 11944.27 0
endloop
endfacet
facet normal 0 0 -1
outer loop
vertex 9109.1 7099.820000000001 0
vertex 5545.67 11833.12 0
vertex 19999.98 11833.12 0
endloop
endfacet
facet normal 0 0 -1
outer loop
vertex 9109.1 7099.820000000001 0
vertex 19999.98 11833.12 0
vertex 19999.98 0 0
endloop
endfacet
facet normal 0 0 -1
outer loop
vertex 9109.1 7099.820000000001 0
vertex 19999.98 0 0
vertex 0 0 0
endloop
endfacet
facet normal 0 0 -0.9999999999999999
outer loop
vertex 9109.1 7099.820000000001 0
vertex 0 0 0
vertex 0 11833.12 0
endloop
endfacet
facet normal 0 0 -1
outer loop
vertex 9109.1 7099.820000000001 0
vertex 0 11833.12 0
vertex 5545.67 11833.12 0
endloop
endfacet
facet normal 0.9397174763752059 0.34195184543297075 0
outer loop
vertex 5475.21 11807.51 599.95
vertex 5475.21 11807.51 199.94
vertex 5338.45 12183.34 199.94
endloop
endfacet
facet normal 0.9397174763752059 0.34195184543297075 0
outer loop
vertex 5475.21 11807.51 599.95
vertex 5338.45 12183.34 199.94
vertex 5338.45 12183.34 599.95
endloop
endfacet
facet normal 0.9397174763752066 0.34195184543296875 0
outer loop
vertex 5885.62 10679.890000000001 300.04
vertex 5885.62 10679.890000000001 199.94
vertex 5748.860000000001 11055.720000000001 199.94
endloop
endfacet
facet normal 0.9397174763752066 0.34195184543296875 0
outer loop
vertex 5885.62 10679.890000000001 300.04
vertex 5748.860000000001 11055.720000000001 199.94
vertex 5748.860000000001 11055.720000000001 300.04
endloop
endfacet
facet normal 0 0 -1
outer loop
vertex 5714.28 12320.1 599.95
vertex 5851.17 11944.27 599.95
vertex 5475.21 11807.51 599.95
endloop
endfacet
facet normal 0 0 -1
outer loop
vertex 5714.28 12320.1 599.95
vertex 5475.21 11807.51 599.95
vertex 5338.45 12183.34 599.95
endloop
endfacet
facet normal 0.34195184543296675 -0.9397174763752074 0
outer loop
vertex 6124.6900000000005 11192.48 199.94
vertex 6124.6900000000005 11192.48 300.04
vertex 5748.860000000001 11055.720000000001 300.04
endloop
endfacet
facet normal 0.34195184543296675 -0.9397174763752074 0
outer loop
vertex 6124.6900000000005 11192.48 199.94
vertex 5748.860000000001 11055.720000000001 300.04
vertex 5748.860000000001 11055.720000000001 199.94
endloop
endfacet
facet normal -0.34184742449064415 0.9397554673260025 0
outer loop
vertex 5885.62 10679.890000000001 300.04
vertex 6261.58 10816.65 300.04
vertex 6261.58 10816.65 199.94
endloop
endfacet
facet normal -0.34184742449064415 0.9397554673260025 0
outer loop
vertex 5885.62 10679.890000000001 300.04
vertex 6261.58 10816.65 199.94
vertex 5885.62 10679.890000000001 199.94
endloop
endfacet
facet normal 0 0 1
outer loop
vertex 5885.62 10679.890000000001 199.94
vertex 6261.58 10816.65 199.94
vertex 6124.6900000000005 11192.48 199.94
endloop
endfacet
facet normal 0 0 1
outer loop
vertex 5885.62 10679.890000000001 199.94
vertex 6124.6900000000005 11192.48 199.94
vertex 5748.860000000001 11055.720000000001 199.94
endloop
endfacet
facet normal 0 0 -1
outer loop
vertex 6124.6900000000005 11192.48 300.04
vertex 6261.58 10816.65 300.04
vertex 5885.62 10679.890000000001 300.04
endloop
endfacet
facet normal 0 0 -1
outer loop
vertex 6124.6900000000005 11192.48 300.04
vertex 5885.62 10679.890000000001 300.04
vertex 5748.860000000001 11055.720000000001 300.04
endloop
endfacet
endsolid JSCAD
