solid JSCAD
facet normal -1 0 0
outer loop
vertex 0 0 0
vertex 0 0 3999.9700000000003
vertex 0 15000.050000000001 3999.9700000000003
endloop
endfacet
facet normal -1 0 0
outer loop
vertex 0 0 0
vertex 0 15000.050000000001 3999.9700000000003
vertex 0 15000.050000000001 0
endloop
endfacet
facet normal 1 0 0
outer loop
vertex 19999.98 0 0
vertex 19999.98 15000.050000000001 0
vertex 19999.98 15000.050000000001 3999.9700000000003
endloop
endfacet
facet normal 1 0 0
outer loop
vertex 19999.98 0 0
vertex 19999.98 15000.050000000001 3999.9700000000003
vertex 19999.98 0 3999.9700000000003
endloop
endfacet
facet normal 0 -1 0
outer loop
vertex 0 0 0
vertex 19999.98 0 0
vertex 19999.98 0 3999.9700000000003
endloop
endfacet
facet normal 0 -1 0
outer loop
vertex 0 0 0
vertex 19999.98 0 3999.9700000000003
vertex 0 0 3999.9700000000003
endloop
endfacet
facet normal 0 1 0
outer loop
vertex 0 15000.050000000001 0
vertex 0 15000.050000000001 3999.9700000000003
vertex 19999.98 15000.050000000001 3999.9700000000003
endloop
endfacet
facet normal 0 1 0
outer loop
vertex 0 15000.050000000001 0
vertex 19999.98 15000.050000000001 3999.9700000000003
vertex 19999.98 15000.050000000001 0
endloop
endfacet
facet normal 0 0 -1
outer loop
vertex 0 0 0
vertex 0 15000.050000000001 0
vertex 19999.98 15000.050000000001 0
endloop
endfacet
facet normal 0 0 -1
outer loop
vertex 0 0 0
vertex 19999.98 15000.050000000001 0
vertex 19999.98 0 0
endloop
endfacet
facet normal 0 0 1
outer loop
vertex 0 0 3999.9700000000003
vertex 19999.98 0 3999.9700000000003
vertex 19999.98 15000.050000000001 3999.9700000000003
endloop
endfacet
facet normal 0 0 1
outer loop
vertex 0 0 3999.9700000000003
vertex 19999.98 15000.050000000001 3999.9700000000003
vertex 0 15000.050000000001 3999.9700000000003
endloop
endfacet
facet normal 0.9912262499956094 -0.13217609965361268 0
outer loop
vertex 999.96 3000.01 599.95
vertex 999.96 3000.01 199.94
vertex 2000.0500000000002 10499.970000000001 199.94
endloop
endfacet
facet normal 0.9912262499956094 -0.13217609965361268 0
outer loop
vertex 999.96 3000.01 599.95
vertex 2000.0500000000002 10499.970000000001 199.94
vertex 2000.0500000000002 10499.970000000001 599.95
endloop
endfacet
facet normal -0.5144760833608959 0.8575047286456399 0
outer loop
vertex 3499.9900000000002 4499.95 599.95
vertex 3499.9900000000002 4499.95 199.94
vertex 999.96 3000.01 199.94
endloop
endfacet
facet normal -0.5144760833608959 0.8575047286456399 0
outer loop
vertex 3499.9900000000002 4499.95 599.95
vertex 999.96 3000.01 199.94
vertex 999.96 3000.01 599.95
endloop
endfacet
facet normal -0.9701449730052196 -0.24252573338246353 0
outer loop
vertex 2000.0500000000002 10499.970000000001 599.95
vertex 2000.0500000000002 10499.970000000001 199.94
vertex 3499.9900000000002 4499.95 199.94
endloop
endfacet
facet normal -0.9701449730052196 -0.24252573338246353 0
outer loop
vertex 2000.0500000000002 10499.970000000001 599.95
vertex 3499.9900000000002 4499.95 199.94
vertex 3499.9900000000002 4499.95 599.95
endloop
endfacet
facet normal 0 0 -1
outer loop
vertex 12500.02 3499.9900000000002 599.95
vertex 9500.01 5000.06 599.95
vertex 11500.06 10499.970000000001 599.95
endloop
endfacet
facet normal 0 0 -1
outer loop
vertex 3499.9900000000002 4499.95 599.95
vertex 999.96 3000.01 599.95
vertex 2000.0500000000002 10499.970000000001 599.95
endloop
endfacet
facet normal 0 0 1
outer loop
vertex 9500.01 5000.06 199.94
vertex 12500.02 3499.9900000000002 199.94
vertex 11500.06 10499.970000000001 199.94
endloop
endfacet
facet normal 0 0 1
outer loop
vertex 999.96 3000.01 199.94
vertex 3499.9900000000002 4499.95 199.94
vertex 2000.0500000000002 10499.970000000001 199.94
endloop
endfacet
facet normal -0.9899502290414822 -0.1414162084794987 0
outer loop
vertex 11500.06 10499.970000000001 599.95
vertex 11500.06 10499.970000000001 199.94
vertex 12500.02 3499.9900000000002 199.94
endloop
endfacet
facet normal -0.9899502290414822 -0.1414162084794987 0
outer loop
vertex 11500.06 10499.970000000001 599.95
vertex 12500.02 3499.9900000000002 199.94
vertex 12500.02 3499.9900000000002 599.95
endloop
endfacet
facet normal 0.9397888834088061 -0.3417555480474738 0
outer loop
vertex 9500.01 5000.06 599.95
vertex 9500.01 5000.06 199.94
vertex 11500.06 10499.970000000001 199.94
endloop
endfacet
facet normal 0.9397888834088061 -0.3417555480474738 0
outer loop
vertex 9500.01 5000.06 599.95
vertex 11500.06 10499.970000000001 199.94
vertex 11500.06 10499.970000000001 599.95
endloop
endfacet
facet normal 0.4472290986513811 0.8944194392562547 0
outer loop
vertex 12500.02 3499.9900000000002 599.95
vertex 12500.02 3499.9900000000002 199.94
vertex 9500.01 5000.06 199.94
endloop
endfacet
facet normal 0.4472290986513811 0.8944194392562547 0
outer loop
vertex 12500.02 3499.9900000000002 599.95
vertex 9500.01 5000.06 199.94
vertex 9500.01 5000.06 599.95
endloop
endfacet
endsolid JSCAD
