solid JSCAD
facet normal -1 0 0
outer loop
vertex 0 0 0
vertex 0 0 3999.9700000000003
vertex 0 15000.050000000001 3999.9700000000003
endloop
endfacet
facet normal -1 0 0
outer loop
vertex 0 0 0
vertex 0 15000.050000000001 3999.9700000000003
vertex 0 15000.050000000001 0
endloop
endfacet
facet normal 1 0 0
outer loop
vertex 19999.98 0 0
vertex 19999.98 15000.050000000001 0
vertex 19999.98 15000.050000000001 3999.9700000000003
endloop
endfacet
facet normal 1 0 0
outer loop
vertex 19999.98 0 0
vertex 19999.98 15000.050000000001 3999.9700000000003
vertex 19999.98 0 3999.9700000000003
endloop
endfacet
facet normal 0 -1 0
outer loop
vertex 0 0 0
vertex 19999.98 0 0
vertex 19999.98 0 3999.9700000000003
endloop
endfacet
facet normal 0 -1 0
outer loop
vertex 0 0 0
vertex 19999.98 0 3999.9700000000003
vertex 0 0 3999.9700000000003
endloop
endfacet
facet normal 0 1 0
outer loop
vertex 0 15000.050000000001 0
vertex 0 15000.050000000001 3999.9700000000003
vertex 19999.98 15000.050000000001 3999.9700000000003
endloop
endfacet
facet normal 0 1 0
outer loop
vertex 0 15000.050000000001 0
vertex 19999.98 15000.050000000001 3999.9700000000003
vertex 19999.98 15000.050000000001 0
endloop
endfacet
facet normal 0 0 -1
outer loop
vertex 0 0 0
vertex 0 15000.050000000001 0
vertex 19999.98 15000.050000000001 0
endloop
endfacet
facet normal 0 0 -1
outer loop
vertex 0 0 0
vertex 19999.98 15000.050000000001 0
vertex 19999.98 0 0
endloop
endfacet
facet normal 0 0 1
outer loop
vertex 0 0 3999.9700000000003
vertex 19999.98 0 3999.9700000000003
vertex 19999.98 15000.050000000001 3999.9700000000003
endloop
endfacet
facet normal 0 0 1
outer loop
vertex 0 0 3999.9700000000003
vertex 19999.98 15000.050000000001 3999.9700000000003
vertex 0 15000.050000000001 3999.9700000000003
endloop
endfacet
facet normal 0.31622776601683733 -0.9486832980505141 0
outer loop
vertex 7689.76 12563.2 199.94
vertex 7689.76 12563.2 599.95
vertex 7310.29 12436.710000000001 599.95
endloop
endfacet
facet normal 0.31622776601683733 -0.9486832980505141 0
outer loop
vertex 7689.76 12563.2 199.94
vertex 7310.29 12436.710000000001 599.95
vertex 7310.29 12436.710000000001 199.94
endloop
endfacet
facet normal 0.9486832980506662 0.3162277660163809 -7.253588325469034e-13
outer loop
vertex 8425.56 9090.77 1261.91
vertex 8422.7 9099.35 1257.49
vertex 8425.43 9091.16 1262.43
endloop
endfacet
facet normal 0.9486832980502528 0.31622776601762115 -1.559492542371628e-12
outer loop
vertex 8612.76 8529.17 1257.49
vertex 8609.9 8537.75 1261.91
vertex 8610.03 8537.36 1262.43
endloop
endfacet
facet normal 0.9486906130421746 0.31620580266226134 -0.00010530136800768571
outer loop
vertex 8486.01 8909.550000000001 911.0400000000001
vertex 8140.6 9945.65 280.54
vertex 8077.42 10135.32 626.99
endloop
endfacet
facet normal 0.9486759727099177 0.31624972366243503 0.00010529161822617633
outer loop
vertex 8486.01 8909.550000000001 911.0400000000001
vertex 8077.42 10135.32 626.99
vertex 8422.7 9099.35 1257.49
endloop
endfacet
facet normal 0.9601042607497364 0.2652919667857866 -0.0884306555959582
outer loop
vertex 8137.87 9953.84 275.47
vertex 8137.87 9953.970000000001 275.86
vertex 8140.6 9945.65 280.54
endloop
endfacet
facet normal 0.9486847566620572 0.3162233668699863 -0.00012133615918863591
outer loop
vertex 8960.9 7484.88 621.9200000000001
vertex 8897.59 7674.68 275.47
vertex 8549.58 8718.970000000001 911.0400000000001
endloop
endfacet
facet normal 0.9487069171862559 0.316156840170383 0.00019415568339186269
outer loop
vertex 8960.9 7484.88 621.9200000000001
vertex 8549.58 8718.970000000001 911.0400000000001
vertex 8612.76 8529.17 1257.49
endloop
endfacet
facet normal 0.9486888886199655 0.3162109938142805 0
outer loop
vertex 8045.570000000001 10230.74 599.95
vertex 8045.570000000001 10230.74 199.94
vertex 7310.29 12436.710000000001 199.94
endloop
endfacet
facet normal 0.9486888886199655 0.3162109938142805 0
outer loop
vertex 8045.570000000001 10230.74 599.95
vertex 7310.29 12436.710000000001 199.94
vertex 7310.29 12436.710000000001 599.95
endloop
endfacet
facet normal 0.9486732751423145 0.31625783315319567 0
outer loop
vertex 9810.32 4936.75 599.95
vertex 9810.32 4936.75 199.94
vertex 8989.89 7397.780000000001 199.94
endloop
endfacet
facet normal 0.9486732751423145 0.31625783315319567 0
outer loop
vertex 9810.32 4936.75 599.95
vertex 8989.89 7397.780000000001 199.94
vertex 8989.89 7397.780000000001 599.95
endloop
endfacet
facet normal -0.9486847600598015 -0.3162233566742137 0.00012134236576628575
outer loop
vertex 8926.32 8853.65 915.98
vertex 9274.33 7809.360000000001 280.54
vertex 9337.64 7619.56 626.99
endloop
endfacet
facet normal -0.9487069117474096 -0.3161568564848903 -0.00019416561301868401
outer loop
vertex 8926.32 8853.65 915.98
vertex 9337.64 7619.56 626.99
vertex 8989.5 8663.85 1262.43
endloop
endfacet
facet normal -0.9001808023896789 -0.4027124642280527 0.16582277938945306
outer loop
vertex 9277.06 7801.17 275.47
vertex 9277.19 7801.04 275.86
vertex 9274.33 7809.360000000001 280.54
endloop
endfacet
facet normal -0.9487069842691583 -0.3161566389466334 0.0001940332109847214
outer loop
vertex 8454.16 10270.130000000001 621.9200000000001
vertex 8517.34 10080.33 275.47
vertex 8868.210000000001 9027.85 915.98
endloop
endfacet
facet normal -0.9486846200054585 -0.3162237769415052 -0.00012108653210959225
outer loop
vertex 8454.16 10270.130000000001 621.9200000000001
vertex 8868.210000000001 9027.85 915.98
vertex 8804.9 9217.65 1262.43
endloop
endfacet
facet normal -0.9486732751423145 -0.31625783315319567 0
outer loop
vertex 9369.36 7524.27 599.95
vertex 9369.36 7524.27 199.94
vertex 10189.79 5063.24 199.94
endloop
endfacet
facet normal -0.9486732751423145 -0.31625783315319567 0
outer loop
vertex 9369.36 7524.27 599.95
vertex 10189.79 5063.24 199.94
vertex 10189.79 5063.24 599.95
endloop
endfacet
facet normal -0.9486888886199655 -0.3162109938142805 0
outer loop
vertex 7689.76 12563.2 599.95
vertex 7689.76 12563.2 199.94
vertex 8425.04 10357.23 199.94
endloop
endfacet
facet normal -0.9486888886199655 -0.3162109938142805 0
outer loop
vertex 7689.76 12563.2 599.95
vertex 8425.04 10357.23 199.94
vertex 8425.04 10357.23 599.95
endloop
endfacet
facet normal 0 0 0.9999999999999999
outer loop
vertex 7310.29 12436.710000000001 199.94
vertex 8045.570000000001 10230.74 199.94
vertex 8425.04 10357.23 199.94
endloop
endfacet
facet normal 0 0 0.9999999999999999
outer loop
vertex 7310.29 12436.710000000001 199.94
vertex 8425.04 10357.23 199.94
vertex 7689.76 12563.2 199.94
endloop
endfacet
facet normal 0 0 0.9999999999999999
outer loop
vertex 8989.89 7397.780000000001 199.94
vertex 9810.32 4936.75 199.94
vertex 10189.79 5063.24 199.94
endloop
endfacet
facet normal 0 0 1
outer loop
vertex 8989.89 7397.780000000001 199.94
vertex 10189.79 5063.24 199.94
vertex 9369.36 7524.27 199.94
endloop
endfacet
facet normal 0 0 -0.9999999999999999
outer loop
vertex 8425.04 10357.23 599.95
vertex 8045.570000000001 10230.74 599.95
vertex 7310.29 12436.710000000001 599.95
endloop
endfacet
facet normal 0 0 -0.9999999999999999
outer loop
vertex 8425.04 10357.23 599.95
vertex 7310.29 12436.710000000001 599.95
vertex 7689.76 12563.2 599.95
endloop
endfacet
facet normal 0 0 -1
outer loop
vertex 10189.79 5063.24 599.95
vertex 9810.32 4936.75 599.95
vertex 8989.89 7397.780000000001 599.95
endloop
endfacet
facet normal 0 0 -0.9999999999999999
outer loop
vertex 10189.79 5063.24 599.95
vertex 8989.89 7397.780000000001 599.95
vertex 9369.36 7524.27 599.95
endloop
endfacet
facet normal -0.010487407346713525 0.03146222204014065 0.9994499201417953
outer loop
vertex 8235.37 10293.92 199.94
vertex 7855.900000000001 10167.43 199.94
vertex 7868.25 10130.25 201.24
endloop
endfacet
facet normal -0.010487407346713428 0.03146222204014043 0.9994499201417952
outer loop
vertex 8235.37 10293.92 199.94
vertex 7868.25 10130.25 201.24
vertex 8247.720000000001 10256.74 201.24
endloop
endfacet
facet normal -0.03129219958279568 0.09387659874838748 0.9950919467329161
outer loop
vertex 8247.720000000001 10256.74 201.24
vertex 7868.25 10130.25 201.24
vertex 7880.7300000000005 10093.07 205.14000000000001
endloop
endfacet
facet normal -0.03129219958279597 0.09387659874838812 0.9950919467329159
outer loop
vertex 8247.720000000001 10256.74 201.24
vertex 7880.7300000000005 10093.07 205.14000000000001
vertex 8260.2 10219.56 205.14000000000001
endloop
endfacet
facet normal -0.05127422438806558 0.1538226731641971 0.986767216284582
outer loop
vertex 8260.2 10219.56 205.14000000000001
vertex 7880.7300000000005 10093.07 205.14000000000001
vertex 7892.95 10056.28 211.51000000000002
endloop
endfacet
facet normal -0.051274224388065566 0.15382267316419707 0.986767216284582
outer loop
vertex 8260.2 10219.56 205.14000000000001
vertex 7892.95 10056.28 211.51000000000002
vertex 8272.42 10182.77 211.51000000000002
endloop
endfacet
facet normal -0.07201191058429693 0.21603573175289134 0.9737262692050533
outer loop
vertex 8272.42 10182.77 211.51000000000002
vertex 7892.95 10056.28 211.51000000000002
vertex 7905.04 10019.880000000001 220.48000000000002
endloop
endfacet
facet normal -0.07201191058429694 0.21603573175289134 0.9737262692050533
outer loop
vertex 8272.42 10182.77 211.51000000000002
vertex 7905.04 10019.880000000001 220.48000000000002
vertex 8284.51 10146.37 220.48000000000002
endloop
endfacet
facet normal -0.09210565440243028 0.27631696320729154 0.9566428195888999
outer loop
vertex 8284.51 10146.37 220.48000000000002
vertex 7905.04 10019.880000000001 220.48000000000002
vertex 7917 9984.26 231.92000000000002
endloop
endfacet
facet normal -0.09210565440242942 0.2763169632072896 0.9566428195889005
outer loop
vertex 8284.51 10146.37 220.48000000000002
vertex 7917 9984.26 231.92000000000002
vertex 8296.470000000001 10110.75 231.92000000000002
endloop
endfacet
facet normal -0.11080351917881093 0.33241055753643434 0.9366033319265461
outer loop
vertex 8296.470000000001 10110.75 231.92000000000002
vertex 7917 9984.26 231.92000000000002
vertex 7928.570000000001 9949.29 245.70000000000002
endloop
endfacet
facet normal -0.11080351917881194 0.33241055753643656 0.9366033319265451
outer loop
vertex 8296.470000000001 10110.75 231.92000000000002
vertex 7928.570000000001 9949.29 245.70000000000002
vertex 8308.04 10075.78 245.70000000000002
endloop
endfacet
facet normal -0.13080939929232271 0.3924281978769691 0.9104334190745725
outer loop
vertex 8308.04 10075.78 245.70000000000002
vertex 7928.570000000001 9949.29 245.70000000000002
vertex 7939.88 9915.36 261.95
endloop
endfacet
facet normal -0.13080939929232271 0.3924281978769691 0.9104334190745725
outer loop
vertex 8308.04 10075.78 245.70000000000002
vertex 7939.88 9915.36 261.95
vertex 8319.35 10041.85 261.95
endloop
endfacet
facet normal 0.14946889851637082 -0.44840669554911355 -0.8812437141693706
outer loop
vertex 7887.62 10072.140000000001 626.99
vertex 7883.9800000000005 10083.19 620.75
vertex 8263.45 10209.68 620.75
endloop
endfacet
facet normal 0.14946889851637082 -0.4484066955491136 -0.8812437141693705
outer loop
vertex 7887.62 10072.140000000001 626.99
vertex 8263.45 10209.68 620.75
vertex 8267.09 10198.630000000001 626.99
endloop
endfacet
facet normal 0.13167502932503758 -0.39502508797511376 -0.9091847262919148
outer loop
vertex 7883.9800000000005 10083.19 620.75
vertex 7880.21 10094.5 615.2900000000001
vertex 8259.68 10220.99 615.2900000000001
endloop
endfacet
facet normal 0.13167502932503758 -0.39502508797511376 -0.9091847262919148
outer loop
vertex 7883.9800000000005 10083.19 620.75
vertex 8259.68 10220.99 615.2900000000001
vertex 8263.45 10209.68 620.75
endloop
endfacet
facet normal 0.11219363880101135 -0.3365809164030349 -0.934946990008461
outer loop
vertex 7880.21 10094.5 615.2900000000001
vertex 7876.31 10106.2 610.61
vertex 8255.78 10232.69 610.61
endloop
endfacet
facet normal 0.11219363880101135 -0.33658091640303484 -0.934946990008461
outer loop
vertex 7880.21 10094.5 615.2900000000001
vertex 8255.78 10232.69 610.61
vertex 8259.68 10220.99 615.2900000000001
endloop
endfacet
facet normal 0.090510608187817 -0.27153182456345104 -0.9581640246088949
outer loop
vertex 7876.31 10106.2 610.61
vertex 7872.280000000001 10118.16 606.84
vertex 8251.75 10244.65 606.84
endloop
endfacet
facet normal 0.09051060818781487 -0.2715318245634452 -0.9581640246088965
outer loop
vertex 7876.31 10106.2 610.61
vertex 8251.75 10244.65 606.84
vertex 8255.78 10232.69 610.61
endloop
endfacet
facet normal 0.07223210552617283 -0.21669631657851957 -0.9735631614397485
outer loop
vertex 7872.280000000001 10118.16 606.84
vertex 7868.25 10130.25 603.85
vertex 8247.720000000001 10256.74 603.85
endloop
endfacet
facet normal 0.07223210552617627 -0.21669631657852884 -0.9735631614397462
outer loop
vertex 7872.280000000001 10118.16 606.84
vertex 8247.720000000001 10256.74 603.85
vertex 8251.75 10244.65 606.84
endloop
endfacet
facet normal 0.049996094207703935 -0.14998828262311215 -0.9874228606021554
outer loop
vertex 7868.25 10130.25 603.85
vertex 7864.22 10142.6 601.77
vertex 8243.69 10269.09 601.77
endloop
endfacet
facet normal 0.04999609420770278 -0.1499882826231091 -0.9874228606021561
outer loop
vertex 7868.25 10130.25 603.85
vertex 8243.69 10269.09 601.77
vertex 8247.720000000001 10256.74 603.85
endloop
endfacet
facet normal 0.03138994200762039 -0.09416982602286139 -0.9950611616416261
outer loop
vertex 7864.22 10142.6 601.77
vertex 7860.06 10154.95 600.47
vertex 8239.53 10281.44 600.47
endloop
endfacet
facet normal 0.031389942007620374 -0.09416982602286135 -0.9950611616416262
outer loop
vertex 7864.22 10142.6 601.77
vertex 8239.53 10281.44 600.47
vertex 8243.69 10269.09 601.77
endloop
endfacet
facet normal 0.012490245804210954 -0.037470737412632946 -0.9992196643368784
outer loop
vertex 7860.06 10154.95 600.47
vertex 7855.900000000001 10167.43 599.95
vertex 8235.37 10293.92 599.95
endloop
endfacet
facet normal 0.012490245804210943 -0.03747073741263292 -0.9992196643368784
outer loop
vertex 7860.06 10154.95 600.47
vertex 8235.37 10293.92 599.95
vertex 8239.53 10281.44 600.47
endloop
endfacet
facet normal 0.9485842007598217 0.3165243057103619 0.0006147872994820235
outer loop
vertex 8317.14 8783.58 1220.96
vertex 8377.2 8603.4 1317.55
vertex 8423.09 8465.99 1257.49
endloop
endfacet
facet normal 0.9486051271027992 0.31646218200359555 0.000013993046254469211
outer loop
vertex 8317.14 8783.58 1220.96
vertex 8423.09 8465.99 1257.49
vertex 8364.720000000001 8640.970000000001 937.95
endloop
endfacet
facet normal 0.9485711795864052 0.31656391994467126 -0.00004298045505936639
outer loop
vertex 8317.14 8783.58 1220.96
vertex 8364.720000000001 8640.970000000001 937.95
vertex 8291.27 8861.06 937.95
endloop
endfacet
facet normal 0.9487242002293043 0.3161049802706527 -0.00018261258811031616
outer loop
vertex 8317.14 8783.58 1220.96
vertex 8291.27 8861.06 937.95
vertex 8233.03 9036.04 1257.49
endloop
endfacet
facet normal 0.9487614744067746 0.3159924059639853 0.0006812155128556696
outer loop
vertex 8317.14 8783.58 1220.96
vertex 8233.03 9036.04 1257.49
vertex 8255.26 8969.220000000001 1292.2
endloop
endfacet
facet normal 0.9486832980505135 0.31622776601683894 -1.9321935966112648e-14
outer loop
vertex 8317.14 8783.58 1220.96
vertex 8255.26 8969.220000000001 1292.2
vertex 8278.79 8898.630000000001 1317.55
endloop
endfacet
facet normal 0.9485480237449057 0.31663284594604857 -0.0005362068068897911
outer loop
vertex 8317.14 8783.58 1220.96
vertex 8278.79 8898.630000000001 1317.55
vertex 8303.23 8825.44 1332.76
endloop
endfacet
facet normal 0.9486907414473085 0.3162052319019288 -0.0003583434157692028
outer loop
vertex 8317.14 8783.58 1220.96
vertex 8303.23 8825.44 1332.76
vertex 8328.06 8750.95 1337.96
endloop
endfacet
facet normal 0.9487496412637063 0.316028396670872 -0.00041315811307215863
outer loop
vertex 8317.14 8783.58 1220.96
vertex 8328.06 8750.95 1337.96
vertex 8377.2 8603.4 1317.55
endloop
endfacet
facet normal 0.9486832980505138 0.3162277660168379 0
outer loop
vertex 8328.06 8750.95 937.95
vertex 8319.74 8775.91 936.26
vertex 8291.66 8860.15 936.26
endloop
endfacet
facet normal 0.9473575856611434 0.31653151917603267 0.048180932519023056
outer loop
vertex 8328.06 8750.95 937.95
vertex 8291.66 8860.15 936.26
vertex 8291.27 8861.06 937.95
endloop
endfacet
facet normal 0.9484027470173085 0.31613424900576953 0.024318019154139458
outer loop
vertex 8364.720000000001 8640.970000000001 937.95
vertex 8364.460000000001 8641.880000000001 936.26
vertex 8336.380000000001 8726.12 936.26
endloop
endfacet
facet normal 0.9484027470172858 0.31613424900577763 0.024318019154929767
outer loop
vertex 8364.720000000001 8640.970000000001 937.95
vertex 8336.380000000001 8726.12 936.26
vertex 8328.06 8750.95 937.95
endloop
endfacet
facet normal 0.9486536530870469 0.3162178843623691 -0.007905447108694136
outer loop
vertex 8319.74 8775.91 936.26
vertex 8311.550000000001 8800.35 931.0600000000001
vertex 8292.57 8857.29 931.0600000000001
endloop
endfacet
facet normal 0.9486536530870504 0.31621788436235015 -0.007905447109009617
outer loop
vertex 8319.74 8775.91 936.26
vertex 8292.57 8857.29 931.0600000000001
vertex 8291.66 8860.15 936.26
endloop
endfacet
facet normal 0.9486237645124522 0.3154876301111972 -0.024093747094298044
outer loop
vertex 8364.460000000001 8641.880000000001 936.26
vertex 8363.42 8644.61 931.0600000000001
vertex 8344.44 8701.68 931.0600000000001
endloop
endfacet
facet normal 0.9485647348683891 0.31618824495612974 -0.015809412247930768
outer loop
vertex 8364.460000000001 8641.880000000001 936.26
vertex 8344.44 8701.68 931.0600000000001
vertex 8336.380000000001 8726.12 936.26
endloop
endfacet
facet normal 0.9481639797377894 0.31748477149588256 0.013729071199614612
outer loop
vertex 8311.550000000001 8800.35 931.0600000000001
vertex 8303.75 8824.01 922.61
vertex 8294.130000000001 8852.74 922.61
endloop
endfacet
facet normal 0.9486720712285207 0.3162240237428604 0.004864984980754498
outer loop
vertex 8311.550000000001 8800.35 931.0600000000001
vertex 8294.130000000001 8852.74 922.61
vertex 8292.57 8857.29 931.0600000000001
endloop
endfacet
facet normal 0.9481412092646337 0.31747714699355895 0.015378830613165168
outer loop
vertex 8363.42 8644.61 931.0600000000001
vertex 8361.99 8649.29 922.61
vertex 8352.37 8678.02 922.61
endloop
endfacet
facet normal 0.9488767464192517 0.3155717653239368 0.006883388348004969
outer loop
vertex 8363.42 8644.61 931.0600000000001
vertex 8352.37 8678.02 922.61
vertex 8344.44 8701.68 931.0600000000001
endloop
endfacet
facet normal 0.9482444248392907 0.3175117078647111 -0.0043389088532610936
outer loop
vertex 8303.75 8824.01 922.61
vertex 8296.210000000001 8846.37 911.0400000000001
vertex 8294.130000000001 8852.74 922.61
endloop
endfacet
facet normal 0.9482344401257754 0.31750836456697296 -0.006315456385984621
outer loop
vertex 8361.99 8649.29 922.61
vertex 8359.78 8655.66 911.0400000000001
vertex 8352.37 8678.02 922.61
endloop
endfacet
facet normal 0.9486627109754923 0.31622090365845756 0.006587935492866386
outer loop
vertex 7888.79 10068.76 620.75
vertex 7883.9800000000005 10083.19 620.75
vertex 7887.62 10072.140000000001 626.99
endloop
endfacet
facet normal 0.9482317965927133 0.3175074794020862 0.006742436821285585
outer loop
vertex 7888.79 10068.76 620.75
vertex 7889.83 10065.77 615.2900000000001
vertex 7880.21 10094.5 615.2900000000001
endloop
endfacet
facet normal 0.9486832980505258 0.3162277660168021 -1.878818468116817e-13
outer loop
vertex 7888.79 10068.76 620.75
vertex 7880.21 10094.5 615.2900000000001
vertex 7883.9800000000005 10083.19 620.75
endloop
endfacet
facet normal 0.9488318219003545 0.31532175350162756 -0.017040114961847767
outer loop
vertex 7889.83 10065.77 615.2900000000001
vertex 7890.610000000001 10063.17 610.61
vertex 7876.31 10106.2 610.61
endloop
endfacet
facet normal 0.9482472891863548 0.31751266696737795 0.0035755930966057878
outer loop
vertex 7889.83 10065.77 615.2900000000001
vertex 7876.31 10106.2 610.61
vertex 7880.21 10094.5 615.2900000000001
endloop
endfacet
facet normal 0.9488468294694943 0.3155618157233341 -0.010508789800977738
outer loop
vertex 7890.610000000001 10063.17 610.61
vertex 7891.26 10061.09 606.84
vertex 7872.280000000001 10118.16 606.84
endloop
endfacet
facet normal 0.9488774231339052 0.31533690799011876 -0.013938089036565402
outer loop
vertex 7890.610000000001 10063.17 610.61
vertex 7872.280000000001 10118.16 606.84
vertex 7876.31 10106.2 610.61
endloop
endfacet
facet normal 0.9475524540179173 0.31701203424864244 0.04059208083062892
outer loop
vertex 7891.26 10061.09 606.84
vertex 7891.91 10059.53 603.85
vertex 7868.25 10130.25 603.85
endloop
endfacet
facet normal 0.9488951997424763 0.3155779024200434 -0.0029133159546593022
outer loop
vertex 7891.26 10061.09 606.84
vertex 7868.25 10130.25 603.85
vertex 7872.280000000001 10118.16 606.84
endloop
endfacet
facet normal 0.9486832980505138 0.3162277660168379 1.3830206354956192e-13
outer loop
vertex 7891.91 10059.53 603.85
vertex 7892.3 10058.36 601.77
vertex 7864.22 10142.6 601.77
endloop
endfacet
facet normal 0.9473142234641275 0.31693233211483773 0.046364413970272814
outer loop
vertex 7891.91 10059.53 603.85
vertex 7864.22 10142.6 601.77
vertex 7868.25 10130.25 603.85
endloop
endfacet
facet normal 0.9447374361062228 0.31407159090847364 -0.09396921093454406
outer loop
vertex 7892.3 10058.36 601.77
vertex 7892.43 10057.58 600.47
vertex 7860.06 10154.95 600.47
endloop
endfacet
facet normal 0.9482093118615267 0.3160697706205089 -0.03160697706185906
outer loop
vertex 7892.3 10058.36 601.77
vertex 7860.06 10154.95 600.47
vertex 7864.22 10142.6 601.77
endloop
endfacet
facet normal 0.9486252693573732 0.316401762816003 0.0001510747398806852
outer loop
vertex 7896.2 10046.4 342.68
vertex 7892.43 10057.58 600.47
vertex 7950.93 9882.34 280.54
endloop
endfacet
facet normal 0.9484874733318355 0.31681287605744624 -0.0010556973049994215
outer loop
vertex 7896.2 10046.4 342.68
vertex 7950.93 9882.34 280.54
vertex 7939.88 9915.36 261.95
endloop
endfacet
facet normal 0.9486832980505162 0.316227766016831 1.9494531063556528e-14
outer loop
vertex 7896.2 10046.4 342.68
vertex 7939.88 9915.36 261.95
vertex 7928.570000000001 9949.29 245.70000000000002
endloop
endfacet
facet normal 0.9486832980505111 0.31622776601684616 2.726798634527874e-15
outer loop
vertex 7896.2 10046.4 342.68
vertex 7928.570000000001 9949.29 245.70000000000002
vertex 7905.04 10019.880000000001 220.48000000000002
endloop
endfacet
facet normal 0.9490045056699521 0.31526242093175305 0.00023273671859950321
outer loop
vertex 7896.2 10046.4 342.68
vertex 7905.04 10019.880000000001 220.48000000000002
vertex 7892.95 10056.28 211.51000000000002
endloop
endfacet
facet normal 0.9490060455331498 0.3152577858757328 0.00023234944324024894
outer loop
vertex 7896.2 10046.4 342.68
vertex 7892.95 10056.28 211.51000000000002
vertex 7880.7300000000005 10093.07 205.14000000000001
endloop
endfacet
facet normal 0.9485001375532333 0.31677569690348106 0.0008043089031378707
outer loop
vertex 7896.2 10046.4 342.68
vertex 7880.7300000000005 10093.07 205.14000000000001
vertex 7855.900000000001 10167.43 199.94
endloop
endfacet
facet normal 0.9487851591153265 0.31592201860982205 0
outer loop
vertex 7896.2 10046.4 342.68
vertex 7855.900000000001 10167.43 199.94
vertex 7855.900000000001 10167.43 599.95
endloop
endfacet
facet normal 0.9486852453825732 0.31622188512535315 -0.00015672005210364977
outer loop
vertex 7896.2 10046.4 342.68
vertex 7855.900000000001 10167.43 599.95
vertex 7860.06 10154.95 600.47
endloop
endfacet
facet normal 0.9489363627962818 0.3154674957760633 0.0001961421504521265
outer loop
vertex 7896.2 10046.4 342.68
vertex 7860.06 10154.95 600.47
vertex 7892.43 10057.58 600.47
endloop
endfacet
facet normal 0.9484417658031266 0.3133837303090457 -0.04742208829052733
outer loop
vertex 7880.7300000000005 10093.07 205.14000000000001
vertex 7868.25 10130.25 201.24
vertex 7855.900000000001 10167.43 199.94
endloop
endfacet
facet normal 0.9397724371440951 0.3358829261570971 0.06332792670215799
outer loop
vertex 7928.570000000001 9949.29 245.70000000000002
vertex 7917 9984.26 231.92000000000002
vertex 7905.04 10019.880000000001 220.48000000000002
endloop
endfacet
facet normal -0.9486251183126487 -0.3164017933172675 -0.0005386018291407689
outer loop
vertex 8698.43 8904.87 1208.0900000000001
vertex 8658.26 9025.12 1317.55
vertex 8634.73 9095.710000000001 1292.2
endloop
endfacet
facet normal -0.9488056798424234 -0.31585456641396853 -0.0019169700573208716
outer loop
vertex 8698.43 8904.87 1208.0900000000001
vertex 8634.73 9095.710000000001 1292.2
vertex 8615.36 9154.08 1261.91
endloop
endfacet
facet normal -0.9486832980505137 -0.3162277660168379 0
outer loop
vertex 8698.43 8904.87 1208.0900000000001
vertex 8615.36 9154.08 1261.91
vertex 8674.51 8976.630000000001 937.95
endloop
endfacet
facet normal -0.9487454910710679 -0.31604112096007136 0.00005508738552313564
outer loop
vertex 8698.43 8904.87 1208.0900000000001
vertex 8674.51 8976.630000000001 937.95
vertex 8740.550000000001 8778.380000000001 937.95
endloop
endfacet
facet normal -0.9487282271439254 -0.31609293615898987 0.00008204104333924136
outer loop
vertex 8698.43 8904.87 1208.0900000000001
vertex 8740.550000000001 8778.380000000001 937.95
vertex 8799.57 8601.32 1261.26
endloop
endfacet
facet normal -0.9486846449292 -0.316222853495001 -0.000742565173390415
outer loop
vertex 8698.43 8904.87 1208.0900000000001
vertex 8799.57 8601.32 1261.26
vertex 8756.67 8729.89 1317.55
endloop
endfacet
facet normal -0.9487772104683251 -0.31594578995786615 -0.00025040735568074545
outer loop
vertex 8698.43 8904.87 1208.0900000000001
vertex 8756.67 8729.89 1317.55
vertex 8707.53 8877.44 1337.96
endloop
endfacet
facet normal -0.9485836498211265 -0.31652631777583284 -0.0003865841473672914
outer loop
vertex 8698.43 8904.87 1208.0900000000001
vertex 8707.53 8877.44 1337.96
vertex 8658.26 9025.12 1317.55
endloop
endfacet
facet normal -0.9484027470173089 -0.3161342490057774 -0.024318019154024532
outer loop
vertex 8707.53 8877.44 937.95
vertex 8715.85 8852.61 936.26
vertex 8740.29 8779.29 936.26
endloop
endfacet
facet normal -0.9484027470173068 -0.31613424900577475 -0.02431801915414109
outer loop
vertex 8707.53 8877.44 937.95
vertex 8740.29 8779.29 936.26
vertex 8740.550000000001 8778.380000000001 937.95
endloop
endfacet
facet normal -0.9484027470173086 -0.31613424900576953 0.024318019154139465
outer loop
vertex 8674.51 8976.630000000001 937.95
vertex 8674.77 8975.720000000001 936.26
vertex 8699.210000000001 8902.4 936.26
endloop
endfacet
facet normal -0.9487897975677266 -0.3158487661627844 0.006121841621529204
outer loop
vertex 8674.51 8976.630000000001 937.95
vertex 8699.210000000001 8902.4 936.26
vertex 8707.53 8877.44 937.95
endloop
endfacet
facet normal -0.9485647348683891 -0.31618824495612974 0.015809412247930744
outer loop
vertex 8715.85 8852.61 936.26
vertex 8723.91 8828.17 931.0600000000001
vertex 8739.25 8782.15 931.0600000000001
endloop
endfacet
facet normal -0.9485647348683852 -0.31618824495613623 0.01580941224803678
outer loop
vertex 8715.85 8852.61 936.26
vertex 8739.25 8782.15 931.0600000000001
vertex 8740.29 8779.29 936.26
endloop
endfacet
facet normal -0.9486536530870496 -0.31621788436234993 0.007905447109120799
outer loop
vertex 8674.77 8975.720000000001 936.26
vertex 8675.68 8972.86 931.0600000000001
vertex 8691.02 8926.84 931.0600000000001
endloop
endfacet
facet normal -0.9486536530870497 -0.3162178843623499 0.007905447109120563
outer loop
vertex 8674.77 8975.720000000001 936.26
vertex 8691.02 8926.84 931.0600000000001
vertex 8699.210000000001 8902.4 936.26
endloop
endfacet
facet normal -0.9499103638862104 -0.3120143531013383 -0.017814152809503575
outer loop
vertex 8723.91 8828.17 931.0600000000001
vertex 8731.84 8804.51 922.61
vertex 8737.69 8786.7 922.61
endloop
endfacet
facet normal -0.9486720712285279 -0.31622402374284264 0.004864984980560811
outer loop
vertex 8723.91 8828.17 931.0600000000001
vertex 8737.69 8786.7 922.61
vertex 8739.25 8782.15 931.0600000000001
endloop
endfacet
facet normal -0.9479828543902521 -0.318300812423087 -0.003619474121055238
outer loop
vertex 8675.68 8972.86 931.0600000000001
vertex 8677.24 8968.31 922.61
vertex 8683.220000000001 8950.5 922.61
endloop
endfacet
facet normal -0.9486383931538866 -0.3162127977179622 -0.009729624545244222
outer loop
vertex 8675.68 8972.86 931.0600000000001
vertex 8683.220000000001 8950.5 922.61
vertex 8691.02 8926.84 931.0600000000001
endloop
endfacet
facet normal -0.9580425944318657 -0.2612843439355204 -0.11783411589367641
outer loop
vertex 8731.84 8804.51 922.61
vertex 8736.130000000001 8791.77 915.98
vertex 8736.52 8790.34 915.98
endloop
endfacet
facet normal -0.9500547212193187 -0.31206176974360017 -0.0036713149381374707
outer loop
vertex 8731.84 8804.51 922.61
vertex 8736.52 8790.34 915.98
vertex 8737.69 8786.7 922.61
endloop
endfacet
facet normal -0.9395706447474685 -0.3416620526356603 0.02177258178567103
outer loop
vertex 8677.24 8968.31 922.61
vertex 8678.41 8964.67 915.98
vertex 8678.93 8963.24 915.98
endloop
endfacet
facet normal -0.9479875893861726 -0.3183024022757318 0.0017638240535073095
outer loop
vertex 8677.24 8968.31 922.61
vertex 8678.93 8963.24 915.98
vertex 8683.220000000001 8950.5 922.61
endloop
endfacet
facet normal -0.9602625896031913 -0.2618897971640625 -0.09648571474544401
outer loop
vertex 8736.130000000001 8791.77 915.98
vertex 8739.25 8782.15 911.0400000000001
vertex 8736.52 8790.34 915.98
endloop
endfacet
facet normal -0.9387476734820445 -0.3413627903573242 -0.04716196445771059
outer loop
vertex 8678.41 8964.67 915.98
vertex 8675.68 8972.86 911.0400000000001
vertex 8678.93 8963.24 915.98
endloop
endfacet
facet normal -0.959416126001922 -0.19188322520145837 0.20664347329095636
outer loop
vertex 8264.23 10207.470000000001 621.9200000000001
vertex 8264.36 10206.82 621.9200000000001
vertex 8267.09 10198.630000000001 626.99
endloop
endfacet
facet normal -0.947770880284668 -0.312562737115083 0.0635208143174584
outer loop
vertex 8239.53 10281.44 600.47
vertex 8243.56 10269.220000000001 600.47
vertex 8243.69 10269.09 601.77
endloop
endfacet
facet normal -0.9443943068385375 -0.3286995071680411 0.008719357685363586
outer loop
vertex 8264.23 10207.470000000001 621.9200000000001
vertex 8263.45 10209.68 620.75
vertex 8279.44 10161.58 539.37
endloop
endfacet
facet normal -0.978073180089682 -0.19561463601903123 -0.07146865441855116
outer loop
vertex 8264.23 10207.470000000001 621.9200000000001
vertex 8279.44 10161.58 539.37
vertex 8264.36 10206.82 621.9200000000001
endloop
endfacet
facet normal -0.9490096288627191 -0.31524704220353367 -0.00016342511238434397
outer loop
vertex 8260.2 10219.56 205.14000000000001
vertex 8272.42 10182.77 211.51000000000002
vertex 8284.51 10146.37 220.48000000000002
endloop
endfacet
facet normal -0.9484417658031425 -0.31338373030909733 0.04742208828986557
outer loop
vertex 8235.37 10293.92 199.94
vertex 8247.720000000001 10256.74 201.24
vertex 8260.2 10219.56 205.14000000000001
endloop
endfacet
facet normal -0.9486832980505175 -0.3162277660168264 1.9092401857790067e-15
outer loop
vertex 8276.32 10171.07 422.37
vertex 8255.78 10232.69 610.61
vertex 8235.37 10293.92 199.94
endloop
endfacet
facet normal -0.9487892859322372 -0.3159095642338334 0.00019525825112411062
outer loop
vertex 8276.32 10171.07 422.37
vertex 8235.37 10293.92 199.94
vertex 8327.15 10018.32 277.81
endloop
endfacet
facet normal -0.9490180878370781 -0.31522102325874973 -0.0006127428194838944
outer loop
vertex 8276.32 10171.07 422.37
vertex 8327.15 10018.32 277.81
vertex 8303.36 10089.69 408.07
endloop
endfacet
facet normal -0.9490004215653074 -0.31527468152001015 -0.00027397321878101696
outer loop
vertex 8276.32 10171.07 422.37
vertex 8303.36 10089.69 408.07
vertex 8259.68 10220.99 615.2900000000001
endloop
endfacet
facet normal -0.9486832980505274 -0.316227766016797 -8.833332228283353e-15
outer loop
vertex 8276.32 10171.07 422.37
vertex 8259.68 10220.99 615.2900000000001
vertex 8255.78 10232.69 610.61
endloop
endfacet
facet normal -0.9486832980505138 -0.3162277660168379 0
outer loop
vertex 8239.53 10281.44 600.47
vertex 8235.37 10293.92 599.95
vertex 8235.37 10293.92 199.94
endloop
endfacet
facet normal -0.9496887583018916 -0.313195228801614 0.00010493291162141478
outer loop
vertex 8239.53 10281.44 600.47
vertex 8235.37 10293.92 199.94
vertex 8243.56 10269.220000000001 600.47
endloop
endfacet
facet normal -0.9397724371439805 -0.33588292615729426 -0.06332792670281408
outer loop
vertex 8284.51 10146.37 220.48000000000002
vertex 8296.470000000001 10110.75 231.92000000000002
vertex 8308.04 10075.78 245.70000000000002
endloop
endfacet
facet normal -0.9464435322746955 -0.3226512041845621 -0.011867630498525012
outer loop
vertex 8251.75 10244.65 606.84
vertex 8255.65 10233.210000000001 606.84
vertex 8255.78 10232.69 610.61
endloop
endfacet
facet normal -0.9486832980505363 -0.31622776601677044 -8.151677278663527e-14
outer loop
vertex 8251.75 10244.65 606.84
vertex 8247.720000000001 10256.74 603.85
vertex 8255.39 10233.73 603.85
endloop
endfacet
facet normal -0.9461857905969977 -0.3225633377035288 0.026179053494995663
outer loop
vertex 8251.75 10244.65 606.84
vertex 8255.39 10233.73 603.85
vertex 8255.65 10233.210000000001 606.84
endloop
endfacet
facet normal -0.9489745101175489 -0.31535270912908564 -0.00021907100321436775
outer loop
vertex 8259.68 10220.99 615.2900000000001
vertex 8303.36 10089.69 408.07
vertex 8279.44 10161.58 539.37
endloop
endfacet
facet normal -0.9487401321865754 -0.3160569681236765 0.00039303825369651195
outer loop
vertex 8259.68 10220.99 615.2900000000001
vertex 8279.44 10161.58 539.37
vertex 8263.45 10209.68 620.75
endloop
endfacet
facet normal -0.9486832980505855 -0.3162277660166232 4.628379107592278e-13
outer loop
vertex 8308.04 10075.78 245.70000000000002
vertex 8319.35 10041.85 261.95
vertex 8327.54 10017.28 275.86
endloop
endfacet
facet normal -0.9587974692135477 -0.25409826922652373 0.1270491346124841
outer loop
vertex 8308.04 10075.78 245.70000000000002
vertex 8327.54 10017.28 275.86
vertex 8327.54 10017.41 276.12
endloop
endfacet
facet normal -0.9484788310438363 -0.31683560388527876 -0.0017627173252168457
outer loop
vertex 8286.98 10139.220000000001 235.95000000000002
vertex 8235.37 10293.92 199.94
vertex 8260.2 10219.56 205.14000000000001
endloop
endfacet
facet normal -0.9494045955654187 -0.31398904857057836 0.006464618860144875
outer loop
vertex 8286.98 10139.220000000001 235.95000000000002
vertex 8260.2 10219.56 205.14000000000001
vertex 8284.51 10146.37 220.48000000000002
endloop
endfacet
facet normal -0.9495309237734946 -0.31360265342108923 0.006663374903635103
outer loop
vertex 8286.98 10139.220000000001 235.95000000000002
vertex 8284.51 10146.37 220.48000000000002
vertex 8327.41 10017.67 276.64
endloop
endfacet
facet normal -0.9454291505704212 -0.3244584008721902 -0.029840699642486604
outer loop
vertex 8286.98 10139.220000000001 235.95000000000002
vertex 8327.41 10017.67 276.64
vertex 8327.15 10018.32 277.81
endloop
endfacet
facet normal -0.9477486706619092 -0.31881700722647527 -0.011321358652469594
outer loop
vertex 8286.98 10139.220000000001 235.95000000000002
vertex 8327.15 10018.32 277.81
vertex 8235.37 10293.92 199.94
endloop
endfacet
facet normal -0.950691404477217 -0.31013800615384235 0.0005201846364141223
outer loop
vertex 8247.720000000001 10256.74 603.85
vertex 8243.69 10269.09 601.77
vertex 8235.37 10293.92 199.94
endloop
endfacet
facet normal -0.948683293136835 -0.31622776437886996 -0.00010177913239637543
outer loop
vertex 8247.720000000001 10256.74 603.85
vertex 8235.37 10293.92 199.94
vertex 8255.39 10233.73 603.85
endloop
endfacet
facet normal 0.3166178228441088 -0.9485531899990937 0
outer loop
vertex 7855.900000000001 10167.43 599.95
vertex 7855.900000000001 10167.43 199.94
vertex 8045.570000000001 10230.74 199.94
endloop
endfacet
facet normal 0.3166178228441088 -0.9485531899990937 0
outer loop
vertex 7855.900000000001 10167.43 599.95
vertex 8045.570000000001 10230.74 199.94
vertex 8045.570000000001 10230.74 599.95
endloop
endfacet
facet normal -0.3166178228441088 0.9485531899990937 0
outer loop
vertex 8235.37 10293.92 599.95
vertex 8425.04 10357.23 599.95
vertex 8425.04 10357.23 199.94
endloop
endfacet
facet normal -0.3166178228441088 0.9485531899990937 0
outer loop
vertex 8235.37 10293.92 599.95
vertex 8425.04 10357.23 199.94
vertex 8235.37 10293.92 199.94
endloop
endfacet
facet normal 0.2741579734853583 -0.8216303574607288 0.4997609041065103
outer loop
vertex 8454.16 10270.130000000001 621.9200000000001
vertex 8327.54 10227.880000000001 621.9200000000001
vertex 8327.54 10017.15 275.47
endloop
endfacet
facet normal 0.27351797363292524 -0.8216795092676283 0.5000307012068841
outer loop
vertex 8454.16 10270.130000000001 621.9200000000001
vertex 8327.54 10017.15 275.47
vertex 8517.34 10080.33 275.47
endloop
endfacet
facet normal 0 0 -1
outer loop
vertex 8327.54 10227.880000000001 621.9200000000001
vertex 8267.09 10207.73 621.9200000000001
vertex 8264.36 10206.82 621.9200000000001
endloop
endfacet
facet normal 0.2738630372029413 -0.8215891116087766 0.49999036844711503
outer loop
vertex 8327.54 10227.880000000001 621.9200000000001
vertex 8264.36 10206.82 621.9200000000001
vertex 8327.54 10017.28 275.86
endloop
endfacet
facet normal 0.301887012805805 -0.9044212560239739 0.3014737520103621
outer loop
vertex 8327.54 10017.28 275.86
vertex 8137.87 9953.970000000001 275.86
vertex 8137.87 9953.84 275.47
endloop
endfacet
facet normal 0.30188701280580477 -0.9044212560239733 0.30147375201036386
outer loop
vertex 8327.54 10017.28 275.86
vertex 8137.87 9953.84 275.47
vertex 8327.54 10017.15 275.47
endloop
endfacet
facet normal 0.15798015827284193 -0.47443001772512994 -0.8660014017733579
outer loop
vertex 8443.76 9670.57 948.35
vertex 8425.43 9091.16 1262.43
vertex 8267.09 9566.18 973.3100000000001
endloop
endfacet
facet normal 0.15792832548034302 -0.4743544532845449 -0.8660522482276086
outer loop
vertex 8443.76 9670.57 948.35
vertex 8267.09 9566.18 973.3100000000001
vertex 8267.09 10207.73 621.9200000000001
endloop
endfacet
facet normal 0.15819831381999638 -0.47426536163951877 -0.866051765342838
outer loop
vertex 8443.76 9670.57 948.35
vertex 8267.09 10207.73 621.9200000000001
vertex 8454.16 10270.130000000001 621.9200000000001
endloop
endfacet
facet normal 0.1583923329427842 -0.47425308082005324 -0.8660230275215725
outer loop
vertex 8443.76 9670.57 948.35
vertex 8454.16 10270.130000000001 621.9200000000001
vertex 8804.9 9217.65 1262.43
endloop
endfacet
facet normal 0.15814056461974432 -0.47442169385923283 -0.8659766845692121
outer loop
vertex 8443.76 9670.57 948.35
vertex 8804.9 9217.65 1262.43
vertex 8425.43 9091.16 1262.43
endloop
endfacet
facet normal 0.1601403026730563 -0.4804209080191687 -0.8622939374701758
outer loop
vertex 8267.09 10198.630000000001 626.99
vertex 8264.36 10206.82 621.9200000000001
vertex 8267.09 10207.73 621.9200000000001
endloop
endfacet
facet normal 0.15829532806307084 -0.4742359007063972 -0.8660501715227571
outer loop
vertex 8267.09 9566.18 973.3100000000001
vertex 8077.42 10135.32 626.99
vertex 8267.09 10198.630000000001 626.99
endloop
endfacet
facet normal -0.14905969742375455 0.44717909227141256 0.8819365430909724
outer loop
vertex 8137.87 9953.970000000001 275.86
vertex 8137.87 9944.74 280.54
vertex 8140.6 9945.65 280.54
endloop
endfacet
facet normal -0.14983576027603207 0.44886420889558276 0.8809484473651372
outer loop
vertex 8319.35 10041.85 261.95
vertex 8137.87 9981.27 261.95
vertex 8137.87 9953.970000000001 275.86
endloop
endfacet
facet normal -0.14981077432163825 0.4488170836453247 0.880976706460084
outer loop
vertex 8319.35 10041.85 261.95
vertex 8137.87 9953.970000000001 275.86
vertex 8327.54 10017.28 275.86
endloop
endfacet
facet normal -0.1487581816705444 0.44686136229633006 0.8821484717850739
outer loop
vertex 8137.87 9981.27 261.95
vertex 7939.88 9915.36 261.95
vertex 7950.93 9882.34 280.54
endloop
endfacet
facet normal -0.14968649027407444 0.4484357771127496 0.8811919815991935
outer loop
vertex 8137.87 9981.27 261.95
vertex 7950.93 9882.34 280.54
vertex 8137.87 9944.74 280.54
endloop
endfacet
facet normal -0.9486832980504942 -0.31622776601689656 -1.5971068270375493e-13
outer loop
vertex 8327.41 10017.67 276.64
vertex 8284.51 10146.37 220.48000000000002
vertex 8308.04 10075.78 245.70000000000002
endloop
endfacet
facet normal -0.9365730243944095 -0.34500967418132183 -0.06163841900963345
outer loop
vertex 8327.41 10017.67 276.64
vertex 8308.04 10075.78 245.70000000000002
vertex 8327.54 10017.41 276.12
endloop
endfacet
facet normal -0.27350393637331083 0.8216373397223122 -0.5001076671701262
outer loop
vertex 7950.93 9882.34 280.54
vertex 7887.62 10072.140000000001 626.99
vertex 8077.42 10135.32 626.99
endloop
endfacet
facet normal -0.27423574641407644 0.8215810144109669 -0.49979935188849633
outer loop
vertex 7950.93 9882.34 280.54
vertex 8077.42 10135.32 626.99
vertex 8140.6 9945.65 280.54
endloop
endfacet
facet normal -0.13921791533091243 0.4176537459927372 0.8978773415724162
outer loop
vertex 8675.68 8972.86 911.0400000000001
vertex 8296.210000000001 8846.37 911.0400000000001
vertex 8303.75 8824.01 922.61
endloop
endfacet
facet normal -0.1392179153309091 0.4176537459927293 0.8978773415724203
outer loop
vertex 8675.68 8972.86 911.0400000000001
vertex 8303.75 8824.01 922.61
vertex 8683.220000000001 8950.5 922.61
endloop
endfacet
facet normal -0.10157663640427322 0.3047299092128211 0.9470067947844618
outer loop
vertex 8683.220000000001 8950.5 922.61
vertex 8303.75 8824.01 922.61
vertex 8311.550000000001 8800.35 931.0600000000001
endloop
endfacet
facet normal -0.10157663640427576 0.30472990921282733 0.9470067947844595
outer loop
vertex 8683.220000000001 8950.5 922.61
vertex 8311.550000000001 8800.35 931.0600000000001
vertex 8691.02 8926.84 931.0600000000001
endloop
endfacet
facet normal -0.06253596546879789 0.18760789640639364 0.980251258723422
outer loop
vertex 8691.02 8926.84 931.0600000000001
vertex 8311.550000000001 8800.35 931.0600000000001
vertex 8319.74 8775.91 936.26
endloop
endfacet
facet normal -0.06253596546879626 0.1876078964063897 0.980251258723423
outer loop
vertex 8691.02 8926.84 931.0600000000001
vertex 8319.74 8775.91 936.26
vertex 8699.210000000001 8902.4 936.26
endloop
endfacet
facet normal -0.0202707247788693 0.06081217433660818 0.9979433737288872
outer loop
vertex 8699.210000000001 8902.4 936.26
vertex 8319.74 8775.91 936.26
vertex 8328.06 8750.95 937.95
endloop
endfacet
facet normal -0.020270724778869296 0.06081217433660817 0.9979433737288872
outer loop
vertex 8699.210000000001 8902.4 936.26
vertex 8328.06 8750.95 937.95
vertex 8707.53 8877.44 937.95
endloop
endfacet
facet normal 0.020365796262448884 -0.06109738878734694 0.9979240168599832
outer loop
vertex 8707.53 8877.44 937.95
vertex 8328.06 8750.95 937.95
vertex 8336.380000000001 8726.12 936.26
endloop
endfacet
facet normal 0.02036579626244942 -0.06109738878734825 0.9979240168599832
outer loop
vertex 8707.53 8877.44 937.95
vertex 8336.380000000001 8726.12 936.26
vertex 8715.85 8852.61 936.26
endloop
endfacet
facet normal 0.0626319474316291 -0.1878958422948873 0.9801899773050206
outer loop
vertex 8715.85 8852.61 936.26
vertex 8336.380000000001 8726.12 936.26
vertex 8344.44 8701.68 931.0600000000001
endloop
endfacet
facet normal 0.0626319474316291 -0.18789584229488732 0.9801899773050206
outer loop
vertex 8715.85 8852.61 936.26
vertex 8344.44 8701.68 931.0600000000001
vertex 8723.91 8828.17 931.0600000000001
endloop
endfacet
facet normal 0.10142652212155763 -0.3042795663646729 0.9471676758120771
outer loop
vertex 8723.91 8828.17 931.0600000000001
vertex 8344.44 8701.68 931.0600000000001
vertex 8352.37 8678.02 922.61
endloop
endfacet
facet normal 0.1014265221215576 -0.3042795663646728 0.9471676758120772
outer loop
vertex 8723.91 8828.17 931.0600000000001
vertex 8352.37 8678.02 922.61
vertex 8731.84 8804.51 922.61
endloop
endfacet
facet normal 0.13941368892756695 -0.41824106678270073 0.8975735253426741
outer loop
vertex 8731.84 8804.51 922.61
vertex 8352.37 8678.02 922.61
vertex 8359.78 8655.66 911.0400000000001
endloop
endfacet
facet normal 0.13941368892756692 -0.4182410667827008 0.8975735253426742
outer loop
vertex 8731.84 8804.51 922.61
vertex 8359.78 8655.66 911.0400000000001
vertex 8739.25 8782.15 911.0400000000001
endloop
endfacet
facet normal -0.10197899569683459 0.30593698709050376 -0.9465742677501063
outer loop
vertex 8400.73 8532.81 1292.2
vertex 8377.2 8603.4 1317.55
vertex 8756.67 8729.89 1317.55
endloop
endfacet
facet normal -0.10197899569683687 0.3059369870905077 -0.9465742677501048
outer loop
vertex 8400.73 8532.81 1292.2
vertex 8756.67 8729.89 1317.55
vertex 8780.2 8659.300000000001 1292.2
endloop
endfacet
facet normal -0.061188100281603756 0.18356430084481218 -0.9811015053700018
outer loop
vertex 8377.2 8603.4 1317.55
vertex 8352.89 8676.59 1332.76
vertex 8732.36 8803.08 1332.76
endloop
endfacet
facet normal -0.06118810028160448 0.18356430084481343 -0.9811015053700015
outer loop
vertex 8377.2 8603.4 1317.55
vertex 8732.36 8803.08 1332.76
vertex 8756.67 8729.89 1317.55
endloop
endfacet
facet normal -0.020929363502473923 0.06278809050742208 -0.9978074049804466
outer loop
vertex 8352.89 8676.59 1332.76
vertex 8328.06 8750.95 1337.96
vertex 8707.53 8877.44 1337.96
endloop
endfacet
facet normal -0.020929363502473923 0.06278809050742208 -0.9978074049804466
outer loop
vertex 8352.89 8676.59 1332.76
vertex 8707.53 8877.44 1337.96
vertex 8732.36 8803.08 1332.76
endloop
endfacet
facet normal 0.020896633816886792 -0.06268990145066068 -0.9978142647563369
outer loop
vertex 8328.06 8750.95 1337.96
vertex 8303.23 8825.44 1332.76
vertex 8682.7 8951.93 1332.76
endloop
endfacet
facet normal 0.020896633816886796 -0.0626899014506607 -0.9978142647563369
outer loop
vertex 8328.06 8750.95 1337.96
vertex 8682.7 8951.93 1332.76
vertex 8707.53 8877.44 1337.96
endloop
endfacet
facet normal 0.06115672095833344 -0.18347016287500031 -0.9811210704170231
outer loop
vertex 8303.23 8825.44 1332.76
vertex 8278.79 8898.630000000001 1317.55
vertex 8658.26 9025.12 1317.55
endloop
endfacet
facet normal 0.061156720958332744 -0.18347016287499915 -0.9811210704170235
outer loop
vertex 8303.23 8825.44 1332.76
vertex 8658.26 9025.12 1317.55
vertex 8682.7 8951.93 1332.76
endloop
endfacet
facet normal 0.10197899569683389 -0.3059369870905017 -0.9465742677501071
outer loop
vertex 8278.79 8898.630000000001 1317.55
vertex 8255.26 8969.220000000001 1292.2
vertex 8634.73 9095.710000000001 1292.2
endloop
endfacet
facet normal 0.10197899569683391 -0.30593698709050177 -0.946574267750107
outer loop
vertex 8278.79 8898.630000000001 1317.55
vertex 8634.73 9095.710000000001 1292.2
vertex 8658.26 9025.12 1317.55
endloop
endfacet
facet normal 0.13974000065115072 -0.41893306150037546 -0.8971999900802154
outer loop
vertex 8425.56 9025.9 1292.2
vertex 8425.56 9090.77 1261.91
vertex 8615.36 9154.08 1261.91
endloop
endfacet
facet normal 0.13987768991713415 -0.419112110012411 -0.8970949064086757
outer loop
vertex 8425.56 9025.9 1292.2
vertex 8615.36 9154.08 1261.91
vertex 8634.73 9095.710000000001 1292.2
endloop
endfacet
facet normal 0.13919409688247078 -0.41822079567899273 -0.8976170505592593
outer loop
vertex 8352.37 9044.23 1272.31
vertex 8425.56 9025.9 1292.2
vertex 8255.26 8969.220000000001 1292.2
endloop
endfacet
facet normal 0.14016301341780826 -0.4193014543567105 -0.896961883272632
outer loop
vertex 8352.37 9044.23 1272.31
vertex 8255.26 8969.220000000001 1292.2
vertex 8233.03 9036.04 1257.49
endloop
endfacet
facet normal 0.14016953181133496 -0.4199329505395059 -0.8966653887615915
outer loop
vertex 8352.37 9044.23 1272.31
vertex 8233.03 9036.04 1257.49
vertex 8422.7 9099.35 1257.49
endloop
endfacet
facet normal 0.1374979339804927 -0.4170025850348114 -0.8984448576431282
outer loop
vertex 8352.37 9044.23 1272.31
vertex 8422.7 9099.35 1257.49
vertex 8425.56 9090.77 1261.91
endloop
endfacet
facet normal 0.13891858705889026 -0.4189819591621188 -0.8973047108236055
outer loop
vertex 8352.37 9044.23 1272.31
vertex 8425.56 9090.77 1261.91
vertex 8425.56 9025.9 1292.2
endloop
endfacet
facet normal 0.9481917604434913 0.3174661495025859 -0.01215028176935631
outer loop
vertex 8352.89 8676.59 1332.76
vertex 8377.2 8603.4 1317.55
vertex 8328.06 8750.95 1337.96
endloop
endfacet
facet normal 0.9494795289330954 0.31373497339345163 0.007680534278139335
outer loop
vertex 8400.73 8532.81 1292.2
vertex 8423.09 8465.99 1257.49
vertex 8377.2 8603.4 1317.55
endloop
endfacet
facet normal -0.9487606466475751 -0.31596941011755125 0.004070287808250274
outer loop
vertex 8682.7 8951.93 1332.76
vertex 8658.26 9025.12 1317.55
vertex 8707.53 8877.44 1337.96
endloop
endfacet
facet normal -0.9485220316182416 -0.31671099085692395 -0.00032218818873589144
outer loop
vertex 8799.57 8601.32 1261.26
vertex 8799.7 8600.93 1261.91
vertex 8780.2 8659.300000000001 1292.2
endloop
endfacet
facet normal -0.9491124583314992 -0.31491113011515304 -0.004064673361446794
outer loop
vertex 8799.57 8601.32 1261.26
vertex 8780.2 8659.300000000001 1292.2
vertex 8756.67 8729.89 1317.55
endloop
endfacet
facet normal -0.9481917604434857 -0.31746614950259594 0.012150281769527177
outer loop
vertex 8756.67 8729.89 1317.55
vertex 8732.36 8803.08 1332.76
vertex 8707.53 8877.44 1337.96
endloop
endfacet
facet normal 0.27423574641407644 -0.8215810144109669 0.49979935188849645
outer loop
vertex 8422.7 9099.35 1257.49
vertex 8233.03 9036.04 1257.49
vertex 8296.210000000001 8846.37 911.0400000000001
endloop
endfacet
facet normal 0.2735039363733197 -0.8216373397223115 0.5001076671701223
outer loop
vertex 8422.7 9099.35 1257.49
vertex 8296.210000000001 8846.37 911.0400000000001
vertex 8486.01 8909.550000000001 911.0400000000001
endloop
endfacet
facet normal -0.27425020571218056 0.8215621629401576 -0.49982240555212865
outer loop
vertex 8716.5 9103.77 1123.72
vertex 8678.41 8964.67 915.98
vertex 8615.36 9154.08 1261.91
endloop
endfacet
facet normal -0.16387841987038063 0.8823350218598153 -0.4411675109302891
outer loop
vertex 8716.5 9103.77 1123.72
vertex 8615.36 9154.08 1261.91
vertex 8615.36 9154.34 1262.43
endloop
endfacet
facet normal -0.2744339871103587 0.8216114028889203 -0.49964056016461655
outer loop
vertex 8716.5 9103.77 1123.72
vertex 8615.36 9154.34 1262.43
vertex 8804.9 9217.65 1262.43
endloop
endfacet
facet normal -0.2736651915580173 0.8215836208228827 -0.5001077053246383
outer loop
vertex 8716.5 9103.77 1123.72
vertex 8804.9 9217.65 1262.43
vertex 8868.210000000001 9027.85 915.98
endloop
endfacet
facet normal -0.27351735329085647 0.8216776456885819 -0.5000341028614291
outer loop
vertex 8716.5 9103.77 1123.72
vertex 8868.210000000001 9027.85 915.98
vertex 8678.41 8964.67 915.98
endloop
endfacet
facet normal -0.2482223750168723 0.7441574281820094 -0.620173664889538
outer loop
vertex 8615.36 9154.08 1261.91
vertex 8425.56 9090.77 1261.91
vertex 8425.43 9091.16 1262.43
endloop
endfacet
facet normal -0.2851753604204498 0.857286422992337 -0.4286432114965434
outer loop
vertex 8615.36 9154.08 1261.91
vertex 8425.43 9091.16 1262.43
vertex 8615.36 9154.34 1262.43
endloop
endfacet
facet normal -0.1441985098858379 0.4754091078507283 0.8678669079526412
outer loop
vertex 8675.68 9605.31 564.59
vertex 8675.68 8972.86 911.0400000000001
vertex 8678.41 8964.67 915.98
endloop
endfacet
facet normal -0.15790244864449654 0.4743571502488995 0.8660554893999663
outer loop
vertex 8675.68 9605.31 564.59
vertex 8678.41 8964.67 915.98
vertex 8868.210000000001 9027.85 915.98
endloop
endfacet
facet normal -0.1582357550083341 0.4743448216671512 0.8660014064621957
outer loop
vertex 8498.49 9504.43 587.47
vertex 8675.68 9605.31 564.59
vertex 8517.34 10080.33 275.47
endloop
endfacet
facet normal -0.15811696268194342 0.47435088804583164 0.8660197810225627
outer loop
vertex 8498.49 9504.43 587.47
vertex 8517.34 10080.33 275.47
vertex 8137.87 9953.84 275.47
endloop
endfacet
facet normal -0.15809696201479367 0.4743643521949528 0.8660160575695787
outer loop
vertex 8498.49 9504.43 587.47
vertex 8137.87 9953.84 275.47
vertex 8486.01 8909.550000000001 911.0400000000001
endloop
endfacet
facet normal -0.1583334364457645 0.4743500693518939 0.8659806779652351
outer loop
vertex 8498.49 9504.43 587.47
vertex 8486.01 8909.550000000001 911.0400000000001
vertex 8675.68 8972.86 911.0400000000001
endloop
endfacet
facet normal -0.15825609876983132 0.47437585566186663 0.8659806896041189
outer loop
vertex 8498.49 9504.43 587.47
vertex 8675.68 8972.86 911.0400000000001
vertex 8675.68 9605.31 564.59
endloop
endfacet
facet normal 0.27411572842140375 -0.8215037522536767 -0.49999215240354805
outer loop
vertex 8799.7 8600.54 1262.43
vertex 8799.7 8811.4 915.98
vertex 8926.32 8853.65 915.98
endloop
endfacet
facet normal 0.2740244840897502 -0.8215107736571601 -0.500030629946367
outer loop
vertex 8799.7 8600.54 1262.43
vertex 8926.32 8853.65 915.98
vertex 8989.5 8663.85 1262.43
endloop
endfacet
facet normal 0.27387958542718077 -0.8216387562815392 -0.49989971680564216
outer loop
vertex 8799.7 8600.93 1261.91
vertex 8736.52 8790.34 915.98
vertex 8739.25 8791.25 915.98
endloop
endfacet
facet normal 0.2738795854271726 -0.821638756281542 -0.4998997168056415
outer loop
vertex 8799.7 8600.93 1261.91
vertex 8739.25 8791.25 915.98
vertex 8799.7 8811.4 915.98
endloop
endfacet
facet normal 0.24791643111683226 -0.7442594094639027 -0.6201736648768116
outer loop
vertex 8799.7 8600.54 1262.43
vertex 8610.03 8537.36 1262.43
vertex 8609.9 8537.75 1261.91
endloop
endfacet
facet normal 0.25733307628281016 -0.7730582127014469 -0.5797936595252401
outer loop
vertex 8799.7 8600.54 1262.43
vertex 8609.9 8537.75 1261.91
vertex 8799.7 8600.93 1261.91
endloop
endfacet
facet normal 0.15819831381999214 -0.4742653616395202 0.8660517653428382
outer loop
vertex 8915.92 8254.09 589.5500000000001
vertex 8926.32 8853.65 915.98
vertex 8739.25 8791.25 915.98
endloop
endfacet
facet normal 0.15792832548034302 -0.4743544532845449 0.8660522482276086
outer loop
vertex 8915.92 8254.09 589.5500000000001
vertex 8739.25 8791.25 915.98
vertex 8739.25 8149.700000000001 564.59
endloop
endfacet
facet normal 0.15798015827284193 -0.47443001772512994 0.8660014017733579
outer loop
vertex 8915.92 8254.09 589.5500000000001
vertex 8739.25 8149.700000000001 564.59
vertex 8897.59 7674.68 275.47
endloop
endfacet
facet normal 0.15814056461974432 -0.47442169385923283 0.8659766845692121
outer loop
vertex 8915.92 8254.09 589.5500000000001
vertex 8897.59 7674.68 275.47
vertex 9277.06 7801.17 275.47
endloop
endfacet
facet normal 0.15839233294278232 -0.4742530808200545 0.8660230275215721
outer loop
vertex 8915.92 8254.09 589.5500000000001
vertex 9277.06 7801.17 275.47
vertex 8926.32 8853.65 915.98
endloop
endfacet
facet normal 0.15705697829500048 -0.47117093488500145 0.8679464589987319
outer loop
vertex 8739.25 8791.25 915.98
vertex 8736.52 8790.34 915.98
vertex 8739.25 8782.15 911.0400000000001
endloop
endfacet
facet normal 0.15802288334411785 -0.47439379999809395 0.8660134472760684
outer loop
vertex 8739.25 8782.15 911.0400000000001
vertex 8549.58 8718.970000000001 911.0400000000001
vertex 8739.25 8149.700000000001 564.59
endloop
endfacet
facet normal -0.13997649856461167 0.4196091833401333 -0.8968470957226865
outer loop
vertex 8609.9 8537.75 1261.91
vertex 8609.9 8602.49 1292.2
vertex 8780.2 8659.300000000001 1292.2
endloop
endfacet
facet normal -0.1394740580436087 0.41899614144787845 -0.8972119150928823
outer loop
vertex 8609.9 8537.75 1261.91
vertex 8780.2 8659.300000000001 1292.2
vertex 8799.7 8600.93 1261.91
endloop
endfacet
facet normal -0.13314210806199997 0.4184466253378662 -0.898429519107736
outer loop
vertex 8609.9 8528.26 1257.49
vertex 8609.9 8537.75 1261.91
vertex 8612.76 8529.17 1257.49
endloop
endfacet
facet normal -0.13974105611779372 0.41922316835337714 -0.8970643078123439
outer loop
vertex 8609.9 8528.26 1257.49
vertex 8423.09 8465.99 1257.49
vertex 8400.73 8532.81 1292.2
endloop
endfacet
facet normal -0.13972149810733814 0.4194251687587802 -0.8969729264466736
outer loop
vertex 8609.9 8528.26 1257.49
vertex 8400.73 8532.81 1292.2
vertex 8609.9 8602.49 1292.2
endloop
endfacet
facet normal -0.27405263158145005 0.8215951583345118 0.4998765356811327
outer loop
vertex 8549.58 8718.970000000001 911.0400000000001
vertex 8359.78 8655.66 911.0400000000001
vertex 8423.09 8465.99 1257.49
endloop
endfacet
facet normal -0.27368672650557224 0.8216233209292761 0.5000306932977333
outer loop
vertex 8549.58 8718.970000000001 911.0400000000001
vertex 8423.09 8465.99 1257.49
vertex 8612.76 8529.17 1257.49
endloop
endfacet
facet normal 0.010476426329096159 -0.03142927898728848 0.9994510717957683
outer loop
vertex 9546.68 7624.76 201.24
vertex 9167.210000000001 7498.27 201.24
vertex 9179.69 7461.09 199.94
endloop
endfacet
facet normal 0.010476426329096159 -0.03142927898728848 0.9994510717957683
outer loop
vertex 9546.68 7624.76 201.24
vertex 9179.69 7461.09 199.94
vertex 9559.16 7587.58 199.94
endloop
endfacet
facet normal 0.03132471302255634 -0.09397413906766836 0.9950817170165197
outer loop
vertex 9534.33 7661.9400000000005 205.14000000000001
vertex 9154.86 7535.45 205.14000000000001
vertex 9167.210000000001 7498.27 201.24
endloop
endfacet
facet normal 0.031324713022555455 -0.09397413906766636 0.99508171701652
outer loop
vertex 9534.33 7661.9400000000005 205.14000000000001
vertex 9167.210000000001 7498.27 201.24
vertex 9546.68 7624.76 201.24
endloop
endfacet
facet normal 0.05127422438806249 -0.15382267316418818 0.9867672162845836
outer loop
vertex 9522.11 7698.7300000000005 211.51000000000002
vertex 9142.64 7572.240000000001 211.51000000000002
vertex 9154.86 7535.45 205.14000000000001
endloop
endfacet
facet normal 0.0512742243880649 -0.15382267316419357 0.9867672162845826
outer loop
vertex 9522.11 7698.7300000000005 211.51000000000002
vertex 9154.86 7535.45 205.14000000000001
vertex 9534.33 7661.9400000000005 205.14000000000001
endloop
endfacet
facet normal 0.07193880216592666 -0.21581640649777997 0.9737803075793413
outer loop
vertex 9509.89 7735.13 220.48000000000002
vertex 9130.42 7608.64 220.48000000000002
vertex 9142.64 7572.240000000001 211.51000000000002
endloop
endfacet
facet normal 0.07193880216592533 -0.21581640649777706 0.9737803075793421
outer loop
vertex 9509.89 7735.13 220.48000000000002
vertex 9142.64 7572.240000000001 211.51000000000002
vertex 9522.11 7698.7300000000005 211.51000000000002
endloop
endfacet
facet normal 0.09219796564552052 -0.2765938969365616 0.9565538935722724
outer loop
vertex 9498.06 7770.75 231.92000000000002
vertex 9118.59 7644.26 231.92000000000002
vertex 9130.42 7608.64 220.48000000000002
endloop
endfacet
facet normal 0.09219796564552052 -0.2765938969365616 0.9565538935722724
outer loop
vertex 9498.06 7770.75 231.92000000000002
vertex 9130.42 7608.64 220.48000000000002
vertex 9509.89 7735.13 220.48000000000002
endloop
endfacet
facet normal 0.11069513605849605 -0.33208540817548976 0.9367314815516286
outer loop
vertex 9486.36 7805.72 245.70000000000002
vertex 9106.89 7679.2300000000005 245.70000000000002
vertex 9118.59 7644.26 231.92000000000002
endloop
endfacet
facet normal 0.11069513605849805 -0.33208540817549415 0.9367314815516269
outer loop
vertex 9486.36 7805.72 245.70000000000002
vertex 9118.59 7644.26 231.92000000000002
vertex 9498.06 7770.75 231.92000000000002
endloop
endfacet
facet normal 0.13080939929232593 -0.3924281978769768 0.9104334190745688
outer loop
vertex 9475.050000000001 7839.650000000001 261.95
vertex 9095.58 7713.16 261.95
vertex 9106.89 7679.2300000000005 245.70000000000002
endloop
endfacet
facet normal 0.13080939929232244 -0.3924281978769692 0.9104334190745725
outer loop
vertex 9475.050000000001 7839.650000000001 261.95
vertex 9106.89 7679.2300000000005 245.70000000000002
vertex 9486.36 7805.72 245.70000000000002
endloop
endfacet
facet normal 0.14938160934134864 -0.44845668942142286 0.8812330750169142
outer loop
vertex 9464.130000000001 7872.54 280.54
vertex 9277.19 7810.27 280.54
vertex 9277.19 7773.740000000001 261.95
endloop
endfacet
facet normal 0.1493948139667857 -0.4484791062277101 0.8812194283134163
outer loop
vertex 9464.130000000001 7872.54 280.54
vertex 9277.19 7773.740000000001 261.95
vertex 9475.050000000001 7839.650000000001 261.95
endloop
endfacet
facet normal 0.14242489828675756 -0.4476211089014007 0.8828082981111398
outer loop
vertex 9277.19 7810.27 280.54
vertex 9274.33 7809.360000000001 280.54
vertex 9277.19 7801.04 275.86
endloop
endfacet
facet normal 0.14971843366507198 -0.4488478709466286 0.8809767189702326
outer loop
vertex 9277.19 7801.04 275.86
vertex 9087.39 7737.7300000000005 275.86
vertex 9095.58 7713.16 261.95
endloop
endfacet
facet normal 0.14973091033728644 -0.44887142004546554 0.8809626000892065
outer loop
vertex 9277.19 7801.04 275.86
vertex 9095.58 7713.16 261.95
vertex 9277.19 7773.740000000001 261.95
endloop
endfacet
facet normal -0.14946889851636252 0.4484066955490876 -0.8812437141693853
outer loop
vertex 9151.48 7545.33 620.75
vertex 9147.84 7556.38 626.99
vertex 9527.31 7682.87 626.99
endloop
endfacet
facet normal -0.14901383648038655 0.44719465829673866 -0.8819364002739992
outer loop
vertex 9151.48 7545.33 620.75
vertex 9527.31 7682.87 626.99
vertex 9531.08 7671.820000000001 620.75
endloop
endfacet
facet normal -0.13126030215217363 0.39391580913087904 -0.9097258204512417
outer loop
vertex 9155.380000000001 7534.02 615.2900000000001
vertex 9151.48 7545.33 620.75
vertex 9531.08 7671.820000000001 620.75
endloop
endfacet
facet normal -0.13167502932503 0.39502508797509006 -0.9091847262919263
outer loop
vertex 9155.380000000001 7534.02 615.2900000000001
vertex 9531.08 7671.820000000001 620.75
vertex 9534.85 7660.51 615.2900000000001
endloop
endfacet
facet normal -0.1121936388010185 0.3365809164030555 -0.9349469900084528
outer loop
vertex 9159.28 7522.320000000001 610.61
vertex 9155.380000000001 7534.02 615.2900000000001
vertex 9534.85 7660.51 615.2900000000001
endloop
endfacet
facet normal -0.11219363880101847 0.33658091640305543 -0.9349469900084528
outer loop
vertex 9159.28 7522.320000000001 610.61
vertex 9534.85 7660.51 615.2900000000001
vertex 9538.75 7648.81 610.61
endloop
endfacet
facet normal -0.09078205405160243 0.2723461621548073 -0.9579071910272516
outer loop
vertex 9163.18 7510.360000000001 606.84
vertex 9159.28 7522.320000000001 610.61
vertex 9538.75 7648.81 610.61
endloop
endfacet
facet normal -0.09078205405160235 0.27234616215480706 -0.9579071910272516
outer loop
vertex 9163.18 7510.360000000001 606.84
vertex 9538.75 7648.81 610.61
vertex 9542.65 7636.85 606.84
endloop
endfacet
facet normal -0.07223210552617314 0.21669631657851945 -0.9735631614397485
outer loop
vertex 9167.210000000001 7498.27 603.85
vertex 9163.18 7510.360000000001 606.84
vertex 9542.65 7636.85 606.84
endloop
endfacet
facet normal -0.07223210552617314 0.21669631657851945 -0.9735631614397485
outer loop
vertex 9167.210000000001 7498.27 603.85
vertex 9542.65 7636.85 606.84
vertex 9546.68 7624.76 603.85
endloop
endfacet
facet normal -0.049842301944485815 0.14952690583345743 -0.9875006072751282
outer loop
vertex 9171.37 7485.92 601.77
vertex 9167.210000000001 7498.27 603.85
vertex 9546.68 7624.76 603.85
endloop
endfacet
facet normal -0.04984230194448581 0.14952690583345743 -0.9875006072751282
outer loop
vertex 9171.37 7485.92 601.77
vertex 9546.68 7624.76 603.85
vertex 9550.84 7612.41 601.77
endloop
endfacet
facet normal -0.031098520678556143 0.09329556203566841 -0.9951526617137966
outer loop
vertex 9175.53 7473.4400000000005 600.47
vertex 9171.37 7485.92 601.77
vertex 9550.84 7612.41 601.77
endloop
endfacet
facet normal -0.031098520678556136 0.09329556203566841 -0.9951526617137966
outer loop
vertex 9175.53 7473.4400000000005 600.47
vertex 9550.84 7612.41 601.77
vertex 9555 7599.93 600.47
endloop
endfacet
facet normal -0.012608262995373147 0.03782478898611944 -0.9992048423833798
outer loop
vertex 9179.69 7461.09 599.95
vertex 9175.53 7473.4400000000005 600.47
vertex 9555 7599.93 600.47
endloop
endfacet
facet normal -0.012608262995373149 0.03782478898611945 -0.9992048423833798
outer loop
vertex 9179.69 7461.09 599.95
vertex 9555 7599.93 600.47
vertex 9559.16 7587.58 599.95
endloop
endfacet
facet normal -0.9476810187845516 -0.3192188694853021 0
outer loop
vertex 9559.16 7587.58 199.94
vertex 9559.16 7587.58 599.95
vertex 9555 7599.93 600.47
endloop
endfacet
facet normal -0.9464558191110678 -0.31934610679794145 0.04732279095526244
outer loop
vertex 9534.33 7661.9400000000005 205.14000000000001
vertex 9546.68 7624.76 201.24
vertex 9559.16 7587.58 199.94
endloop
endfacet
facet normal -0.9503700511480897 -0.3076796445940459 -0.04615194668981012
outer loop
vertex 9509.89 7735.13 220.48000000000002
vertex 9522.11 7698.7300000000005 211.51000000000002
vertex 9534.33 7661.9400000000005 205.14000000000001
endloop
endfacet
facet normal -0.9515759703109807 -0.30573717884539814 -0.03206166243931682
outer loop
vertex 9486.36 7805.72 245.70000000000002
vertex 9498.06 7770.75 231.92000000000002
vertex 9509.89 7735.13 220.48000000000002
endloop
endfacet
facet normal -0.9464874178371855 -0.32241700210970464 0.014451457590416718
outer loop
vertex 9464.130000000001 7872.54 280.54
vertex 9475.050000000001 7839.650000000001 261.95
vertex 9486.36 7805.72 245.70000000000002
endloop
endfacet
facet normal -0.9486009577910174 -0.3162003192636525 -0.013175013302791508
outer loop
vertex 9526.27 7686.25 620.75
vertex 9531.08 7671.820000000001 620.75
vertex 9527.31 7682.87 626.99
endloop
endfacet
facet normal -0.9482317965927066 -0.3175074794021039 0.0067424368213796874
outer loop
vertex 9526.27 7686.25 620.75
vertex 9525.23 7689.240000000001 615.2900000000001
vertex 9534.85 7660.51 615.2900000000001
endloop
endfacet
facet normal -0.9486832980505198 -0.31622776601681996 -9.394092340584616e-14
outer loop
vertex 9526.27 7686.25 620.75
vertex 9534.85 7660.51 615.2900000000001
vertex 9531.08 7671.820000000001 620.75
endloop
endfacet
facet normal -0.9476962748850146 -0.31877056518860497 0.016034255155892914
outer loop
vertex 9525.23 7689.240000000001 615.2900000000001
vertex 9524.32 7691.71 610.61
vertex 9538.75 7648.81 610.61
endloop
endfacet
facet normal -0.9482472891863489 -0.31751266696739594 0.0035755930965940264
outer loop
vertex 9525.23 7689.240000000001 615.2900000000001
vertex 9538.75 7648.81 610.61
vertex 9534.85 7660.51 615.2900000000001
endloop
endfacet
facet normal -0.9486821964729519 -0.3155070630638918 -0.021386520335315438
outer loop
vertex 9524.32 7691.71 610.61
vertex 9523.67 7693.92 606.84
vertex 9542.65 7636.85 606.84
endloop
endfacet
facet normal -0.9473659350266587 -0.3186594508726125 0.03088591136149407
outer loop
vertex 9524.32 7691.71 610.61
vertex 9542.65 7636.85 606.84
vertex 9538.75 7648.81 610.61
endloop
endfacet
facet normal -0.9488575324337869 -0.3157044363428669 0.0003033432009982079
outer loop
vertex 9523.67 7693.92 606.84
vertex 9523.15 7695.4800000000005 603.85
vertex 9546.68 7624.76 603.85
endloop
endfacet
facet normal -0.9488951997424763 -0.3155779024200434 -0.0029133159546593022
outer loop
vertex 9523.67 7693.92 606.84
vertex 9546.68 7624.76 603.85
vertex 9542.65 7636.85 606.84
endloop
endfacet
facet normal -0.9486832980505148 -0.31622776601683483 -2.7460365218825133e-13
outer loop
vertex 9523.15 7695.4800000000005 603.85
vertex 9522.76 7696.650000000001 601.77
vertex 9550.84 7612.41 601.77
endloop
endfacet
facet normal -0.9486018830176434 -0.3156193765187456 -0.02321371795511231
outer loop
vertex 9523.15 7695.4800000000005 603.85
vertex 9550.84 7612.41 601.77
vertex 9546.68 7624.76 603.85
endloop
endfacet
facet normal -0.9485706102204889 -0.3165655622205922 -0.00020552831850468228
outer loop
vertex 9521.2 7701.46 392.99
vertex 9522.76 7696.650000000001 601.77
vertex 9464.130000000001 7872.54 280.54
endloop
endfacet
facet normal -0.9487540648944496 -0.31601455259115363 0.0007258766227782754
outer loop
vertex 9521.2 7701.46 392.99
vertex 9464.130000000001 7872.54 280.54
vertex 9486.36 7805.72 245.70000000000002
endloop
endfacet
facet normal -0.9486354417611645 -0.3163709850018538 0.0004455149342506361
outer loop
vertex 9521.2 7701.46 392.99
vertex 9486.36 7805.72 245.70000000000002
vertex 9509.89 7735.13 220.48000000000002
endloop
endfacet
facet normal -0.948500990375966 -0.31677396208856423 0.00035804821535815267
outer loop
vertex 9521.2 7701.46 392.99
vertex 9509.89 7735.13 220.48000000000002
vertex 9559.16 7587.58 199.94
endloop
endfacet
facet normal -0.9487383579242166 -0.3160625198805812 -0.00010830511681849113
outer loop
vertex 9521.2 7701.46 392.99
vertex 9559.16 7587.58 199.94
vertex 9555 7599.93 600.47
endloop
endfacet
facet normal -0.9486891725541817 -0.31621008575837467 -0.00018852889298735036
outer loop
vertex 9521.2 7701.46 392.99
vertex 9555 7599.93 600.47
vertex 9550.84 7612.41 601.77
endloop
endfacet
facet normal -0.9486832796597342 -0.31622775988657464 -0.00019690396008027923
outer loop
vertex 9521.2 7701.46 392.99
vertex 9550.84 7612.41 601.77
vertex 9522.76 7696.650000000001 601.77
endloop
endfacet
facet normal -0.9485186701625293 -0.31672121550383436 -0.00006326832119914
outer loop
vertex 9509.89 7735.13 220.48000000000002
vertex 9534.33 7661.9400000000005 205.14000000000001
vertex 9559.16 7587.58 199.94
endloop
endfacet
facet normal 0.9464558191110741 0.3193461067979396 -0.04732279095515087
outer loop
vertex 9179.69 7461.09 199.94
vertex 9167.210000000001 7498.27 201.24
vertex 9154.86 7535.45 205.14000000000001
endloop
endfacet
facet normal 0.950829389342224 0.30971327122630626 0.0010779561187517369
outer loop
vertex 9163.18 7510.360000000001 606.84
vertex 9179.69 7461.09 199.94
vertex 9159.28 7522.320000000001 610.61
endloop
endfacet
facet normal 0.9476756963578298 0.31923465294649567 -0.000104359154280657
outer loop
vertex 9171.37 7485.92 601.77
vertex 9179.69 7461.09 199.94
vertex 9167.210000000001 7498.27 603.85
endloop
endfacet
facet normal 0.9476810187845516 0.3192188694853021 0
outer loop
vertex 9179.69 7461.09 599.95
vertex 9179.69 7461.09 199.94
vertex 9175.53 7473.4400000000005 600.47
endloop
endfacet
facet normal 0.9238697708743072 0.36954790834972284 -0.09949366763266931
outer loop
vertex 9150.83 7547.54 621.9200000000001
vertex 9150.57 7548.1900000000005 621.9200000000001
vertex 9147.84 7556.38 626.99
endloop
endfacet
facet normal 0.9587906493569328 0.28408611832770403 -0.003945640532118367
outer loop
vertex 9150.83 7547.54 621.9200000000001
vertex 9151.48 7545.33 620.75
vertex 9150.44 7548.84 620.75
endloop
endfacet
facet normal 0.9235749741846062 0.3694299896738425 0.10261944157657787
outer loop
vertex 9150.83 7547.54 621.9200000000001
vertex 9150.44 7548.84 620.75
vertex 9150.57 7548.1900000000005 621.9200000000001
endloop
endfacet
facet normal 0.9478390317524341 0.318252521610389 0.017790513630501117
outer loop
vertex 9151.48 7545.33 620.75
vertex 9155.380000000001 7534.02 615.2900000000001
vertex 9149.4 7551.83 615.2900000000001
endloop
endfacet
facet normal 0.9584473713285562 0.2839844063192963 -0.02704613393551347
outer loop
vertex 9151.48 7545.33 620.75
vertex 9149.4 7551.83 615.2900000000001
vertex 9150.44 7548.84 620.75
endloop
endfacet
facet normal 0.9486045061026105 0.3164633666321421 -0.0006546614949078371
outer loop
vertex 9144.720000000001 7565.87 565.24
vertex 9155.380000000001 7534.02 615.2900000000001
vertex 9159.28 7522.320000000001 610.61
endloop
endfacet
facet normal 0.9484597420429524 0.31689758769855797 -0.00019140180456105835
outer loop
vertex 9144.720000000001 7565.87 565.24
vertex 9159.28 7522.320000000001 610.61
vertex 9132.5 7602.400000000001 492.57
endloop
endfacet
facet normal 0.9501530324141115 0.31176896376084146 -0.0030542150807459176
outer loop
vertex 9144.720000000001 7565.87 565.24
vertex 9132.5 7602.400000000001 492.57
vertex 9127.04 7619.04 492.57
endloop
endfacet
facet normal 0.9490588950553378 0.31509853996694726 -0.00035189066376830204
outer loop
vertex 9144.720000000001 7565.87 565.24
vertex 9127.04 7619.04 492.57
vertex 9149.4 7551.83 615.2900000000001
endloop
endfacet
facet normal 0.9479888655831765 0.3183028307798353 0.0006470300343868054
outer loop
vertex 9144.720000000001 7565.87 565.24
vertex 9149.4 7551.83 615.2900000000001
vertex 9155.380000000001 7534.02 615.2900000000001
endloop
endfacet
facet normal 0.9480530220065644 0.3177010336494202 -0.016171601105356755
outer loop
vertex 9179.69 7461.09 199.94
vertex 9154.86 7535.45 205.14000000000001
vertex 9142.64 7572.240000000001 211.51000000000002
endloop
endfacet
facet normal 0.9490583393551676 0.3147002252787922 0.015875664077101035
outer loop
vertex 9179.69 7461.09 199.94
vertex 9142.64 7572.240000000001 211.51000000000002
vertex 9130.42 7608.64 220.48000000000002
endloop
endfacet
facet normal 0.9485559195982258 0.31660963672276266 -0.00007300304344705328
outer loop
vertex 9138.74 7583.68 383.76
vertex 9132.5 7602.400000000001 492.57
vertex 9166.95 7499.18 455.65000000000003
endloop
endfacet
facet normal 0.9485172407468841 0.31672549292208785 0.00007835290646718869
outer loop
vertex 9138.74 7583.68 383.76
vertex 9166.95 7499.18 455.65000000000003
vertex 9179.69 7461.09 199.94
endloop
endfacet
facet normal 0.9486196396730348 0.3164185292684783 0.0003058793471257873
outer loop
vertex 9138.74 7583.68 383.76
vertex 9179.69 7461.09 199.94
vertex 9087.78 7736.56 277.81
endloop
endfacet
facet normal 0.9488112794317555 0.3158429602957437 -0.0006168100974808522
outer loop
vertex 9138.74 7583.68 383.76
vertex 9087.78 7736.56 277.81
vertex 9127.04 7619.04 492.57
endloop
endfacet
facet normal 0.9501571196957754 0.31177030490013735 0.0008513952685486727
outer loop
vertex 9138.74 7583.68 383.76
vertex 9127.04 7619.04 492.57
vertex 9132.5 7602.400000000001 492.57
endloop
endfacet
facet normal 0.9486987311212176 0.3161813944219189 0.00020830363146578712
outer loop
vertex 9167.210000000001 7498.27 603.85
vertex 9179.69 7461.09 199.94
vertex 9163.18 7510.360000000001 606.84
endloop
endfacet
facet normal 0.9515759703110233 0.30573717884519414 0.03206166243999751
outer loop
vertex 9130.42 7608.64 220.48000000000002
vertex 9118.59 7644.26 231.92000000000002
vertex 9106.89 7679.2300000000005 245.70000000000002
endloop
endfacet
facet normal 0.9485268553964008 0.3166965217989573 -0.0003430339025394454
outer loop
vertex 9166.95 7499.18 455.65000000000003
vertex 9132.5 7602.400000000001 492.57
vertex 9159.28 7522.320000000001 610.61
endloop
endfacet
facet normal 0.9484823527370837 0.316828960172267 -0.000797836127630371
outer loop
vertex 9179.69 7461.09 199.94
vertex 9130.42 7608.64 220.48000000000002
vertex 9087.52 7737.21 276.64
endloop
endfacet
facet normal 0.9455755733034275 0.324005116910574 -0.03012506245071721
outer loop
vertex 9179.69 7461.09 199.94
vertex 9087.52 7737.21 276.64
vertex 9087.78 7736.56 277.81
endloop
endfacet
facet normal 0.9486865107565526 0.316218110970769 0.0001029691015854203
outer loop
vertex 9175.53 7473.4400000000005 600.47
vertex 9179.69 7461.09 199.94
vertex 9171.37 7485.92 601.77
endloop
endfacet
facet normal 0.27350393637331344 -0.8216373397223127 -0.500107667170124
outer loop
vertex 9337.64 7619.56 626.99
vertex 9274.33 7809.360000000001 280.54
vertex 9464.130000000001 7872.54 280.54
endloop
endfacet
facet normal 0.2742357464140766 -0.8215810144109674 -0.49979935188849534
outer loop
vertex 9337.64 7619.56 626.99
vertex 9464.130000000001 7872.54 280.54
vertex 9527.31 7682.87 626.99
endloop
endfacet
facet normal 0.9432886122639114 0.3303130258746716 -0.03316472389064836
outer loop
vertex 9087.52 7737.6 276.12
vertex 9106.89 7679.2300000000005 245.70000000000002
vertex 9095.58 7713.16 261.95
endloop
endfacet
facet normal 0.8776358044525158 0.4216270978105954 -0.22800435332422958
outer loop
vertex 9087.52 7737.6 276.12
vertex 9095.58 7713.16 261.95
vertex 9087.39 7737.7300000000005 275.86
endloop
endfacet
facet normal 0.9491058512044778 0.3149315879951337 0.0040221999312237714
outer loop
vertex 9087.52 7737.21 276.64
vertex 9130.42 7608.64 220.48000000000002
vertex 9106.89 7679.2300000000005 245.70000000000002
endloop
endfacet
facet normal 0.9582896040507726 0.2286391529279787 0.171479364696134
outer loop
vertex 9087.52 7737.21 276.64
vertex 9106.89 7679.2300000000005 245.70000000000002
vertex 9087.52 7737.6 276.12
endloop
endfacet
facet normal -0.2738630372029303 0.8215891116087791 0.49999036844711653
outer loop
vertex 9087.39 7737.7300000000005 275.86
vertex 9087.39 7527.13 621.9200000000001
vertex 9147.84 7547.280000000001 621.9200000000001
endloop
endfacet
facet normal -0.2738630372029239 0.821589111608781 0.49999036844711714
outer loop
vertex 9087.39 7737.7300000000005 275.86
vertex 9147.84 7547.280000000001 621.9200000000001
vertex 9150.57 7548.1900000000005 621.9200000000001
endloop
endfacet
facet normal -0.30188701280599645 0.9044212560245432 0.3014737520084627
outer loop
vertex 9277.06 7801.17 275.47
vertex 9087.39 7737.860000000001 275.47
vertex 9087.39 7737.7300000000005 275.86
endloop
endfacet
facet normal -0.2915608411589634 0.8740838359180543 0.38854822569335895
outer loop
vertex 9277.06 7801.17 275.47
vertex 9087.39 7737.7300000000005 275.86
vertex 9277.19 7801.04 275.86
endloop
endfacet
facet normal -0.2735039363733195 0.8216373397223108 0.5001076671701239
outer loop
vertex 9087.39 7737.860000000001 275.47
vertex 8897.59 7674.68 275.47
vertex 8960.9 7484.88 621.9200000000001
endloop
endfacet
facet normal -0.27441853069295935 0.8215668626592278 0.49972228306589533
outer loop
vertex 9087.39 7737.860000000001 275.47
vertex 8960.9 7484.88 621.9200000000001
vertex 9087.39 7527.13 621.9200000000001
endloop
endfacet
facet normal -0.15787289996633314 0.4742683826149062 -0.8661094900230922
outer loop
vertex 9147.84 7556.38 626.99
vertex 9147.84 8188.83 973.3100000000001
vertex 9337.64 7619.56 626.99
endloop
endfacet
facet normal -0.1601403026730443 0.480420908019133 -0.8622939374701978
outer loop
vertex 9147.84 7547.280000000001 621.9200000000001
vertex 9147.84 7556.38 626.99
vertex 9150.57 7548.1900000000005 621.9200000000001
endloop
endfacet
facet normal -0.15829740802146225 0.4742326515309614 -0.8660515705404618
outer loop
vertex 8971.17 8084.4400000000005 948.35
vertex 9147.84 7547.280000000001 621.9200000000001
vertex 8960.9 7484.88 621.9200000000001
endloop
endfacet
facet normal -0.15843596657938072 0.47422385317171406 -0.8660310511621566
outer loop
vertex 8971.17 8084.4400000000005 948.35
vertex 8960.9 7484.88 621.9200000000001
vertex 8610.03 8537.36 1262.43
endloop
endfacet
facet normal -0.15814056461974432 0.47442169385923283 -0.8659766845692121
outer loop
vertex 8971.17 8084.4400000000005 948.35
vertex 8610.03 8537.36 1262.43
vertex 8989.5 8663.85 1262.43
endloop
endfacet
facet normal -0.15798015827284193 0.47443001772512994 -0.8660014017733579
outer loop
vertex 8971.17 8084.4400000000005 948.35
vertex 8989.5 8663.85 1262.43
vertex 9147.84 8188.83 973.3100000000001
endloop
endfacet
facet normal -0.15792832548034302 0.4743544532845449 -0.8660522482276086
outer loop
vertex 8971.17 8084.4400000000005 948.35
vertex 9147.84 8188.83 973.3100000000001
vertex 9147.84 7547.280000000001 621.9200000000001
endloop
endfacet
facet normal -0.31622776601683655 0.9486832980505142 0
outer loop
vertex 9810.32 4936.75 599.95
vertex 10189.79 5063.24 599.95
vertex 10189.79 5063.24 199.94
endloop
endfacet
facet normal -0.31622776601683655 0.9486832980505142 0
outer loop
vertex 9810.32 4936.75 599.95
vertex 10189.79 5063.24 199.94
vertex 9810.32 4936.75 199.94
endloop
endfacet
facet normal 0.31642268091124487 -0.9486183041692482 0
outer loop
vertex 8989.89 7397.780000000001 599.95
vertex 8989.89 7397.780000000001 199.94
vertex 9179.69 7461.09 199.94
endloop
endfacet
facet normal 0.31642268091124487 -0.9486183041692482 0
outer loop
vertex 8989.89 7397.780000000001 599.95
vertex 9179.69 7461.09 199.94
vertex 9179.69 7461.09 599.95
endloop
endfacet
facet normal -0.3164226809112476 0.9486183041692474 0
outer loop
vertex 9559.16 7587.58 599.95
vertex 9559.16 7587.58 199.94
vertex 9369.36 7524.27 199.94
endloop
endfacet
facet normal -0.3164226809112476 0.9486183041692474 0
outer loop
vertex 9559.16 7587.58 599.95
vertex 9369.36 7524.27 199.94
vertex 9369.36 7524.27 599.95
endloop
endfacet
endsolid JSCAD
