solid JSCAD
facet normal -0.9999999999999999 0 0
outer loop
vertex 0 8223.15 1142.83
vertex 0 9337.9 0
vertex 0 9301.76 0
endloop
endfacet
facet normal -1 0 0
outer loop
vertex 0 8223.15 1142.83
vertex 0 9301.76 0
vertex 0 8922.29 0
endloop
endfacet
facet normal -1 0 0
outer loop
vertex 0 8223.15 1142.83
vertex 0 8922.29 0
vertex 0 0 0
endloop
endfacet
facet normal -0.9999999999999999 0 0
outer loop
vertex 0 8223.15 1142.83
vertex 0 0 0
vertex 0 0 3999.9700000000003
endloop
endfacet
facet normal -1 0 0
outer loop
vertex 0 8223.15 1142.83
vertex 0 0 3999.9700000000003
vertex 0 15000.050000000001 3999.9700000000003
endloop
endfacet
facet normal -1 0 0
outer loop
vertex 0 8223.15 1142.83
vertex 0 15000.050000000001 3999.9700000000003
vertex 0 15000.050000000001 0
endloop
endfacet
facet normal -1 0 0
outer loop
vertex 0 8223.15 1142.83
vertex 0 15000.050000000001 0
vertex 0 9337.9 0
endloop
endfacet
facet normal 1 0 0
outer loop
vertex 19999.98 8174.14 1142.83
vertex 19999.98 0 0
vertex 19999.98 8922.29 0
endloop
endfacet
facet normal 0.9999999999999999 0 0
outer loop
vertex 19999.98 8174.14 1142.83
vertex 19999.98 8922.29 0
vertex 19999.98 8958.43 0
endloop
endfacet
facet normal 0.9999999999999999 0 0
outer loop
vertex 19999.98 8174.14 1142.83
vertex 19999.98 8958.43 0
vertex 19999.98 9337.9 0
endloop
endfacet
facet normal 1 0 0
outer loop
vertex 19999.98 8174.14 1142.83
vertex 19999.98 9337.9 0
vertex 19999.98 15000.050000000001 0
endloop
endfacet
facet normal 0.9999999999999999 0 0
outer loop
vertex 19999.98 8174.14 1142.83
vertex 19999.98 15000.050000000001 0
vertex 19999.98 15000.050000000001 3999.9700000000003
endloop
endfacet
facet normal 1 0 0
outer loop
vertex 19999.98 8174.14 1142.83
vertex 19999.98 15000.050000000001 3999.9700000000003
vertex 19999.98 0 3999.9700000000003
endloop
endfacet
facet normal 1 0 0
outer loop
vertex 19999.98 8174.14 1142.83
vertex 19999.98 0 3999.9700000000003
vertex 19999.98 0 0
endloop
endfacet
facet normal 0 -1 0
outer loop
vertex 0 0 0
vertex 19999.98 0 0
vertex 19999.98 0 3999.9700000000003
endloop
endfacet
facet normal 0 -1 0
outer loop
vertex 0 0 0
vertex 19999.98 0 3999.9700000000003
vertex 0 0 3999.9700000000003
endloop
endfacet
facet normal 0 1 0
outer loop
vertex 0 15000.050000000001 0
vertex 0 15000.050000000001 3999.9700000000003
vertex 19999.98 15000.050000000001 3999.9700000000003
endloop
endfacet
facet normal 0 1 0
outer loop
vertex 0 15000.050000000001 0
vertex 19999.98 15000.050000000001 3999.9700000000003
vertex 19999.98 15000.050000000001 0
endloop
endfacet
facet normal 0 0 1
outer loop
vertex 0 0 3999.9700000000003
vertex 19999.98 0 3999.9700000000003
vertex 19999.98 15000.050000000001 3999.9700000000003
endloop
endfacet
facet normal 0 0 1
outer loop
vertex 0 0 3999.9700000000003
vertex 19999.98 15000.050000000001 3999.9700000000003
vertex 0 15000.050000000001 3999.9700000000003
endloop
endfacet
facet normal 0.09068227320835524 -0.9958798749476592 0
outer loop
vertex 6199.18 11518.130000000001 400.01
vertex 6199.18 11518.130000000001 800.02
vertex 5800.860000000001 11481.86 800.02
endloop
endfacet
facet normal 0.09068227320835524 -0.9958798749476592 0
outer loop
vertex 6199.18 11518.130000000001 400.01
vertex 5800.860000000001 11481.86 800.02
vertex 5800.860000000001 11481.86 400.01
endloop
endfacet
facet normal -0.09035990568286374 0.995909176303233 0
outer loop
vertex 5916.17 10213.45 800.02
vertex 6314.49 10249.59 800.02
vertex 6314.49 10249.59 400.01
endloop
endfacet
facet normal -0.09035990568286374 0.995909176303233 0
outer loop
vertex 5916.17 10213.45 800.02
vertex 6314.49 10249.59 400.01
vertex 5916.17 10213.45 400.01
endloop
endfacet
facet normal 0.9959022389586789 0.09043632276583485 -0.00004429090506742686
outer loop
vertex 6178.12 7330.96 1756.5600000000002
vertex 6077.76 8435.83 1116.05
vertex 6059.6900000000005 8634.99 1462.5
endloop
endfacet
facet normal 0.9959022389586788 0.09043632276583484 -0.00004429090506744815
outer loop
vertex 6178.12 7330.96 1756.5600000000002
vertex 6059.6900000000005 8634.99 1462.5
vertex 6160.05 7530.12 2103.01
endloop
endfacet
facet normal 0.9958932064677039 0.09053574604251813 0
outer loop
vertex 5916.17 10213.45 800.02
vertex 5916.17 10213.45 400.01
vertex 5800.860000000001 11481.86 400.01
endloop
endfacet
facet normal 0.9958932064677039 0.09053574604251813 0
outer loop
vertex 5916.17 10213.45 800.02
vertex 5800.860000000001 11481.86 400.01
vertex 5800.860000000001 11481.86 800.02
endloop
endfacet
facet normal 0.9958881420507768 0.09059143735835025 0
outer loop
vertex 6300.84 5981.95 800.02
vertex 6300.84 5981.95 400.01
vertex 6186.4400000000005 7239.570000000001 400.01
endloop
endfacet
facet normal 0.9958881420507768 0.09059143735835025 0
outer loop
vertex 6300.84 5981.95 800.02
vertex 6186.4400000000005 7239.570000000001 400.01
vertex 6186.4400000000005 7239.570000000001 800.02
endloop
endfacet
facet normal 0.9958963958733705 0.09050065343194726 -0.000020367163369094467
outer loop
vertex 5988.58 9417.33 295.75
vertex 6043.05 8817.9 181.35
vertex 6033.56 8922.29 0
endloop
endfacet
facet normal 0.9958735101754331 0.09075106327737756 -0.00044299535804379254
outer loop
vertex 5988.58 9417.33 295.75
vertex 6033.56 8922.29 0
vertex 5998.9800000000005 9301.76 0
endloop
endfacet
facet normal 0.9958789352676416 0.0906916216947759 -0.0004195766440615605
outer loop
vertex 5988.58 9417.33 295.75
vertex 5998.9800000000005 9301.76 0
vertex 5924.49 10121.93 475.54
endloop
endfacet
facet normal 0.9958913042905009 0.09055659579660029 0.00011400129981507215
outer loop
vertex 5988.58 9417.33 295.75
vertex 5924.49 10121.93 475.54
vertex 5942.56 9922.77 821.99
endloop
endfacet
facet normal 0.9959003441490152 0.09045695227529774 0.000210496883001435
outer loop
vertex 5988.58 9417.33 295.75
vertex 5942.56 9922.77 821.99
vertex 6043.05 8817.9 181.35
endloop
endfacet
facet normal -0.9958943158971433 -0.09052349183525177 0.00009481410202810217
outer loop
vertex 6458.01 8671.26 1462.5
vertex 6476.08 8472.1 1116.05
vertex 6576.570000000001 7367.2300000000005 1756.5600000000002
endloop
endfacet
facet normal -0.9958875647842689 -0.0905974757623104 -0.00023599482249300323
outer loop
vertex 6458.01 8671.26 1462.5
vertex 6576.570000000001 7367.2300000000005 1756.5600000000002
vertex 6558.37 7566.39 2103.01
endloop
endfacet
facet normal -0.9958974244754468 -0.09048933596381167 0
outer loop
vertex 6584.89 7275.71 800.02
vertex 6584.89 7275.71 400.01
vertex 6699.16 6018.09 400.01
endloop
endfacet
facet normal -0.9958974244754468 -0.09048933596381167 0
outer loop
vertex 6584.89 7275.71 800.02
vertex 6699.16 6018.09 400.01
vertex 6699.16 6018.09 800.02
endloop
endfacet
facet normal -0.9958940429763203 -0.09052654397622376 0
outer loop
vertex 6199.18 11518.130000000001 800.02
vertex 6199.18 11518.130000000001 400.01
vertex 6314.49 10249.59 400.01
endloop
endfacet
facet normal -0.9958940429763203 -0.09052654397622376 0
outer loop
vertex 6199.18 11518.130000000001 800.02
vertex 6314.49 10249.59 400.01
vertex 6314.49 10249.59 800.02
endloop
endfacet
facet normal -0.9958892030216017 -0.09057977037873058 -0.00002243068469321287
outer loop
vertex 6386.900000000001 9453.6 295.75
vertex 6322.81 10158.2 475.54
vertex 6397.43 9337.9 0
endloop
endfacet
facet normal -0.9959043812098504 -0.09041269647845475 -0.0000883318734816265
outer loop
vertex 6386.900000000001 9453.6 295.75
vertex 6397.43 9337.9 0
vertex 6431.88 8958.43 0
endloop
endfacet
facet normal -0.9958953873436829 -0.09051171887528534 0.00007882776925317561
outer loop
vertex 6386.900000000001 9453.6 295.75
vertex 6431.88 8958.43 0
vertex 6441.37 8854.17 181.35
endloop
endfacet
facet normal -0.9959003441490154 -0.09045695227529552 -0.00021049688300531658
outer loop
vertex 6386.900000000001 9453.6 295.75
vertex 6441.37 8854.17 181.35
vertex 6340.88 9959.04 821.99
endloop
endfacet
facet normal -0.9958913042905009 -0.0905565957965997 -0.00011400129981735017
outer loop
vertex 6386.900000000001 9453.6 295.75
vertex 6340.88 9959.04 821.99
vertex 6322.81 10158.2 475.54
endloop
endfacet
facet normal 0 0 0.9999999999999999
outer loop
vertex 5800.860000000001 11481.86 400.01
vertex 5916.17 10213.45 400.01
vertex 6314.49 10249.59 400.01
endloop
endfacet
facet normal 0 0 0.9999999999999999
outer loop
vertex 5800.860000000001 11481.86 400.01
vertex 6314.49 10249.59 400.01
vertex 6199.18 11518.130000000001 400.01
endloop
endfacet
facet normal 0 0 0.9999999999999999
outer loop
vertex 6186.4400000000005 7239.570000000001 400.01
vertex 6300.84 5981.95 400.01
vertex 6699.16 6018.09 400.01
endloop
endfacet
facet normal 0 0 1
outer loop
vertex 6186.4400000000005 7239.570000000001 400.01
vertex 6699.16 6018.09 400.01
vertex 6584.89 7275.71 400.01
endloop
endfacet
facet normal 0 0 -1
outer loop
vertex 6314.49 10249.59 800.02
vertex 5916.17 10213.45 800.02
vertex 5800.860000000001 11481.86 800.02
endloop
endfacet
facet normal 0 0 -0.9999999999999999
outer loop
vertex 6314.49 10249.59 800.02
vertex 5800.860000000001 11481.86 800.02
vertex 6199.18 11518.130000000001 800.02
endloop
endfacet
facet normal 0 0 -1
outer loop
vertex 6699.16 6018.09 800.02
vertex 6300.84 5981.95 800.02
vertex 6186.4400000000005 7239.570000000001 800.02
endloop
endfacet
facet normal 0 0 -1
outer loop
vertex 6699.16 6018.09 800.02
vertex 6186.4400000000005 7239.570000000001 800.02
vertex 6584.89 7275.71 800.02
endloop
endfacet
facet normal 0.07853756286594274 -0.8625057083198764 -0.4999157472361784
outer loop
vertex 6322.81 10158.2 475.54
vertex 6340.88 9959.04 821.99
vertex 5942.56 9922.77 821.99
endloop
endfacet
facet normal 0.07853756286594255 -0.8625057083198762 -0.49991574723617843
outer loop
vertex 6322.81 10158.2 475.54
vertex 5942.56 9922.77 821.99
vertex 5924.49 10121.93 475.54
endloop
endfacet
facet normal -0.045346977518108386 0.4980040828511915 -0.8659882130222764
outer loop
vertex 6340.88 9959.04 821.99
vertex 6441.37 8854.17 181.35
vertex 6043.05 8817.9 181.35
endloop
endfacet
facet normal -0.04534697751810843 0.4980040828511916 -0.8659882130222764
outer loop
vertex 6340.88 9959.04 821.99
vertex 6043.05 8817.9 181.35
vertex 5942.56 9922.77 821.99
endloop
endfacet
facet normal -0.0785110217102669 0.8622142312553931 0.500422460417877
outer loop
vertex 6033.56 8922.29 0
vertex 6043.05 8817.9 181.35
vertex 6441.37 8854.17 181.35
endloop
endfacet
facet normal -0.07825611601001166 0.862506257031221 0.4999589352027035
outer loop
vertex 6033.56 8922.29 0
vertex 6441.37 8854.17 181.35
vertex 6431.88 8958.43 0
endloop
endfacet
facet normal 0.04516420132175072 -0.49794344263010115 0.8660326338312268
outer loop
vertex 5998.9800000000005 9301.76 0
vertex 6397.43 9337.9 0
vertex 6322.81 10158.2 475.54
endloop
endfacet
facet normal 0.045345832148077664 -0.4979915043071982 0.8659955064228984
outer loop
vertex 5998.9800000000005 9301.76 0
vertex 6322.81 10158.2 475.54
vertex 5924.49 10121.93 475.54
endloop
endfacet
facet normal 0 0 -1
outer loop
vertex 9279.53 11602.76 0
vertex 19999.98 15000.050000000001 0
vertex 19999.98 9337.9 0
endloop
endfacet
facet normal 0 0 -1
outer loop
vertex 9279.53 11602.76 0
vertex 19999.98 9337.9 0
vertex 6397.43 9337.9 0
endloop
endfacet
facet normal 0 0 -1
outer loop
vertex 9279.53 11602.76 0
vertex 6397.43 9337.9 0
vertex 0 9337.9 0
endloop
endfacet
facet normal 0 0 -1
outer loop
vertex 9279.53 11602.76 0
vertex 0 9337.9 0
vertex 0 15000.050000000001 0
endloop
endfacet
facet normal 0 0 -1
outer loop
vertex 9279.53 11602.76 0
vertex 0 15000.050000000001 0
vertex 19999.98 15000.050000000001 0
endloop
endfacet
facet normal 0 0 -0.9999999999999999
outer loop
vertex 6397.43 9337.9 0
vertex 5998.9800000000005 9301.76 0
vertex 0 9301.76 0
endloop
endfacet
facet normal 0 0 -1
outer loop
vertex 6397.43 9337.9 0
vertex 0 9301.76 0
vertex 0 9337.9 0
endloop
endfacet
facet normal 0 0 -1
outer loop
vertex 19999.98 9337.9 0
vertex 19999.98 8958.43 0
vertex 6431.88 8958.43 0
endloop
endfacet
facet normal 0 0 -1
outer loop
vertex 19999.98 9337.9 0
vertex 6431.88 8958.43 0
vertex 6397.43 9337.9 0
endloop
endfacet
facet normal 0 0 -1
outer loop
vertex 5998.9800000000005 9301.76 0
vertex 6033.56 8922.29 0
vertex 0 8922.29 0
endloop
endfacet
facet normal 0 0 -1
outer loop
vertex 5998.9800000000005 9301.76 0
vertex 0 8922.29 0
vertex 0 9301.76 0
endloop
endfacet
facet normal 0 0 -0.9999999999999999
outer loop
vertex 19999.98 8958.43 0
vertex 19999.98 8922.29 0
vertex 6033.56 8922.29 0
endloop
endfacet
facet normal 0 0 -1
outer loop
vertex 19999.98 8958.43 0
vertex 6033.56 8922.29 0
vertex 6431.88 8958.43 0
endloop
endfacet
facet normal 0 0 -1
outer loop
vertex 9206.73 5353.400000000001 0
vertex 6033.56 8922.29 0
vertex 19999.98 8922.29 0
endloop
endfacet
facet normal 0 0 -1
outer loop
vertex 9206.73 5353.400000000001 0
vertex 19999.98 8922.29 0
vertex 19999.98 0 0
endloop
endfacet
facet normal 0 0 -1
outer loop
vertex 9206.73 5353.400000000001 0
vertex 19999.98 0 0
vertex 0 0 0
endloop
endfacet
facet normal 0 0 -1
outer loop
vertex 9206.73 5353.400000000001 0
vertex 0 0 0
vertex 0 8922.29 0
endloop
endfacet
facet normal 0 0 -1
outer loop
vertex 9206.73 5353.400000000001 0
vertex 0 8922.29 0
vertex 6033.56 8922.29 0
endloop
endfacet
facet normal 0.07853756286594277 -0.8625057083198764 0.4999157472361783
outer loop
vertex 6476.08 8472.1 1116.05
vertex 6458.01 8671.26 1462.5
vertex 6059.6900000000005 8634.99 1462.5
endloop
endfacet
facet normal 0.07853756286594275 -0.8625057083198764 0.4999157472361784
outer loop
vertex 6476.08 8472.1 1116.05
vertex 6059.6900000000005 8634.99 1462.5
vertex 6077.76 8435.83 1116.05
endloop
endfacet
facet normal -0.07853640580123376 0.8624930013440042 -0.49993785173402866
outer loop
vertex 6160.05 7530.12 2103.01
vertex 6558.37 7566.39 2103.01
vertex 6576.570000000001 7367.2300000000005 1756.5600000000002
endloop
endfacet
facet normal -0.0785121492973183 0.8625080200583443 -0.4999157506497971
outer loop
vertex 6160.05 7530.12 2103.01
vertex 6576.570000000001 7367.2300000000005 1756.5600000000002
vertex 6178.12 7330.96 1756.5600000000002
endloop
endfacet
facet normal -0.04532540480786148 0.49792962629424375 0.8660321558334184
outer loop
vertex 6178.12 7330.96 1756.5600000000002
vertex 6576.570000000001 7367.2300000000005 1756.5600000000002
vertex 6476.08 8472.1 1116.05
endloop
endfacet
facet normal -0.045340437500721795 0.49793225986455003 0.8660298547471821
outer loop
vertex 6178.12 7330.96 1756.5600000000002
vertex 6476.08 8472.1 1116.05
vertex 6077.76 8435.83 1116.05
endloop
endfacet
facet normal 0.045340437500721795 -0.49793225986455003 -0.8660298547471821
outer loop
vertex 6458.01 8671.26 1462.5
vertex 6558.37 7566.39 2103.01
vertex 6160.05 7530.12 2103.01
endloop
endfacet
facet normal 0.045340437500721684 -0.49793225986455003 -0.8660298547471821
outer loop
vertex 6458.01 8671.26 1462.5
vertex 6160.05 7530.12 2103.01
vertex 6059.6900000000005 8634.99 1462.5
endloop
endfacet
facet normal 0.09033066506849624 -0.995911828902681 0
outer loop
vertex 6584.89 7275.71 400.01
vertex 6584.89 7275.71 800.02
vertex 6186.4400000000005 7239.570000000001 800.02
endloop
endfacet
facet normal 0.09033066506849624 -0.995911828902681 0
outer loop
vertex 6584.89 7275.71 400.01
vertex 6186.4400000000005 7239.570000000001 800.02
vertex 6186.4400000000005 7239.570000000001 400.01
endloop
endfacet
facet normal -0.09035990568286599 0.9959091763032327 0
outer loop
vertex 6300.84 5981.95 800.02
vertex 6699.16 6018.09 800.02
vertex 6699.16 6018.09 400.01
endloop
endfacet
facet normal -0.09035990568286599 0.9959091763032327 0
outer loop
vertex 6300.84 5981.95 800.02
vertex 6699.16 6018.09 400.01
vertex 6300.84 5981.95 400.01
endloop
endfacet
endsolid JSCAD
