solid JSCAD
facet normal -1 0 0
outer loop
vertex 0 0 0
vertex 0 0 3999.9700000000003
vertex 0 15000.050000000001 3999.9700000000003
endloop
endfacet
facet normal -1 0 0
outer loop
vertex 0 0 0
vertex 0 15000.050000000001 3999.9700000000003
vertex 0 15000.050000000001 0
endloop
endfacet
facet normal 1 0 0
outer loop
vertex 19999.98 0 0
vertex 19999.98 15000.050000000001 0
vertex 19999.98 15000.050000000001 3999.9700000000003
endloop
endfacet
facet normal 1 0 0
outer loop
vertex 19999.98 0 0
vertex 19999.98 15000.050000000001 3999.9700000000003
vertex 19999.98 0 3999.9700000000003
endloop
endfacet
facet normal 0 -1 0
outer loop
vertex 0 0 0
vertex 19999.98 0 0
vertex 19999.98 0 3999.9700000000003
endloop
endfacet
facet normal 0 -1 0
outer loop
vertex 0 0 0
vertex 19999.98 0 3999.9700000000003
vertex 0 0 3999.9700000000003
endloop
endfacet
facet normal 0 1 0
outer loop
vertex 0 15000.050000000001 0
vertex 0 15000.050000000001 3999.9700000000003
vertex 19999.98 15000.050000000001 3999.9700000000003
endloop
endfacet
facet normal 0 1 0
outer loop
vertex 0 15000.050000000001 0
vertex 19999.98 15000.050000000001 3999.9700000000003
vertex 19999.98 15000.050000000001 0
endloop
endfacet
facet normal 0 0 -1
outer loop
vertex 0 0 0
vertex 0 15000.050000000001 0
vertex 19999.98 15000.050000000001 0
endloop
endfacet
facet normal 0 0 -1
outer loop
vertex 0 0 0
vertex 19999.98 15000.050000000001 0
vertex 19999.98 0 0
endloop
endfacet
facet normal 0 0 1
outer loop
vertex 0 0 3999.9700000000003
vertex 19999.98 0 3999.9700000000003
vertex 19999.98 15000.050000000001 3999.9700000000003
endloop
endfacet
facet normal 0 0 1
outer loop
vertex 0 0 3999.9700000000003
vertex 19999.98 15000.050000000001 3999.9700000000003
vertex 0 15000.050000000001 3999.9700000000003
endloop
endfacet
facet normal 1 0 0
outer loop
vertex 2500.03 12391.73 400.01
vertex 2500.03 12144.470000000001 199.94
vertex 2500.03 12207.52 199.94
endloop
endfacet
facet normal 1 0 0
outer loop
vertex 2500.03 12391.73 400.01
vertex 2500.03 12207.52 199.94
vertex 2500.03 12265.630000000001 199.94
endloop
endfacet
facet normal 1 0 0
outer loop
vertex 2500.03 12391.73 400.01
vertex 2500.03 12265.630000000001 199.94
vertex 2500.03 12318.41 199.94
endloop
endfacet
facet normal 1 0 0
outer loop
vertex 2500.03 12391.73 400.01
vertex 2500.03 12318.41 199.94
vertex 2500.03 12365.210000000001 199.94
endloop
endfacet
facet normal 1 0 0
outer loop
vertex 2500.03 12391.73 400.01
vertex 2500.03 12365.210000000001 199.94
vertex 2500.03 12405.51 199.94
endloop
endfacet
facet normal 1 0 0
outer loop
vertex 2500.03 12391.73 400.01
vertex 2500.03 12405.51 199.94
vertex 2500.03 12439.050000000001 199.94
endloop
endfacet
facet normal 1 0 0
outer loop
vertex 2500.03 12391.73 400.01
vertex 2500.03 12439.050000000001 199.94
vertex 2500.03 12465.57 199.94
endloop
endfacet
facet normal 1 0 0
outer loop
vertex 2500.03 12391.73 400.01
vertex 2500.03 12465.57 199.94
vertex 2500.03 12484.68 199.94
endloop
endfacet
facet normal 1 0 0
outer loop
vertex 2500.03 12391.73 400.01
vertex 2500.03 12484.68 199.94
vertex 2500.03 12496.12 199.94
endloop
endfacet
facet normal 1 0 0
outer loop
vertex 2500.03 12391.73 400.01
vertex 2500.03 12496.12 199.94
vertex 2500.03 12500.02 199.94
endloop
endfacet
facet normal 1 0 0
outer loop
vertex 2500.03 12391.73 400.01
vertex 2500.03 12500.02 199.94
vertex 2500.03 12900.03 199.94
endloop
endfacet
facet normal 1 0 0
outer loop
vertex 2500.03 12391.73 400.01
vertex 2500.03 12900.03 199.94
vertex 2500.03 12900.03 599.95
endloop
endfacet
facet normal 1 0 0
outer loop
vertex 2500.03 12391.73 400.01
vertex 2500.03 12900.03 599.95
vertex 2500.03 12500.02 599.95
endloop
endfacet
facet normal 1 0 0
outer loop
vertex 2500.03 12391.73 400.01
vertex 2500.03 12500.02 599.95
vertex 2500.03 12496.12 599.95
endloop
endfacet
facet normal 1 0 0
outer loop
vertex 2500.03 12391.73 400.01
vertex 2500.03 12496.12 599.95
vertex 2500.03 12484.68 599.95
endloop
endfacet
facet normal 1 0 0
outer loop
vertex 2500.03 12391.73 400.01
vertex 2500.03 12484.68 599.95
vertex 2500.03 12465.57 599.95
endloop
endfacet
facet normal 1 0 0
outer loop
vertex 2500.03 12391.73 400.01
vertex 2500.03 12465.57 599.95
vertex 2500.03 12439.050000000001 599.95
endloop
endfacet
facet normal 1 0 0
outer loop
vertex 2500.03 12391.73 400.01
vertex 2500.03 12439.050000000001 599.95
vertex 2500.03 12405.51 599.95
endloop
endfacet
facet normal 0.9999999999999999 0 0
outer loop
vertex 2500.03 12391.73 400.01
vertex 2500.03 12405.51 599.95
vertex 2500.03 12365.210000000001 599.95
endloop
endfacet
facet normal 0.9999999999999999 0 0
outer loop
vertex 2500.03 12391.73 400.01
vertex 2500.03 12365.210000000001 599.95
vertex 2500.03 12318.41 599.95
endloop
endfacet
facet normal 1 0 0
outer loop
vertex 2500.03 12391.73 400.01
vertex 2500.03 12318.41 599.95
vertex 2500.03 12265.630000000001 599.95
endloop
endfacet
facet normal 0.9999999999999999 0 0
outer loop
vertex 2500.03 12391.73 400.01
vertex 2500.03 12265.630000000001 599.95
vertex 2500.03 12207.52 599.95
endloop
endfacet
facet normal 1 0 0
outer loop
vertex 2500.03 12391.73 400.01
vertex 2500.03 12207.52 599.95
vertex 2500.03 12144.470000000001 599.95
endloop
endfacet
facet normal 1 0 0
outer loop
vertex 2500.03 12391.73 400.01
vertex 2500.03 12144.470000000001 599.95
vertex 2500.03 12100.01 599.95
endloop
endfacet
facet normal 1 0 0
outer loop
vertex 2500.03 12391.73 400.01
vertex 2500.03 12100.01 599.95
vertex 2500.03 12100.01 199.94
endloop
endfacet
facet normal 1 0 0
outer loop
vertex 2500.03 12391.73 400.01
vertex 2500.03 12100.01 199.94
vertex 2500.03 12144.470000000001 199.94
endloop
endfacet
facet normal 0 -1 0
outer loop
vertex 6699.9400000000005 12900.03 199.94
vertex 6699.9400000000005 12900.03 599.95
vertex 2500.03 12900.03 599.95
endloop
endfacet
facet normal 0 -1 0
outer loop
vertex 6699.9400000000005 12900.03 199.94
vertex 2500.03 12900.03 599.95
vertex 2500.03 12900.03 199.94
endloop
endfacet
facet normal 0 0 0.9999999999999999
outer loop
vertex 6699.9400000000005 12500.02 199.94
vertex 6778.59 12500.02 199.94
vertex 6798.09 12895.61 199.94
endloop
endfacet
facet normal 0 0 1
outer loop
vertex 6699.9400000000005 12500.02 199.94
vertex 6798.09 12895.61 199.94
vertex 6719.570000000001 12899.51 199.94
endloop
endfacet
facet normal 0 0 1
outer loop
vertex 2500.03 12900.03 199.94
vertex 2500.03 12500.02 199.94
vertex 6699.9400000000005 12500.02 199.94
endloop
endfacet
facet normal 0 0 1
outer loop
vertex 2500.03 12900.03 199.94
vertex 6699.9400000000005 12500.02 199.94
vertex 6699.9400000000005 12900.03 199.94
endloop
endfacet
facet normal 0 0 1
outer loop
vertex 6778.46 12496.12 199.94
vertex 6857.76 12496.12 199.94
vertex 6914.7 12880.27 199.94
endloop
endfacet
facet normal 0 0 1
outer loop
vertex 6778.46 12496.12 199.94
vertex 6914.7 12880.27 199.94
vertex 6837.09 12891.84 199.94
endloop
endfacet
facet normal 0 0 1
outer loop
vertex 5051.41 12498.460000000001 199.94
vertex 6699.9400000000005 12500.02 199.94
vertex 2500.03 12500.02 199.94
endloop
endfacet
facet normal 0 0 1
outer loop
vertex 5051.41 12498.460000000001 199.94
vertex 2500.03 12500.02 199.94
vertex 2500.03 12496.12 199.94
endloop
endfacet
facet normal 0 0 0.9999999999999999
outer loop
vertex 5051.41 12498.460000000001 199.94
vertex 2500.03 12496.12 199.94
vertex 6778.46 12496.12 199.94
endloop
endfacet
facet normal 0 0 0.9999999999999999
outer loop
vertex 5051.41 12498.460000000001 199.94
vertex 6778.46 12496.12 199.94
vertex 6778.59 12500.02 199.94
endloop
endfacet
facet normal 0 0 1
outer loop
vertex 5051.41 12498.460000000001 199.94
vertex 6778.59 12500.02 199.94
vertex 6699.9400000000005 12500.02 199.94
endloop
endfacet
facet normal 0 0 1
outer loop
vertex 6856.070000000001 12484.68 199.94
vertex 6937.06 12484.68 199.94
vertex 7029.360000000001 12853.62 199.94
endloop
endfacet
facet normal 0 0 1
outer loop
vertex 6856.070000000001 12484.68 199.94
vertex 7029.360000000001 12853.62 199.94
vertex 6953.31 12872.6 199.94
endloop
endfacet
facet normal 0 0 1
outer loop
vertex 5098.47 12491.57 199.94
vertex 6778.46 12496.12 199.94
vertex 2500.03 12496.12 199.94
endloop
endfacet
facet normal 0 0 1
outer loop
vertex 5098.47 12491.57 199.94
vertex 2500.03 12496.12 199.94
vertex 2500.03 12484.68 199.94
endloop
endfacet
facet normal 0 0 0.9999999999999999
outer loop
vertex 5098.47 12491.57 199.94
vertex 2500.03 12484.68 199.94
vertex 6856.070000000001 12484.68 199.94
endloop
endfacet
facet normal 0 0 1
outer loop
vertex 5098.47 12491.57 199.94
vertex 6856.070000000001 12484.68 199.94
vertex 6857.76 12496.12 199.94
endloop
endfacet
facet normal 0 0 1
outer loop
vertex 5098.47 12491.57 199.94
vertex 6857.76 12496.12 199.94
vertex 6778.46 12496.12 199.94
endloop
endfacet
facet normal 0 0 1
outer loop
vertex 6932.25 12465.57 199.94
vertex 7015.58 12465.57 199.94
vertex 7140.900000000001 12815.66 199.94
endloop
endfacet
facet normal 0 0 1
outer loop
vertex 6932.25 12465.57 199.94
vertex 7140.900000000001 12815.66 199.94
vertex 7066.93 12842.18 199.94
endloop
endfacet
facet normal 0 0 1
outer loop
vertex 5145.14 12477.01 199.94
vertex 6856.070000000001 12484.68 199.94
vertex 2500.03 12484.68 199.94
endloop
endfacet
facet normal 0 0 1
outer loop
vertex 5145.14 12477.01 199.94
vertex 2500.03 12484.68 199.94
vertex 2500.03 12465.57 199.94
endloop
endfacet
facet normal 0 0 0.9999999999999999
outer loop
vertex 5145.14 12477.01 199.94
vertex 2500.03 12465.57 199.94
vertex 6932.25 12465.57 199.94
endloop
endfacet
facet normal 0 0 1
outer loop
vertex 5145.14 12477.01 199.94
vertex 6932.25 12465.57 199.94
vertex 6937.06 12484.68 199.94
endloop
endfacet
facet normal 0 0 1
outer loop
vertex 5145.14 12477.01 199.94
vertex 6937.06 12484.68 199.94
vertex 6856.070000000001 12484.68 199.94
endloop
endfacet
facet normal 0 0 1
outer loop
vertex 7006.09 12439.050000000001 199.94
vertex 7092.93 12439.050000000001 199.94
vertex 7248.150000000001 12767.17 199.94
endloop
endfacet
facet normal 0 0 1
outer loop
vertex 7006.09 12439.050000000001 199.94
vertex 7248.150000000001 12767.17 199.94
vertex 7177.17 12800.710000000001 199.94
endloop
endfacet
facet normal 0 0 1
outer loop
vertex 5190.77 12454.91 199.94
vertex 6932.25 12465.57 199.94
vertex 2500.03 12465.57 199.94
endloop
endfacet
facet normal 0 0 1
outer loop
vertex 5190.77 12454.91 199.94
vertex 2500.03 12465.57 199.94
vertex 2500.03 12439.050000000001 199.94
endloop
endfacet
facet normal 0 0 1
outer loop
vertex 5190.77 12454.91 199.94
vertex 2500.03 12439.050000000001 199.94
vertex 7006.09 12439.050000000001 199.94
endloop
endfacet
facet normal 0 0 1
outer loop
vertex 5190.77 12454.91 199.94
vertex 7006.09 12439.050000000001 199.94
vertex 7015.58 12465.57 199.94
endloop
endfacet
facet normal 0 0 1
outer loop
vertex 5190.77 12454.91 199.94
vertex 7015.58 12465.57 199.94
vertex 6932.25 12465.57 199.94
endloop
endfacet
facet normal 0 0 1
outer loop
vertex 7077.070000000001 12405.51 199.94
vertex 7168.59 12405.51 199.94
vertex 7350.070000000001 12708.28 199.94
endloop
endfacet
facet normal 0 0 1
outer loop
vertex 7077.070000000001 12405.51 199.94
vertex 7350.070000000001 12708.28 199.94
vertex 7282.7300000000005 12748.58 199.94
endloop
endfacet
facet normal 0 0 1
outer loop
vertex 5235.2300000000005 12425.66 199.94
vertex 7006.09 12439.050000000001 199.94
vertex 2500.03 12439.050000000001 199.94
endloop
endfacet
facet normal 0 0 1
outer loop
vertex 5235.2300000000005 12425.66 199.94
vertex 2500.03 12439.050000000001 199.94
vertex 2500.03 12405.51 199.94
endloop
endfacet
facet normal 0 0 0.9999999999999999
outer loop
vertex 5235.2300000000005 12425.66 199.94
vertex 2500.03 12405.51 199.94
vertex 7077.070000000001 12405.51 199.94
endloop
endfacet
facet normal 0 0 1
outer loop
vertex 5235.2300000000005 12425.66 199.94
vertex 7077.070000000001 12405.51 199.94
vertex 7092.93 12439.050000000001 199.94
endloop
endfacet
facet normal 0 0 1
outer loop
vertex 5235.2300000000005 12425.66 199.94
vertex 7092.93 12439.050000000001 199.94
vertex 7006.09 12439.050000000001 199.94
endloop
endfacet
facet normal 0 0 1
outer loop
vertex 7144.41 12365.210000000001 199.94
vertex 7242.17 12365.210000000001 199.94
vertex 7445.75 12639.640000000001 199.94
endloop
endfacet
facet normal 0 0 1
outer loop
vertex 7144.41 12365.210000000001 199.94
vertex 7445.75 12639.640000000001 199.94
vertex 7382.7 12686.44 199.94
endloop
endfacet
facet normal 0 0 1
outer loop
vertex 5278 12389.390000000001 199.94
vertex 7077.070000000001 12405.51 199.94
vertex 2500.03 12405.51 199.94
endloop
endfacet
facet normal 0 0 1
outer loop
vertex 5278 12389.390000000001 199.94
vertex 2500.03 12405.51 199.94
vertex 2500.03 12365.210000000001 199.94
endloop
endfacet
facet normal 0 0 1
outer loop
vertex 5278 12389.390000000001 199.94
vertex 2500.03 12365.210000000001 199.94
vertex 7144.41 12365.210000000001 199.94
endloop
endfacet
facet normal 0 0 1
outer loop
vertex 5278 12389.390000000001 199.94
vertex 7144.41 12365.210000000001 199.94
vertex 7168.59 12405.51 199.94
endloop
endfacet
facet normal 0 0 1
outer loop
vertex 5278 12389.390000000001 199.94
vertex 7168.59 12405.51 199.94
vertex 7077.070000000001 12405.51 199.94
endloop
endfacet
facet normal 0 0 1
outer loop
vertex 7207.46 12318.41 199.94
vertex 7313.41 12318.41 199.94
vertex 7534.280000000001 12562.03 199.94
endloop
endfacet
facet normal 0 0 1
outer loop
vertex 7207.46 12318.41 199.94
vertex 7534.280000000001 12562.03 199.94
vertex 7476.17 12614.810000000001 199.94
endloop
endfacet
facet normal 0 0 1
outer loop
vertex 5318.820000000001 12346.49 199.94
vertex 7144.41 12365.210000000001 199.94
vertex 2500.03 12365.210000000001 199.94
endloop
endfacet
facet normal 0 0 1
outer loop
vertex 5318.820000000001 12346.49 199.94
vertex 2500.03 12365.210000000001 199.94
vertex 2500.03 12318.41 199.94
endloop
endfacet
facet normal 0 0 1
outer loop
vertex 5318.820000000001 12346.49 199.94
vertex 2500.03 12318.41 199.94
vertex 7207.46 12318.41 199.94
endloop
endfacet
facet normal 0 0 0.9999999999999999
outer loop
vertex 5318.820000000001 12346.49 199.94
vertex 7207.46 12318.41 199.94
vertex 7242.17 12365.210000000001 199.94
endloop
endfacet
facet normal 0 0 1
outer loop
vertex 5318.820000000001 12346.49 199.94
vertex 7242.17 12365.210000000001 199.94
vertex 7144.41 12365.210000000001 199.94
endloop
endfacet
facet normal 0 0 1
outer loop
vertex 7265.7 12265.630000000001 199.94
vertex 7382.570000000001 12265.630000000001 199.94
vertex 7614.75 12476.1 199.94
endloop
endfacet
facet normal 0 0 0.9999999999999999
outer loop
vertex 7265.7 12265.630000000001 199.94
vertex 7614.75 12476.1 199.94
vertex 7562.1 12534.34 199.94
endloop
endfacet
facet normal 0 0 1
outer loop
vertex 5357.3 12297.35 199.94
vertex 7207.46 12318.41 199.94
vertex 2500.03 12318.41 199.94
endloop
endfacet
facet normal 0 0 1
outer loop
vertex 5357.3 12297.35 199.94
vertex 2500.03 12318.41 199.94
vertex 2500.03 12265.630000000001 199.94
endloop
endfacet
facet normal 0 0 1
outer loop
vertex 5357.3 12297.35 199.94
vertex 2500.03 12265.630000000001 199.94
vertex 7265.7 12265.630000000001 199.94
endloop
endfacet
facet normal 0 0 0.9999999999999999
outer loop
vertex 5357.3 12297.35 199.94
vertex 7265.7 12265.630000000001 199.94
vertex 7313.41 12318.41 199.94
endloop
endfacet
facet normal 0 0 1
outer loop
vertex 5357.3 12297.35 199.94
vertex 7313.41 12318.41 199.94
vertex 7207.46 12318.41 199.94
endloop
endfacet
facet normal 0 0 1
outer loop
vertex 7318.35 12207.52 199.94
vertex 7450.17 12207.52 199.94
vertex 7686.51 12382.76 199.94
endloop
endfacet
facet normal 0 0 0.9999999999999999
outer loop
vertex 7318.35 12207.52 199.94
vertex 7686.51 12382.76 199.94
vertex 7639.71 12445.810000000001 199.94
endloop
endfacet
facet normal 0 0 1
outer loop
vertex 5393.31 12242.36 199.94
vertex 7265.7 12265.630000000001 199.94
vertex 2500.03 12265.630000000001 199.94
endloop
endfacet
facet normal 0 0 1
outer loop
vertex 5393.31 12242.36 199.94
vertex 2500.03 12265.630000000001 199.94
vertex 2500.03 12207.52 199.94
endloop
endfacet
facet normal 0 0 1
outer loop
vertex 5393.31 12242.36 199.94
vertex 2500.03 12207.52 199.94
vertex 7318.35 12207.52 199.94
endloop
endfacet
facet normal 0 0 1
outer loop
vertex 5393.31 12242.36 199.94
vertex 7318.35 12207.52 199.94
vertex 7382.570000000001 12265.630000000001 199.94
endloop
endfacet
facet normal 0 0 1
outer loop
vertex 5393.31 12242.36 199.94
vertex 7382.570000000001 12265.630000000001 199.94
vertex 7265.7 12265.630000000001 199.94
endloop
endfacet
facet normal 0 0 0.9999999999999999
outer loop
vertex 7365.150000000001 12144.470000000001 199.94
vertex 7517.900000000001 12144.470000000001 199.94
vertex 7748.650000000001 12282.79 199.94
endloop
endfacet
facet normal 0 0 0.9999999999999999
outer loop
vertex 7365.150000000001 12144.470000000001 199.94
vertex 7748.650000000001 12282.79 199.94
vertex 7708.22 12350.130000000001 199.94
endloop
endfacet
facet normal 0 0 1
outer loop
vertex 5426.72 12182.300000000001 199.94
vertex 7318.35 12207.52 199.94
vertex 2500.03 12207.52 199.94
endloop
endfacet
facet normal 0 0 1
outer loop
vertex 5426.72 12182.300000000001 199.94
vertex 2500.03 12207.52 199.94
vertex 2500.03 12144.470000000001 199.94
endloop
endfacet
facet normal 0 0 1
outer loop
vertex 5426.72 12182.300000000001 199.94
vertex 2500.03 12144.470000000001 199.94
vertex 7365.150000000001 12144.470000000001 199.94
endloop
endfacet
facet normal 0 0 1
outer loop
vertex 5426.72 12182.300000000001 199.94
vertex 7365.150000000001 12144.470000000001 199.94
vertex 7450.17 12207.52 199.94
endloop
endfacet
facet normal 0 0 0.9999999999999999
outer loop
vertex 5426.72 12182.300000000001 199.94
vertex 7450.17 12207.52 199.94
vertex 7318.35 12207.52 199.94
endloop
endfacet
facet normal 0 0 0.9999999999999999
outer loop
vertex 5669.56 12122.24 199.94
vertex 7365.150000000001 12144.470000000001 199.94
vertex 2500.03 12144.470000000001 199.94
endloop
endfacet
facet normal 0 0 1
outer loop
vertex 5669.56 12122.24 199.94
vertex 2500.03 12144.470000000001 199.94
vertex 2500.03 12100.01 199.94
endloop
endfacet
facet normal 0 0 0.9999999999999999
outer loop
vertex 5669.56 12122.24 199.94
vertex 2500.03 12100.01 199.94
vertex 6690.1900000000005 12100.01 199.94
endloop
endfacet
facet normal 0 0 1
outer loop
vertex 5669.56 12122.24 199.94
vertex 6690.1900000000005 12100.01 199.94
vertex 7443.67 12100.01 199.94
endloop
endfacet
facet normal 0 0 1
outer loop
vertex 5669.56 12122.24 199.94
vertex 7443.67 12100.01 199.94
vertex 7517.900000000001 12144.470000000001 199.94
endloop
endfacet
facet normal 0 0 1
outer loop
vertex 5669.56 12122.24 199.94
vertex 7517.900000000001 12144.470000000001 199.94
vertex 7365.150000000001 12144.470000000001 199.94
endloop
endfacet
facet normal 0 0 0.9999999999999999
outer loop
vertex 6690.1900000000005 12100.01 199.94
vertex 6739.2 12097.54 199.94
vertex 7439.64 12097.54 199.94
endloop
endfacet
facet normal 0 0 0.9999999999999999
outer loop
vertex 6690.1900000000005 12100.01 199.94
vertex 7439.64 12097.54 199.94
vertex 7443.67 12100.01 199.94
endloop
endfacet
facet normal 0 0 1
outer loop
vertex 6739.2 12097.54 199.94
vertex 6777.9400000000005 12091.82 199.94
vertex 7430.150000000001 12091.82 199.94
endloop
endfacet
facet normal 0 0 1
outer loop
vertex 6739.2 12097.54 199.94
vertex 7430.150000000001 12091.82 199.94
vertex 7439.64 12097.54 199.94
endloop
endfacet
facet normal 0 0 1
outer loop
vertex 6777.9400000000005 12091.82 199.94
vertex 6816.030000000001 12082.33 199.94
vertex 7414.16 12082.33 199.94
endloop
endfacet
facet normal 0 0 1
outer loop
vertex 6777.9400000000005 12091.82 199.94
vertex 7414.16 12082.33 199.94
vertex 7430.150000000001 12091.82 199.94
endloop
endfacet
facet normal 0 0 1
outer loop
vertex 7405.58 12077.130000000001 199.94
vertex 7589.14 12077.130000000001 199.94
vertex 7800.650000000001 12177.23 199.94
endloop
endfacet
facet normal 0 0 1
outer loop
vertex 7405.58 12077.130000000001 199.94
vertex 7800.650000000001 12177.23 199.94
vertex 7767.110000000001 12248.08 199.94
endloop
endfacet
facet normal 0 0 1
outer loop
vertex 6816.030000000001 12082.33 199.94
vertex 6830.46 12077.130000000001 199.94
vertex 7405.58 12077.130000000001 199.94
endloop
endfacet
facet normal 0 0 0.9999999999999999
outer loop
vertex 6816.030000000001 12082.33 199.94
vertex 7405.58 12077.130000000001 199.94
vertex 7414.16 12082.33 199.94
endloop
endfacet
facet normal 0 0 1
outer loop
vertex 7250.1 12073.880000000001 199.94
vertex 7405.58 12077.130000000001 199.94
vertex 6830.46 12077.130000000001 199.94
endloop
endfacet
facet normal 0 0 1
outer loop
vertex 7250.1 12073.880000000001 199.94
vertex 6830.46 12077.130000000001 199.94
vertex 6852.95 12069.07 199.94
endloop
endfacet
facet normal 0 0 0.9999999999999999
outer loop
vertex 7250.1 12073.880000000001 199.94
vertex 6852.95 12069.07 199.94
vertex 7572.240000000001 12069.07 199.94
endloop
endfacet
facet normal 0 0 0.9999999999999999
outer loop
vertex 7250.1 12073.880000000001 199.94
vertex 7572.240000000001 12069.07 199.94
vertex 7589.14 12077.130000000001 199.94
endloop
endfacet
facet normal 0 0 1
outer loop
vertex 7250.1 12073.880000000001 199.94
vertex 7589.14 12077.130000000001 199.94
vertex 7405.58 12077.130000000001 199.94
endloop
endfacet
facet normal 0 0 1
outer loop
vertex 6852.95 12069.07 199.94
vertex 6888.31 12052.300000000001 199.94
vertex 7536.75 12052.300000000001 199.94
endloop
endfacet
facet normal 0 0 1
outer loop
vertex 6852.95 12069.07 199.94
vertex 7536.75 12052.300000000001 199.94
vertex 7572.240000000001 12069.07 199.94
endloop
endfacet
facet normal 0 0 1
outer loop
vertex 6888.31 12052.300000000001 199.94
vertex 6921.9800000000005 12032.15 199.94
vertex 7494.110000000001 12032.15 199.94
endloop
endfacet
facet normal 0 0 1
outer loop
vertex 6888.31 12052.300000000001 199.94
vertex 7494.110000000001 12032.15 199.94
vertex 7536.75 12052.300000000001 199.94
endloop
endfacet
facet normal 0 0 1
outer loop
vertex 6921.9800000000005 12032.15 199.94
vertex 6953.4400000000005 12008.880000000001 199.94
vertex 7444.84 12008.880000000001 199.94
endloop
endfacet
facet normal 0 0 1
outer loop
vertex 6921.9800000000005 12032.15 199.94
vertex 7444.84 12008.880000000001 199.94
vertex 7494.110000000001 12032.15 199.94
endloop
endfacet
facet normal 0 0 1
outer loop
vertex 7439.12 12006.15 199.94
vertex 7672.08 12006.15 199.94
vertex 7842.12 12066.99 199.94
endloop
endfacet
facet normal 0 0 1
outer loop
vertex 7439.12 12006.15 199.94
vertex 7842.12 12066.99 199.94
vertex 7815.7300000000005 12140.960000000001 199.94
endloop
endfacet
facet normal 0 0 0.9999999999999999
outer loop
vertex 6953.4400000000005 12008.880000000001 199.94
vertex 6956.43 12006.15 199.94
vertex 7439.12 12006.15 199.94
endloop
endfacet
facet normal 0 0 1
outer loop
vertex 6953.4400000000005 12008.880000000001 199.94
vertex 7439.12 12006.15 199.94
vertex 7444.84 12008.880000000001 199.94
endloop
endfacet
facet normal 0 0 1
outer loop
vertex 7331.22 11996.66 199.94
vertex 7439.12 12006.15 199.94
vertex 6956.43 12006.15 199.94
endloop
endfacet
facet normal 0 0 1
outer loop
vertex 7331.22 11996.66 199.94
vertex 6956.43 12006.15 199.94
vertex 6982.56 11982.49 199.94
endloop
endfacet
facet normal 0 0 1
outer loop
vertex 7331.22 11996.66 199.94
vertex 6982.56 11982.49 199.94
vertex 7606.04 11982.49 199.94
endloop
endfacet
facet normal 0 0 1
outer loop
vertex 7331.22 11996.66 199.94
vertex 7606.04 11982.49 199.94
vertex 7672.08 12006.15 199.94
endloop
endfacet
facet normal 0 0 1
outer loop
vertex 7331.22 11996.66 199.94
vertex 7672.08 12006.15 199.94
vertex 7439.12 12006.15 199.94
endloop
endfacet
facet normal 0 0 1
outer loop
vertex 6982.56 11982.49 199.94
vertex 7008.820000000001 11953.5 199.94
vertex 7524.92 11953.5 199.94
endloop
endfacet
facet normal 0 0 1
outer loop
vertex 6982.56 11982.49 199.94
vertex 7524.92 11953.5 199.94
vertex 7606.04 11982.49 199.94
endloop
endfacet
facet normal 0 0 1
outer loop
vertex 7465.51 11932.18 199.94
vertex 7788.6900000000005 11932.18 199.94
vertex 7872.67 11953.24 199.94
endloop
endfacet
facet normal 0 0 1
outer loop
vertex 7465.51 11932.18 199.94
vertex 7872.67 11953.24 199.94
vertex 7853.56 12029.42 199.94
endloop
endfacet
facet normal 0 0 1
outer loop
vertex 7008.820000000001 11953.5 199.94
vertex 7024.55 11932.18 199.94
vertex 7465.51 11932.18 199.94
endloop
endfacet
facet normal 0 0 1
outer loop
vertex 7008.820000000001 11953.5 199.94
vertex 7465.51 11932.18 199.94
vertex 7524.92 11953.5 199.94
endloop
endfacet
facet normal 0 0 1
outer loop
vertex 7411.6900000000005 11928.02 199.94
vertex 7465.51 11932.18 199.94
vertex 7024.55 11932.18 199.94
endloop
endfacet
facet normal 0 0 1
outer loop
vertex 7411.6900000000005 11928.02 199.94
vertex 7024.55 11932.18 199.94
vertex 7032.22 11921.91 199.94
endloop
endfacet
facet normal 0 0 1
outer loop
vertex 7411.6900000000005 11928.02 199.94
vertex 7032.22 11921.91 199.94
vertex 7747.610000000001 11921.91 199.94
endloop
endfacet
facet normal 0 0 1
outer loop
vertex 7411.6900000000005 11928.02 199.94
vertex 7747.610000000001 11921.91 199.94
vertex 7788.6900000000005 11932.18 199.94
endloop
endfacet
facet normal 0 0 0.9999999999999999
outer loop
vertex 7411.6900000000005 11928.02 199.94
vertex 7788.6900000000005 11932.18 199.94
vertex 7465.51 11932.18 199.94
endloop
endfacet
facet normal 0 0 1
outer loop
vertex 7032.22 11921.91 199.94
vertex 7052.37 11888.37 199.94
vertex 7613.45 11888.37 199.94
endloop
endfacet
facet normal 0 0 1
outer loop
vertex 7032.22 11921.91 199.94
vertex 7613.45 11888.37 199.94
vertex 7747.610000000001 11921.91 199.94
endloop
endfacet
facet normal 0 0 1
outer loop
vertex 7484.62 11856.130000000001 199.94
vertex 7889.05 11856.130000000001 199.94
vertex 7880.34 11914.76 199.94
endloop
endfacet
facet normal 0 0 0.9999999999999999
outer loop
vertex 7052.37 11888.37 199.94
vertex 7067.58 11856.130000000001 199.94
vertex 7484.62 11856.130000000001 199.94
endloop
endfacet
facet normal 0 0 1
outer loop
vertex 7052.37 11888.37 199.94
vertex 7484.62 11856.130000000001 199.94
vertex 7613.45 11888.37 199.94
endloop
endfacet
facet normal 0 0 1
outer loop
vertex 7479.9400000000005 11854.83 199.94
vertex 7484.62 11856.130000000001 199.94
vertex 7067.58 11856.130000000001 199.94
endloop
endfacet
facet normal 0 0 1
outer loop
vertex 7479.9400000000005 11854.83 199.94
vertex 7067.58 11856.130000000001 199.94
vertex 7069.14 11852.880000000001 199.94
endloop
endfacet
facet normal 0 0 1
outer loop
vertex 7479.9400000000005 11854.83 199.94
vertex 7069.14 11852.880000000001 199.94
vertex 7889.4400000000005 11852.880000000001 199.94
endloop
endfacet
facet normal 0 0 1
outer loop
vertex 7479.9400000000005 11854.83 199.94
vertex 7889.4400000000005 11852.880000000001 199.94
vertex 7889.05 11856.130000000001 199.94
endloop
endfacet
facet normal 0 0 1
outer loop
vertex 7479.9400000000005 11854.83 199.94
vertex 7889.05 11856.130000000001 199.94
vertex 7484.62 11856.130000000001 199.94
endloop
endfacet
facet normal 0 0 1
outer loop
vertex 7536.360000000001 11834.94 199.94
vertex 7069.14 11852.880000000001 199.94
vertex 7082.27 11815.960000000001 199.94
endloop
endfacet
facet normal 0 0 0.9999999999999999
outer loop
vertex 7536.360000000001 11834.94 199.94
vertex 7082.27 11815.960000000001 199.94
vertex 7749.3 11815.960000000001 199.94
endloop
endfacet
facet normal 0 0 1
outer loop
vertex 7536.360000000001 11834.94 199.94
vertex 7749.3 11815.960000000001 199.94
vertex 7891.780000000001 11837.15 199.94
endloop
endfacet
facet normal 0 0 1
outer loop
vertex 7536.360000000001 11834.94 199.94
vertex 7891.780000000001 11837.15 199.94
vertex 7889.4400000000005 11852.880000000001 199.94
endloop
endfacet
facet normal 0 0 1
outer loop
vertex 7536.360000000001 11834.94 199.94
vertex 7889.4400000000005 11852.880000000001 199.94
vertex 7069.14 11852.880000000001 199.94
endloop
endfacet
facet normal 0 0 1
outer loop
vertex 7496.1900000000005 11778.390000000001 199.94
vertex 7896.59 11778.390000000001 199.94
vertex 7895.68 11798.02 199.94
endloop
endfacet
facet normal 0 0 1
outer loop
vertex 7082.27 11815.960000000001 199.94
vertex 7091.76 11778.390000000001 199.94
vertex 7496.1900000000005 11778.390000000001 199.94
endloop
endfacet
facet normal 0 0 1
outer loop
vertex 7082.27 11815.960000000001 199.94
vertex 7496.1900000000005 11778.390000000001 199.94
vertex 7749.3 11815.960000000001 199.94
endloop
endfacet
facet normal 0 0 1
outer loop
vertex 7494.63 11778.26 199.94
vertex 7496.1900000000005 11778.390000000001 199.94
vertex 7091.76 11778.390000000001 199.94
endloop
endfacet
facet normal 0 0 1
outer loop
vertex 7494.63 11778.26 199.94
vertex 7091.76 11778.390000000001 199.94
vertex 7091.89 11778 199.94
endloop
endfacet
facet normal 0 0 1
outer loop
vertex 7494.63 11778.26 199.94
vertex 7091.89 11778 199.94
vertex 7896.59 11778 199.94
endloop
endfacet
facet normal 0 0 1
outer loop
vertex 7494.63 11778.26 199.94
vertex 7896.59 11778 199.94
vertex 7896.59 11778.390000000001 199.94
endloop
endfacet
facet normal 0 0 1
outer loop
vertex 7494.63 11778.26 199.94
vertex 7896.59 11778.390000000001 199.94
vertex 7496.1900000000005 11778.390000000001 199.94
endloop
endfacet
facet normal 0 0 0.9999999999999999
outer loop
vertex 7091.89 11778 199.94
vertex 7097.610000000001 11739.130000000001 199.94
vertex 7898.54 11739.130000000001 199.94
endloop
endfacet
facet normal 0 0 1
outer loop
vertex 7091.89 11778 199.94
vertex 7898.54 11739.130000000001 199.94
vertex 7896.59 11778 199.94
endloop
endfacet
facet normal 0 0 1
outer loop
vertex 7499.05 11719.630000000001 199.94
vertex 7097.610000000001 11739.130000000001 199.94
vertex 7099.56 11700 199.94
endloop
endfacet
facet normal 0 0 1
outer loop
vertex 7499.05 11719.630000000001 199.94
vertex 7099.56 11700 199.94
vertex 7499.96 11700 199.94
endloop
endfacet
facet normal 0 0 1
outer loop
vertex 7499.05 11719.630000000001 199.94
vertex 7499.96 11700 199.94
vertex 7899.58 11719.630000000001 199.94
endloop
endfacet
facet normal 0 0 1
outer loop
vertex 7499.05 11719.630000000001 199.94
vertex 7899.58 11719.630000000001 199.94
vertex 7898.54 11739.130000000001 199.94
endloop
endfacet
facet normal 0 0 0.9999999999999999
outer loop
vertex 7499.05 11719.630000000001 199.94
vertex 7898.54 11739.130000000001 199.94
vertex 7097.610000000001 11739.130000000001 199.94
endloop
endfacet
facet normal 0 0 1
outer loop
vertex 7499.83 11696.1 199.94
vertex 7499.96 11700 199.94
vertex 7099.56 11700 199.94
endloop
endfacet
facet normal 0 0 1
outer loop
vertex 7499.83 11696.1 199.94
vertex 7099.56 11700 199.94
vertex 7099.95 11690.12 199.94
endloop
endfacet
facet normal 0 0 1
outer loop
vertex 7499.83 11696.1 199.94
vertex 7099.95 11690.12 199.94
vertex 7899.97 11690.12 199.94
endloop
endfacet
facet normal 0 0 0.9999999999999999
outer loop
vertex 7499.83 11696.1 199.94
vertex 7899.97 11690.12 199.94
vertex 7899.97 11700 199.94
endloop
endfacet
facet normal 0 0 0.9999999999999999
outer loop
vertex 7499.83 11696.1 199.94
vertex 7899.97 11700 199.94
vertex 7499.96 11700 199.94
endloop
endfacet
facet normal 0 0 1
outer loop
vertex 7099.95 11690.12 199.94
vertex 7099.95 7499.96 199.94
vertex 7899.97 7499.96 199.94
endloop
endfacet
facet normal 0 0 1
outer loop
vertex 7099.95 11690.12 199.94
vertex 7899.97 7499.96 199.94
vertex 7899.97 11690.12 199.94
endloop
endfacet
facet normal 0 0 -1
outer loop
vertex 6699.9400000000005 12900.03 599.95
vertex 6699.9400000000005 12500.02 599.95
vertex 2500.03 12500.02 599.95
endloop
endfacet
facet normal 0 0 -1
outer loop
vertex 6699.9400000000005 12900.03 599.95
vertex 2500.03 12500.02 599.95
vertex 2500.03 12900.03 599.95
endloop
endfacet
facet normal 0 0 -1
outer loop
vertex 6798.09 12895.61 599.95
vertex 6778.59 12500.02 599.95
vertex 6699.9400000000005 12500.02 599.95
endloop
endfacet
facet normal 0 0 -1
outer loop
vertex 6798.09 12895.61 599.95
vertex 6699.9400000000005 12500.02 599.95
vertex 6719.570000000001 12899.51 599.95
endloop
endfacet
facet normal 0 0 -1
outer loop
vertex 5051.41 12498.460000000001 599.95
vertex 6699.9400000000005 12500.02 599.95
vertex 6778.59 12500.02 599.95
endloop
endfacet
facet normal 0 0 -0.9999999999999999
outer loop
vertex 5051.41 12498.460000000001 599.95
vertex 6778.59 12500.02 599.95
vertex 6778.46 12496.12 599.95
endloop
endfacet
facet normal 0 0 -0.9999999999999999
outer loop
vertex 5051.41 12498.460000000001 599.95
vertex 6778.46 12496.12 599.95
vertex 2500.03 12496.12 599.95
endloop
endfacet
facet normal 0 0 -1
outer loop
vertex 5051.41 12498.460000000001 599.95
vertex 2500.03 12496.12 599.95
vertex 2500.03 12500.02 599.95
endloop
endfacet
facet normal 0 0 -1
outer loop
vertex 5051.41 12498.460000000001 599.95
vertex 2500.03 12500.02 599.95
vertex 6699.9400000000005 12500.02 599.95
endloop
endfacet
facet normal 0 0 -1
outer loop
vertex 6914.7 12880.27 599.95
vertex 6857.76 12496.12 599.95
vertex 6778.46 12496.12 599.95
endloop
endfacet
facet normal 0 0 -1
outer loop
vertex 6914.7 12880.27 599.95
vertex 6778.46 12496.12 599.95
vertex 6837.09 12891.84 599.95
endloop
endfacet
facet normal 0 0 -1
outer loop
vertex 5098.47 12491.57 599.95
vertex 6778.46 12496.12 599.95
vertex 6857.76 12496.12 599.95
endloop
endfacet
facet normal 0 0 -1
outer loop
vertex 5098.47 12491.57 599.95
vertex 6857.76 12496.12 599.95
vertex 6856.070000000001 12484.68 599.95
endloop
endfacet
facet normal 0 0 -0.9999999999999999
outer loop
vertex 5098.47 12491.57 599.95
vertex 6856.070000000001 12484.68 599.95
vertex 2500.03 12484.68 599.95
endloop
endfacet
facet normal 0 0 -1
outer loop
vertex 5098.47 12491.57 599.95
vertex 2500.03 12484.68 599.95
vertex 2500.03 12496.12 599.95
endloop
endfacet
facet normal 0 0 -1
outer loop
vertex 5098.47 12491.57 599.95
vertex 2500.03 12496.12 599.95
vertex 6778.46 12496.12 599.95
endloop
endfacet
facet normal 0 0 -1
outer loop
vertex 7029.360000000001 12853.62 599.95
vertex 6937.06 12484.68 599.95
vertex 6856.070000000001 12484.68 599.95
endloop
endfacet
facet normal 0 0 -1
outer loop
vertex 7029.360000000001 12853.62 599.95
vertex 6856.070000000001 12484.68 599.95
vertex 6953.31 12872.6 599.95
endloop
endfacet
facet normal 0 0 -1
outer loop
vertex 5145.14 12477.01 599.95
vertex 6856.070000000001 12484.68 599.95
vertex 6937.06 12484.68 599.95
endloop
endfacet
facet normal 0 0 -1
outer loop
vertex 5145.14 12477.01 599.95
vertex 6937.06 12484.68 599.95
vertex 6932.25 12465.57 599.95
endloop
endfacet
facet normal 0 0 -0.9999999999999999
outer loop
vertex 5145.14 12477.01 599.95
vertex 6932.25 12465.57 599.95
vertex 2500.03 12465.57 599.95
endloop
endfacet
facet normal 0 0 -1
outer loop
vertex 5145.14 12477.01 599.95
vertex 2500.03 12465.57 599.95
vertex 2500.03 12484.68 599.95
endloop
endfacet
facet normal 0 0 -1
outer loop
vertex 5145.14 12477.01 599.95
vertex 2500.03 12484.68 599.95
vertex 6856.070000000001 12484.68 599.95
endloop
endfacet
facet normal 0 0 -1
outer loop
vertex 7140.900000000001 12815.66 599.95
vertex 7015.58 12465.57 599.95
vertex 6932.25 12465.57 599.95
endloop
endfacet
facet normal 0 0 -0.9999999999999999
outer loop
vertex 7140.900000000001 12815.66 599.95
vertex 6932.25 12465.57 599.95
vertex 7066.93 12842.18 599.95
endloop
endfacet
facet normal 0 0 -1
outer loop
vertex 5190.77 12454.91 599.95
vertex 6932.25 12465.57 599.95
vertex 7015.58 12465.57 599.95
endloop
endfacet
facet normal 0 0 -1
outer loop
vertex 5190.77 12454.91 599.95
vertex 7015.58 12465.57 599.95
vertex 7006.09 12439.050000000001 599.95
endloop
endfacet
facet normal 0 0 -1
outer loop
vertex 5190.77 12454.91 599.95
vertex 7006.09 12439.050000000001 599.95
vertex 2500.03 12439.050000000001 599.95
endloop
endfacet
facet normal 0 0 -1
outer loop
vertex 5190.77 12454.91 599.95
vertex 2500.03 12439.050000000001 599.95
vertex 2500.03 12465.57 599.95
endloop
endfacet
facet normal 0 0 -1
outer loop
vertex 5190.77 12454.91 599.95
vertex 2500.03 12465.57 599.95
vertex 6932.25 12465.57 599.95
endloop
endfacet
facet normal 0 0 -0.9999999999999999
outer loop
vertex 7248.150000000001 12767.17 599.95
vertex 7092.93 12439.050000000001 599.95
vertex 7006.09 12439.050000000001 599.95
endloop
endfacet
facet normal 0 0 -1
outer loop
vertex 7248.150000000001 12767.17 599.95
vertex 7006.09 12439.050000000001 599.95
vertex 7177.17 12800.710000000001 599.95
endloop
endfacet
facet normal 0 0 -1
outer loop
vertex 5235.2300000000005 12425.66 599.95
vertex 7006.09 12439.050000000001 599.95
vertex 7092.93 12439.050000000001 599.95
endloop
endfacet
facet normal 0 0 -1
outer loop
vertex 5235.2300000000005 12425.66 599.95
vertex 7092.93 12439.050000000001 599.95
vertex 7077.070000000001 12405.51 599.95
endloop
endfacet
facet normal 0 0 -0.9999999999999999
outer loop
vertex 5235.2300000000005 12425.66 599.95
vertex 7077.070000000001 12405.51 599.95
vertex 2500.03 12405.51 599.95
endloop
endfacet
facet normal 0 0 -1
outer loop
vertex 5235.2300000000005 12425.66 599.95
vertex 2500.03 12405.51 599.95
vertex 2500.03 12439.050000000001 599.95
endloop
endfacet
facet normal 0 0 -1
outer loop
vertex 5235.2300000000005 12425.66 599.95
vertex 2500.03 12439.050000000001 599.95
vertex 7006.09 12439.050000000001 599.95
endloop
endfacet
facet normal 0 0 -1
outer loop
vertex 7350.070000000001 12708.28 599.95
vertex 7168.59 12405.51 599.95
vertex 7077.070000000001 12405.51 599.95
endloop
endfacet
facet normal 0 0 -1
outer loop
vertex 7350.070000000001 12708.28 599.95
vertex 7077.070000000001 12405.51 599.95
vertex 7282.7300000000005 12748.58 599.95
endloop
endfacet
facet normal 0 0 -1
outer loop
vertex 5278 12389.390000000001 599.95
vertex 7077.070000000001 12405.51 599.95
vertex 7168.59 12405.51 599.95
endloop
endfacet
facet normal 0 0 -1
outer loop
vertex 5278 12389.390000000001 599.95
vertex 7168.59 12405.51 599.95
vertex 7144.41 12365.210000000001 599.95
endloop
endfacet
facet normal 0 0 -1
outer loop
vertex 5278 12389.390000000001 599.95
vertex 7144.41 12365.210000000001 599.95
vertex 2500.03 12365.210000000001 599.95
endloop
endfacet
facet normal 0 0 -1
outer loop
vertex 5278 12389.390000000001 599.95
vertex 2500.03 12365.210000000001 599.95
vertex 2500.03 12405.51 599.95
endloop
endfacet
facet normal 0 0 -1
outer loop
vertex 5278 12389.390000000001 599.95
vertex 2500.03 12405.51 599.95
vertex 7077.070000000001 12405.51 599.95
endloop
endfacet
facet normal 0 0 -1
outer loop
vertex 7445.75 12639.640000000001 599.95
vertex 7242.17 12365.210000000001 599.95
vertex 7144.41 12365.210000000001 599.95
endloop
endfacet
facet normal 0 0 -1
outer loop
vertex 7445.75 12639.640000000001 599.95
vertex 7144.41 12365.210000000001 599.95
vertex 7382.7 12686.44 599.95
endloop
endfacet
facet normal 0 0 -1
outer loop
vertex 5318.820000000001 12346.49 599.95
vertex 7144.41 12365.210000000001 599.95
vertex 7242.17 12365.210000000001 599.95
endloop
endfacet
facet normal 0 0 -0.9999999999999999
outer loop
vertex 5318.820000000001 12346.49 599.95
vertex 7242.17 12365.210000000001 599.95
vertex 7207.46 12318.41 599.95
endloop
endfacet
facet normal 0 0 -1
outer loop
vertex 5318.820000000001 12346.49 599.95
vertex 7207.46 12318.41 599.95
vertex 2500.03 12318.41 599.95
endloop
endfacet
facet normal 0 0 -1
outer loop
vertex 5318.820000000001 12346.49 599.95
vertex 2500.03 12318.41 599.95
vertex 2500.03 12365.210000000001 599.95
endloop
endfacet
facet normal 0 0 -1
outer loop
vertex 5318.820000000001 12346.49 599.95
vertex 2500.03 12365.210000000001 599.95
vertex 7144.41 12365.210000000001 599.95
endloop
endfacet
facet normal 0 0 -1
outer loop
vertex 7534.280000000001 12562.03 599.95
vertex 7313.41 12318.41 599.95
vertex 7207.46 12318.41 599.95
endloop
endfacet
facet normal 0 0 -1
outer loop
vertex 7534.280000000001 12562.03 599.95
vertex 7207.46 12318.41 599.95
vertex 7476.17 12614.810000000001 599.95
endloop
endfacet
facet normal 0 0 -1
outer loop
vertex 5357.3 12297.35 599.95
vertex 7207.46 12318.41 599.95
vertex 7313.41 12318.41 599.95
endloop
endfacet
facet normal 0 0 -0.9999999999999999
outer loop
vertex 5357.3 12297.35 599.95
vertex 7313.41 12318.41 599.95
vertex 7265.7 12265.630000000001 599.95
endloop
endfacet
facet normal 0 0 -1
outer loop
vertex 5357.3 12297.35 599.95
vertex 7265.7 12265.630000000001 599.95
vertex 2500.03 12265.630000000001 599.95
endloop
endfacet
facet normal 0 0 -1
outer loop
vertex 5357.3 12297.35 599.95
vertex 2500.03 12265.630000000001 599.95
vertex 2500.03 12318.41 599.95
endloop
endfacet
facet normal 0 0 -1
outer loop
vertex 5357.3 12297.35 599.95
vertex 2500.03 12318.41 599.95
vertex 7207.46 12318.41 599.95
endloop
endfacet
facet normal 0 0 -1
outer loop
vertex 7614.75 12476.1 599.95
vertex 7382.570000000001 12265.630000000001 599.95
vertex 7265.7 12265.630000000001 599.95
endloop
endfacet
facet normal 0 0 -0.9999999999999999
outer loop
vertex 7614.75 12476.1 599.95
vertex 7265.7 12265.630000000001 599.95
vertex 7562.1 12534.34 599.95
endloop
endfacet
facet normal 0 0 -1
outer loop
vertex 5393.31 12242.36 599.95
vertex 7265.7 12265.630000000001 599.95
vertex 7382.570000000001 12265.630000000001 599.95
endloop
endfacet
facet normal 0 0 -1
outer loop
vertex 5393.31 12242.36 599.95
vertex 7382.570000000001 12265.630000000001 599.95
vertex 7318.35 12207.52 599.95
endloop
endfacet
facet normal 0 0 -1
outer loop
vertex 5393.31 12242.36 599.95
vertex 7318.35 12207.52 599.95
vertex 2500.03 12207.52 599.95
endloop
endfacet
facet normal 0 0 -1
outer loop
vertex 5393.31 12242.36 599.95
vertex 2500.03 12207.52 599.95
vertex 2500.03 12265.630000000001 599.95
endloop
endfacet
facet normal 0 0 -1
outer loop
vertex 5393.31 12242.36 599.95
vertex 2500.03 12265.630000000001 599.95
vertex 7265.7 12265.630000000001 599.95
endloop
endfacet
facet normal 0 0 -1
outer loop
vertex 7686.51 12382.76 599.95
vertex 7450.17 12207.52 599.95
vertex 7318.35 12207.52 599.95
endloop
endfacet
facet normal 0 0 -0.9999999999999999
outer loop
vertex 7686.51 12382.76 599.95
vertex 7318.35 12207.52 599.95
vertex 7639.71 12445.810000000001 599.95
endloop
endfacet
facet normal 0 0 -0.9999999999999999
outer loop
vertex 5426.72 12182.300000000001 599.95
vertex 7318.35 12207.52 599.95
vertex 7450.17 12207.52 599.95
endloop
endfacet
facet normal 0 0 -1
outer loop
vertex 5426.72 12182.300000000001 599.95
vertex 7450.17 12207.52 599.95
vertex 7365.150000000001 12144.470000000001 599.95
endloop
endfacet
facet normal 0 0 -1
outer loop
vertex 5426.72 12182.300000000001 599.95
vertex 7365.150000000001 12144.470000000001 599.95
vertex 2500.03 12144.470000000001 599.95
endloop
endfacet
facet normal 0 0 -1
outer loop
vertex 5426.72 12182.300000000001 599.95
vertex 2500.03 12144.470000000001 599.95
vertex 2500.03 12207.52 599.95
endloop
endfacet
facet normal 0 0 -1
outer loop
vertex 5426.72 12182.300000000001 599.95
vertex 2500.03 12207.52 599.95
vertex 7318.35 12207.52 599.95
endloop
endfacet
facet normal 0 0 -0.9999999999999999
outer loop
vertex 7748.650000000001 12282.79 599.95
vertex 7517.900000000001 12144.470000000001 599.95
vertex 7365.150000000001 12144.470000000001 599.95
endloop
endfacet
facet normal 0 0 -0.9999999999999999
outer loop
vertex 7748.650000000001 12282.79 599.95
vertex 7365.150000000001 12144.470000000001 599.95
vertex 7708.22 12350.130000000001 599.95
endloop
endfacet
facet normal 0 0 -1
outer loop
vertex 5669.56 12122.24 599.95
vertex 7365.150000000001 12144.470000000001 599.95
vertex 7517.900000000001 12144.470000000001 599.95
endloop
endfacet
facet normal 0 0 -1
outer loop
vertex 5669.56 12122.24 599.95
vertex 7517.900000000001 12144.470000000001 599.95
vertex 7443.67 12100.01 599.95
endloop
endfacet
facet normal 0 0 -1
outer loop
vertex 5669.56 12122.24 599.95
vertex 7443.67 12100.01 599.95
vertex 6690.1900000000005 12100.01 599.95
endloop
endfacet
facet normal 0 0 -0.9999999999999999
outer loop
vertex 5669.56 12122.24 599.95
vertex 6690.1900000000005 12100.01 599.95
vertex 2500.03 12100.01 599.95
endloop
endfacet
facet normal 0 0 -1
outer loop
vertex 5669.56 12122.24 599.95
vertex 2500.03 12100.01 599.95
vertex 2500.03 12144.470000000001 599.95
endloop
endfacet
facet normal 0 0 -0.9999999999999999
outer loop
vertex 5669.56 12122.24 599.95
vertex 2500.03 12144.470000000001 599.95
vertex 7365.150000000001 12144.470000000001 599.95
endloop
endfacet
facet normal 0 0 -0.9999999999999999
outer loop
vertex 7443.67 12100.01 599.95
vertex 7439.64 12097.54 599.95
vertex 6739.2 12097.54 599.95
endloop
endfacet
facet normal 0 0 -0.9999999999999999
outer loop
vertex 7443.67 12100.01 599.95
vertex 6739.2 12097.54 599.95
vertex 6690.1900000000005 12100.01 599.95
endloop
endfacet
facet normal 0 0 -1
outer loop
vertex 7439.64 12097.54 599.95
vertex 7430.150000000001 12091.82 599.95
vertex 6777.9400000000005 12091.82 599.95
endloop
endfacet
facet normal 0 0 -1
outer loop
vertex 7439.64 12097.54 599.95
vertex 6777.9400000000005 12091.82 599.95
vertex 6739.2 12097.54 599.95
endloop
endfacet
facet normal 0 0 -1
outer loop
vertex 7430.150000000001 12091.82 599.95
vertex 7414.16 12082.33 599.95
vertex 6816.030000000001 12082.33 599.95
endloop
endfacet
facet normal 0 0 -1
outer loop
vertex 7430.150000000001 12091.82 599.95
vertex 6816.030000000001 12082.33 599.95
vertex 6777.9400000000005 12091.82 599.95
endloop
endfacet
facet normal 0 0 -1
outer loop
vertex 7414.16 12082.33 599.95
vertex 7405.58 12077.130000000001 599.95
vertex 6830.46 12077.130000000001 599.95
endloop
endfacet
facet normal 0 0 -0.9999999999999999
outer loop
vertex 7414.16 12082.33 599.95
vertex 6830.46 12077.130000000001 599.95
vertex 6816.030000000001 12082.33 599.95
endloop
endfacet
facet normal 0 0 -1
outer loop
vertex 7800.650000000001 12177.23 599.95
vertex 7589.14 12077.130000000001 599.95
vertex 7405.58 12077.130000000001 599.95
endloop
endfacet
facet normal 0 0 -1
outer loop
vertex 7800.650000000001 12177.23 599.95
vertex 7405.58 12077.130000000001 599.95
vertex 7767.110000000001 12248.08 599.95
endloop
endfacet
facet normal 0 0 -1
outer loop
vertex 7250.1 12073.880000000001 599.95
vertex 7405.58 12077.130000000001 599.95
vertex 7589.14 12077.130000000001 599.95
endloop
endfacet
facet normal 0 0 -0.9999999999999999
outer loop
vertex 7250.1 12073.880000000001 599.95
vertex 7589.14 12077.130000000001 599.95
vertex 7572.240000000001 12069.07 599.95
endloop
endfacet
facet normal 0 0 -0.9999999999999999
outer loop
vertex 7250.1 12073.880000000001 599.95
vertex 7572.240000000001 12069.07 599.95
vertex 6852.95 12069.07 599.95
endloop
endfacet
facet normal 0 0 -1
outer loop
vertex 7250.1 12073.880000000001 599.95
vertex 6852.95 12069.07 599.95
vertex 6830.46 12077.130000000001 599.95
endloop
endfacet
facet normal 0 0 -1
outer loop
vertex 7250.1 12073.880000000001 599.95
vertex 6830.46 12077.130000000001 599.95
vertex 7405.58 12077.130000000001 599.95
endloop
endfacet
facet normal 0 0 -1
outer loop
vertex 7572.240000000001 12069.07 599.95
vertex 7536.75 12052.300000000001 599.95
vertex 6888.31 12052.300000000001 599.95
endloop
endfacet
facet normal 0 0 -1
outer loop
vertex 7572.240000000001 12069.07 599.95
vertex 6888.31 12052.300000000001 599.95
vertex 6852.95 12069.07 599.95
endloop
endfacet
facet normal 0 0 -1
outer loop
vertex 7536.75 12052.300000000001 599.95
vertex 7494.110000000001 12032.15 599.95
vertex 6921.9800000000005 12032.15 599.95
endloop
endfacet
facet normal 0 0 -1
outer loop
vertex 7536.75 12052.300000000001 599.95
vertex 6921.9800000000005 12032.15 599.95
vertex 6888.31 12052.300000000001 599.95
endloop
endfacet
facet normal 0 0 -1
outer loop
vertex 7494.110000000001 12032.15 599.95
vertex 7444.84 12008.880000000001 599.95
vertex 6953.4400000000005 12008.880000000001 599.95
endloop
endfacet
facet normal 0 0 -1
outer loop
vertex 7494.110000000001 12032.15 599.95
vertex 6953.4400000000005 12008.880000000001 599.95
vertex 6921.9800000000005 12032.15 599.95
endloop
endfacet
facet normal 0 0 -0.9999999999999999
outer loop
vertex 7444.84 12008.880000000001 599.95
vertex 7439.12 12006.15 599.95
vertex 6956.43 12006.15 599.95
endloop
endfacet
facet normal 0 0 -1
outer loop
vertex 7444.84 12008.880000000001 599.95
vertex 6956.43 12006.15 599.95
vertex 6953.4400000000005 12008.880000000001 599.95
endloop
endfacet
facet normal 0 0 -1
outer loop
vertex 7842.12 12066.99 599.95
vertex 7672.08 12006.15 599.95
vertex 7439.12 12006.15 599.95
endloop
endfacet
facet normal 0 0 -0.9999999999999999
outer loop
vertex 7842.12 12066.99 599.95
vertex 7439.12 12006.15 599.95
vertex 7815.7300000000005 12140.960000000001 599.95
endloop
endfacet
facet normal 0 0 -1
outer loop
vertex 7331.22 11996.66 599.95
vertex 7439.12 12006.15 599.95
vertex 7672.08 12006.15 599.95
endloop
endfacet
facet normal 0 0 -1
outer loop
vertex 7331.22 11996.66 599.95
vertex 7672.08 12006.15 599.95
vertex 7606.04 11982.49 599.95
endloop
endfacet
facet normal 0 0 -1
outer loop
vertex 7331.22 11996.66 599.95
vertex 7606.04 11982.49 599.95
vertex 6982.56 11982.49 599.95
endloop
endfacet
facet normal 0 0 -1
outer loop
vertex 7331.22 11996.66 599.95
vertex 6982.56 11982.49 599.95
vertex 6956.43 12006.15 599.95
endloop
endfacet
facet normal 0 0 -1
outer loop
vertex 7331.22 11996.66 599.95
vertex 6956.43 12006.15 599.95
vertex 7439.12 12006.15 599.95
endloop
endfacet
facet normal 0 0 -1
outer loop
vertex 7606.04 11982.49 599.95
vertex 7524.92 11953.5 599.95
vertex 7008.820000000001 11953.5 599.95
endloop
endfacet
facet normal 0 0 -1
outer loop
vertex 7606.04 11982.49 599.95
vertex 7008.820000000001 11953.5 599.95
vertex 6982.56 11982.49 599.95
endloop
endfacet
facet normal 0 0 -1
outer loop
vertex 7524.92 11953.5 599.95
vertex 7465.51 11932.18 599.95
vertex 7024.55 11932.18 599.95
endloop
endfacet
facet normal 0 0 -1
outer loop
vertex 7524.92 11953.5 599.95
vertex 7024.55 11932.18 599.95
vertex 7008.820000000001 11953.5 599.95
endloop
endfacet
facet normal 0 0 -1
outer loop
vertex 7872.67 11953.24 599.95
vertex 7788.6900000000005 11932.18 599.95
vertex 7465.51 11932.18 599.95
endloop
endfacet
facet normal 0 0 -1
outer loop
vertex 7872.67 11953.24 599.95
vertex 7465.51 11932.18 599.95
vertex 7853.56 12029.42 599.95
endloop
endfacet
facet normal 0 0 -0.9999999999999999
outer loop
vertex 7411.6900000000005 11928.02 599.95
vertex 7465.51 11932.18 599.95
vertex 7788.6900000000005 11932.18 599.95
endloop
endfacet
facet normal 0 0 -1
outer loop
vertex 7411.6900000000005 11928.02 599.95
vertex 7788.6900000000005 11932.18 599.95
vertex 7747.610000000001 11921.91 599.95
endloop
endfacet
facet normal 0 0 -1
outer loop
vertex 7411.6900000000005 11928.02 599.95
vertex 7747.610000000001 11921.91 599.95
vertex 7032.22 11921.91 599.95
endloop
endfacet
facet normal 0 0 -1
outer loop
vertex 7411.6900000000005 11928.02 599.95
vertex 7032.22 11921.91 599.95
vertex 7024.55 11932.18 599.95
endloop
endfacet
facet normal 0 0 -1
outer loop
vertex 7411.6900000000005 11928.02 599.95
vertex 7024.55 11932.18 599.95
vertex 7465.51 11932.18 599.95
endloop
endfacet
facet normal 0 0 -1
outer loop
vertex 7747.610000000001 11921.91 599.95
vertex 7613.45 11888.37 599.95
vertex 7052.37 11888.37 599.95
endloop
endfacet
facet normal 0 0 -1
outer loop
vertex 7747.610000000001 11921.91 599.95
vertex 7052.37 11888.37 599.95
vertex 7032.22 11921.91 599.95
endloop
endfacet
facet normal 0 0 -0.9999999999999999
outer loop
vertex 7613.45 11888.37 599.95
vertex 7484.62 11856.130000000001 599.95
vertex 7067.58 11856.130000000001 599.95
endloop
endfacet
facet normal 0 0 -1
outer loop
vertex 7613.45 11888.37 599.95
vertex 7067.58 11856.130000000001 599.95
vertex 7052.37 11888.37 599.95
endloop
endfacet
facet normal 0 0 -1
outer loop
vertex 7889.05 11856.130000000001 599.95
vertex 7484.62 11856.130000000001 599.95
vertex 7880.34 11914.76 599.95
endloop
endfacet
facet normal 0 0 -1
outer loop
vertex 7479.9400000000005 11854.83 599.95
vertex 7484.62 11856.130000000001 599.95
vertex 7889.05 11856.130000000001 599.95
endloop
endfacet
facet normal 0 0 -1
outer loop
vertex 7479.9400000000005 11854.83 599.95
vertex 7889.05 11856.130000000001 599.95
vertex 7889.4400000000005 11852.880000000001 599.95
endloop
endfacet
facet normal 0 0 -1
outer loop
vertex 7479.9400000000005 11854.83 599.95
vertex 7889.4400000000005 11852.880000000001 599.95
vertex 7069.14 11852.880000000001 599.95
endloop
endfacet
facet normal 0 0 -1
outer loop
vertex 7479.9400000000005 11854.83 599.95
vertex 7069.14 11852.880000000001 599.95
vertex 7067.58 11856.130000000001 599.95
endloop
endfacet
facet normal 0 0 -1
outer loop
vertex 7479.9400000000005 11854.83 599.95
vertex 7067.58 11856.130000000001 599.95
vertex 7484.62 11856.130000000001 599.95
endloop
endfacet
facet normal 0 0 -1
outer loop
vertex 7536.360000000001 11834.94 599.95
vertex 7889.4400000000005 11852.880000000001 599.95
vertex 7891.780000000001 11837.15 599.95
endloop
endfacet
facet normal 0 0 -1
outer loop
vertex 7536.360000000001 11834.94 599.95
vertex 7891.780000000001 11837.15 599.95
vertex 7749.3 11815.960000000001 599.95
endloop
endfacet
facet normal 0 0 -0.9999999999999999
outer loop
vertex 7536.360000000001 11834.94 599.95
vertex 7749.3 11815.960000000001 599.95
vertex 7082.27 11815.960000000001 599.95
endloop
endfacet
facet normal 0 0 -1
outer loop
vertex 7536.360000000001 11834.94 599.95
vertex 7082.27 11815.960000000001 599.95
vertex 7069.14 11852.880000000001 599.95
endloop
endfacet
facet normal 0 0 -1
outer loop
vertex 7536.360000000001 11834.94 599.95
vertex 7069.14 11852.880000000001 599.95
vertex 7889.4400000000005 11852.880000000001 599.95
endloop
endfacet
facet normal 0 0 -1
outer loop
vertex 7749.3 11815.960000000001 599.95
vertex 7496.1900000000005 11778.390000000001 599.95
vertex 7091.76 11778.390000000001 599.95
endloop
endfacet
facet normal 0 0 -1
outer loop
vertex 7749.3 11815.960000000001 599.95
vertex 7091.76 11778.390000000001 599.95
vertex 7082.27 11815.960000000001 599.95
endloop
endfacet
facet normal 0 0 -1
outer loop
vertex 7896.59 11778.390000000001 599.95
vertex 7496.1900000000005 11778.390000000001 599.95
vertex 7895.68 11798.02 599.95
endloop
endfacet
facet normal 0 0 -1
outer loop
vertex 7494.63 11778.26 599.95
vertex 7496.1900000000005 11778.390000000001 599.95
vertex 7896.59 11778.390000000001 599.95
endloop
endfacet
facet normal 0 0 -1
outer loop
vertex 7494.63 11778.26 599.95
vertex 7896.59 11778.390000000001 599.95
vertex 7896.59 11778 599.95
endloop
endfacet
facet normal 0 0 -1
outer loop
vertex 7494.63 11778.26 599.95
vertex 7896.59 11778 599.95
vertex 7091.89 11778 599.95
endloop
endfacet
facet normal 0 0 -1
outer loop
vertex 7494.63 11778.26 599.95
vertex 7091.89 11778 599.95
vertex 7091.76 11778.390000000001 599.95
endloop
endfacet
facet normal 0 0 -1
outer loop
vertex 7494.63 11778.26 599.95
vertex 7091.76 11778.390000000001 599.95
vertex 7496.1900000000005 11778.390000000001 599.95
endloop
endfacet
facet normal 0 0 -1
outer loop
vertex 7896.59 11778 599.95
vertex 7898.54 11739.130000000001 599.95
vertex 7097.610000000001 11739.130000000001 599.95
endloop
endfacet
facet normal 0 0 -1
outer loop
vertex 7896.59 11778 599.95
vertex 7097.610000000001 11739.130000000001 599.95
vertex 7091.89 11778 599.95
endloop
endfacet
facet normal 0 0 -1
outer loop
vertex 7499.05 11719.630000000001 599.95
vertex 7898.54 11739.130000000001 599.95
vertex 7899.58 11719.630000000001 599.95
endloop
endfacet
facet normal 0 0 -1
outer loop
vertex 7499.05 11719.630000000001 599.95
vertex 7899.58 11719.630000000001 599.95
vertex 7499.96 11700 599.95
endloop
endfacet
facet normal 0 0 -1
outer loop
vertex 7499.05 11719.630000000001 599.95
vertex 7499.96 11700 599.95
vertex 7099.56 11700 599.95
endloop
endfacet
facet normal 0 0 -1
outer loop
vertex 7499.05 11719.630000000001 599.95
vertex 7099.56 11700 599.95
vertex 7097.610000000001 11739.130000000001 599.95
endloop
endfacet
facet normal 0 0 -0.9999999999999999
outer loop
vertex 7499.05 11719.630000000001 599.95
vertex 7097.610000000001 11739.130000000001 599.95
vertex 7898.54 11739.130000000001 599.95
endloop
endfacet
facet normal 0 0 -0.9999999999999999
outer loop
vertex 7499.83 11696.1 599.95
vertex 7499.96 11700 599.95
vertex 7899.97 11700 599.95
endloop
endfacet
facet normal 0 0 -0.9999999999999999
outer loop
vertex 7499.83 11696.1 599.95
vertex 7899.97 11700 599.95
vertex 7899.97 11690.12 599.95
endloop
endfacet
facet normal 0 0 -1
outer loop
vertex 7499.83 11696.1 599.95
vertex 7899.97 11690.12 599.95
vertex 7099.95 11690.12 599.95
endloop
endfacet
facet normal 0 0 -1
outer loop
vertex 7499.83 11696.1 599.95
vertex 7099.95 11690.12 599.95
vertex 7099.56 11700 599.95
endloop
endfacet
facet normal 0 0 -1
outer loop
vertex 7499.83 11696.1 599.95
vertex 7099.56 11700 599.95
vertex 7499.96 11700 599.95
endloop
endfacet
facet normal 0 0 -1
outer loop
vertex 7899.97 11690.12 599.95
vertex 7899.97 7499.96 599.95
vertex 7099.95 7499.96 599.95
endloop
endfacet
facet normal 0 0 -1
outer loop
vertex 7899.97 11690.12 599.95
vertex 7099.95 7499.96 599.95
vertex 7099.95 11690.12 599.95
endloop
endfacet
facet normal -0.04960772081449735 -0.9987687790653005 0
outer loop
vertex 6798.09 12895.61 199.94
vertex 6798.09 12895.61 599.95
vertex 6719.570000000001 12899.51 599.95
endloop
endfacet
facet normal -0.04960772081449735 -0.9987687790653005 0
outer loop
vertex 6798.09 12895.61 199.94
vertex 6719.570000000001 12899.51 599.95
vertex 6719.570000000001 12899.51 199.94
endloop
endfacet
facet normal -0.9987949274564988 0.04907843607091839 0
outer loop
vertex 6778.46 12496.12 599.95
vertex 6798.09 12895.61 599.95
vertex 6798.09 12895.61 199.94
endloop
endfacet
facet normal -0.9987949274564988 0.04907843607091839 0
outer loop
vertex 6778.46 12496.12 599.95
vertex 6798.09 12895.61 199.94
vertex 6778.46 12496.12 199.94
endloop
endfacet
facet normal -0.14744924045663618 -0.9890696241866702 0
outer loop
vertex 6914.7 12880.27 199.94
vertex 6914.7 12880.27 599.95
vertex 6837.09 12891.84 599.95
endloop
endfacet
facet normal -0.14744924045663618 -0.9890696241866702 0
outer loop
vertex 6914.7 12880.27 199.94
vertex 6837.09 12891.84 599.95
vertex 6837.09 12891.84 199.94
endloop
endfacet
facet normal 0.9892017174906724 -0.14656043843242275 0
outer loop
vertex 6778.46 12496.12 199.94
vertex 6837.09 12891.84 199.94
vertex 6837.09 12891.84 599.95
endloop
endfacet
facet normal 0.9892017174906724 -0.14656043843242275 0
outer loop
vertex 6778.46 12496.12 199.94
vertex 6837.09 12891.84 599.95
vertex 6778.46 12496.12 599.95
endloop
endfacet
facet normal -0.9891947338292668 0.14660756653203846 0
outer loop
vertex 6856.070000000001 12484.68 599.95
vertex 6914.7 12880.27 599.95
vertex 6914.7 12880.27 199.94
endloop
endfacet
facet normal -0.9891947338292668 0.14660756653203846 0
outer loop
vertex 6856.070000000001 12484.68 599.95
vertex 6914.7 12880.27 199.94
vertex 6856.070000000001 12484.68 199.94
endloop
endfacet
facet normal 0.14606739668023597 0.9892746411523234 0
outer loop
vertex 6739.2 12097.54 599.95
vertex 6777.9400000000005 12091.82 599.95
vertex 6777.9400000000005 12091.82 199.94
endloop
endfacet
facet normal 0.14606739668023597 0.9892746411523234 0
outer loop
vertex 6739.2 12097.54 599.95
vertex 6777.9400000000005 12091.82 199.94
vertex 6739.2 12097.54 199.94
endloop
endfacet
facet normal -0.24214536308864174 -0.9702399822387603 0
outer loop
vertex 7029.360000000001 12853.62 199.94
vertex 7029.360000000001 12853.62 599.95
vertex 6953.31 12872.6 599.95
endloop
endfacet
facet normal -0.24214536308864174 -0.9702399822387603 0
outer loop
vertex 7029.360000000001 12853.62 199.94
vertex 6953.31 12872.6 599.95
vertex 6953.31 12872.6 199.94
endloop
endfacet
facet normal -0.9700851224391549 0.24276502059030183 0
outer loop
vertex 6932.25 12465.57 599.95
vertex 7029.360000000001 12853.62 599.95
vertex 7029.360000000001 12853.62 199.94
endloop
endfacet
facet normal -0.9700851224391549 0.24276502059030183 0
outer loop
vertex 6932.25 12465.57 599.95
vertex 7029.360000000001 12853.62 199.94
vertex 6932.25 12465.57 199.94
endloop
endfacet
facet normal -0.33748895529084766 -0.9413294880416166 0
outer loop
vertex 7140.900000000001 12815.66 199.94
vertex 7140.900000000001 12815.66 599.95
vertex 7066.93 12842.18 599.95
endloop
endfacet
facet normal -0.33748895529084766 -0.9413294880416166 0
outer loop
vertex 7140.900000000001 12815.66 199.94
vertex 7066.93 12842.18 599.95
vertex 7066.93 12842.18 199.94
endloop
endfacet
facet normal 0.9416021130143954 -0.336727576487026 0
outer loop
vertex 6932.25 12465.57 199.94
vertex 7066.93 12842.18 199.94
vertex 7066.93 12842.18 599.95
endloop
endfacet
facet normal 0.9416021130143954 -0.336727576487026 0
outer loop
vertex 6932.25 12465.57 199.94
vertex 7066.93 12842.18 599.95
vertex 6932.25 12465.57 599.95
endloop
endfacet
facet normal 0.9699893361473274 -0.24314746093773432 0
outer loop
vertex 6856.070000000001 12484.68 199.94
vertex 6953.31 12872.6 199.94
vertex 6953.31 12872.6 599.95
endloop
endfacet
facet normal 0.9699893361473274 -0.24314746093773432 0
outer loop
vertex 6856.070000000001 12484.68 199.94
vertex 6953.31 12872.6 599.95
vertex 6856.070000000001 12484.68 599.95
endloop
endfacet
facet normal 0.24175631612787732 0.9703369948694515 0
outer loop
vertex 6816.030000000001 12082.33 599.95
vertex 6816.030000000001 12082.33 199.94
vertex 6777.9400000000005 12091.82 199.94
endloop
endfacet
facet normal 0.24175631612787732 0.9703369948694515 0
outer loop
vertex 6816.030000000001 12082.33 599.95
vertex 6777.9400000000005 12091.82 199.94
vertex 6777.9400000000005 12091.82 599.95
endloop
endfacet
facet normal 0.3380152922565208 0.9411406176553739 0
outer loop
vertex 6852.95 12069.07 599.95
vertex 6852.95 12069.07 199.94
vertex 6816.030000000001 12082.33 199.94
endloop
endfacet
facet normal 0.3380152922565208 0.9411406176553739 0
outer loop
vertex 6852.95 12069.07 599.95
vertex 6816.030000000001 12082.33 199.94
vertex 6816.030000000001 12082.33 599.95
endloop
endfacet
facet normal -0.9414990261654579 0.33701570249692303 0
outer loop
vertex 7006.09 12439.050000000001 599.95
vertex 7140.900000000001 12815.66 599.95
vertex 7140.900000000001 12815.66 199.94
endloop
endfacet
facet normal -0.9414990261654579 0.33701570249692303 0
outer loop
vertex 7006.09 12439.050000000001 599.95
vertex 7140.900000000001 12815.66 199.94
vertex 7006.09 12439.050000000001 199.94
endloop
endfacet
facet normal -0.42723195934745284 -0.9041420535027316 0
outer loop
vertex 7248.150000000001 12767.17 199.94
vertex 7248.150000000001 12767.17 599.95
vertex 7177.17 12800.710000000001 599.95
endloop
endfacet
facet normal -0.42723195934745284 -0.9041420535027316 0
outer loop
vertex 7248.150000000001 12767.17 199.94
vertex 7177.17 12800.710000000001 599.95
vertex 7177.17 12800.710000000001 199.94
endloop
endfacet
facet normal -0.9039626674982988 0.42761138405023774 0
outer loop
vertex 7077.070000000001 12405.51 599.95
vertex 7248.150000000001 12767.17 599.95
vertex 7248.150000000001 12767.17 199.94
endloop
endfacet
facet normal -0.9039626674982988 0.42761138405023774 0
outer loop
vertex 7077.070000000001 12405.51 599.95
vertex 7248.150000000001 12767.17 199.94
vertex 7077.070000000001 12405.51 199.94
endloop
endfacet
facet normal -0.5135210000878441 -0.8580770259532535 0
outer loop
vertex 7350.070000000001 12708.28 199.94
vertex 7350.070000000001 12708.28 599.95
vertex 7282.7300000000005 12748.58 599.95
endloop
endfacet
facet normal -0.5135210000878441 -0.8580770259532535 0
outer loop
vertex 7350.070000000001 12708.28 199.94
vertex 7282.7300000000005 12748.58 599.95
vertex 7282.7300000000005 12748.58 199.94
endloop
endfacet
facet normal 0.8576936000914881 -0.5141611501874703 0
outer loop
vertex 7077.070000000001 12405.51 199.94
vertex 7282.7300000000005 12748.58 199.94
vertex 7282.7300000000005 12748.58 599.95
endloop
endfacet
facet normal 0.8576936000914881 -0.5141611501874703 0
outer loop
vertex 7077.070000000001 12405.51 199.94
vertex 7282.7300000000005 12748.58 599.95
vertex 7077.070000000001 12405.51 599.95
endloop
endfacet
facet normal -0.8576936000914871 0.514161150187472 0
outer loop
vertex 7144.41 12365.210000000001 599.95
vertex 7350.070000000001 12708.28 599.95
vertex 7350.070000000001 12708.28 199.94
endloop
endfacet
facet normal -0.8576936000914871 0.514161150187472 0
outer loop
vertex 7144.41 12365.210000000001 599.95
vertex 7350.070000000001 12708.28 199.94
vertex 7144.41 12365.210000000001 199.94
endloop
endfacet
facet normal 0.5135210000878782 0.8580770259532331 0
outer loop
vertex 6888.31 12052.300000000001 599.95
vertex 6921.9800000000005 12032.15 599.95
vertex 6921.9800000000005 12032.15 199.94
endloop
endfacet
facet normal 0.5135210000878782 0.8580770259532331 0
outer loop
vertex 6888.31 12052.300000000001 599.95
vertex 6921.9800000000005 12032.15 199.94
vertex 6888.31 12052.300000000001 199.94
endloop
endfacet
facet normal -0.5960191382242471 -0.8029702278854589 0
outer loop
vertex 7445.75 12639.640000000001 199.94
vertex 7445.75 12639.640000000001 599.95
vertex 7382.7 12686.44 599.95
endloop
endfacet
facet normal -0.5960191382242471 -0.8029702278854589 0
outer loop
vertex 7445.75 12639.640000000001 199.94
vertex 7382.7 12686.44 599.95
vertex 7382.7 12686.44 199.94
endloop
endfacet
facet normal -0.8031481977446024 0.5957792984483407 0
outer loop
vertex 7207.46 12318.41 599.95
vertex 7445.75 12639.640000000001 599.95
vertex 7445.75 12639.640000000001 199.94
endloop
endfacet
facet normal -0.8031481977446024 0.5957792984483407 0
outer loop
vertex 7207.46 12318.41 599.95
vertex 7445.75 12639.640000000001 199.94
vertex 7207.46 12318.41 199.94
endloop
endfacet
facet normal -0.6723430224175001 -0.7402397315778863 0
outer loop
vertex 7534.280000000001 12562.03 199.94
vertex 7534.280000000001 12562.03 599.95
vertex 7476.17 12614.810000000001 599.95
endloop
endfacet
facet normal -0.6723430224175001 -0.7402397315778863 0
outer loop
vertex 7534.280000000001 12562.03 199.94
vertex 7476.17 12614.810000000001 599.95
vertex 7476.17 12614.810000000001 199.94
endloop
endfacet
facet normal 0.7408656744772613 -0.6716532233089876 0
outer loop
vertex 7207.46 12318.41 199.94
vertex 7476.17 12614.810000000001 199.94
vertex 7476.17 12614.810000000001 599.95
endloop
endfacet
facet normal 0.7408656744772613 -0.6716532233089876 0
outer loop
vertex 7207.46 12318.41 199.94
vertex 7476.17 12614.810000000001 599.95
vertex 7207.46 12318.41 599.95
endloop
endfacet
facet normal 0.8031481977446008 -0.5957792984483428 0
outer loop
vertex 7144.41 12365.210000000001 199.94
vertex 7382.7 12686.44 199.94
vertex 7382.7 12686.44 599.95
endloop
endfacet
facet normal 0.8031481977446008 -0.5957792984483428 0
outer loop
vertex 7144.41 12365.210000000001 199.94
vertex 7382.7 12686.44 599.95
vertex 7144.41 12365.210000000001 599.95
endloop
endfacet
facet normal 0.5946712582709718 0.8039689636959995 0
outer loop
vertex 6953.4400000000005 12008.880000000001 599.95
vertex 6953.4400000000005 12008.880000000001 199.94
vertex 6921.9800000000005 12032.15 199.94
endloop
endfacet
facet normal 0.5946712582709718 0.8039689636959995 0
outer loop
vertex 6953.4400000000005 12008.880000000001 599.95
vertex 6921.9800000000005 12032.15 199.94
vertex 6921.9800000000005 12032.15 599.95
endloop
endfacet
facet normal 0.42851467604526366 0.9035348208087074 0
outer loop
vertex 6888.31 12052.300000000001 599.95
vertex 6888.31 12052.300000000001 199.94
vertex 6852.95 12069.07 199.94
endloop
endfacet
facet normal 0.42851467604526366 0.9035348208087074 0
outer loop
vertex 6888.31 12052.300000000001 599.95
vertex 6852.95 12069.07 199.94
vertex 6852.95 12069.07 599.95
endloop
endfacet
facet normal 0.9039626674982988 -0.42761138405023774 0
outer loop
vertex 7006.09 12439.050000000001 199.94
vertex 7177.17 12800.710000000001 199.94
vertex 7177.17 12800.710000000001 599.95
endloop
endfacet
facet normal 0.9039626674982988 -0.42761138405023774 0
outer loop
vertex 7006.09 12439.050000000001 199.94
vertex 7177.17 12800.710000000001 599.95
vertex 7006.09 12439.050000000001 599.95
endloop
endfacet
facet normal -0.741027380541273 0.6714748106132793 0
outer loop
vertex 7265.7 12265.630000000001 599.95
vertex 7534.280000000001 12562.03 599.95
vertex 7534.280000000001 12562.03 199.94
endloop
endfacet
facet normal -0.741027380541273 0.6714748106132793 0
outer loop
vertex 7265.7 12265.630000000001 599.95
vertex 7534.280000000001 12562.03 199.94
vertex 7265.7 12265.630000000001 199.94
endloop
endfacet
facet normal 0.6715194247388779 0.7409869514359657 0
outer loop
vertex 6953.4400000000005 12008.880000000001 599.95
vertex 6982.56 11982.49 599.95
vertex 6982.56 11982.49 199.94
endloop
endfacet
facet normal 0.6715194247388779 0.7409869514359657 0
outer loop
vertex 6953.4400000000005 12008.880000000001 599.95
vertex 6982.56 11982.49 199.94
vertex 6953.4400000000005 12008.880000000001 199.94
endloop
endfacet
facet normal -0.7418103116985612 -0.6706097683882061 0
outer loop
vertex 7614.75 12476.1 199.94
vertex 7614.75 12476.1 599.95
vertex 7562.1 12534.34 599.95
endloop
endfacet
facet normal -0.7418103116985612 -0.6706097683882061 0
outer loop
vertex 7614.75 12476.1 199.94
vertex 7562.1 12534.34 599.95
vertex 7562.1 12534.34 199.94
endloop
endfacet
facet normal -0.6714748106132781 0.7410273805412741 0
outer loop
vertex 7318.35 12207.52 599.95
vertex 7614.75 12476.1 599.95
vertex 7614.75 12476.1 199.94
endloop
endfacet
facet normal -0.6714748106132781 0.7410273805412741 0
outer loop
vertex 7318.35 12207.52 599.95
vertex 7614.75 12476.1 199.94
vertex 7318.35 12207.52 199.94
endloop
endfacet
facet normal -0.8029702278854575 -0.596019138224249 0
outer loop
vertex 7686.51 12382.76 199.94
vertex 7686.51 12382.76 599.95
vertex 7639.71 12445.810000000001 599.95
endloop
endfacet
facet normal -0.8029702278854575 -0.596019138224249 0
outer loop
vertex 7686.51 12382.76 199.94
vertex 7639.71 12445.810000000001 599.95
vertex 7639.71 12445.810000000001 199.94
endloop
endfacet
facet normal 0.5956238015035605 -0.8032635228133087 0
outer loop
vertex 7318.35 12207.52 199.94
vertex 7639.71 12445.810000000001 199.94
vertex 7639.71 12445.810000000001 599.95
endloop
endfacet
facet normal 0.5956238015035605 -0.8032635228133087 0
outer loop
vertex 7318.35 12207.52 199.94
vertex 7639.71 12445.810000000001 599.95
vertex 7318.35 12207.52 599.95
endloop
endfacet
facet normal -0.5956238015035576 0.8032635228133109 0
outer loop
vertex 7365.150000000001 12144.470000000001 599.95
vertex 7686.51 12382.76 599.95
vertex 7686.51 12382.76 199.94
endloop
endfacet
facet normal -0.5956238015035576 0.8032635228133109 0
outer loop
vertex 7365.150000000001 12144.470000000001 599.95
vertex 7686.51 12382.76 199.94
vertex 7365.150000000001 12144.470000000001 199.94
endloop
endfacet
facet normal 0.8035571933447515 0.5952275506257299 0
outer loop
vertex 7008.820000000001 11953.5 599.95
vertex 7032.22 11921.91 599.95
vertex 7032.22 11921.91 199.94
endloop
endfacet
facet normal 0.8035571933447515 0.5952275506257299 0
outer loop
vertex 7008.820000000001 11953.5 599.95
vertex 7032.22 11921.91 199.94
vertex 7008.820000000001 11953.5 199.94
endloop
endfacet
facet normal -0.8573468520724791 -0.5147391331940971 0
outer loop
vertex 7748.650000000001 12282.79 199.94
vertex 7748.650000000001 12282.79 599.95
vertex 7708.22 12350.130000000001 599.95
endloop
endfacet
facet normal -0.8573468520724791 -0.5147391331940971 0
outer loop
vertex 7748.650000000001 12282.79 199.94
vertex 7708.22 12350.130000000001 599.95
vertex 7708.22 12350.130000000001 199.94
endloop
endfacet
facet normal -0.5141611501874694 0.8576936000914888 0
outer loop
vertex 7405.58 12077.130000000001 599.95
vertex 7748.650000000001 12282.79 599.95
vertex 7748.650000000001 12282.79 199.94
endloop
endfacet
facet normal -0.5141611501874694 0.8576936000914888 0
outer loop
vertex 7405.58 12077.130000000001 599.95
vertex 7748.650000000001 12282.79 199.94
vertex 7405.58 12077.130000000001 199.94
endloop
endfacet
facet normal -0.9038391198113608 -0.4278724640574856 0
outer loop
vertex 7800.650000000001 12177.23 199.94
vertex 7800.650000000001 12177.23 599.95
vertex 7767.110000000001 12248.08 599.95
endloop
endfacet
facet normal -0.9038391198113608 -0.4278724640574856 0
outer loop
vertex 7800.650000000001 12177.23 199.94
vertex 7767.110000000001 12248.08 599.95
vertex 7767.110000000001 12248.08 199.94
endloop
endfacet
facet normal 0.42747140112900894 -0.9040288718933714 0
outer loop
vertex 7405.58 12077.130000000001 199.94
vertex 7767.110000000001 12248.08 199.94
vertex 7767.110000000001 12248.08 599.95
endloop
endfacet
facet normal 0.42747140112900894 -0.9040288718933714 0
outer loop
vertex 7405.58 12077.130000000001 199.94
vertex 7767.110000000001 12248.08 599.95
vertex 7405.58 12077.130000000001 599.95
endloop
endfacet
facet normal 0.5141611501874703 -0.8576936000914881 0
outer loop
vertex 7365.150000000001 12144.470000000001 199.94
vertex 7708.22 12350.130000000001 199.94
vertex 7708.22 12350.130000000001 599.95
endloop
endfacet
facet normal 0.5141611501874703 -0.8576936000914881 0
outer loop
vertex 7365.150000000001 12144.470000000001 199.94
vertex 7708.22 12350.130000000001 599.95
vertex 7365.150000000001 12144.470000000001 599.95
endloop
endfacet
facet normal 0.8571996265832966 0.5149842717845439 0
outer loop
vertex 7052.37 11888.37 599.95
vertex 7052.37 11888.37 199.94
vertex 7032.22 11921.91 199.94
endloop
endfacet
facet normal 0.8571996265832966 0.5149842717845439 0
outer loop
vertex 7052.37 11888.37 599.95
vertex 7032.22 11921.91 199.94
vertex 7032.22 11921.91 599.95
endloop
endfacet
facet normal 0.9041420535027294 0.4272319593474573 0
outer loop
vertex 7069.14 11852.880000000001 599.95
vertex 7069.14 11852.880000000001 199.94
vertex 7052.37 11888.37 199.94
endloop
endfacet
facet normal 0.9041420535027294 0.4272319593474573 0
outer loop
vertex 7069.14 11852.880000000001 599.95
vertex 7052.37 11888.37 199.94
vertex 7052.37 11888.37 599.95
endloop
endfacet
facet normal -0.42773701782967943 0.9039032268877971 0
outer loop
vertex 7439.12 12006.15 599.95
vertex 7800.650000000001 12177.23 599.95
vertex 7800.650000000001 12177.23 199.94
endloop
endfacet
facet normal -0.42773701782967943 0.9039032268877971 0
outer loop
vertex 7439.12 12006.15 599.95
vertex 7800.650000000001 12177.23 199.94
vertex 7439.12 12006.15 199.94
endloop
endfacet
facet normal -0.9418542083621971 -0.3360218001713863 0
outer loop
vertex 7842.12 12066.99 199.94
vertex 7842.12 12066.99 599.95
vertex 7815.7300000000005 12140.960000000001 599.95
endloop
endfacet
facet normal -0.9418542083621971 -0.3360218001713863 0
outer loop
vertex 7842.12 12066.99 199.94
vertex 7815.7300000000005 12140.960000000001 599.95
vertex 7815.7300000000005 12140.960000000001 199.94
endloop
endfacet
facet normal -0.33701570249692026 0.9414990261654589 0
outer loop
vertex 7465.51 11932.18 599.95
vertex 7842.12 12066.99 599.95
vertex 7842.12 12066.99 199.94
endloop
endfacet
facet normal -0.33701570249692026 0.9414990261654589 0
outer loop
vertex 7465.51 11932.18 599.95
vertex 7842.12 12066.99 199.94
vertex 7465.51 11932.18 199.94
endloop
endfacet
facet normal -0.9699474579889882 -0.2433144647173691 0
outer loop
vertex 7872.67 11953.24 199.94
vertex 7872.67 11953.24 599.95
vertex 7853.56 12029.42 599.95
endloop
endfacet
facet normal -0.9699474579889882 -0.2433144647173691 0
outer loop
vertex 7872.67 11953.24 199.94
vertex 7853.56 12029.42 599.95
vertex 7853.56 12029.42 199.94
endloop
endfacet
facet normal 0.24307081798568755 -0.9700085450364696 0
outer loop
vertex 7465.51 11932.18 199.94
vertex 7853.56 12029.42 199.94
vertex 7853.56 12029.42 599.95
endloop
endfacet
facet normal 0.24307081798568755 -0.9700085450364696 0
outer loop
vertex 7465.51 11932.18 199.94
vertex 7853.56 12029.42 599.95
vertex 7465.51 11932.18 599.95
endloop
endfacet
facet normal -0.24276502059029814 0.970085122439156 0
outer loop
vertex 7484.62 11856.130000000001 599.95
vertex 7872.67 11953.24 599.95
vertex 7872.67 11953.24 199.94
endloop
endfacet
facet normal -0.24276502059029814 0.970085122439156 0
outer loop
vertex 7484.62 11856.130000000001 599.95
vertex 7872.67 11953.24 199.94
vertex 7484.62 11856.130000000001 199.94
endloop
endfacet
facet normal 0.9693563597868465 0.24565880350761657 0
outer loop
vertex 7082.27 11815.960000000001 599.95
vertex 7091.89 11778 599.95
vertex 7091.89 11778 199.94
endloop
endfacet
facet normal 0.9693563597868465 0.24565880350761657 0
outer loop
vertex 7082.27 11815.960000000001 599.95
vertex 7091.89 11778 199.94
vertex 7082.27 11815.960000000001 199.94
endloop
endfacet
facet normal -0.9893099682942441 -0.14582793502495262 0
outer loop
vertex 7891.780000000001 11837.15 199.94
vertex 7891.780000000001 11837.15 599.95
vertex 7880.34 11914.76 599.95
endloop
endfacet
facet normal -0.9893099682942441 -0.14582793502495262 0
outer loop
vertex 7891.780000000001 11837.15 199.94
vertex 7880.34 11914.76 599.95
vertex 7880.34 11914.76 199.94
endloop
endfacet
facet normal -0.1469256289575769 0.9891475418538028 0
outer loop
vertex 7496.1900000000005 11778.390000000001 599.95
vertex 7891.780000000001 11837.15 599.95
vertex 7891.780000000001 11837.15 199.94
endloop
endfacet
facet normal -0.1469256289575769 0.9891475418538028 0
outer loop
vertex 7496.1900000000005 11778.390000000001 599.95
vertex 7891.780000000001 11837.15 199.94
vertex 7496.1900000000005 11778.390000000001 199.94
endloop
endfacet
facet normal -0.9987646995976289 -0.049689786049629016 0
outer loop
vertex 7899.58 11719.630000000001 199.94
vertex 7899.58 11719.630000000001 599.95
vertex 7895.68 11798.02 599.95
endloop
endfacet
facet normal -0.9987646995976289 -0.049689786049629016 0
outer loop
vertex 7899.58 11719.630000000001 199.94
vertex 7895.68 11798.02 599.95
vertex 7895.68 11798.02 199.94
endloop
endfacet
facet normal 0.04907843607091613 -0.998794927456499 0
outer loop
vertex 7496.1900000000005 11778.390000000001 199.94
vertex 7895.68 11798.02 199.94
vertex 7895.68 11798.02 599.95
endloop
endfacet
facet normal 0.04907843607091613 -0.998794927456499 0
outer loop
vertex 7496.1900000000005 11778.390000000001 199.94
vertex 7895.68 11798.02 599.95
vertex 7496.1900000000005 11778.390000000001 599.95
endloop
endfacet
facet normal 0.14656043843242017 -0.9892017174906728 0
outer loop
vertex 7484.62 11856.130000000001 199.94
vertex 7880.34 11914.76 199.94
vertex 7880.34 11914.76 599.95
endloop
endfacet
facet normal 0.14656043843242017 -0.9892017174906728 0
outer loop
vertex 7484.62 11856.130000000001 199.94
vertex 7880.34 11914.76 599.95
vertex 7484.62 11856.130000000001 599.95
endloop
endfacet
facet normal 0.9893451221143915 0.14558924873925186 0
outer loop
vertex 7097.610000000001 11739.130000000001 599.95
vertex 7097.610000000001 11739.130000000001 199.94
vertex 7091.89 11778 199.94
endloop
endfacet
facet normal 0.9893451221143915 0.14558924873925186 0
outer loop
vertex 7097.610000000001 11739.130000000001 599.95
vertex 7091.89 11778 199.94
vertex 7091.89 11778 599.95
endloop
endfacet
facet normal 0.9421914169815763 0.335075116602605 0
outer loop
vertex 7082.27 11815.960000000001 599.95
vertex 7082.27 11815.960000000001 199.94
vertex 7069.14 11852.880000000001 199.94
endloop
endfacet
facet normal 0.9421914169815763 0.335075116602605 0
outer loop
vertex 7082.27 11815.960000000001 599.95
vertex 7069.14 11852.880000000001 199.94
vertex 7069.14 11852.880000000001 599.95
endloop
endfacet
facet normal 0.33701570249692353 -0.9414990261654576 0
outer loop
vertex 7439.12 12006.15 199.94
vertex 7815.7300000000005 12140.960000000001 199.94
vertex 7815.7300000000005 12140.960000000001 599.95
endloop
endfacet
facet normal 0.33701570249692353 -0.9414990261654576 0
outer loop
vertex 7439.12 12006.15 199.94
vertex 7815.7300000000005 12140.960000000001 599.95
vertex 7439.12 12006.15 599.95
endloop
endfacet
facet normal 0.6716532233089875 -0.7408656744772613 0
outer loop
vertex 7265.7 12265.630000000001 199.94
vertex 7562.1 12534.34 199.94
vertex 7562.1 12534.34 599.95
endloop
endfacet
facet normal 0.6716532233089875 -0.7408656744772613 0
outer loop
vertex 7265.7 12265.630000000001 199.94
vertex 7562.1 12534.34 599.95
vertex 7265.7 12265.630000000001 599.95
endloop
endfacet
facet normal 0.7411419692600973 0.6713483308992917 0
outer loop
vertex 7008.820000000001 11953.5 599.95
vertex 7008.820000000001 11953.5 199.94
vertex 6982.56 11982.49 199.94
endloop
endfacet
facet normal 0.7411419692600973 0.6713483308992917 0
outer loop
vertex 7008.820000000001 11953.5 599.95
vertex 6982.56 11982.49 199.94
vertex 6982.56 11982.49 599.95
endloop
endfacet
facet normal 0.9987949274564988 -0.04907843607091839 0
outer loop
vertex 6699.9400000000005 12500.02 199.94
vertex 6719.570000000001 12899.51 199.94
vertex 6719.570000000001 12899.51 599.95
endloop
endfacet
facet normal 0.9987949274564988 -0.04907843607091839 0
outer loop
vertex 6699.9400000000005 12500.02 199.94
vertex 6719.570000000001 12899.51 599.95
vertex 6699.9400000000005 12500.02 599.95
endloop
endfacet
facet normal 0.05033399570455689 0.9987324410854058 0
outer loop
vertex 6739.2 12097.54 599.95
vertex 6739.2 12097.54 199.94
vertex 6690.1900000000005 12100.01 199.94
endloop
endfacet
facet normal 0.05033399570455689 0.9987324410854058 0
outer loop
vertex 6739.2 12097.54 599.95
vertex 6690.1900000000005 12100.01 199.94
vertex 6690.1900000000005 12100.01 599.95
endloop
endfacet
facet normal -1 0 0
outer loop
vertex 6699.9400000000005 12500.02 599.95
vertex 6699.9400000000005 12900.03 599.95
vertex 6699.9400000000005 12900.03 199.94
endloop
endfacet
facet normal -1 0 0
outer loop
vertex 6699.9400000000005 12500.02 599.95
vertex 6699.9400000000005 12900.03 199.94
vertex 6699.9400000000005 12500.02 199.94
endloop
endfacet
facet normal 0 1 0
outer loop
vertex 2500.03 12100.01 599.95
vertex 6690.1900000000005 12100.01 599.95
vertex 6690.1900000000005 12100.01 199.94
endloop
endfacet
facet normal 0 1 0
outer loop
vertex 2500.03 12100.01 599.95
vertex 6690.1900000000005 12100.01 199.94
vertex 2500.03 12100.01 199.94
endloop
endfacet
facet normal 0 1 0
outer loop
vertex 7099.95 7499.96 599.95
vertex 7899.97 7499.96 599.95
vertex 7899.97 7499.96 199.94
endloop
endfacet
facet normal 0 1 0
outer loop
vertex 7099.95 7499.96 599.95
vertex 7899.97 7499.96 199.94
vertex 7099.95 7499.96 199.94
endloop
endfacet
facet normal -1 0 0
outer loop
vertex 7899.97 10296.65 400.01
vertex 7899.97 11690.12 199.94
vertex 7899.97 7499.96 199.94
endloop
endfacet
facet normal -1 0 0
outer loop
vertex 7899.97 10296.65 400.01
vertex 7899.97 7499.96 199.94
vertex 7899.97 7499.96 599.95
endloop
endfacet
facet normal -1 0 0
outer loop
vertex 7899.97 10296.65 400.01
vertex 7899.97 7499.96 599.95
vertex 7899.97 11690.12 599.95
endloop
endfacet
facet normal -1 0 0
outer loop
vertex 7899.97 10296.65 400.01
vertex 7899.97 11690.12 599.95
vertex 7899.97 11700 599.95
endloop
endfacet
facet normal -1 0 0
outer loop
vertex 7899.97 10296.65 400.01
vertex 7899.97 11700 599.95
vertex 7899.97 11700 199.94
endloop
endfacet
facet normal -1 0 0
outer loop
vertex 7899.97 10296.65 400.01
vertex 7899.97 11700 199.94
vertex 7899.97 11690.12 199.94
endloop
endfacet
facet normal 0 -1 0
outer loop
vertex 7499.96 11700 199.94
vertex 7899.97 11700 199.94
vertex 7899.97 11700 599.95
endloop
endfacet
facet normal 0 -1 0
outer loop
vertex 7499.96 11700 199.94
vertex 7899.97 11700 599.95
vertex 7499.96 11700 599.95
endloop
endfacet
facet normal 1 0 0
outer loop
vertex 7099.95 7499.96 599.95
vertex 7099.95 7499.96 199.94
vertex 7099.95 11690.12 199.94
endloop
endfacet
facet normal 1 0 0
outer loop
vertex 7099.95 7499.96 599.95
vertex 7099.95 11690.12 199.94
vertex 7099.95 11690.12 599.95
endloop
endfacet
facet normal -0.04906250884947288 0.9987957099554421 0
outer loop
vertex 7499.96 11700 599.95
vertex 7899.58 11719.630000000001 599.95
vertex 7899.58 11719.630000000001 199.94
endloop
endfacet
facet normal -0.04906250884947288 0.9987957099554421 0
outer loop
vertex 7499.96 11700 599.95
vertex 7899.58 11719.630000000001 199.94
vertex 7499.96 11700 199.94
endloop
endfacet
facet normal 0.9988621354447044 0.04769103033951918 0
outer loop
vertex 7097.610000000001 11739.130000000001 599.95
vertex 7099.95 11690.12 599.95
vertex 7099.95 11690.12 199.94
endloop
endfacet
facet normal 0.9988621354447044 0.04769103033951918 0
outer loop
vertex 7097.610000000001 11739.130000000001 599.95
vertex 7099.95 11690.12 199.94
vertex 7097.610000000001 11739.130000000001 199.94
endloop
endfacet
endsolid JSCAD
