solid JSCAD
facet normal -1 0 0
outer loop
vertex 0 0 0
vertex 0 0 3999.9700000000003
vertex 0 15000.050000000001 3999.9700000000003
endloop
endfacet
facet normal -1 0 0
outer loop
vertex 0 0 0
vertex 0 15000.050000000001 3999.9700000000003
vertex 0 15000.050000000001 0
endloop
endfacet
facet normal 1 0 0
outer loop
vertex 19999.98 0 0
vertex 19999.98 15000.050000000001 0
vertex 19999.98 15000.050000000001 3999.9700000000003
endloop
endfacet
facet normal 1 0 0
outer loop
vertex 19999.98 0 0
vertex 19999.98 15000.050000000001 3999.9700000000003
vertex 19999.98 0 3999.9700000000003
endloop
endfacet
facet normal 0 -1 0
outer loop
vertex 0 0 0
vertex 19999.98 0 0
vertex 19999.98 0 3999.9700000000003
endloop
endfacet
facet normal 0 -1 0
outer loop
vertex 0 0 0
vertex 19999.98 0 3999.9700000000003
vertex 0 0 3999.9700000000003
endloop
endfacet
facet normal 0 1 0
outer loop
vertex 0 15000.050000000001 0
vertex 0 15000.050000000001 3999.9700000000003
vertex 19999.98 15000.050000000001 3999.9700000000003
endloop
endfacet
facet normal 0 1 0
outer loop
vertex 0 15000.050000000001 0
vertex 19999.98 15000.050000000001 3999.9700000000003
vertex 19999.98 15000.050000000001 0
endloop
endfacet
facet normal 0 0 -1
outer loop
vertex 0 0 0
vertex 0 15000.050000000001 0
vertex 19999.98 15000.050000000001 0
endloop
endfacet
facet normal 0 0 -1
outer loop
vertex 0 0 0
vertex 19999.98 15000.050000000001 0
vertex 19999.98 0 0
endloop
endfacet
facet normal 0 0 1
outer loop
vertex 0 0 3999.9700000000003
vertex 19999.98 0 3999.9700000000003
vertex 19999.98 15000.050000000001 3999.9700000000003
endloop
endfacet
facet normal 0 0 1
outer loop
vertex 0 0 3999.9700000000003
vertex 19999.98 15000.050000000001 3999.9700000000003
vertex 0 15000.050000000001 3999.9700000000003
endloop
endfacet
facet normal 0.09068227320835523 -0.9958798749476592 0
outer loop
vertex 6199.18 11518.130000000001 199.94
vertex 6199.18 11518.130000000001 599.95
vertex 5800.860000000001 11481.86 599.95
endloop
endfacet
facet normal 0.09068227320835523 -0.9958798749476592 0
outer loop
vertex 6199.18 11518.130000000001 199.94
vertex 5800.860000000001 11481.86 599.95
vertex 5800.860000000001 11481.86 199.94
endloop
endfacet
facet normal -0.09035990568286373 0.9959091763032328 0
outer loop
vertex 5916.17 10213.45 599.95
vertex 6314.49 10249.59 599.95
vertex 6314.49 10249.59 199.94
endloop
endfacet
facet normal -0.09035990568286373 0.9959091763032328 0
outer loop
vertex 5916.17 10213.45 599.95
vertex 6314.49 10249.59 199.94
vertex 5916.17 10213.45 199.94
endloop
endfacet
facet normal 0.995893206467704 0.09053574604251814 0
outer loop
vertex 5916.17 10213.45 599.95
vertex 5916.17 10213.45 199.94
vertex 5800.860000000001 11481.86 199.94
endloop
endfacet
facet normal 0.995893206467704 0.09053574604251814 0
outer loop
vertex 5916.17 10213.45 599.95
vertex 5800.860000000001 11481.86 199.94
vertex 5800.860000000001 11481.86 599.95
endloop
endfacet
facet normal 0.9958881420507768 0.09059143735835025 0
outer loop
vertex 6300.84 5981.95 599.95
vertex 6300.84 5981.95 199.94
vertex 6186.4400000000005 7239.570000000001 199.94
endloop
endfacet
facet normal 0.9958881420507768 0.09059143735835025 0
outer loop
vertex 6300.84 5981.95 599.95
vertex 6186.4400000000005 7239.570000000001 199.94
vertex 6186.4400000000005 7239.570000000001 599.95
endloop
endfacet
facet normal -0.9958974244754467 -0.09048933596381167 0
outer loop
vertex 6584.89 7275.71 599.95
vertex 6584.89 7275.71 199.94
vertex 6699.16 6018.09 199.94
endloop
endfacet
facet normal -0.9958974244754467 -0.09048933596381167 0
outer loop
vertex 6584.89 7275.71 599.95
vertex 6699.16 6018.09 199.94
vertex 6699.16 6018.09 599.95
endloop
endfacet
facet normal -0.9958940429763202 -0.09052654397622376 0
outer loop
vertex 6199.18 11518.130000000001 599.95
vertex 6199.18 11518.130000000001 199.94
vertex 6314.49 10249.59 199.94
endloop
endfacet
facet normal -0.9958940429763202 -0.09052654397622376 0
outer loop
vertex 6199.18 11518.130000000001 599.95
vertex 6314.49 10249.59 199.94
vertex 6314.49 10249.59 599.95
endloop
endfacet
facet normal 0 0 0.9999999999999999
outer loop
vertex 5800.860000000001 11481.86 199.94
vertex 5916.17 10213.45 199.94
vertex 6314.49 10249.59 199.94
endloop
endfacet
facet normal 0 0 0.9999999999999999
outer loop
vertex 5800.860000000001 11481.86 199.94
vertex 6314.49 10249.59 199.94
vertex 6199.18 11518.130000000001 199.94
endloop
endfacet
facet normal 0 0 0.9999999999999999
outer loop
vertex 6186.4400000000005 7239.570000000001 199.94
vertex 6300.84 5981.95 199.94
vertex 6699.16 6018.09 199.94
endloop
endfacet
facet normal 0 0 1
outer loop
vertex 6186.4400000000005 7239.570000000001 199.94
vertex 6699.16 6018.09 199.94
vertex 6584.89 7275.71 199.94
endloop
endfacet
facet normal 0 0 -1
outer loop
vertex 6314.49 10249.59 599.95
vertex 5916.17 10213.45 599.95
vertex 5800.860000000001 11481.86 599.95
endloop
endfacet
facet normal 0 0 -0.9999999999999999
outer loop
vertex 6314.49 10249.59 599.95
vertex 5800.860000000001 11481.86 599.95
vertex 6199.18 11518.130000000001 599.95
endloop
endfacet
facet normal 0 0 -1
outer loop
vertex 6699.16 6018.09 599.95
vertex 6300.84 5981.95 599.95
vertex 6186.4400000000005 7239.570000000001 599.95
endloop
endfacet
facet normal 0 0 -1
outer loop
vertex 6699.16 6018.09 599.95
vertex 6186.4400000000005 7239.570000000001 599.95
vertex 6584.89 7275.71 599.95
endloop
endfacet
facet normal 0.0785175753297358 -0.9958810276906476 -0.04534279490899183
outer loop
vertex 6305.13 10058.62 149.11
vertex 6505.2 10058.62 495.56
vertex 6160.18 10022.35 694.72
endloop
endfacet
facet normal 0.07855235159398108 -0.9958787128500242 -0.04533340215817758
outer loop
vertex 6305.13 10058.62 149.11
vertex 6160.18 10022.35 694.72
vertex 5960.24 10022.35 348.27000000000004
endloop
endfacet
facet normal -0.07827310552388432 0.9959080224192581 0.0451722462648159
outer loop
vertex 6260.67 8746.66 636.74
vertex 6605.56 8782.800000000001 437.58000000000004
vertex 6405.62 8782.800000000001 91.13000000000001
endloop
endfacet
facet normal -0.0782384515952343 0.9959103208986502 0.0451816048799495
outer loop
vertex 6260.67 8746.66 636.74
vertex 6405.62 8782.800000000001 91.13000000000001
vertex 6060.6 8746.66 290.29
endloop
endfacet
facet normal 0.8624154035919394 0.09057064282669933 -0.49803276027316806
outer loop
vertex 6160.18 10022.35 694.72
vertex 6260.67 8746.66 636.74
vertex 6060.6 8746.66 290.29
endloop
endfacet
facet normal 0.8625623982044373 0.09048346972977775 -0.4977939844046633
outer loop
vertex 6160.18 10022.35 694.72
vertex 6060.6 8746.66 290.29
vertex 5960.24 10022.35 348.27000000000004
endloop
endfacet
facet normal -0.8625631177550988 -0.09047432536759224 0.4977943996650451
outer loop
vertex 6405.62 8782.800000000001 91.13000000000001
vertex 6605.56 8782.800000000001 437.58000000000004
vertex 6505.2 10058.62 495.56
endloop
endfacet
facet normal -0.8624161244068623 -0.0905614898003371 0.4980331765336432
outer loop
vertex 6405.62 8782.800000000001 91.13000000000001
vertex 6505.2 10058.62 495.56
vertex 6305.13 10058.62 149.11
endloop
endfacet
facet normal 0.49992817619235524 0.000018204347113999982 0.8660668671168451
outer loop
vertex 6060.6 8746.66 290.29
vertex 6405.62 8782.800000000001 91.13000000000001
vertex 6305.13 10058.62 149.11
endloop
endfacet
facet normal 0.5000723186635723 -0.0000176170668305161 0.8659836463791204
outer loop
vertex 6060.6 8746.66 290.29
vertex 6305.13 10058.62 149.11
vertex 5960.24 10022.35 348.27000000000004
endloop
endfacet
facet normal -0.5000723135845417 0.000017615804557162395 -0.8659836493120913
outer loop
vertex 6505.2 10058.62 495.56
vertex 6605.56 8782.800000000001 437.58000000000004
vertex 6260.67 8746.66 636.74
endloop
endfacet
facet normal -0.4999281709446203 -0.00001820565118375981 -0.8660668701460187
outer loop
vertex 6505.2 10058.62 495.56
vertex 6260.67 8746.66 636.74
vertex 6160.18 10022.35 694.72
endloop
endfacet
facet normal 0.07853033250339908 -0.9958810277881159 0.04532069470552629
outer loop
vertex 6440.33 8571.68 988.7800000000001
vertex 6240.39 8571.68 1335.23
vertex 5895.37 8535.41 1136.07
endloop
endfacet
facet normal 0.07853033250339915 -0.995881027788116 0.045320694705526535
outer loop
vertex 6440.33 8571.68 988.7800000000001
vertex 5895.37 8535.41 1136.07
vertex 6095.31 8535.41 789.62
endloop
endfacet
facet normal -0.07826038657164679 0.9959080226959831 -0.04519427202017439
outer loop
vertex 5995.860000000001 7259.72 1194.05
vertex 6340.75 7295.860000000001 1393.21
vertex 6540.820000000001 7295.860000000001 1046.76
endloop
endfacet
facet normal -0.07825116341810369 0.9959103209954298 -0.0451595832409168
outer loop
vertex 5995.860000000001 7259.72 1194.05
vertex 6540.820000000001 7295.860000000001 1046.76
vertex 6195.8 7259.72 847.6
endloop
endfacet
facet normal 0.8625555345690726 0.09057064899886579 0.49779002332729133
outer loop
vertex 5895.37 8535.41 1136.07
vertex 5995.860000000001 7259.72 1194.05
vertex 6195.8 7259.72 847.6
endloop
endfacet
facet normal 0.862555534569072 0.0905706489988652 0.49779002332729316
outer loop
vertex 5895.37 8535.41 1136.07
vertex 6195.8 7259.72 847.6
vertex 6095.31 8535.41 789.62
endloop
endfacet
facet normal -0.8624229844312987 -0.09047433335786716 -0.49803713810122796
outer loop
vertex 6540.820000000001 7295.860000000001 1046.76
vertex 6340.75 7295.860000000001 1393.21
vertex 6240.39 8571.68 1335.23
endloop
endfacet
facet normal -0.8625562555012167 -0.09056149597189005 -0.49779043938494144
outer loop
vertex 6540.820000000001 7295.860000000001 1046.76
vertex 6240.39 8571.68 1335.23
vertex 6440.33 8571.68 988.7800000000001
endloop
endfacet
facet normal -0.49992817619235425 -0.000018204347114312317 0.8660668671168458
outer loop
vertex 6195.8 7259.72 847.6
vertex 6540.820000000001 7295.860000000001 1046.76
vertex 6440.33 8571.68 988.7800000000001
endloop
endfacet
facet normal -0.4999281709446204 -0.000018205651183766922 0.8660668701460187
outer loop
vertex 6195.8 7259.72 847.6
vertex 6440.33 8571.68 988.7800000000001
vertex 6095.31 8535.41 789.62
endloop
endfacet
facet normal 0.5000723135845431 -0.000017615804557428733 -0.8659836493120906
outer loop
vertex 6240.39 8571.68 1335.23
vertex 6340.75 7295.860000000001 1393.21
vertex 5995.860000000001 7259.72 1194.05
endloop
endfacet
facet normal 0.4999281709446195 0.000018205651184015377 -0.8660668701460192
outer loop
vertex 6240.39 8571.68 1335.23
vertex 5995.860000000001 7259.72 1194.05
vertex 5895.37 8535.41 1136.07
endloop
endfacet
facet normal 0.09033066506849625 -0.995911828902681 0
outer loop
vertex 6584.89 7275.71 199.94
vertex 6584.89 7275.71 599.95
vertex 6186.4400000000005 7239.570000000001 599.95
endloop
endfacet
facet normal 0.09033066506849625 -0.995911828902681 0
outer loop
vertex 6584.89 7275.71 199.94
vertex 6186.4400000000005 7239.570000000001 599.95
vertex 6186.4400000000005 7239.570000000001 199.94
endloop
endfacet
facet normal -0.09035990568286599 0.9959091763032327 0
outer loop
vertex 6300.84 5981.95 599.95
vertex 6699.16 6018.09 599.95
vertex 6699.16 6018.09 199.94
endloop
endfacet
facet normal -0.09035990568286599 0.9959091763032327 0
outer loop
vertex 6300.84 5981.95 599.95
vertex 6699.16 6018.09 199.94
vertex 6300.84 5981.95 199.94
endloop
endfacet
endsolid JSCAD
