solid JSCAD
facet normal -1 0 0
outer loop
vertex 0 0 0
vertex 0 0 3999.9700000000003
vertex 0 15000.050000000001 3999.9700000000003
endloop
endfacet
facet normal -1 0 0
outer loop
vertex 0 0 0
vertex 0 15000.050000000001 3999.9700000000003
vertex 0 15000.050000000001 0
endloop
endfacet
facet normal 1 0 0
outer loop
vertex 19999.98 0 0
vertex 19999.98 15000.050000000001 0
vertex 19999.98 15000.050000000001 3999.9700000000003
endloop
endfacet
facet normal 1 0 0
outer loop
vertex 19999.98 0 0
vertex 19999.98 15000.050000000001 3999.9700000000003
vertex 19999.98 0 3999.9700000000003
endloop
endfacet
facet normal 0 -1 0
outer loop
vertex 0 0 0
vertex 19999.98 0 0
vertex 19999.98 0 3999.9700000000003
endloop
endfacet
facet normal 0 -1 0
outer loop
vertex 0 0 0
vertex 19999.98 0 3999.9700000000003
vertex 0 0 3999.9700000000003
endloop
endfacet
facet normal 0 1 0
outer loop
vertex 0 15000.050000000001 0
vertex 0 15000.050000000001 3999.9700000000003
vertex 19999.98 15000.050000000001 3999.9700000000003
endloop
endfacet
facet normal 0 1 0
outer loop
vertex 0 15000.050000000001 0
vertex 19999.98 15000.050000000001 3999.9700000000003
vertex 19999.98 15000.050000000001 0
endloop
endfacet
facet normal 0 0 -1
outer loop
vertex 0 0 0
vertex 0 15000.050000000001 0
vertex 19999.98 15000.050000000001 0
endloop
endfacet
facet normal 0 0 -1
outer loop
vertex 0 0 0
vertex 19999.98 15000.050000000001 0
vertex 19999.98 0 0
endloop
endfacet
facet normal 0 0 1
outer loop
vertex 0 0 3999.9700000000003
vertex 19999.98 0 3999.9700000000003
vertex 19999.98 15000.050000000001 3999.9700000000003
endloop
endfacet
facet normal 0 0 1
outer loop
vertex 0 0 3999.9700000000003
vertex 19999.98 15000.050000000001 3999.9700000000003
vertex 0 15000.050000000001 3999.9700000000003
endloop
endfacet
facet normal 0 -1 0
outer loop
vertex 2699.9700000000003 12500.02 199.94
vertex 2699.9700000000003 12500.02 599.95
vertex 2299.96 12500.02 599.95
endloop
endfacet
facet normal 0 -1 0
outer loop
vertex 2699.9700000000003 12500.02 199.94
vertex 2299.96 12500.02 599.95
vertex 2299.96 12500.02 199.94
endloop
endfacet
facet normal 1 0 0
outer loop
vertex 2299.96 9831.51 1261.91
vertex 2299.96 9840.48 1257.49
vertex 2299.96 9831.9 1262.43
endloop
endfacet
facet normal 1 0 0
outer loop
vertex 2299.96 9239.49 1257.49
vertex 2299.96 9248.460000000001 1261.91
vertex 2299.96 9248.2 1262.43
endloop
endfacet
facet normal 1 0 0
outer loop
vertex 2299.96 9640.54 911.0400000000001
vertex 2299.96 10732.54 280.54
vertex 2299.96 10932.61 626.99
endloop
endfacet
facet normal 1 0 0
outer loop
vertex 2299.96 9640.54 911.0400000000001
vertex 2299.96 10932.61 626.99
vertex 2299.96 9840.48 1257.49
endloop
endfacet
facet normal 1 0 0
outer loop
vertex 2299.96 10741.25 275.47
vertex 2299.96 10741.380000000001 275.86
vertex 2299.96 10732.54 280.54
endloop
endfacet
facet normal 0.9999999999999999 0 0
outer loop
vertex 2299.96 8138.780000000001 621.9200000000001
vertex 2299.96 8338.720000000001 275.47
vertex 2299.96 9439.56 911.0400000000001
endloop
endfacet
facet normal 1 0 0
outer loop
vertex 2299.96 8138.780000000001 621.9200000000001
vertex 2299.96 9439.56 911.0400000000001
vertex 2299.96 9239.49 1257.49
endloop
endfacet
facet normal 1 0 0
outer loop
vertex 2299.96 11033.1 599.95
vertex 2299.96 11033.1 199.94
vertex 2299.96 12500.02 199.94
endloop
endfacet
facet normal 1 0 0
outer loop
vertex 2299.96 11033.1 599.95
vertex 2299.96 12500.02 199.94
vertex 2299.96 12500.02 599.95
endloop
endfacet
facet normal 1 0 0
outer loop
vertex 2299.96 6500 599.95
vertex 2299.96 6500 199.94
vertex 2299.96 8046.87 199.94
endloop
endfacet
facet normal 1 0 0
outer loop
vertex 2299.96 6500 599.95
vertex 2299.96 8046.87 199.94
vertex 2299.96 8046.87 599.95
endloop
endfacet
facet normal -1 0 0
outer loop
vertex 2699.9700000000003 9448.14 915.98
vertex 2699.9700000000003 8347.43 280.54
vertex 2699.9700000000003 8147.360000000001 626.99
endloop
endfacet
facet normal -1 0 0
outer loop
vertex 2699.9700000000003 9448.14 915.98
vertex 2699.9700000000003 8147.360000000001 626.99
vertex 2699.9700000000003 9248.2 1262.43
endloop
endfacet
facet normal -1 0 0
outer loop
vertex 2699.9700000000003 8338.720000000001 275.47
vertex 2699.9700000000003 8338.59 275.86
vertex 2699.9700000000003 8347.43 280.54
endloop
endfacet
facet normal -1 0 0
outer loop
vertex 2699.9700000000003 10941.19 621.9200000000001
vertex 2699.9700000000003 10741.25 275.47
vertex 2699.9700000000003 9631.83 915.98
endloop
endfacet
facet normal -1 0 0
outer loop
vertex 2699.9700000000003 10941.19 621.9200000000001
vertex 2699.9700000000003 9631.83 915.98
vertex 2699.9700000000003 9831.9 1262.43
endloop
endfacet
facet normal -1 0 0
outer loop
vertex 2699.9700000000003 8046.87 599.95
vertex 2699.9700000000003 8046.87 199.94
vertex 2699.9700000000003 6500 199.94
endloop
endfacet
facet normal -1 0 0
outer loop
vertex 2699.9700000000003 8046.87 599.95
vertex 2699.9700000000003 6500 199.94
vertex 2699.9700000000003 6500 599.95
endloop
endfacet
facet normal -1 0 0
outer loop
vertex 2699.9700000000003 12500.02 599.95
vertex 2699.9700000000003 12500.02 199.94
vertex 2699.9700000000003 11033.1 199.94
endloop
endfacet
facet normal -1 0 0
outer loop
vertex 2699.9700000000003 12500.02 599.95
vertex 2699.9700000000003 11033.1 199.94
vertex 2699.9700000000003 11033.1 599.95
endloop
endfacet
facet normal 0 0 1
outer loop
vertex 2500.03 11619.92 199.94
vertex 2299.96 12500.02 199.94
vertex 2299.96 11033.1 199.94
endloop
endfacet
facet normal 0 0 1
outer loop
vertex 2500.03 11619.92 199.94
vertex 2299.96 11033.1 199.94
vertex 2500.03 11033.1 199.94
endloop
endfacet
facet normal 0 0 0.9999999999999999
outer loop
vertex 2500.03 11619.92 199.94
vertex 2500.03 11033.1 199.94
vertex 2699.9700000000003 11033.1 199.94
endloop
endfacet
facet normal 0 0 1
outer loop
vertex 2500.03 11619.92 199.94
vertex 2699.9700000000003 11033.1 199.94
vertex 2699.9700000000003 12500.02 199.94
endloop
endfacet
facet normal 0 0 1
outer loop
vertex 2500.03 11619.92 199.94
vertex 2699.9700000000003 12500.02 199.94
vertex 2299.96 12500.02 199.94
endloop
endfacet
facet normal 0 0 1
outer loop
vertex 2500.03 7428.070000000001 199.94
vertex 2500.03 8046.87 199.94
vertex 2299.96 8046.87 199.94
endloop
endfacet
facet normal 0 0 1
outer loop
vertex 2500.03 7428.070000000001 199.94
vertex 2299.96 8046.87 199.94
vertex 2299.96 6500 199.94
endloop
endfacet
facet normal 0 0 1
outer loop
vertex 2500.03 7428.070000000001 199.94
vertex 2299.96 6500 199.94
vertex 2699.9700000000003 6500 199.94
endloop
endfacet
facet normal 0 0 1
outer loop
vertex 2500.03 7428.070000000001 199.94
vertex 2699.9700000000003 6500 199.94
vertex 2699.9700000000003 8046.87 199.94
endloop
endfacet
facet normal 0 0 1
outer loop
vertex 2500.03 7428.070000000001 199.94
vertex 2699.9700000000003 8046.87 199.94
vertex 2500.03 8046.87 199.94
endloop
endfacet
facet normal 0 0 -1
outer loop
vertex 2500.03 11619.92 599.95
vertex 2699.9700000000003 12500.02 599.95
vertex 2699.9700000000003 11033.1 599.95
endloop
endfacet
facet normal 0 0 -0.9999999999999999
outer loop
vertex 2500.03 11619.92 599.95
vertex 2699.9700000000003 11033.1 599.95
vertex 2500.03 11033.1 599.95
endloop
endfacet
facet normal 0 0 -1
outer loop
vertex 2500.03 11619.92 599.95
vertex 2500.03 11033.1 599.95
vertex 2299.96 11033.1 599.95
endloop
endfacet
facet normal 0 0 -1
outer loop
vertex 2500.03 11619.92 599.95
vertex 2299.96 11033.1 599.95
vertex 2299.96 12500.02 599.95
endloop
endfacet
facet normal 0 0 -1
outer loop
vertex 2500.03 11619.92 599.95
vertex 2299.96 12500.02 599.95
vertex 2699.9700000000003 12500.02 599.95
endloop
endfacet
facet normal 0 0 -1
outer loop
vertex 2500.03 7428.070000000001 599.95
vertex 2500.03 8046.87 599.95
vertex 2699.9700000000003 8046.87 599.95
endloop
endfacet
facet normal 0 0 -1
outer loop
vertex 2500.03 7428.070000000001 599.95
vertex 2699.9700000000003 8046.87 599.95
vertex 2699.9700000000003 6500 599.95
endloop
endfacet
facet normal 0 0 -1
outer loop
vertex 2500.03 7428.070000000001 599.95
vertex 2699.9700000000003 6500 599.95
vertex 2299.96 6500 599.95
endloop
endfacet
facet normal 0 0 -1
outer loop
vertex 2500.03 7428.070000000001 599.95
vertex 2299.96 6500 599.95
vertex 2299.96 8046.87 599.95
endloop
endfacet
facet normal 0 0 -1
outer loop
vertex 2500.03 7428.070000000001 599.95
vertex 2299.96 8046.87 599.95
vertex 2500.03 8046.87 599.95
endloop
endfacet
facet normal 0 0.0330398028653019 0.9994540366753351
outer loop
vertex 2299.96 11017.37 200.46
vertex 2500.03 11033.1 199.94
vertex 2299.96 11033.1 199.94
endloop
endfacet
facet normal 0 0.0330398028653019 0.9994540366753352
outer loop
vertex 2299.96 11017.37 200.46
vertex 2299.96 11033.1 199.94
vertex 2100.02 11033.1 199.94
endloop
endfacet
facet normal 0.000004303568876771332 0.03309444466325599 0.9994522288303277
outer loop
vertex 2299.96 11017.37 200.46
vertex 2100.02 11033.1 199.94
vertex 2100.02 10993.84 201.24
endloop
endfacet
facet normal 0 0.03313097299305961 0.999451018623991
outer loop
vertex 2299.96 11017.37 200.46
vertex 2100.02 10993.84 201.24
vertex 2500.03 10993.84 201.24
endloop
endfacet
facet normal -0.0000043007725357208475 0.033094444663256395 0.9994522288303399
outer loop
vertex 2299.96 11017.37 200.46
vertex 2500.03 10993.84 201.24
vertex 2500.03 11033.1 199.94
endloop
endfacet
facet normal 0 0.09885121436497181 0.995102224607387
outer loop
vertex 2500.03 10993.84 201.24
vertex 2100.02 10993.84 201.24
vertex 2100.02 10954.58 205.14000000000001
endloop
endfacet
facet normal 0 0.09885121436497181 0.995102224607387
outer loop
vertex 2500.03 10993.84 201.24
vertex 2100.02 10954.58 205.14000000000001
vertex 2500.03 10954.58 205.14000000000001
endloop
endfacet
facet normal 0 0.16225076613788206 0.9867495573283376
outer loop
vertex 2500.03 10954.58 205.14000000000001
vertex 2100.02 10954.58 205.14000000000001
vertex 2100.02 10915.84 211.51000000000002
endloop
endfacet
facet normal 0 0.16225076613788206 0.9867495573283376
outer loop
vertex 2500.03 10954.58 205.14000000000001
vertex 2100.02 10915.84 211.51000000000002
vertex 2500.03 10915.84 211.51000000000002
endloop
endfacet
facet normal 0 0.2277513022038417 0.9737193355091878
outer loop
vertex 2500.03 10915.84 211.51000000000002
vertex 2100.02 10915.84 211.51000000000002
vertex 2100.02 10877.49 220.48000000000002
endloop
endfacet
facet normal 0 0.2277513022038417 0.9737193355091878
outer loop
vertex 2500.03 10915.84 211.51000000000002
vertex 2100.02 10877.49 220.48000000000002
vertex 2500.03 10877.49 220.48000000000002
endloop
endfacet
facet normal 0 0.29129333185418244 0.9566337830211146
outer loop
vertex 2500.03 10877.49 220.48000000000002
vertex 2100.02 10877.49 220.48000000000002
vertex 2100.02 10839.92 231.92000000000002
endloop
endfacet
facet normal 0 0.29129333185418244 0.9566337830211146
outer loop
vertex 2500.03 10877.49 220.48000000000002
vertex 2100.02 10839.92 231.92000000000002
vertex 2500.03 10839.92 231.92000000000002
endloop
endfacet
facet normal 0 0.3507607781097757 0.9364650962741884
outer loop
vertex 2500.03 10839.92 231.92000000000002
vertex 2100.02 10839.92 231.92000000000002
vertex 2100.02 10803.130000000001 245.70000000000002
endloop
endfacet
facet normal 0 0.3507607781097757 0.9364650962741884
outer loop
vertex 2500.03 10839.92 231.92000000000002
vertex 2100.02 10803.130000000001 245.70000000000002
vertex 2500.03 10803.130000000001 245.70000000000002
endloop
endfacet
facet normal 0 0.41173380721892744 0.9113041599778897
outer loop
vertex 2299.96 10781.550000000001 255.45000000000002
vertex 2500.03 10803.130000000001 245.70000000000002
vertex 2100.02 10803.130000000001 245.70000000000002
endloop
endfacet
facet normal 0.00010729758824738196 0.4125592268169146 0.9109307728117748
outer loop
vertex 2299.96 10781.550000000001 255.45000000000002
vertex 2100.02 10803.130000000001 245.70000000000002
vertex 2100.02 10767.25 261.95
endloop
endfacet
facet normal 0 0.41380294430115633 0.9103664774626173
outer loop
vertex 2299.96 10781.550000000001 255.45000000000002
vertex 2100.02 10767.25 261.95
vertex 2299.96 10767.25 261.95
endloop
endfacet
facet normal 0 0.4138029443011563 0.9103664774626173
outer loop
vertex 2299.96 10781.550000000001 255.45000000000002
vertex 2299.96 10767.25 261.95
vertex 2500.03 10767.25 261.95
endloop
endfacet
facet normal -0.00010722786921748372 0.4125592268199998 0.9109307728185869
outer loop
vertex 2299.96 10781.550000000001 255.45000000000002
vertex 2500.03 10767.25 261.95
vertex 2500.03 10803.130000000001 245.70000000000002
endloop
endfacet
facet normal 0 -0.46675861955810416 -0.8843847528469794
outer loop
vertex 2299.96 10937.29 624.52
vertex 2500.03 10932.61 626.99
vertex 2299.96 10932.61 626.99
endloop
endfacet
facet normal 0 -0.46675861955810416 -0.8843847528469795
outer loop
vertex 2299.96 10937.29 624.52
vertex 2299.96 10932.61 626.99
vertex 2100.02 10932.61 626.99
endloop
endfacet
facet normal 0.0002379105593024615 -0.47468943594274055 -0.8801533291438081
outer loop
vertex 2299.96 10937.29 624.52
vertex 2100.02 10932.61 626.99
vertex 2100.02 10944.18 620.75
endloop
endfacet
facet normal 0 -0.48001141538940284 -0.8772622419184939
outer loop
vertex 2299.96 10937.29 624.52
vertex 2100.02 10944.18 620.75
vertex 2500.03 10944.18 620.75
endloop
endfacet
facet normal -0.00023775597155337134 -0.47468943596019303 -0.8801533291761678
outer loop
vertex 2299.96 10937.29 624.52
vertex 2500.03 10944.18 620.75
vertex 2500.03 10932.61 626.99
endloop
endfacet
facet normal 0 -0.4152923495896139 -0.9096880038630486
outer loop
vertex 2500.03 10944.18 620.75
vertex 2100.02 10944.18 620.75
vertex 2100.02 10956.140000000001 615.2900000000001
endloop
endfacet
facet normal 0 -0.4152923495896139 -0.9096880038630486
outer loop
vertex 2500.03 10944.18 620.75
vertex 2100.02 10956.140000000001 615.2900000000001
vertex 2500.03 10956.140000000001 615.2900000000001
endloop
endfacet
facet normal 0 -0.3543574858642525 -0.9351100321416544
outer loop
vertex 2500.03 10956.140000000001 615.2900000000001
vertex 2100.02 10956.140000000001 615.2900000000001
vertex 2100.02 10968.49 610.61
endloop
endfacet
facet normal 0 -0.3543574858642525 -0.9351100321416544
outer loop
vertex 2500.03 10956.140000000001 615.2900000000001
vertex 2100.02 10968.49 610.61
vertex 2500.03 10968.49 610.61
endloop
endfacet
facet normal 0 -0.28644158302836753 -0.9580977087501059
outer loop
vertex 2500.03 10968.49 610.61
vertex 2100.02 10968.49 610.61
vertex 2100.02 10981.1 606.84
endloop
endfacet
facet normal 0 -0.28644158302836753 -0.9580977087501059
outer loop
vertex 2500.03 10968.49 610.61
vertex 2100.02 10981.1 606.84
vertex 2500.03 10981.1 606.84
endloop
endfacet
facet normal 0 -0.22848558961130067 -0.9735472948655224
outer loop
vertex 2500.03 10981.1 606.84
vertex 2100.02 10981.1 606.84
vertex 2100.02 10993.84 603.85
endloop
endfacet
facet normal 0 -0.22848558961130067 -0.9735472948655224
outer loop
vertex 2500.03 10981.1 606.84
vertex 2100.02 10993.84 603.85
vertex 2500.03 10993.84 603.85
endloop
endfacet
facet normal 0 -0.1579905011066759 -0.987440631916705
outer loop
vertex 2500.03 10993.84 603.85
vertex 2100.02 10993.84 603.85
vertex 2100.02 11006.84 601.77
endloop
endfacet
facet normal 0 -0.1579905011066759 -0.987440631916705
outer loop
vertex 2500.03 10993.84 603.85
vertex 2100.02 11006.84 601.77
vertex 2500.03 11006.84 601.77
endloop
endfacet
facet normal 0 -0.09852814501284214 -0.9951342646298177
outer loop
vertex 2500.03 11006.84 601.77
vertex 2100.02 11006.84 601.77
vertex 2100.02 11019.970000000001 600.47
endloop
endfacet
facet normal 0 -0.09852814501284214 -0.9951342646298177
outer loop
vertex 2500.03 11006.84 601.77
vertex 2100.02 11019.970000000001 600.47
vertex 2500.03 11019.970000000001 600.47
endloop
endfacet
facet normal 0 -0.03276927682076678 -0.9994629430332292
outer loop
vertex 2299.96 11027.9 600.21
vertex 2500.03 11019.970000000001 600.47
vertex 2100.02 11019.970000000001 600.47
endloop
endfacet
facet normal 0.00027016634189491685 -0.03957293655568816 -0.9992166480311001
outer loop
vertex 2299.96 11027.9 600.21
vertex 2100.02 11019.970000000001 600.47
vertex 2100.02 11033.1 599.95
endloop
endfacet
facet normal 0 -0.04993761694388352 -0.9987523388778452
outer loop
vertex 2299.96 11027.9 600.21
vertex 2100.02 11033.1 599.95
vertex 2299.96 11033.1 599.95
endloop
endfacet
facet normal 0 -0.049937616943883524 -0.9987523388778452
outer loop
vertex 2299.96 11027.9 600.21
vertex 2299.96 11033.1 599.95
vertex 2500.03 11033.1 599.95
endloop
endfacet
facet normal -0.00026999079522682396 -0.03957293655756437 -0.9992166480784743
outer loop
vertex 2299.96 11027.9 600.21
vertex 2500.03 11033.1 599.95
vertex 2500.03 11019.970000000001 600.47
endloop
endfacet
facet normal 1 0 0
outer loop
vertex 2100.02 9540.050000000001 1212.64
vertex 2100.02 9461.53 1332.76
vertex 2100.02 9384.44 1317.55
endloop
endfacet
facet normal 1 0 0
outer loop
vertex 2100.02 9540.050000000001 1212.64
vertex 2100.02 9384.44 1317.55
vertex 2100.02 9309.95 1292.2
endloop
endfacet
facet normal 0.9999999999999999 0 0
outer loop
vertex 2100.02 9540.050000000001 1212.64
vertex 2100.02 9309.95 1292.2
vertex 2100.02 9239.49 1257.49
endloop
endfacet
facet normal 1 0 0
outer loop
vertex 2100.02 9540.050000000001 1212.64
vertex 2100.02 9239.49 1257.49
vertex 2100.02 9423.960000000001 937.95
endloop
endfacet
facet normal 0.9999999999999999 0 0
outer loop
vertex 2100.02 9540.050000000001 1212.64
vertex 2100.02 9423.960000000001 937.95
vertex 2100.02 9540.050000000001 937.95
endloop
endfacet
facet normal 1 0 0
outer loop
vertex 2100.02 9540.050000000001 1212.64
vertex 2100.02 9540.050000000001 937.95
vertex 2100.02 9656.01 937.95
endloop
endfacet
facet normal 0.9999999999999999 0 0
outer loop
vertex 2100.02 9540.050000000001 1212.64
vertex 2100.02 9656.01 937.95
vertex 2100.02 9840.48 1257.49
endloop
endfacet
facet normal 1 0 0
outer loop
vertex 2100.02 9540.050000000001 1212.64
vertex 2100.02 9840.48 1257.49
vertex 2100.02 9770.02 1292.2
endloop
endfacet
facet normal 1 0 0
outer loop
vertex 2100.02 9540.050000000001 1212.64
vertex 2100.02 9770.02 1292.2
vertex 2100.02 9695.53 1317.55
endloop
endfacet
facet normal 1 0 0
outer loop
vertex 2100.02 9540.050000000001 1212.64
vertex 2100.02 9695.53 1317.55
vertex 2100.02 9618.44 1332.76
endloop
endfacet
facet normal 1 0 0
outer loop
vertex 2100.02 9540.050000000001 1212.64
vertex 2100.02 9618.44 1332.76
vertex 2100.02 9540.050000000001 1337.96
endloop
endfacet
facet normal 1 0 0
outer loop
vertex 2100.02 9540.050000000001 1212.64
vertex 2100.02 9540.050000000001 1337.96
vertex 2100.02 9461.53 1332.76
endloop
endfacet
facet normal 1 0 0
outer loop
vertex 2100.02 9540.050000000001 937.95
vertex 2100.02 9566.18 936.26
vertex 2100.02 9655.1 936.26
endloop
endfacet
facet normal 1 0 0
outer loop
vertex 2100.02 9540.050000000001 937.95
vertex 2100.02 9655.1 936.26
vertex 2100.02 9656.01 937.95
endloop
endfacet
facet normal 1 0 0
outer loop
vertex 2100.02 9423.960000000001 937.95
vertex 2100.02 9425 936.26
vertex 2100.02 9513.79 936.26
endloop
endfacet
facet normal 1 0 0
outer loop
vertex 2100.02 9423.960000000001 937.95
vertex 2100.02 9513.79 936.26
vertex 2100.02 9540.050000000001 937.95
endloop
endfacet
facet normal 0.9999999999999999 0 0
outer loop
vertex 2100.02 9566.18 936.26
vertex 2100.02 9592.050000000001 931.0600000000001
vertex 2100.02 9652.11 931.0600000000001
endloop
endfacet
facet normal 1 0 0
outer loop
vertex 2100.02 9566.18 936.26
vertex 2100.02 9652.11 931.0600000000001
vertex 2100.02 9655.1 936.26
endloop
endfacet
facet normal 0.9999999999999999 0 0
outer loop
vertex 2100.02 9425 936.26
vertex 2100.02 9427.86 931.0600000000001
vertex 2100.02 9487.92 931.0600000000001
endloop
endfacet
facet normal 1 0 0
outer loop
vertex 2100.02 9425 936.26
vertex 2100.02 9487.92 931.0600000000001
vertex 2100.02 9513.79 936.26
endloop
endfacet
facet normal 1 0 0
outer loop
vertex 2100.02 9592.050000000001 931.0600000000001
vertex 2100.02 9616.880000000001 922.61
vertex 2100.02 9647.17 922.61
endloop
endfacet
facet normal 0.9999999999999999 0 0
outer loop
vertex 2100.02 9592.050000000001 931.0600000000001
vertex 2100.02 9647.17 922.61
vertex 2100.02 9652.11 931.0600000000001
endloop
endfacet
facet normal 1 0 0
outer loop
vertex 2100.02 9427.86 931.0600000000001
vertex 2100.02 9432.800000000001 922.61
vertex 2100.02 9463.09 922.61
endloop
endfacet
facet normal 0.9999999999999999 0 0
outer loop
vertex 2100.02 9427.86 931.0600000000001
vertex 2100.02 9463.09 922.61
vertex 2100.02 9487.92 931.0600000000001
endloop
endfacet
facet normal 1 0 0
outer loop
vertex 2100.02 9616.880000000001 922.61
vertex 2100.02 9640.54 911.0400000000001
vertex 2100.02 9647.17 922.61
endloop
endfacet
facet normal 1 0 0
outer loop
vertex 2100.02 9432.800000000001 922.61
vertex 2100.02 9439.56 911.0400000000001
vertex 2100.02 9463.09 922.61
endloop
endfacet
facet normal 1 0 0
outer loop
vertex 2100.02 10928.970000000001 620.75
vertex 2100.02 10944.18 620.75
vertex 2100.02 10932.61 626.99
endloop
endfacet
facet normal 1 0 0
outer loop
vertex 2100.02 10928.970000000001 620.75
vertex 2100.02 10925.85 615.2900000000001
vertex 2100.02 10956.140000000001 615.2900000000001
endloop
endfacet
facet normal 1 0 0
outer loop
vertex 2100.02 10928.970000000001 620.75
vertex 2100.02 10956.140000000001 615.2900000000001
vertex 2100.02 10944.18 620.75
endloop
endfacet
facet normal 1 0 0
outer loop
vertex 2100.02 10925.85 615.2900000000001
vertex 2100.02 10923.25 610.61
vertex 2100.02 10968.49 610.61
endloop
endfacet
facet normal 1 0 0
outer loop
vertex 2100.02 10925.85 615.2900000000001
vertex 2100.02 10968.49 610.61
vertex 2100.02 10956.140000000001 615.2900000000001
endloop
endfacet
facet normal 0.9999999999999999 0 0
outer loop
vertex 2100.02 10923.25 610.61
vertex 2100.02 10921.04 606.84
vertex 2100.02 10981.1 606.84
endloop
endfacet
facet normal 1 0 0
outer loop
vertex 2100.02 10923.25 610.61
vertex 2100.02 10981.1 606.84
vertex 2100.02 10968.49 610.61
endloop
endfacet
facet normal 1 0 0
outer loop
vertex 2100.02 10921.04 606.84
vertex 2100.02 10919.220000000001 603.85
vertex 2100.02 10993.84 603.85
endloop
endfacet
facet normal 1 0 0
outer loop
vertex 2100.02 10921.04 606.84
vertex 2100.02 10993.84 603.85
vertex 2100.02 10981.1 606.84
endloop
endfacet
facet normal 0.9999999999999999 0 0
outer loop
vertex 2100.02 10919.220000000001 603.85
vertex 2100.02 10918.050000000001 601.77
vertex 2100.02 11006.84 601.77
endloop
endfacet
facet normal 1 0 0
outer loop
vertex 2100.02 10919.220000000001 603.85
vertex 2100.02 11006.84 601.77
vertex 2100.02 10993.84 603.85
endloop
endfacet
facet normal 0.9999999999999999 0 0
outer loop
vertex 2100.02 10918.050000000001 601.77
vertex 2100.02 10917.27 600.47
vertex 2100.02 11019.970000000001 600.47
endloop
endfacet
facet normal 0.9999999999999999 0 0
outer loop
vertex 2100.02 10918.050000000001 601.77
vertex 2100.02 11019.970000000001 600.47
vertex 2100.02 11006.84 601.77
endloop
endfacet
facet normal 1 0 0
outer loop
vertex 2100.02 10907.390000000001 321.62
vertex 2100.02 10917.27 600.47
vertex 2100.02 10732.54 280.54
endloop
endfacet
facet normal 1 0 0
outer loop
vertex 2100.02 10907.390000000001 321.62
vertex 2100.02 10732.54 280.54
vertex 2100.02 10767.25 261.95
endloop
endfacet
facet normal 1 0 0
outer loop
vertex 2100.02 10907.390000000001 321.62
vertex 2100.02 10767.25 261.95
vertex 2100.02 10803.130000000001 245.70000000000002
endloop
endfacet
facet normal 1 0 0
outer loop
vertex 2100.02 10907.390000000001 321.62
vertex 2100.02 10803.130000000001 245.70000000000002
vertex 2100.02 10839.92 231.92000000000002
endloop
endfacet
facet normal 1 0 0
outer loop
vertex 2100.02 10907.390000000001 321.62
vertex 2100.02 10839.92 231.92000000000002
vertex 2100.02 10877.49 220.48000000000002
endloop
endfacet
facet normal 1 0 0
outer loop
vertex 2100.02 10907.390000000001 321.62
vertex 2100.02 10877.49 220.48000000000002
vertex 2100.02 10915.84 211.51000000000002
endloop
endfacet
facet normal 1 0 0
outer loop
vertex 2100.02 10907.390000000001 321.62
vertex 2100.02 10915.84 211.51000000000002
vertex 2100.02 10954.58 205.14000000000001
endloop
endfacet
facet normal 1 0 0
outer loop
vertex 2100.02 10907.390000000001 321.62
vertex 2100.02 10954.58 205.14000000000001
vertex 2100.02 10993.84 201.24
endloop
endfacet
facet normal 1 0 0
outer loop
vertex 2100.02 10907.390000000001 321.62
vertex 2100.02 10993.84 201.24
vertex 2100.02 11033.1 199.94
endloop
endfacet
facet normal 1 0 0
outer loop
vertex 2100.02 10907.390000000001 321.62
vertex 2100.02 11033.1 199.94
vertex 2100.02 11033.1 599.95
endloop
endfacet
facet normal 1 0 0
outer loop
vertex 2100.02 10907.390000000001 321.62
vertex 2100.02 11033.1 599.95
vertex 2100.02 11019.970000000001 600.47
endloop
endfacet
facet normal 0.9999999999999999 0 0
outer loop
vertex 2100.02 10907.390000000001 321.62
vertex 2100.02 11019.970000000001 600.47
vertex 2100.02 10917.27 600.47
endloop
endfacet
facet normal 0 -1 0
outer loop
vertex 2100.02 11033.1 599.95
vertex 2100.02 11033.1 199.94
vertex 2299.96 11033.1 199.94
endloop
endfacet
facet normal 0 -1 0
outer loop
vertex 2100.02 11033.1 599.95
vertex 2299.96 11033.1 199.94
vertex 2299.96 11033.1 599.95
endloop
endfacet
facet normal 0 1 0
outer loop
vertex 2500.03 11033.1 599.95
vertex 2699.9700000000003 11033.1 599.95
vertex 2699.9700000000003 11033.1 199.94
endloop
endfacet
facet normal 0 1 0
outer loop
vertex 2500.03 11033.1 599.95
vertex 2699.9700000000003 11033.1 199.94
vertex 2500.03 11033.1 199.94
endloop
endfacet
facet normal 0 -0.8661152397482247 0.49984436725432374
outer loop
vertex 2699.9700000000003 10941.19 621.9200000000001
vertex 2500.03 10941.19 621.9200000000001
vertex 2500.03 10741.25 275.47
endloop
endfacet
facet normal 0 -0.8661152397482247 0.49984436725432374
outer loop
vertex 2699.9700000000003 10941.19 621.9200000000001
vertex 2500.03 10741.25 275.47
vertex 2699.9700000000003 10741.25 275.47
endloop
endfacet
facet normal 0 -0.9486832980497671 0.3162277660190779
outer loop
vertex 2500.03 10741.380000000001 275.86
vertex 2299.96 10741.380000000001 275.86
vertex 2299.96 10741.25 275.47
endloop
endfacet
facet normal 0 -0.9486832980497671 0.3162277660190779
outer loop
vertex 2500.03 10741.380000000001 275.86
vertex 2299.96 10741.25 275.47
vertex 2500.03 10741.25 275.47
endloop
endfacet
facet normal 0 -0.5000357860548498 -0.8660047417101759
outer loop
vertex 2699.9700000000003 9831.9 1262.43
vertex 2500.03 9831.9 1262.43
vertex 2500.03 10941.19 621.9200000000001
endloop
endfacet
facet normal 0 -0.5000357860548498 -0.8660047417101759
outer loop
vertex 2699.9700000000003 9831.9 1262.43
vertex 2500.03 10941.19 621.9200000000001
vertex 2699.9700000000003 10941.19 621.9200000000001
endloop
endfacet
facet normal 0 -0.49996741718263427 -0.8660442146655826
outer loop
vertex 2500.03 9831.9 1262.43
vertex 2299.96 9831.9 1262.43
vertex 2299.96 10932.61 626.99
endloop
endfacet
facet normal 0 -0.49996741718263427 -0.8660442146655826
outer loop
vertex 2500.03 9831.9 1262.43
vertex 2299.96 10932.61 626.99
vertex 2500.03 10932.61 626.99
endloop
endfacet
facet normal 0 0.47357187755667146 0.8807551741474181
outer loop
vertex 2500.03 10767.25 261.95
vertex 2299.96 10767.25 261.95
vertex 2299.96 10741.380000000001 275.86
endloop
endfacet
facet normal 0 0.47357187755667146 0.8807551741474181
outer loop
vertex 2500.03 10767.25 261.95
vertex 2299.96 10741.380000000001 275.86
vertex 2500.03 10741.380000000001 275.86
endloop
endfacet
facet normal 0 0.47212978955456736 0.8815290476298329
outer loop
vertex 2299.96 10767.25 261.95
vertex 2100.02 10767.25 261.95
vertex 2100.02 10732.54 280.54
endloop
endfacet
facet normal 0 0.47212978955456736 0.8815290476298329
outer loop
vertex 2299.96 10767.25 261.95
vertex 2100.02 10732.54 280.54
vertex 2299.96 10732.54 280.54
endloop
endfacet
facet normal -1 0 0
outer loop
vertex 2500.03 9540.050000000001 1213.42
vertex 2500.03 9618.44 1332.76
vertex 2500.03 9695.53 1317.55
endloop
endfacet
facet normal -1 0 0
outer loop
vertex 2500.03 9540.050000000001 1213.42
vertex 2500.03 9695.53 1317.55
vertex 2500.03 9770.02 1292.2
endloop
endfacet
facet normal -0.9999999999999999 0 0
outer loop
vertex 2500.03 9540.050000000001 1213.42
vertex 2500.03 9770.02 1292.2
vertex 2500.03 9831.51 1261.91
endloop
endfacet
facet normal -1 0 0
outer loop
vertex 2500.03 9540.050000000001 1213.42
vertex 2500.03 9831.51 1261.91
vertex 2500.03 9644.44 937.95
endloop
endfacet
facet normal -1 0 0
outer loop
vertex 2500.03 9540.050000000001 1213.42
vertex 2500.03 9644.44 937.95
vertex 2500.03 9540.050000000001 937.95
endloop
endfacet
facet normal -1 0 0
outer loop
vertex 2500.03 9540.050000000001 1213.42
vertex 2500.03 9540.050000000001 937.95
vertex 2500.03 9435.53 937.95
endloop
endfacet
facet normal -1 0 0
outer loop
vertex 2500.03 9540.050000000001 1213.42
vertex 2500.03 9435.53 937.95
vertex 2500.03 9248.460000000001 1261.91
endloop
endfacet
facet normal -0.9999999999999999 0 0
outer loop
vertex 2500.03 9540.050000000001 1213.42
vertex 2500.03 9248.460000000001 1261.91
vertex 2500.03 9309.95 1292.2
endloop
endfacet
facet normal -1 0 0
outer loop
vertex 2500.03 9540.050000000001 1213.42
vertex 2500.03 9309.95 1292.2
vertex 2500.03 9384.44 1317.55
endloop
endfacet
facet normal -1 0 0
outer loop
vertex 2500.03 9540.050000000001 1213.42
vertex 2500.03 9384.44 1317.55
vertex 2500.03 9461.53 1332.76
endloop
endfacet
facet normal -1 0 0
outer loop
vertex 2500.03 9540.050000000001 1213.42
vertex 2500.03 9461.53 1332.76
vertex 2500.03 9540.050000000001 1337.96
endloop
endfacet
facet normal -1 0 0
outer loop
vertex 2500.03 9540.050000000001 1213.42
vertex 2500.03 9540.050000000001 1337.96
vertex 2500.03 9618.44 1332.76
endloop
endfacet
facet normal -1 0 0
outer loop
vertex 2500.03 9540.050000000001 937.95
vertex 2500.03 9513.79 936.26
vertex 2500.03 9436.44 936.26
endloop
endfacet
facet normal -1 0 0
outer loop
vertex 2500.03 9540.050000000001 937.95
vertex 2500.03 9436.44 936.26
vertex 2500.03 9435.53 937.95
endloop
endfacet
facet normal -1 0 0
outer loop
vertex 2500.03 9644.44 937.95
vertex 2500.03 9643.53 936.26
vertex 2500.03 9566.18 936.26
endloop
endfacet
facet normal -0.9999999999999999 0 0
outer loop
vertex 2500.03 9644.44 937.95
vertex 2500.03 9566.18 936.26
vertex 2500.03 9540.050000000001 937.95
endloop
endfacet
facet normal -1 0 0
outer loop
vertex 2500.03 9513.79 936.26
vertex 2500.03 9487.92 931.0600000000001
vertex 2500.03 9439.43 931.0600000000001
endloop
endfacet
facet normal -1 0 0
outer loop
vertex 2500.03 9513.79 936.26
vertex 2500.03 9439.43 931.0600000000001
vertex 2500.03 9436.44 936.26
endloop
endfacet
facet normal -0.9999999999999999 0 0
outer loop
vertex 2500.03 9643.53 936.26
vertex 2500.03 9640.54 931.0600000000001
vertex 2500.03 9592.050000000001 931.0600000000001
endloop
endfacet
facet normal -1 0 0
outer loop
vertex 2500.03 9643.53 936.26
vertex 2500.03 9592.050000000001 931.0600000000001
vertex 2500.03 9566.18 936.26
endloop
endfacet
facet normal -0.9999999999999999 0 0
outer loop
vertex 2500.03 9487.92 931.0600000000001
vertex 2500.03 9463.09 922.61
vertex 2500.03 9444.37 922.61
endloop
endfacet
facet normal -0.9999999999999999 0 0
outer loop
vertex 2500.03 9487.92 931.0600000000001
vertex 2500.03 9444.37 922.61
vertex 2500.03 9439.43 931.0600000000001
endloop
endfacet
facet normal -1 0 0
outer loop
vertex 2500.03 9640.54 931.0600000000001
vertex 2500.03 9635.73 922.61
vertex 2500.03 9616.880000000001 922.61
endloop
endfacet
facet normal -0.9999999999999999 0 0
outer loop
vertex 2500.03 9640.54 931.0600000000001
vertex 2500.03 9616.880000000001 922.61
vertex 2500.03 9592.050000000001 931.0600000000001
endloop
endfacet
facet normal -1 0 0
outer loop
vertex 2500.03 9463.09 922.61
vertex 2500.03 9449.7 915.98
vertex 2500.03 9448.14 915.98
endloop
endfacet
facet normal -1 0 0
outer loop
vertex 2500.03 9463.09 922.61
vertex 2500.03 9448.14 915.98
vertex 2500.03 9444.37 922.61
endloop
endfacet
facet normal -1 0 0
outer loop
vertex 2500.03 9635.73 922.61
vertex 2500.03 9631.83 915.98
vertex 2500.03 9630.4 915.98
endloop
endfacet
facet normal -1 0 0
outer loop
vertex 2500.03 9635.73 922.61
vertex 2500.03 9630.4 915.98
vertex 2500.03 9616.880000000001 922.61
endloop
endfacet
facet normal -1 0 0
outer loop
vertex 2500.03 9449.7 915.98
vertex 2500.03 9439.56 911.0400000000001
vertex 2500.03 9448.14 915.98
endloop
endfacet
facet normal -0.9999999999999999 0 0
outer loop
vertex 2500.03 9631.83 915.98
vertex 2500.03 9640.54 911.0400000000001
vertex 2500.03 9630.4 915.98
endloop
endfacet
facet normal -1 0 0
outer loop
vertex 2500.03 10941.970000000001 621.9200000000001
vertex 2500.03 10941.19 621.9200000000001
vertex 2500.03 10932.61 626.99
endloop
endfacet
facet normal -1 0 0
outer loop
vertex 2500.03 10941.970000000001 621.9200000000001
vertex 2500.03 10944.18 620.75
vertex 2500.03 10940.54 620.75
endloop
endfacet
facet normal -0.9999999999999999 0 0
outer loop
vertex 2500.03 10941.970000000001 621.9200000000001
vertex 2500.03 10940.54 620.75
vertex 2500.03 10941.19 621.9200000000001
endloop
endfacet
facet normal -0.9999999999999999 0 0
outer loop
vertex 2500.03 10944.18 620.75
vertex 2500.03 10956.140000000001 615.2900000000001
vertex 2500.03 10937.42 615.2900000000001
endloop
endfacet
facet normal -1 0 0
outer loop
vertex 2500.03 10944.18 620.75
vertex 2500.03 10937.42 615.2900000000001
vertex 2500.03 10940.54 620.75
endloop
endfacet
facet normal -1 0 0
outer loop
vertex 2500.03 10956.140000000001 615.2900000000001
vertex 2500.03 10968.49 610.61
vertex 2500.03 10934.69 610.61
endloop
endfacet
facet normal -1 0 0
outer loop
vertex 2500.03 10956.140000000001 615.2900000000001
vertex 2500.03 10934.69 610.61
vertex 2500.03 10937.42 615.2900000000001
endloop
endfacet
facet normal -1 0 0
outer loop
vertex 2500.03 10968.49 610.61
vertex 2500.03 10981.1 606.84
vertex 2500.03 10932.48 606.84
endloop
endfacet
facet normal -1 0 0
outer loop
vertex 2500.03 10968.49 610.61
vertex 2500.03 10932.48 606.84
vertex 2500.03 10934.69 610.61
endloop
endfacet
facet normal -1 0 0
outer loop
vertex 2500.03 10981.1 606.84
vertex 2500.03 10993.84 603.85
vertex 2500.03 10930.79 603.85
endloop
endfacet
facet normal -1 0 0
outer loop
vertex 2500.03 10981.1 606.84
vertex 2500.03 10930.79 603.85
vertex 2500.03 10932.48 606.84
endloop
endfacet
facet normal -1 0 0
outer loop
vertex 2500.03 10993.84 603.85
vertex 2500.03 11006.84 601.77
vertex 2500.03 10929.62 601.77
endloop
endfacet
facet normal -1 0 0
outer loop
vertex 2500.03 10993.84 603.85
vertex 2500.03 10929.62 601.77
vertex 2500.03 10930.79 603.85
endloop
endfacet
facet normal -1 0 0
outer loop
vertex 2500.03 11006.84 601.77
vertex 2500.03 11019.970000000001 600.47
vertex 2500.03 10928.84 600.47
endloop
endfacet
facet normal -1 0 0
outer loop
vertex 2500.03 11006.84 601.77
vertex 2500.03 10928.84 600.47
vertex 2500.03 10929.62 601.77
endloop
endfacet
facet normal -0.9999999999999999 0 0
outer loop
vertex 2500.03 10909.08 321.23
vertex 2500.03 11019.970000000001 600.47
vertex 2500.03 11033.1 599.95
endloop
endfacet
facet normal -1 0 0
outer loop
vertex 2500.03 10909.08 321.23
vertex 2500.03 11033.1 599.95
vertex 2500.03 11033.1 199.94
endloop
endfacet
facet normal -1 0 0
outer loop
vertex 2500.03 10909.08 321.23
vertex 2500.03 11033.1 199.94
vertex 2500.03 10993.84 201.24
endloop
endfacet
facet normal -1 0 0
outer loop
vertex 2500.03 10909.08 321.23
vertex 2500.03 10993.84 201.24
vertex 2500.03 10954.58 205.14000000000001
endloop
endfacet
facet normal -1 0 0
outer loop
vertex 2500.03 10909.08 321.23
vertex 2500.03 10954.58 205.14000000000001
vertex 2500.03 10915.84 211.51000000000002
endloop
endfacet
facet normal -1 0 0
outer loop
vertex 2500.03 10909.08 321.23
vertex 2500.03 10915.84 211.51000000000002
vertex 2500.03 10877.49 220.48000000000002
endloop
endfacet
facet normal -1 0 0
outer loop
vertex 2500.03 10909.08 321.23
vertex 2500.03 10877.49 220.48000000000002
vertex 2500.03 10839.92 231.92000000000002
endloop
endfacet
facet normal -1 0 0
outer loop
vertex 2500.03 10909.08 321.23
vertex 2500.03 10839.92 231.92000000000002
vertex 2500.03 10803.130000000001 245.70000000000002
endloop
endfacet
facet normal -1 0 0
outer loop
vertex 2500.03 10909.08 321.23
vertex 2500.03 10803.130000000001 245.70000000000002
vertex 2500.03 10767.25 261.95
endloop
endfacet
facet normal -0.9999999999999999 0 0
outer loop
vertex 2500.03 10909.08 321.23
vertex 2500.03 10767.25 261.95
vertex 2500.03 10741.380000000001 275.86
endloop
endfacet
facet normal -1 0 0
outer loop
vertex 2500.03 10909.08 321.23
vertex 2500.03 10741.380000000001 275.86
vertex 2500.03 10928.84 600.47
endloop
endfacet
facet normal -1 0 0
outer loop
vertex 2500.03 10909.08 321.23
vertex 2500.03 10928.84 600.47
vertex 2500.03 11019.970000000001 600.47
endloop
endfacet
facet normal 0 0.8659745299724443 -0.500088105676394
outer loop
vertex 2299.96 10732.54 280.54
vertex 2100.02 10732.54 280.54
vertex 2100.02 10932.61 626.99
endloop
endfacet
facet normal 0 0.8659745299724443 -0.500088105676394
outer loop
vertex 2299.96 10732.54 280.54
vertex 2100.02 10932.61 626.99
vertex 2299.96 10932.61 626.99
endloop
endfacet
facet normal 0 0.44229248412044925 0.8968708705775666
outer loop
vertex 2299.96 9631.050000000001 915.72
vertex 2500.03 9640.54 911.0400000000001
vertex 2299.96 9640.54 911.0400000000001
endloop
endfacet
facet normal 0 0.44229248412044925 0.8968708705775666
outer loop
vertex 2299.96 9631.050000000001 915.72
vertex 2299.96 9640.54 911.0400000000001
vertex 2100.02 9640.54 911.0400000000001
endloop
endfacet
facet normal -0.00017651280532586544 0.43929865124694534 0.8983410621004944
outer loop
vertex 2299.96 9631.050000000001 915.72
vertex 2100.02 9640.54 911.0400000000001
vertex 2100.02 9616.880000000001 922.61
endloop
endfacet
facet normal 0 0.43728539421900986 0.8993227918843852
outer loop
vertex 2299.96 9631.050000000001 915.72
vertex 2100.02 9616.880000000001 922.61
vertex 2500.03 9616.880000000001 922.61
endloop
endfacet
facet normal 0.0001763981121485868 0.439298651255836 0.8983410621186753
outer loop
vertex 2299.96 9631.050000000001 915.72
vertex 2500.03 9616.880000000001 922.61
vertex 2500.03 9640.54 911.0400000000001
endloop
endfacet
facet normal 0 0.3221692918656847 0.9466820730206964
outer loop
vertex 2500.03 9616.880000000001 922.61
vertex 2100.02 9616.880000000001 922.61
vertex 2100.02 9592.050000000001 931.0600000000001
endloop
endfacet
facet normal 0 0.3221692918656847 0.9466820730206964
outer loop
vertex 2500.03 9616.880000000001 922.61
vertex 2100.02 9592.050000000001 931.0600000000001
vertex 2500.03 9592.050000000001 931.0600000000001
endloop
endfacet
facet normal 0 0.1970634641004675 0.9803907338998691
outer loop
vertex 2500.03 9592.050000000001 931.0600000000001
vertex 2100.02 9592.050000000001 931.0600000000001
vertex 2100.02 9566.18 936.26
endloop
endfacet
facet normal 0 0.1970634641004675 0.9803907338998691
outer loop
vertex 2500.03 9592.050000000001 931.0600000000001
vertex 2100.02 9566.18 936.26
vertex 2500.03 9566.18 936.26
endloop
endfacet
facet normal 0 0.06454176659496504 0.9979150065836273
outer loop
vertex 2500.03 9566.18 936.26
vertex 2100.02 9566.18 936.26
vertex 2100.02 9540.050000000001 937.95
endloop
endfacet
facet normal 0 0.06454176659496504 0.9979150065836273
outer loop
vertex 2500.03 9566.18 936.26
vertex 2100.02 9540.050000000001 937.95
vertex 2500.03 9540.050000000001 937.95
endloop
endfacet
facet normal 0 -0.06422357405143274 0.9979355352607001
outer loop
vertex 2500.03 9540.050000000001 937.95
vertex 2100.02 9540.050000000001 937.95
vertex 2100.02 9513.79 936.26
endloop
endfacet
facet normal 0 -0.06422357405143274 0.9979355352607001
outer loop
vertex 2500.03 9540.050000000001 937.95
vertex 2100.02 9513.79 936.26
vertex 2500.03 9513.79 936.26
endloop
endfacet
facet normal 0 -0.1970634641004675 0.9803907338998691
outer loop
vertex 2500.03 9513.79 936.26
vertex 2100.02 9513.79 936.26
vertex 2100.02 9487.92 931.0600000000001
endloop
endfacet
facet normal 0 -0.1970634641004675 0.9803907338998691
outer loop
vertex 2500.03 9513.79 936.26
vertex 2100.02 9487.92 931.0600000000001
vertex 2500.03 9487.92 931.0600000000001
endloop
endfacet
facet normal 0 -0.3221692918656847 0.9466820730206964
outer loop
vertex 2500.03 9487.92 931.0600000000001
vertex 2100.02 9487.92 931.0600000000001
vertex 2100.02 9463.09 922.61
endloop
endfacet
facet normal 0 -0.3221692918656847 0.9466820730206964
outer loop
vertex 2500.03 9487.92 931.0600000000001
vertex 2100.02 9463.09 922.61
vertex 2500.03 9463.09 922.61
endloop
endfacet
facet normal 0 -0.43728539421900986 0.8993227918843852
outer loop
vertex 2299.96 9448.92 915.72
vertex 2500.03 9463.09 922.61
vertex 2100.02 9463.09 922.61
endloop
endfacet
facet normal -0.00034814987691040845 -0.4412541801051976 0.8973820966184656
outer loop
vertex 2299.96 9448.92 915.72
vertex 2100.02 9463.09 922.61
vertex 2100.02 9439.56 911.0400000000001
endloop
endfacet
facet normal 0 -0.44721359549993184 0.8944271909999288
outer loop
vertex 2299.96 9448.92 915.72
vertex 2100.02 9439.56 911.0400000000001
vertex 2299.96 9439.56 911.0400000000001
endloop
endfacet
facet normal 0 -0.4472135954999319 0.894427190999929
outer loop
vertex 2299.96 9448.92 915.72
vertex 2299.96 9439.56 911.0400000000001
vertex 2500.03 9439.56 911.0400000000001
endloop
endfacet
facet normal 0.0003479236586941945 -0.44125418013993856 0.8973820966891183
outer loop
vertex 2299.96 9448.92 915.72
vertex 2500.03 9439.56 911.0400000000001
vertex 2500.03 9463.09 922.61
endloop
endfacet
facet normal 0 0.3224214238241523 -0.9465962314837337
outer loop
vertex 2299.96 9339.720000000001 1302.3400000000001
vertex 2500.03 9309.95 1292.2
vertex 2299.96 9309.95 1292.2
endloop
endfacet
facet normal 0 0.32242142382415234 -0.9465962314837337
outer loop
vertex 2299.96 9339.720000000001 1302.3400000000001
vertex 2299.96 9309.95 1292.2
vertex 2100.02 9309.95 1292.2
endloop
endfacet
facet normal 0.000041894576278470475 0.32216929158295354 -0.9466820721899103
outer loop
vertex 2299.96 9339.720000000001 1302.3400000000001
vertex 2100.02 9309.95 1292.2
vertex 2100.02 9384.44 1317.55
endloop
endfacet
facet normal 0 0.3220014101853181 -0.9467391889209332
outer loop
vertex 2299.96 9339.720000000001 1302.3400000000001
vertex 2100.02 9384.44 1317.55
vertex 2500.03 9384.44 1317.55
endloop
endfacet
facet normal -0.00004186735433161859 0.3221692915833208 -0.9466820721909894
outer loop
vertex 2299.96 9339.720000000001 1302.3400000000001
vertex 2500.03 9384.44 1317.55
vertex 2500.03 9309.95 1292.2
endloop
endfacet
facet normal 0 0.19357017303054327 -0.9810864325394197
outer loop
vertex 2500.03 9384.44 1317.55
vertex 2100.02 9384.44 1317.55
vertex 2100.02 9461.53 1332.76
endloop
endfacet
facet normal 0 0.19357017303054327 -0.9810864325394197
outer loop
vertex 2500.03 9384.44 1317.55
vertex 2100.02 9461.53 1332.76
vertex 2500.03 9461.53 1332.76
endloop
endfacet
facet normal 0 0.06608041725738974 -0.9978143005865818
outer loop
vertex 2500.03 9461.53 1332.76
vertex 2100.02 9461.53 1332.76
vertex 2100.02 9540.050000000001 1337.96
endloop
endfacet
facet normal 0 0.06608041725738974 -0.9978143005865818
outer loop
vertex 2500.03 9461.53 1332.76
vertex 2100.02 9540.050000000001 1337.96
vertex 2500.03 9540.050000000001 1337.96
endloop
endfacet
facet normal 0 -0.06618952364885002 -0.9978070690063979
outer loop
vertex 2500.03 9540.050000000001 1337.96
vertex 2100.02 9540.050000000001 1337.96
vertex 2100.02 9618.44 1332.76
endloop
endfacet
facet normal 0 -0.06618952364885002 -0.9978070690063979
outer loop
vertex 2500.03 9540.050000000001 1337.96
vertex 2100.02 9618.44 1332.76
vertex 2500.03 9618.44 1332.76
endloop
endfacet
facet normal 0 -0.19357017303054327 -0.9810864325394197
outer loop
vertex 2500.03 9618.44 1332.76
vertex 2100.02 9618.44 1332.76
vertex 2100.02 9695.53 1317.55
endloop
endfacet
facet normal 0 -0.19357017303054327 -0.9810864325394197
outer loop
vertex 2500.03 9618.44 1332.76
vertex 2100.02 9695.53 1317.55
vertex 2500.03 9695.53 1317.55
endloop
endfacet
facet normal 0 -0.3220014101853181 -0.9467391889209332
outer loop
vertex 2299.96 9740.25 1302.3400000000001
vertex 2500.03 9695.53 1317.55
vertex 2100.02 9695.53 1317.55
endloop
endfacet
facet normal 0.000041894576278470475 -0.32216929158295354 -0.9466820721899103
outer loop
vertex 2299.96 9740.25 1302.3400000000001
vertex 2100.02 9695.53 1317.55
vertex 2100.02 9770.02 1292.2
endloop
endfacet
facet normal 0 -0.32242142382415234 -0.9465962314837337
outer loop
vertex 2299.96 9740.25 1302.3400000000001
vertex 2100.02 9770.02 1292.2
vertex 2299.96 9770.02 1292.2
endloop
endfacet
facet normal 0 -0.3224214238241523 -0.9465962314837337
outer loop
vertex 2299.96 9740.25 1302.3400000000001
vertex 2299.96 9770.02 1292.2
vertex 2500.03 9770.02 1292.2
endloop
endfacet
facet normal -0.00004186735433161859 -0.3221692915833208 -0.9466820721909894
outer loop
vertex 2299.96 9740.25 1302.3400000000001
vertex 2500.03 9770.02 1292.2
vertex 2500.03 9695.53 1317.55
endloop
endfacet
facet normal 0 -0.44189538262077876 -0.897066592187244
outer loop
vertex 2500.03 9770.02 1292.2
vertex 2299.96 9770.02 1292.2
vertex 2299.96 9831.51 1261.91
endloop
endfacet
facet normal 0 -0.44189538262077876 -0.897066592187244
outer loop
vertex 2500.03 9770.02 1292.2
vertex 2299.96 9831.51 1261.91
vertex 2500.03 9831.51 1261.91
endloop
endfacet
facet normal 0 -0.44190946184063146 -0.897059656620296
outer loop
vertex 2299.96 9770.02 1292.2
vertex 2100.02 9770.02 1292.2
vertex 2100.02 9840.48 1257.49
endloop
endfacet
facet normal 0 -0.44190946184063146 -0.897059656620296
outer loop
vertex 2299.96 9770.02 1292.2
vertex 2100.02 9840.48 1257.49
vertex 2299.96 9840.48 1257.49
endloop
endfacet
facet normal 0 -0.8661152397482267 0.4998443672543205
outer loop
vertex 2299.96 9840.48 1257.49
vertex 2100.02 9840.48 1257.49
vertex 2100.02 9640.54 911.0400000000001
endloop
endfacet
facet normal 0 -0.8661152397482267 0.4998443672543205
outer loop
vertex 2299.96 9840.48 1257.49
vertex 2100.02 9640.54 911.0400000000001
vertex 2299.96 9640.54 911.0400000000001
endloop
endfacet
facet normal 0 0.49999184119596674 0.8660301142209013
outer loop
vertex 2699.9700000000003 10741.25 275.47
vertex 2500.03 10741.25 275.47
vertex 2500.03 9631.83 915.98
endloop
endfacet
facet normal 0 0.49999184119596674 0.8660301142209013
outer loop
vertex 2699.9700000000003 10741.25 275.47
vertex 2500.03 9631.83 915.98
vertex 2699.9700000000003 9631.83 915.98
endloop
endfacet
facet normal 0 0.5000441281253788 0.8659999249003024
outer loop
vertex 2500.03 10741.25 275.47
vertex 2299.96 10741.25 275.47
vertex 2299.96 9640.54 911.0400000000001
endloop
endfacet
facet normal 0 0.5000441281253788 0.8659999249003024
outer loop
vertex 2500.03 10741.25 275.47
vertex 2299.96 9640.54 911.0400000000001
vertex 2500.03 9640.54 911.0400000000001
endloop
endfacet
facet normal 0 0.8659745299724443 -0.5000881056763938
outer loop
vertex 2699.9700000000003 9631.83 915.98
vertex 2500.03 9631.83 915.98
vertex 2500.03 9831.9 1262.43
endloop
endfacet
facet normal 0 0.8659745299724443 -0.5000881056763938
outer loop
vertex 2699.9700000000003 9631.83 915.98
vertex 2500.03 9831.9 1262.43
vertex 2699.9700000000003 9831.9 1262.43
endloop
endfacet
facet normal 0 0.8000000000004197 -0.5999999999994403
outer loop
vertex 2500.03 9831.51 1261.91
vertex 2299.96 9831.51 1261.91
vertex 2299.96 9831.9 1262.43
endloop
endfacet
facet normal 0 0.8000000000004197 -0.5999999999994403
outer loop
vertex 2500.03 9831.51 1261.91
vertex 2299.96 9831.9 1262.43
vertex 2500.03 9831.9 1262.43
endloop
endfacet
facet normal 0 -0.8661152397482267 -0.49984436725432035
outer loop
vertex 2699.9700000000003 9248.2 1262.43
vertex 2500.03 9248.2 1262.43
vertex 2500.03 9448.14 915.98
endloop
endfacet
facet normal 0 -0.8661152397482267 -0.49984436725432035
outer loop
vertex 2699.9700000000003 9248.2 1262.43
vertex 2500.03 9448.14 915.98
vertex 2699.9700000000003 9448.14 915.98
endloop
endfacet
facet normal 0 -0.8944271909997595 -0.44721359550027084
outer loop
vertex 2500.03 9248.2 1262.43
vertex 2299.96 9248.2 1262.43
vertex 2299.96 9248.460000000001 1261.91
endloop
endfacet
facet normal 0 -0.8944271909997595 -0.44721359550027084
outer loop
vertex 2500.03 9248.2 1262.43
vertex 2299.96 9248.460000000001 1261.91
vertex 2500.03 9248.460000000001 1261.91
endloop
endfacet
facet normal 0 -0.4999918411959674 0.8660301142209008
outer loop
vertex 2699.9700000000003 9448.14 915.98
vertex 2500.03 9448.14 915.98
vertex 2500.03 8338.720000000001 275.47
endloop
endfacet
facet normal 0 -0.4999918411959674 0.8660301142209008
outer loop
vertex 2699.9700000000003 9448.14 915.98
vertex 2500.03 8338.720000000001 275.47
vertex 2699.9700000000003 8338.720000000001 275.47
endloop
endfacet
facet normal 0 -0.4999998404967383 0.8660254958736701
outer loop
vertex 2500.03 9439.56 911.0400000000001
vertex 2299.96 9439.56 911.0400000000001
vertex 2299.96 8338.720000000001 275.47
endloop
endfacet
facet normal 0 -0.4999998404967383 0.8660254958736701
outer loop
vertex 2500.03 9439.56 911.0400000000001
vertex 2299.96 8338.720000000001 275.47
vertex 2500.03 8338.720000000001 275.47
endloop
endfacet
facet normal 0 0.44189538262077876 -0.897066592187244
outer loop
vertex 2500.03 9248.460000000001 1261.91
vertex 2299.96 9248.460000000001 1261.91
vertex 2299.96 9309.95 1292.2
endloop
endfacet
facet normal 0 0.44189538262077876 -0.897066592187244
outer loop
vertex 2500.03 9248.460000000001 1261.91
vertex 2299.96 9309.95 1292.2
vertex 2500.03 9309.95 1292.2
endloop
endfacet
facet normal 0 0.44190946184062224 -0.8970596566203004
outer loop
vertex 2299.96 9239.49 1257.49
vertex 2100.02 9239.49 1257.49
vertex 2100.02 9309.95 1292.2
endloop
endfacet
facet normal 0 0.44190946184062224 -0.8970596566203004
outer loop
vertex 2299.96 9239.49 1257.49
vertex 2100.02 9309.95 1292.2
vertex 2299.96 9309.95 1292.2
endloop
endfacet
facet normal 0 0.8659745299724443 0.5000881056763941
outer loop
vertex 2299.96 9439.56 911.0400000000001
vertex 2100.02 9439.56 911.0400000000001
vertex 2100.02 9239.49 1257.49
endloop
endfacet
facet normal 0 0.8659745299724443 0.5000881056763941
outer loop
vertex 2299.96 9439.56 911.0400000000001
vertex 2100.02 9239.49 1257.49
vertex 2299.96 9239.49 1257.49
endloop
endfacet
facet normal 0 -0.03294913285430193 0.9994570299138176
outer loop
vertex 2699.9700000000003 8062.6 200.46
vertex 2900.04 8086.26 201.24
vertex 2500.03 8086.26 201.24
endloop
endfacet
facet normal -0.000004289381158346292 -0.032985341107898844 0.9994558355693345
outer loop
vertex 2699.9700000000003 8062.6 200.46
vertex 2500.03 8086.26 201.24
vertex 2500.03 8046.87 199.94
endloop
endfacet
facet normal 0 -0.03303980286529999 0.9994540366753352
outer loop
vertex 2699.9700000000003 8062.6 200.46
vertex 2500.03 8046.87 199.94
vertex 2699.9700000000003 8046.87 199.94
endloop
endfacet
facet normal 0 -0.03303980286529999 0.9994540366753351
outer loop
vertex 2699.9700000000003 8062.6 200.46
vertex 2699.9700000000003 8046.87 199.94
vertex 2900.04 8046.87 199.94
endloop
endfacet
facet normal 0.0000042865940360862175 -0.03298534110789924 0.9994558355693466
outer loop
vertex 2699.9700000000003 8062.6 200.46
vertex 2900.04 8046.87 199.94
vertex 2900.04 8086.26 201.24
endloop
endfacet
facet normal 0 -0.09917639879003917 0.9950698678600609
outer loop
vertex 2900.04 8125.39 205.14000000000001
vertex 2500.03 8125.39 205.14000000000001
vertex 2500.03 8086.26 201.24
endloop
endfacet
facet normal 0 -0.09917639879003917 0.9950698678600609
outer loop
vertex 2900.04 8125.39 205.14000000000001
vertex 2500.03 8086.26 201.24
vertex 2900.04 8086.26 201.24
endloop
endfacet
facet normal 0 -0.16225076613788206 0.9867495573283377
outer loop
vertex 2900.04 8164.13 211.51000000000002
vertex 2500.03 8164.13 211.51000000000002
vertex 2500.03 8125.39 205.14000000000001
endloop
endfacet
facet normal 0 -0.16225076613788206 0.9867495573283377
outer loop
vertex 2900.04 8164.13 211.51000000000002
vertex 2500.03 8125.39 205.14000000000001
vertex 2900.04 8125.39 205.14000000000001
endloop
endfacet
facet normal 0 -0.22775130220384684 0.9737193355091867
outer loop
vertex 2900.04 8202.48 220.48000000000002
vertex 2500.03 8202.48 220.48000000000002
vertex 2500.03 8164.13 211.51000000000002
endloop
endfacet
facet normal 0 -0.22775130220384684 0.9737193355091867
outer loop
vertex 2900.04 8202.48 220.48000000000002
vertex 2500.03 8164.13 211.51000000000002
vertex 2900.04 8164.13 211.51000000000002
endloop
endfacet
facet normal 0 -0.29129333185416956 0.9566337830211186
outer loop
vertex 2900.04 8240.050000000001 231.92000000000002
vertex 2500.03 8240.050000000001 231.92000000000002
vertex 2500.03 8202.48 220.48000000000002
endloop
endfacet
facet normal 0 -0.29129333185416956 0.9566337830211186
outer loop
vertex 2900.04 8240.050000000001 231.92000000000002
vertex 2500.03 8202.48 220.48000000000002
vertex 2900.04 8202.48 220.48000000000002
endloop
endfacet
facet normal 0 -0.3507607781097757 0.9364650962741883
outer loop
vertex 2900.04 8276.84 245.70000000000002
vertex 2500.03 8276.84 245.70000000000002
vertex 2500.03 8240.050000000001 231.92000000000002
endloop
endfacet
facet normal 0 -0.3507607781097757 0.9364650962741883
outer loop
vertex 2900.04 8276.84 245.70000000000002
vertex 2500.03 8240.050000000001 231.92000000000002
vertex 2900.04 8240.050000000001 231.92000000000002
endloop
endfacet
facet normal 0 -0.4138029443011563 0.9103664774626173
outer loop
vertex 2699.9700000000003 8298.42 255.45000000000002
vertex 2900.04 8312.720000000001 261.95
vertex 2699.9700000000003 8312.720000000001 261.95
endloop
endfacet
facet normal 0 -0.41380294430115633 0.9103664774626173
outer loop
vertex 2699.9700000000003 8298.42 255.45000000000002
vertex 2699.9700000000003 8312.720000000001 261.95
vertex 2500.03 8312.720000000001 261.95
endloop
endfacet
facet normal 0.00010729758824738196 -0.4125592268169146 0.9109307728117748
outer loop
vertex 2699.9700000000003 8298.42 255.45000000000002
vertex 2500.03 8312.720000000001 261.95
vertex 2500.03 8276.84 245.70000000000002
endloop
endfacet
facet normal 0 -0.41173380721892744 0.9113041599778896
outer loop
vertex 2699.9700000000003 8298.42 255.45000000000002
vertex 2500.03 8276.84 245.70000000000002
vertex 2900.04 8276.84 245.70000000000002
endloop
endfacet
facet normal -0.00010722786921748395 -0.41255922681999974 0.910930772818587
outer loop
vertex 2699.9700000000003 8298.42 255.45000000000002
vertex 2900.04 8276.84 245.70000000000002
vertex 2900.04 8312.720000000001 261.95
endloop
endfacet
facet normal 0 -0.4721297895545673 0.8815290476298328
outer loop
vertex 2900.04 8347.43 280.54
vertex 2699.9700000000003 8347.43 280.54
vertex 2699.9700000000003 8312.720000000001 261.95
endloop
endfacet
facet normal 0 -0.4721297895545673 0.8815290476298328
outer loop
vertex 2900.04 8347.43 280.54
vertex 2699.9700000000003 8312.720000000001 261.95
vertex 2900.04 8312.720000000001 261.95
endloop
endfacet
facet normal 0 -0.47357187755667146 0.8807551741474182
outer loop
vertex 2699.9700000000003 8338.59 275.86
vertex 2500.03 8338.59 275.86
vertex 2500.03 8312.720000000001 261.95
endloop
endfacet
facet normal 0 -0.47357187755667146 0.8807551741474182
outer loop
vertex 2699.9700000000003 8338.59 275.86
vertex 2500.03 8312.720000000001 261.95
vertex 2699.9700000000003 8312.720000000001 261.95
endloop
endfacet
facet normal 0 0.48001141538935405 -0.8772622419185206
outer loop
vertex 2699.9700000000003 8142.68 624.52
vertex 2900.04 8135.79 620.75
vertex 2500.03 8135.79 620.75
endloop
endfacet
facet normal 0.00023791055930159137 0.4746894359427117 -0.8801533291438237
outer loop
vertex 2699.9700000000003 8142.68 624.52
vertex 2500.03 8135.79 620.75
vertex 2500.03 8147.360000000001 626.99
endloop
endfacet
facet normal 0 0.46675861955810416 -0.8843847528469795
outer loop
vertex 2699.9700000000003 8142.68 624.52
vertex 2500.03 8147.360000000001 626.99
vertex 2699.9700000000003 8147.360000000001 626.99
endloop
endfacet
facet normal 0 0.46675861955810416 -0.8843847528469795
outer loop
vertex 2699.9700000000003 8142.68 624.52
vertex 2699.9700000000003 8147.360000000001 626.99
vertex 2900.04 8147.360000000001 626.99
endloop
endfacet
facet normal -0.00023775597155250235 0.47468943596016416 -0.8801533291761835
outer loop
vertex 2699.9700000000003 8142.68 624.52
vertex 2900.04 8147.360000000001 626.99
vertex 2900.04 8135.79 620.75
endloop
endfacet
facet normal 0 0.41529234958963995 -0.9096880038630366
outer loop
vertex 2900.04 8123.83 615.2900000000001
vertex 2500.03 8123.83 615.2900000000001
vertex 2500.03 8135.79 620.75
endloop
endfacet
facet normal 0 0.41529234958963995 -0.9096880038630366
outer loop
vertex 2900.04 8123.83 615.2900000000001
vertex 2500.03 8135.79 620.75
vertex 2900.04 8135.79 620.75
endloop
endfacet
facet normal 0 0.35435748586422966 -0.9351100321416631
outer loop
vertex 2900.04 8111.4800000000005 610.61
vertex 2500.03 8111.4800000000005 610.61
vertex 2500.03 8123.83 615.2900000000001
endloop
endfacet
facet normal 0 0.35435748586422966 -0.9351100321416631
outer loop
vertex 2900.04 8111.4800000000005 610.61
vertex 2500.03 8123.83 615.2900000000001
vertex 2900.04 8123.83 615.2900000000001
endloop
endfacet
facet normal 0 0.28644158302836764 -0.958097708750106
outer loop
vertex 2900.04 8098.87 606.84
vertex 2500.03 8098.87 606.84
vertex 2500.03 8111.4800000000005 610.61
endloop
endfacet
facet normal 0 0.28644158302836764 -0.958097708750106
outer loop
vertex 2900.04 8098.87 606.84
vertex 2500.03 8111.4800000000005 610.61
vertex 2900.04 8111.4800000000005 610.61
endloop
endfacet
facet normal 0 0.22848558961130067 -0.9735472948655223
outer loop
vertex 2900.04 8086.13 603.85
vertex 2500.03 8086.13 603.85
vertex 2500.03 8098.87 606.84
endloop
endfacet
facet normal 0 0.22848558961130067 -0.9735472948655223
outer loop
vertex 2900.04 8086.13 603.85
vertex 2500.03 8098.87 606.84
vertex 2900.04 8098.87 606.84
endloop
endfacet
facet normal 0 0.15799050110667587 -0.9874406319167048
outer loop
vertex 2900.04 8073.13 601.77
vertex 2500.03 8073.13 601.77
vertex 2500.03 8086.13 603.85
endloop
endfacet
facet normal 0 0.15799050110667587 -0.9874406319167048
outer loop
vertex 2900.04 8073.13 601.77
vertex 2500.03 8086.13 603.85
vertex 2900.04 8086.13 603.85
endloop
endfacet
facet normal 0 0.09852814501284891 -0.9951342646298172
outer loop
vertex 2900.04 8060 600.47
vertex 2500.03 8060 600.47
vertex 2500.03 8073.13 601.77
endloop
endfacet
facet normal 0 0.09852814501284891 -0.9951342646298172
outer loop
vertex 2900.04 8060 600.47
vertex 2500.03 8073.13 601.77
vertex 2900.04 8073.13 601.77
endloop
endfacet
facet normal 0 0.04993761694388352 -0.998752338877845
outer loop
vertex 2699.9700000000003 8052.070000000001 600.21
vertex 2900.04 8046.87 599.95
vertex 2699.9700000000003 8046.87 599.95
endloop
endfacet
facet normal 0 0.04993761694388352 -0.9987523388778452
outer loop
vertex 2699.9700000000003 8052.070000000001 600.21
vertex 2699.9700000000003 8046.87 599.95
vertex 2500.03 8046.87 599.95
endloop
endfacet
facet normal 0.00027016634189498825 0.039572936555685424 -0.9992166480311002
outer loop
vertex 2699.9700000000003 8052.070000000001 600.21
vertex 2500.03 8046.87 599.95
vertex 2500.03 8060 600.47
endloop
endfacet
facet normal 0 0.03276927682076303 -0.9994629430332294
outer loop
vertex 2699.9700000000003 8052.070000000001 600.21
vertex 2500.03 8060 600.47
vertex 2900.04 8060 600.47
endloop
endfacet
facet normal -0.0002699907952268959 0.039572936557561625 -0.9992166480784743
outer loop
vertex 2699.9700000000003 8052.070000000001 600.21
vertex 2900.04 8060 600.47
vertex 2900.04 8046.87 599.95
endloop
endfacet
facet normal -1 0 0
outer loop
vertex 2900.04 8151 620.75
vertex 2900.04 8135.79 620.75
vertex 2900.04 8147.360000000001 626.99
endloop
endfacet
facet normal -1 0 0
outer loop
vertex 2900.04 8151 620.75
vertex 2900.04 8154.12 615.2900000000001
vertex 2900.04 8123.83 615.2900000000001
endloop
endfacet
facet normal -1 0 0
outer loop
vertex 2900.04 8151 620.75
vertex 2900.04 8123.83 615.2900000000001
vertex 2900.04 8135.79 620.75
endloop
endfacet
facet normal -1 0 0
outer loop
vertex 2900.04 8154.12 615.2900000000001
vertex 2900.04 8156.85 610.61
vertex 2900.04 8111.4800000000005 610.61
endloop
endfacet
facet normal -1 0 0
outer loop
vertex 2900.04 8154.12 615.2900000000001
vertex 2900.04 8111.4800000000005 610.61
vertex 2900.04 8123.83 615.2900000000001
endloop
endfacet
facet normal -1 0 0
outer loop
vertex 2900.04 8156.85 610.61
vertex 2900.04 8159.06 606.84
vertex 2900.04 8098.87 606.84
endloop
endfacet
facet normal -1 0 0
outer loop
vertex 2900.04 8156.85 610.61
vertex 2900.04 8098.87 606.84
vertex 2900.04 8111.4800000000005 610.61
endloop
endfacet
facet normal -0.9999999999999999 0 0
outer loop
vertex 2900.04 8159.06 606.84
vertex 2900.04 8160.75 603.85
vertex 2900.04 8086.13 603.85
endloop
endfacet
facet normal -1 0 0
outer loop
vertex 2900.04 8159.06 606.84
vertex 2900.04 8086.13 603.85
vertex 2900.04 8098.87 606.84
endloop
endfacet
facet normal -1 0 0
outer loop
vertex 2900.04 8160.75 603.85
vertex 2900.04 8161.92 601.77
vertex 2900.04 8073.13 601.77
endloop
endfacet
facet normal -1 0 0
outer loop
vertex 2900.04 8160.75 603.85
vertex 2900.04 8073.13 601.77
vertex 2900.04 8086.13 603.85
endloop
endfacet
facet normal -0.9999999999999999 0 0
outer loop
vertex 2900.04 8161.92 601.77
vertex 2900.04 8162.700000000001 600.47
vertex 2900.04 8060 600.47
endloop
endfacet
facet normal -0.9999999999999999 0 0
outer loop
vertex 2900.04 8161.92 601.77
vertex 2900.04 8060 600.47
vertex 2900.04 8073.13 601.77
endloop
endfacet
facet normal -1 0 0
outer loop
vertex 2900.04 8172.58 321.62
vertex 2900.04 8162.700000000001 600.47
vertex 2900.04 8347.43 280.54
endloop
endfacet
facet normal -1 0 0
outer loop
vertex 2900.04 8172.58 321.62
vertex 2900.04 8347.43 280.54
vertex 2900.04 8312.720000000001 261.95
endloop
endfacet
facet normal -1 0 0
outer loop
vertex 2900.04 8172.58 321.62
vertex 2900.04 8312.720000000001 261.95
vertex 2900.04 8276.84 245.70000000000002
endloop
endfacet
facet normal -1 0 0
outer loop
vertex 2900.04 8172.58 321.62
vertex 2900.04 8276.84 245.70000000000002
vertex 2900.04 8240.050000000001 231.92000000000002
endloop
endfacet
facet normal -1 0 0
outer loop
vertex 2900.04 8172.58 321.62
vertex 2900.04 8240.050000000001 231.92000000000002
vertex 2900.04 8202.48 220.48000000000002
endloop
endfacet
facet normal -1 0 0
outer loop
vertex 2900.04 8172.58 321.62
vertex 2900.04 8202.48 220.48000000000002
vertex 2900.04 8164.13 211.51000000000002
endloop
endfacet
facet normal -1 0 0
outer loop
vertex 2900.04 8172.58 321.62
vertex 2900.04 8164.13 211.51000000000002
vertex 2900.04 8125.39 205.14000000000001
endloop
endfacet
facet normal -1 0 0
outer loop
vertex 2900.04 8172.58 321.62
vertex 2900.04 8125.39 205.14000000000001
vertex 2900.04 8086.26 201.24
endloop
endfacet
facet normal -1 0 0
outer loop
vertex 2900.04 8172.58 321.62
vertex 2900.04 8086.26 201.24
vertex 2900.04 8046.87 199.94
endloop
endfacet
facet normal -1 0 0
outer loop
vertex 2900.04 8172.58 321.62
vertex 2900.04 8046.87 199.94
vertex 2900.04 8046.87 599.95
endloop
endfacet
facet normal -1 0 0
outer loop
vertex 2900.04 8172.58 321.62
vertex 2900.04 8046.87 599.95
vertex 2900.04 8060 600.47
endloop
endfacet
facet normal -0.9999999999999999 0 0
outer loop
vertex 2900.04 8172.58 321.62
vertex 2900.04 8060 600.47
vertex 2900.04 8162.700000000001 600.47
endloop
endfacet
facet normal 1 0 0
outer loop
vertex 2500.03 8138 621.9200000000001
vertex 2500.03 8138.780000000001 621.9200000000001
vertex 2500.03 8147.360000000001 626.99
endloop
endfacet
facet normal 1 0 0
outer loop
vertex 2500.03 8138 621.9200000000001
vertex 2500.03 8135.79 620.75
vertex 2500.03 8139.43 620.75
endloop
endfacet
facet normal 0.9999999999999999 0 0
outer loop
vertex 2500.03 8138 621.9200000000001
vertex 2500.03 8139.43 620.75
vertex 2500.03 8138.780000000001 621.9200000000001
endloop
endfacet
facet normal 1 0 0
outer loop
vertex 2500.03 8135.79 620.75
vertex 2500.03 8123.83 615.2900000000001
vertex 2500.03 8142.55 615.2900000000001
endloop
endfacet
facet normal 1 0 0
outer loop
vertex 2500.03 8135.79 620.75
vertex 2500.03 8142.55 615.2900000000001
vertex 2500.03 8139.43 620.75
endloop
endfacet
facet normal 1 0 0
outer loop
vertex 2500.03 8123.83 615.2900000000001
vertex 2500.03 8111.4800000000005 610.61
vertex 2500.03 8145.280000000001 610.61
endloop
endfacet
facet normal 1 0 0
outer loop
vertex 2500.03 8123.83 615.2900000000001
vertex 2500.03 8145.280000000001 610.61
vertex 2500.03 8142.55 615.2900000000001
endloop
endfacet
facet normal 1 0 0
outer loop
vertex 2500.03 8111.4800000000005 610.61
vertex 2500.03 8098.87 606.84
vertex 2500.03 8147.490000000001 606.84
endloop
endfacet
facet normal 0.9999999999999999 0 0
outer loop
vertex 2500.03 8111.4800000000005 610.61
vertex 2500.03 8147.490000000001 606.84
vertex 2500.03 8145.280000000001 610.61
endloop
endfacet
facet normal 1 0 0
outer loop
vertex 2500.03 8098.87 606.84
vertex 2500.03 8086.13 603.85
vertex 2500.03 8149.18 603.85
endloop
endfacet
facet normal 1 0 0
outer loop
vertex 2500.03 8098.87 606.84
vertex 2500.03 8149.18 603.85
vertex 2500.03 8147.490000000001 606.84
endloop
endfacet
facet normal 1 0 0
outer loop
vertex 2500.03 8086.13 603.85
vertex 2500.03 8073.13 601.77
vertex 2500.03 8150.4800000000005 601.77
endloop
endfacet
facet normal 1 0 0
outer loop
vertex 2500.03 8086.13 603.85
vertex 2500.03 8150.4800000000005 601.77
vertex 2500.03 8149.18 603.85
endloop
endfacet
facet normal 0.9999999999999999 0 0
outer loop
vertex 2500.03 8073.13 601.77
vertex 2500.03 8060 600.47
vertex 2500.03 8151.13 600.47
endloop
endfacet
facet normal 0.9999999999999999 0 0
outer loop
vertex 2500.03 8073.13 601.77
vertex 2500.03 8151.13 600.47
vertex 2500.03 8150.4800000000005 601.77
endloop
endfacet
facet normal 1 0 0
outer loop
vertex 2500.03 8170.89 321.23
vertex 2500.03 8060 600.47
vertex 2500.03 8046.87 599.95
endloop
endfacet
facet normal 1 0 0
outer loop
vertex 2500.03 8170.89 321.23
vertex 2500.03 8046.87 599.95
vertex 2500.03 8046.87 199.94
endloop
endfacet
facet normal 1 0 0
outer loop
vertex 2500.03 8170.89 321.23
vertex 2500.03 8046.87 199.94
vertex 2500.03 8086.26 201.24
endloop
endfacet
facet normal 1 0 0
outer loop
vertex 2500.03 8170.89 321.23
vertex 2500.03 8086.26 201.24
vertex 2500.03 8125.39 205.14000000000001
endloop
endfacet
facet normal 1 0 0
outer loop
vertex 2500.03 8170.89 321.23
vertex 2500.03 8125.39 205.14000000000001
vertex 2500.03 8164.13 211.51000000000002
endloop
endfacet
facet normal 1 0 0
outer loop
vertex 2500.03 8170.89 321.23
vertex 2500.03 8164.13 211.51000000000002
vertex 2500.03 8202.48 220.48000000000002
endloop
endfacet
facet normal 1 0 0
outer loop
vertex 2500.03 8170.89 321.23
vertex 2500.03 8202.48 220.48000000000002
vertex 2500.03 8240.050000000001 231.92000000000002
endloop
endfacet
facet normal 1 0 0
outer loop
vertex 2500.03 8170.89 321.23
vertex 2500.03 8240.050000000001 231.92000000000002
vertex 2500.03 8276.84 245.70000000000002
endloop
endfacet
facet normal 1 0 0
outer loop
vertex 2500.03 8170.89 321.23
vertex 2500.03 8276.84 245.70000000000002
vertex 2500.03 8312.720000000001 261.95
endloop
endfacet
facet normal 1 0 0
outer loop
vertex 2500.03 8170.89 321.23
vertex 2500.03 8312.720000000001 261.95
vertex 2500.03 8338.59 275.86
endloop
endfacet
facet normal 1 0 0
outer loop
vertex 2500.03 8170.89 321.23
vertex 2500.03 8338.59 275.86
vertex 2500.03 8151.13 600.47
endloop
endfacet
facet normal 1 0 0
outer loop
vertex 2500.03 8170.89 321.23
vertex 2500.03 8151.13 600.47
vertex 2500.03 8060 600.47
endloop
endfacet
facet normal 0 -0.8659745299724443 -0.500088105676394
outer loop
vertex 2900.04 8147.360000000001 626.99
vertex 2699.9700000000003 8147.360000000001 626.99
vertex 2699.9700000000003 8347.43 280.54
endloop
endfacet
facet normal 0 -0.8659745299724443 -0.500088105676394
outer loop
vertex 2900.04 8147.360000000001 626.99
vertex 2699.9700000000003 8347.43 280.54
vertex 2900.04 8347.43 280.54
endloop
endfacet
facet normal 0 0.948683298049767 0.316227766019078
outer loop
vertex 2699.9700000000003 8338.720000000001 275.47
vertex 2500.03 8338.720000000001 275.47
vertex 2500.03 8338.59 275.86
endloop
endfacet
facet normal 0 0.948683298049767 0.316227766019078
outer loop
vertex 2699.9700000000003 8338.720000000001 275.47
vertex 2500.03 8338.59 275.86
vertex 2699.9700000000003 8338.59 275.86
endloop
endfacet
facet normal 0 0.8661152397482247 0.49984436725432374
outer loop
vertex 2500.03 8338.720000000001 275.47
vertex 2299.96 8338.720000000001 275.47
vertex 2299.96 8138.780000000001 621.9200000000001
endloop
endfacet
facet normal 0 0.8661152397482247 0.49984436725432374
outer loop
vertex 2500.03 8338.720000000001 275.47
vertex 2299.96 8138.780000000001 621.9200000000001
vertex 2500.03 8138.780000000001 621.9200000000001
endloop
endfacet
facet normal 0 0.49992313181926923 -0.8660697791009763
outer loop
vertex 2699.9700000000003 8147.360000000001 626.99
vertex 2500.03 8147.360000000001 626.99
vertex 2500.03 9248.2 1262.43
endloop
endfacet
facet normal 0 0.49992313181926923 -0.8660697791009763
outer loop
vertex 2699.9700000000003 8147.360000000001 626.99
vertex 2500.03 9248.2 1262.43
vertex 2699.9700000000003 9248.2 1262.43
endloop
endfacet
facet normal 0 0.49999184119596674 -0.8660301142209013
outer loop
vertex 2500.03 8138.780000000001 621.9200000000001
vertex 2299.96 8138.780000000001 621.9200000000001
vertex 2299.96 9248.2 1262.43
endloop
endfacet
facet normal 0 0.49999184119596674 -0.8660301142209013
outer loop
vertex 2500.03 8138.780000000001 621.9200000000001
vertex 2299.96 9248.2 1262.43
vertex 2500.03 9248.2 1262.43
endloop
endfacet
facet normal 0 1 0
outer loop
vertex 2299.96 6500 599.95
vertex 2699.9700000000003 6500 599.95
vertex 2699.9700000000003 6500 199.94
endloop
endfacet
facet normal 0 1 0
outer loop
vertex 2299.96 6500 599.95
vertex 2699.9700000000003 6500 199.94
vertex 2299.96 6500 199.94
endloop
endfacet
facet normal 0 -1 0
outer loop
vertex 2500.03 8046.87 199.94
vertex 2500.03 8046.87 599.95
vertex 2299.96 8046.87 599.95
endloop
endfacet
facet normal 0 -1 0
outer loop
vertex 2500.03 8046.87 199.94
vertex 2299.96 8046.87 599.95
vertex 2299.96 8046.87 199.94
endloop
endfacet
facet normal 0 1 0
outer loop
vertex 2900.04 8046.87 599.95
vertex 2900.04 8046.87 199.94
vertex 2699.9700000000003 8046.87 199.94
endloop
endfacet
facet normal 0 1 0
outer loop
vertex 2900.04 8046.87 599.95
vertex 2699.9700000000003 8046.87 199.94
vertex 2699.9700000000003 8046.87 599.95
endloop
endfacet
endsolid JSCAD
