solid JSCAD
facet normal -1 0 0
outer loop
vertex 0 0 0
vertex 0 0 3999.9700000000003
vertex 0 15000.050000000001 3999.9700000000003
endloop
endfacet
facet normal -1 0 0
outer loop
vertex 0 0 0
vertex 0 15000.050000000001 3999.9700000000003
vertex 0 15000.050000000001 0
endloop
endfacet
facet normal 1 0 0
outer loop
vertex 19999.98 0 0
vertex 19999.98 15000.050000000001 0
vertex 19999.98 15000.050000000001 3999.9700000000003
endloop
endfacet
facet normal 1 0 0
outer loop
vertex 19999.98 0 0
vertex 19999.98 15000.050000000001 3999.9700000000003
vertex 19999.98 0 3999.9700000000003
endloop
endfacet
facet normal 0 -1 0
outer loop
vertex 0 0 0
vertex 19999.98 0 0
vertex 19999.98 0 3999.9700000000003
endloop
endfacet
facet normal 0 -1 0
outer loop
vertex 0 0 0
vertex 19999.98 0 3999.9700000000003
vertex 0 0 3999.9700000000003
endloop
endfacet
facet normal 0 1 0
outer loop
vertex 0 15000.050000000001 0
vertex 0 15000.050000000001 3999.9700000000003
vertex 19999.98 15000.050000000001 3999.9700000000003
endloop
endfacet
facet normal 0 1 0
outer loop
vertex 0 15000.050000000001 0
vertex 19999.98 15000.050000000001 3999.9700000000003
vertex 19999.98 15000.050000000001 0
endloop
endfacet
facet normal 0 0 -1
outer loop
vertex 0 0 0
vertex 0 15000.050000000001 0
vertex 19999.98 15000.050000000001 0
endloop
endfacet
facet normal 0 0 -1
outer loop
vertex 0 0 0
vertex 19999.98 15000.050000000001 0
vertex 19999.98 0 0
endloop
endfacet
facet normal 0 0 1
outer loop
vertex 0 0 3999.9700000000003
vertex 19999.98 0 3999.9700000000003
vertex 19999.98 15000.050000000001 3999.9700000000003
endloop
endfacet
facet normal 0 0 1
outer loop
vertex 0 0 3999.9700000000003
vertex 19999.98 15000.050000000001 3999.9700000000003
vertex 0 15000.050000000001 3999.9700000000003
endloop
endfacet
facet normal 0.9912262499956094 -0.13217609965361268 0
outer loop
vertex 999.96 3000.01 599.95
vertex 999.96 3000.01 199.94
vertex 2000.0500000000002 10499.970000000001 199.94
endloop
endfacet
facet normal 0.9912262499956094 -0.13217609965361268 0
outer loop
vertex 999.96 3000.01 599.95
vertex 2000.0500000000002 10499.970000000001 199.94
vertex 2000.0500000000002 10499.970000000001 599.95
endloop
endfacet
facet normal -0.5144760833608959 0.8575047286456399 0
outer loop
vertex 3499.9900000000002 4499.95 599.95
vertex 3499.9900000000002 4499.95 199.94
vertex 999.96 3000.01 199.94
endloop
endfacet
facet normal -0.5144760833608959 0.8575047286456399 0
outer loop
vertex 3499.9900000000002 4499.95 599.95
vertex 999.96 3000.01 199.94
vertex 999.96 3000.01 599.95
endloop
endfacet
facet normal -0.9701449730052196 -0.24252573338246353 0
outer loop
vertex 2000.0500000000002 10499.970000000001 599.95
vertex 2000.0500000000002 10499.970000000001 199.94
vertex 3499.9900000000002 4499.95 199.94
endloop
endfacet
facet normal -0.9701449730052196 -0.24252573338246353 0
outer loop
vertex 2000.0500000000002 10499.970000000001 599.95
vertex 3499.9900000000002 4499.95 199.94
vertex 3499.9900000000002 4499.95 599.95
endloop
endfacet
facet normal 0 0 -1
outer loop
vertex 999.96 3000.01 599.95
vertex 2000.0500000000002 10499.970000000001 599.95
vertex 3499.9900000000002 4499.95 599.95
endloop
endfacet
facet normal 0 0 1
outer loop
vertex 3499.9900000000002 4499.95 199.94
vertex 2000.0500000000002 10499.970000000001 199.94
vertex 999.96 3000.01 199.94
endloop
endfacet
facet normal -0.7999968799779519 -0.600004160006864 0
outer loop
vertex 10999.95 9999.99 1399.97
vertex 10999.95 9999.99 999.96
vertex 13999.960000000001 6000.02 999.96
endloop
endfacet
facet normal -0.7999968799779519 -0.600004160006864 0
outer loop
vertex 10999.95 9999.99 1399.97
vertex 13999.960000000001 6000.02 999.96
vertex 13999.960000000001 6000.02 1399.97
endloop
endfacet
facet normal 0.8741632321607672 -0.4856322101531576 0
outer loop
vertex 8500.050000000001 5500.04 1399.97
vertex 8500.050000000001 5500.04 999.96
vertex 10999.95 9999.99 999.96
endloop
endfacet
facet normal 0.8741632321607672 -0.4856322101531576 0
outer loop
vertex 8500.050000000001 5500.04 1399.97
vertex 10999.95 9999.99 999.96
vertex 10999.95 9999.99 1399.97
endloop
endfacet
facet normal 0.5547085166172335 0.8320447473497493 0
outer loop
vertex 11500.06 3499.9900000000002 1399.97
vertex 11500.06 3499.9900000000002 999.96
vertex 8500.050000000001 5500.04 999.96
endloop
endfacet
facet normal 0.5547085166172335 0.8320447473497493 0
outer loop
vertex 11500.06 3499.9900000000002 1399.97
vertex 8500.050000000001 5500.04 999.96
vertex 8500.050000000001 5500.04 1399.97
endloop
endfacet
facet normal -0.7071251659812336 0.7070883959138438 0
outer loop
vertex 13999.960000000001 6000.02 1399.97
vertex 13999.960000000001 6000.02 999.96
vertex 11500.06 3499.9900000000002 999.96
endloop
endfacet
facet normal -0.7071251659812336 0.7070883959138438 0
outer loop
vertex 13999.960000000001 6000.02 1399.97
vertex 11500.06 3499.9900000000002 999.96
vertex 11500.06 3499.9900000000002 1399.97
endloop
endfacet
facet normal 0 0 -1
outer loop
vertex 18000.06 9999.99 1399.97
vertex 16000.01 8500.050000000001 1399.97
vertex 13999.960000000001 10499.970000000001 1399.97
endloop
endfacet
facet normal 0 0 -1
outer loop
vertex 18000.06 9999.99 1399.97
vertex 13999.960000000001 10499.970000000001 1399.97
vertex 16000.01 12500.02 1399.97
endloop
endfacet
facet normal 0 0 -0.9999999999999999
outer loop
vertex 13999.960000000001 6000.02 1399.97
vertex 11500.06 3499.9900000000002 1399.97
vertex 8500.050000000001 5500.04 1399.97
endloop
endfacet
facet normal 0 0 -1
outer loop
vertex 13999.960000000001 6000.02 1399.97
vertex 8500.050000000001 5500.04 1399.97
vertex 10999.95 9999.99 1399.97
endloop
endfacet
facet normal 0 0 1
outer loop
vertex 13999.960000000001 10499.970000000001 999.96
vertex 16000.01 8500.050000000001 999.96
vertex 18000.06 9999.99 999.96
endloop
endfacet
facet normal 0 0 1
outer loop
vertex 13999.960000000001 10499.970000000001 999.96
vertex 18000.06 9999.99 999.96
vertex 16000.01 12500.02 999.96
endloop
endfacet
facet normal 0 0 0.9999999999999999
outer loop
vertex 8500.050000000001 5500.04 999.96
vertex 11500.06 3499.9900000000002 999.96
vertex 13999.960000000001 6000.02 999.96
endloop
endfacet
facet normal 0 0 1
outer loop
vertex 8500.050000000001 5500.04 999.96
vertex 13999.960000000001 6000.02 999.96
vertex 10999.95 9999.99 999.96
endloop
endfacet
facet normal 0.7071067811865476 -0.7071067811865476 0
outer loop
vertex 13999.960000000001 10499.970000000001 1399.97
vertex 13999.960000000001 10499.970000000001 999.96
vertex 16000.01 12500.02 999.96
endloop
endfacet
facet normal 0.7071067811865476 -0.7071067811865476 0
outer loop
vertex 13999.960000000001 10499.970000000001 1399.97
vertex 16000.01 12500.02 999.96
vertex 16000.01 12500.02 1399.97
endloop
endfacet
facet normal 0.7070837996703664 0.7071297619558361 0
outer loop
vertex 16000.01 8500.050000000001 1399.97
vertex 16000.01 8500.050000000001 999.96
vertex 13999.960000000001 10499.970000000001 999.96
endloop
endfacet
facet normal 0.7070837996703664 0.7071297619558361 0
outer loop
vertex 16000.01 8500.050000000001 1399.97
vertex 13999.960000000001 10499.970000000001 999.96
vertex 13999.960000000001 10499.970000000001 1399.97
endloop
endfacet
facet normal -0.5999750397479167 0.8000187195806647 0
outer loop
vertex 18000.06 9999.99 1399.97
vertex 18000.06 9999.99 999.96
vertex 16000.01 8500.050000000001 999.96
endloop
endfacet
facet normal -0.5999750397479167 0.8000187195806647 0
outer loop
vertex 18000.06 9999.99 1399.97
vertex 16000.01 8500.050000000001 999.96
vertex 16000.01 8500.050000000001 1399.97
endloop
endfacet
facet normal -0.7808648480141744 -0.6246999993083083 0
outer loop
vertex 16000.01 12500.02 1399.97
vertex 16000.01 12500.02 999.96
vertex 18000.06 9999.99 999.96
endloop
endfacet
facet normal -0.7808648480141744 -0.6246999993083083 0
outer loop
vertex 16000.01 12500.02 1399.97
vertex 18000.06 9999.99 999.96
vertex 18000.06 9999.99 1399.97
endloop
endfacet
endsolid JSCAD
