solid JSCAD
facet normal -1 0 0
outer loop
vertex 0 0 0
vertex 0 0 3999.9700000000003
vertex 0 15000.050000000001 3999.9700000000003
endloop
endfacet
facet normal -1 0 0
outer loop
vertex 0 0 0
vertex 0 15000.050000000001 3999.9700000000003
vertex 0 15000.050000000001 0
endloop
endfacet
facet normal 1 0 0
outer loop
vertex 19999.98 0 0
vertex 19999.98 15000.050000000001 0
vertex 19999.98 15000.050000000001 3999.9700000000003
endloop
endfacet
facet normal 1 0 0
outer loop
vertex 19999.98 0 0
vertex 19999.98 15000.050000000001 3999.9700000000003
vertex 19999.98 0 3999.9700000000003
endloop
endfacet
facet normal 0 -1 0
outer loop
vertex 0 0 0
vertex 19999.98 0 0
vertex 19999.98 0 3999.9700000000003
endloop
endfacet
facet normal 0 -1 0
outer loop
vertex 0 0 0
vertex 19999.98 0 3999.9700000000003
vertex 0 0 3999.9700000000003
endloop
endfacet
facet normal 0 1 0
outer loop
vertex 0 15000.050000000001 0
vertex 0 15000.050000000001 3999.9700000000003
vertex 19999.98 15000.050000000001 3999.9700000000003
endloop
endfacet
facet normal 0 1 0
outer loop
vertex 0 15000.050000000001 0
vertex 19999.98 15000.050000000001 3999.9700000000003
vertex 19999.98 15000.050000000001 0
endloop
endfacet
facet normal 0 0 -1
outer loop
vertex 0 0 0
vertex 0 15000.050000000001 0
vertex 19999.98 15000.050000000001 0
endloop
endfacet
facet normal 0 0 -1
outer loop
vertex 0 0 0
vertex 19999.98 15000.050000000001 0
vertex 19999.98 0 0
endloop
endfacet
facet normal 0 0 1
outer loop
vertex 0 0 3999.9700000000003
vertex 19999.98 0 3999.9700000000003
vertex 19999.98 15000.050000000001 3999.9700000000003
endloop
endfacet
facet normal 0 0 1
outer loop
vertex 0 0 3999.9700000000003
vertex 19999.98 15000.050000000001 3999.9700000000003
vertex 0 15000.050000000001 3999.9700000000003
endloop
endfacet
facet normal 0 0 1
outer loop
vertex 3999.9700000000003 9000.03 199.94
vertex 3804.9700000000003 9980.75 199.94
vertex 3617.38 9923.94 199.94
endloop
endfacet
facet normal 0 0 1
outer loop
vertex 3999.9700000000003 9000.03 199.94
vertex 3617.38 9923.94 199.94
vertex 3444.48 9831.51 199.94
endloop
endfacet
facet normal 0 0 1
outer loop
vertex 3999.9700000000003 9000.03 199.94
vertex 3444.48 9831.51 199.94
vertex 3292.9 9707.1 199.94
endloop
endfacet
facet normal 0 0 1
outer loop
vertex 3999.9700000000003 9000.03 199.94
vertex 3292.9 9707.1 199.94
vertex 3168.4900000000002 9555.52 199.94
endloop
endfacet
facet normal 0 0 1
outer loop
vertex 3999.9700000000003 9000.03 199.94
vertex 3168.4900000000002 9555.52 199.94
vertex 3076.06 9382.62 199.94
endloop
endfacet
facet normal 0 0 1
outer loop
vertex 3999.9700000000003 9000.03 199.94
vertex 3076.06 9382.62 199.94
vertex 3019.25 9195.03 199.94
endloop
endfacet
facet normal 0 0 1
outer loop
vertex 3999.9700000000003 9000.03 199.94
vertex 3019.25 9195.03 199.94
vertex 3000.01 9000.03 199.94
endloop
endfacet
facet normal 0 0 1
outer loop
vertex 3999.9700000000003 9000.03 199.94
vertex 3000.01 9000.03 199.94
vertex 3019.25 8804.9 199.94
endloop
endfacet
facet normal 0 0 1
outer loop
vertex 3999.9700000000003 9000.03 199.94
vertex 3019.25 8804.9 199.94
vertex 3076.06 8617.31 199.94
endloop
endfacet
facet normal 0 0 0.9999999999999999
outer loop
vertex 3999.9700000000003 9000.03 199.94
vertex 3076.06 8617.31 199.94
vertex 3168.4900000000002 8444.41 199.94
endloop
endfacet
facet normal 0 0 1
outer loop
vertex 3999.9700000000003 9000.03 199.94
vertex 3168.4900000000002 8444.41 199.94
vertex 3292.9 8292.83 199.94
endloop
endfacet
facet normal 0 0 1
outer loop
vertex 3999.9700000000003 9000.03 199.94
vertex 3292.9 8292.83 199.94
vertex 3444.48 8168.55 199.94
endloop
endfacet
facet normal 0 0 1
outer loop
vertex 3999.9700000000003 9000.03 199.94
vertex 3444.48 8168.55 199.94
vertex 3617.38 8076.12 199.94
endloop
endfacet
facet normal 0 0 0.9999999999999999
outer loop
vertex 3999.9700000000003 9000.03 199.94
vertex 3617.38 8076.12 199.94
vertex 3804.9700000000003 8019.18 199.94
endloop
endfacet
facet normal 0 0 1
outer loop
vertex 3999.9700000000003 9000.03 199.94
vertex 3804.9700000000003 8019.18 199.94
vertex 3999.9700000000003 7999.9400000000005 199.94
endloop
endfacet
facet normal 0 0 1
outer loop
vertex 3999.9700000000003 9000.03 199.94
vertex 3999.9700000000003 7999.9400000000005 199.94
vertex 4195.1 8019.18 199.94
endloop
endfacet
facet normal 0 0 1
outer loop
vertex 3999.9700000000003 9000.03 199.94
vertex 4195.1 8019.18 199.94
vertex 4382.6900000000005 8076.12 199.94
endloop
endfacet
facet normal 0 0 0.9999999999999999
outer loop
vertex 3999.9700000000003 9000.03 199.94
vertex 4382.6900000000005 8076.12 199.94
vertex 4555.59 8168.55 199.94
endloop
endfacet
facet normal 0 0 1
outer loop
vertex 3999.9700000000003 9000.03 199.94
vertex 4555.59 8168.55 199.94
vertex 4707.17 8292.83 199.94
endloop
endfacet
facet normal 0 0 1
outer loop
vertex 3999.9700000000003 9000.03 199.94
vertex 4707.17 8292.83 199.94
vertex 4831.45 8444.41 199.94
endloop
endfacet
facet normal 0 0 1
outer loop
vertex 3999.9700000000003 9000.03 199.94
vertex 4831.45 8444.41 199.94
vertex 4923.88 8617.31 199.94
endloop
endfacet
facet normal 0 0 0.9999999999999999
outer loop
vertex 3999.9700000000003 9000.03 199.94
vertex 4923.88 8617.31 199.94
vertex 4980.820000000001 8804.9 199.94
endloop
endfacet
facet normal 0 0 1
outer loop
vertex 3999.9700000000003 9000.03 199.94
vertex 4980.820000000001 8804.9 199.94
vertex 5000.06 9000.03 199.94
endloop
endfacet
facet normal 0 0 1
outer loop
vertex 3999.9700000000003 9000.03 199.94
vertex 5000.06 9000.03 199.94
vertex 4980.820000000001 9195.03 199.94
endloop
endfacet
facet normal 0 0 1
outer loop
vertex 3999.9700000000003 9000.03 199.94
vertex 4980.820000000001 9195.03 199.94
vertex 4923.88 9382.62 199.94
endloop
endfacet
facet normal 0 0 1
outer loop
vertex 3999.9700000000003 9000.03 199.94
vertex 4923.88 9382.62 199.94
vertex 4831.45 9555.52 199.94
endloop
endfacet
facet normal 0 0 1
outer loop
vertex 3999.9700000000003 9000.03 199.94
vertex 4831.45 9555.52 199.94
vertex 4707.17 9707.1 199.94
endloop
endfacet
facet normal 0 0 1
outer loop
vertex 3999.9700000000003 9000.03 199.94
vertex 4707.17 9707.1 199.94
vertex 4555.59 9831.51 199.94
endloop
endfacet
facet normal 0 0 1
outer loop
vertex 3999.9700000000003 9000.03 199.94
vertex 4555.59 9831.51 199.94
vertex 4382.6900000000005 9923.94 199.94
endloop
endfacet
facet normal 0 0 1
outer loop
vertex 3999.9700000000003 9000.03 199.94
vertex 4382.6900000000005 9923.94 199.94
vertex 4195.1 9980.75 199.94
endloop
endfacet
facet normal 0 0 0.9999999999999999
outer loop
vertex 3999.9700000000003 9000.03 199.94
vertex 4195.1 9980.75 199.94
vertex 3999.9700000000003 9999.99 199.94
endloop
endfacet
facet normal 0 0 1
outer loop
vertex 3999.9700000000003 9000.03 199.94
vertex 3999.9700000000003 9999.99 199.94
vertex 3804.9700000000003 9980.75 199.94
endloop
endfacet
facet normal -0.9951676982060429 -0.09818987955632845 0
outer loop
vertex 5000.06 9000.03 199.94
vertex 5000.06 9000.03 599.95
vertex 4980.820000000001 9195.03 599.95
endloop
endfacet
facet normal -0.9951676982060429 -0.09818987955632845 0
outer loop
vertex 5000.06 9000.03 199.94
vertex 4980.820000000001 9195.03 599.95
vertex 4980.820000000001 9195.03 199.94
endloop
endfacet
facet normal 0 0 -1
outer loop
vertex 3999.9700000000003 9000.03 599.95
vertex 4195.1 9980.75 599.95
vertex 4382.6900000000005 9923.94 599.95
endloop
endfacet
facet normal 0 0 -1
outer loop
vertex 3999.9700000000003 9000.03 599.95
vertex 4382.6900000000005 9923.94 599.95
vertex 4555.59 9831.51 599.95
endloop
endfacet
facet normal 0 0 -1
outer loop
vertex 3999.9700000000003 9000.03 599.95
vertex 4555.59 9831.51 599.95
vertex 4707.17 9707.1 599.95
endloop
endfacet
facet normal 0 0 -1
outer loop
vertex 3999.9700000000003 9000.03 599.95
vertex 4707.17 9707.1 599.95
vertex 4831.45 9555.52 599.95
endloop
endfacet
facet normal 0 0 -1
outer loop
vertex 3999.9700000000003 9000.03 599.95
vertex 4831.45 9555.52 599.95
vertex 4923.88 9382.62 599.95
endloop
endfacet
facet normal 0 0 -1
outer loop
vertex 3999.9700000000003 9000.03 599.95
vertex 4923.88 9382.62 599.95
vertex 4980.820000000001 9195.03 599.95
endloop
endfacet
facet normal 0 0 -1
outer loop
vertex 3999.9700000000003 9000.03 599.95
vertex 4980.820000000001 9195.03 599.95
vertex 5000.06 9000.03 599.95
endloop
endfacet
facet normal 0 0 -1
outer loop
vertex 3999.9700000000003 9000.03 599.95
vertex 5000.06 9000.03 599.95
vertex 4980.820000000001 8804.9 599.95
endloop
endfacet
facet normal 0 0 -0.9999999999999999
outer loop
vertex 3999.9700000000003 9000.03 599.95
vertex 4980.820000000001 8804.9 599.95
vertex 4923.88 8617.31 599.95
endloop
endfacet
facet normal 0 0 -1
outer loop
vertex 3999.9700000000003 9000.03 599.95
vertex 4923.88 8617.31 599.95
vertex 4831.45 8444.41 599.95
endloop
endfacet
facet normal 0 0 -1
outer loop
vertex 3999.9700000000003 9000.03 599.95
vertex 4831.45 8444.41 599.95
vertex 4707.17 8292.83 599.95
endloop
endfacet
facet normal 0 0 -1
outer loop
vertex 3999.9700000000003 9000.03 599.95
vertex 4707.17 8292.83 599.95
vertex 4555.59 8168.55 599.95
endloop
endfacet
facet normal 0 0 -0.9999999999999999
outer loop
vertex 3999.9700000000003 9000.03 599.95
vertex 4555.59 8168.55 599.95
vertex 4382.6900000000005 8076.12 599.95
endloop
endfacet
facet normal 0 0 -1
outer loop
vertex 3999.9700000000003 9000.03 599.95
vertex 4382.6900000000005 8076.12 599.95
vertex 4195.1 8019.18 599.95
endloop
endfacet
facet normal 0 0 -1
outer loop
vertex 3999.9700000000003 9000.03 599.95
vertex 4195.1 8019.18 599.95
vertex 3999.9700000000003 7999.9400000000005 599.95
endloop
endfacet
facet normal 0 0 -1
outer loop
vertex 3999.9700000000003 9000.03 599.95
vertex 3999.9700000000003 7999.9400000000005 599.95
vertex 3804.9700000000003 8019.18 599.95
endloop
endfacet
facet normal 0 0 -0.9999999999999999
outer loop
vertex 3999.9700000000003 9000.03 599.95
vertex 3804.9700000000003 8019.18 599.95
vertex 3617.38 8076.12 599.95
endloop
endfacet
facet normal 0 0 -1
outer loop
vertex 3999.9700000000003 9000.03 599.95
vertex 3617.38 8076.12 599.95
vertex 3444.48 8168.55 599.95
endloop
endfacet
facet normal 0 0 -1
outer loop
vertex 3999.9700000000003 9000.03 599.95
vertex 3444.48 8168.55 599.95
vertex 3292.9 8292.83 599.95
endloop
endfacet
facet normal 0 0 -1
outer loop
vertex 3999.9700000000003 9000.03 599.95
vertex 3292.9 8292.83 599.95
vertex 3168.4900000000002 8444.41 599.95
endloop
endfacet
facet normal 0 0 -0.9999999999999999
outer loop
vertex 3999.9700000000003 9000.03 599.95
vertex 3168.4900000000002 8444.41 599.95
vertex 3076.06 8617.31 599.95
endloop
endfacet
facet normal 0 0 -1
outer loop
vertex 3999.9700000000003 9000.03 599.95
vertex 3076.06 8617.31 599.95
vertex 3019.25 8804.9 599.95
endloop
endfacet
facet normal 0 0 -1
outer loop
vertex 3999.9700000000003 9000.03 599.95
vertex 3019.25 8804.9 599.95
vertex 3000.01 9000.03 599.95
endloop
endfacet
facet normal 0 0 -1
outer loop
vertex 3999.9700000000003 9000.03 599.95
vertex 3000.01 9000.03 599.95
vertex 3019.25 9195.03 599.95
endloop
endfacet
facet normal 0 0 -1
outer loop
vertex 3999.9700000000003 9000.03 599.95
vertex 3019.25 9195.03 599.95
vertex 3076.06 9382.62 599.95
endloop
endfacet
facet normal 0 0 -1
outer loop
vertex 3999.9700000000003 9000.03 599.95
vertex 3076.06 9382.62 599.95
vertex 3168.4900000000002 9555.52 599.95
endloop
endfacet
facet normal 0 0 -1
outer loop
vertex 3999.9700000000003 9000.03 599.95
vertex 3168.4900000000002 9555.52 599.95
vertex 3292.9 9707.1 599.95
endloop
endfacet
facet normal 0 0 -1
outer loop
vertex 3999.9700000000003 9000.03 599.95
vertex 3292.9 9707.1 599.95
vertex 3444.48 9831.51 599.95
endloop
endfacet
facet normal 0 0 -1
outer loop
vertex 3999.9700000000003 9000.03 599.95
vertex 3444.48 9831.51 599.95
vertex 3617.38 9923.94 599.95
endloop
endfacet
facet normal 0 0 -1
outer loop
vertex 3999.9700000000003 9000.03 599.95
vertex 3617.38 9923.94 599.95
vertex 3804.9700000000003 9980.75 599.95
endloop
endfacet
facet normal 0 0 -1
outer loop
vertex 3999.9700000000003 9000.03 599.95
vertex 3804.9700000000003 9980.75 599.95
vertex 3999.9700000000003 9999.99 599.95
endloop
endfacet
facet normal 0 0 -0.9999999999999999
outer loop
vertex 3999.9700000000003 9000.03 599.95
vertex 3999.9700000000003 9999.99 599.95
vertex 4195.1 9980.75 599.95
endloop
endfacet
facet normal -0.9568904503710988 -0.2904490764120199 0
outer loop
vertex 4980.820000000001 9195.03 199.94
vertex 4980.820000000001 9195.03 599.95
vertex 4923.88 9382.62 599.95
endloop
endfacet
facet normal -0.9568904503710988 -0.2904490764120199 0
outer loop
vertex 4980.820000000001 9195.03 199.94
vertex 4923.88 9382.62 599.95
vertex 4923.88 9382.62 199.94
endloop
endfacet
facet normal -0.8818936442255758 -0.47144840680029154 0
outer loop
vertex 4923.88 9382.62 199.94
vertex 4923.88 9382.62 599.95
vertex 4831.45 9555.52 599.95
endloop
endfacet
facet normal -0.8818936442255758 -0.47144840680029154 0
outer loop
vertex 4923.88 9382.62 199.94
vertex 4831.45 9555.52 599.95
vertex 4831.45 9555.52 199.94
endloop
endfacet
facet normal -0.7733068109152781 -0.6340319993439149 0
outer loop
vertex 4831.45 9555.52 199.94
vertex 4831.45 9555.52 599.95
vertex 4707.17 9707.1 599.95
endloop
endfacet
facet normal -0.7733068109152781 -0.6340319993439149 0
outer loop
vertex 4831.45 9555.52 199.94
vertex 4707.17 9707.1 599.95
vertex 4707.17 9707.1 199.94
endloop
endfacet
facet normal -0.634428353152008 -0.77298167165647 0
outer loop
vertex 4707.17 9707.1 199.94
vertex 4707.17 9707.1 599.95
vertex 4555.59 9831.51 599.95
endloop
endfacet
facet normal -0.634428353152008 -0.77298167165647 0
outer loop
vertex 4707.17 9707.1 199.94
vertex 4555.59 9831.51 599.95
vertex 4555.59 9831.51 199.94
endloop
endfacet
facet normal -0.47144840680029154 -0.8818936442255758 0
outer loop
vertex 4555.59 9831.51 199.94
vertex 4555.59 9831.51 599.95
vertex 4382.6900000000005 9923.94 599.95
endloop
endfacet
facet normal -0.47144840680029154 -0.8818936442255758 0
outer loop
vertex 4555.59 9831.51 199.94
vertex 4382.6900000000005 9923.94 599.95
vertex 4382.6900000000005 9923.94 199.94
endloop
endfacet
facet normal -0.28984171705420886 -0.9570745943002916 0
outer loop
vertex 4382.6900000000005 9923.94 199.94
vertex 4382.6900000000005 9923.94 599.95
vertex 4195.1 9980.75 599.95
endloop
endfacet
facet normal -0.28984171705420886 -0.9570745943002916 0
outer loop
vertex 4382.6900000000005 9923.94 199.94
vertex 4195.1 9980.75 599.95
vertex 4195.1 9980.75 199.94
endloop
endfacet
facet normal -0.09812509331857795 -0.9951740883188329 0
outer loop
vertex 4195.1 9980.75 199.94
vertex 4195.1 9980.75 599.95
vertex 3999.9700000000003 9999.99 599.95
endloop
endfacet
facet normal -0.09812509331857795 -0.9951740883188329 0
outer loop
vertex 4195.1 9980.75 199.94
vertex 3999.9700000000003 9999.99 599.95
vertex 3999.9700000000003 9999.99 199.94
endloop
endfacet
facet normal 0.09818987955632845 -0.9951676982060429 0
outer loop
vertex 3999.9700000000003 9999.99 199.94
vertex 3999.9700000000003 9999.99 599.95
vertex 3804.9700000000003 9980.75 599.95
endloop
endfacet
facet normal 0.09818987955632845 -0.9951676982060429 0
outer loop
vertex 3999.9700000000003 9999.99 199.94
vertex 3804.9700000000003 9980.75 599.95
vertex 3804.9700000000003 9980.75 199.94
endloop
endfacet
facet normal 0.28984171705420886 -0.9570745943002916 0
outer loop
vertex 3804.9700000000003 9980.75 199.94
vertex 3804.9700000000003 9980.75 599.95
vertex 3617.38 9923.94 599.95
endloop
endfacet
facet normal 0.28984171705420886 -0.9570745943002916 0
outer loop
vertex 3804.9700000000003 9980.75 199.94
vertex 3617.38 9923.94 599.95
vertex 3617.38 9923.94 199.94
endloop
endfacet
facet normal 0.4714484068002906 -0.8818936442255765 0
outer loop
vertex 3617.38 9923.94 199.94
vertex 3617.38 9923.94 599.95
vertex 3444.48 9831.51 599.95
endloop
endfacet
facet normal 0.4714484068002906 -0.8818936442255765 0
outer loop
vertex 3617.38 9923.94 199.94
vertex 3444.48 9831.51 599.95
vertex 3444.48 9831.51 199.94
endloop
endfacet
facet normal 0.634428353152008 -0.77298167165647 0
outer loop
vertex 3444.48 9831.51 199.94
vertex 3444.48 9831.51 599.95
vertex 3292.9 9707.1 599.95
endloop
endfacet
facet normal 0.634428353152008 -0.77298167165647 0
outer loop
vertex 3444.48 9831.51 199.94
vertex 3292.9 9707.1 599.95
vertex 3292.9 9707.1 199.94
endloop
endfacet
facet normal 0.77298167165647 -0.634428353152008 0
outer loop
vertex 3292.9 9707.1 199.94
vertex 3292.9 9707.1 599.95
vertex 3168.4900000000002 9555.52 599.95
endloop
endfacet
facet normal 0.77298167165647 -0.634428353152008 0
outer loop
vertex 3292.9 9707.1 199.94
vertex 3168.4900000000002 9555.52 599.95
vertex 3168.4900000000002 9555.52 199.94
endloop
endfacet
facet normal 0.8818936442255758 -0.47144840680029154 0
outer loop
vertex 3168.4900000000002 9555.52 199.94
vertex 3168.4900000000002 9555.52 599.95
vertex 3076.06 9382.62 599.95
endloop
endfacet
facet normal 0.8818936442255758 -0.47144840680029154 0
outer loop
vertex 3168.4900000000002 9555.52 199.94
vertex 3076.06 9382.62 599.95
vertex 3076.06 9382.62 199.94
endloop
endfacet
facet normal 0.957074594300291 -0.28984171705421097 0
outer loop
vertex 3076.06 9382.62 199.94
vertex 3076.06 9382.62 599.95
vertex 3019.25 9195.03 599.95
endloop
endfacet
facet normal 0.957074594300291 -0.28984171705421097 0
outer loop
vertex 3076.06 9382.62 199.94
vertex 3019.25 9195.03 599.95
vertex 3019.25 9195.03 199.94
endloop
endfacet
facet normal 0.9951676982060429 -0.09818987955632845 0
outer loop
vertex 3019.25 9195.03 199.94
vertex 3019.25 9195.03 599.95
vertex 3000.01 9000.03 599.95
endloop
endfacet
facet normal 0.9951676982060429 -0.09818987955632845 0
outer loop
vertex 3019.25 9195.03 199.94
vertex 3000.01 9000.03 599.95
vertex 3000.01 9000.03 199.94
endloop
endfacet
facet normal 0.9951740883188329 0.0981250933185775 0
outer loop
vertex 3000.01 9000.03 199.94
vertex 3000.01 9000.03 599.95
vertex 3019.25 8804.9 599.95
endloop
endfacet
facet normal 0.9951740883188329 0.0981250933185775 0
outer loop
vertex 3000.01 9000.03 199.94
vertex 3019.25 8804.9 599.95
vertex 3019.25 8804.9 199.94
endloop
endfacet
facet normal 0.957074594300291 0.28984171705421097 0
outer loop
vertex 3019.25 8804.9 199.94
vertex 3019.25 8804.9 599.95
vertex 3076.06 8617.31 599.95
endloop
endfacet
facet normal 0.957074594300291 0.28984171705421097 0
outer loop
vertex 3019.25 8804.9 199.94
vertex 3076.06 8617.31 599.95
vertex 3076.06 8617.31 199.94
endloop
endfacet
facet normal 0.8818936442255758 0.47144840680029154 0
outer loop
vertex 3076.06 8617.31 199.94
vertex 3076.06 8617.31 599.95
vertex 3168.4900000000002 8444.41 599.95
endloop
endfacet
facet normal 0.8818936442255758 0.47144840680029154 0
outer loop
vertex 3076.06 8617.31 199.94
vertex 3168.4900000000002 8444.41 599.95
vertex 3168.4900000000002 8444.41 199.94
endloop
endfacet
facet normal 0.77298167165647 0.634428353152008 0
outer loop
vertex 3168.4900000000002 8444.41 199.94
vertex 3168.4900000000002 8444.41 599.95
vertex 3292.9 8292.83 599.95
endloop
endfacet
facet normal 0.77298167165647 0.634428353152008 0
outer loop
vertex 3168.4900000000002 8444.41 199.94
vertex 3292.9 8292.83 599.95
vertex 3292.9 8292.83 199.94
endloop
endfacet
facet normal 0.6340319993439149 0.7733068109152781 0
outer loop
vertex 3292.9 8292.83 199.94
vertex 3292.9 8292.83 599.95
vertex 3444.48 8168.55 599.95
endloop
endfacet
facet normal 0.6340319993439149 0.7733068109152781 0
outer loop
vertex 3292.9 8292.83 199.94
vertex 3444.48 8168.55 599.95
vertex 3444.48 8168.55 199.94
endloop
endfacet
facet normal 0.4714484068002906 0.8818936442255765 0
outer loop
vertex 3444.48 8168.55 199.94
vertex 3444.48 8168.55 599.95
vertex 3617.38 8076.12 599.95
endloop
endfacet
facet normal 0.4714484068002906 0.8818936442255765 0
outer loop
vertex 3444.48 8168.55 199.94
vertex 3617.38 8076.12 599.95
vertex 3617.38 8076.12 199.94
endloop
endfacet
facet normal 0.2904490764120157 0.9568904503711003 0
outer loop
vertex 3617.38 8076.12 199.94
vertex 3617.38 8076.12 599.95
vertex 3804.9700000000003 8019.18 599.95
endloop
endfacet
facet normal 0.2904490764120157 0.9568904503711003 0
outer loop
vertex 3617.38 8076.12 199.94
vertex 3804.9700000000003 8019.18 599.95
vertex 3804.9700000000003 8019.18 199.94
endloop
endfacet
facet normal 0.09818987955632845 0.9951676982060429 0
outer loop
vertex 3804.9700000000003 8019.18 199.94
vertex 3804.9700000000003 8019.18 599.95
vertex 3999.9700000000003 7999.9400000000005 599.95
endloop
endfacet
facet normal 0.09818987955632845 0.9951676982060429 0
outer loop
vertex 3804.9700000000003 8019.18 199.94
vertex 3999.9700000000003 7999.9400000000005 599.95
vertex 3999.9700000000003 7999.9400000000005 199.94
endloop
endfacet
facet normal -0.09812509331857795 0.9951740883188329 0
outer loop
vertex 3999.9700000000003 7999.9400000000005 199.94
vertex 3999.9700000000003 7999.9400000000005 599.95
vertex 4195.1 8019.18 599.95
endloop
endfacet
facet normal -0.09812509331857795 0.9951740883188329 0
outer loop
vertex 3999.9700000000003 7999.9400000000005 199.94
vertex 4195.1 8019.18 599.95
vertex 4195.1 8019.18 199.94
endloop
endfacet
facet normal -0.2904490764120157 0.9568904503711003 0
outer loop
vertex 4195.1 8019.18 199.94
vertex 4195.1 8019.18 599.95
vertex 4382.6900000000005 8076.12 599.95
endloop
endfacet
facet normal -0.2904490764120157 0.9568904503711003 0
outer loop
vertex 4195.1 8019.18 199.94
vertex 4382.6900000000005 8076.12 599.95
vertex 4382.6900000000005 8076.12 199.94
endloop
endfacet
facet normal -0.47144840680029154 0.8818936442255758 0
outer loop
vertex 4382.6900000000005 8076.12 199.94
vertex 4382.6900000000005 8076.12 599.95
vertex 4555.59 8168.55 599.95
endloop
endfacet
facet normal -0.47144840680029154 0.8818936442255758 0
outer loop
vertex 4382.6900000000005 8076.12 199.94
vertex 4555.59 8168.55 599.95
vertex 4555.59 8168.55 199.94
endloop
endfacet
facet normal -0.6340319993439149 0.7733068109152781 0
outer loop
vertex 4555.59 8168.55 199.94
vertex 4555.59 8168.55 599.95
vertex 4707.17 8292.83 599.95
endloop
endfacet
facet normal -0.6340319993439149 0.7733068109152781 0
outer loop
vertex 4555.59 8168.55 199.94
vertex 4707.17 8292.83 599.95
vertex 4707.17 8292.83 199.94
endloop
endfacet
facet normal -0.7733068109152781 0.6340319993439149 0
outer loop
vertex 4707.17 8292.83 199.94
vertex 4707.17 8292.83 599.95
vertex 4831.45 8444.41 599.95
endloop
endfacet
facet normal -0.7733068109152781 0.6340319993439149 0
outer loop
vertex 4707.17 8292.83 199.94
vertex 4831.45 8444.41 599.95
vertex 4831.45 8444.41 199.94
endloop
endfacet
facet normal -0.8818936442255758 0.47144840680029154 0
outer loop
vertex 4831.45 8444.41 199.94
vertex 4831.45 8444.41 599.95
vertex 4923.88 8617.31 599.95
endloop
endfacet
facet normal -0.8818936442255758 0.47144840680029154 0
outer loop
vertex 4831.45 8444.41 199.94
vertex 4923.88 8617.31 599.95
vertex 4923.88 8617.31 199.94
endloop
endfacet
facet normal -0.9568904503710988 0.2904490764120199 0
outer loop
vertex 4923.88 8617.31 199.94
vertex 4923.88 8617.31 599.95
vertex 4980.820000000001 8804.9 599.95
endloop
endfacet
facet normal -0.9568904503710988 0.2904490764120199 0
outer loop
vertex 4923.88 8617.31 199.94
vertex 4980.820000000001 8804.9 599.95
vertex 4980.820000000001 8804.9 199.94
endloop
endfacet
facet normal -0.9951740883188329 0.0981250933185775 0
outer loop
vertex 4980.820000000001 8804.9 199.94
vertex 4980.820000000001 8804.9 599.95
vertex 5000.06 9000.03 599.95
endloop
endfacet
facet normal -0.9951740883188329 0.0981250933185775 0
outer loop
vertex 4980.820000000001 8804.9 199.94
vertex 5000.06 9000.03 599.95
vertex 5000.06 9000.03 199.94
endloop
endfacet
facet normal 1 0 0
outer loop
vertex 5000.06 6699.9400000000005 1200.03
vertex 5000.06 6699.9400000000005 1600.04
vertex 5000.06 6300.06 1600.04
endloop
endfacet
facet normal 1 0 0
outer loop
vertex 5000.06 6699.9400000000005 1200.03
vertex 5000.06 6300.06 1600.04
vertex 5000.06 6300.06 1200.03
endloop
endfacet
facet normal -1 0 0
outer loop
vertex 9999.99 6300.06 1600.04
vertex 9999.99 6699.9400000000005 1600.04
vertex 9999.99 6699.9400000000005 1200.03
endloop
endfacet
facet normal -1 0 0
outer loop
vertex 9999.99 6300.06 1600.04
vertex 9999.99 6699.9400000000005 1200.03
vertex 9999.99 6300.06 1200.03
endloop
endfacet
facet normal 0 1 0
outer loop
vertex 5000.06 6300.06 1600.04
vertex 9999.99 6300.06 1600.04
vertex 9999.99 6300.06 1200.03
endloop
endfacet
facet normal 0 1 0
outer loop
vertex 5000.06 6300.06 1600.04
vertex 9999.99 6300.06 1200.03
vertex 5000.06 6300.06 1200.03
endloop
endfacet
facet normal 0 -1 0
outer loop
vertex 9999.99 6699.9400000000005 1200.03
vertex 9999.99 6699.9400000000005 1600.04
vertex 5000.06 6699.9400000000005 1600.04
endloop
endfacet
facet normal 0 -1 0
outer loop
vertex 9999.99 6699.9400000000005 1200.03
vertex 5000.06 6699.9400000000005 1600.04
vertex 5000.06 6699.9400000000005 1200.03
endloop
endfacet
facet normal 0 0 1
outer loop
vertex 9999.99 6300.06 1200.03
vertex 9999.99 6699.9400000000005 1200.03
vertex 5000.06 6699.9400000000005 1200.03
endloop
endfacet
facet normal 0 0 1
outer loop
vertex 9999.99 6300.06 1200.03
vertex 5000.06 6699.9400000000005 1200.03
vertex 5000.06 6300.06 1200.03
endloop
endfacet
facet normal 0 0 -1
outer loop
vertex 5000.06 6699.9400000000005 1600.04
vertex 9999.99 6699.9400000000005 1600.04
vertex 9999.99 6300.06 1600.04
endloop
endfacet
facet normal 0 0 -1
outer loop
vertex 5000.06 6699.9400000000005 1600.04
vertex 9999.99 6300.06 1600.04
vertex 5000.06 6300.06 1600.04
endloop
endfacet
endsolid JSCAD
