solid JSCAD
facet normal -1 0 0
outer loop
vertex 0 0 0
vertex 0 0 3999.9700000000003
vertex 0 15000.050000000001 3999.9700000000003
endloop
endfacet
facet normal -1 0 0
outer loop
vertex 0 0 0
vertex 0 15000.050000000001 3999.9700000000003
vertex 0 15000.050000000001 0
endloop
endfacet
facet normal 1 0 0
outer loop
vertex 19999.98 0 0
vertex 19999.98 15000.050000000001 0
vertex 19999.98 15000.050000000001 3999.9700000000003
endloop
endfacet
facet normal 1 0 0
outer loop
vertex 19999.98 0 0
vertex 19999.98 15000.050000000001 3999.9700000000003
vertex 19999.98 0 3999.9700000000003
endloop
endfacet
facet normal 0 -1 0
outer loop
vertex 0 0 0
vertex 19999.98 0 0
vertex 19999.98 0 3999.9700000000003
endloop
endfacet
facet normal 0 -1 0
outer loop
vertex 0 0 0
vertex 19999.98 0 3999.9700000000003
vertex 0 0 3999.9700000000003
endloop
endfacet
facet normal 0 1 0
outer loop
vertex 0 15000.050000000001 0
vertex 0 15000.050000000001 3999.9700000000003
vertex 19999.98 15000.050000000001 3999.9700000000003
endloop
endfacet
facet normal 0 1 0
outer loop
vertex 0 15000.050000000001 0
vertex 19999.98 15000.050000000001 3999.9700000000003
vertex 19999.98 15000.050000000001 0
endloop
endfacet
facet normal 0 0 -1
outer loop
vertex 0 0 0
vertex 0 15000.050000000001 0
vertex 19999.98 15000.050000000001 0
endloop
endfacet
facet normal 0 0 -1
outer loop
vertex 0 0 0
vertex 19999.98 15000.050000000001 0
vertex 19999.98 0 0
endloop
endfacet
facet normal 0 0 1
outer loop
vertex 0 0 3999.9700000000003
vertex 19999.98 0 3999.9700000000003
vertex 19999.98 15000.050000000001 3999.9700000000003
endloop
endfacet
facet normal 0 0 1
outer loop
vertex 0 0 3999.9700000000003
vertex 19999.98 15000.050000000001 3999.9700000000003
vertex 0 15000.050000000001 3999.9700000000003
endloop
endfacet
facet normal 0.09066759924050394 -0.9958812110126204 0
outer loop
vertex 5933.59 11493.95 463.45
vertex 6199.18 11518.130000000001 199.94
vertex 6199.18 11518.130000000001 599.95
endloop
endfacet
facet normal 0.09068227317077876 -0.9958798745349913 -0.000028788023229042536
outer loop
vertex 5933.59 11493.95 463.45
vertex 6199.18 11518.130000000001 599.95
vertex 5800.860000000001 11481.86 599.95
endloop
endfacet
facet normal 0.09071163533886155 -0.9958772008707445 0
outer loop
vertex 5933.59 11493.95 463.45
vertex 5800.860000000001 11481.86 599.95
vertex 5800.860000000001 11481.86 599.82
endloop
endfacet
facet normal 0.09071163533886445 -0.9958772008707443 0
outer loop
vertex 5933.59 11493.95 463.45
vertex 5800.860000000001 11481.86 599.82
vertex 5800.860000000001 11481.86 580.97
endloop
endfacet
facet normal 0.0907116353388645 -0.9958772008707445 0
outer loop
vertex 5933.59 11493.95 463.45
vertex 5800.860000000001 11481.86 580.97
vertex 5800.860000000001 11481.86 199.94
endloop
endfacet
facet normal 0.09068227319827228 -0.9958798748369273 0.000014912394869096785
outer loop
vertex 5933.59 11493.95 463.45
vertex 5800.860000000001 11481.86 199.94
vertex 6199.18 11518.130000000001 199.94
endloop
endfacet
facet normal 0.9958945362730074 0.09052109280418796 0.00006617482103935734
outer loop
vertex 6186.4400000000005 7239.83 599.95
vertex 6114.030000000001 8036.47 599.95
vertex 6068.66 8535.41 889.2
endloop
endfacet
facet normal 0.9958950204223253 0.09051574525772711 0.00009032416365099587
outer loop
vertex 6186.4400000000005 7239.83 599.95
vertex 6068.66 8535.41 889.2
vertex 6086.7300000000005 8336.25 1235.65
endloop
endfacet
facet normal 0.9958932064677039 0.09053574604251814 0
outer loop
vertex 5916.17 10213.45 599.95
vertex 5916.17 10213.45 599.82
vertex 5800.860000000001 11481.86 599.82
endloop
endfacet
facet normal 0.9958932064677039 0.09053574604251814 0
outer loop
vertex 5916.17 10213.45 599.95
vertex 5800.860000000001 11481.86 599.82
vertex 5800.860000000001 11481.86 599.95
endloop
endfacet
facet normal 0.9958958697401085 0.09050644468024784 -0.000010292438070449018
outer loop
vertex 6033.95 8917.48 889.2
vertex 5988.58 9416.68 599.82
vertex 5916.17 10213.45 599.82
endloop
endfacet
facet normal 0.9958978008941849 0.09048513040734936 -0.00010653305447569798
outer loop
vertex 6033.95 8917.48 889.2
vertex 5916.17 10213.45 599.82
vertex 6015.88 9116.77 1235.65
endloop
endfacet
facet normal 0.9958939748891595 0.09050686481948657 -0.0019230704660507044
outer loop
vertex 5988.58 9416.68 599.82
vertex 5985.59 9449.18 580.97
vertex 5800.860000000001 11481.86 580.97
endloop
endfacet
facet normal 0.9958942341093822 0.09052444127243753 0
outer loop
vertex 5988.58 9416.68 599.82
vertex 5800.860000000001 11481.86 580.97
vertex 5800.860000000001 11481.86 599.82
endloop
endfacet
facet normal 0.9959001254909751 0.09045937523595525 -0.00020366389145347167
outer loop
vertex 5985.59 9449.18 580.97
vertex 5933.46 10022.35 248.69
vertex 5916.17 10213.45 580.97
endloop
endfacet
facet normal 0.9958508772505721 0.09100016636944158 0
outer loop
vertex 6176.04 7355.14 599.95
vertex 6176.04 7355.14 379.99
vertex 6169.150000000001 7430.54 248.69
endloop
endfacet
facet normal 0.995883852968715 0.0906385418557664 -0.00007827162508999566
outer loop
vertex 6176.04 7355.14 599.95
vertex 6169.150000000001 7430.54 248.69
vertex 6114.030000000001 8036.47 599.95
endloop
endfacet
facet normal 0.9958932064677039 0.09053574604251814 0
outer loop
vertex 5916.17 10213.45 580.97
vertex 5916.17 10213.45 199.94
vertex 5800.860000000001 11481.86 199.94
endloop
endfacet
facet normal 0.9958932064677039 0.09053574604251814 0
outer loop
vertex 5916.17 10213.45 580.97
vertex 5800.860000000001 11481.86 199.94
vertex 5800.860000000001 11481.86 580.97
endloop
endfacet
facet normal 0.9958881420507768 0.09059143735835025 0
outer loop
vertex 6300.84 5981.95 599.95
vertex 6300.84 5981.95 199.94
vertex 6186.4400000000005 7239.570000000001 199.94
endloop
endfacet
facet normal 0.9958881420507768 0.09059143735835025 0
outer loop
vertex 6300.84 5981.95 599.95
vertex 6186.4400000000005 7239.570000000001 199.94
vertex 6186.4400000000005 7239.570000000001 599.95
endloop
endfacet
facet normal -0.9958833128583143 -0.09064450987428167 0
outer loop
vertex 6471.92 8517.6 983.32
vertex 6471.92 8517.6 884.26
vertex 6540.3 7766.33 884.26
endloop
endfacet
facet normal -0.9958808935058627 -0.09067086266214894 0.00020152931820788058
outer loop
vertex 6471.92 8517.6 983.32
vertex 6540.3 7766.33 884.26
vertex 6485.18 8372.52 1235.65
endloop
endfacet
facet normal -0.9958988547137079 -0.09047359382673409 0
outer loop
vertex 6359.08 9759.1 884.26
vertex 6427.33 9007.83 884.26
vertex 6427.33 9007.83 983.32
endloop
endfacet
facet normal -0.9959010153515685 -0.09044962147387624 0.0001832947008431359
outer loop
vertex 6359.08 9759.1 884.26
vertex 6427.33 9007.83 983.32
vertex 6414.2 9152.91 1235.65
endloop
endfacet
facet normal -0.9958945326165127 -0.09052109247183483 0.00010826930780801514
outer loop
vertex 6359.08 9759.1 884.26
vertex 6314.49 10249.33 599.95
vertex 6386.900000000001 9452.69 599.95
endloop
endfacet
facet normal -0.9958958655459073 -0.09050644429908125 0.00009235207412230065
outer loop
vertex 6359.08 9759.1 884.26
vertex 6386.900000000001 9452.69 599.95
vertex 6431.49 8962.33 884.26
endloop
endfacet
facet normal -0.9958974244754468 -0.09048933596381169 0
outer loop
vertex 6584.89 7275.71 599.95
vertex 6584.89 7275.71 599.82
vertex 6699.16 6018.09 599.82
endloop
endfacet
facet normal -0.9958974244754468 -0.09048933596381169 0
outer loop
vertex 6584.89 7275.71 599.95
vertex 6699.16 6018.09 599.82
vertex 6699.16 6018.09 599.95
endloop
endfacet
facet normal -0.9958957422460611 -0.09050643309366205 -0.0005061075275409675
outer loop
vertex 6467.76 8562.970000000001 884.26
vertex 6512.4800000000005 8072.4800000000005 599.82
vertex 6584.89 7275.71 599.82
endloop
endfacet
facet normal -0.9958798312589722 -0.09068226923017385 0.0002962074738790899
outer loop
vertex 6467.76 8562.970000000001 884.26
vertex 6584.89 7275.71 599.82
vertex 6540.3 7766.33 884.26
endloop
endfacet
facet normal -0.9958802077176856 -0.09054038537342024 0.0050050467142654246
outer loop
vertex 6512.4800000000005 8072.4800000000005 599.82
vertex 6515.34 8039.9800000000005 580.97
vertex 6699.16 6018.09 580.97
endloop
endfacet
facet normal -0.9958968215451605 -0.09049597138131023 0
outer loop
vertex 6512.4800000000005 8072.4800000000005 599.82
vertex 6699.16 6018.09 580.97
vertex 6699.16 6018.09 599.82
endloop
endfacet
facet normal -0.9958848673483727 -0.09062738629552312 0.00008854239838156115
outer loop
vertex 6515.34 8039.9800000000005 580.97
vertex 6567.47 7466.81 248.69
vertex 6584.89 7275.71 580.97
endloop
endfacet
facet normal -0.9958508772505721 -0.09100016636944158 0
outer loop
vertex 6325.02 10134.02 599.95
vertex 6325.02 10134.02 379.99
vertex 6331.91 10058.62 248.69
endloop
endfacet
facet normal -0.9959009834776315 -0.09045007978159769 -0.00011906212101539891
outer loop
vertex 6325.02 10134.02 599.95
vertex 6331.91 10058.62 248.69
vertex 6386.900000000001 9452.69 599.95
endloop
endfacet
facet normal -0.995897424475447 -0.0904893359638117 0
outer loop
vertex 6584.89 7275.71 580.97
vertex 6584.89 7275.71 199.94
vertex 6699.16 6018.09 199.94
endloop
endfacet
facet normal -0.995897424475447 -0.0904893359638117 0
outer loop
vertex 6584.89 7275.71 580.97
vertex 6699.16 6018.09 199.94
vertex 6699.16 6018.09 580.97
endloop
endfacet
facet normal -0.9958940429763202 -0.09052654397622376 0
outer loop
vertex 6199.18 11518.130000000001 599.95
vertex 6199.18 11518.130000000001 199.94
vertex 6314.49 10249.59 199.94
endloop
endfacet
facet normal -0.9958940429763202 -0.09052654397622376 0
outer loop
vertex 6199.18 11518.130000000001 599.95
vertex 6314.49 10249.59 199.94
vertex 6314.49 10249.59 599.95
endloop
endfacet
facet normal 0 0 1
outer loop
vertex 5800.860000000001 11481.86 199.94
vertex 5912.79 10249.59 199.94
vertex 6314.49 10249.59 199.94
endloop
endfacet
facet normal 0 0 0.9999999999999999
outer loop
vertex 5800.860000000001 11481.86 199.94
vertex 6314.49 10249.59 199.94
vertex 6199.18 11518.130000000001 199.94
endloop
endfacet
facet normal 0 0 1
outer loop
vertex 5912.79 10249.59 199.94
vertex 5914.09 10236.59 199.94
vertex 6316.05 10236.59 199.94
endloop
endfacet
facet normal 0 0 1
outer loop
vertex 5912.79 10249.59 199.94
vertex 6316.05 10236.59 199.94
vertex 6314.49 10249.59 199.94
endloop
endfacet
facet normal 0 0 1
outer loop
vertex 5914.09 10236.59 199.94
vertex 5915.26 10223.720000000001 199.94
vertex 6318.52 10223.720000000001 199.94
endloop
endfacet
facet normal 0 0 1
outer loop
vertex 5914.09 10236.59 199.94
vertex 6318.52 10223.720000000001 199.94
vertex 6316.05 10236.59 199.94
endloop
endfacet
facet normal 0 0 1
outer loop
vertex 6077.63 10216.57 199.94
vertex 5915.26 10223.720000000001 199.94
vertex 5916.17 10213.45 199.94
endloop
endfacet
facet normal 0 0 1
outer loop
vertex 6077.63 10216.57 199.94
vertex 5916.17 10213.45 199.94
vertex 5916.43 10210.98 199.94
endloop
endfacet
facet normal 0 0 1
outer loop
vertex 6077.63 10216.57 199.94
vertex 5916.43 10210.98 199.94
vertex 6321.900000000001 10210.98 199.94
endloop
endfacet
facet normal 0 0 1
outer loop
vertex 6077.63 10216.57 199.94
vertex 6321.900000000001 10210.98 199.94
vertex 6318.52 10223.720000000001 199.94
endloop
endfacet
facet normal 0 0 1
outer loop
vertex 6077.63 10216.57 199.94
vertex 6318.52 10223.720000000001 199.94
vertex 5915.26 10223.720000000001 199.94
endloop
endfacet
facet normal 0 0 1
outer loop
vertex 5916.43 10210.98 199.94
vertex 5917.99 10198.5 199.94
vertex 6326.06 10198.5 199.94
endloop
endfacet
facet normal 0 0 1
outer loop
vertex 5916.43 10210.98 199.94
vertex 6326.06 10198.5 199.94
vertex 6321.900000000001 10210.98 199.94
endloop
endfacet
facet normal 0 0 1
outer loop
vertex 5917.99 10198.5 199.94
vertex 5919.55 10186.28 199.94
vertex 6331 10186.28 199.94
endloop
endfacet
facet normal 0 0 1
outer loop
vertex 5917.99 10198.5 199.94
vertex 6331 10186.28 199.94
vertex 6326.06 10198.5 199.94
endloop
endfacet
facet normal 0 0 1
outer loop
vertex 5919.55 10186.28 199.94
vertex 5920.9800000000005 10174.45 199.94
vertex 6336.72 10174.45 199.94
endloop
endfacet
facet normal 0 0 1
outer loop
vertex 5919.55 10186.28 199.94
vertex 6336.72 10174.45 199.94
vertex 6331 10186.28 199.94
endloop
endfacet
facet normal 0 0 1
outer loop
vertex 5920.9800000000005 10174.45 199.94
vertex 5923.1900000000005 10163.01 199.94
vertex 6343.22 10163.01 199.94
endloop
endfacet
facet normal 0 0 1
outer loop
vertex 5920.9800000000005 10174.45 199.94
vertex 6343.22 10163.01 199.94
vertex 6336.72 10174.45 199.94
endloop
endfacet
facet normal 0 0 1
outer loop
vertex 6040.71 10066.03 199.94
vertex 5923.1900000000005 10163.01 199.94
vertex 5928.39 10135.84 199.94
endloop
endfacet
facet normal 0 0 1
outer loop
vertex 6040.71 10066.03 199.94
vertex 5928.39 10135.84 199.94
vertex 5938.27 10097.75 199.94
endloop
endfacet
facet normal 0 0 1
outer loop
vertex 6040.71 10066.03 199.94
vertex 5938.27 10097.75 199.94
vertex 5950.62 10060.44 199.94
endloop
endfacet
facet normal 0 0 0.9999999999999999
outer loop
vertex 6040.71 10066.03 199.94
vertex 5950.62 10060.44 199.94
vertex 5965.4400000000005 10023.91 199.94
endloop
endfacet
facet normal 0 0 1
outer loop
vertex 6040.71 10066.03 199.94
vertex 5965.4400000000005 10023.91 199.94
vertex 5982.47 9988.550000000001 199.94
endloop
endfacet
facet normal 0 0 1
outer loop
vertex 6040.71 10066.03 199.94
vertex 5982.47 9988.550000000001 199.94
vertex 6001.97 9954.36 199.94
endloop
endfacet
facet normal 0 0 1
outer loop
vertex 6040.71 10066.03 199.94
vertex 6001.97 9954.36 199.94
vertex 6023.55 9921.470000000001 199.94
endloop
endfacet
facet normal 0 0 0.9999999999999999
outer loop
vertex 6040.71 10066.03 199.94
vertex 6023.55 9921.470000000001 199.94
vertex 6350.37 10151.960000000001 199.94
endloop
endfacet
facet normal 0 0 1
outer loop
vertex 6040.71 10066.03 199.94
vertex 6350.37 10151.960000000001 199.94
vertex 6343.22 10163.01 199.94
endloop
endfacet
facet normal 0 0 1
outer loop
vertex 6040.71 10066.03 199.94
vertex 6343.22 10163.01 199.94
vertex 5923.1900000000005 10163.01 199.94
endloop
endfacet
facet normal 0 0 1
outer loop
vertex 6460.22 7423.13 199.94
vertex 6150.56 7337.2 199.94
vertex 6157.84 7326.150000000001 199.94
endloop
endfacet
facet normal 0 0 1
outer loop
vertex 6460.22 7423.13 199.94
vertex 6157.84 7326.150000000001 199.94
vertex 6577.87 7326.150000000001 199.94
endloop
endfacet
facet normal 0 0 1
outer loop
vertex 6460.22 7423.13 199.94
vertex 6577.87 7326.150000000001 199.94
vertex 6572.67 7353.45 199.94
endloop
endfacet
facet normal 0 0 1
outer loop
vertex 6460.22 7423.13 199.94
vertex 6572.67 7353.45 199.94
vertex 6562.79 7391.41 199.94
endloop
endfacet
facet normal 0 0 1
outer loop
vertex 6460.22 7423.13 199.94
vertex 6562.79 7391.41 199.94
vertex 6550.31 7428.85 199.94
endloop
endfacet
facet normal 0 0 1
outer loop
vertex 6460.22 7423.13 199.94
vertex 6550.31 7428.85 199.94
vertex 6535.62 7465.25 199.94
endloop
endfacet
facet normal 0 0 1
outer loop
vertex 6460.22 7423.13 199.94
vertex 6535.62 7465.25 199.94
vertex 6518.46 7500.610000000001 199.94
endloop
endfacet
facet normal 0 0 1
outer loop
vertex 6460.22 7423.13 199.94
vertex 6518.46 7500.610000000001 199.94
vertex 6499.09 7534.8 199.94
endloop
endfacet
facet normal 0 0 0.9999999999999999
outer loop
vertex 6460.22 7423.13 199.94
vertex 6499.09 7534.8 199.94
vertex 6477.51 7567.6900000000005 199.94
endloop
endfacet
facet normal 0 0 1
outer loop
vertex 6460.22 7423.13 199.94
vertex 6477.51 7567.6900000000005 199.94
vertex 6150.56 7337.2 199.94
endloop
endfacet
facet normal 0 0 1
outer loop
vertex 6157.84 7326.150000000001 199.94
vertex 6164.34 7314.71 199.94
vertex 6579.95 7314.71 199.94
endloop
endfacet
facet normal 0 0 1
outer loop
vertex 6157.84 7326.150000000001 199.94
vertex 6579.95 7314.71 199.94
vertex 6577.87 7326.150000000001 199.94
endloop
endfacet
facet normal 0 0 1
outer loop
vertex 6164.34 7314.71 199.94
vertex 6170.06 7302.88 199.94
vertex 6581.51 7302.88 199.94
endloop
endfacet
facet normal 0 0 1
outer loop
vertex 6164.34 7314.71 199.94
vertex 6581.51 7302.88 199.94
vertex 6579.95 7314.71 199.94
endloop
endfacet
facet normal 0 0 1
outer loop
vertex 6170.06 7302.88 199.94
vertex 6175 7290.66 199.94
vertex 6582.9400000000005 7290.66 199.94
endloop
endfacet
facet normal 0 0 1
outer loop
vertex 6170.06 7302.88 199.94
vertex 6582.9400000000005 7290.66 199.94
vertex 6581.51 7302.88 199.94
endloop
endfacet
facet normal 0 0 1
outer loop
vertex 6175 7290.66 199.94
vertex 6179.030000000001 7278.18 199.94
vertex 6584.5 7278.18 199.94
endloop
endfacet
facet normal 0 0 1
outer loop
vertex 6175 7290.66 199.94
vertex 6584.5 7278.18 199.94
vertex 6582.9400000000005 7290.66 199.94
endloop
endfacet
facet normal 0 0 1
outer loop
vertex 6423.3 7272.59 199.94
vertex 6179.030000000001 7278.18 199.94
vertex 6182.41 7265.4400000000005 199.94
endloop
endfacet
facet normal 0 0 1
outer loop
vertex 6423.3 7272.59 199.94
vertex 6182.41 7265.4400000000005 199.94
vertex 6585.8 7265.4400000000005 199.94
endloop
endfacet
facet normal 0 0 1
outer loop
vertex 6423.3 7272.59 199.94
vertex 6585.8 7265.4400000000005 199.94
vertex 6584.89 7275.71 199.94
endloop
endfacet
facet normal 0 0 0.9999999999999999
outer loop
vertex 6423.3 7272.59 199.94
vertex 6584.89 7275.71 199.94
vertex 6584.5 7278.18 199.94
endloop
endfacet
facet normal 0 0 1
outer loop
vertex 6423.3 7272.59 199.94
vertex 6584.5 7278.18 199.94
vertex 6179.030000000001 7278.18 199.94
endloop
endfacet
facet normal 0 0 1
outer loop
vertex 6182.41 7265.4400000000005 199.94
vertex 6184.88 7252.570000000001 199.94
vertex 6586.97 7252.570000000001 199.94
endloop
endfacet
facet normal 0 0 0.9999999999999999
outer loop
vertex 6182.41 7265.4400000000005 199.94
vertex 6586.97 7252.570000000001 199.94
vertex 6585.8 7265.4400000000005 199.94
endloop
endfacet
facet normal 0 0 1
outer loop
vertex 6184.88 7252.570000000001 199.94
vertex 6186.4400000000005 7239.570000000001 199.94
vertex 6588.14 7239.570000000001 199.94
endloop
endfacet
facet normal 0 0 1
outer loop
vertex 6184.88 7252.570000000001 199.94
vertex 6588.14 7239.570000000001 199.94
vertex 6586.97 7252.570000000001 199.94
endloop
endfacet
facet normal 0 0 0.9999999999999999
outer loop
vertex 6186.4400000000005 7239.570000000001 199.94
vertex 6300.84 5981.95 199.94
vertex 6699.16 6018.09 199.94
endloop
endfacet
facet normal 0 0 0.9999999999999999
outer loop
vertex 6186.4400000000005 7239.570000000001 199.94
vertex 6699.16 6018.09 199.94
vertex 6588.14 7239.570000000001 199.94
endloop
endfacet
facet normal 0 0 -1
outer loop
vertex 6314.49 10249.59 599.95
vertex 5912.79 10249.59 599.95
vertex 5800.860000000001 11481.86 599.95
endloop
endfacet
facet normal 0 0 -0.9999999999999999
outer loop
vertex 6314.49 10249.59 599.95
vertex 5800.860000000001 11481.86 599.95
vertex 6199.18 11518.130000000001 599.95
endloop
endfacet
facet normal 0 0 -1
outer loop
vertex 6314.49 10249.59 599.95
vertex 6314.49 10249.33 599.95
vertex 5912.92 10249.33 599.95
endloop
endfacet
facet normal 0 0 -1
outer loop
vertex 6314.49 10249.59 599.95
vertex 5912.92 10249.33 599.95
vertex 5912.79 10249.59 599.95
endloop
endfacet
facet normal 0 0 -1
outer loop
vertex 6314.49 10249.33 599.95
vertex 6316.05 10236.59 599.95
vertex 6315.66 10236.59 599.95
endloop
endfacet
facet normal 0 0 -1
outer loop
vertex 6316.05 10236.59 599.95
vertex 6318.52 10223.720000000001 599.95
vertex 6316.83 10223.720000000001 599.95
endloop
endfacet
facet normal 0 0 -1
outer loop
vertex 6316.05 10236.59 599.95
vertex 6316.83 10223.720000000001 599.95
vertex 6315.66 10236.59 599.95
endloop
endfacet
facet normal 0 0 -1
outer loop
vertex 6314.49 10249.33 599.95
vertex 5916.17 10213.19 599.95
vertex 5916.17 10213.45 599.95
endloop
endfacet
facet normal 0 0 -0.9999999999999999
outer loop
vertex 6314.49 10249.33 599.95
vertex 5916.17 10213.45 599.95
vertex 5912.92 10249.33 599.95
endloop
endfacet
facet normal 0 0 -0.9999999999999999
outer loop
vertex 6318.52 10223.720000000001 599.95
vertex 6321.900000000001 10210.98 599.95
vertex 6318 10210.98 599.95
endloop
endfacet
facet normal 0 0 -1
outer loop
vertex 6318.52 10223.720000000001 599.95
vertex 6318 10210.98 599.95
vertex 6316.83 10223.720000000001 599.95
endloop
endfacet
facet normal 0 0 -1
outer loop
vertex 6321.900000000001 10210.98 599.95
vertex 6326.06 10198.5 599.95
vertex 6319.17 10198.5 599.95
endloop
endfacet
facet normal 0 0 -1
outer loop
vertex 6321.900000000001 10210.98 599.95
vertex 6319.17 10198.5 599.95
vertex 6318 10210.98 599.95
endloop
endfacet
facet normal 0 0 -1
outer loop
vertex 6326.06 10198.5 599.95
vertex 6331 10186.28 599.95
vertex 6320.21 10186.28 599.95
endloop
endfacet
facet normal 0 0 -1
outer loop
vertex 6326.06 10198.5 599.95
vertex 6320.21 10186.28 599.95
vertex 6319.17 10198.5 599.95
endloop
endfacet
facet normal 0 0 -1
outer loop
vertex 6331 10186.28 599.95
vertex 6336.72 10174.45 599.95
vertex 6321.38 10174.45 599.95
endloop
endfacet
facet normal 0 0 -1
outer loop
vertex 6331 10186.28 599.95
vertex 6321.38 10174.45 599.95
vertex 6320.21 10186.28 599.95
endloop
endfacet
facet normal 0 0 -0.9999999999999999
outer loop
vertex 6336.72 10174.45 599.95
vertex 6343.22 10163.01 599.95
vertex 6322.42 10163.01 599.95
endloop
endfacet
facet normal 0 0 -1
outer loop
vertex 6336.72 10174.45 599.95
vertex 6322.42 10163.01 599.95
vertex 6321.38 10174.45 599.95
endloop
endfacet
facet normal 0 0 -1
outer loop
vertex 6343.22 10163.01 599.95
vertex 6350.37 10151.960000000001 599.95
vertex 6325.02 10134.02 599.95
endloop
endfacet
facet normal 0 0 -1
outer loop
vertex 6343.22 10163.01 599.95
vertex 6325.02 10134.02 599.95
vertex 6322.42 10163.01 599.95
endloop
endfacet
facet normal 0 0 -1
outer loop
vertex 6178.64 7326.150000000001 599.95
vertex 6157.84 7326.150000000001 599.95
vertex 6150.56 7337.2 599.95
endloop
endfacet
facet normal 0 0 -1
outer loop
vertex 6178.64 7326.150000000001 599.95
vertex 6150.56 7337.2 599.95
vertex 6176.04 7355.14 599.95
endloop
endfacet
facet normal 0 0 -1
outer loop
vertex 6178.64 7326.150000000001 599.95
vertex 6179.68 7314.71 599.95
vertex 6164.34 7314.71 599.95
endloop
endfacet
facet normal 0 0 -0.9999999999999999
outer loop
vertex 6178.64 7326.150000000001 599.95
vertex 6164.34 7314.71 599.95
vertex 6157.84 7326.150000000001 599.95
endloop
endfacet
facet normal 0 0 -1
outer loop
vertex 6179.68 7314.71 599.95
vertex 6180.72 7302.88 599.95
vertex 6170.06 7302.88 599.95
endloop
endfacet
facet normal 0 0 -1
outer loop
vertex 6179.68 7314.71 599.95
vertex 6170.06 7302.88 599.95
vertex 6164.34 7314.71 599.95
endloop
endfacet
facet normal 0 0 -1
outer loop
vertex 6180.72 7302.88 599.95
vertex 6181.89 7290.66 599.95
vertex 6175 7290.66 599.95
endloop
endfacet
facet normal 0 0 -1
outer loop
vertex 6180.72 7302.88 599.95
vertex 6175 7290.66 599.95
vertex 6170.06 7302.88 599.95
endloop
endfacet
facet normal 0 0 -1
outer loop
vertex 6181.89 7290.66 599.95
vertex 6182.93 7278.18 599.95
vertex 6179.030000000001 7278.18 599.95
endloop
endfacet
facet normal 0 0 -1
outer loop
vertex 6181.89 7290.66 599.95
vertex 6179.030000000001 7278.18 599.95
vertex 6175 7290.66 599.95
endloop
endfacet
facet normal 0 0 -1
outer loop
vertex 6182.93 7278.18 599.95
vertex 6184.1 7265.4400000000005 599.95
vertex 6182.41 7265.4400000000005 599.95
endloop
endfacet
facet normal 0 0 -0.9999999999999999
outer loop
vertex 6182.93 7278.18 599.95
vertex 6182.41 7265.4400000000005 599.95
vertex 6179.030000000001 7278.18 599.95
endloop
endfacet
facet normal 0 0 -1
outer loop
vertex 6184.1 7265.4400000000005 599.95
vertex 6185.27 7252.570000000001 599.95
vertex 6184.88 7252.570000000001 599.95
endloop
endfacet
facet normal 0 0 -1
outer loop
vertex 6184.1 7265.4400000000005 599.95
vertex 6184.88 7252.570000000001 599.95
vertex 6182.41 7265.4400000000005 599.95
endloop
endfacet
facet normal 0 0 -1
outer loop
vertex 6185.27 7252.570000000001 599.95
vertex 6186.4400000000005 7239.83 599.95
vertex 6184.88 7252.570000000001 599.95
endloop
endfacet
facet normal 0 0 -1
outer loop
vertex 6584.89 7275.71 599.95
vertex 6588.14 7239.83 599.95
vertex 6186.4400000000005 7239.83 599.95
endloop
endfacet
facet normal 0 0 -1
outer loop
vertex 6584.89 7275.71 599.95
vertex 6186.4400000000005 7239.83 599.95
vertex 6584.76 7275.97 599.95
endloop
endfacet
facet normal 0 0 -0.9999999999999999
outer loop
vertex 6588.14 7239.83 599.95
vertex 6588.14 7239.570000000001 599.95
vertex 6186.4400000000005 7239.570000000001 599.95
endloop
endfacet
facet normal 0 0 -0.9999999999999999
outer loop
vertex 6588.14 7239.83 599.95
vertex 6186.4400000000005 7239.570000000001 599.95
vertex 6186.4400000000005 7239.83 599.95
endloop
endfacet
facet normal 0 0 -1
outer loop
vertex 6588.14 7239.570000000001 599.95
vertex 6699.16 6018.09 599.95
vertex 6300.84 5981.95 599.95
endloop
endfacet
facet normal 0 0 -0.9999999999999999
outer loop
vertex 6588.14 7239.570000000001 599.95
vertex 6300.84 5981.95 599.95
vertex 6186.4400000000005 7239.570000000001 599.95
endloop
endfacet
facet normal -0.83877966172178 -0.5444710084861237 0
outer loop
vertex 6348.030000000001 10155.6 371.41
vertex 6343.22 10163.01 599.95
vertex 6343.22 10163.01 199.94
endloop
endfacet
facet normal -0.8395701547981091 -0.5432512766340788 0.00007488473039480044
outer loop
vertex 6348.030000000001 10155.6 371.41
vertex 6343.22 10163.01 199.94
vertex 6350.37 10151.960000000001 199.94
endloop
endfacet
facet normal -0.8411784753765945 -0.540757591313435 0
outer loop
vertex 6348.030000000001 10155.6 371.41
vertex 6350.37 10151.960000000001 199.94
vertex 6350.37 10151.960000000001 248.69
endloop
endfacet
facet normal -0.8411784753765945 -0.540757591313435 0
outer loop
vertex 6348.030000000001 10155.6 371.41
vertex 6350.37 10151.960000000001 248.69
vertex 6350.37 10151.960000000001 379.99
endloop
endfacet
facet normal -0.8411784753765945 -0.540757591313435 0
outer loop
vertex 6348.030000000001 10155.6 371.41
vertex 6350.37 10151.960000000001 379.99
vertex 6350.37 10151.960000000001 599.95
endloop
endfacet
facet normal -0.8395701558269965 -0.5432512772998294 -0.00005618484613867312
outer loop
vertex 6348.030000000001 10155.6 371.41
vertex 6350.37 10151.960000000001 599.95
vertex 6343.22 10163.01 599.95
endloop
endfacet
facet normal -0.8694565573927775 -0.49400940760951073 0
outer loop
vertex 6336.72 10174.45 599.95
vertex 6336.72 10174.45 199.94
vertex 6343.22 10163.01 199.94
endloop
endfacet
facet normal -0.8694565573927775 -0.49400940760951073 0
outer loop
vertex 6336.72 10174.45 599.95
vertex 6343.22 10163.01 199.94
vertex 6343.22 10163.01 599.95
endloop
endfacet
facet normal -0.9002843394976847 -0.4353023179989025 0
outer loop
vertex 6331 10186.28 599.95
vertex 6331 10186.28 199.94
vertex 6336.72 10174.45 199.94
endloop
endfacet
facet normal -0.9002843394976847 -0.4353023179989025 0
outer loop
vertex 6331 10186.28 599.95
vertex 6336.72 10174.45 199.94
vertex 6336.72 10174.45 599.95
endloop
endfacet
facet normal -0.9271100657041578 -0.3747891754974152 0
outer loop
vertex 6326.06 10198.5 599.95
vertex 6326.06 10198.5 199.94
vertex 6331 10186.28 199.94
endloop
endfacet
facet normal -0.9271100657041578 -0.3747891754974152 0
outer loop
vertex 6326.06 10198.5 599.95
vertex 6331 10186.28 199.94
vertex 6331 10186.28 599.95
endloop
endfacet
facet normal -0.9486832980505138 -0.31622776601683794 0
outer loop
vertex 6321.900000000001 10210.98 599.95
vertex 6321.900000000001 10210.98 199.94
vertex 6326.06 10198.5 199.94
endloop
endfacet
facet normal -0.9486832980505138 -0.31622776601683794 0
outer loop
vertex 6321.900000000001 10210.98 599.95
vertex 6326.06 10198.5 199.94
vertex 6326.06 10198.5 599.95
endloop
endfacet
facet normal -0.9665615578617838 -0.256434699024531 0
outer loop
vertex 6318.52 10223.720000000001 599.95
vertex 6318.52 10223.720000000001 199.94
vertex 6321.900000000001 10210.98 199.94
endloop
endfacet
facet normal -0.9665615578617838 -0.256434699024531 0
outer loop
vertex 6318.52 10223.720000000001 599.95
vertex 6321.900000000001 10210.98 199.94
vertex 6321.900000000001 10210.98 599.95
endloop
endfacet
facet normal -0.9820771339102682 -0.18847944994240906 0
outer loop
vertex 6316.05 10236.59 599.95
vertex 6316.05 10236.59 199.94
vertex 6318.52 10223.720000000001 199.94
endloop
endfacet
facet normal -0.9820771339102682 -0.18847944994240906 0
outer loop
vertex 6316.05 10236.59 599.95
vertex 6318.52 10223.720000000001 199.94
vertex 6318.52 10223.720000000001 599.95
endloop
endfacet
facet normal -0.9928768384869184 -0.11914522061846076 0
outer loop
vertex 6314.49 10249.59 599.95
vertex 6314.49 10249.59 199.94
vertex 6316.05 10236.59 199.94
endloop
endfacet
facet normal -0.9928768384869184 -0.11914522061846076 0
outer loop
vertex 6314.49 10249.59 599.95
vertex 6316.05 10236.59 199.94
vertex 6316.05 10236.59 599.95
endloop
endfacet
facet normal 0.07889393186522596 -0.862687994091423 0.49954496530879167
outer loop
vertex 6325.02 10134.02 379.99
vertex 6201.13 10046.66 248.69
vertex 6331.91 10058.62 248.69
endloop
endfacet
facet normal 0.07837759871213269 -0.8621535858327489 0.5005478463202618
outer loop
vertex 5950.62 10060.44 311.61
vertex 5950.62 10023.91 248.69
vertex 5964.92 10025.210000000001 248.69
endloop
endfacet
facet normal 0.07748381601939902 -0.8626263554245341 0.4998720128013343
outer loop
vertex 5950.62 10060.44 311.61
vertex 5938.27 10097.75 377.91
vertex 5938.27 10022.87 248.69
endloop
endfacet
facet normal 0.07263408035724377 -0.8625297042430178 0.5007662125873806
outer loop
vertex 5950.62 10060.44 311.61
vertex 5938.27 10022.87 248.69
vertex 5950.62 10023.91 248.69
endloop
endfacet
facet normal 0.07581190820580136 -0.862672867551471 0.5000480758534295
outer loop
vertex 5933.33 10071.62 333.58
vertex 5938.27 10097.75 377.91
vertex 5928.39 10135.84 445.12
endloop
endfacet
facet normal 0.08923398790413409 -0.8614511909204494 0.49993913736020323
outer loop
vertex 5933.33 10071.62 333.58
vertex 5928.39 10135.84 445.12
vertex 5928.39 10079.03 347.23
endloop
endfacet
facet normal 0.08972731503507832 -0.8613334216008306 0.5000537428817042
outer loop
vertex 5933.33 10071.62 333.58
vertex 5928.39 10079.03 347.23
vertex 5933.46 10022.35 248.69
endloop
endfacet
facet normal 0.0930880411936869 -0.8610643810409375 0.49990273882957437
outer loop
vertex 5933.33 10071.62 333.58
vertex 5933.46 10022.35 248.69
vertex 5938.27 10022.87 248.69
endloop
endfacet
facet normal 0.07714783383962528 -0.8626488986957425 0.4998850761053745
outer loop
vertex 5933.33 10071.62 333.58
vertex 5938.27 10022.87 248.69
vertex 5938.27 10097.75 377.91
endloop
endfacet
facet normal 0.10270501715351338 -0.8597056330937878 0.5003577758747294
outer loop
vertex 5928.39 10135.84 445.12
vertex 5920.9800000000005 10174.45 512.98
vertex 5920.9800000000005 10160.15 488.41
endloop
endfacet
facet normal 0.09448664197136405 -0.8610320934291604 0.4996959161069585
outer loop
vertex 5928.39 10135.84 445.12
vertex 5920.9800000000005 10160.15 488.41
vertex 5928.39 10079.03 347.23
endloop
endfacet
facet normal 0.10204552603068816 -0.8597642934082782 0.5003919167985071
outer loop
vertex 5920.9800000000005 10174.45 512.98
vertex 5916.17 10213.45 580.97
vertex 5920.9800000000005 10160.15 488.41
endloop
endfacet
facet normal -0.04550744775200552 0.4979814996862116 0.8659927818229028
outer loop
vertex 6331.91 10058.62 248.69
vertex 6232.33 10049.52 248.69
vertex 6232.33 8944.26 884.26
endloop
endfacet
facet normal -0.04518106779816022 0.4979668767394423 0.8660182797048704
outer loop
vertex 6331.91 10058.62 248.69
vertex 6232.33 8944.26 884.26
vertex 6431.49 8962.33 884.26
endloop
endfacet
facet normal -0.04565006185402101 0.4980006747710389 0.8659742489129304
outer loop
vertex 6137.820000000001 9406.54 613.47
vertex 6232.33 10049.52 248.69
vertex 6201.13 10046.66 248.69
endloop
endfacet
facet normal -0.04482814650319688 0.49795787649219536 0.8660417949039592
outer loop
vertex 6137.820000000001 9406.54 613.47
vertex 6201.13 10046.66 248.69
vertex 6023.55 9921.470000000001 311.48
endloop
endfacet
facet normal -0.04508412154793292 0.49790956838704936 0.8660562820584315
outer loop
vertex 6137.820000000001 9406.54 613.47
vertex 6023.55 9921.470000000001 311.48
vertex 6023.55 9032.14 822.77
endloop
endfacet
facet normal -0.044493084692091935 0.49778597883079273 0.8661578867008325
outer loop
vertex 6137.820000000001 9406.54 613.47
vertex 6023.55 9032.14 822.77
vertex 6033.95 8917.48 889.2
endloop
endfacet
facet normal -0.04532765222426071 0.4979014201688045 0.8660482548551923
outer loop
vertex 6137.820000000001 9406.54 613.47
vertex 6033.95 8917.48 889.2
vertex 6218.16 8934.25 889.2
endloop
endfacet
facet normal -0.04933065458991189 0.4972958792057804 0.866177403909084
outer loop
vertex 6137.820000000001 9406.54 613.47
vertex 6218.16 8934.25 889.2
vertex 6232.33 8944.26 884.26
endloop
endfacet
facet normal -0.045448199264948315 0.4979828442762345 0.8659951200729282
outer loop
vertex 6137.820000000001 9406.54 613.47
vertex 6232.33 8944.26 884.26
vertex 6232.33 10049.52 248.69
endloop
endfacet
facet normal -0.0444635932639567 0.4979843187819711 0.866045383984762
outer loop
vertex 6023.55 9921.470000000001 311.48
vertex 6001.97 9954.36 291.46000000000004
vertex 6001.97 9269.78 685.1
endloop
endfacet
facet normal -0.04202315294899184 0.4979760786104665 0.8661719689230125
outer loop
vertex 6023.55 9921.470000000001 311.48
vertex 6001.97 9269.78 685.1
vertex 6023.55 9032.14 822.77
endloop
endfacet
facet normal -0.044899218706755804 0.4979642408178914 0.8660344537177398
outer loop
vertex 6001.97 9954.36 291.46000000000004
vertex 5982.47 9988.550000000001 270.79
vertex 5982.47 9483.24 561.34
endloop
endfacet
facet normal -0.04523146661086766 0.49796713531719605 0.8660155001916625
outer loop
vertex 6001.97 9954.36 291.46000000000004
vertex 5982.47 9483.24 561.34
vertex 6001.97 9269.78 685.1
endloop
endfacet
facet normal -0.050397737309349364 0.497777651440006 0.8658391754829355
outer loop
vertex 5982.47 9988.550000000001 270.79
vertex 5965.4400000000005 10023.91 249.47
vertex 5965.4400000000005 9671.61 452.01
endloop
endfacet
facet normal -0.051775043686585406 0.4977983766510839 0.8657459910705898
outer loop
vertex 5982.47 9988.550000000001 270.79
vertex 5965.4400000000005 9671.61 452.01
vertex 5982.47 9483.24 561.34
endloop
endfacet
facet normal -0.05135612593452607 0.49863215297687347 0.8652910055851989
outer loop
vertex 5955.95 9953.45 289.51
vertex 5965.4400000000005 10023.91 249.47
vertex 5964.92 10025.210000000001 248.69
endloop
endfacet
facet normal -0.04529147194485528 0.4982061913929935 0.8658748601424783
outer loop
vertex 5955.95 9953.45 289.51
vertex 5964.92 10025.210000000001 248.69
vertex 5950.62 10023.91 248.69
endloop
endfacet
facet normal -0.04529147194480349 0.49820619139299754 0.8658748601424785
outer loop
vertex 5955.95 9953.45 289.51
vertex 5950.62 10023.91 248.69
vertex 5933.46 10022.35 248.69
endloop
endfacet
facet normal -0.046992516971639565 0.49775198997869413 0.8660454144101914
outer loop
vertex 5955.95 9953.45 289.51
vertex 5933.46 10022.35 248.69
vertex 5965.4400000000005 9671.61 452.01
endloop
endfacet
facet normal -0.042714228363194856 0.49795613454943305 0.8661496306989479
outer loop
vertex 5955.95 9953.45 289.51
vertex 5965.4400000000005 9671.61 452.01
vertex 5965.4400000000005 10023.91 249.47
endloop
endfacet
facet normal 0.04477469835276425 -0.4979997545816148 -0.8660204794484195
outer loop
vertex 6115.33 9789 854.23
vertex 6015.88 9116.77 1235.65
vertex 5916.17 10213.06 600.08
endloop
endfacet
facet normal -0.5165444255285125 -0.6054675286296763 -0.6054675286342704
outer loop
vertex 6115.33 9789 854.23
vertex 5916.17 10213.06 600.08
vertex 5916.17 10213.19 599.95
endloop
endfacet
facet normal 0.04517803618513507 -0.497933463565669 -0.8660376498212714
outer loop
vertex 6115.33 9789 854.23
vertex 5916.17 10213.19 599.95
vertex 6314.49 10249.33 599.95
endloop
endfacet
facet normal 0.04533506483964999 -0.49798158439156753 -0.866001774537933
outer loop
vertex 6115.33 9789 854.23
vertex 6314.49 10249.33 599.95
vertex 6414.2 9152.91 1235.65
endloop
endfacet
facet normal 0.04518739550242252 -0.49803661805548555 -0.8659778440373416
outer loop
vertex 6115.33 9789 854.23
vertex 6414.2 9152.91 1235.65
vertex 6015.88 9116.77 1235.65
endloop
endfacet
facet normal -1 0 0
outer loop
vertex 5916.17 10213.06 600.08
vertex 5916.17 10213.45 599.82
vertex 5916.17 10213.19 599.95
endloop
endfacet
facet normal 1 0 0
outer loop
vertex 5916.17 10213.19 599.95
vertex 5916.17 10213.45 599.82
vertex 5916.17 10213.45 599.95
endloop
endfacet
facet normal 0.9924801257500088 0.12240588217584458 0
outer loop
vertex 5920.9800000000005 10174.45 512.98
vertex 5920.9800000000005 10174.45 199.94
vertex 5916.17 10213.45 199.94
endloop
endfacet
facet normal 0.9924801257500089 0.12240588217584461 0
outer loop
vertex 5920.9800000000005 10174.45 512.98
vertex 5916.17 10213.45 199.94
vertex 5916.17 10213.45 580.97
endloop
endfacet
facet normal 0.9820771339102757 0.18847944994236962 0
outer loop
vertex 5928.39 10135.84 445.12
vertex 5928.39 10135.84 199.94
vertex 5920.9800000000005 10174.45 199.94
endloop
endfacet
facet normal 0.9820771339102758 0.18847944994236962 0
outer loop
vertex 5928.39 10135.84 445.12
vertex 5920.9800000000005 10174.45 199.94
vertex 5920.9800000000005 10174.45 512.98
endloop
endfacet
facet normal 0.9679671670888805 0.25107680784558173 0
outer loop
vertex 5938.27 10097.75 377.91
vertex 5938.27 10097.75 199.94
vertex 5928.39 10135.84 199.94
endloop
endfacet
facet normal 0.9679671670888805 0.25107680784558173 0
outer loop
vertex 5938.27 10097.75 377.91
vertex 5928.39 10135.84 199.94
vertex 5928.39 10135.84 445.12
endloop
endfacet
facet normal 0.9495057215610331 0.313749716689692 0
outer loop
vertex 5945.68 10075.390000000001 267.67
vertex 5950.62 10060.44 311.61
vertex 5950.62 10060.44 248.69
endloop
endfacet
facet normal 0.9495057215610331 0.3137497166896919 0
outer loop
vertex 5945.68 10075.390000000001 267.67
vertex 5950.62 10060.44 248.69
vertex 5950.62 10060.44 199.94
endloop
endfacet
facet normal 0.9493427780275818 0.3142423829707927 -0.00012063047331619146
outer loop
vertex 5945.68 10075.390000000001 267.67
vertex 5950.62 10060.44 199.94
vertex 5938.27 10097.75 199.94
endloop
endfacet
facet normal 0.9492337334169336 0.31457164421376244 0
outer loop
vertex 5945.68 10075.390000000001 267.67
vertex 5938.27 10097.75 199.94
vertex 5938.27 10097.75 377.91
endloop
endfacet
facet normal 0.9494041952924648 0.31405677915149877 0.00011588811039460466
outer loop
vertex 5945.68 10075.390000000001 267.67
vertex 5938.27 10097.75 377.91
vertex 5950.62 10060.44 311.61
endloop
endfacet
facet normal 0.9265783092932314 0.3761018967610996 0
outer loop
vertex 5964.92 10025.210000000001 248.69
vertex 5950.62 10060.44 248.69
vertex 5950.62 10060.44 311.61
endloop
endfacet
facet normal 0.9284766908852594 0.37139067635410383 0
outer loop
vertex 5965.4400000000005 10023.91 248.69
vertex 5964.92 10025.210000000001 248.69
vertex 5965.4400000000005 10023.91 249.47
endloop
endfacet
facet normal 0.9266461436056248 0.3759347344165258 0
outer loop
vertex 5965.4400000000005 10023.91 248.69
vertex 5965.4400000000005 10023.91 199.94
vertex 5950.62 10060.44 199.94
endloop
endfacet
facet normal 0.9266461436056248 0.3759347344165258 0
outer loop
vertex 5965.4400000000005 10023.91 248.69
vertex 5950.62 10060.44 199.94
vertex 5950.62 10060.44 248.69
endloop
endfacet
facet normal 0.8998797711695508 0.4361380486036928 0
outer loop
vertex 5972.2 10009.74 233.74
vertex 5982.47 9988.550000000001 270.79
vertex 5982.47 9988.550000000001 199.94
endloop
endfacet
facet normal 0.9009523804559755 0.43391456558726155 0.0017198610204070043
outer loop
vertex 5972.2 10009.74 233.74
vertex 5982.47 9988.550000000001 199.94
vertex 5965.4400000000005 10023.91 199.94
endloop
endfacet
facet normal 0.9025541785688014 0.43057630537222596 0
outer loop
vertex 5972.2 10009.74 233.74
vertex 5965.4400000000005 10023.91 199.94
vertex 5965.4400000000005 10023.91 248.69
endloop
endfacet
facet normal 0.9025541785688014 0.4305763053722257 0
outer loop
vertex 5972.2 10009.74 233.74
vertex 5965.4400000000005 10023.91 248.69
vertex 5965.4400000000005 10023.91 249.47
endloop
endfacet
facet normal 0.901515206113418 0.4327407893565109 -0.002396324974933792
outer loop
vertex 5972.2 10009.74 233.74
vertex 5965.4400000000005 10023.91 249.47
vertex 5982.47 9988.550000000001 270.79
endloop
endfacet
facet normal 0.868649355217806 0.49542738890748655 0
outer loop
vertex 6001.97 9954.36 291.46000000000004
vertex 6001.97 9954.36 199.94
vertex 5982.47 9988.550000000001 199.94
endloop
endfacet
facet normal 0.8686493552178061 0.49542738890748655 0
outer loop
vertex 6001.97 9954.36 291.46000000000004
vertex 5982.47 9988.550000000001 199.94
vertex 5982.47 9988.550000000001 270.79
endloop
endfacet
facet normal 0.8371155952136636 0.5470260325158881 0
outer loop
vertex 6014.97 9934.6 250.25
vertex 6023.55 9921.470000000001 311.48
vertex 6023.55 9921.470000000001 248.69
endloop
endfacet
facet normal 0.8371155952136637 0.5470260325158882 0
outer loop
vertex 6014.97 9934.6 250.25
vertex 6023.55 9921.470000000001 248.69
vertex 6023.55 9921.470000000001 199.94
endloop
endfacet
facet normal 0.8360951382384201 0.5485841618481413 -0.0005806749946346868
outer loop
vertex 6014.97 9934.6 250.25
vertex 6023.55 9921.470000000001 199.94
vertex 6001.97 9954.36 199.94
endloop
endfacet
facet normal 0.8354170822439428 0.5496165014762721 0
outer loop
vertex 6014.97 9934.6 250.25
vertex 6001.97 9954.36 199.94
vertex 6001.97 9954.36 291.46000000000004
endloop
endfacet
facet normal 0.8359419461339301 0.5488176032962646 0.0005486401020815875
outer loop
vertex 6014.97 9934.6 250.25
vertex 6001.97 9954.36 291.46000000000004
vertex 6023.55 9921.470000000001 311.48
endloop
endfacet
facet normal -0.5776688575142591 0.8162712117048907 0
outer loop
vertex 6350.37 10151.960000000001 599.95
vertex 6350.37 10151.960000000001 379.99
vertex 6325.02 10134.02 379.99
endloop
endfacet
facet normal -0.5776688575142591 0.8162712117048907 0
outer loop
vertex 6350.37 10151.960000000001 599.95
vertex 6325.02 10134.02 379.99
vertex 6325.02 10134.02 599.95
endloop
endfacet
facet normal -0.5761897828452045 0.817315932883237 0
outer loop
vertex 6201.13 10046.66 248.69
vertex 6023.55 9921.470000000001 248.69
vertex 6023.55 9921.470000000001 311.48
endloop
endfacet
facet normal -0.5765155220572636 0.8170861966934949 0
outer loop
vertex 6350.37 10151.960000000001 379.99
vertex 6350.37 10151.960000000001 248.69
vertex 6201.13 10046.66 248.69
endloop
endfacet
facet normal -0.5776677428055981 0.8162696365730869 0.0019645179372458736
outer loop
vertex 6350.37 10151.960000000001 379.99
vertex 6201.13 10046.66 248.69
vertex 6325.02 10134.02 379.99
endloop
endfacet
facet normal -0.576338563393351 0.8172110255898953 0
outer loop
vertex 6350.37 10151.960000000001 248.69
vertex 6350.37 10151.960000000001 199.94
vertex 6023.55 9921.470000000001 199.94
endloop
endfacet
facet normal -0.576338563393351 0.8172110255898953 0
outer loop
vertex 6350.37 10151.960000000001 248.69
vertex 6023.55 9921.470000000001 199.94
vertex 6023.55 9921.470000000001 248.69
endloop
endfacet
facet normal 0.8530770368413829 0.5217849836991535 0
outer loop
vertex 6074.38 8819.98 1045.2
vertex 6082.570000000001 8806.59 1284.27
vertex 6082.570000000001 8806.59 884.26
endloop
endfacet
facet normal 0.8535270666792837 0.5210485000077095 0.00008417584814739102
outer loop
vertex 6074.38 8819.98 1045.2
vertex 6082.570000000001 8806.59 884.26
vertex 6068.92 8828.95 884.26
endloop
endfacet
facet normal 0.8541985556144677 0.5199469468956974 0
outer loop
vertex 6074.38 8819.98 1045.2
vertex 6068.92 8828.95 884.26
vertex 6068.92 8828.95 889.2
endloop
endfacet
facet normal 0.854198555614467 0.5199469468956985 0
outer loop
vertex 6074.38 8819.98 1045.2
vertex 6068.92 8828.95 889.2
vertex 6068.92 8828.95 1284.27
endloop
endfacet
facet normal 0.8535270683327708 0.5210485010171056 -0.000056666503647824566
outer loop
vertex 6074.38 8819.98 1045.2
vertex 6068.92 8828.95 1284.27
vertex 6082.570000000001 8806.59 1284.27
endloop
endfacet
facet normal 0.9142186532377563 0.4052212408945798 0
outer loop
vertex 6093.2300000000005 8782.54 1284.27
vertex 6093.2300000000005 8782.54 884.26
vertex 6082.570000000001 8806.59 884.26
endloop
endfacet
facet normal 0.9142186532377563 0.4052212408945798 0
outer loop
vertex 6093.2300000000005 8782.54 1284.27
vertex 6082.570000000001 8806.59 884.26
vertex 6082.570000000001 8806.59 1284.27
endloop
endfacet
facet normal 0.9580977087501059 0.2864415830283676 0
outer loop
vertex 6100.77 8757.32 1284.27
vertex 6100.77 8757.32 884.26
vertex 6093.2300000000005 8782.54 884.26
endloop
endfacet
facet normal 0.9580977087501059 0.2864415830283676 0
outer loop
vertex 6100.77 8757.32 1284.27
vertex 6093.2300000000005 8782.54 884.26
vertex 6093.2300000000005 8782.54 1284.27
endloop
endfacet
facet normal 0.9881997058915547 0.1531709544131813 0
outer loop
vertex 6104.8 8731.32 1284.27
vertex 6104.8 8731.32 884.26
vertex 6100.77 8757.32 884.26
endloop
endfacet
facet normal 0.9881997058915547 0.1531709544131813 0
outer loop
vertex 6104.8 8731.32 1284.27
vertex 6100.77 8757.32 884.26
vertex 6100.77 8757.32 1284.27
endloop
endfacet
facet normal 0.999693798181332 0.02474489599457337 0
outer loop
vertex 6105.45 8705.06 1284.27
vertex 6105.45 8705.06 884.26
vertex 6104.8 8731.32 884.26
endloop
endfacet
facet normal 0.999693798181332 0.02474489599457337 0
outer loop
vertex 6105.45 8705.06 1284.27
vertex 6104.8 8731.32 884.26
vertex 6104.8 8731.32 1284.27
endloop
endfacet
facet normal 0.9945864928494086 -0.10391202164096955 0
outer loop
vertex 6102.72 8678.93 1284.27
vertex 6102.72 8678.93 884.26
vertex 6105.45 8705.06 884.26
endloop
endfacet
facet normal 0.9945864928494086 -0.10391202164096955 0
outer loop
vertex 6102.72 8678.93 1284.27
vertex 6105.45 8705.06 884.26
vertex 6105.45 8705.06 1284.27
endloop
endfacet
facet normal 0.9715756952488489 -0.23672910341087336 0
outer loop
vertex 6096.4800000000005 8653.32 1284.27
vertex 6096.4800000000005 8653.32 884.26
vertex 6102.72 8678.93 884.26
endloop
endfacet
facet normal 0.9715756952488489 -0.23672910341087336 0
outer loop
vertex 6096.4800000000005 8653.32 1284.27
vertex 6102.72 8678.93 884.26
vertex 6102.72 8678.93 1284.27
endloop
endfacet
facet normal 0.9327030850436587 -0.3606451928835898 0
outer loop
vertex 6090.89 8638.630000000001 1045.2
vertex 6087.12 8628.880000000001 1284.27
vertex 6087.12 8628.880000000001 889.2
endloop
endfacet
facet normal 0.9327030850436585 -0.36064519288359026 0
outer loop
vertex 6090.89 8638.630000000001 1045.2
vertex 6087.12 8628.880000000001 889.2
vertex 6087.12 8628.880000000001 884.26
endloop
endfacet
facet normal 0.93385673136975 -0.35764725882249887 -0.0002086436171554697
outer loop
vertex 6090.89 8638.630000000001 1045.2
vertex 6087.12 8628.880000000001 884.26
vertex 6096.4800000000005 8653.32 884.26
endloop
endfacet
facet normal 0.9346186967740006 -0.3556513624892624 0
outer loop
vertex 6090.89 8638.630000000001 1045.2
vertex 6096.4800000000005 8653.32 884.26
vertex 6096.4800000000005 8653.32 1284.27
endloop
endfacet
facet normal 0.9338567424844818 -0.3576472630792046 0.0001404572056078081
outer loop
vertex 6090.89 8638.630000000001 1045.2
vertex 6096.4800000000005 8653.32 1284.27
vertex 6087.12 8628.880000000001 1284.27
endloop
endfacet
facet normal -0.9722120301789193 0.2341020469269421 0
outer loop
vertex 6485.83 8564.92 1064.05
vertex 6496.88 8610.81 1284.27
vertex 6496.88 8610.81 884.26
endloop
endfacet
facet normal -0.9720561830865997 0.2347482619018704 0.00017451980404690023
outer loop
vertex 6485.83 8564.92 1064.05
vertex 6496.88 8610.81 884.26
vertex 6478.42 8534.37 884.26
endloop
endfacet
facet normal -0.971821405262004 0.23571838340397638 0
outer loop
vertex 6485.83 8564.92 1064.05
vertex 6478.42 8534.37 884.26
vertex 6478.42 8534.37 983.32
endloop
endfacet
facet normal -0.9718214052620038 0.23571838340397638 0
outer loop
vertex 6485.83 8564.92 1064.05
vertex 6478.42 8534.37 983.32
vertex 6478.42 8534.37 1284.27
endloop
endfacet
facet normal -0.9720561880230171 0.23474826309399843 -0.00014247986435807087
outer loop
vertex 6485.83 8564.92 1064.05
vertex 6478.42 8534.37 1284.27
vertex 6496.88 8610.81 1284.27
endloop
endfacet
facet normal -0.9943777984382384 0.10589048103168752 0
outer loop
vertex 6505.2 8688.94 1284.27
vertex 6505.2 8688.94 884.26
vertex 6496.88 8610.81 884.26
endloop
endfacet
facet normal -0.9943777984382384 0.10589048103168752 0
outer loop
vertex 6505.2 8688.94 1284.27
vertex 6496.88 8610.81 884.26
vertex 6496.88 8610.81 1284.27
endloop
endfacet
facet normal -0.9996504804421698 -0.02643703749929625 0
outer loop
vertex 6503.12 8767.59 1284.27
vertex 6503.12 8767.59 884.26
vertex 6505.2 8688.94 884.26
endloop
endfacet
facet normal -0.9996504804421698 -0.02643703749929625 0
outer loop
vertex 6503.12 8767.59 1284.27
vertex 6505.2 8688.94 884.26
vertex 6505.2 8688.94 1284.27
endloop
endfacet
facet normal -0.9878299546352785 -0.15553771480018508 0
outer loop
vertex 6490.900000000001 8845.2 1284.27
vertex 6490.900000000001 8845.2 884.26
vertex 6503.12 8767.59 884.26
endloop
endfacet
facet normal -0.9878299546352785 -0.15553771480018508 0
outer loop
vertex 6490.900000000001 8845.2 1284.27
vertex 6503.12 8767.59 884.26
vertex 6503.12 8767.59 1284.27
endloop
endfacet
facet normal -0.9591809605121343 -0.28279300732341245 0
outer loop
vertex 6468.67 8920.6 1284.27
vertex 6468.67 8920.6 884.26
vertex 6490.900000000001 8845.2 884.26
endloop
endfacet
facet normal -0.9591809605121343 -0.28279300732341245 0
outer loop
vertex 6468.67 8920.6 1284.27
vertex 6490.900000000001 8845.2 884.26
vertex 6490.900000000001 8845.2 1284.27
endloop
endfacet
facet normal -0.9141523756087515 -0.4053707366952827 0
outer loop
vertex 6449.56 8963.76 1064.05
vertex 6436.820000000001 8992.49 1284.27
vertex 6436.820000000001 8992.49 983.32
endloop
endfacet
facet normal -0.9141523756087515 -0.4053707366952827 0
outer loop
vertex 6449.56 8963.76 1064.05
vertex 6436.820000000001 8992.49 983.32
vertex 6436.820000000001 8992.49 884.26
endloop
endfacet
facet normal -0.9142881643038774 -0.40506437659032174 0.00005857763942060358
outer loop
vertex 6449.56 8963.76 1064.05
vertex 6436.820000000001 8992.49 884.26
vertex 6468.67 8920.6 884.26
endloop
endfacet
facet normal -0.9143785218020773 -0.4048603695930829 0
outer loop
vertex 6449.56 8963.76 1064.05
vertex 6468.67 8920.6 884.26
vertex 6468.67 8920.6 1284.27
endloop
endfacet
facet normal -0.9142881648269694 -0.40506437682207136 -0.00004782342111277725
outer loop
vertex 6449.56 8963.76 1064.05
vertex 6468.67 8920.6 1284.27
vertex 6436.820000000001 8992.49 1284.27
endloop
endfacet
facet normal 0 0 -1
outer loop
vertex 6348.68 8894.34 1284.27
vertex 6436.820000000001 8992.49 1284.27
vertex 6468.67 8920.6 1284.27
endloop
endfacet
facet normal 0 0 -1
outer loop
vertex 6348.68 8894.34 1284.27
vertex 6468.67 8920.6 1284.27
vertex 6490.900000000001 8845.2 1284.27
endloop
endfacet
facet normal 0 0 -0.9999999999999999
outer loop
vertex 6348.68 8894.34 1284.27
vertex 6490.900000000001 8845.2 1284.27
vertex 6497.01 8806.59 1284.27
endloop
endfacet
facet normal 0 0 -1
outer loop
vertex 6348.68 8894.34 1284.27
vertex 6497.01 8806.59 1284.27
vertex 6082.570000000001 8806.59 1284.27
endloop
endfacet
facet normal 0 0 -1
outer loop
vertex 6348.68 8894.34 1284.27
vertex 6082.570000000001 8806.59 1284.27
vertex 6068.92 8828.95 1284.27
endloop
endfacet
facet normal 0 0 -1
outer loop
vertex 6348.68 8894.34 1284.27
vertex 6068.92 8828.95 1284.27
vertex 6395.74 9059.57 1284.27
endloop
endfacet
facet normal 0 0 -1
outer loop
vertex 6348.68 8894.34 1284.27
vertex 6395.74 9059.57 1284.27
vertex 6436.820000000001 8992.49 1284.27
endloop
endfacet
facet normal 0 0 -0.9999999999999999
outer loop
vertex 6497.01 8806.59 1284.27
vertex 6500.780000000001 8782.54 1284.27
vertex 6093.2300000000005 8782.54 1284.27
endloop
endfacet
facet normal 0 0 -1
outer loop
vertex 6497.01 8806.59 1284.27
vertex 6093.2300000000005 8782.54 1284.27
vertex 6082.570000000001 8806.59 1284.27
endloop
endfacet
facet normal 0 0 -1
outer loop
vertex 6340.2300000000005 8769.41 1284.27
vertex 6500.780000000001 8782.54 1284.27
vertex 6503.12 8767.59 1284.27
endloop
endfacet
facet normal 0 0 -1
outer loop
vertex 6340.2300000000005 8769.41 1284.27
vertex 6503.12 8767.59 1284.27
vertex 6503.38 8757.32 1284.27
endloop
endfacet
facet normal 0 0 -1
outer loop
vertex 6340.2300000000005 8769.41 1284.27
vertex 6503.38 8757.32 1284.27
vertex 6100.77 8757.32 1284.27
endloop
endfacet
facet normal 0 0 -0.9999999999999999
outer loop
vertex 6340.2300000000005 8769.41 1284.27
vertex 6100.77 8757.32 1284.27
vertex 6093.2300000000005 8782.54 1284.27
endloop
endfacet
facet normal 0 0 -1
outer loop
vertex 6340.2300000000005 8769.41 1284.27
vertex 6093.2300000000005 8782.54 1284.27
vertex 6500.780000000001 8782.54 1284.27
endloop
endfacet
facet normal 0 0 -1
outer loop
vertex 6503.38 8757.32 1284.27
vertex 6504.030000000001 8731.32 1284.27
vertex 6104.8 8731.32 1284.27
endloop
endfacet
facet normal 0 0 -1
outer loop
vertex 6503.38 8757.32 1284.27
vertex 6104.8 8731.32 1284.27
vertex 6100.77 8757.32 1284.27
endloop
endfacet
facet normal 0 0 -1
outer loop
vertex 6504.030000000001 8731.32 1284.27
vertex 6504.81 8705.06 1284.27
vertex 6105.45 8705.06 1284.27
endloop
endfacet
facet normal 0 0 -0.9999999999999999
outer loop
vertex 6504.030000000001 8731.32 1284.27
vertex 6105.45 8705.06 1284.27
vertex 6104.8 8731.32 1284.27
endloop
endfacet
facet normal 0 0 -1
outer loop
vertex 6344.39 8691.41 1284.27
vertex 6504.81 8705.06 1284.27
vertex 6505.2 8688.94 1284.27
endloop
endfacet
facet normal 0 0 -1
outer loop
vertex 6344.39 8691.41 1284.27
vertex 6505.2 8688.94 1284.27
vertex 6504.030000000001 8678.93 1284.27
endloop
endfacet
facet normal 0 0 -1
outer loop
vertex 6344.39 8691.41 1284.27
vertex 6504.030000000001 8678.93 1284.27
vertex 6102.72 8678.93 1284.27
endloop
endfacet
facet normal 0 0 -1
outer loop
vertex 6344.39 8691.41 1284.27
vertex 6102.72 8678.93 1284.27
vertex 6105.45 8705.06 1284.27
endloop
endfacet
facet normal 0 0 -1
outer loop
vertex 6344.39 8691.41 1284.27
vertex 6105.45 8705.06 1284.27
vertex 6504.81 8705.06 1284.27
endloop
endfacet
facet normal 0 0 -1
outer loop
vertex 6504.030000000001 8678.93 1284.27
vertex 6501.43 8653.32 1284.27
vertex 6096.4800000000005 8653.32 1284.27
endloop
endfacet
facet normal 0 0 -1
outer loop
vertex 6504.030000000001 8678.93 1284.27
vertex 6096.4800000000005 8653.32 1284.27
vertex 6102.72 8678.93 1284.27
endloop
endfacet
facet normal 0 0 -1
outer loop
vertex 6351.8 8590.27 1284.27
vertex 6501.43 8653.32 1284.27
vertex 6496.88 8610.81 1284.27
endloop
endfacet
facet normal 0 0 -1
outer loop
vertex 6351.8 8590.27 1284.27
vertex 6496.88 8610.81 1284.27
vertex 6478.42 8534.37 1284.27
endloop
endfacet
facet normal 0 0 -1
outer loop
vertex 6351.8 8590.27 1284.27
vertex 6478.42 8534.37 1284.27
vertex 6450.21 8461.050000000001 1284.27
endloop
endfacet
facet normal 0 0 -1
outer loop
vertex 6351.8 8590.27 1284.27
vertex 6450.21 8461.050000000001 1284.27
vertex 6087.12 8628.880000000001 1284.27
endloop
endfacet
facet normal 0 0 -0.9999999999999999
outer loop
vertex 6351.8 8590.27 1284.27
vertex 6087.12 8628.880000000001 1284.27
vertex 6096.4800000000005 8653.32 1284.27
endloop
endfacet
facet normal 0 0 -1
outer loop
vertex 6351.8 8590.27 1284.27
vertex 6096.4800000000005 8653.32 1284.27
vertex 6501.43 8653.32 1284.27
endloop
endfacet
facet normal 0 0 1
outer loop
vertex 6431.49 8962.33 884.26
vertex 6450.21 8962.33 884.26
vertex 6436.820000000001 8992.49 884.26
endloop
endfacet
facet normal 0 0 1
outer loop
vertex 6431.49 8962.33 884.26
vertex 6436.820000000001 8992.49 884.26
vertex 6427.33 9007.83 884.26
endloop
endfacet
facet normal 0 0 1
outer loop
vertex 6340.2300000000005 8884.59 884.26
vertex 6431.49 8962.33 884.26
vertex 6232.33 8944.26 884.26
endloop
endfacet
facet normal 0 0 1
outer loop
vertex 6340.2300000000005 8884.59 884.26
vertex 6232.33 8944.26 884.26
vertex 6068.92 8828.95 884.26
endloop
endfacet
facet normal 0 0 1
outer loop
vertex 6340.2300000000005 8884.59 884.26
vertex 6068.92 8828.95 884.26
vertex 6082.570000000001 8806.59 884.26
endloop
endfacet
facet normal 0 0 0.9999999999999999
outer loop
vertex 6340.2300000000005 8884.59 884.26
vertex 6082.570000000001 8806.59 884.26
vertex 6497.01 8806.59 884.26
endloop
endfacet
facet normal 0 0 1
outer loop
vertex 6340.2300000000005 8884.59 884.26
vertex 6497.01 8806.59 884.26
vertex 6490.900000000001 8845.2 884.26
endloop
endfacet
facet normal 0 0 1
outer loop
vertex 6340.2300000000005 8884.59 884.26
vertex 6490.900000000001 8845.2 884.26
vertex 6468.67 8920.6 884.26
endloop
endfacet
facet normal 0 0 1
outer loop
vertex 6340.2300000000005 8884.59 884.26
vertex 6468.67 8920.6 884.26
vertex 6450.21 8962.33 884.26
endloop
endfacet
facet normal 0 0 1
outer loop
vertex 6340.2300000000005 8884.59 884.26
vertex 6450.21 8962.33 884.26
vertex 6431.49 8962.33 884.26
endloop
endfacet
facet normal 0 0 1
outer loop
vertex 6082.570000000001 8806.59 884.26
vertex 6093.2300000000005 8782.54 884.26
vertex 6500.780000000001 8782.54 884.26
endloop
endfacet
facet normal 0 0 1
outer loop
vertex 6082.570000000001 8806.59 884.26
vertex 6500.780000000001 8782.54 884.26
vertex 6497.01 8806.59 884.26
endloop
endfacet
facet normal 0 0 0.9999999999999999
outer loop
vertex 6340.2300000000005 8769.41 884.26
vertex 6093.2300000000005 8782.54 884.26
vertex 6100.77 8757.32 884.26
endloop
endfacet
facet normal 0 0 1
outer loop
vertex 6340.2300000000005 8769.41 884.26
vertex 6100.77 8757.32 884.26
vertex 6503.38 8757.32 884.26
endloop
endfacet
facet normal 0 0 1
outer loop
vertex 6340.2300000000005 8769.41 884.26
vertex 6503.38 8757.32 884.26
vertex 6503.12 8767.59 884.26
endloop
endfacet
facet normal 0 0 1
outer loop
vertex 6340.2300000000005 8769.41 884.26
vertex 6503.12 8767.59 884.26
vertex 6500.780000000001 8782.54 884.26
endloop
endfacet
facet normal 0 0 1
outer loop
vertex 6340.2300000000005 8769.41 884.26
vertex 6500.780000000001 8782.54 884.26
vertex 6093.2300000000005 8782.54 884.26
endloop
endfacet
facet normal 0 0 1
outer loop
vertex 6100.77 8757.32 884.26
vertex 6104.8 8731.32 884.26
vertex 6504.030000000001 8731.32 884.26
endloop
endfacet
facet normal 0 0 1
outer loop
vertex 6100.77 8757.32 884.26
vertex 6504.030000000001 8731.32 884.26
vertex 6503.38 8757.32 884.26
endloop
endfacet
facet normal 0 0 1
outer loop
vertex 6104.8 8731.32 884.26
vertex 6105.45 8705.06 884.26
vertex 6504.81 8705.06 884.26
endloop
endfacet
facet normal 0 0 0.9999999999999999
outer loop
vertex 6104.8 8731.32 884.26
vertex 6504.81 8705.06 884.26
vertex 6504.030000000001 8731.32 884.26
endloop
endfacet
facet normal 0 0 1
outer loop
vertex 6344.39 8691.41 884.26
vertex 6105.45 8705.06 884.26
vertex 6102.72 8678.93 884.26
endloop
endfacet
facet normal 0 0 1
outer loop
vertex 6344.39 8691.41 884.26
vertex 6102.72 8678.93 884.26
vertex 6504.030000000001 8678.93 884.26
endloop
endfacet
facet normal 0 0 1
outer loop
vertex 6344.39 8691.41 884.26
vertex 6504.030000000001 8678.93 884.26
vertex 6505.2 8688.94 884.26
endloop
endfacet
facet normal 0 0 1
outer loop
vertex 6344.39 8691.41 884.26
vertex 6505.2 8688.94 884.26
vertex 6504.81 8705.06 884.26
endloop
endfacet
facet normal 0 0 1
outer loop
vertex 6344.39 8691.41 884.26
vertex 6504.81 8705.06 884.26
vertex 6105.45 8705.06 884.26
endloop
endfacet
facet normal 0 0 1
outer loop
vertex 6102.72 8678.93 884.26
vertex 6096.4800000000005 8653.32 884.26
vertex 6501.43 8653.32 884.26
endloop
endfacet
facet normal 0 0 1
outer loop
vertex 6102.72 8678.93 884.26
vertex 6501.43 8653.32 884.26
vertex 6504.030000000001 8678.93 884.26
endloop
endfacet
facet normal 0 0 1
outer loop
vertex 6337.76 8605.09 884.26
vertex 6096.4800000000005 8653.32 884.26
vertex 6087.12 8628.880000000001 884.26
endloop
endfacet
facet normal 0 0 1
outer loop
vertex 6337.76 8605.09 884.26
vertex 6087.12 8628.880000000001 884.26
vertex 6229.47 8562.970000000001 884.26
endloop
endfacet
facet normal 0 0 1
outer loop
vertex 6337.76 8605.09 884.26
vertex 6229.47 8562.970000000001 884.26
vertex 6467.76 8562.970000000001 884.26
endloop
endfacet
facet normal 0 0 1
outer loop
vertex 6337.76 8605.09 884.26
vertex 6467.76 8562.970000000001 884.26
vertex 6485.31 8562.970000000001 884.26
endloop
endfacet
facet normal 0 0 1
outer loop
vertex 6337.76 8605.09 884.26
vertex 6485.31 8562.970000000001 884.26
vertex 6496.88 8610.81 884.26
endloop
endfacet
facet normal 0 0 1
outer loop
vertex 6337.76 8605.09 884.26
vertex 6496.88 8610.81 884.26
vertex 6501.43 8653.32 884.26
endloop
endfacet
facet normal 0 0 1
outer loop
vertex 6337.76 8605.09 884.26
vertex 6501.43 8653.32 884.26
vertex 6096.4800000000005 8653.32 884.26
endloop
endfacet
facet normal 0 0 1
outer loop
vertex 6229.47 8562.970000000001 884.26
vertex 6268.6 8544.9 884.26
vertex 6467.76 8562.970000000001 884.26
endloop
endfacet
facet normal 0 0 1
outer loop
vertex 6467.76 8562.970000000001 884.26
vertex 6471.92 8517.6 884.26
vertex 6478.42 8534.37 884.26
endloop
endfacet
facet normal 0 0 1
outer loop
vertex 6467.76 8562.970000000001 884.26
vertex 6478.42 8534.37 884.26
vertex 6485.31 8562.970000000001 884.26
endloop
endfacet
facet normal 0.5767870700922627 -0.8168945316100379 0
outer loop
vertex 6229.47 8942.31 1084.8500000000001
vertex 6068.92 8828.95 1284.27
vertex 6068.92 8828.95 889.2
endloop
endfacet
facet normal 0.5765154899229198 -0.8170861511500191 0.00033388288903799966
outer loop
vertex 6229.47 8942.31 1084.8500000000001
vertex 6068.92 8828.95 889.2
vertex 6218.16 8934.25 889.2
endloop
endfacet
facet normal 0.5763422937716437 -0.8172083202338623 0.00034892777166875403
outer loop
vertex 6229.47 8942.31 1084.8500000000001
vertex 6218.16 8934.25 889.2
vertex 6395.74 9059.57 1077.44
endloop
endfacet
facet normal 0.5763319437412922 -0.8172156940633141 0
outer loop
vertex 6229.47 8942.31 1084.8500000000001
vertex 6395.74 9059.57 1077.44
vertex 6395.74 9059.57 1284.27
endloop
endfacet
facet normal 0.5765555686965017 -0.8170578916025988 -0.0002792399851877966
outer loop
vertex 6229.47 8942.31 1084.8500000000001
vertex 6395.74 9059.57 1284.27
vertex 6068.92 8828.95 1284.27
endloop
endfacet
facet normal 0.5765555911749544 -0.8170579234576327 0
outer loop
vertex 6068.92 8828.95 889.2
vertex 6068.92 8828.95 884.26
vertex 6232.33 8944.26 884.26
endloop
endfacet
facet normal 0.5765143858011406 -0.8170845862959419 -0.0019853971701137723
outer loop
vertex 6068.92 8828.95 889.2
vertex 6232.33 8944.26 884.26
vertex 6218.16 8934.25 889.2
endloop
endfacet
facet normal -0.8529868011595938 -0.52193248322702 0
outer loop
vertex 6418.49 9022.39 1122.55
vertex 6395.74 9059.57 1284.27
vertex 6395.74 9059.57 1077.44
endloop
endfacet
facet normal -0.8531896204610484 -0.5216007384746957 0.0003757129017848956
outer loop
vertex 6418.49 9022.39 1122.55
vertex 6395.74 9059.57 1077.44
vertex 6427.33 9007.83 983.32
endloop
endfacet
facet normal -0.8504182561252532 -0.5261062092978595 0.0010228328896732318
outer loop
vertex 6418.49 9022.39 1122.55
vertex 6427.33 9007.83 983.32
vertex 6436.820000000001 8992.49 983.32
endloop
endfacet
facet normal -0.8525479742464512 -0.5226489755163329 0
outer loop
vertex 6418.49 9022.39 1122.55
vertex 6436.820000000001 8992.49 983.32
vertex 6436.820000000001 8992.49 1284.27
endloop
endfacet
facet normal -0.8527912142476136 -0.5222519839190924 0.00010096857518425417
outer loop
vertex 6418.49 9022.39 1122.55
vertex 6436.820000000001 8992.49 1284.27
vertex 6395.74 9059.57 1284.27
endloop
endfacet
facet normal -0.8504187009739154 -0.5261064845008454 0
outer loop
vertex 6427.33 9007.83 983.32
vertex 6427.33 9007.83 884.26
vertex 6436.820000000001 8992.49 884.26
endloop
endfacet
facet normal -0.8504187009739154 -0.5261064845008454 0
outer loop
vertex 6427.33 9007.83 983.32
vertex 6436.820000000001 8992.49 884.26
vertex 6436.820000000001 8992.49 983.32
endloop
endfacet
facet normal -0.07896988485636608 0.8625941268932826 -0.499695036532271
outer loop
vertex 6395.74 9059.57 1077.44
vertex 6395.74 9151.220000000001 1235.65
vertex 6414.2 9152.91 1235.65
endloop
endfacet
facet normal -0.0767655950667663 0.8626313509364375 -0.4999741951297306
outer loop
vertex 6395.74 9059.57 1077.44
vertex 6414.2 9152.91 1235.65
vertex 6427.33 9007.83 983.32
endloop
endfacet
facet normal -0.07846193030291843 0.8623955530297734 -0.5001176217727299
outer loop
vertex 6211.92 9035.91 1065.48
vertex 6395.74 9059.57 1077.44
vertex 6218.16 8934.25 889.2
endloop
endfacet
facet normal -0.07850988656364734 0.8623915446564762 -0.5001170077259723
outer loop
vertex 6211.92 9035.91 1065.48
vertex 6218.16 8934.25 889.2
vertex 6033.95 8917.48 889.2
endloop
endfacet
facet normal -0.07845609197296011 0.8623724017228834 -0.5001584572703293
outer loop
vertex 6211.92 9035.91 1065.48
vertex 6033.95 8917.48 889.2
vertex 6015.88 9116.77 1235.65
endloop
endfacet
facet normal -0.07822229431284519 0.8625114867250135 -0.49995520593333276
outer loop
vertex 6211.92 9035.91 1065.48
vertex 6015.88 9116.77 1235.65
vertex 6395.74 9151.220000000001 1235.65
endloop
endfacet
facet normal -0.07851779680926833 0.8626250266587695 -0.4997129365607576
outer loop
vertex 6211.92 9035.91 1065.48
vertex 6395.74 9151.220000000001 1235.65
vertex 6395.74 9059.57 1077.44
endloop
endfacet
facet normal 0.07744322799231756 -0.8623902369152197 -0.5002855441759649
outer loop
vertex 6450.21 8369.27 1235.65
vertex 6450.21 8461.050000000001 1077.44
vertex 6471.92 8517.6 983.32
endloop
endfacet
facet normal 0.08014004074056871 -0.8623068383685256 -0.500004490352814
outer loop
vertex 6450.21 8369.27 1235.65
vertex 6471.92 8517.6 983.32
vertex 6485.18 8372.52 1235.65
endloop
endfacet
facet normal 0.07835423590510594 -0.8625135574435945 -0.4999309721768819
outer loop
vertex 6261.71 8450.78 1065.48
vertex 6450.21 8369.27 1235.65
vertex 6086.7300000000005 8336.25 1235.65
endloop
endfacet
facet normal 0.07837364219014249 -0.8625206093663642 -0.4999157635323449
outer loop
vertex 6261.71 8450.78 1065.48
vertex 6086.7300000000005 8336.25 1235.65
vertex 6068.66 8535.41 889.2
endloop
endfacet
facet normal 0.0785143625863254 -0.8624407115102344 -0.5000315130043147
outer loop
vertex 6261.71 8450.78 1065.48
vertex 6068.66 8535.41 889.2
vertex 6252.87 8552.18 889.2
endloop
endfacet
facet normal 0.07871328769945483 -0.8624227764742313 -0.5000311719863283
outer loop
vertex 6261.71 8450.78 1065.48
vertex 6252.87 8552.18 889.2
vertex 6450.21 8461.050000000001 1077.44
endloop
endfacet
facet normal 0.0787197595291886 -0.8623037564988272 -0.5002353755860117
outer loop
vertex 6261.71 8450.78 1065.48
vertex 6450.21 8461.050000000001 1077.44
vertex 6450.21 8369.27 1235.65
endloop
endfacet
facet normal 0.054303499540537564 -0.4976756016738938 0.865661669150355
outer loop
vertex 6535.62 7817.55 452.01
vertex 6535.62 7465.25 249.47
vertex 6536.14 7463.95 248.69
endloop
endfacet
facet normal 0.04545197563062372 -0.49790573304445485 0.8660392594523282
outer loop
vertex 6535.62 7817.55 452.01
vertex 6536.14 7463.95 248.69
vertex 6567.47 7466.81 248.69
endloop
endfacet
facet normal 0.05138384806785659 -0.49780844795018786 0.8657635065692967
outer loop
vertex 6535.62 7817.55 452.01
vertex 6518.46 8005.92 561.34
vertex 6518.46 7500.610000000001 270.79
endloop
endfacet
facet normal 0.050016895053252776 -0.4977871936253854 0.8658557732508313
outer loop
vertex 6535.62 7817.55 452.01
vertex 6518.46 7500.610000000001 270.79
vertex 6535.62 7465.25 249.47
endloop
endfacet
facet normal 0.04553440618437706 -0.4979602750394026 0.8660035694707721
outer loop
vertex 6518.46 8005.92 561.34
vertex 6499.09 8219.380000000001 685.1
vertex 6499.09 7534.8 291.46000000000004
endloop
endfacet
facet normal 0.04519994215100389 -0.497957480991582 0.8660226973665669
outer loop
vertex 6518.46 8005.92 561.34
vertex 6499.09 7534.8 291.46000000000004
vertex 6518.46 7500.610000000001 270.79
endloop
endfacet
facet normal 0.042023152949021404 -0.4979760786104666 0.8661719689230111
outer loop
vertex 6499.09 8219.380000000001 685.1
vertex 6477.51 8457.02 822.77
vertex 6477.51 7567.6900000000005 311.48
endloop
endfacet
facet normal 0.044463593263936 -0.49798431878197097 0.866045383984763
outer loop
vertex 6499.09 8219.380000000001 685.1
vertex 6477.51 7567.6900000000005 311.48
vertex 6499.09 7534.8 291.46000000000004
endloop
endfacet
facet normal 0.04696307828453426 -0.49816609537669015 0.8658088765398417
outer loop
vertex 6376.63 8002.41 566.6700000000001
vertex 6477.51 8457.02 822.77
vertex 6467.76 8562.970000000001 884.26
endloop
endfacet
facet normal 0.04518301245101179 -0.49798830989168535 0.8660058536736771
outer loop
vertex 6376.63 8002.41 566.6700000000001
vertex 6467.76 8562.970000000001 884.26
vertex 6268.6 8544.9 884.26
endloop
endfacet
facet normal 0.04517945525510393 -0.4979889211364852 0.8660056877689497
outer loop
vertex 6376.63 8002.41 566.6700000000001
vertex 6268.6 8544.9 884.26
vertex 6268.6 7439.64 248.69
endloop
endfacet
facet normal 0.045654317477542526 -0.49804709975505423 0.8659473250268973
outer loop
vertex 6376.63 8002.41 566.6700000000001
vertex 6268.6 7439.64 248.69
vertex 6299.8 7442.5 248.69
endloop
endfacet
facet normal 0.044814264834276606 -0.4979789923219156 0.86603037179617
outer loop
vertex 6376.63 8002.41 566.6700000000001
vertex 6299.8 7442.5 248.69
vertex 6477.51 7567.6900000000005 311.48
endloop
endfacet
facet normal 0.04517878210254672 -0.49790743689662187 0.8660525745766058
outer loop
vertex 6376.63 8002.41 566.6700000000001
vertex 6477.51 7567.6900000000005 311.48
vertex 6477.51 8457.02 822.77
endloop
endfacet
facet normal 0.041759686225885585 -0.49766050469836315 0.8663660604327053
outer loop
vertex 6205.55 8100.56 632.0600000000001
vertex 6268.6 8544.9 884.26
vertex 6252.87 8552.18 889.2
endloop
endfacet
facet normal 0.045324341666958735 -0.4978650553649516 0.8660693336557476
outer loop
vertex 6205.55 8100.56 632.0600000000001
vertex 6252.87 8552.18 889.2
vertex 6068.66 8535.41 889.2
endloop
endfacet
facet normal 0.04493723406872272 -0.49796490037617364 0.866032102746544
outer loop
vertex 6205.55 8100.56 632.0600000000001
vertex 6068.66 8535.41 889.2
vertex 6169.150000000001 7430.54 248.69
endloop
endfacet
facet normal 0.04556647405970885 -0.4979764665096556 0.8659925722801112
outer loop
vertex 6205.55 8100.56 632.0600000000001
vertex 6169.150000000001 7430.54 248.69
vertex 6268.6 7439.64 248.69
endloop
endfacet
facet normal 0.045514972403530654 -0.4979813287955298 0.8659924846429928
outer loop
vertex 6205.55 8100.56 632.0600000000001
vertex 6268.6 7439.64 248.69
vertex 6268.6 8544.9 884.26
endloop
endfacet
facet normal 0.41966568513438784 0.9076787497351059 0
outer loop
vertex 6265.4800000000005 8546.460000000001 1084.8500000000001
vertex 6450.21 8461.050000000001 1284.27
vertex 6450.21 8461.050000000001 1077.44
endloop
endfacet
facet normal 0.41964877206986273 0.9076864259641122 -0.0005101183710047786
outer loop
vertex 6265.4800000000005 8546.460000000001 1084.8500000000001
vertex 6450.21 8461.050000000001 1077.44
vertex 6252.87 8552.18 889.2
endloop
endfacet
facet normal 0.41996067836558765 0.9075421439256257 -0.0005344395141135684
outer loop
vertex 6265.4800000000005 8546.460000000001 1084.8500000000001
vertex 6252.87 8552.18 889.2
vertex 6087.12 8628.880000000001 889.2
endloop
endfacet
facet normal 0.41947770725041034 0.9077656377721836 0
outer loop
vertex 6265.4800000000005 8546.460000000001 1084.8500000000001
vertex 6087.12 8628.880000000001 889.2
vertex 6087.12 8628.880000000001 1284.27
endloop
endfacet
facet normal 0.41957334960575726 0.9077214294724097 0.00010381315097297387
outer loop
vertex 6265.4800000000005 8546.460000000001 1084.8500000000001
vertex 6087.12 8628.880000000001 1284.27
vertex 6450.21 8461.050000000001 1284.27
endloop
endfacet
facet normal 0.419964931753675 0.9075403169165978 -0.00017107908257485917
outer loop
vertex 6252.87 8552.18 889.2
vertex 6268.6 8544.9 884.26
vertex 6087.12 8628.880000000001 884.26
endloop
endfacet
facet normal 0.41996073834135966 0.9075422735342856 0
outer loop
vertex 6252.87 8552.18 889.2
vertex 6087.12 8628.880000000001 884.26
vertex 6087.12 8628.880000000001 889.2
endloop
endfacet
facet normal -0.9327697379648353 0.3604727672612903 0
outer loop
vertex 6465.81 8501.74 1122.55
vertex 6478.42 8534.37 1284.27
vertex 6478.42 8534.37 983.32
endloop
endfacet
facet normal -0.9324109929512224 0.36139960967100704 0.00024970654636729205
outer loop
vertex 6465.81 8501.74 1122.55
vertex 6478.42 8534.37 983.32
vertex 6471.92 8517.6 983.32
endloop
endfacet
facet normal -0.9336644066986748 0.35814905393826 -0.0001755765960467106
outer loop
vertex 6465.81 8501.74 1122.55
vertex 6471.92 8517.6 983.32
vertex 6450.21 8461.050000000001 1077.44
endloop
endfacet
facet normal -0.9337294990250723 0.3579793606486099 0
outer loop
vertex 6465.81 8501.74 1122.55
vertex 6450.21 8461.050000000001 1077.44
vertex 6450.21 8461.050000000001 1284.27
endloop
endfacet
facet normal -0.933302902366248 0.35908994647779596 0.000320582768162476
outer loop
vertex 6465.81 8501.74 1122.55
vertex 6450.21 8461.050000000001 1284.27
vertex 6478.42 8534.37 1284.27
endloop
endfacet
facet normal -0.9324110220207027 0.36139962093824746 0
outer loop
vertex 6478.42 8534.37 983.32
vertex 6478.42 8534.37 884.26
vertex 6471.92 8517.6 884.26
endloop
endfacet
facet normal -0.9324110220207027 0.36139962093824746 0
outer loop
vertex 6478.42 8534.37 983.32
vertex 6471.92 8517.6 884.26
vertex 6471.92 8517.6 983.32
endloop
endfacet
facet normal 0.8387796617218269 0.5444710084860512 0
outer loop
vertex 6153.030000000001 7333.56 371.41
vertex 6157.84 7326.150000000001 599.95
vertex 6157.84 7326.150000000001 199.94
endloop
endfacet
facet normal 0.8350607327789004 0.5501576592425866 -0.00035006782714994724
outer loop
vertex 6153.030000000001 7333.56 371.41
vertex 6157.84 7326.150000000001 199.94
vertex 6150.56 7337.2 199.94
endloop
endfacet
facet normal 0.8274757743916898 0.5615014183373658 0
outer loop
vertex 6153.030000000001 7333.56 371.41
vertex 6150.56 7337.2 199.94
vertex 6150.56 7337.2 248.69
endloop
endfacet
facet normal 0.8274757743916896 0.5615014183373657 0
outer loop
vertex 6153.030000000001 7333.56 371.41
vertex 6150.56 7337.2 248.69
vertex 6150.56 7337.2 379.99
endloop
endfacet
facet normal 0.8274757743916897 0.5615014183373658 0
outer loop
vertex 6153.030000000001 7333.56 371.41
vertex 6150.56 7337.2 379.99
vertex 6150.56 7337.2 599.95
endloop
endfacet
facet normal 0.8350607551427601 0.5501576739764237 0.0002626504416249598
outer loop
vertex 6153.030000000001 7333.56 371.41
vertex 6150.56 7337.2 599.95
vertex 6157.84 7326.150000000001 599.95
endloop
endfacet
facet normal 0.8694565573927775 0.49400940760951073 0
outer loop
vertex 6164.34 7314.71 599.95
vertex 6164.34 7314.71 199.94
vertex 6157.84 7326.150000000001 199.94
endloop
endfacet
facet normal 0.8694565573927775 0.49400940760951073 0
outer loop
vertex 6164.34 7314.71 599.95
vertex 6157.84 7326.150000000001 199.94
vertex 6157.84 7326.150000000001 599.95
endloop
endfacet
facet normal 0.9002843394976847 0.4353023179989025 0
outer loop
vertex 6170.06 7302.88 599.95
vertex 6170.06 7302.88 199.94
vertex 6164.34 7314.71 199.94
endloop
endfacet
facet normal 0.9002843394976847 0.4353023179989025 0
outer loop
vertex 6170.06 7302.88 599.95
vertex 6164.34 7314.71 199.94
vertex 6164.34 7314.71 599.95
endloop
endfacet
facet normal 0.9271100657041675 0.37478917549739127 0
outer loop
vertex 6175 7290.66 599.95
vertex 6175 7290.66 199.94
vertex 6170.06 7302.88 199.94
endloop
endfacet
facet normal 0.9271100657041675 0.37478917549739127 0
outer loop
vertex 6175 7290.66 599.95
vertex 6170.06 7302.88 199.94
vertex 6170.06 7302.88 599.95
endloop
endfacet
facet normal 0.9516151461907436 0.3072923909574883 0
outer loop
vertex 6179.030000000001 7278.18 599.95
vertex 6179.030000000001 7278.18 199.94
vertex 6175 7290.66 199.94
endloop
endfacet
facet normal 0.9516151461907436 0.3072923909574883 0
outer loop
vertex 6179.030000000001 7278.18 599.95
vertex 6175 7290.66 199.94
vertex 6175 7290.66 599.95
endloop
endfacet
facet normal 0.9665615578617917 0.25643469902450067 0
outer loop
vertex 6182.41 7265.4400000000005 599.95
vertex 6182.41 7265.4400000000005 199.94
vertex 6179.030000000001 7278.18 199.94
endloop
endfacet
facet normal 0.9665615578617917 0.25643469902450067 0
outer loop
vertex 6182.41 7265.4400000000005 599.95
vertex 6179.030000000001 7278.18 199.94
vertex 6179.030000000001 7278.18 599.95
endloop
endfacet
facet normal 0.9820771339102707 0.18847944994239624 0
outer loop
vertex 6184.88 7252.570000000001 599.95
vertex 6184.88 7252.570000000001 199.94
vertex 6182.41 7265.4400000000005 199.94
endloop
endfacet
facet normal 0.9820771339102707 0.18847944994239624 0
outer loop
vertex 6184.88 7252.570000000001 599.95
vertex 6182.41 7265.4400000000005 199.94
vertex 6182.41 7265.4400000000005 599.95
endloop
endfacet
facet normal 0.9928768384869184 0.11914522061846076 0
outer loop
vertex 6186.4400000000005 7239.570000000001 599.95
vertex 6186.4400000000005 7239.570000000001 199.94
vertex 6184.88 7252.570000000001 199.94
endloop
endfacet
facet normal 0.9928768384869184 0.11914522061846076 0
outer loop
vertex 6186.4400000000005 7239.570000000001 599.95
vertex 6184.88 7252.570000000001 199.94
vertex 6184.88 7252.570000000001 599.95
endloop
endfacet
facet normal -0.8944271909999157 -0.44721359549995787 0
outer loop
vertex 6584.76 7275.97 599.95
vertex 6584.89 7275.71 599.82
vertex 6584.89 7275.71 599.95
endloop
endfacet
facet normal -0.9920730390176086 -0.1256625849422434 0
outer loop
vertex 6579.95 7314.71 512.98
vertex 6579.95 7314.71 199.94
vertex 6584.89 7275.71 199.94
endloop
endfacet
facet normal -0.9920730390176086 -0.1256625849422434 0
outer loop
vertex 6579.95 7314.71 512.98
vertex 6584.89 7275.71 199.94
vertex 6584.89 7275.71 580.97
endloop
endfacet
facet normal -0.982797435052997 -0.18468676631867859 0
outer loop
vertex 6572.67 7353.45 445.12
vertex 6572.67 7353.45 199.94
vertex 6579.95 7314.71 199.94
endloop
endfacet
facet normal -0.982797435052997 -0.18468676631867859 0
outer loop
vertex 6572.67 7353.45 445.12
vertex 6579.95 7314.71 199.94
vertex 6579.95 7314.71 512.98
endloop
endfacet
facet normal -0.9677579037554764 -0.2518821941281402 0
outer loop
vertex 6562.79 7391.41 377.91
vertex 6562.79 7391.41 199.94
vertex 6572.67 7353.45 199.94
endloop
endfacet
facet normal -0.9677579037554763 -0.25188219412814017 0
outer loop
vertex 6562.79 7391.41 377.91
vertex 6572.67 7353.45 199.94
vertex 6572.67 7353.45 445.12
endloop
endfacet
facet normal -0.9495057215610273 -0.3137497166897092 0
outer loop
vertex 6555.25 7413.900000000001 267.67
vertex 6550.31 7428.85 311.61
vertex 6550.31 7428.85 248.69
endloop
endfacet
facet normal -0.9495057215610273 -0.31374971668970913 0
outer loop
vertex 6555.25 7413.900000000001 267.67
vertex 6550.31 7428.85 248.69
vertex 6550.31 7428.85 199.94
endloop
endfacet
facet normal -0.9486831233011188 -0.3162277077670242 -0.000606962970763435
outer loop
vertex 6555.25 7413.900000000001 267.67
vertex 6550.31 7428.85 199.94
vertex 6562.79 7391.41 199.94
endloop
endfacet
facet normal -0.9481338190698779 -0.3178714537922021 0
outer loop
vertex 6555.25 7413.900000000001 267.67
vertex 6562.79 7391.41 199.94
vertex 6562.79 7391.41 377.91
endloop
endfacet
facet normal -0.9489929392817856 -0.3152967810114083 0.0005840181171792305
outer loop
vertex 6555.25 7413.900000000001 267.67
vertex 6562.79 7391.41 377.91
vertex 6550.31 7428.85 311.61
endloop
endfacet
facet normal -0.9272876949390128 -0.37434947684575737 0
outer loop
vertex 6536.14 7463.95 248.69
vertex 6550.31 7428.85 248.69
vertex 6550.31 7428.85 311.61
endloop
endfacet
facet normal -0.9284766908851697 -0.3713906763543277 0
outer loop
vertex 6535.62 7465.25 248.69
vertex 6536.14 7463.95 248.69
vertex 6535.62 7465.25 249.47
endloop
endfacet
facet normal -0.9273302688141287 -0.3742440013428615 0
outer loop
vertex 6535.62 7465.25 248.69
vertex 6535.62 7465.25 199.94
vertex 6550.31 7428.85 199.94
endloop
endfacet
facet normal -0.9273302688141287 -0.3742440013428615 0
outer loop
vertex 6535.62 7465.25 248.69
vertex 6550.31 7428.85 199.94
vertex 6550.31 7428.85 248.69
endloop
endfacet
facet normal -0.8996566057571532 -0.4365980586762546 -0.00035619888235804867
outer loop
vertex 6528.7300000000005 7479.42 233.74
vertex 6518.46 7500.610000000001 199.94
vertex 6535.62 7465.25 199.94
endloop
endfacet
facet normal -0.8993227918843993 -0.43728539421898066 0
outer loop
vertex 6528.7300000000005 7479.42 233.74
vertex 6535.62 7465.25 199.94
vertex 6535.62 7465.25 248.69
endloop
endfacet
facet normal -0.899322791884399 -0.43728539421898127 0
outer loop
vertex 6528.7300000000005 7479.42 233.74
vertex 6535.62 7465.25 248.69
vertex 6535.62 7465.25 249.47
endloop
endfacet
facet normal -0.8995390703211258 -0.43684003367723057 0.000495926084274881
outer loop
vertex 6528.7300000000005 7479.42 233.74
vertex 6535.62 7465.25 249.47
vertex 6518.46 7500.610000000001 270.79
endloop
endfacet
facet normal -0.8998797711695654 -0.4361380486036624 0
outer loop
vertex 6528.7300000000005 7479.42 233.74
vertex 6518.46 7500.610000000001 270.79
vertex 6518.46 7500.610000000001 199.94
endloop
endfacet
facet normal -0.8700694822924395 -0.49292909833298204 0
outer loop
vertex 6499.09 7534.8 199.94
vertex 6518.46 7500.610000000001 199.94
vertex 6518.46 7500.610000000001 270.79
endloop
endfacet
facet normal -0.8700694822924394 -0.492929098332982 0
outer loop
vertex 6499.09 7534.8 199.94
vertex 6518.46 7500.610000000001 270.79
vertex 6499.09 7534.8 291.46000000000004
endloop
endfacet
facet normal -0.8371155952136812 -0.5470260325158617 0
outer loop
vertex 6486.09 7554.56 250.25
vertex 6477.51 7567.6900000000005 248.69
vertex 6477.51 7567.6900000000005 199.94
endloop
endfacet
facet normal -0.836095138238427 -0.5485841618481306 -0.0005806749946406497
outer loop
vertex 6486.09 7554.56 250.25
vertex 6477.51 7567.6900000000005 199.94
vertex 6499.09 7534.8 199.94
endloop
endfacet
facet normal -0.8354170822439428 -0.5496165014762721 0
outer loop
vertex 6486.09 7554.56 250.25
vertex 6499.09 7534.8 199.94
vertex 6499.09 7534.8 291.46000000000004
endloop
endfacet
facet normal -0.8359419461339356 -0.5488176032962565 0.000548640102087224
outer loop
vertex 6486.09 7554.56 250.25
vertex 6499.09 7534.8 291.46000000000004
vertex 6477.51 7567.6900000000005 311.48
endloop
endfacet
facet normal -0.8371155952136812 -0.5470260325158616 0
outer loop
vertex 6486.09 7554.56 250.25
vertex 6477.51 7567.6900000000005 311.48
vertex 6477.51 7567.6900000000005 248.69
endloop
endfacet
facet normal 0.5757000611341435 -0.817660956393384 0
outer loop
vertex 6150.56 7337.2 599.95
vertex 6150.56 7337.2 379.99
vertex 6176.04 7355.14 379.99
endloop
endfacet
facet normal 0.5757000611341435 -0.817660956393384 0
outer loop
vertex 6150.56 7337.2 599.95
vertex 6176.04 7355.14 379.99
vertex 6176.04 7355.14 599.95
endloop
endfacet
facet normal 0.5759081163583433 -0.8175144289323493 0
outer loop
vertex 6299.8 7442.5 248.69
vertex 6477.51 7567.6900000000005 248.69
vertex 6477.51 7567.6900000000005 311.48
endloop
endfacet
facet normal 0.5765155220572603 -0.8170861966934972 0
outer loop
vertex 6150.56 7337.2 379.99
vertex 6150.56 7337.2 248.69
vertex 6299.8 7442.5 248.69
endloop
endfacet
facet normal 0.5756995067180376 -0.8176601689618133 -0.0013878248977858406
outer loop
vertex 6150.56 7337.2 379.99
vertex 6299.8 7442.5 248.69
vertex 6176.04 7355.14 379.99
endloop
endfacet
facet normal 0.5761854919552013 -0.8173189578495917 0
outer loop
vertex 6150.56 7337.2 248.69
vertex 6150.56 7337.2 199.94
vertex 6477.51 7567.6900000000005 199.94
endloop
endfacet
facet normal 0.5761854919552013 -0.8173189578495917 0
outer loop
vertex 6150.56 7337.2 248.69
vertex 6477.51 7567.6900000000005 199.94
vertex 6477.51 7567.6900000000005 248.69
endloop
endfacet
facet normal -0.09938699813478594 0.8599968922933202 0.5005272918109337
outer loop
vertex 6579.95 7329.01 488.41
vertex 6579.95 7314.71 512.98
vertex 6584.89 7275.71 580.97
endloop
endfacet
facet normal -0.07416931383027112 0.8630164529779413 0.4997014256286645
outer loop
vertex 6579.95 7329.01 488.41
vertex 6572.67 7410.13 347.23
vertex 6572.67 7353.45 445.12
endloop
endfacet
facet normal -0.08930304906977105 0.8608228336552799 0.5010079984237145
outer loop
vertex 6579.95 7329.01 488.41
vertex 6572.67 7353.45 445.12
vertex 6579.95 7314.71 512.98
endloop
endfacet
facet normal -0.06374244607717341 0.8636118630408376 0.5001114381647677
outer loop
vertex 6567.7300000000005 7417.67 333.58
vertex 6572.67 7410.13 347.23
vertex 6567.47 7466.81 248.69
endloop
endfacet
facet normal -0.07192661691985835 0.8631194030376143 0.4998514358071367
outer loop
vertex 6567.7300000000005 7417.67 333.58
vertex 6567.47 7466.81 248.69
vertex 6562.79 7466.42 248.69
endloop
endfacet
facet normal -0.09190551961189919 0.8611896022773947 0.4999058355272214
outer loop
vertex 6567.7300000000005 7417.67 333.58
vertex 6562.79 7466.42 248.69
vertex 6562.79 7391.41 377.91
endloop
endfacet
facet normal -0.09189905686680311 0.8611898043942683 0.49990667544488154
outer loop
vertex 6567.7300000000005 7417.67 333.58
vertex 6562.79 7391.41 377.91
vertex 6572.67 7353.45 445.12
endloop
endfacet
facet normal -0.0635649269658926 0.8636499621089335 0.5000682383525856
outer loop
vertex 6567.7300000000005 7417.67 333.58
vertex 6572.67 7353.45 445.12
vertex 6572.67 7410.13 347.23
endloop
endfacet
facet normal -0.08088313799813864 0.8627534719800615 0.49911357883143537
outer loop
vertex 6562.79 7466.42 248.69
vertex 6550.31 7465.25 248.69
vertex 6550.31 7428.85 311.61
endloop
endfacet
facet normal -0.07229803681858647 0.862586629829854 0.5007167861285987
outer loop
vertex 6562.79 7466.42 248.69
vertex 6550.31 7428.85 311.61
vertex 6562.79 7391.41 377.91
endloop
endfacet
facet normal -0.07916266307726794 0.8628730275421043 0.49918274320617095
outer loop
vertex 6550.31 7465.25 248.69
vertex 6536.14 7463.95 248.69
vertex 6550.31 7428.85 311.61
endloop
endfacet
facet normal -0.07897178144439242 0.8626808733871077 0.49954496136739857
outer loop
vertex 6169.150000000001 7430.54 248.69
vertex 6176.04 7355.14 379.99
vertex 6299.8 7442.5 248.69
endloop
endfacet
facet normal 0.5773502691894575 0.5773502691894575 -0.5773502691899622
outer loop
vertex 6584.76 7275.97 599.95
vertex 6584.76 7276.1 600.08
vertex 6584.89 7275.71 599.82
endloop
endfacet
facet normal -0.04517803618513625 0.4979334635656693 -0.8660376498212711
outer loop
vertex 6385.6 7700.16 854.23
vertex 6584.76 7275.97 599.95
vertex 6186.4400000000005 7239.83 599.95
endloop
endfacet
facet normal -0.04533506483964999 0.49798158439156753 -0.866001774537933
outer loop
vertex 6385.6 7700.16 854.23
vertex 6186.4400000000005 7239.83 599.95
vertex 6086.7300000000005 8336.25 1235.65
endloop
endfacet
facet normal -0.045330296226461474 0.49798336177097746 -0.8660010021029406
outer loop
vertex 6385.6 7700.16 854.23
vertex 6086.7300000000005 8336.25 1235.65
vertex 6485.18 8372.52 1235.65
endloop
endfacet
facet normal -0.044917755815523375 0.49794648520130846 -0.8660437016041166
outer loop
vertex 6385.6 7700.16 854.23
vertex 6485.18 8372.52 1235.65
vertex 6584.76 7276.1 600.08
endloop
endfacet
facet normal 0.5165444255338882 0.6054675286295953 -0.6054675286297654
outer loop
vertex 6385.6 7700.16 854.23
vertex 6584.76 7276.1 600.08
vertex 6584.76 7275.97 599.95
endloop
endfacet
facet normal -0.090359900310081 0.9959091170866382 -0.0003448473071105585
outer loop
vertex 6566.43 6006 463.45
vertex 6300.84 5981.95 599.95
vertex 6699.16 6018.09 599.95
endloop
endfacet
facet normal -0.09071163533886155 0.9958772008707445 0
outer loop
vertex 6566.43 6006 463.45
vertex 6699.16 6018.09 599.95
vertex 6699.16 6018.09 599.82
endloop
endfacet
facet normal -0.09071163533886445 0.9958772008707443 0
outer loop
vertex 6566.43 6006 463.45
vertex 6699.16 6018.09 599.82
vertex 6699.16 6018.09 580.97
endloop
endfacet
facet normal -0.0907116353388645 0.9958772008707445 0
outer loop
vertex 6566.43 6006 463.45
vertex 6699.16 6018.09 580.97
vertex 6699.16 6018.09 199.94
endloop
endfacet
facet normal -0.09035990424118026 0.9959091604135744 0.0001786332946318525
outer loop
vertex 6566.43 6006 463.45
vertex 6699.16 6018.09 199.94
vertex 6300.84 5981.95 199.94
endloop
endfacet
facet normal -0.0901841142559896 0.9959251104053269 0
outer loop
vertex 6566.43 6006 463.45
vertex 6300.84 5981.95 199.94
vertex 6300.84 5981.95 599.95
endloop
endfacet
endsolid JSCAD
