solid JSCAD
facet normal -1 0 0
outer loop
vertex 0 0 0
vertex 0 0 3999.9700000000003
vertex 0 15000.050000000001 3999.9700000000003
endloop
endfacet
facet normal -1 0 0
outer loop
vertex 0 0 0
vertex 0 15000.050000000001 3999.9700000000003
vertex 0 15000.050000000001 0
endloop
endfacet
facet normal 1 0 0
outer loop
vertex 19999.98 0 0
vertex 19999.98 15000.050000000001 0
vertex 19999.98 15000.050000000001 3999.9700000000003
endloop
endfacet
facet normal 1 0 0
outer loop
vertex 19999.98 0 0
vertex 19999.98 15000.050000000001 3999.9700000000003
vertex 19999.98 0 3999.9700000000003
endloop
endfacet
facet normal 0 -1 0
outer loop
vertex 0 0 0
vertex 19999.98 0 0
vertex 19999.98 0 3999.9700000000003
endloop
endfacet
facet normal 0 -1 0
outer loop
vertex 0 0 0
vertex 19999.98 0 3999.9700000000003
vertex 0 0 3999.9700000000003
endloop
endfacet
facet normal 0 1 0
outer loop
vertex 0 15000.050000000001 0
vertex 0 15000.050000000001 3999.9700000000003
vertex 19999.98 15000.050000000001 3999.9700000000003
endloop
endfacet
facet normal 0 1 0
outer loop
vertex 0 15000.050000000001 0
vertex 19999.98 15000.050000000001 3999.9700000000003
vertex 19999.98 15000.050000000001 0
endloop
endfacet
facet normal 0 0 -1
outer loop
vertex 0 0 0
vertex 0 15000.050000000001 0
vertex 19999.98 15000.050000000001 0
endloop
endfacet
facet normal 0 0 -1
outer loop
vertex 0 0 0
vertex 19999.98 15000.050000000001 0
vertex 19999.98 0 0
endloop
endfacet
facet normal 0 0 1
outer loop
vertex 0 0 3999.9700000000003
vertex 19999.98 0 3999.9700000000003
vertex 19999.98 15000.050000000001 3999.9700000000003
endloop
endfacet
facet normal 0 0 1
outer loop
vertex 0 0 3999.9700000000003
vertex 19999.98 15000.050000000001 3999.9700000000003
vertex 0 15000.050000000001 3999.9700000000003
endloop
endfacet
facet normal -0.9396129934322677 -0.3422388384933151 0
outer loop
vertex 6124.6900000000005 11192.48 300.04
vertex 6124.6900000000005 11192.48 199.94
vertex 6261.58 10816.65 199.94
endloop
endfacet
facet normal -0.9396129934322677 -0.3422388384933151 0
outer loop
vertex 6124.6900000000005 11192.48 300.04
vertex 6261.58 10816.65 199.94
vertex 6261.58 10816.65 300.04
endloop
endfacet
facet normal -0.9396794505949346 -0.3420563259605089 0
outer loop
vertex 5782.66 12132.25 416.65000000000003
vertex 5714.28 12320.1 599.95
vertex 5714.28 12320.1 450.06
endloop
endfacet
facet normal -0.9396794505949346 -0.3420563259605089 0
outer loop
vertex 5782.66 12132.25 416.65000000000003
vertex 5714.28 12320.1 450.06
vertex 5714.28 12320.1 199.94
endloop
endfacet
facet normal -0.939612978349512 -0.3422388329996675 -0.00017917640832417208
outer loop
vertex 5782.66 12132.25 416.65000000000003
vertex 5714.28 12320.1 199.94
vertex 5851.17 11944.27 199.94
endloop
endfacet
facet normal -0.9395465562162688 -0.3424211861175494 0
outer loop
vertex 5782.66 12132.25 416.65000000000003
vertex 5851.17 11944.27 199.94
vertex 5851.17 11944.27 450.06
endloop
endfacet
facet normal -0.9395465562162689 -0.34242118611754946 0
outer loop
vertex 5782.66 12132.25 416.65000000000003
vertex 5851.17 11944.27 450.06
vertex 5851.17 11944.27 599.95
endloop
endfacet
facet normal -0.9396129723501778 -0.342238830814507 0.00021183480196404825
outer loop
vertex 5782.66 12132.25 416.65000000000003
vertex 5851.17 11944.27 599.95
vertex 5714.28 12320.1 599.95
endloop
endfacet
facet normal 0 0 1
outer loop
vertex 4962.62 12046.58 199.94
vertex 5099.38 11670.62 199.94
vertex 5851.17 11944.27 199.94
endloop
endfacet
facet normal 0 0 1
outer loop
vertex 4962.62 12046.58 199.94
vertex 5851.17 11944.27 199.94
vertex 5714.28 12320.1 199.94
endloop
endfacet
facet normal 0 0 1
outer loop
vertex 5748.860000000001 11055.720000000001 199.94
vertex 5885.62 10679.890000000001 199.94
vertex 6261.58 10816.65 199.94
endloop
endfacet
facet normal 0 0 1
outer loop
vertex 5748.860000000001 11055.720000000001 199.94
vertex 6261.58 10816.65 199.94
vertex 6124.6900000000005 11192.48 199.94
endloop
endfacet
facet normal 0.9397554673260007 0.3418474244906489 0
outer loop
vertex 5099.38 11670.62 300.04
vertex 5099.38 11670.62 199.94
vertex 4962.62 12046.58 199.94
endloop
endfacet
facet normal 0.9397554673260007 0.3418474244906489 0
outer loop
vertex 5099.38 11670.62 300.04
vertex 4962.62 12046.58 199.94
vertex 4962.62 12046.58 300.04
endloop
endfacet
facet normal 0.34195184543297075 -0.9397174763752059 0
outer loop
vertex 5338.45 12183.34 599.95
vertex 5338.45 12183.34 450.06
vertex 5714.28 12320.1 450.06
endloop
endfacet
facet normal 0.34195184543297075 -0.9397174763752059 0
outer loop
vertex 5338.45 12183.34 599.95
vertex 5714.28 12320.1 450.06
vertex 5714.28 12320.1 599.95
endloop
endfacet
facet normal 0.3419518454329707 -0.939717476375206 0
outer loop
vertex 5338.45 12183.34 320.06
vertex 5338.45 12183.34 450.06
vertex 4962.62 12046.58 300.04
endloop
endfacet
facet normal 0.3419518454329708 -0.939717476375206 0
outer loop
vertex 5338.45 12183.34 320.06
vertex 4962.62 12046.58 300.04
vertex 4962.62 12046.58 199.94
endloop
endfacet
facet normal 0.34195184543297075 -0.9397174763752058 0
outer loop
vertex 5338.45 12183.34 320.06
vertex 4962.62 12046.58 199.94
vertex 5714.28 12320.1 199.94
endloop
endfacet
facet normal 0.3419518454329708 -0.939717476375206 0
outer loop
vertex 5338.45 12183.34 320.06
vertex 5714.28 12320.1 199.94
vertex 5714.28 12320.1 450.06
endloop
endfacet
facet normal 0.3419518454329707 -0.939717476375206 0
outer loop
vertex 5338.45 12183.34 320.06
vertex 5714.28 12320.1 450.06
vertex 5338.45 12183.34 450.06
endloop
endfacet
facet normal -0.3418474244906482 0.939755467326001 0
outer loop
vertex 5851.17 11944.27 599.95
vertex 5851.17 11944.27 450.06
vertex 5475.21 11807.51 450.06
endloop
endfacet
facet normal -0.3418474244906482 0.939755467326001 0
outer loop
vertex 5851.17 11944.27 599.95
vertex 5475.21 11807.51 450.06
vertex 5475.21 11807.51 599.95
endloop
endfacet
facet normal -0.3418474244906483 0.9397554673260011 0
outer loop
vertex 5475.21 11807.51 320.06
vertex 5851.17 11944.27 450.06
vertex 5851.17 11944.27 199.94
endloop
endfacet
facet normal -0.34204303763550836 0.9396840316608776 -0.0006935752539452856
outer loop
vertex 5475.21 11807.51 320.06
vertex 5851.17 11944.27 199.94
vertex 5099.38 11670.62 199.94
endloop
endfacet
facet normal -0.3422388384933151 0.9396129934322677 0
outer loop
vertex 5475.21 11807.51 320.06
vertex 5099.38 11670.62 199.94
vertex 5099.38 11670.62 300.04
endloop
endfacet
facet normal -0.34223883849331505 0.9396129934322677 0
outer loop
vertex 5475.21 11807.51 320.06
vertex 5099.38 11670.62 300.04
vertex 5475.21 11807.51 450.06
endloop
endfacet
facet normal -0.3418474244906482 0.9397554673260011 0
outer loop
vertex 5475.21 11807.51 320.06
vertex 5475.21 11807.51 450.06
vertex 5851.17 11944.27 450.06
endloop
endfacet
facet normal 0 0 -1
outer loop
vertex 5714.28 12320.1 599.95
vertex 5851.17 11944.27 599.95
vertex 5475.21 11807.51 599.95
endloop
endfacet
facet normal 0 0 -1
outer loop
vertex 5714.28 12320.1 599.95
vertex 5475.21 11807.51 599.95
vertex 5338.45 12183.34 599.95
endloop
endfacet
facet normal 0.9397174763752059 0.34195184543297075 0
outer loop
vertex 5475.21 11807.51 599.95
vertex 5475.21 11807.51 450.06
vertex 5338.45 12183.34 450.06
endloop
endfacet
facet normal 0.9397174763752059 0.34195184543297075 0
outer loop
vertex 5475.21 11807.51 599.95
vertex 5338.45 12183.34 450.06
vertex 5338.45 12183.34 599.95
endloop
endfacet
facet normal 0.9397174763752066 0.34195184543296875 0
outer loop
vertex 5885.62 10679.890000000001 300.04
vertex 5885.62 10679.890000000001 199.94
vertex 5748.860000000001 11055.720000000001 199.94
endloop
endfacet
facet normal 0.9397174763752066 0.34195184543296875 0
outer loop
vertex 5885.62 10679.890000000001 300.04
vertex 5748.860000000001 11055.720000000001 199.94
vertex 5748.860000000001 11055.720000000001 300.04
endloop
endfacet
facet normal 0.3300204687643654 0.12004893953669218 -0.9363091061784373
outer loop
vertex 5475.21 11807.51 450.06
vertex 5099.38 11670.62 300.04
vertex 4962.62 12046.58 300.04
endloop
endfacet
facet normal 0.33003927198471367 0.12009730685849859 -0.9362962756697988
outer loop
vertex 5475.21 11807.51 450.06
vertex 4962.62 12046.58 300.04
vertex 5338.45 12183.34 450.06
endloop
endfacet
facet normal 0.34195184543296675 -0.9397174763752074 0
outer loop
vertex 6124.6900000000005 11192.48 199.94
vertex 6124.6900000000005 11192.48 300.04
vertex 5748.860000000001 11055.720000000001 300.04
endloop
endfacet
facet normal 0.34195184543296675 -0.9397174763752074 0
outer loop
vertex 6124.6900000000005 11192.48 199.94
vertex 5748.860000000001 11055.720000000001 300.04
vertex 5748.860000000001 11055.720000000001 199.94
endloop
endfacet
facet normal -0.34184742449064415 0.9397554673260025 0
outer loop
vertex 5885.62 10679.890000000001 300.04
vertex 6261.58 10816.65 300.04
vertex 6261.58 10816.65 199.94
endloop
endfacet
facet normal -0.34184742449064415 0.9397554673260025 0
outer loop
vertex 5885.62 10679.890000000001 300.04
vertex 6261.58 10816.65 199.94
vertex 5885.62 10679.890000000001 199.94
endloop
endfacet
facet normal 0 0 -1
outer loop
vertex 6124.6900000000005 11192.48 300.04
vertex 6261.58 10816.65 300.04
vertex 5885.62 10679.890000000001 300.04
endloop
endfacet
facet normal 0 0 -1
outer loop
vertex 6124.6900000000005 11192.48 300.04
vertex 5885.62 10679.890000000001 300.04
vertex 5748.860000000001 11055.720000000001 300.04
endloop
endfacet
endsolid JSCAD
