solid JSCAD
facet normal -1 0 0
outer loop
vertex 0 0 0
vertex 0 0 3999.9700000000003
vertex 0 15000.050000000001 3999.9700000000003
endloop
endfacet
facet normal -1 0 0
outer loop
vertex 0 0 0
vertex 0 15000.050000000001 3999.9700000000003
vertex 0 15000.050000000001 0
endloop
endfacet
facet normal 1 0 0
outer loop
vertex 19999.98 0 0
vertex 19999.98 15000.050000000001 0
vertex 19999.98 15000.050000000001 3999.9700000000003
endloop
endfacet
facet normal 1 0 0
outer loop
vertex 19999.98 0 0
vertex 19999.98 15000.050000000001 3999.9700000000003
vertex 19999.98 0 3999.9700000000003
endloop
endfacet
facet normal 0 -1 0
outer loop
vertex 0 0 0
vertex 19999.98 0 0
vertex 19999.98 0 3999.9700000000003
endloop
endfacet
facet normal 0 -1 0
outer loop
vertex 0 0 0
vertex 19999.98 0 3999.9700000000003
vertex 0 0 3999.9700000000003
endloop
endfacet
facet normal 0 1 0
outer loop
vertex 0 15000.050000000001 0
vertex 0 15000.050000000001 3999.9700000000003
vertex 19999.98 15000.050000000001 3999.9700000000003
endloop
endfacet
facet normal 0 1 0
outer loop
vertex 0 15000.050000000001 0
vertex 19999.98 15000.050000000001 3999.9700000000003
vertex 19999.98 15000.050000000001 0
endloop
endfacet
facet normal 0 0 -1
outer loop
vertex 0 0 0
vertex 0 15000.050000000001 0
vertex 19999.98 15000.050000000001 0
endloop
endfacet
facet normal 0 0 -1
outer loop
vertex 0 0 0
vertex 19999.98 15000.050000000001 0
vertex 19999.98 0 0
endloop
endfacet
facet normal 0 0 1
outer loop
vertex 0 0 3999.9700000000003
vertex 19999.98 0 3999.9700000000003
vertex 19999.98 15000.050000000001 3999.9700000000003
endloop
endfacet
facet normal 0 0 1
outer loop
vertex 0 0 3999.9700000000003
vertex 19999.98 15000.050000000001 3999.9700000000003
vertex 0 15000.050000000001 3999.9700000000003
endloop
endfacet
facet normal 0 0 1
outer loop
vertex 5338.45 12183.34 199.94
vertex 5885.62 10679.890000000001 199.94
vertex 6261.58 10816.65 199.94
endloop
endfacet
facet normal 0 0 1
outer loop
vertex 5338.45 12183.34 199.94
vertex 6261.58 10816.65 199.94
vertex 5714.28 12320.1 199.94
endloop
endfacet
facet normal -0.11999311397046449 0.32986700152336756 -0.9363703401462766
outer loop
vertex 5748.860000000001 11055.720000000001 300.04
vertex 5475.21 11807.51 599.95
vertex 5851.17 11944.27 599.95
endloop
endfacet
facet normal -0.12003561323061107 0.3298697317962933 -0.9363639311725932
outer loop
vertex 5748.860000000001 11055.720000000001 300.04
vertex 5851.17 11944.27 599.95
vertex 6124.6900000000005 11192.48 300.04
endloop
endfacet
facet normal 0.9396953265198443 0.3420126983886507 0.00008635784252767584
outer loop
vertex 5475.21 11807.51 599.95
vertex 5748.860000000001 11055.720000000001 300.04
vertex 5338.45 12183.34 300.04
endloop
endfacet
facet normal 0.939717476375206 0.34195184543297075 0
outer loop
vertex 5475.21 11807.51 599.95
vertex 5338.45 12183.34 300.04
vertex 5338.45 12183.34 599.95
endloop
endfacet
facet normal 0.9397008664044982 0.3419974878250356 0
outer loop
vertex 5885.62 10679.890000000001 300.04
vertex 5885.62 10679.890000000001 199.94
vertex 5338.45 12183.34 199.94
endloop
endfacet
facet normal 0.9397008664044982 0.3419974878250356 0
outer loop
vertex 5885.62 10679.890000000001 300.04
vertex 5338.45 12183.34 199.94
vertex 5338.45 12183.34 300.04
endloop
endfacet
facet normal -0.9396953300238167 -0.3420126996639604 0
outer loop
vertex 5714.28 12320.1 599.95
vertex 5714.28 12320.1 300.04
vertex 6124.6900000000005 11192.48 300.04
endloop
endfacet
facet normal -0.9396125578176849 -0.34223867982774986 0.0009629231883257334
outer loop
vertex 5714.28 12320.1 599.95
vertex 6124.6900000000005 11192.48 300.04
vertex 5851.17 11944.27 599.95
endloop
endfacet
facet normal -0.9396747514052836 -0.34206923505544684 0
outer loop
vertex 5714.28 12320.1 300.04
vertex 5714.28 12320.1 199.94
vertex 6261.58 10816.65 199.94
endloop
endfacet
facet normal -0.9396747514052836 -0.34206923505544684 0
outer loop
vertex 5714.28 12320.1 300.04
vertex 6261.58 10816.65 199.94
vertex 6261.58 10816.65 300.04
endloop
endfacet
facet normal 0.34205632596050634 -0.9396794505949355 0
outer loop
vertex 5526.43 12251.720000000001 366.6
vertex 5714.28 12320.1 199.94
vertex 5714.28 12320.1 300.04
endloop
endfacet
facet normal 0.3420563259605064 -0.9396794505949355 0
outer loop
vertex 5526.43 12251.720000000001 366.6
vertex 5714.28 12320.1 300.04
vertex 5714.28 12320.1 599.95
endloop
endfacet
facet normal 0.34195184388174155 -0.9397174721122747 0.00009525120999201005
outer loop
vertex 5526.43 12251.720000000001 366.6
vertex 5714.28 12320.1 599.95
vertex 5338.45 12183.34 599.95
endloop
endfacet
facet normal 0.34184742449065153 -0.9397554673259999 0
outer loop
vertex 5526.43 12251.720000000001 366.6
vertex 5338.45 12183.34 599.95
vertex 5338.45 12183.34 300.04
endloop
endfacet
facet normal 0.3418474244906514 -0.9397554673259998 0
outer loop
vertex 5526.43 12251.720000000001 366.6
vertex 5338.45 12183.34 300.04
vertex 5338.45 12183.34 199.94
endloop
endfacet
facet normal 0.3419518423918839 -0.9397174680179988 -0.00013336655319089643
outer loop
vertex 5526.43 12251.720000000001 366.6
vertex 5338.45 12183.34 199.94
vertex 5714.28 12320.1 199.94
endloop
endfacet
facet normal 0 0 -1
outer loop
vertex 5714.28 12320.1 599.95
vertex 5851.17 11944.27 599.95
vertex 5475.21 11807.51 599.95
endloop
endfacet
facet normal 0 0 -1
outer loop
vertex 5714.28 12320.1 599.95
vertex 5475.21 11807.51 599.95
vertex 5338.45 12183.34 599.95
endloop
endfacet
facet normal -0.34184742449064415 0.9397554673260025 0
outer loop
vertex 5885.62 10679.890000000001 300.04
vertex 6261.58 10816.65 300.04
vertex 6261.58 10816.65 199.94
endloop
endfacet
facet normal -0.34184742449064415 0.9397554673260025 0
outer loop
vertex 5885.62 10679.890000000001 300.04
vertex 6261.58 10816.65 199.94
vertex 5885.62 10679.890000000001 199.94
endloop
endfacet
facet normal 0 0 -1
outer loop
vertex 6124.6900000000005 11192.48 300.04
vertex 6261.58 10816.65 300.04
vertex 5885.62 10679.890000000001 300.04
endloop
endfacet
facet normal 0 0 -1
outer loop
vertex 6124.6900000000005 11192.48 300.04
vertex 5885.62 10679.890000000001 300.04
vertex 5748.860000000001 11055.720000000001 300.04
endloop
endfacet
endsolid JSCAD
