solid JSCAD
facet normal -1 0 0
outer loop
vertex 0 0 0
vertex 0 0 3999.9700000000003
vertex 0 15000.050000000001 3999.9700000000003
endloop
endfacet
facet normal -1 0 0
outer loop
vertex 0 0 0
vertex 0 15000.050000000001 3999.9700000000003
vertex 0 15000.050000000001 0
endloop
endfacet
facet normal 1 0 0
outer loop
vertex 19999.98 0 0
vertex 19999.98 15000.050000000001 0
vertex 19999.98 15000.050000000001 3999.9700000000003
endloop
endfacet
facet normal 1 0 0
outer loop
vertex 19999.98 0 0
vertex 19999.98 15000.050000000001 3999.9700000000003
vertex 19999.98 0 3999.9700000000003
endloop
endfacet
facet normal 0 -1 0
outer loop
vertex 0 0 0
vertex 19999.98 0 0
vertex 19999.98 0 3999.9700000000003
endloop
endfacet
facet normal 0 -1 0
outer loop
vertex 0 0 0
vertex 19999.98 0 3999.9700000000003
vertex 0 0 3999.9700000000003
endloop
endfacet
facet normal 0 1 0
outer loop
vertex 0 15000.050000000001 0
vertex 0 15000.050000000001 3999.9700000000003
vertex 19999.98 15000.050000000001 3999.9700000000003
endloop
endfacet
facet normal 0 1 0
outer loop
vertex 0 15000.050000000001 0
vertex 19999.98 15000.050000000001 3999.9700000000003
vertex 19999.98 15000.050000000001 0
endloop
endfacet
facet normal 0 0 -1
outer loop
vertex 0 0 0
vertex 0 15000.050000000001 0
vertex 19999.98 15000.050000000001 0
endloop
endfacet
facet normal 0 0 -1
outer loop
vertex 0 0 0
vertex 19999.98 15000.050000000001 0
vertex 19999.98 0 0
endloop
endfacet
facet normal 0 0 1
outer loop
vertex 0 0 3999.9700000000003
vertex 19999.98 0 3999.9700000000003
vertex 19999.98 15000.050000000001 3999.9700000000003
endloop
endfacet
facet normal 0 0 1
outer loop
vertex 0 0 3999.9700000000003
vertex 19999.98 15000.050000000001 3999.9700000000003
vertex 0 15000.050000000001 3999.9700000000003
endloop
endfacet
facet normal 0.09035990568286373 -0.9959091763032328 0
outer loop
vertex 5916.17 10213.45 599.95
vertex 5916.17 10213.45 199.94
vertex 6314.49 10249.59 199.94
endloop
endfacet
facet normal 0.09035990568286373 -0.9959091763032328 0
outer loop
vertex 5916.17 10213.45 599.95
vertex 6314.49 10249.59 199.94
vertex 6314.49 10249.59 599.95
endloop
endfacet
facet normal 0.9924801257500089 0.12240588217584461 0
outer loop
vertex 5920.9800000000005 10174.45 599.95
vertex 5920.9800000000005 10174.45 199.94
vertex 5916.17 10213.45 199.94
endloop
endfacet
facet normal 0.9924801257500089 0.12240588217584461 0
outer loop
vertex 5920.9800000000005 10174.45 599.95
vertex 5916.17 10213.45 199.94
vertex 5916.17 10213.45 599.95
endloop
endfacet
facet normal 0.9820771339102757 0.18847944994236962 0
outer loop
vertex 5928.39 10135.84 599.95
vertex 5928.39 10135.84 199.94
vertex 5920.9800000000005 10174.45 199.94
endloop
endfacet
facet normal 0.9820771339102757 0.18847944994236962 0
outer loop
vertex 5928.39 10135.84 599.95
vertex 5920.9800000000005 10174.45 199.94
vertex 5920.9800000000005 10174.45 599.95
endloop
endfacet
facet normal 0.9679671670888804 0.25107680784558173 0
outer loop
vertex 5938.27 10097.75 599.95
vertex 5938.27 10097.75 199.94
vertex 5928.39 10135.84 199.94
endloop
endfacet
facet normal 0.9679671670888804 0.25107680784558173 0
outer loop
vertex 5938.27 10097.75 599.95
vertex 5928.39 10135.84 199.94
vertex 5928.39 10135.84 599.95
endloop
endfacet
facet normal 0.9493427849348628 0.3142423852571749 0
outer loop
vertex 5950.62 10060.44 599.95
vertex 5950.62 10060.44 199.94
vertex 5938.27 10097.75 199.94
endloop
endfacet
facet normal 0.9493427849348628 0.3142423852571749 0
outer loop
vertex 5950.62 10060.44 599.95
vertex 5938.27 10097.75 199.94
vertex 5938.27 10097.75 599.95
endloop
endfacet
facet normal 0.9266461436056248 0.37593473441652575 0
outer loop
vertex 5965.4400000000005 10023.91 599.95
vertex 5965.4400000000005 10023.91 199.94
vertex 5950.62 10060.44 199.94
endloop
endfacet
facet normal 0.9266461436056248 0.37593473441652575 0
outer loop
vertex 5965.4400000000005 10023.91 599.95
vertex 5950.62 10060.44 199.94
vertex 5950.62 10060.44 599.95
endloop
endfacet
facet normal 0.9009537129323332 0.4339152073313897 0
outer loop
vertex 5982.47 9988.550000000001 599.95
vertex 5982.47 9988.550000000001 199.94
vertex 5965.4400000000005 10023.91 199.94
endloop
endfacet
facet normal 0.9009537129323332 0.4339152073313897 0
outer loop
vertex 5982.47 9988.550000000001 599.95
vertex 5965.4400000000005 10023.91 199.94
vertex 5965.4400000000005 10023.91 599.95
endloop
endfacet
facet normal 0.8686493552178061 0.4954273889074866 0
outer loop
vertex 6001.97 9954.36 599.95
vertex 6001.97 9954.36 199.94
vertex 5982.47 9988.550000000001 199.94
endloop
endfacet
facet normal 0.8686493552178061 0.4954273889074866 0
outer loop
vertex 6001.97 9954.36 599.95
vertex 5982.47 9988.550000000001 199.94
vertex 5982.47 9988.550000000001 599.95
endloop
endfacet
facet normal 0.8360952791971772 0.5485842543349146 0
outer loop
vertex 6023.55 9921.470000000001 599.95
vertex 6023.55 9921.470000000001 199.94
vertex 6001.97 9954.36 199.94
endloop
endfacet
facet normal 0.8360952791971772 0.5485842543349146 0
outer loop
vertex 6023.55 9921.470000000001 599.95
vertex 6001.97 9954.36 199.94
vertex 6001.97 9954.36 599.95
endloop
endfacet
facet normal -0.576338563393351 0.8172110255898953 0
outer loop
vertex 6350.37 10151.960000000001 599.95
vertex 6350.37 10151.960000000001 199.94
vertex 6023.55 9921.470000000001 199.94
endloop
endfacet
facet normal -0.576338563393351 0.8172110255898953 0
outer loop
vertex 6350.37 10151.960000000001 599.95
vertex 6023.55 9921.470000000001 199.94
vertex 6023.55 9921.470000000001 599.95
endloop
endfacet
facet normal -0.8395701571521476 -0.5432512781572801 0
outer loop
vertex 6343.22 10163.01 599.95
vertex 6343.22 10163.01 199.94
vertex 6350.37 10151.960000000001 199.94
endloop
endfacet
facet normal -0.8395701571521476 -0.5432512781572801 0
outer loop
vertex 6343.22 10163.01 599.95
vertex 6350.37 10151.960000000001 199.94
vertex 6350.37 10151.960000000001 599.95
endloop
endfacet
facet normal -0.8694565573927775 -0.49400940760951073 0
outer loop
vertex 6336.72 10174.45 599.95
vertex 6336.72 10174.45 199.94
vertex 6343.22 10163.01 199.94
endloop
endfacet
facet normal -0.8694565573927775 -0.49400940760951073 0
outer loop
vertex 6336.72 10174.45 599.95
vertex 6343.22 10163.01 199.94
vertex 6343.22 10163.01 599.95
endloop
endfacet
facet normal -0.9002843394976847 -0.4353023179989025 0
outer loop
vertex 6331 10186.28 599.95
vertex 6331 10186.28 199.94
vertex 6336.72 10174.45 199.94
endloop
endfacet
facet normal -0.9002843394976847 -0.4353023179989025 0
outer loop
vertex 6331 10186.28 599.95
vertex 6336.72 10174.45 199.94
vertex 6336.72 10174.45 599.95
endloop
endfacet
facet normal -0.9271100657041578 -0.3747891754974152 0
outer loop
vertex 6326.06 10198.5 599.95
vertex 6326.06 10198.5 199.94
vertex 6331 10186.28 199.94
endloop
endfacet
facet normal -0.9271100657041578 -0.3747891754974152 0
outer loop
vertex 6326.06 10198.5 599.95
vertex 6331 10186.28 199.94
vertex 6331 10186.28 599.95
endloop
endfacet
facet normal -0.9486832980505138 -0.31622776601683794 0
outer loop
vertex 6321.900000000001 10210.98 599.95
vertex 6321.900000000001 10210.98 199.94
vertex 6326.06 10198.5 199.94
endloop
endfacet
facet normal -0.9486832980505138 -0.31622776601683794 0
outer loop
vertex 6321.900000000001 10210.98 599.95
vertex 6326.06 10198.5 199.94
vertex 6326.06 10198.5 599.95
endloop
endfacet
facet normal -0.9665615578617838 -0.256434699024531 0
outer loop
vertex 6318.52 10223.720000000001 599.95
vertex 6318.52 10223.720000000001 199.94
vertex 6321.900000000001 10210.98 199.94
endloop
endfacet
facet normal -0.9665615578617838 -0.256434699024531 0
outer loop
vertex 6318.52 10223.720000000001 599.95
vertex 6321.900000000001 10210.98 199.94
vertex 6321.900000000001 10210.98 599.95
endloop
endfacet
facet normal -0.9820771339102682 -0.18847944994240906 0
outer loop
vertex 6316.05 10236.59 599.95
vertex 6316.05 10236.59 199.94
vertex 6318.52 10223.720000000001 199.94
endloop
endfacet
facet normal -0.9820771339102682 -0.18847944994240906 0
outer loop
vertex 6316.05 10236.59 599.95
vertex 6318.52 10223.720000000001 199.94
vertex 6318.52 10223.720000000001 599.95
endloop
endfacet
facet normal -0.9928768384869184 -0.11914522061846076 0
outer loop
vertex 6314.49 10249.59 599.95
vertex 6314.49 10249.59 199.94
vertex 6316.05 10236.59 199.94
endloop
endfacet
facet normal -0.9928768384869184 -0.11914522061846076 0
outer loop
vertex 6314.49 10249.59 599.95
vertex 6316.05 10236.59 199.94
vertex 6316.05 10236.59 599.95
endloop
endfacet
facet normal 0 0 -1
outer loop
vertex 6316.05 10236.59 599.95
vertex 6170.97 10236.59 599.95
vertex 6314.49 10249.59 599.95
endloop
endfacet
facet normal 0 0 -1
outer loop
vertex 6316.05 10236.59 599.95
vertex 6318.52 10223.720000000001 599.95
vertex 6028.75 10223.720000000001 599.95
endloop
endfacet
facet normal 0 0 -1
outer loop
vertex 6316.05 10236.59 599.95
vertex 6028.75 10223.720000000001 599.95
vertex 6170.97 10236.59 599.95
endloop
endfacet
facet normal 0 0 -0.9999999999999999
outer loop
vertex 6100.38 10216.57 599.95
vertex 6318.52 10223.720000000001 599.95
vertex 6321.900000000001 10210.98 599.95
endloop
endfacet
facet normal 0 0 -1
outer loop
vertex 6100.38 10216.57 599.95
vertex 6321.900000000001 10210.98 599.95
vertex 5916.43 10210.98 599.95
endloop
endfacet
facet normal 0 0 -1
outer loop
vertex 6100.38 10216.57 599.95
vertex 5916.43 10210.98 599.95
vertex 5916.17 10213.45 599.95
endloop
endfacet
facet normal 0 0 -0.9999999999999999
outer loop
vertex 6100.38 10216.57 599.95
vertex 5916.17 10213.45 599.95
vertex 6028.75 10223.720000000001 599.95
endloop
endfacet
facet normal 0 0 -1
outer loop
vertex 6100.38 10216.57 599.95
vertex 6028.75 10223.720000000001 599.95
vertex 6318.52 10223.720000000001 599.95
endloop
endfacet
facet normal 0 0 -1
outer loop
vertex 6321.900000000001 10210.98 599.95
vertex 6326.06 10198.5 599.95
vertex 5917.99 10198.5 599.95
endloop
endfacet
facet normal 0 0 -1
outer loop
vertex 6321.900000000001 10210.98 599.95
vertex 5917.99 10198.5 599.95
vertex 5916.43 10210.98 599.95
endloop
endfacet
facet normal 0 0 -1
outer loop
vertex 6326.06 10198.5 599.95
vertex 6331 10186.28 599.95
vertex 5919.55 10186.28 599.95
endloop
endfacet
facet normal 0 0 -1
outer loop
vertex 6326.06 10198.5 599.95
vertex 5919.55 10186.28 599.95
vertex 5917.99 10198.5 599.95
endloop
endfacet
facet normal 0 0 -1
outer loop
vertex 6331 10186.28 599.95
vertex 6336.72 10174.45 599.95
vertex 5920.9800000000005 10174.45 599.95
endloop
endfacet
facet normal 0 0 -1
outer loop
vertex 6331 10186.28 599.95
vertex 5920.9800000000005 10174.45 599.95
vertex 5919.55 10186.28 599.95
endloop
endfacet
facet normal 0 0 -1
outer loop
vertex 6336.72 10174.45 599.95
vertex 6343.22 10163.01 599.95
vertex 5923.1900000000005 10163.01 599.95
endloop
endfacet
facet normal 0 0 -1
outer loop
vertex 6336.72 10174.45 599.95
vertex 5923.1900000000005 10163.01 599.95
vertex 5920.9800000000005 10174.45 599.95
endloop
endfacet
facet normal 0 0 -1
outer loop
vertex 6040.71 10066.03 599.95
vertex 6343.22 10163.01 599.95
vertex 6350.37 10151.960000000001 599.95
endloop
endfacet
facet normal 0 0 -0.9999999999999999
outer loop
vertex 6040.71 10066.03 599.95
vertex 6350.37 10151.960000000001 599.95
vertex 6023.55 9921.470000000001 599.95
endloop
endfacet
facet normal 0 0 -1
outer loop
vertex 6040.71 10066.03 599.95
vertex 6023.55 9921.470000000001 599.95
vertex 6001.97 9954.36 599.95
endloop
endfacet
facet normal 0 0 -1
outer loop
vertex 6040.71 10066.03 599.95
vertex 6001.97 9954.36 599.95
vertex 5982.47 9988.550000000001 599.95
endloop
endfacet
facet normal 0 0 -1
outer loop
vertex 6040.71 10066.03 599.95
vertex 5982.47 9988.550000000001 599.95
vertex 5965.4400000000005 10023.91 599.95
endloop
endfacet
facet normal 0 0 -0.9999999999999999
outer loop
vertex 6040.71 10066.03 599.95
vertex 5965.4400000000005 10023.91 599.95
vertex 5950.62 10060.44 599.95
endloop
endfacet
facet normal 0 0 -1
outer loop
vertex 6040.71 10066.03 599.95
vertex 5950.62 10060.44 599.95
vertex 5938.27 10097.75 599.95
endloop
endfacet
facet normal 0 0 -1
outer loop
vertex 6040.71 10066.03 599.95
vertex 5938.27 10097.75 599.95
vertex 5928.39 10135.84 599.95
endloop
endfacet
facet normal 0 0 -1
outer loop
vertex 6040.71 10066.03 599.95
vertex 5928.39 10135.84 599.95
vertex 5923.1900000000005 10163.01 599.95
endloop
endfacet
facet normal 0 0 -1
outer loop
vertex 6040.71 10066.03 599.95
vertex 5923.1900000000005 10163.01 599.95
vertex 6343.22 10163.01 599.95
endloop
endfacet
facet normal 0 0 -1
outer loop
vertex 6460.22 7423.13 599.95
vertex 6499.09 7534.8 599.95
vertex 6518.46 7500.610000000001 599.95
endloop
endfacet
facet normal 0 0 -1
outer loop
vertex 6460.22 7423.13 599.95
vertex 6518.46 7500.610000000001 599.95
vertex 6535.62 7465.25 599.95
endloop
endfacet
facet normal 0 0 -1
outer loop
vertex 6460.22 7423.13 599.95
vertex 6535.62 7465.25 599.95
vertex 6550.31 7428.85 599.95
endloop
endfacet
facet normal 0 0 -1
outer loop
vertex 6460.22 7423.13 599.95
vertex 6550.31 7428.85 599.95
vertex 6562.79 7391.41 599.95
endloop
endfacet
facet normal 0 0 -1
outer loop
vertex 6460.22 7423.13 599.95
vertex 6562.79 7391.41 599.95
vertex 6572.67 7353.45 599.95
endloop
endfacet
facet normal 0 0 -1
outer loop
vertex 6460.22 7423.13 599.95
vertex 6572.67 7353.45 599.95
vertex 6577.87 7326.150000000001 599.95
endloop
endfacet
facet normal 0 0 -1
outer loop
vertex 6460.22 7423.13 599.95
vertex 6577.87 7326.150000000001 599.95
vertex 6157.84 7326.150000000001 599.95
endloop
endfacet
facet normal 0 0 -1
outer loop
vertex 6460.22 7423.13 599.95
vertex 6157.84 7326.150000000001 599.95
vertex 6150.56 7337.2 599.95
endloop
endfacet
facet normal 0 0 -1
outer loop
vertex 6460.22 7423.13 599.95
vertex 6150.56 7337.2 599.95
vertex 6477.51 7567.6900000000005 599.95
endloop
endfacet
facet normal 0 0 -0.9999999999999999
outer loop
vertex 6460.22 7423.13 599.95
vertex 6477.51 7567.6900000000005 599.95
vertex 6499.09 7534.8 599.95
endloop
endfacet
facet normal 0 0 -1
outer loop
vertex 6577.87 7326.150000000001 599.95
vertex 6579.95 7314.71 599.95
vertex 6164.34 7314.71 599.95
endloop
endfacet
facet normal 0 0 -1
outer loop
vertex 6577.87 7326.150000000001 599.95
vertex 6164.34 7314.71 599.95
vertex 6157.84 7326.150000000001 599.95
endloop
endfacet
facet normal 0 0 -1
outer loop
vertex 6579.95 7314.71 599.95
vertex 6581.51 7302.88 599.95
vertex 6170.06 7302.88 599.95
endloop
endfacet
facet normal 0 0 -1
outer loop
vertex 6579.95 7314.71 599.95
vertex 6170.06 7302.88 599.95
vertex 6164.34 7314.71 599.95
endloop
endfacet
facet normal 0 0 -1
outer loop
vertex 6581.51 7302.88 599.95
vertex 6582.9400000000005 7290.66 599.95
vertex 6175 7290.66 599.95
endloop
endfacet
facet normal 0 0 -1
outer loop
vertex 6581.51 7302.88 599.95
vertex 6175 7290.66 599.95
vertex 6170.06 7302.88 599.95
endloop
endfacet
facet normal 0 0 -1
outer loop
vertex 6582.9400000000005 7290.66 599.95
vertex 6584.5 7278.18 599.95
vertex 6179.030000000001 7278.18 599.95
endloop
endfacet
facet normal 0 0 -1
outer loop
vertex 6582.9400000000005 7290.66 599.95
vertex 6179.030000000001 7278.18 599.95
vertex 6175 7290.66 599.95
endloop
endfacet
facet normal 0 0 -0.9999999999999999
outer loop
vertex 6400.55 7272.59 599.95
vertex 6584.5 7278.18 599.95
vertex 6584.89 7275.71 599.95
endloop
endfacet
facet normal 0 0 -0.9999999999999999
outer loop
vertex 6400.55 7272.59 599.95
vertex 6584.89 7275.71 599.95
vertex 6472.18 7265.4400000000005 599.95
endloop
endfacet
facet normal 0 0 -1
outer loop
vertex 6400.55 7272.59 599.95
vertex 6472.18 7265.4400000000005 599.95
vertex 6182.41 7265.4400000000005 599.95
endloop
endfacet
facet normal 0 0 -1
outer loop
vertex 6400.55 7272.59 599.95
vertex 6182.41 7265.4400000000005 599.95
vertex 6179.030000000001 7278.18 599.95
endloop
endfacet
facet normal 0 0 -1
outer loop
vertex 6400.55 7272.59 599.95
vertex 6179.030000000001 7278.18 599.95
vertex 6584.5 7278.18 599.95
endloop
endfacet
facet normal 0 0 -1
outer loop
vertex 6472.18 7265.4400000000005 599.95
vertex 6330.09 7252.570000000001 599.95
vertex 6184.88 7252.570000000001 599.95
endloop
endfacet
facet normal 0 0 -0.9999999999999999
outer loop
vertex 6472.18 7265.4400000000005 599.95
vertex 6184.88 7252.570000000001 599.95
vertex 6182.41 7265.4400000000005 599.95
endloop
endfacet
facet normal 0 0 -1
outer loop
vertex 6330.09 7252.570000000001 599.95
vertex 6186.4400000000005 7239.570000000001 599.95
vertex 6184.88 7252.570000000001 599.95
endloop
endfacet
facet normal 0 0 1
outer loop
vertex 6170.97 10236.59 199.94
vertex 6316.05 10236.59 199.94
vertex 6314.49 10249.59 199.94
endloop
endfacet
facet normal 0 0 1
outer loop
vertex 6170.97 10236.59 199.94
vertex 6028.75 10223.720000000001 199.94
vertex 6318.52 10223.720000000001 199.94
endloop
endfacet
facet normal 0 0 1
outer loop
vertex 6170.97 10236.59 199.94
vertex 6318.52 10223.720000000001 199.94
vertex 6316.05 10236.59 199.94
endloop
endfacet
facet normal 0 0 0.9999999999999999
outer loop
vertex 6100.38 10216.57 199.94
vertex 6028.75 10223.720000000001 199.94
vertex 5916.17 10213.45 199.94
endloop
endfacet
facet normal 0 0 1
outer loop
vertex 6100.38 10216.57 199.94
vertex 5916.17 10213.45 199.94
vertex 5916.43 10210.98 199.94
endloop
endfacet
facet normal 0 0 1
outer loop
vertex 6100.38 10216.57 199.94
vertex 5916.43 10210.98 199.94
vertex 6321.900000000001 10210.98 199.94
endloop
endfacet
facet normal 0 0 0.9999999999999999
outer loop
vertex 6100.38 10216.57 199.94
vertex 6321.900000000001 10210.98 199.94
vertex 6318.52 10223.720000000001 199.94
endloop
endfacet
facet normal 0 0 1
outer loop
vertex 6100.38 10216.57 199.94
vertex 6318.52 10223.720000000001 199.94
vertex 6028.75 10223.720000000001 199.94
endloop
endfacet
facet normal 0 0 1
outer loop
vertex 5916.43 10210.98 199.94
vertex 5917.99 10198.5 199.94
vertex 6326.06 10198.5 199.94
endloop
endfacet
facet normal 0 0 1
outer loop
vertex 5916.43 10210.98 199.94
vertex 6326.06 10198.5 199.94
vertex 6321.900000000001 10210.98 199.94
endloop
endfacet
facet normal 0 0 1
outer loop
vertex 5917.99 10198.5 199.94
vertex 5919.55 10186.28 199.94
vertex 6331 10186.28 199.94
endloop
endfacet
facet normal 0 0 1
outer loop
vertex 5917.99 10198.5 199.94
vertex 6331 10186.28 199.94
vertex 6326.06 10198.5 199.94
endloop
endfacet
facet normal 0 0 1
outer loop
vertex 5919.55 10186.28 199.94
vertex 5920.9800000000005 10174.45 199.94
vertex 6336.72 10174.45 199.94
endloop
endfacet
facet normal 0 0 1
outer loop
vertex 5919.55 10186.28 199.94
vertex 6336.72 10174.45 199.94
vertex 6331 10186.28 199.94
endloop
endfacet
facet normal 0 0 1
outer loop
vertex 5920.9800000000005 10174.45 199.94
vertex 5923.1900000000005 10163.01 199.94
vertex 6343.22 10163.01 199.94
endloop
endfacet
facet normal 0 0 1
outer loop
vertex 5920.9800000000005 10174.45 199.94
vertex 6343.22 10163.01 199.94
vertex 6336.72 10174.45 199.94
endloop
endfacet
facet normal 0 0 1
outer loop
vertex 6040.71 10066.03 199.94
vertex 5923.1900000000005 10163.01 199.94
vertex 5928.39 10135.84 199.94
endloop
endfacet
facet normal 0 0 1
outer loop
vertex 6040.71 10066.03 199.94
vertex 5928.39 10135.84 199.94
vertex 5938.27 10097.75 199.94
endloop
endfacet
facet normal 0 0 1
outer loop
vertex 6040.71 10066.03 199.94
vertex 5938.27 10097.75 199.94
vertex 5950.62 10060.44 199.94
endloop
endfacet
facet normal 0 0 0.9999999999999999
outer loop
vertex 6040.71 10066.03 199.94
vertex 5950.62 10060.44 199.94
vertex 5965.4400000000005 10023.91 199.94
endloop
endfacet
facet normal 0 0 1
outer loop
vertex 6040.71 10066.03 199.94
vertex 5965.4400000000005 10023.91 199.94
vertex 5982.47 9988.550000000001 199.94
endloop
endfacet
facet normal 0 0 1
outer loop
vertex 6040.71 10066.03 199.94
vertex 5982.47 9988.550000000001 199.94
vertex 6001.97 9954.36 199.94
endloop
endfacet
facet normal 0 0 1
outer loop
vertex 6040.71 10066.03 199.94
vertex 6001.97 9954.36 199.94
vertex 6023.55 9921.470000000001 199.94
endloop
endfacet
facet normal 0 0 0.9999999999999999
outer loop
vertex 6040.71 10066.03 199.94
vertex 6023.55 9921.470000000001 199.94
vertex 6350.37 10151.960000000001 199.94
endloop
endfacet
facet normal 0 0 1
outer loop
vertex 6040.71 10066.03 199.94
vertex 6350.37 10151.960000000001 199.94
vertex 6343.22 10163.01 199.94
endloop
endfacet
facet normal 0 0 1
outer loop
vertex 6040.71 10066.03 199.94
vertex 6343.22 10163.01 199.94
vertex 5923.1900000000005 10163.01 199.94
endloop
endfacet
facet normal 0 0 1
outer loop
vertex 6460.22 7423.13 199.94
vertex 6150.56 7337.2 199.94
vertex 6157.84 7326.150000000001 199.94
endloop
endfacet
facet normal 0 0 1
outer loop
vertex 6460.22 7423.13 199.94
vertex 6157.84 7326.150000000001 199.94
vertex 6577.87 7326.150000000001 199.94
endloop
endfacet
facet normal 0 0 1
outer loop
vertex 6460.22 7423.13 199.94
vertex 6577.87 7326.150000000001 199.94
vertex 6572.67 7353.45 199.94
endloop
endfacet
facet normal 0 0 1
outer loop
vertex 6460.22 7423.13 199.94
vertex 6572.67 7353.45 199.94
vertex 6562.79 7391.41 199.94
endloop
endfacet
facet normal 0 0 1
outer loop
vertex 6460.22 7423.13 199.94
vertex 6562.79 7391.41 199.94
vertex 6550.31 7428.85 199.94
endloop
endfacet
facet normal 0 0 1
outer loop
vertex 6460.22 7423.13 199.94
vertex 6550.31 7428.85 199.94
vertex 6535.62 7465.25 199.94
endloop
endfacet
facet normal 0 0 1
outer loop
vertex 6460.22 7423.13 199.94
vertex 6535.62 7465.25 199.94
vertex 6518.46 7500.610000000001 199.94
endloop
endfacet
facet normal 0 0 1
outer loop
vertex 6460.22 7423.13 199.94
vertex 6518.46 7500.610000000001 199.94
vertex 6499.09 7534.8 199.94
endloop
endfacet
facet normal 0 0 0.9999999999999999
outer loop
vertex 6460.22 7423.13 199.94
vertex 6499.09 7534.8 199.94
vertex 6477.51 7567.6900000000005 199.94
endloop
endfacet
facet normal 0 0 1
outer loop
vertex 6460.22 7423.13 199.94
vertex 6477.51 7567.6900000000005 199.94
vertex 6150.56 7337.2 199.94
endloop
endfacet
facet normal 0 0 1
outer loop
vertex 6157.84 7326.150000000001 199.94
vertex 6164.34 7314.71 199.94
vertex 6579.95 7314.71 199.94
endloop
endfacet
facet normal 0 0 1
outer loop
vertex 6157.84 7326.150000000001 199.94
vertex 6579.95 7314.71 199.94
vertex 6577.87 7326.150000000001 199.94
endloop
endfacet
facet normal 0 0 1
outer loop
vertex 6164.34 7314.71 199.94
vertex 6170.06 7302.88 199.94
vertex 6581.51 7302.88 199.94
endloop
endfacet
facet normal 0 0 1
outer loop
vertex 6164.34 7314.71 199.94
vertex 6581.51 7302.88 199.94
vertex 6579.95 7314.71 199.94
endloop
endfacet
facet normal 0 0 1
outer loop
vertex 6170.06 7302.88 199.94
vertex 6175 7290.66 199.94
vertex 6582.9400000000005 7290.66 199.94
endloop
endfacet
facet normal 0 0 1
outer loop
vertex 6170.06 7302.88 199.94
vertex 6582.9400000000005 7290.66 199.94
vertex 6581.51 7302.88 199.94
endloop
endfacet
facet normal 0 0 1
outer loop
vertex 6175 7290.66 199.94
vertex 6179.030000000001 7278.18 199.94
vertex 6584.5 7278.18 199.94
endloop
endfacet
facet normal 0 0 1
outer loop
vertex 6175 7290.66 199.94
vertex 6584.5 7278.18 199.94
vertex 6582.9400000000005 7290.66 199.94
endloop
endfacet
facet normal 0 0 1
outer loop
vertex 6400.55 7272.59 199.94
vertex 6179.030000000001 7278.18 199.94
vertex 6182.41 7265.4400000000005 199.94
endloop
endfacet
facet normal 0 0 1
outer loop
vertex 6400.55 7272.59 199.94
vertex 6182.41 7265.4400000000005 199.94
vertex 6472.18 7265.4400000000005 199.94
endloop
endfacet
facet normal 0 0 0.9999999999999999
outer loop
vertex 6400.55 7272.59 199.94
vertex 6472.18 7265.4400000000005 199.94
vertex 6584.89 7275.71 199.94
endloop
endfacet
facet normal 0 0 0.9999999999999999
outer loop
vertex 6400.55 7272.59 199.94
vertex 6584.89 7275.71 199.94
vertex 6584.5 7278.18 199.94
endloop
endfacet
facet normal 0 0 1
outer loop
vertex 6400.55 7272.59 199.94
vertex 6584.5 7278.18 199.94
vertex 6179.030000000001 7278.18 199.94
endloop
endfacet
facet normal 0 0 1
outer loop
vertex 6182.41 7265.4400000000005 199.94
vertex 6184.88 7252.570000000001 199.94
vertex 6330.09 7252.570000000001 199.94
endloop
endfacet
facet normal 0 0 0.9999999999999999
outer loop
vertex 6182.41 7265.4400000000005 199.94
vertex 6330.09 7252.570000000001 199.94
vertex 6472.18 7265.4400000000005 199.94
endloop
endfacet
facet normal 0 0 1
outer loop
vertex 6184.88 7252.570000000001 199.94
vertex 6186.4400000000005 7239.570000000001 199.94
vertex 6330.09 7252.570000000001 199.94
endloop
endfacet
facet normal 0.5765555911749544 -0.8170579234576327 0
outer loop
vertex 6068.92 8828.95 1284.27
vertex 6068.92 8828.95 884.26
vertex 6395.74 9059.57 884.26
endloop
endfacet
facet normal 0.5765555911749544 -0.8170579234576327 0
outer loop
vertex 6068.92 8828.95 1284.27
vertex 6395.74 9059.57 884.26
vertex 6395.74 9059.57 1284.27
endloop
endfacet
facet normal 0.8535270697031482 0.5210485018536732 0
outer loop
vertex 6082.570000000001 8806.59 1284.27
vertex 6082.570000000001 8806.59 884.26
vertex 6068.92 8828.95 884.26
endloop
endfacet
facet normal 0.8535270697031482 0.5210485018536732 0
outer loop
vertex 6082.570000000001 8806.59 1284.27
vertex 6068.92 8828.95 884.26
vertex 6068.92 8828.95 1284.27
endloop
endfacet
facet normal 0.9142186532377563 0.4052212408945798 0
outer loop
vertex 6093.2300000000005 8782.54 1284.27
vertex 6093.2300000000005 8782.54 884.26
vertex 6082.570000000001 8806.59 884.26
endloop
endfacet
facet normal 0.9142186532377563 0.4052212408945798 0
outer loop
vertex 6093.2300000000005 8782.54 1284.27
vertex 6082.570000000001 8806.59 884.26
vertex 6082.570000000001 8806.59 1284.27
endloop
endfacet
facet normal 0.9580977087501059 0.2864415830283676 0
outer loop
vertex 6100.77 8757.32 1284.27
vertex 6100.77 8757.32 884.26
vertex 6093.2300000000005 8782.54 884.26
endloop
endfacet
facet normal 0.9580977087501059 0.2864415830283676 0
outer loop
vertex 6100.77 8757.32 1284.27
vertex 6093.2300000000005 8782.54 884.26
vertex 6093.2300000000005 8782.54 1284.27
endloop
endfacet
facet normal 0.9881997058915547 0.1531709544131813 0
outer loop
vertex 6104.8 8731.32 1284.27
vertex 6104.8 8731.32 884.26
vertex 6100.77 8757.32 884.26
endloop
endfacet
facet normal 0.9881997058915547 0.1531709544131813 0
outer loop
vertex 6104.8 8731.32 1284.27
vertex 6100.77 8757.32 884.26
vertex 6100.77 8757.32 1284.27
endloop
endfacet
facet normal 0.999693798181332 0.02474489599457337 0
outer loop
vertex 6105.45 8705.06 1284.27
vertex 6105.45 8705.06 884.26
vertex 6104.8 8731.32 884.26
endloop
endfacet
facet normal 0.999693798181332 0.02474489599457337 0
outer loop
vertex 6105.45 8705.06 1284.27
vertex 6104.8 8731.32 884.26
vertex 6104.8 8731.32 1284.27
endloop
endfacet
facet normal 0.9945864928494086 -0.10391202164096955 0
outer loop
vertex 6102.72 8678.93 1284.27
vertex 6102.72 8678.93 884.26
vertex 6105.45 8705.06 884.26
endloop
endfacet
facet normal 0.9945864928494086 -0.10391202164096955 0
outer loop
vertex 6102.72 8678.93 1284.27
vertex 6105.45 8705.06 884.26
vertex 6105.45 8705.06 1284.27
endloop
endfacet
facet normal 0.9715756952488489 -0.23672910341087336 0
outer loop
vertex 6096.4800000000005 8653.32 1284.27
vertex 6096.4800000000005 8653.32 884.26
vertex 6102.72 8678.93 884.26
endloop
endfacet
facet normal 0.9715756952488489 -0.23672910341087336 0
outer loop
vertex 6096.4800000000005 8653.32 1284.27
vertex 6102.72 8678.93 884.26
vertex 6102.72 8678.93 1284.27
endloop
endfacet
facet normal 0.9338567516961506 -0.3576472666070778 0
outer loop
vertex 6087.12 8628.880000000001 1284.27
vertex 6087.12 8628.880000000001 884.26
vertex 6096.4800000000005 8653.32 884.26
endloop
endfacet
facet normal 0.9338567516961506 -0.3576472666070778 0
outer loop
vertex 6087.12 8628.880000000001 1284.27
vertex 6096.4800000000005 8653.32 884.26
vertex 6096.4800000000005 8653.32 1284.27
endloop
endfacet
facet normal 0.41957335186666395 0.9077214343637439 0
outer loop
vertex 6450.21 8461.050000000001 1284.27
vertex 6450.21 8461.050000000001 884.26
vertex 6087.12 8628.880000000001 884.26
endloop
endfacet
facet normal 0.41957335186666395 0.9077214343637439 0
outer loop
vertex 6450.21 8461.050000000001 1284.27
vertex 6087.12 8628.880000000001 884.26
vertex 6087.12 8628.880000000001 1284.27
endloop
endfacet
facet normal -0.9333029503255666 0.35908996493022877 0
outer loop
vertex 6478.42 8534.37 1284.27
vertex 6478.42 8534.37 884.26
vertex 6450.21 8461.050000000001 884.26
endloop
endfacet
facet normal -0.9333029503255666 0.35908996493022877 0
outer loop
vertex 6478.42 8534.37 1284.27
vertex 6450.21 8461.050000000001 884.26
vertex 6450.21 8461.050000000001 1284.27
endloop
endfacet
facet normal -0.9720561978896364 0.2347482654767534 0
outer loop
vertex 6496.88 8610.81 1284.27
vertex 6496.88 8610.81 884.26
vertex 6478.42 8534.37 884.26
endloop
endfacet
facet normal -0.9720561978896364 0.2347482654767534 0
outer loop
vertex 6496.88 8610.81 1284.27
vertex 6478.42 8534.37 884.26
vertex 6478.42 8534.37 1284.27
endloop
endfacet
facet normal -0.9943777984382384 0.10589048103168752 0
outer loop
vertex 6505.2 8688.94 1284.27
vertex 6505.2 8688.94 884.26
vertex 6496.88 8610.81 884.26
endloop
endfacet
facet normal -0.9943777984382384 0.10589048103168752 0
outer loop
vertex 6505.2 8688.94 1284.27
vertex 6496.88 8610.81 884.26
vertex 6496.88 8610.81 1284.27
endloop
endfacet
facet normal -0.9996504804421698 -0.02643703749929625 0
outer loop
vertex 6503.12 8767.59 1284.27
vertex 6503.12 8767.59 884.26
vertex 6505.2 8688.94 884.26
endloop
endfacet
facet normal -0.9996504804421698 -0.02643703749929625 0
outer loop
vertex 6503.12 8767.59 1284.27
vertex 6505.2 8688.94 884.26
vertex 6505.2 8688.94 1284.27
endloop
endfacet
facet normal -0.9878299546352785 -0.15553771480018508 0
outer loop
vertex 6490.900000000001 8845.2 1284.27
vertex 6490.900000000001 8845.2 884.26
vertex 6503.12 8767.59 884.26
endloop
endfacet
facet normal -0.9878299546352785 -0.15553771480018508 0
outer loop
vertex 6490.900000000001 8845.2 1284.27
vertex 6503.12 8767.59 884.26
vertex 6503.12 8767.59 1284.27
endloop
endfacet
facet normal -0.9591809605121343 -0.28279300732341245 0
outer loop
vertex 6468.67 8920.6 1284.27
vertex 6468.67 8920.6 884.26
vertex 6490.900000000001 8845.2 884.26
endloop
endfacet
facet normal -0.9591809605121343 -0.28279300732341245 0
outer loop
vertex 6468.67 8920.6 1284.27
vertex 6490.900000000001 8845.2 884.26
vertex 6490.900000000001 8845.2 1284.27
endloop
endfacet
facet normal -0.9142881658724942 -0.40506437728527855 0
outer loop
vertex 6436.820000000001 8992.49 1284.27
vertex 6436.820000000001 8992.49 884.26
vertex 6468.67 8920.6 884.26
endloop
endfacet
facet normal -0.9142881658724942 -0.40506437728527855 0
outer loop
vertex 6436.820000000001 8992.49 1284.27
vertex 6468.67 8920.6 884.26
vertex 6468.67 8920.6 1284.27
endloop
endfacet
facet normal -0.8527912185945689 -0.5222519865811812 0
outer loop
vertex 6395.74 9059.57 1284.27
vertex 6395.74 9059.57 884.26
vertex 6436.820000000001 8992.49 884.26
endloop
endfacet
facet normal -0.8527912185945689 -0.5222519865811812 0
outer loop
vertex 6395.74 9059.57 1284.27
vertex 6436.820000000001 8992.49 884.26
vertex 6436.820000000001 8992.49 1284.27
endloop
endfacet
facet normal 0 0 -1
outer loop
vertex 6348.68 8894.34 1284.27
vertex 6436.820000000001 8992.49 1284.27
vertex 6468.67 8920.6 1284.27
endloop
endfacet
facet normal 0 0 -1
outer loop
vertex 6348.68 8894.34 1284.27
vertex 6468.67 8920.6 1284.27
vertex 6490.900000000001 8845.2 1284.27
endloop
endfacet
facet normal 0 0 -0.9999999999999999
outer loop
vertex 6348.68 8894.34 1284.27
vertex 6490.900000000001 8845.2 1284.27
vertex 6497.01 8806.59 1284.27
endloop
endfacet
facet normal 0 0 -1
outer loop
vertex 6348.68 8894.34 1284.27
vertex 6497.01 8806.59 1284.27
vertex 6082.570000000001 8806.59 1284.27
endloop
endfacet
facet normal 0 0 -1
outer loop
vertex 6348.68 8894.34 1284.27
vertex 6082.570000000001 8806.59 1284.27
vertex 6068.92 8828.95 1284.27
endloop
endfacet
facet normal 0 0 -1
outer loop
vertex 6348.68 8894.34 1284.27
vertex 6068.92 8828.95 1284.27
vertex 6395.74 9059.57 1284.27
endloop
endfacet
facet normal 0 0 -1
outer loop
vertex 6348.68 8894.34 1284.27
vertex 6395.74 9059.57 1284.27
vertex 6436.820000000001 8992.49 1284.27
endloop
endfacet
facet normal 0 0 -0.9999999999999999
outer loop
vertex 6497.01 8806.59 1284.27
vertex 6500.780000000001 8782.54 1284.27
vertex 6093.2300000000005 8782.54 1284.27
endloop
endfacet
facet normal 0 0 -1
outer loop
vertex 6497.01 8806.59 1284.27
vertex 6093.2300000000005 8782.54 1284.27
vertex 6082.570000000001 8806.59 1284.27
endloop
endfacet
facet normal 0 0 -1
outer loop
vertex 6340.2300000000005 8769.41 1284.27
vertex 6500.780000000001 8782.54 1284.27
vertex 6503.12 8767.59 1284.27
endloop
endfacet
facet normal 0 0 -1
outer loop
vertex 6340.2300000000005 8769.41 1284.27
vertex 6503.12 8767.59 1284.27
vertex 6503.38 8757.32 1284.27
endloop
endfacet
facet normal 0 0 -1
outer loop
vertex 6340.2300000000005 8769.41 1284.27
vertex 6503.38 8757.32 1284.27
vertex 6100.77 8757.32 1284.27
endloop
endfacet
facet normal 0 0 -0.9999999999999999
outer loop
vertex 6340.2300000000005 8769.41 1284.27
vertex 6100.77 8757.32 1284.27
vertex 6093.2300000000005 8782.54 1284.27
endloop
endfacet
facet normal 0 0 -1
outer loop
vertex 6340.2300000000005 8769.41 1284.27
vertex 6093.2300000000005 8782.54 1284.27
vertex 6500.780000000001 8782.54 1284.27
endloop
endfacet
facet normal 0 0 -1
outer loop
vertex 6503.38 8757.32 1284.27
vertex 6504.030000000001 8731.32 1284.27
vertex 6104.8 8731.32 1284.27
endloop
endfacet
facet normal 0 0 -1
outer loop
vertex 6503.38 8757.32 1284.27
vertex 6104.8 8731.32 1284.27
vertex 6100.77 8757.32 1284.27
endloop
endfacet
facet normal 0 0 -1
outer loop
vertex 6504.030000000001 8731.32 1284.27
vertex 6504.81 8705.06 1284.27
vertex 6105.45 8705.06 1284.27
endloop
endfacet
facet normal 0 0 -0.9999999999999999
outer loop
vertex 6504.030000000001 8731.32 1284.27
vertex 6105.45 8705.06 1284.27
vertex 6104.8 8731.32 1284.27
endloop
endfacet
facet normal 0 0 -1
outer loop
vertex 6344.39 8691.41 1284.27
vertex 6504.81 8705.06 1284.27
vertex 6505.2 8688.94 1284.27
endloop
endfacet
facet normal 0 0 -1
outer loop
vertex 6344.39 8691.41 1284.27
vertex 6505.2 8688.94 1284.27
vertex 6504.030000000001 8678.93 1284.27
endloop
endfacet
facet normal 0 0 -1
outer loop
vertex 6344.39 8691.41 1284.27
vertex 6504.030000000001 8678.93 1284.27
vertex 6102.72 8678.93 1284.27
endloop
endfacet
facet normal 0 0 -1
outer loop
vertex 6344.39 8691.41 1284.27
vertex 6102.72 8678.93 1284.27
vertex 6105.45 8705.06 1284.27
endloop
endfacet
facet normal 0 0 -1
outer loop
vertex 6344.39 8691.41 1284.27
vertex 6105.45 8705.06 1284.27
vertex 6504.81 8705.06 1284.27
endloop
endfacet
facet normal 0 0 -1
outer loop
vertex 6504.030000000001 8678.93 1284.27
vertex 6501.43 8653.32 1284.27
vertex 6096.4800000000005 8653.32 1284.27
endloop
endfacet
facet normal 0 0 -1
outer loop
vertex 6504.030000000001 8678.93 1284.27
vertex 6096.4800000000005 8653.32 1284.27
vertex 6102.72 8678.93 1284.27
endloop
endfacet
facet normal 0 0 -1
outer loop
vertex 6351.8 8590.27 1284.27
vertex 6501.43 8653.32 1284.27
vertex 6496.88 8610.81 1284.27
endloop
endfacet
facet normal 0 0 -1
outer loop
vertex 6351.8 8590.27 1284.27
vertex 6496.88 8610.81 1284.27
vertex 6478.42 8534.37 1284.27
endloop
endfacet
facet normal 0 0 -1
outer loop
vertex 6351.8 8590.27 1284.27
vertex 6478.42 8534.37 1284.27
vertex 6450.21 8461.050000000001 1284.27
endloop
endfacet
facet normal 0 0 -1
outer loop
vertex 6351.8 8590.27 1284.27
vertex 6450.21 8461.050000000001 1284.27
vertex 6087.12 8628.880000000001 1284.27
endloop
endfacet
facet normal 0 0 -0.9999999999999999
outer loop
vertex 6351.8 8590.27 1284.27
vertex 6087.12 8628.880000000001 1284.27
vertex 6096.4800000000005 8653.32 1284.27
endloop
endfacet
facet normal 0 0 -1
outer loop
vertex 6351.8 8590.27 1284.27
vertex 6096.4800000000005 8653.32 1284.27
vertex 6501.43 8653.32 1284.27
endloop
endfacet
facet normal 0 0 1
outer loop
vertex 6348.68 8894.34 884.26
vertex 6068.92 8828.95 884.26
vertex 6082.570000000001 8806.59 884.26
endloop
endfacet
facet normal 0 0 1
outer loop
vertex 6348.68 8894.34 884.26
vertex 6082.570000000001 8806.59 884.26
vertex 6497.01 8806.59 884.26
endloop
endfacet
facet normal 0 0 0.9999999999999999
outer loop
vertex 6348.68 8894.34 884.26
vertex 6497.01 8806.59 884.26
vertex 6490.900000000001 8845.2 884.26
endloop
endfacet
facet normal 0 0 1
outer loop
vertex 6348.68 8894.34 884.26
vertex 6490.900000000001 8845.2 884.26
vertex 6468.67 8920.6 884.26
endloop
endfacet
facet normal 0 0 1
outer loop
vertex 6348.68 8894.34 884.26
vertex 6468.67 8920.6 884.26
vertex 6436.820000000001 8992.49 884.26
endloop
endfacet
facet normal 0 0 1
outer loop
vertex 6348.68 8894.34 884.26
vertex 6436.820000000001 8992.49 884.26
vertex 6395.74 9059.57 884.26
endloop
endfacet
facet normal 0 0 1
outer loop
vertex 6348.68 8894.34 884.26
vertex 6395.74 9059.57 884.26
vertex 6068.92 8828.95 884.26
endloop
endfacet
facet normal 0 0 1
outer loop
vertex 6082.570000000001 8806.59 884.26
vertex 6093.2300000000005 8782.54 884.26
vertex 6500.780000000001 8782.54 884.26
endloop
endfacet
facet normal 0 0 1
outer loop
vertex 6082.570000000001 8806.59 884.26
vertex 6500.780000000001 8782.54 884.26
vertex 6497.01 8806.59 884.26
endloop
endfacet
facet normal 0 0 0.9999999999999999
outer loop
vertex 6340.2300000000005 8769.41 884.26
vertex 6093.2300000000005 8782.54 884.26
vertex 6100.77 8757.32 884.26
endloop
endfacet
facet normal 0 0 1
outer loop
vertex 6340.2300000000005 8769.41 884.26
vertex 6100.77 8757.32 884.26
vertex 6503.38 8757.32 884.26
endloop
endfacet
facet normal 0 0 1
outer loop
vertex 6340.2300000000005 8769.41 884.26
vertex 6503.38 8757.32 884.26
vertex 6503.12 8767.59 884.26
endloop
endfacet
facet normal 0 0 1
outer loop
vertex 6340.2300000000005 8769.41 884.26
vertex 6503.12 8767.59 884.26
vertex 6500.780000000001 8782.54 884.26
endloop
endfacet
facet normal 0 0 1
outer loop
vertex 6340.2300000000005 8769.41 884.26
vertex 6500.780000000001 8782.54 884.26
vertex 6093.2300000000005 8782.54 884.26
endloop
endfacet
facet normal 0 0 1
outer loop
vertex 6100.77 8757.32 884.26
vertex 6104.8 8731.32 884.26
vertex 6504.030000000001 8731.32 884.26
endloop
endfacet
facet normal 0 0 1
outer loop
vertex 6100.77 8757.32 884.26
vertex 6504.030000000001 8731.32 884.26
vertex 6503.38 8757.32 884.26
endloop
endfacet
facet normal 0 0 1
outer loop
vertex 6104.8 8731.32 884.26
vertex 6105.45 8705.06 884.26
vertex 6504.81 8705.06 884.26
endloop
endfacet
facet normal 0 0 0.9999999999999999
outer loop
vertex 6104.8 8731.32 884.26
vertex 6504.81 8705.06 884.26
vertex 6504.030000000001 8731.32 884.26
endloop
endfacet
facet normal 0 0 1
outer loop
vertex 6344.39 8691.41 884.26
vertex 6105.45 8705.06 884.26
vertex 6102.72 8678.93 884.26
endloop
endfacet
facet normal 0 0 1
outer loop
vertex 6344.39 8691.41 884.26
vertex 6102.72 8678.93 884.26
vertex 6504.030000000001 8678.93 884.26
endloop
endfacet
facet normal 0 0 1
outer loop
vertex 6344.39 8691.41 884.26
vertex 6504.030000000001 8678.93 884.26
vertex 6505.2 8688.94 884.26
endloop
endfacet
facet normal 0 0 1
outer loop
vertex 6344.39 8691.41 884.26
vertex 6505.2 8688.94 884.26
vertex 6504.81 8705.06 884.26
endloop
endfacet
facet normal 0 0 1
outer loop
vertex 6344.39 8691.41 884.26
vertex 6504.81 8705.06 884.26
vertex 6105.45 8705.06 884.26
endloop
endfacet
facet normal 0 0 1
outer loop
vertex 6102.72 8678.93 884.26
vertex 6096.4800000000005 8653.32 884.26
vertex 6501.43 8653.32 884.26
endloop
endfacet
facet normal 0 0 1
outer loop
vertex 6102.72 8678.93 884.26
vertex 6501.43 8653.32 884.26
vertex 6504.030000000001 8678.93 884.26
endloop
endfacet
facet normal 0 0 0.9999999999999999
outer loop
vertex 6351.8 8590.27 884.26
vertex 6096.4800000000005 8653.32 884.26
vertex 6087.12 8628.880000000001 884.26
endloop
endfacet
facet normal 0 0 1
outer loop
vertex 6351.8 8590.27 884.26
vertex 6087.12 8628.880000000001 884.26
vertex 6450.21 8461.050000000001 884.26
endloop
endfacet
facet normal 0 0 1
outer loop
vertex 6351.8 8590.27 884.26
vertex 6450.21 8461.050000000001 884.26
vertex 6478.42 8534.37 884.26
endloop
endfacet
facet normal 0 0 1
outer loop
vertex 6351.8 8590.27 884.26
vertex 6478.42 8534.37 884.26
vertex 6496.88 8610.81 884.26
endloop
endfacet
facet normal 0 0 1
outer loop
vertex 6351.8 8590.27 884.26
vertex 6496.88 8610.81 884.26
vertex 6501.43 8653.32 884.26
endloop
endfacet
facet normal 0 0 1
outer loop
vertex 6351.8 8590.27 884.26
vertex 6501.43 8653.32 884.26
vertex 6096.4800000000005 8653.32 884.26
endloop
endfacet
facet normal -0.09033066506849625 0.995911828902681 0
outer loop
vertex 6584.89 7275.71 599.95
vertex 6584.89 7275.71 199.94
vertex 6186.4400000000005 7239.570000000001 199.94
endloop
endfacet
facet normal -0.09033066506849625 0.995911828902681 0
outer loop
vertex 6584.89 7275.71 599.95
vertex 6186.4400000000005 7239.570000000001 199.94
vertex 6186.4400000000005 7239.570000000001 599.95
endloop
endfacet
facet normal -0.9920730390176086 -0.1256625849422434 0
outer loop
vertex 6579.95 7314.71 599.95
vertex 6579.95 7314.71 199.94
vertex 6584.89 7275.71 199.94
endloop
endfacet
facet normal -0.9920730390176086 -0.1256625849422434 0
outer loop
vertex 6579.95 7314.71 599.95
vertex 6584.89 7275.71 199.94
vertex 6584.89 7275.71 599.95
endloop
endfacet
facet normal -0.9827974350529969 -0.18468676631867856 0
outer loop
vertex 6572.67 7353.45 599.95
vertex 6572.67 7353.45 199.94
vertex 6579.95 7314.71 199.94
endloop
endfacet
facet normal -0.9827974350529969 -0.18468676631867856 0
outer loop
vertex 6572.67 7353.45 599.95
vertex 6579.95 7314.71 199.94
vertex 6579.95 7314.71 599.95
endloop
endfacet
facet normal -0.9677579037554764 -0.2518821941281403 0
outer loop
vertex 6562.79 7391.41 599.95
vertex 6562.79 7391.41 199.94
vertex 6572.67 7353.45 199.94
endloop
endfacet
facet normal -0.9677579037554764 -0.2518821941281403 0
outer loop
vertex 6562.79 7391.41 599.95
vertex 6572.67 7353.45 199.94
vertex 6572.67 7353.45 599.95
endloop
endfacet
facet normal -0.9486832980505184 -0.3162277660168241 0
outer loop
vertex 6550.31 7428.85 599.95
vertex 6550.31 7428.85 199.94
vertex 6562.79 7391.41 199.94
endloop
endfacet
facet normal -0.9486832980505184 -0.3162277660168241 0
outer loop
vertex 6550.31 7428.85 599.95
vertex 6562.79 7391.41 199.94
vertex 6562.79 7391.41 599.95
endloop
endfacet
facet normal -0.9273302688141288 -0.37424400134286157 0
outer loop
vertex 6535.62 7465.25 599.95
vertex 6535.62 7465.25 199.94
vertex 6550.31 7428.85 199.94
endloop
endfacet
facet normal -0.9273302688141288 -0.37424400134286157 0
outer loop
vertex 6535.62 7465.25 599.95
vertex 6550.31 7428.85 199.94
vertex 6550.31 7428.85 599.95
endloop
endfacet
facet normal -0.899656662830314 -0.4365980863735238 0
outer loop
vertex 6518.46 7500.610000000001 599.95
vertex 6518.46 7500.610000000001 199.94
vertex 6535.62 7465.25 199.94
endloop
endfacet
facet normal -0.899656662830314 -0.4365980863735238 0
outer loop
vertex 6518.46 7500.610000000001 599.95
vertex 6535.62 7465.25 199.94
vertex 6535.62 7465.25 599.95
endloop
endfacet
facet normal -0.8700694822924393 -0.4929290983329819 0
outer loop
vertex 6499.09 7534.8 599.95
vertex 6499.09 7534.8 199.94
vertex 6518.46 7500.610000000001 199.94
endloop
endfacet
facet normal -0.8700694822924393 -0.4929290983329819 0
outer loop
vertex 6499.09 7534.8 599.95
vertex 6518.46 7500.610000000001 199.94
vertex 6518.46 7500.610000000001 599.95
endloop
endfacet
facet normal -0.8360952791971841 -0.548584254334904 0
outer loop
vertex 6477.51 7567.6900000000005 599.95
vertex 6477.51 7567.6900000000005 199.94
vertex 6499.09 7534.8 199.94
endloop
endfacet
facet normal -0.8360952791971841 -0.548584254334904 0
outer loop
vertex 6477.51 7567.6900000000005 599.95
vertex 6499.09 7534.8 199.94
vertex 6499.09 7534.8 599.95
endloop
endfacet
facet normal 0.5761854919552014 -0.8173189578495917 0
outer loop
vertex 6150.56 7337.2 599.95
vertex 6150.56 7337.2 199.94
vertex 6477.51 7567.6900000000005 199.94
endloop
endfacet
facet normal 0.5761854919552014 -0.8173189578495917 0
outer loop
vertex 6150.56 7337.2 599.95
vertex 6477.51 7567.6900000000005 199.94
vertex 6477.51 7567.6900000000005 599.95
endloop
endfacet
facet normal 0.8350607839462009 0.5501576929528081 0
outer loop
vertex 6157.84 7326.150000000001 599.95
vertex 6157.84 7326.150000000001 199.94
vertex 6150.56 7337.2 199.94
endloop
endfacet
facet normal 0.8350607839462009 0.5501576929528081 0
outer loop
vertex 6157.84 7326.150000000001 599.95
vertex 6150.56 7337.2 199.94
vertex 6150.56 7337.2 599.95
endloop
endfacet
facet normal 0.8694565573927775 0.49400940760951073 0
outer loop
vertex 6164.34 7314.71 599.95
vertex 6164.34 7314.71 199.94
vertex 6157.84 7326.150000000001 199.94
endloop
endfacet
facet normal 0.8694565573927775 0.49400940760951073 0
outer loop
vertex 6164.34 7314.71 599.95
vertex 6157.84 7326.150000000001 199.94
vertex 6157.84 7326.150000000001 599.95
endloop
endfacet
facet normal 0.9002843394976847 0.4353023179989025 0
outer loop
vertex 6170.06 7302.88 599.95
vertex 6170.06 7302.88 199.94
vertex 6164.34 7314.71 199.94
endloop
endfacet
facet normal 0.9002843394976847 0.4353023179989025 0
outer loop
vertex 6170.06 7302.88 599.95
vertex 6164.34 7314.71 199.94
vertex 6164.34 7314.71 599.95
endloop
endfacet
facet normal 0.9271100657041675 0.37478917549739127 0
outer loop
vertex 6175 7290.66 599.95
vertex 6175 7290.66 199.94
vertex 6170.06 7302.88 199.94
endloop
endfacet
facet normal 0.9271100657041675 0.37478917549739127 0
outer loop
vertex 6175 7290.66 599.95
vertex 6170.06 7302.88 199.94
vertex 6170.06 7302.88 599.95
endloop
endfacet
facet normal 0.9516151461907436 0.3072923909574883 0
outer loop
vertex 6179.030000000001 7278.18 599.95
vertex 6179.030000000001 7278.18 199.94
vertex 6175 7290.66 199.94
endloop
endfacet
facet normal 0.9516151461907436 0.3072923909574883 0
outer loop
vertex 6179.030000000001 7278.18 599.95
vertex 6175 7290.66 199.94
vertex 6175 7290.66 599.95
endloop
endfacet
facet normal 0.9665615578617917 0.25643469902450067 0
outer loop
vertex 6182.41 7265.4400000000005 599.95
vertex 6182.41 7265.4400000000005 199.94
vertex 6179.030000000001 7278.18 199.94
endloop
endfacet
facet normal 0.9665615578617917 0.25643469902450067 0
outer loop
vertex 6182.41 7265.4400000000005 599.95
vertex 6179.030000000001 7278.18 199.94
vertex 6179.030000000001 7278.18 599.95
endloop
endfacet
facet normal 0.9820771339102707 0.18847944994239624 0
outer loop
vertex 6184.88 7252.570000000001 599.95
vertex 6184.88 7252.570000000001 199.94
vertex 6182.41 7265.4400000000005 199.94
endloop
endfacet
facet normal 0.9820771339102707 0.18847944994239624 0
outer loop
vertex 6184.88 7252.570000000001 599.95
vertex 6182.41 7265.4400000000005 199.94
vertex 6182.41 7265.4400000000005 599.95
endloop
endfacet
facet normal 0.9928768384869184 0.11914522061846076 0
outer loop
vertex 6186.4400000000005 7239.570000000001 599.95
vertex 6186.4400000000005 7239.570000000001 199.94
vertex 6184.88 7252.570000000001 199.94
endloop
endfacet
facet normal 0.9928768384869184 0.11914522061846076 0
outer loop
vertex 6186.4400000000005 7239.570000000001 599.95
vertex 6184.88 7252.570000000001 199.94
vertex 6184.88 7252.570000000001 599.95
endloop
endfacet
endsolid JSCAD
