solid JSCAD
facet normal -1 0 0
outer loop
vertex 0 0 0
vertex 0 0 3999.9700000000003
vertex 0 15000.050000000001 3999.9700000000003
endloop
endfacet
facet normal -1 0 0
outer loop
vertex 0 0 0
vertex 0 15000.050000000001 3999.9700000000003
vertex 0 15000.050000000001 0
endloop
endfacet
facet normal 1 0 0
outer loop
vertex 19999.98 0 0
vertex 19999.98 15000.050000000001 0
vertex 19999.98 15000.050000000001 3999.9700000000003
endloop
endfacet
facet normal 1 0 0
outer loop
vertex 19999.98 0 0
vertex 19999.98 15000.050000000001 3999.9700000000003
vertex 19999.98 0 3999.9700000000003
endloop
endfacet
facet normal 0 -1 0
outer loop
vertex 0 0 0
vertex 19999.98 0 0
vertex 19999.98 0 3999.9700000000003
endloop
endfacet
facet normal 0 -1 0
outer loop
vertex 0 0 0
vertex 19999.98 0 3999.9700000000003
vertex 0 0 3999.9700000000003
endloop
endfacet
facet normal 0 1 0
outer loop
vertex 0 15000.050000000001 0
vertex 0 15000.050000000001 3999.9700000000003
vertex 19999.98 15000.050000000001 3999.9700000000003
endloop
endfacet
facet normal 0 1 0
outer loop
vertex 0 15000.050000000001 0
vertex 19999.98 15000.050000000001 3999.9700000000003
vertex 19999.98 15000.050000000001 0
endloop
endfacet
facet normal 0 0 -1
outer loop
vertex 0 0 0
vertex 0 15000.050000000001 0
vertex 19999.98 15000.050000000001 0
endloop
endfacet
facet normal 0 0 -1
outer loop
vertex 0 0 0
vertex 19999.98 15000.050000000001 0
vertex 19999.98 0 0
endloop
endfacet
facet normal 0 0 1
outer loop
vertex 0 0 3999.9700000000003
vertex 19999.98 0 3999.9700000000003
vertex 19999.98 15000.050000000001 3999.9700000000003
endloop
endfacet
facet normal 0 0 1
outer loop
vertex 0 0 3999.9700000000003
vertex 19999.98 15000.050000000001 3999.9700000000003
vertex 0 15000.050000000001 3999.9700000000003
endloop
endfacet
facet normal -1 0 0
outer loop
vertex 9999.99 7700.030000000001 599.95
vertex 9999.99 7700.030000000001 199.94
vertex 9999.99 7300.02 199.94
endloop
endfacet
facet normal -1 0 0
outer loop
vertex 9999.99 7700.030000000001 599.95
vertex 9999.99 7300.02 199.94
vertex 9999.99 7300.02 599.95
endloop
endfacet
facet normal -1 0 0
outer loop
vertex 9999.99 10200.06 599.95
vertex 9999.99 10200.06 199.94
vertex 9999.99 9800.050000000001 199.94
endloop
endfacet
facet normal -1 0 0
outer loop
vertex 9999.99 10200.06 599.95
vertex 9999.99 9800.050000000001 199.94
vertex 9999.99 9800.050000000001 599.95
endloop
endfacet
facet normal 0 -1 0
outer loop
vertex 7899.97 10200.06 599.95
vertex 7899.97 10200.06 199.94
vertex 9999.99 10200.06 199.94
endloop
endfacet
facet normal 0 -1 0
outer loop
vertex 7899.97 10200.06 599.95
vertex 9999.99 10200.06 199.94
vertex 9999.99 10200.06 599.95
endloop
endfacet
facet normal 0 -1 0
outer loop
vertex 4499.95 10200.06 599.95
vertex 4499.95 10200.06 199.94
vertex 6500 10200.06 199.94
endloop
endfacet
facet normal 0 -1 0
outer loop
vertex 4499.95 10200.06 599.95
vertex 6500 10200.06 199.94
vertex 6500 10200.06 599.95
endloop
endfacet
facet normal 0 0.9999999999999999 0
outer loop
vertex 6300.06 9800.050000000001 599.95
vertex 6300.06 9800.050000000001 199.94
vertex 4499.95 9800.050000000001 199.94
endloop
endfacet
facet normal 0 0.9999999999999999 0
outer loop
vertex 6300.06 9800.050000000001 599.95
vertex 4499.95 9800.050000000001 199.94
vertex 4499.95 9800.050000000001 599.95
endloop
endfacet
facet normal 0 1 0
outer loop
vertex 9999.99 9800.050000000001 599.95
vertex 9999.99 9800.050000000001 199.94
vertex 7899.97 9800.050000000001 199.94
endloop
endfacet
facet normal 0 1 0
outer loop
vertex 9999.99 9800.050000000001 599.95
vertex 7899.97 9800.050000000001 199.94
vertex 7899.97 9800.050000000001 599.95
endloop
endfacet
facet normal 0 0 1
outer loop
vertex 8007.22 10019.36 199.94
vertex 7899.97 10200.06 199.94
vertex 7806.110000000001 10192.65 199.94
endloop
endfacet
facet normal 0 0 1
outer loop
vertex 8007.22 10019.36 199.94
vertex 7806.110000000001 10192.65 199.94
vertex 7714.59 10170.68 199.94
endloop
endfacet
facet normal 0 0 0.9999999999999999
outer loop
vertex 8007.22 10019.36 199.94
vertex 7714.59 10170.68 199.94
vertex 7627.62 10134.54 199.94
endloop
endfacet
facet normal 0 0 1
outer loop
vertex 8007.22 10019.36 199.94
vertex 7627.62 10134.54 199.94
vertex 7547.280000000001 10085.4 199.94
endloop
endfacet
facet normal 0 0 1
outer loop
vertex 8007.22 10019.36 199.94
vertex 7547.280000000001 10085.4 199.94
vertex 7475.780000000001 10024.300000000001 199.94
endloop
endfacet
facet normal 0 0 1
outer loop
vertex 8007.22 10019.36 199.94
vertex 7475.780000000001 10024.300000000001 199.94
vertex 7414.55 9952.67 199.94
endloop
endfacet
facet normal 0 0 1
outer loop
vertex 8007.22 10019.36 199.94
vertex 7414.55 9952.67 199.94
vertex 7365.41 9872.33 199.94
endloop
endfacet
facet normal 0 0 1
outer loop
vertex 8007.22 10019.36 199.94
vertex 7365.41 9872.33 199.94
vertex 7335.38 9800.050000000001 199.94
endloop
endfacet
facet normal 0 0 1
outer loop
vertex 8007.22 10019.36 199.94
vertex 7335.38 9800.050000000001 199.94
vertex 7899.97 9800.050000000001 199.94
endloop
endfacet
facet normal 0 0 1
outer loop
vertex 8007.22 10019.36 199.94
vertex 7899.97 9800.050000000001 199.94
vertex 9999.99 9800.050000000001 199.94
endloop
endfacet
facet normal 0 0 1
outer loop
vertex 8007.22 10019.36 199.94
vertex 9999.99 9800.050000000001 199.94
vertex 9999.99 10200.06 199.94
endloop
endfacet
facet normal 0 0 1
outer loop
vertex 8007.22 10019.36 199.94
vertex 9999.99 10200.06 199.94
vertex 7899.97 10200.06 199.94
endloop
endfacet
facet normal 0 0 1
outer loop
vertex 6278.09 10054.98 199.94
vertex 4499.95 10200.06 199.94
vertex 4499.95 9800.050000000001 199.94
endloop
endfacet
facet normal 0 0 1
outer loop
vertex 6278.09 10054.98 199.94
vertex 4499.95 9800.050000000001 199.94
vertex 6300.06 9800.050000000001 199.94
endloop
endfacet
facet normal 0 0 1
outer loop
vertex 6278.09 10054.98 199.94
vertex 6300.06 9800.050000000001 199.94
vertex 6699.9400000000005 9800.050000000001 199.94
endloop
endfacet
facet normal 0 0 1
outer loop
vertex 6278.09 10054.98 199.94
vertex 6699.9400000000005 9800.050000000001 199.94
vertex 6699.9400000000005 9999.99 199.94
endloop
endfacet
facet normal 0 0 1
outer loop
vertex 6278.09 10054.98 199.94
vertex 6699.9400000000005 9999.99 199.94
vertex 6696.17 10038.99 199.94
endloop
endfacet
facet normal 0 0 0.9999999999999999
outer loop
vertex 6278.09 10054.98 199.94
vertex 6696.17 10038.99 199.94
vertex 6684.7300000000005 10076.56 199.94
endloop
endfacet
facet normal 0 0 0.9999999999999999
outer loop
vertex 6278.09 10054.98 199.94
vertex 6684.7300000000005 10076.56 199.94
vertex 6666.27 10111.140000000001 199.94
endloop
endfacet
facet normal 0 0 0.9999999999999999
outer loop
vertex 6278.09 10054.98 199.94
vertex 6666.27 10111.140000000001 199.94
vertex 6641.4400000000005 10141.43 199.94
endloop
endfacet
facet normal 0 0 1
outer loop
vertex 6278.09 10054.98 199.94
vertex 6641.4400000000005 10141.43 199.94
vertex 6611.150000000001 10166.26 199.94
endloop
endfacet
facet normal 0 0 1
outer loop
vertex 6278.09 10054.98 199.94
vertex 6611.150000000001 10166.26 199.94
vertex 6576.570000000001 10184.720000000001 199.94
endloop
endfacet
facet normal 0 0 1
outer loop
vertex 6278.09 10054.98 199.94
vertex 6576.570000000001 10184.720000000001 199.94
vertex 6539 10196.16 199.94
endloop
endfacet
facet normal 0 0 1
outer loop
vertex 6278.09 10054.98 199.94
vertex 6539 10196.16 199.94
vertex 6500 10200.06 199.94
endloop
endfacet
facet normal 0 0 1
outer loop
vertex 6278.09 10054.98 199.94
vertex 6500 10200.06 199.94
vertex 4499.95 10200.06 199.94
endloop
endfacet
facet normal 0 0 1
outer loop
vertex 7335.38 9800.050000000001 199.94
vertex 7334.34 9797.58 199.94
vertex 7868.77 9797.58 199.94
endloop
endfacet
facet normal 0 0 1
outer loop
vertex 7335.38 9800.050000000001 199.94
vertex 7868.77 9797.58 199.94
vertex 7899.97 9800.050000000001 199.94
endloop
endfacet
facet normal 0 0 1
outer loop
vertex 7334.34 9797.58 199.94
vertex 7331.35 9790.17 199.94
vertex 7838.22 9790.17 199.94
endloop
endfacet
facet normal 0 0 1
outer loop
vertex 7334.34 9797.58 199.94
vertex 7838.22 9790.17 199.94
vertex 7868.77 9797.58 199.94
endloop
endfacet
facet normal 0 0 0.9999999999999999
outer loop
vertex 7527.13 9784.45 199.94
vertex 7331.35 9790.17 199.94
vertex 7329.400000000001 9785.36 199.94
endloop
endfacet
facet normal 0 0 1
outer loop
vertex 7527.13 9784.45 199.94
vertex 7329.400000000001 9785.36 199.94
vertex 7327.58 9778.210000000001 199.94
endloop
endfacet
facet normal 0 0 1
outer loop
vertex 7527.13 9784.45 199.94
vertex 7327.58 9778.210000000001 199.94
vertex 7809.2300000000005 9778.210000000001 199.94
endloop
endfacet
facet normal 0 0 1
outer loop
vertex 7527.13 9784.45 199.94
vertex 7809.2300000000005 9778.210000000001 199.94
vertex 7838.22 9790.17 199.94
endloop
endfacet
facet normal 0 0 1
outer loop
vertex 7527.13 9784.45 199.94
vertex 7838.22 9790.17 199.94
vertex 7331.35 9790.17 199.94
endloop
endfacet
facet normal 0 0 1
outer loop
vertex 7327.58 9778.210000000001 199.94
vertex 7323.68 9761.83 199.94
vertex 7782.45 9761.83 199.94
endloop
endfacet
facet normal 0 0 1
outer loop
vertex 7327.58 9778.210000000001 199.94
vertex 7782.45 9761.83 199.94
vertex 7809.2300000000005 9778.210000000001 199.94
endloop
endfacet
facet normal 0 0 1
outer loop
vertex 7323.68 9761.83 199.94
vertex 7318.87 9741.42 199.94
vertex 7758.530000000001 9741.42 199.94
endloop
endfacet
facet normal 0 0 0.9999999999999999
outer loop
vertex 7323.68 9761.83 199.94
vertex 7758.530000000001 9741.42 199.94
vertex 7782.45 9761.83 199.94
endloop
endfacet
facet normal 0 0 1
outer loop
vertex 7318.87 9741.42 199.94
vertex 7313.02 9717.5 199.94
vertex 7738.25 9717.5 199.94
endloop
endfacet
facet normal 0 0 1
outer loop
vertex 7318.87 9741.42 199.94
vertex 7738.25 9717.5 199.94
vertex 7758.530000000001 9741.42 199.94
endloop
endfacet
facet normal 0 0 1
outer loop
vertex 7477.47 9702.16 199.94
vertex 7313.02 9717.5 199.94
vertex 7307.43 9693.84 199.94
endloop
endfacet
facet normal 0 0 1
outer loop
vertex 7477.47 9702.16 199.94
vertex 7307.43 9693.84 199.94
vertex 7307.17 9690.85 199.94
endloop
endfacet
facet normal 0 0 1
outer loop
vertex 7477.47 9702.16 199.94
vertex 7307.17 9690.85 199.94
vertex 7721.740000000001 9690.85 199.94
endloop
endfacet
facet normal 0 0 1
outer loop
vertex 7477.47 9702.16 199.94
vertex 7721.740000000001 9690.85 199.94
vertex 7738.25 9717.5 199.94
endloop
endfacet
facet normal 0 0 1
outer loop
vertex 7477.47 9702.16 199.94
vertex 7738.25 9717.5 199.94
vertex 7313.02 9717.5 199.94
endloop
endfacet
facet normal 0 0 1
outer loop
vertex 7307.17 9690.85 199.94
vertex 7304.83 9661.86 199.94
vertex 7709.780000000001 9661.86 199.94
endloop
endfacet
facet normal 0 0 1
outer loop
vertex 7307.17 9690.85 199.94
vertex 7709.780000000001 9661.86 199.94
vertex 7721.740000000001 9690.85 199.94
endloop
endfacet
facet normal 0 0 1
outer loop
vertex 7304.83 9661.86 199.94
vertex 7302.490000000001 9631.31 199.94
vertex 7702.5 9631.31 199.94
endloop
endfacet
facet normal 0 0 1
outer loop
vertex 7304.83 9661.86 199.94
vertex 7702.5 9631.31 199.94
vertex 7709.780000000001 9661.86 199.94
endloop
endfacet
facet normal 0 0 1
outer loop
vertex 7302.490000000001 9631.31 199.94
vertex 7300.02 9599.98 199.94
vertex 7700.030000000001 9599.98 199.94
endloop
endfacet
facet normal 0 0 1
outer loop
vertex 7302.490000000001 9631.31 199.94
vertex 7700.030000000001 9599.98 199.94
vertex 7702.5 9631.31 199.94
endloop
endfacet
facet normal 0 0 1
outer loop
vertex 7300.02 9599.98 199.94
vertex 7300.02 7899.97 199.94
vertex 7700.030000000001 7899.97 199.94
endloop
endfacet
facet normal 0 0 1
outer loop
vertex 7300.02 9599.98 199.94
vertex 7700.030000000001 7899.97 199.94
vertex 7700.030000000001 9599.98 199.94
endloop
endfacet
facet normal 0 0 1
outer loop
vertex 7300.02 7899.97 199.94
vertex 7302.490000000001 7868.77 199.94
vertex 7702.5 7868.77 199.94
endloop
endfacet
facet normal 0 0 0.9999999999999999
outer loop
vertex 7300.02 7899.97 199.94
vertex 7702.5 7868.77 199.94
vertex 7700.030000000001 7899.97 199.94
endloop
endfacet
facet normal 0 0 0.9999999999999999
outer loop
vertex 7302.490000000001 7868.77 199.94
vertex 7304.83 7838.22 199.94
vertex 7709.780000000001 7838.22 199.94
endloop
endfacet
facet normal 0 0 1
outer loop
vertex 7302.490000000001 7868.77 199.94
vertex 7709.780000000001 7838.22 199.94
vertex 7702.5 7868.77 199.94
endloop
endfacet
facet normal 0 0 1
outer loop
vertex 7304.83 7838.22 199.94
vertex 7307.17 7809.2300000000005 199.94
vertex 7721.740000000001 7809.2300000000005 199.94
endloop
endfacet
facet normal 0 0 1
outer loop
vertex 7304.83 7838.22 199.94
vertex 7721.740000000001 7809.2300000000005 199.94
vertex 7709.780000000001 7838.22 199.94
endloop
endfacet
facet normal 0 0 1
outer loop
vertex 7477.47 7797.92 199.94
vertex 7307.17 7809.2300000000005 199.94
vertex 7307.43 7806.110000000001 199.94
endloop
endfacet
facet normal 0 0 1
outer loop
vertex 7477.47 7797.92 199.94
vertex 7307.43 7806.110000000001 199.94
vertex 7313.02 7782.45 199.94
endloop
endfacet
facet normal 0 0 1
outer loop
vertex 7477.47 7797.92 199.94
vertex 7313.02 7782.45 199.94
vertex 7738.25 7782.45 199.94
endloop
endfacet
facet normal 0 0 1
outer loop
vertex 7477.47 7797.92 199.94
vertex 7738.25 7782.45 199.94
vertex 7721.740000000001 7809.2300000000005 199.94
endloop
endfacet
facet normal 0 0 1
outer loop
vertex 7477.47 7797.92 199.94
vertex 7721.740000000001 7809.2300000000005 199.94
vertex 7307.17 7809.2300000000005 199.94
endloop
endfacet
facet normal 0 0 1
outer loop
vertex 7313.02 7782.45 199.94
vertex 7318.87 7758.530000000001 199.94
vertex 7758.530000000001 7758.530000000001 199.94
endloop
endfacet
facet normal 0 0 1
outer loop
vertex 7313.02 7782.45 199.94
vertex 7758.530000000001 7758.530000000001 199.94
vertex 7738.25 7782.45 199.94
endloop
endfacet
facet normal 0 0 1
outer loop
vertex 7318.87 7758.530000000001 199.94
vertex 7323.68 7738.25 199.94
vertex 7782.45 7738.25 199.94
endloop
endfacet
facet normal 0 0 1
outer loop
vertex 7318.87 7758.530000000001 199.94
vertex 7782.45 7738.25 199.94
vertex 7758.530000000001 7758.530000000001 199.94
endloop
endfacet
facet normal 0 0 1
outer loop
vertex 7323.68 7738.25 199.94
vertex 7327.58 7721.740000000001 199.94
vertex 7809.2300000000005 7721.740000000001 199.94
endloop
endfacet
facet normal 0 0 1
outer loop
vertex 7323.68 7738.25 199.94
vertex 7809.2300000000005 7721.740000000001 199.94
vertex 7782.45 7738.25 199.94
endloop
endfacet
facet normal 0 0 1
outer loop
vertex 7527.13 7715.5 199.94
vertex 7327.58 7721.740000000001 199.94
vertex 7329.400000000001 7714.59 199.94
endloop
endfacet
facet normal 0 0 0.9999999999999999
outer loop
vertex 7527.13 7715.5 199.94
vertex 7329.400000000001 7714.59 199.94
vertex 7331.35 7709.780000000001 199.94
endloop
endfacet
facet normal 0 0 1
outer loop
vertex 7527.13 7715.5 199.94
vertex 7331.35 7709.780000000001 199.94
vertex 7838.22 7709.780000000001 199.94
endloop
endfacet
facet normal 0 0 1
outer loop
vertex 7527.13 7715.5 199.94
vertex 7838.22 7709.780000000001 199.94
vertex 7809.2300000000005 7721.740000000001 199.94
endloop
endfacet
facet normal 0 0 1
outer loop
vertex 7527.13 7715.5 199.94
vertex 7809.2300000000005 7721.740000000001 199.94
vertex 7327.58 7721.740000000001 199.94
endloop
endfacet
facet normal 0 0 1
outer loop
vertex 7331.35 7709.780000000001 199.94
vertex 7334.34 7702.5 199.94
vertex 7868.77 7702.5 199.94
endloop
endfacet
facet normal 0 0 1
outer loop
vertex 7331.35 7709.780000000001 199.94
vertex 7868.77 7702.5 199.94
vertex 7838.22 7709.780000000001 199.94
endloop
endfacet
facet normal 0 0 1
outer loop
vertex 7334.34 7702.5 199.94
vertex 7335.38 7700.030000000001 199.94
vertex 7899.97 7700.030000000001 199.94
endloop
endfacet
facet normal 0 0 1
outer loop
vertex 7334.34 7702.5 199.94
vertex 7899.97 7700.030000000001 199.94
vertex 7868.77 7702.5 199.94
endloop
endfacet
facet normal 0 0 1
outer loop
vertex 6300.06 9800.050000000001 199.94
vertex 6300.06 7700.030000000001 199.94
vertex 6699.9400000000005 7700.030000000001 199.94
endloop
endfacet
facet normal 0 0 1
outer loop
vertex 6300.06 9800.050000000001 199.94
vertex 6699.9400000000005 7700.030000000001 199.94
vertex 6699.9400000000005 9800.050000000001 199.94
endloop
endfacet
facet normal 0 0 1
outer loop
vertex 8007.22 7480.59 199.94
vertex 7899.97 7700.030000000001 199.94
vertex 7335.38 7700.030000000001 199.94
endloop
endfacet
facet normal 0 0 1
outer loop
vertex 8007.22 7480.59 199.94
vertex 7335.38 7700.030000000001 199.94
vertex 7365.41 7627.62 199.94
endloop
endfacet
facet normal 0 0 1
outer loop
vertex 8007.22 7480.59 199.94
vertex 7365.41 7627.62 199.94
vertex 7414.55 7547.280000000001 199.94
endloop
endfacet
facet normal 0 0 1
outer loop
vertex 8007.22 7480.59 199.94
vertex 7414.55 7547.280000000001 199.94
vertex 7475.780000000001 7475.780000000001 199.94
endloop
endfacet
facet normal 0 0 1
outer loop
vertex 8007.22 7480.59 199.94
vertex 7475.780000000001 7475.780000000001 199.94
vertex 7547.280000000001 7414.55 199.94
endloop
endfacet
facet normal 0 0 1
outer loop
vertex 8007.22 7480.59 199.94
vertex 7547.280000000001 7414.55 199.94
vertex 7627.62 7365.41 199.94
endloop
endfacet
facet normal 0 0 1
outer loop
vertex 8007.22 7480.59 199.94
vertex 7627.62 7365.41 199.94
vertex 7714.59 7329.400000000001 199.94
endloop
endfacet
facet normal 0 0 1
outer loop
vertex 8007.22 7480.59 199.94
vertex 7714.59 7329.400000000001 199.94
vertex 7806.110000000001 7307.43 199.94
endloop
endfacet
facet normal 0 0 1
outer loop
vertex 8007.22 7480.59 199.94
vertex 7806.110000000001 7307.43 199.94
vertex 7899.97 7300.02 199.94
endloop
endfacet
facet normal 0 0 1
outer loop
vertex 8007.22 7480.59 199.94
vertex 7899.97 7300.02 199.94
vertex 9999.99 7300.02 199.94
endloop
endfacet
facet normal 0 0 0.9999999999999999
outer loop
vertex 8007.22 7480.59 199.94
vertex 9999.99 7300.02 199.94
vertex 9999.99 7700.030000000001 199.94
endloop
endfacet
facet normal 0 0 1
outer loop
vertex 8007.22 7480.59 199.94
vertex 9999.99 7700.030000000001 199.94
vertex 7899.97 7700.030000000001 199.94
endloop
endfacet
facet normal 0 0 1
outer loop
vertex 6278.09 7444.97 199.94
vertex 6300.06 7700.030000000001 199.94
vertex 4499.95 7700.030000000001 199.94
endloop
endfacet
facet normal 0 0 1
outer loop
vertex 6278.09 7444.97 199.94
vertex 4499.95 7700.030000000001 199.94
vertex 4499.95 7300.02 199.94
endloop
endfacet
facet normal 0 0 1
outer loop
vertex 6278.09 7444.97 199.94
vertex 4499.95 7300.02 199.94
vertex 6500 7300.02 199.94
endloop
endfacet
facet normal 0 0 1
outer loop
vertex 6278.09 7444.97 199.94
vertex 6500 7300.02 199.94
vertex 6539 7303.79 199.94
endloop
endfacet
facet normal 0 0 1
outer loop
vertex 6278.09 7444.97 199.94
vertex 6539 7303.79 199.94
vertex 6576.570000000001 7315.2300000000005 199.94
endloop
endfacet
facet normal 0 0 0.9999999999999999
outer loop
vertex 6278.09 7444.97 199.94
vertex 6576.570000000001 7315.2300000000005 199.94
vertex 6611.150000000001 7333.6900000000005 199.94
endloop
endfacet
facet normal 0 0 1
outer loop
vertex 6278.09 7444.97 199.94
vertex 6611.150000000001 7333.6900000000005 199.94
vertex 6641.4400000000005 7358.52 199.94
endloop
endfacet
facet normal 0 0 1
outer loop
vertex 6278.09 7444.97 199.94
vertex 6641.4400000000005 7358.52 199.94
vertex 6666.27 7388.9400000000005 199.94
endloop
endfacet
facet normal 0 0 0.9999999999999999
outer loop
vertex 6278.09 7444.97 199.94
vertex 6666.27 7388.9400000000005 199.94
vertex 6684.7300000000005 7423.52 199.94
endloop
endfacet
facet normal 0 0 0.9999999999999999
outer loop
vertex 6278.09 7444.97 199.94
vertex 6684.7300000000005 7423.52 199.94
vertex 6696.17 7460.96 199.94
endloop
endfacet
facet normal 0 0 1
outer loop
vertex 6278.09 7444.97 199.94
vertex 6696.17 7460.96 199.94
vertex 6699.9400000000005 7499.96 199.94
endloop
endfacet
facet normal 0 0 1
outer loop
vertex 6278.09 7444.97 199.94
vertex 6699.9400000000005 7499.96 199.94
vertex 6699.9400000000005 7700.030000000001 199.94
endloop
endfacet
facet normal 0 0 1
outer loop
vertex 6278.09 7444.97 199.94
vertex 6699.9400000000005 7700.030000000001 199.94
vertex 6300.06 7700.030000000001 199.94
endloop
endfacet
facet normal 0 0 -1
outer loop
vertex 6278.09 10054.98 599.95
vertex 6500 10200.06 599.95
vertex 6539 10196.16 599.95
endloop
endfacet
facet normal 0 0 -1
outer loop
vertex 6278.09 10054.98 599.95
vertex 6539 10196.16 599.95
vertex 6576.570000000001 10184.720000000001 599.95
endloop
endfacet
facet normal 0 0 -1
outer loop
vertex 6278.09 10054.98 599.95
vertex 6576.570000000001 10184.720000000001 599.95
vertex 6611.150000000001 10166.26 599.95
endloop
endfacet
facet normal 0 0 -1
outer loop
vertex 6278.09 10054.98 599.95
vertex 6611.150000000001 10166.26 599.95
vertex 6641.4400000000005 10141.43 599.95
endloop
endfacet
facet normal 0 0 -0.9999999999999999
outer loop
vertex 6278.09 10054.98 599.95
vertex 6641.4400000000005 10141.43 599.95
vertex 6666.27 10111.140000000001 599.95
endloop
endfacet
facet normal 0 0 -0.9999999999999999
outer loop
vertex 6278.09 10054.98 599.95
vertex 6666.27 10111.140000000001 599.95
vertex 6684.7300000000005 10076.56 599.95
endloop
endfacet
facet normal 0 0 -0.9999999999999999
outer loop
vertex 6278.09 10054.98 599.95
vertex 6684.7300000000005 10076.56 599.95
vertex 6696.17 10038.99 599.95
endloop
endfacet
facet normal 0 0 -1
outer loop
vertex 6278.09 10054.98 599.95
vertex 6696.17 10038.99 599.95
vertex 6699.9400000000005 9999.99 599.95
endloop
endfacet
facet normal 0 0 -1
outer loop
vertex 6278.09 10054.98 599.95
vertex 6699.9400000000005 9999.99 599.95
vertex 6699.9400000000005 9800.050000000001 599.95
endloop
endfacet
facet normal 0 0 -1
outer loop
vertex 6278.09 10054.98 599.95
vertex 6699.9400000000005 9800.050000000001 599.95
vertex 6300.06 9800.050000000001 599.95
endloop
endfacet
facet normal 0 0 -1
outer loop
vertex 6278.09 10054.98 599.95
vertex 6300.06 9800.050000000001 599.95
vertex 4499.95 9800.050000000001 599.95
endloop
endfacet
facet normal 0 0 -1
outer loop
vertex 6278.09 10054.98 599.95
vertex 4499.95 9800.050000000001 599.95
vertex 4499.95 10200.06 599.95
endloop
endfacet
facet normal 0 0 -1
outer loop
vertex 6278.09 10054.98 599.95
vertex 4499.95 10200.06 599.95
vertex 6500 10200.06 599.95
endloop
endfacet
facet normal 0 0 -1
outer loop
vertex 8007.22 10019.36 599.95
vertex 9999.99 10200.06 599.95
vertex 9999.99 9800.050000000001 599.95
endloop
endfacet
facet normal 0 0 -1
outer loop
vertex 8007.22 10019.36 599.95
vertex 9999.99 9800.050000000001 599.95
vertex 7899.97 9800.050000000001 599.95
endloop
endfacet
facet normal 0 0 -1
outer loop
vertex 8007.22 10019.36 599.95
vertex 7899.97 9800.050000000001 599.95
vertex 7335.38 9800.050000000001 599.95
endloop
endfacet
facet normal 0 0 -1
outer loop
vertex 8007.22 10019.36 599.95
vertex 7335.38 9800.050000000001 599.95
vertex 7365.41 9872.33 599.95
endloop
endfacet
facet normal 0 0 -1
outer loop
vertex 8007.22 10019.36 599.95
vertex 7365.41 9872.33 599.95
vertex 7414.55 9952.67 599.95
endloop
endfacet
facet normal 0 0 -1
outer loop
vertex 8007.22 10019.36 599.95
vertex 7414.55 9952.67 599.95
vertex 7475.780000000001 10024.300000000001 599.95
endloop
endfacet
facet normal 0 0 -1
outer loop
vertex 8007.22 10019.36 599.95
vertex 7475.780000000001 10024.300000000001 599.95
vertex 7547.280000000001 10085.4 599.95
endloop
endfacet
facet normal 0 0 -1
outer loop
vertex 8007.22 10019.36 599.95
vertex 7547.280000000001 10085.4 599.95
vertex 7627.62 10134.54 599.95
endloop
endfacet
facet normal 0 0 -0.9999999999999999
outer loop
vertex 8007.22 10019.36 599.95
vertex 7627.62 10134.54 599.95
vertex 7714.59 10170.68 599.95
endloop
endfacet
facet normal 0 0 -1
outer loop
vertex 8007.22 10019.36 599.95
vertex 7714.59 10170.68 599.95
vertex 7806.110000000001 10192.65 599.95
endloop
endfacet
facet normal 0 0 -1
outer loop
vertex 8007.22 10019.36 599.95
vertex 7806.110000000001 10192.65 599.95
vertex 7899.97 10200.06 599.95
endloop
endfacet
facet normal 0 0 -1
outer loop
vertex 8007.22 10019.36 599.95
vertex 7899.97 10200.06 599.95
vertex 9999.99 10200.06 599.95
endloop
endfacet
facet normal 0 0 -1
outer loop
vertex 7899.97 9800.050000000001 599.95
vertex 7868.77 9797.58 599.95
vertex 7334.34 9797.58 599.95
endloop
endfacet
facet normal 0 0 -1
outer loop
vertex 7899.97 9800.050000000001 599.95
vertex 7334.34 9797.58 599.95
vertex 7335.38 9800.050000000001 599.95
endloop
endfacet
facet normal 0 0 -1
outer loop
vertex 7868.77 9797.58 599.95
vertex 7838.22 9790.17 599.95
vertex 7331.35 9790.17 599.95
endloop
endfacet
facet normal 0 0 -1
outer loop
vertex 7868.77 9797.58 599.95
vertex 7331.35 9790.17 599.95
vertex 7334.34 9797.58 599.95
endloop
endfacet
facet normal 0 0 -1
outer loop
vertex 7527.13 9784.45 599.95
vertex 7838.22 9790.17 599.95
vertex 7809.2300000000005 9778.210000000001 599.95
endloop
endfacet
facet normal 0 0 -1
outer loop
vertex 7527.13 9784.45 599.95
vertex 7809.2300000000005 9778.210000000001 599.95
vertex 7327.58 9778.210000000001 599.95
endloop
endfacet
facet normal 0 0 -1
outer loop
vertex 7527.13 9784.45 599.95
vertex 7327.58 9778.210000000001 599.95
vertex 7329.400000000001 9785.36 599.95
endloop
endfacet
facet normal 0 0 -0.9999999999999999
outer loop
vertex 7527.13 9784.45 599.95
vertex 7329.400000000001 9785.36 599.95
vertex 7331.35 9790.17 599.95
endloop
endfacet
facet normal 0 0 -1
outer loop
vertex 7527.13 9784.45 599.95
vertex 7331.35 9790.17 599.95
vertex 7838.22 9790.17 599.95
endloop
endfacet
facet normal 0 0 -1
outer loop
vertex 7809.2300000000005 9778.210000000001 599.95
vertex 7782.45 9761.83 599.95
vertex 7323.68 9761.83 599.95
endloop
endfacet
facet normal 0 0 -1
outer loop
vertex 7809.2300000000005 9778.210000000001 599.95
vertex 7323.68 9761.83 599.95
vertex 7327.58 9778.210000000001 599.95
endloop
endfacet
facet normal 0 0 -1
outer loop
vertex 7782.45 9761.83 599.95
vertex 7758.530000000001 9741.42 599.95
vertex 7318.87 9741.42 599.95
endloop
endfacet
facet normal 0 0 -0.9999999999999999
outer loop
vertex 7782.45 9761.83 599.95
vertex 7318.87 9741.42 599.95
vertex 7323.68 9761.83 599.95
endloop
endfacet
facet normal 0 0 -1
outer loop
vertex 7758.530000000001 9741.42 599.95
vertex 7738.25 9717.5 599.95
vertex 7313.02 9717.5 599.95
endloop
endfacet
facet normal 0 0 -1
outer loop
vertex 7758.530000000001 9741.42 599.95
vertex 7313.02 9717.5 599.95
vertex 7318.87 9741.42 599.95
endloop
endfacet
facet normal 0 0 -1
outer loop
vertex 7477.47 9702.16 599.95
vertex 7738.25 9717.5 599.95
vertex 7721.740000000001 9690.85 599.95
endloop
endfacet
facet normal 0 0 -1
outer loop
vertex 7477.47 9702.16 599.95
vertex 7721.740000000001 9690.85 599.95
vertex 7307.17 9690.85 599.95
endloop
endfacet
facet normal 0 0 -1
outer loop
vertex 7477.47 9702.16 599.95
vertex 7307.17 9690.85 599.95
vertex 7307.43 9693.84 599.95
endloop
endfacet
facet normal 0 0 -1
outer loop
vertex 7477.47 9702.16 599.95
vertex 7307.43 9693.84 599.95
vertex 7313.02 9717.5 599.95
endloop
endfacet
facet normal 0 0 -1
outer loop
vertex 7477.47 9702.16 599.95
vertex 7313.02 9717.5 599.95
vertex 7738.25 9717.5 599.95
endloop
endfacet
facet normal 0 0 -1
outer loop
vertex 7721.740000000001 9690.85 599.95
vertex 7709.780000000001 9661.86 599.95
vertex 7304.83 9661.86 599.95
endloop
endfacet
facet normal 0 0 -1
outer loop
vertex 7721.740000000001 9690.85 599.95
vertex 7304.83 9661.86 599.95
vertex 7307.17 9690.85 599.95
endloop
endfacet
facet normal 0 0 -1
outer loop
vertex 7709.780000000001 9661.86 599.95
vertex 7702.5 9631.31 599.95
vertex 7302.490000000001 9631.31 599.95
endloop
endfacet
facet normal 0 0 -1
outer loop
vertex 7709.780000000001 9661.86 599.95
vertex 7302.490000000001 9631.31 599.95
vertex 7304.83 9661.86 599.95
endloop
endfacet
facet normal 0 0 -1
outer loop
vertex 7702.5 9631.31 599.95
vertex 7700.030000000001 9599.98 599.95
vertex 7300.02 9599.98 599.95
endloop
endfacet
facet normal 0 0 -1
outer loop
vertex 7702.5 9631.31 599.95
vertex 7300.02 9599.98 599.95
vertex 7302.490000000001 9631.31 599.95
endloop
endfacet
facet normal 0 0 -1
outer loop
vertex 7700.030000000001 9599.98 599.95
vertex 7700.030000000001 7899.97 599.95
vertex 7300.02 7899.97 599.95
endloop
endfacet
facet normal 0 0 -1
outer loop
vertex 7700.030000000001 9599.98 599.95
vertex 7300.02 7899.97 599.95
vertex 7300.02 9599.98 599.95
endloop
endfacet
facet normal 0 0 -1
outer loop
vertex 7700.030000000001 7899.97 599.95
vertex 7702.5 7868.77 599.95
vertex 7302.490000000001 7868.77 599.95
endloop
endfacet
facet normal 0 0 -0.9999999999999999
outer loop
vertex 7700.030000000001 7899.97 599.95
vertex 7302.490000000001 7868.77 599.95
vertex 7300.02 7899.97 599.95
endloop
endfacet
facet normal 0 0 -1
outer loop
vertex 7702.5 7868.77 599.95
vertex 7709.780000000001 7838.22 599.95
vertex 7304.83 7838.22 599.95
endloop
endfacet
facet normal 0 0 -1
outer loop
vertex 7702.5 7868.77 599.95
vertex 7304.83 7838.22 599.95
vertex 7302.490000000001 7868.77 599.95
endloop
endfacet
facet normal 0 0 -1
outer loop
vertex 7709.780000000001 7838.22 599.95
vertex 7721.740000000001 7809.2300000000005 599.95
vertex 7307.17 7809.2300000000005 599.95
endloop
endfacet
facet normal 0 0 -1
outer loop
vertex 7709.780000000001 7838.22 599.95
vertex 7307.17 7809.2300000000005 599.95
vertex 7304.83 7838.22 599.95
endloop
endfacet
facet normal 0 0 -1
outer loop
vertex 7477.47 7797.92 599.95
vertex 7721.740000000001 7809.2300000000005 599.95
vertex 7738.25 7782.45 599.95
endloop
endfacet
facet normal 0 0 -1
outer loop
vertex 7477.47 7797.92 599.95
vertex 7738.25 7782.45 599.95
vertex 7313.02 7782.45 599.95
endloop
endfacet
facet normal 0 0 -1
outer loop
vertex 7477.47 7797.92 599.95
vertex 7313.02 7782.45 599.95
vertex 7307.43 7806.110000000001 599.95
endloop
endfacet
facet normal 0 0 -1
outer loop
vertex 7477.47 7797.92 599.95
vertex 7307.43 7806.110000000001 599.95
vertex 7307.17 7809.2300000000005 599.95
endloop
endfacet
facet normal 0 0 -1
outer loop
vertex 7477.47 7797.92 599.95
vertex 7307.17 7809.2300000000005 599.95
vertex 7721.740000000001 7809.2300000000005 599.95
endloop
endfacet
facet normal 0 0 -1
outer loop
vertex 7738.25 7782.45 599.95
vertex 7758.530000000001 7758.530000000001 599.95
vertex 7318.87 7758.530000000001 599.95
endloop
endfacet
facet normal 0 0 -1
outer loop
vertex 7738.25 7782.45 599.95
vertex 7318.87 7758.530000000001 599.95
vertex 7313.02 7782.45 599.95
endloop
endfacet
facet normal 0 0 -1
outer loop
vertex 7758.530000000001 7758.530000000001 599.95
vertex 7782.45 7738.25 599.95
vertex 7323.68 7738.25 599.95
endloop
endfacet
facet normal 0 0 -1
outer loop
vertex 7758.530000000001 7758.530000000001 599.95
vertex 7323.68 7738.25 599.95
vertex 7318.87 7758.530000000001 599.95
endloop
endfacet
facet normal 0 0 -0.9999999999999999
outer loop
vertex 7782.45 7738.25 599.95
vertex 7809.2300000000005 7721.740000000001 599.95
vertex 7327.58 7721.740000000001 599.95
endloop
endfacet
facet normal 0 0 -1
outer loop
vertex 7782.45 7738.25 599.95
vertex 7327.58 7721.740000000001 599.95
vertex 7323.68 7738.25 599.95
endloop
endfacet
facet normal 0 0 -1
outer loop
vertex 7527.13 7715.5 599.95
vertex 7809.2300000000005 7721.740000000001 599.95
vertex 7838.22 7709.780000000001 599.95
endloop
endfacet
facet normal 0 0 -1
outer loop
vertex 7527.13 7715.5 599.95
vertex 7838.22 7709.780000000001 599.95
vertex 7331.35 7709.780000000001 599.95
endloop
endfacet
facet normal 0 0 -0.9999999999999999
outer loop
vertex 7527.13 7715.5 599.95
vertex 7331.35 7709.780000000001 599.95
vertex 7329.400000000001 7714.59 599.95
endloop
endfacet
facet normal 0 0 -1
outer loop
vertex 7527.13 7715.5 599.95
vertex 7329.400000000001 7714.59 599.95
vertex 7327.58 7721.740000000001 599.95
endloop
endfacet
facet normal 0 0 -1
outer loop
vertex 7527.13 7715.5 599.95
vertex 7327.58 7721.740000000001 599.95
vertex 7809.2300000000005 7721.740000000001 599.95
endloop
endfacet
facet normal 0 0 -0.9999999999999999
outer loop
vertex 7838.22 7709.780000000001 599.95
vertex 7868.77 7702.5 599.95
vertex 7334.34 7702.5 599.95
endloop
endfacet
facet normal 0 0 -1
outer loop
vertex 7838.22 7709.780000000001 599.95
vertex 7334.34 7702.5 599.95
vertex 7331.35 7709.780000000001 599.95
endloop
endfacet
facet normal 0 0 -1
outer loop
vertex 6699.9400000000005 9800.050000000001 599.95
vertex 6699.9400000000005 7700.030000000001 599.95
vertex 6300.06 7700.030000000001 599.95
endloop
endfacet
facet normal 0 0 -1
outer loop
vertex 6699.9400000000005 9800.050000000001 599.95
vertex 6300.06 7700.030000000001 599.95
vertex 6300.06 9800.050000000001 599.95
endloop
endfacet
facet normal 0 0 -1
outer loop
vertex 7868.77 7702.5 599.95
vertex 7899.97 7700.030000000001 599.95
vertex 7335.38 7700.030000000001 599.95
endloop
endfacet
facet normal 0 0 -1
outer loop
vertex 7868.77 7702.5 599.95
vertex 7335.38 7700.030000000001 599.95
vertex 7334.34 7702.5 599.95
endloop
endfacet
facet normal 0 0 -1
outer loop
vertex 6278.09 7444.97 599.95
vertex 6300.06 7700.030000000001 599.95
vertex 6699.9400000000005 7700.030000000001 599.95
endloop
endfacet
facet normal 0 0 -1
outer loop
vertex 6278.09 7444.97 599.95
vertex 6699.9400000000005 7700.030000000001 599.95
vertex 6699.9400000000005 7499.96 599.95
endloop
endfacet
facet normal 0 0 -1
outer loop
vertex 6278.09 7444.97 599.95
vertex 6699.9400000000005 7499.96 599.95
vertex 6696.17 7460.96 599.95
endloop
endfacet
facet normal 0 0 -0.9999999999999999
outer loop
vertex 6278.09 7444.97 599.95
vertex 6696.17 7460.96 599.95
vertex 6684.7300000000005 7423.52 599.95
endloop
endfacet
facet normal 0 0 -0.9999999999999999
outer loop
vertex 6278.09 7444.97 599.95
vertex 6684.7300000000005 7423.52 599.95
vertex 6666.27 7388.9400000000005 599.95
endloop
endfacet
facet normal 0 0 -1
outer loop
vertex 6278.09 7444.97 599.95
vertex 6666.27 7388.9400000000005 599.95
vertex 6641.4400000000005 7358.52 599.95
endloop
endfacet
facet normal 0 0 -1
outer loop
vertex 6278.09 7444.97 599.95
vertex 6641.4400000000005 7358.52 599.95
vertex 6611.150000000001 7333.6900000000005 599.95
endloop
endfacet
facet normal 0 0 -0.9999999999999999
outer loop
vertex 6278.09 7444.97 599.95
vertex 6611.150000000001 7333.6900000000005 599.95
vertex 6576.570000000001 7315.2300000000005 599.95
endloop
endfacet
facet normal 0 0 -1
outer loop
vertex 6278.09 7444.97 599.95
vertex 6576.570000000001 7315.2300000000005 599.95
vertex 6539 7303.79 599.95
endloop
endfacet
facet normal 0 0 -1
outer loop
vertex 6278.09 7444.97 599.95
vertex 6539 7303.79 599.95
vertex 6500 7300.02 599.95
endloop
endfacet
facet normal 0 0 -1
outer loop
vertex 6278.09 7444.97 599.95
vertex 6500 7300.02 599.95
vertex 4499.95 7300.02 599.95
endloop
endfacet
facet normal 0 0 -1
outer loop
vertex 6278.09 7444.97 599.95
vertex 4499.95 7300.02 599.95
vertex 4499.95 7700.030000000001 599.95
endloop
endfacet
facet normal 0 0 -1
outer loop
vertex 6278.09 7444.97 599.95
vertex 4499.95 7700.030000000001 599.95
vertex 6300.06 7700.030000000001 599.95
endloop
endfacet
facet normal 0 0 -1
outer loop
vertex 8007.22 7480.59 599.95
vertex 7899.97 7700.030000000001 599.95
vertex 9999.99 7700.030000000001 599.95
endloop
endfacet
facet normal 0 0 -0.9999999999999999
outer loop
vertex 8007.22 7480.59 599.95
vertex 9999.99 7700.030000000001 599.95
vertex 9999.99 7300.02 599.95
endloop
endfacet
facet normal 0 0 -1
outer loop
vertex 8007.22 7480.59 599.95
vertex 9999.99 7300.02 599.95
vertex 7899.97 7300.02 599.95
endloop
endfacet
facet normal 0 0 -1
outer loop
vertex 8007.22 7480.59 599.95
vertex 7899.97 7300.02 599.95
vertex 7806.110000000001 7307.43 599.95
endloop
endfacet
facet normal 0 0 -1
outer loop
vertex 8007.22 7480.59 599.95
vertex 7806.110000000001 7307.43 599.95
vertex 7714.59 7329.400000000001 599.95
endloop
endfacet
facet normal 0 0 -1
outer loop
vertex 8007.22 7480.59 599.95
vertex 7714.59 7329.400000000001 599.95
vertex 7627.62 7365.41 599.95
endloop
endfacet
facet normal 0 0 -1
outer loop
vertex 8007.22 7480.59 599.95
vertex 7627.62 7365.41 599.95
vertex 7547.280000000001 7414.55 599.95
endloop
endfacet
facet normal 0 0 -1
outer loop
vertex 8007.22 7480.59 599.95
vertex 7547.280000000001 7414.55 599.95
vertex 7475.780000000001 7475.780000000001 599.95
endloop
endfacet
facet normal 0 0 -1
outer loop
vertex 8007.22 7480.59 599.95
vertex 7475.780000000001 7475.780000000001 599.95
vertex 7414.55 7547.280000000001 599.95
endloop
endfacet
facet normal 0 0 -1
outer loop
vertex 8007.22 7480.59 599.95
vertex 7414.55 7547.280000000001 599.95
vertex 7365.41 7627.62 599.95
endloop
endfacet
facet normal 0 0 -1
outer loop
vertex 8007.22 7480.59 599.95
vertex 7365.41 7627.62 599.95
vertex 7335.38 7700.030000000001 599.95
endloop
endfacet
facet normal 0 0 -1
outer loop
vertex 8007.22 7480.59 599.95
vertex 7335.38 7700.030000000001 599.95
vertex 7899.97 7700.030000000001 599.95
endloop
endfacet
facet normal 0.07870248542000942 -0.9968981486534686 0
outer loop
vertex 7806.110000000001 10192.65 599.95
vertex 7806.110000000001 10192.65 199.94
vertex 7899.97 10200.06 199.94
endloop
endfacet
facet normal 0.07870248542000942 -0.9968981486534686 0
outer loop
vertex 7806.110000000001 10192.65 599.95
vertex 7899.97 10200.06 199.94
vertex 7899.97 10200.06 599.95
endloop
endfacet
facet normal 0.2334251917055642 -0.9723747630812004 0
outer loop
vertex 7714.59 10170.68 599.95
vertex 7714.59 10170.68 199.94
vertex 7806.110000000001 10192.65 199.94
endloop
endfacet
facet normal 0.2334251917055642 -0.9723747630812004 0
outer loop
vertex 7714.59 10170.68 599.95
vertex 7806.110000000001 10192.65 199.94
vertex 7806.110000000001 10192.65 599.95
endloop
endfacet
facet normal 0.3837331014909796 -0.9234440463937779 0
outer loop
vertex 7627.62 10134.54 599.95
vertex 7627.62 10134.54 199.94
vertex 7714.59 10170.68 199.94
endloop
endfacet
facet normal 0.3837331014909796 -0.9234440463937779 0
outer loop
vertex 7627.62 10134.54 599.95
vertex 7714.59 10170.68 199.94
vertex 7714.59 10170.68 599.95
endloop
endfacet
facet normal 0.5217849836991265 -0.8530770368413993 0
outer loop
vertex 7547.280000000001 10085.4 599.95
vertex 7547.280000000001 10085.4 199.94
vertex 7627.62 10134.54 199.94
endloop
endfacet
facet normal 0.5217849836991265 -0.8530770368413993 0
outer loop
vertex 7547.280000000001 10085.4 599.95
vertex 7627.62 10134.54 199.94
vertex 7627.62 10134.54 599.95
endloop
endfacet
facet normal 0.6496523275821373 -0.7602314471706043 0
outer loop
vertex 7475.780000000001 10024.300000000001 599.95
vertex 7475.780000000001 10024.300000000001 199.94
vertex 7547.280000000001 10085.4 199.94
endloop
endfacet
facet normal 0.6496523275821373 -0.7602314471706043 0
outer loop
vertex 7475.780000000001 10024.300000000001 599.95
vertex 7547.280000000001 10085.4 199.94
vertex 7547.280000000001 10085.4 599.95
endloop
endfacet
facet normal 0.7601323341990905 -0.6497682929360605 0
outer loop
vertex 7414.55 9952.67 599.95
vertex 7414.55 9952.67 199.94
vertex 7475.780000000001 10024.300000000001 199.94
endloop
endfacet
facet normal 0.7601323341990905 -0.6497682929360605 0
outer loop
vertex 7414.55 9952.67 599.95
vertex 7475.780000000001 10024.300000000001 199.94
vertex 7475.780000000001 10024.300000000001 599.95
endloop
endfacet
facet normal 0.8530770368414062 -0.5217849836991151 0
outer loop
vertex 7365.41 9872.33 599.95
vertex 7365.41 9872.33 199.94
vertex 7414.55 9952.67 199.94
endloop
endfacet
facet normal 0.8530770368414062 -0.5217849836991151 0
outer loop
vertex 7365.41 9872.33 599.95
vertex 7414.55 9952.67 199.94
vertex 7414.55 9952.67 599.95
endloop
endfacet
facet normal 0.9239326842512687 -0.3825550875001472 0
outer loop
vertex 7329.400000000001 9785.36 599.95
vertex 7329.400000000001 9785.36 199.94
vertex 7365.41 9872.33 199.94
endloop
endfacet
facet normal 0.9239326842512687 -0.3825550875001472 0
outer loop
vertex 7329.400000000001 9785.36 599.95
vertex 7365.41 9872.33 199.94
vertex 7365.41 9872.33 599.95
endloop
endfacet
facet normal 0.9723747630811983 -0.23342519170557335 0
outer loop
vertex 7307.43 9693.84 599.95
vertex 7307.43 9693.84 199.94
vertex 7329.400000000001 9785.36 199.94
endloop
endfacet
facet normal 0.9723747630811983 -0.23342519170557335 0
outer loop
vertex 7307.43 9693.84 599.95
vertex 7329.400000000001 9785.36 199.94
vertex 7329.400000000001 9785.36 599.95
endloop
endfacet
facet normal 0.9968981486534686 -0.07870248542000866 0
outer loop
vertex 7300.02 9599.98 599.95
vertex 7300.02 9599.98 199.94
vertex 7307.43 9693.84 199.94
endloop
endfacet
facet normal 0.9968981486534686 -0.07870248542000866 0
outer loop
vertex 7300.02 9599.98 599.95
vertex 7307.43 9693.84 199.94
vertex 7307.43 9693.84 599.95
endloop
endfacet
facet normal -0.9969066834764655 0.07859430284667165 0
outer loop
vertex 7702.5 9631.31 599.95
vertex 7702.5 9631.31 199.94
vertex 7700.030000000001 9599.98 199.94
endloop
endfacet
facet normal -0.9969066834764655 0.07859430284667165 0
outer loop
vertex 7702.5 9631.31 599.95
vertex 7700.030000000001 9599.98 199.94
vertex 7700.030000000001 9599.98 599.95
endloop
endfacet
facet normal -0.9727617825102812 0.23180706306629234 0
outer loop
vertex 7709.780000000001 9661.86 599.95
vertex 7709.780000000001 9661.86 199.94
vertex 7702.5 9631.31 199.94
endloop
endfacet
facet normal -0.9727617825102812 0.23180706306629234 0
outer loop
vertex 7709.780000000001 9661.86 599.95
vertex 7702.5 9631.31 199.94
vertex 7702.5 9631.31 599.95
endloop
endfacet
facet normal -0.9244203335627806 0.38137520487792254 0
outer loop
vertex 7721.740000000001 9690.85 599.95
vertex 7721.740000000001 9690.85 199.94
vertex 7709.780000000001 9661.86 199.94
endloop
endfacet
facet normal -0.9244203335627806 0.38137520487792254 0
outer loop
vertex 7721.740000000001 9690.85 599.95
vertex 7709.780000000001 9661.86 199.94
vertex 7709.780000000001 9661.86 599.95
endloop
endfacet
facet normal -0.8500883510724634 0.5266401004204868 0
outer loop
vertex 7738.25 9717.5 599.95
vertex 7738.25 9717.5 199.94
vertex 7721.740000000001 9690.85 199.94
endloop
endfacet
facet normal -0.8500883510724634 0.5266401004204868 0
outer loop
vertex 7738.25 9717.5 599.95
vertex 7721.740000000001 9690.85 199.94
vertex 7721.740000000001 9690.85 599.95
endloop
endfacet
facet normal -0.7627569634671028 0.6466852516351712 0
outer loop
vertex 7758.530000000001 9741.42 599.95
vertex 7758.530000000001 9741.42 199.94
vertex 7738.25 9717.5 199.94
endloop
endfacet
facet normal -0.7627569634671028 0.6466852516351712 0
outer loop
vertex 7758.530000000001 9741.42 599.95
vertex 7738.25 9717.5 199.94
vertex 7738.25 9717.5 599.95
endloop
endfacet
facet normal -0.6490873728329348 0.7607138637022719 0
outer loop
vertex 7782.45 9761.83 599.95
vertex 7782.45 9761.83 199.94
vertex 7758.530000000001 9741.42 199.94
endloop
endfacet
facet normal -0.6490873728329348 0.7607138637022719 0
outer loop
vertex 7782.45 9761.83 599.95
vertex 7758.530000000001 9741.42 199.94
vertex 7758.530000000001 9741.42 599.95
endloop
endfacet
facet normal -0.5217849836991276 0.8530770368413987 0
outer loop
vertex 7809.2300000000005 9778.210000000001 599.95
vertex 7809.2300000000005 9778.210000000001 199.94
vertex 7782.45 9761.83 199.94
endloop
endfacet
facet normal -0.5217849836991276 0.8530770368413987 0
outer loop
vertex 7809.2300000000005 9778.210000000001 599.95
vertex 7782.45 9761.83 199.94
vertex 7782.45 9761.83 599.95
endloop
endfacet
facet normal -0.3813752048778977 0.9244203335627909 0
outer loop
vertex 7838.22 9790.17 599.95
vertex 7838.22 9790.17 199.94
vertex 7809.2300000000005 9778.210000000001 199.94
endloop
endfacet
facet normal -0.3813752048778977 0.9244203335627909 0
outer loop
vertex 7838.22 9790.17 599.95
vertex 7809.2300000000005 9778.210000000001 199.94
vertex 7809.2300000000005 9778.210000000001 599.95
endloop
endfacet
facet normal -0.23571838340396975 0.9718214052620054 0
outer loop
vertex 7868.77 9797.58 599.95
vertex 7868.77 9797.58 199.94
vertex 7838.22 9790.17 199.94
endloop
endfacet
facet normal -0.23571838340396975 0.9718214052620054 0
outer loop
vertex 7868.77 9797.58 599.95
vertex 7838.22 9790.17 199.94
vertex 7838.22 9790.17 599.95
endloop
endfacet
facet normal -0.07891974368504127 0.9968809728632035 0
outer loop
vertex 7899.97 9800.050000000001 599.95
vertex 7899.97 9800.050000000001 199.94
vertex 7868.77 9797.58 199.94
endloop
endfacet
facet normal -0.07891974368504127 0.9968809728632035 0
outer loop
vertex 7899.97 9800.050000000001 599.95
vertex 7868.77 9797.58 199.94
vertex 7868.77 9797.58 599.95
endloop
endfacet
facet normal 1 0 0
outer loop
vertex 7300.02 9599.98 599.95
vertex 7300.02 7899.97 599.95
vertex 7300.02 7899.97 199.94
endloop
endfacet
facet normal 1 0 0
outer loop
vertex 7300.02 9599.98 599.95
vertex 7300.02 7899.97 199.94
vertex 7300.02 9599.98 199.94
endloop
endfacet
facet normal -1 0 0
outer loop
vertex 7700.030000000001 7899.97 199.94
vertex 7700.030000000001 7899.97 599.95
vertex 7700.030000000001 9599.98 599.95
endloop
endfacet
facet normal -1 0 0
outer loop
vertex 7700.030000000001 7899.97 199.94
vertex 7700.030000000001 9599.98 599.95
vertex 7700.030000000001 9599.98 199.94
endloop
endfacet
facet normal 0.9968981486534686 0.07870248542000942 0
outer loop
vertex 7307.43 7806.110000000001 599.95
vertex 7307.43 7806.110000000001 199.94
vertex 7300.02 7899.97 199.94
endloop
endfacet
facet normal 0.9968981486534686 0.07870248542000942 0
outer loop
vertex 7307.43 7806.110000000001 599.95
vertex 7300.02 7899.97 199.94
vertex 7300.02 7899.97 599.95
endloop
endfacet
facet normal 0.9723747630811983 0.23342519170557335 0
outer loop
vertex 7329.400000000001 7714.59 599.95
vertex 7329.400000000001 7714.59 199.94
vertex 7307.43 7806.110000000001 199.94
endloop
endfacet
facet normal 0.9723747630811983 0.23342519170557335 0
outer loop
vertex 7329.400000000001 7714.59 599.95
vertex 7307.43 7806.110000000001 199.94
vertex 7307.43 7806.110000000001 599.95
endloop
endfacet
facet normal 0.9239326842512702 0.3825550875001438 0
outer loop
vertex 7365.41 7627.62 599.95
vertex 7365.41 7627.62 199.94
vertex 7329.400000000001 7714.59 199.94
endloop
endfacet
facet normal 0.9239326842512702 0.3825550875001438 0
outer loop
vertex 7365.41 7627.62 599.95
vertex 7329.400000000001 7714.59 199.94
vertex 7329.400000000001 7714.59 599.95
endloop
endfacet
facet normal 0.8530770368414038 0.5217849836991195 0
outer loop
vertex 7414.55 7547.280000000001 599.95
vertex 7414.55 7547.280000000001 199.94
vertex 7365.41 7627.62 199.94
endloop
endfacet
facet normal 0.8530770368414038 0.5217849836991195 0
outer loop
vertex 7414.55 7547.280000000001 599.95
vertex 7365.41 7627.62 199.94
vertex 7365.41 7627.62 599.95
endloop
endfacet
facet normal 0.7595489723685307 0.6504501199737832 0
outer loop
vertex 7475.780000000001 7475.780000000001 599.95
vertex 7475.780000000001 7475.780000000001 199.94
vertex 7414.55 7547.280000000001 199.94
endloop
endfacet
facet normal 0.7595489723685307 0.6504501199737832 0
outer loop
vertex 7475.780000000001 7475.780000000001 599.95
vertex 7414.55 7547.280000000001 199.94
vertex 7414.55 7547.280000000001 599.95
endloop
endfacet
facet normal 0.6504501199737832 0.7595489723685307 0
outer loop
vertex 7547.280000000001 7414.55 599.95
vertex 7547.280000000001 7414.55 199.94
vertex 7475.780000000001 7475.780000000001 199.94
endloop
endfacet
facet normal 0.6504501199737832 0.7595489723685307 0
outer loop
vertex 7547.280000000001 7414.55 599.95
vertex 7475.780000000001 7475.780000000001 199.94
vertex 7475.780000000001 7475.780000000001 599.95
endloop
endfacet
facet normal 0.5217849836991195 0.8530770368414038 0
outer loop
vertex 7627.62 7365.41 599.95
vertex 7627.62 7365.41 199.94
vertex 7547.280000000001 7414.55 199.94
endloop
endfacet
facet normal 0.5217849836991195 0.8530770368414038 0
outer loop
vertex 7627.62 7365.41 599.95
vertex 7547.280000000001 7414.55 199.94
vertex 7547.280000000001 7414.55 599.95
endloop
endfacet
facet normal 0.3825550875001438 0.9239326842512702 0
outer loop
vertex 7714.59 7329.400000000001 599.95
vertex 7714.59 7329.400000000001 199.94
vertex 7627.62 7365.41 199.94
endloop
endfacet
facet normal 0.3825550875001438 0.9239326842512702 0
outer loop
vertex 7714.59 7329.400000000001 599.95
vertex 7627.62 7365.41 199.94
vertex 7627.62 7365.41 599.95
endloop
endfacet
facet normal 0.23342519170557335 0.9723747630811983 0
outer loop
vertex 7806.110000000001 7307.43 599.95
vertex 7806.110000000001 7307.43 199.94
vertex 7714.59 7329.400000000001 199.94
endloop
endfacet
facet normal 0.23342519170557335 0.9723747630811983 0
outer loop
vertex 7806.110000000001 7307.43 599.95
vertex 7714.59 7329.400000000001 199.94
vertex 7714.59 7329.400000000001 599.95
endloop
endfacet
facet normal 0.07870248542000942 0.9968981486534686 0
outer loop
vertex 7899.97 7300.02 599.95
vertex 7899.97 7300.02 199.94
vertex 7806.110000000001 7307.43 199.94
endloop
endfacet
facet normal 0.07870248542000942 0.9968981486534686 0
outer loop
vertex 7899.97 7300.02 599.95
vertex 7806.110000000001 7307.43 199.94
vertex 7806.110000000001 7307.43 599.95
endloop
endfacet
facet normal -0.07891974368498353 -0.9968809728632083 0
outer loop
vertex 7868.77 7702.5 599.95
vertex 7868.77 7702.5 199.94
vertex 7899.97 7700.030000000001 199.94
endloop
endfacet
facet normal -0.07891974368498353 -0.9968809728632083 0
outer loop
vertex 7868.77 7702.5 599.95
vertex 7899.97 7700.030000000001 199.94
vertex 7899.97 7700.030000000001 599.95
endloop
endfacet
facet normal -0.2318070630662989 -0.9727617825102798 0
outer loop
vertex 7838.22 7709.780000000001 599.95
vertex 7838.22 7709.780000000001 199.94
vertex 7868.77 7702.5 199.94
endloop
endfacet
facet normal -0.2318070630662989 -0.9727617825102798 0
outer loop
vertex 7838.22 7709.780000000001 599.95
vertex 7868.77 7702.5 199.94
vertex 7868.77 7702.5 599.95
endloop
endfacet
facet normal -0.38137520487792254 -0.9244203335627806 0
outer loop
vertex 7809.2300000000005 7721.740000000001 599.95
vertex 7809.2300000000005 7721.740000000001 199.94
vertex 7838.22 7709.780000000001 199.94
endloop
endfacet
facet normal -0.38137520487792254 -0.9244203335627806 0
outer loop
vertex 7809.2300000000005 7721.740000000001 599.95
vertex 7838.22 7709.780000000001 199.94
vertex 7838.22 7709.780000000001 599.95
endloop
endfacet
facet normal -0.5247889079752859 -0.8512324019127249 0
outer loop
vertex 7782.45 7738.25 599.95
vertex 7782.45 7738.25 199.94
vertex 7809.2300000000005 7721.740000000001 199.94
endloop
endfacet
facet normal -0.5247889079752859 -0.8512324019127249 0
outer loop
vertex 7782.45 7738.25 599.95
vertex 7809.2300000000005 7721.740000000001 199.94
vertex 7809.2300000000005 7721.740000000001 599.95
endloop
endfacet
facet normal -0.6466852516351856 -0.7627569634670908 0
outer loop
vertex 7758.530000000001 7758.530000000001 599.95
vertex 7758.530000000001 7758.530000000001 199.94
vertex 7782.45 7738.25 199.94
endloop
endfacet
facet normal -0.6466852516351856 -0.7627569634670908 0
outer loop
vertex 7758.530000000001 7758.530000000001 599.95
vertex 7782.45 7738.25 199.94
vertex 7782.45 7738.25 599.95
endloop
endfacet
facet normal -0.7627569634670908 -0.6466852516351856 0
outer loop
vertex 7738.25 7782.45 599.95
vertex 7738.25 7782.45 199.94
vertex 7758.530000000001 7758.530000000001 199.94
endloop
endfacet
facet normal -0.7627569634670908 -0.6466852516351856 0
outer loop
vertex 7738.25 7782.45 599.95
vertex 7758.530000000001 7758.530000000001 199.94
vertex 7758.530000000001 7758.530000000001 599.95
endloop
endfacet
facet normal -0.8512324019127249 -0.5247889079752859 0
outer loop
vertex 7721.740000000001 7809.2300000000005 599.95
vertex 7721.740000000001 7809.2300000000005 199.94
vertex 7738.25 7782.45 199.94
endloop
endfacet
facet normal -0.8512324019127249 -0.5247889079752859 0
outer loop
vertex 7721.740000000001 7809.2300000000005 599.95
vertex 7738.25 7782.45 199.94
vertex 7738.25 7782.45 599.95
endloop
endfacet
facet normal -0.9244203335627806 -0.38137520487792254 0
outer loop
vertex 7709.780000000001 7838.22 599.95
vertex 7709.780000000001 7838.22 199.94
vertex 7721.740000000001 7809.2300000000005 199.94
endloop
endfacet
facet normal -0.9244203335627806 -0.38137520487792254 0
outer loop
vertex 7709.780000000001 7838.22 599.95
vertex 7721.740000000001 7809.2300000000005 199.94
vertex 7721.740000000001 7809.2300000000005 599.95
endloop
endfacet
facet normal -0.9727617825102798 -0.2318070630662989 0
outer loop
vertex 7702.5 7868.77 599.95
vertex 7702.5 7868.77 199.94
vertex 7709.780000000001 7838.22 199.94
endloop
endfacet
facet normal -0.9727617825102798 -0.2318070630662989 0
outer loop
vertex 7702.5 7868.77 599.95
vertex 7709.780000000001 7838.22 199.94
vertex 7709.780000000001 7838.22 599.95
endloop
endfacet
facet normal -0.9968809728632083 -0.07891974368498353 0
outer loop
vertex 7700.030000000001 7899.97 599.95
vertex 7700.030000000001 7899.97 199.94
vertex 7702.5 7868.77 199.94
endloop
endfacet
facet normal -0.9968809728632083 -0.07891974368498353 0
outer loop
vertex 7700.030000000001 7899.97 599.95
vertex 7702.5 7868.77 199.94
vertex 7702.5 7868.77 599.95
endloop
endfacet
facet normal 0 1 0
outer loop
vertex 6500 7300.02 599.95
vertex 6500 7300.02 199.94
vertex 4499.95 7300.02 199.94
endloop
endfacet
facet normal 0 1 0
outer loop
vertex 6500 7300.02 599.95
vertex 4499.95 7300.02 199.94
vertex 4499.95 7300.02 599.95
endloop
endfacet
facet normal 0 1 0
outer loop
vertex 9999.99 7300.02 599.95
vertex 9999.99 7300.02 199.94
vertex 7899.97 7300.02 199.94
endloop
endfacet
facet normal 0 1 0
outer loop
vertex 9999.99 7300.02 599.95
vertex 7899.97 7300.02 199.94
vertex 7899.97 7300.02 599.95
endloop
endfacet
facet normal 0 -1 0
outer loop
vertex 7899.97 7700.030000000001 599.95
vertex 7899.97 7700.030000000001 199.94
vertex 9999.99 7700.030000000001 199.94
endloop
endfacet
facet normal 0 -1 0
outer loop
vertex 7899.97 7700.030000000001 599.95
vertex 9999.99 7700.030000000001 199.94
vertex 9999.99 7700.030000000001 599.95
endloop
endfacet
facet normal 0 -0.9999999999999999 0
outer loop
vertex 4499.95 7700.030000000001 599.95
vertex 4499.95 7700.030000000001 199.94
vertex 6300.06 7700.030000000001 199.94
endloop
endfacet
facet normal 0 -0.9999999999999999 0
outer loop
vertex 4499.95 7700.030000000001 599.95
vertex 6300.06 7700.030000000001 199.94
vertex 6300.06 7700.030000000001 599.95
endloop
endfacet
facet normal 1 0 0
outer loop
vertex 4499.95 9800.050000000001 599.95
vertex 4499.95 9800.050000000001 199.94
vertex 4499.95 10200.06 199.94
endloop
endfacet
facet normal 1 0 0
outer loop
vertex 4499.95 9800.050000000001 599.95
vertex 4499.95 10200.06 199.94
vertex 4499.95 10200.06 599.95
endloop
endfacet
facet normal 1 0 0
outer loop
vertex 4499.95 7300.02 599.95
vertex 4499.95 7300.02 199.94
vertex 4499.95 7700.030000000001 199.94
endloop
endfacet
facet normal 1 0 0
outer loop
vertex 4499.95 7300.02 599.95
vertex 4499.95 7700.030000000001 199.94
vertex 4499.95 7700.030000000001 599.95
endloop
endfacet
facet normal -0.9953602693534073 -0.09621815937084051 0
outer loop
vertex 6699.9400000000005 9999.99 199.94
vertex 6699.9400000000005 9999.99 599.95
vertex 6696.17 10038.99 599.95
endloop
endfacet
facet normal -0.9953602693534073 -0.09621815937084051 0
outer loop
vertex 6699.9400000000005 9999.99 199.94
vertex 6696.17 10038.99 599.95
vertex 6696.17 10038.99 199.94
endloop
endfacet
facet normal -0.9566337830211176 -0.29129333185417317 0
outer loop
vertex 6696.17 10038.99 199.94
vertex 6696.17 10038.99 599.95
vertex 6684.7300000000005 10076.56 599.95
endloop
endfacet
facet normal -0.9566337830211176 -0.29129333185417317 0
outer loop
vertex 6696.17 10038.99 199.94
vertex 6684.7300000000005 10076.56 599.95
vertex 6684.7300000000005 10076.56 199.94
endloop
endfacet
facet normal -0.8821692656664153 -0.4709324651301688 0
outer loop
vertex 6684.7300000000005 10076.56 199.94
vertex 6684.7300000000005 10076.56 599.95
vertex 6666.27 10111.140000000001 599.95
endloop
endfacet
facet normal -0.8821692656664153 -0.4709324651301688 0
outer loop
vertex 6684.7300000000005 10076.56 199.94
vertex 6666.27 10111.140000000001 599.95
vertex 6666.27 10111.140000000001 199.94
endloop
endfacet
facet normal -0.7733654271742612 -0.6339605003875025 0
outer loop
vertex 6666.27 10111.140000000001 199.94
vertex 6666.27 10111.140000000001 599.95
vertex 6641.4400000000005 10141.43 599.95
endloop
endfacet
facet normal -0.7733654271742612 -0.6339605003875025 0
outer loop
vertex 6666.27 10111.140000000001 199.94
vertex 6641.4400000000005 10141.43 599.95
vertex 6641.4400000000005 10141.43 199.94
endloop
endfacet
facet normal -0.6339605003874911 -0.7733654271742705 0
outer loop
vertex 6641.4400000000005 10141.43 199.94
vertex 6641.4400000000005 10141.43 599.95
vertex 6611.150000000001 10166.26 599.95
endloop
endfacet
facet normal -0.6339605003874911 -0.7733654271742705 0
outer loop
vertex 6641.4400000000005 10141.43 199.94
vertex 6611.150000000001 10166.26 599.95
vertex 6611.150000000001 10166.26 199.94
endloop
endfacet
facet normal -0.4709324651302061 -0.8821692656663953 0
outer loop
vertex 6611.150000000001 10166.26 199.94
vertex 6611.150000000001 10166.26 599.95
vertex 6576.570000000001 10184.720000000001 599.95
endloop
endfacet
facet normal -0.4709324651302061 -0.8821692656663953 0
outer loop
vertex 6611.150000000001 10166.26 199.94
vertex 6576.570000000001 10184.720000000001 599.95
vertex 6576.570000000001 10184.720000000001 199.94
endloop
endfacet
facet normal -0.2912933318541455 -0.956633783021126 0
outer loop
vertex 6576.570000000001 10184.720000000001 199.94
vertex 6576.570000000001 10184.720000000001 599.95
vertex 6539 10196.16 599.95
endloop
endfacet
facet normal -0.2912933318541455 -0.956633783021126 0
outer loop
vertex 6576.570000000001 10184.720000000001 199.94
vertex 6539 10196.16 599.95
vertex 6539 10196.16 199.94
endloop
endfacet
facet normal -0.09950371902098973 -0.99503719020999 0
outer loop
vertex 6539 10196.16 199.94
vertex 6539 10196.16 599.95
vertex 6500 10200.06 599.95
endloop
endfacet
facet normal -0.09950371902098973 -0.99503719020999 0
outer loop
vertex 6539 10196.16 199.94
vertex 6500 10200.06 599.95
vertex 6500 10200.06 199.94
endloop
endfacet
facet normal -1 0 0
outer loop
vertex 6699.9400000000005 8750.04 400.01
vertex 6699.9400000000005 9800.050000000001 199.94
vertex 6699.9400000000005 7700.030000000001 199.94
endloop
endfacet
facet normal -1 0 0
outer loop
vertex 6699.9400000000005 8750.04 400.01
vertex 6699.9400000000005 7700.030000000001 199.94
vertex 6699.9400000000005 7499.96 199.94
endloop
endfacet
facet normal -1 0 0
outer loop
vertex 6699.9400000000005 8750.04 400.01
vertex 6699.9400000000005 7499.96 199.94
vertex 6699.9400000000005 7499.96 599.95
endloop
endfacet
facet normal -1 0 0
outer loop
vertex 6699.9400000000005 8750.04 400.01
vertex 6699.9400000000005 7499.96 599.95
vertex 6699.9400000000005 7700.030000000001 599.95
endloop
endfacet
facet normal -1 0 0
outer loop
vertex 6699.9400000000005 8750.04 400.01
vertex 6699.9400000000005 7700.030000000001 599.95
vertex 6699.9400000000005 9800.050000000001 599.95
endloop
endfacet
facet normal -1 0 0
outer loop
vertex 6699.9400000000005 8750.04 400.01
vertex 6699.9400000000005 9800.050000000001 599.95
vertex 6699.9400000000005 9999.99 599.95
endloop
endfacet
facet normal -0.9999999999999999 0 0
outer loop
vertex 6699.9400000000005 8750.04 400.01
vertex 6699.9400000000005 9999.99 599.95
vertex 6699.9400000000005 9999.99 199.94
endloop
endfacet
facet normal -1 0 0
outer loop
vertex 6699.9400000000005 8750.04 400.01
vertex 6699.9400000000005 9999.99 199.94
vertex 6699.9400000000005 9800.050000000001 199.94
endloop
endfacet
facet normal -0.09621815937081751 0.9953602693534094 0
outer loop
vertex 6500 7300.02 199.94
vertex 6500 7300.02 599.95
vertex 6539 7303.79 599.95
endloop
endfacet
facet normal -0.09621815937081751 0.9953602693534094 0
outer loop
vertex 6500 7300.02 199.94
vertex 6539 7303.79 599.95
vertex 6539 7303.79 199.94
endloop
endfacet
facet normal -0.2912933318541879 0.956633783021113 0
outer loop
vertex 6539 7303.79 199.94
vertex 6539 7303.79 599.95
vertex 6576.570000000001 7315.2300000000005 599.95
endloop
endfacet
facet normal -0.2912933318541879 0.956633783021113 0
outer loop
vertex 6539 7303.79 199.94
vertex 6576.570000000001 7315.2300000000005 599.95
vertex 6576.570000000001 7315.2300000000005 199.94
endloop
endfacet
facet normal -0.470932465130188 0.8821692656664049 0
outer loop
vertex 6576.570000000001 7315.2300000000005 199.94
vertex 6576.570000000001 7315.2300000000005 599.95
vertex 6611.150000000001 7333.6900000000005 599.95
endloop
endfacet
facet normal -0.470932465130188 0.8821692656664049 0
outer loop
vertex 6576.570000000001 7315.2300000000005 199.94
vertex 6611.150000000001 7333.6900000000005 599.95
vertex 6611.150000000001 7333.6900000000005 199.94
endloop
endfacet
facet normal -0.6339605003874911 0.7733654271742705 0
outer loop
vertex 6611.150000000001 7333.6900000000005 199.94
vertex 6611.150000000001 7333.6900000000005 599.95
vertex 6641.4400000000005 7358.52 599.95
endloop
endfacet
facet normal -0.6339605003874911 0.7733654271742705 0
outer loop
vertex 6611.150000000001 7333.6900000000005 199.94
vertex 6641.4400000000005 7358.52 599.95
vertex 6641.4400000000005 7358.52 199.94
endloop
endfacet
facet normal -0.7746942974007817 0.6323359436049082 0
outer loop
vertex 6641.4400000000005 7358.52 199.94
vertex 6641.4400000000005 7358.52 599.95
vertex 6666.27 7388.9400000000005 599.95
endloop
endfacet
facet normal -0.7746942974007817 0.6323359436049082 0
outer loop
vertex 6641.4400000000005 7358.52 199.94
vertex 6666.27 7388.9400000000005 599.95
vertex 6666.27 7388.9400000000005 199.94
endloop
endfacet
facet normal -0.8821692656664049 0.470932465130188 0
outer loop
vertex 6666.27 7388.9400000000005 199.94
vertex 6666.27 7388.9400000000005 599.95
vertex 6684.7300000000005 7423.52 599.95
endloop
endfacet
facet normal -0.8821692656664049 0.470932465130188 0
outer loop
vertex 6666.27 7388.9400000000005 199.94
vertex 6684.7300000000005 7423.52 599.95
vertex 6684.7300000000005 7423.52 199.94
endloop
endfacet
facet normal -0.9563515710513408 0.2922185355990137 0
outer loop
vertex 6684.7300000000005 7423.52 199.94
vertex 6684.7300000000005 7423.52 599.95
vertex 6696.17 7460.96 599.95
endloop
endfacet
facet normal -0.9563515710513408 0.2922185355990137 0
outer loop
vertex 6684.7300000000005 7423.52 199.94
vertex 6696.17 7460.96 599.95
vertex 6696.17 7460.96 199.94
endloop
endfacet
facet normal -0.9953602693534073 0.09621815937084051 0
outer loop
vertex 6696.17 7460.96 199.94
vertex 6696.17 7460.96 599.95
vertex 6699.9400000000005 7499.96 599.95
endloop
endfacet
facet normal -0.9953602693534073 0.09621815937084051 0
outer loop
vertex 6696.17 7460.96 199.94
vertex 6699.9400000000005 7499.96 599.95
vertex 6699.9400000000005 7499.96 199.94
endloop
endfacet
facet normal 1 0 0
outer loop
vertex 6300.06 7700.030000000001 599.95
vertex 6300.06 7700.030000000001 199.94
vertex 6300.06 9800.050000000001 199.94
endloop
endfacet
facet normal 1 0 0
outer loop
vertex 6300.06 7700.030000000001 599.95
vertex 6300.06 9800.050000000001 199.94
vertex 6300.06 9800.050000000001 599.95
endloop
endfacet
endsolid JSCAD
