solid JSCAD
facet normal -1 0 0
outer loop
vertex 0 0 0
vertex 0 0 3999.9700000000003
vertex 0 15000.050000000001 3999.9700000000003
endloop
endfacet
facet normal -1 0 0
outer loop
vertex 0 0 0
vertex 0 15000.050000000001 3999.9700000000003
vertex 0 15000.050000000001 0
endloop
endfacet
facet normal 1 0 0
outer loop
vertex 19999.98 0 0
vertex 19999.98 15000.050000000001 0
vertex 19999.98 15000.050000000001 3999.9700000000003
endloop
endfacet
facet normal 1 0 0
outer loop
vertex 19999.98 0 0
vertex 19999.98 15000.050000000001 3999.9700000000003
vertex 19999.98 0 3999.9700000000003
endloop
endfacet
facet normal 0 -1 0
outer loop
vertex 0 0 0
vertex 19999.98 0 0
vertex 19999.98 0 3999.9700000000003
endloop
endfacet
facet normal 0 -1 0
outer loop
vertex 0 0 0
vertex 19999.98 0 3999.9700000000003
vertex 0 0 3999.9700000000003
endloop
endfacet
facet normal 0 1 0
outer loop
vertex 0 15000.050000000001 0
vertex 0 15000.050000000001 3999.9700000000003
vertex 19999.98 15000.050000000001 3999.9700000000003
endloop
endfacet
facet normal 0 1 0
outer loop
vertex 0 15000.050000000001 0
vertex 19999.98 15000.050000000001 3999.9700000000003
vertex 19999.98 15000.050000000001 0
endloop
endfacet
facet normal 0 0 -1
outer loop
vertex 0 0 0
vertex 0 15000.050000000001 0
vertex 19999.98 15000.050000000001 0
endloop
endfacet
facet normal 0 0 -1
outer loop
vertex 0 0 0
vertex 19999.98 15000.050000000001 0
vertex 19999.98 0 0
endloop
endfacet
facet normal 0 0 1
outer loop
vertex 0 0 3999.9700000000003
vertex 19999.98 0 3999.9700000000003
vertex 19999.98 15000.050000000001 3999.9700000000003
endloop
endfacet
facet normal 0 0 1
outer loop
vertex 0 0 3999.9700000000003
vertex 19999.98 15000.050000000001 3999.9700000000003
vertex 0 15000.050000000001 3999.9700000000003
endloop
endfacet
facet normal -1 0 0
outer loop
vertex 9999.99 7700.030000000001 599.95
vertex 9999.99 7700.030000000001 199.94
vertex 9999.99 7300.02 199.94
endloop
endfacet
facet normal -1 0 0
outer loop
vertex 9999.99 7700.030000000001 599.95
vertex 9999.99 7300.02 199.94
vertex 9999.99 7300.02 599.95
endloop
endfacet
facet normal -1 0 0
outer loop
vertex 9999.99 10200.06 599.95
vertex 9999.99 10200.06 199.94
vertex 9999.99 9800.050000000001 199.94
endloop
endfacet
facet normal -1 0 0
outer loop
vertex 9999.99 10200.06 599.95
vertex 9999.99 9800.050000000001 199.94
vertex 9999.99 9800.050000000001 599.95
endloop
endfacet
facet normal 0 -1 0
outer loop
vertex 8740.03 10200.06 400.01
vertex 7899.97 10200.06 599.95
vertex 7899.97 10200.06 400.01
endloop
endfacet
facet normal 0 -1 0
outer loop
vertex 8740.03 10200.06 400.01
vertex 7899.97 10200.06 400.01
vertex 7899.97 10200.06 199.94
endloop
endfacet
facet normal 0 -0.9999999999999999 0
outer loop
vertex 8740.03 10200.06 400.01
vertex 7899.97 10200.06 199.94
vertex 9999.99 10200.06 199.94
endloop
endfacet
facet normal 0 -1 0
outer loop
vertex 8740.03 10200.06 400.01
vertex 9999.99 10200.06 199.94
vertex 9999.99 10200.06 599.95
endloop
endfacet
facet normal 0 -1 0
outer loop
vertex 8740.03 10200.06 400.01
vertex 9999.99 10200.06 599.95
vertex 7899.97 10200.06 599.95
endloop
endfacet
facet normal 0 -1 0
outer loop
vertex 4499.95 10200.06 599.95
vertex 4499.95 10200.06 199.94
vertex 6500 10200.06 199.94
endloop
endfacet
facet normal 0 -1 0
outer loop
vertex 4499.95 10200.06 599.95
vertex 6500 10200.06 199.94
vertex 6500 10200.06 599.95
endloop
endfacet
facet normal 0 0.9999999999999999 0
outer loop
vertex 6300.06 9800.050000000001 599.95
vertex 6300.06 9800.050000000001 199.94
vertex 4499.95 9800.050000000001 199.94
endloop
endfacet
facet normal 0 0.9999999999999999 0
outer loop
vertex 6300.06 9800.050000000001 599.95
vertex 4499.95 9800.050000000001 199.94
vertex 4499.95 9800.050000000001 599.95
endloop
endfacet
facet normal 0 1 0
outer loop
vertex 8740.03 9800.050000000001 400.01
vertex 9999.99 9800.050000000001 599.95
vertex 9999.99 9800.050000000001 199.94
endloop
endfacet
facet normal 0 0.9999999999999999 0
outer loop
vertex 8740.03 9800.050000000001 400.01
vertex 9999.99 9800.050000000001 199.94
vertex 7899.97 9800.050000000001 199.94
endloop
endfacet
facet normal 0 1 0
outer loop
vertex 8740.03 9800.050000000001 400.01
vertex 7899.97 9800.050000000001 199.94
vertex 7899.97 9800.050000000001 400.01
endloop
endfacet
facet normal 0 1 0
outer loop
vertex 8740.03 9800.050000000001 400.01
vertex 7899.97 9800.050000000001 400.01
vertex 7899.97 9800.050000000001 599.95
endloop
endfacet
facet normal 0 1 0
outer loop
vertex 8740.03 9800.050000000001 400.01
vertex 7899.97 9800.050000000001 599.95
vertex 9999.99 9800.050000000001 599.95
endloop
endfacet
facet normal 0 0 1
outer loop
vertex 7899.97 10200.06 199.94
vertex 7899.97 9800.050000000001 199.94
vertex 9999.99 9800.050000000001 199.94
endloop
endfacet
facet normal 0 0 1
outer loop
vertex 7899.97 10200.06 199.94
vertex 9999.99 9800.050000000001 199.94
vertex 9999.99 10200.06 199.94
endloop
endfacet
facet normal 0 0 1
outer loop
vertex 6278.09 10054.98 199.94
vertex 4499.95 10200.06 199.94
vertex 4499.95 9800.050000000001 199.94
endloop
endfacet
facet normal 0 0 1
outer loop
vertex 6278.09 10054.98 199.94
vertex 4499.95 9800.050000000001 199.94
vertex 6300.06 9800.050000000001 199.94
endloop
endfacet
facet normal 0 0 1
outer loop
vertex 6278.09 10054.98 199.94
vertex 6300.06 9800.050000000001 199.94
vertex 6699.9400000000005 9800.050000000001 199.94
endloop
endfacet
facet normal 0 0 1
outer loop
vertex 6278.09 10054.98 199.94
vertex 6699.9400000000005 9800.050000000001 199.94
vertex 6699.9400000000005 9999.99 199.94
endloop
endfacet
facet normal 0 0 1
outer loop
vertex 6278.09 10054.98 199.94
vertex 6699.9400000000005 9999.99 199.94
vertex 6696.17 10038.99 199.94
endloop
endfacet
facet normal 0 0 0.9999999999999999
outer loop
vertex 6278.09 10054.98 199.94
vertex 6696.17 10038.99 199.94
vertex 6684.7300000000005 10076.56 199.94
endloop
endfacet
facet normal 0 0 0.9999999999999999
outer loop
vertex 6278.09 10054.98 199.94
vertex 6684.7300000000005 10076.56 199.94
vertex 6666.27 10111.140000000001 199.94
endloop
endfacet
facet normal 0 0 0.9999999999999999
outer loop
vertex 6278.09 10054.98 199.94
vertex 6666.27 10111.140000000001 199.94
vertex 6641.4400000000005 10141.43 199.94
endloop
endfacet
facet normal 0 0 1
outer loop
vertex 6278.09 10054.98 199.94
vertex 6641.4400000000005 10141.43 199.94
vertex 6611.150000000001 10166.26 199.94
endloop
endfacet
facet normal 0 0 1
outer loop
vertex 6278.09 10054.98 199.94
vertex 6611.150000000001 10166.26 199.94
vertex 6576.570000000001 10184.720000000001 199.94
endloop
endfacet
facet normal 0 0 1
outer loop
vertex 6278.09 10054.98 199.94
vertex 6576.570000000001 10184.720000000001 199.94
vertex 6539 10196.16 199.94
endloop
endfacet
facet normal 0 0 1
outer loop
vertex 6278.09 10054.98 199.94
vertex 6539 10196.16 199.94
vertex 6500 10200.06 199.94
endloop
endfacet
facet normal 0 0 1
outer loop
vertex 6278.09 10054.98 199.94
vertex 6500 10200.06 199.94
vertex 4499.95 10200.06 199.94
endloop
endfacet
facet normal 0 0 1
outer loop
vertex 7300.02 9599.98 199.94
vertex 7300.02 7899.97 199.94
vertex 7700.030000000001 7899.97 199.94
endloop
endfacet
facet normal 0 0 1
outer loop
vertex 7300.02 9599.98 199.94
vertex 7700.030000000001 7899.97 199.94
vertex 7700.030000000001 9599.98 199.94
endloop
endfacet
facet normal 0 0 1
outer loop
vertex 6300.06 9800.050000000001 199.94
vertex 6300.06 7700.030000000001 199.94
vertex 6699.9400000000005 7700.030000000001 199.94
endloop
endfacet
facet normal 0 0 1
outer loop
vertex 6300.06 9800.050000000001 199.94
vertex 6699.9400000000005 7700.030000000001 199.94
vertex 6699.9400000000005 9800.050000000001 199.94
endloop
endfacet
facet normal 0 0 1
outer loop
vertex 7899.97 7700.030000000001 199.94
vertex 7899.97 7300.02 199.94
vertex 9999.99 7300.02 199.94
endloop
endfacet
facet normal 0 0 1
outer loop
vertex 7899.97 7700.030000000001 199.94
vertex 9999.99 7300.02 199.94
vertex 9999.99 7700.030000000001 199.94
endloop
endfacet
facet normal 0 0 1
outer loop
vertex 6278.09 7444.97 199.94
vertex 6300.06 7700.030000000001 199.94
vertex 4499.95 7700.030000000001 199.94
endloop
endfacet
facet normal 0 0 1
outer loop
vertex 6278.09 7444.97 199.94
vertex 4499.95 7700.030000000001 199.94
vertex 4499.95 7300.02 199.94
endloop
endfacet
facet normal 0 0 1
outer loop
vertex 6278.09 7444.97 199.94
vertex 4499.95 7300.02 199.94
vertex 6500 7300.02 199.94
endloop
endfacet
facet normal 0 0 1
outer loop
vertex 6278.09 7444.97 199.94
vertex 6500 7300.02 199.94
vertex 6539 7303.79 199.94
endloop
endfacet
facet normal 0 0 1
outer loop
vertex 6278.09 7444.97 199.94
vertex 6539 7303.79 199.94
vertex 6576.570000000001 7315.2300000000005 199.94
endloop
endfacet
facet normal 0 0 0.9999999999999999
outer loop
vertex 6278.09 7444.97 199.94
vertex 6576.570000000001 7315.2300000000005 199.94
vertex 6611.150000000001 7333.6900000000005 199.94
endloop
endfacet
facet normal 0 0 1
outer loop
vertex 6278.09 7444.97 199.94
vertex 6611.150000000001 7333.6900000000005 199.94
vertex 6641.4400000000005 7358.52 199.94
endloop
endfacet
facet normal 0 0 1
outer loop
vertex 6278.09 7444.97 199.94
vertex 6641.4400000000005 7358.52 199.94
vertex 6666.27 7388.9400000000005 199.94
endloop
endfacet
facet normal 0 0 0.9999999999999999
outer loop
vertex 6278.09 7444.97 199.94
vertex 6666.27 7388.9400000000005 199.94
vertex 6684.7300000000005 7423.52 199.94
endloop
endfacet
facet normal 0 0 0.9999999999999999
outer loop
vertex 6278.09 7444.97 199.94
vertex 6684.7300000000005 7423.52 199.94
vertex 6696.17 7460.96 199.94
endloop
endfacet
facet normal 0 0 1
outer loop
vertex 6278.09 7444.97 199.94
vertex 6696.17 7460.96 199.94
vertex 6699.9400000000005 7499.96 199.94
endloop
endfacet
facet normal 0 0 1
outer loop
vertex 6278.09 7444.97 199.94
vertex 6699.9400000000005 7499.96 199.94
vertex 6699.9400000000005 7700.030000000001 199.94
endloop
endfacet
facet normal 0 0 1
outer loop
vertex 6278.09 7444.97 199.94
vertex 6699.9400000000005 7700.030000000001 199.94
vertex 6300.06 7700.030000000001 199.94
endloop
endfacet
facet normal 0 0 -1
outer loop
vertex 6278.09 10054.98 599.95
vertex 6500 10200.06 599.95
vertex 6539 10196.16 599.95
endloop
endfacet
facet normal 0 0 -1
outer loop
vertex 6278.09 10054.98 599.95
vertex 6539 10196.16 599.95
vertex 6576.570000000001 10184.720000000001 599.95
endloop
endfacet
facet normal 0 0 -1
outer loop
vertex 6278.09 10054.98 599.95
vertex 6576.570000000001 10184.720000000001 599.95
vertex 6611.150000000001 10166.26 599.95
endloop
endfacet
facet normal 0 0 -1
outer loop
vertex 6278.09 10054.98 599.95
vertex 6611.150000000001 10166.26 599.95
vertex 6641.4400000000005 10141.43 599.95
endloop
endfacet
facet normal 0 0 -0.9999999999999999
outer loop
vertex 6278.09 10054.98 599.95
vertex 6641.4400000000005 10141.43 599.95
vertex 6666.27 10111.140000000001 599.95
endloop
endfacet
facet normal 0 0 -0.9999999999999999
outer loop
vertex 6278.09 10054.98 599.95
vertex 6666.27 10111.140000000001 599.95
vertex 6684.7300000000005 10076.56 599.95
endloop
endfacet
facet normal 0 0 -0.9999999999999999
outer loop
vertex 6278.09 10054.98 599.95
vertex 6684.7300000000005 10076.56 599.95
vertex 6696.17 10038.99 599.95
endloop
endfacet
facet normal 0 0 -1
outer loop
vertex 6278.09 10054.98 599.95
vertex 6696.17 10038.99 599.95
vertex 6699.9400000000005 9999.99 599.95
endloop
endfacet
facet normal 0 0 -1
outer loop
vertex 6278.09 10054.98 599.95
vertex 6699.9400000000005 9999.99 599.95
vertex 6699.9400000000005 9800.050000000001 599.95
endloop
endfacet
facet normal 0 0 -1
outer loop
vertex 6278.09 10054.98 599.95
vertex 6699.9400000000005 9800.050000000001 599.95
vertex 6300.06 9800.050000000001 599.95
endloop
endfacet
facet normal 0 0 -1
outer loop
vertex 6278.09 10054.98 599.95
vertex 6300.06 9800.050000000001 599.95
vertex 4499.95 9800.050000000001 599.95
endloop
endfacet
facet normal 0 0 -1
outer loop
vertex 6278.09 10054.98 599.95
vertex 4499.95 9800.050000000001 599.95
vertex 4499.95 10200.06 599.95
endloop
endfacet
facet normal 0 0 -1
outer loop
vertex 6278.09 10054.98 599.95
vertex 4499.95 10200.06 599.95
vertex 6500 10200.06 599.95
endloop
endfacet
facet normal 0 0 -1
outer loop
vertex 9999.99 10200.06 599.95
vertex 9999.99 9800.050000000001 599.95
vertex 7899.97 9800.050000000001 599.95
endloop
endfacet
facet normal 0 0 -1
outer loop
vertex 9999.99 10200.06 599.95
vertex 7899.97 9800.050000000001 599.95
vertex 7899.97 10200.06 599.95
endloop
endfacet
facet normal 0 0 -1
outer loop
vertex 7700.030000000001 9599.98 599.95
vertex 7700.030000000001 7899.97 599.95
vertex 7300.02 7899.97 599.95
endloop
endfacet
facet normal 0 0 -1
outer loop
vertex 7700.030000000001 9599.98 599.95
vertex 7300.02 7899.97 599.95
vertex 7300.02 9599.98 599.95
endloop
endfacet
facet normal 0 0 -1
outer loop
vertex 6699.9400000000005 9800.050000000001 599.95
vertex 6699.9400000000005 7700.030000000001 599.95
vertex 6300.06 7700.030000000001 599.95
endloop
endfacet
facet normal 0 0 -1
outer loop
vertex 6699.9400000000005 9800.050000000001 599.95
vertex 6300.06 7700.030000000001 599.95
vertex 6300.06 9800.050000000001 599.95
endloop
endfacet
facet normal 0 0 -1
outer loop
vertex 6278.09 7444.97 599.95
vertex 6300.06 7700.030000000001 599.95
vertex 6699.9400000000005 7700.030000000001 599.95
endloop
endfacet
facet normal 0 0 -1
outer loop
vertex 6278.09 7444.97 599.95
vertex 6699.9400000000005 7700.030000000001 599.95
vertex 6699.9400000000005 7499.96 599.95
endloop
endfacet
facet normal 0 0 -1
outer loop
vertex 6278.09 7444.97 599.95
vertex 6699.9400000000005 7499.96 599.95
vertex 6696.17 7460.96 599.95
endloop
endfacet
facet normal 0 0 -0.9999999999999999
outer loop
vertex 6278.09 7444.97 599.95
vertex 6696.17 7460.96 599.95
vertex 6684.7300000000005 7423.52 599.95
endloop
endfacet
facet normal 0 0 -0.9999999999999999
outer loop
vertex 6278.09 7444.97 599.95
vertex 6684.7300000000005 7423.52 599.95
vertex 6666.27 7388.9400000000005 599.95
endloop
endfacet
facet normal 0 0 -1
outer loop
vertex 6278.09 7444.97 599.95
vertex 6666.27 7388.9400000000005 599.95
vertex 6641.4400000000005 7358.52 599.95
endloop
endfacet
facet normal 0 0 -1
outer loop
vertex 6278.09 7444.97 599.95
vertex 6641.4400000000005 7358.52 599.95
vertex 6611.150000000001 7333.6900000000005 599.95
endloop
endfacet
facet normal 0 0 -0.9999999999999999
outer loop
vertex 6278.09 7444.97 599.95
vertex 6611.150000000001 7333.6900000000005 599.95
vertex 6576.570000000001 7315.2300000000005 599.95
endloop
endfacet
facet normal 0 0 -1
outer loop
vertex 6278.09 7444.97 599.95
vertex 6576.570000000001 7315.2300000000005 599.95
vertex 6539 7303.79 599.95
endloop
endfacet
facet normal 0 0 -1
outer loop
vertex 6278.09 7444.97 599.95
vertex 6539 7303.79 599.95
vertex 6500 7300.02 599.95
endloop
endfacet
facet normal 0 0 -1
outer loop
vertex 6278.09 7444.97 599.95
vertex 6500 7300.02 599.95
vertex 4499.95 7300.02 599.95
endloop
endfacet
facet normal 0 0 -1
outer loop
vertex 6278.09 7444.97 599.95
vertex 4499.95 7300.02 599.95
vertex 4499.95 7700.030000000001 599.95
endloop
endfacet
facet normal 0 0 -1
outer loop
vertex 6278.09 7444.97 599.95
vertex 4499.95 7700.030000000001 599.95
vertex 6300.06 7700.030000000001 599.95
endloop
endfacet
facet normal 0 0 -1
outer loop
vertex 9999.99 7700.030000000001 599.95
vertex 9999.99 7300.02 599.95
vertex 7899.97 7300.02 599.95
endloop
endfacet
facet normal 0 0 -1
outer loop
vertex 9999.99 7700.030000000001 599.95
vertex 7899.97 7300.02 599.95
vertex 7899.97 7700.030000000001 599.95
endloop
endfacet
facet normal 0.05159171825665271 -0.9986682605386668 0
outer loop
vertex 7876.4400000000005 10198.890000000001 599.95
vertex 7841.21 10197.07 800.02
vertex 7841.21 10197.07 400.01
endloop
endfacet
facet normal 0.05081920526862756 -0.9987078600618007 0.00013647946233985456
outer loop
vertex 7876.4400000000005 10198.890000000001 599.95
vertex 7841.21 10197.07 400.01
vertex 7899.97 10200.06 400.01
endloop
endfacet
facet normal 0.04966240085638049 -0.9987660616686874 0
outer loop
vertex 7876.4400000000005 10198.890000000001 599.95
vertex 7899.97 10200.06 400.01
vertex 7899.97 10200.06 599.95
endloop
endfacet
facet normal 0.04966240085638048 -0.9987660616686874 0
outer loop
vertex 7876.4400000000005 10198.890000000001 599.95
vertex 7899.97 10200.06 599.95
vertex 7899.97 10200.06 800.02
endloop
endfacet
facet normal 0.05081920526924242 -0.9987078600738842 -0.00013639078172919826
outer loop
vertex 7876.4400000000005 10198.890000000001 599.95
vertex 7899.97 10200.06 800.02
vertex 7841.21 10197.07 800.02
endloop
endfacet
facet normal 0.1457482869616241 -0.9893217054364835 0
outer loop
vertex 7782.97 10188.49 800.02
vertex 7782.97 10188.49 400.01
vertex 7841.21 10197.07 400.01
endloop
endfacet
facet normal 0.1457482869616241 -0.9893217054364835 0
outer loop
vertex 7782.97 10188.49 800.02
vertex 7841.21 10197.07 400.01
vertex 7841.21 10197.07 800.02
endloop
endfacet
facet normal 0.2425356250363221 -0.9701425001453347 0
outer loop
vertex 7725.77 10174.19 800.02
vertex 7725.77 10174.19 400.01
vertex 7782.97 10188.49 400.01
endloop
endfacet
facet normal 0.2425356250363221 -0.9701425001453347 0
outer loop
vertex 7725.77 10174.19 800.02
vertex 7782.97 10188.49 400.01
vertex 7782.97 10188.49 800.02
endloop
endfacet
facet normal 0.33801529225649973 -0.9411406176553815 0
outer loop
vertex 7670.39 10154.300000000001 800.02
vertex 7670.39 10154.300000000001 400.01
vertex 7725.77 10174.19 400.01
endloop
endfacet
facet normal 0.33801529225649973 -0.9411406176553815 0
outer loop
vertex 7670.39 10154.300000000001 800.02
vertex 7725.77 10174.19 400.01
vertex 7725.77 10174.19 800.02
endloop
endfacet
facet normal 0.4267551785258984 -0.9043671917984025 0
outer loop
vertex 7617.22 10129.210000000001 800.02
vertex 7617.22 10129.210000000001 400.01
vertex 7670.39 10154.300000000001 400.01
endloop
endfacet
facet normal 0.4267551785258984 -0.9043671917984025 0
outer loop
vertex 7617.22 10129.210000000001 800.02
vertex 7670.39 10154.300000000001 400.01
vertex 7670.39 10154.300000000001 800.02
endloop
endfacet
facet normal 0.5138469753441591 -0.8578818601239097 0
outer loop
vertex 7566.650000000001 10098.92 800.02
vertex 7566.650000000001 10098.92 400.01
vertex 7617.22 10129.210000000001 400.01
endloop
endfacet
facet normal 0.5138469753441591 -0.8578818601239097 0
outer loop
vertex 7566.650000000001 10098.92 800.02
vertex 7617.22 10129.210000000001 400.01
vertex 7617.22 10129.210000000001 800.02
endloop
endfacet
facet normal 0.595755106169228 -0.8031661431318503 0
outer loop
vertex 7519.33 10063.82 800.02
vertex 7519.33 10063.82 400.01
vertex 7566.650000000001 10098.92 400.01
endloop
endfacet
facet normal 0.595755106169228 -0.8031661431318503 0
outer loop
vertex 7519.33 10063.82 800.02
vertex 7566.650000000001 10098.92 400.01
vertex 7566.650000000001 10098.92 800.02
endloop
endfacet
facet normal 0.6720123569502384 -0.7405399328234672 0
outer loop
vertex 7475.780000000001 10024.300000000001 800.02
vertex 7475.780000000001 10024.300000000001 400.01
vertex 7519.33 10063.82 400.01
endloop
endfacet
facet normal 0.6720123569502384 -0.7405399328234672 0
outer loop
vertex 7475.780000000001 10024.300000000001 800.02
vertex 7519.33 10063.82 400.01
vertex 7519.33 10063.82 800.02
endloop
endfacet
facet normal 0.7404384416104145 -0.672124180628506 0
outer loop
vertex 7436.13 9980.62 800.02
vertex 7436.13 9980.62 400.01
vertex 7475.780000000001 10024.300000000001 400.01
endloop
endfacet
facet normal 0.7404384416104145 -0.672124180628506 0
outer loop
vertex 7436.13 9980.62 800.02
vertex 7475.780000000001 10024.300000000001 400.01
vertex 7475.780000000001 10024.300000000001 800.02
endloop
endfacet
facet normal 0.8042220557187779 -0.5943289367811927 0
outer loop
vertex 7401.16 9933.300000000001 800.02
vertex 7401.16 9933.300000000001 400.01
vertex 7436.13 9980.62 400.01
endloop
endfacet
facet normal 0.8042220557187779 -0.5943289367811927 0
outer loop
vertex 7401.16 9933.300000000001 800.02
vertex 7436.13 9980.62 400.01
vertex 7436.13 9980.62 800.02
endloop
endfacet
facet normal 0.8572979055594678 -0.5148206494725612 0
outer loop
vertex 7370.87 9882.86 800.02
vertex 7370.87 9882.86 400.01
vertex 7401.16 9933.300000000001 400.01
endloop
endfacet
facet normal 0.8572979055594678 -0.5148206494725612 0
outer loop
vertex 7370.87 9882.86 800.02
vertex 7401.16 9933.300000000001 400.01
vertex 7401.16 9933.300000000001 800.02
endloop
endfacet
facet normal 0.9039173257915208 -0.42770722244767534 0
outer loop
vertex 7345.650000000001 9829.56 800.02
vertex 7345.650000000001 9829.56 400.01
vertex 7370.87 9882.86 400.01
endloop
endfacet
facet normal 0.9039173257915208 -0.42770722244767534 0
outer loop
vertex 7345.650000000001 9829.56 800.02
vertex 7370.87 9882.86 400.01
vertex 7370.87 9882.86 800.02
endloop
endfacet
facet normal 0.941841910501834 -0.3360562685358742 0
outer loop
vertex 7325.89 9774.18 800.02
vertex 7325.89 9774.18 400.01
vertex 7345.650000000001 9829.56 400.01
endloop
endfacet
facet normal 0.941841910501834 -0.3360562685358742 0
outer loop
vertex 7325.89 9774.18 800.02
vertex 7345.650000000001 9829.56 400.01
vertex 7345.650000000001 9829.56 800.02
endloop
endfacet
facet normal 0.9700123846348317 -0.24305549501101 0
outer loop
vertex 7311.59 9717.11 800.02
vertex 7311.59 9717.11 400.01
vertex 7325.89 9774.18 400.01
endloop
endfacet
facet normal 0.9700123846348317 -0.24305549501101 0
outer loop
vertex 7311.59 9717.11 800.02
vertex 7325.89 9774.18 400.01
vertex 7325.89 9774.18 800.02
endloop
endfacet
facet normal 0.9890010290116976 -0.14790863603523272 0
outer loop
vertex 7302.88 9658.87 800.02
vertex 7302.88 9658.87 400.01
vertex 7311.59 9717.11 400.01
endloop
endfacet
facet normal 0.9890010290116976 -0.14790863603523272 0
outer loop
vertex 7302.88 9658.87 800.02
vertex 7311.59 9717.11 400.01
vertex 7311.59 9717.11 800.02
endloop
endfacet
facet normal 0.9987660616686838 -0.049662400856455596 0
outer loop
vertex 7301.1900000000005 9623.51 599.95
vertex 7300.02 9599.98 800.02
vertex 7300.02 9599.98 599.95
endloop
endfacet
facet normal 0.9987660616686835 -0.04966240085645558 0
outer loop
vertex 7301.1900000000005 9623.51 599.95
vertex 7300.02 9599.98 599.95
vertex 7300.02 9599.98 400.01
endloop
endfacet
facet normal 0.9988227872074028 -0.04850794993059577 -0.00013619385398511423
outer loop
vertex 7301.1900000000005 9623.51 599.95
vertex 7300.02 9599.98 400.01
vertex 7302.88 9658.87 400.01
endloop
endfacet
facet normal 0.9988598141635507 -0.047739623471039966 0
outer loop
vertex 7301.1900000000005 9623.51 599.95
vertex 7302.88 9658.87 400.01
vertex 7302.88 9658.87 800.02
endloop
endfacet
facet normal 0.9988227872194375 -0.04850794993118024 0.00013610535895492505
outer loop
vertex 7301.1900000000005 9623.51 599.95
vertex 7302.88 9658.87 800.02
vertex 7300.02 9599.98 800.02
endloop
endfacet
facet normal -0.9990353307775129 0.043913640913334405 0
outer loop
vertex 7700.42 9607.78 599.95
vertex 7700.9400000000005 9619.61 800.02
vertex 7700.9400000000005 9619.61 400.01
endloop
endfacet
facet normal -0.9989272044368659 0.04630788364938132 0.0001419431692736387
outer loop
vertex 7700.42 9607.78 599.95
vertex 7700.9400000000005 9619.61 400.01
vertex 7700.030000000001 9599.98 400.01
endloop
endfacet
facet normal -0.9987523388778486 0.049937616943810915 0
outer loop
vertex 7700.42 9607.78 599.95
vertex 7700.030000000001 9599.98 400.01
vertex 7700.030000000001 9599.98 599.95
endloop
endfacet
facet normal -0.9987523388778488 0.04993761694381092 0
outer loop
vertex 7700.42 9607.78 599.95
vertex 7700.030000000001 9599.98 599.95
vertex 7700.030000000001 9599.98 800.02
endloop
endfacet
facet normal -0.9989272044499392 0.04630788364998737 -0.00014185093849624012
outer loop
vertex 7700.42 9607.78 599.95
vertex 7700.030000000001 9599.98 800.02
vertex 7700.9400000000005 9619.61 800.02
endloop
endfacet
facet normal -0.9892746411523289 0.14606739668020058 0
outer loop
vertex 7703.8 9638.98 800.02
vertex 7703.8 9638.98 400.01
vertex 7700.9400000000005 9619.61 400.01
endloop
endfacet
facet normal -0.9892746411523289 0.14606739668020058 0
outer loop
vertex 7703.8 9638.98 800.02
vertex 7700.9400000000005 9619.61 400.01
vertex 7700.9400000000005 9619.61 800.02
endloop
endfacet
facet normal -0.9697532018619667 0.24408754060472557 0
outer loop
vertex 7708.610000000001 9658.09 800.02
vertex 7708.610000000001 9658.09 400.01
vertex 7703.8 9638.98 400.01
endloop
endfacet
facet normal -0.9697532018619667 0.24408754060472557 0
outer loop
vertex 7708.610000000001 9658.09 800.02
vertex 7703.8 9638.98 400.01
vertex 7703.8 9638.98 800.02
endloop
endfacet
facet normal -0.9411406176553819 0.3380152922564987 0
outer loop
vertex 7715.240000000001 9676.550000000001 800.02
vertex 7715.240000000001 9676.550000000001 400.01
vertex 7708.610000000001 9658.09 400.01
endloop
endfacet
facet normal -0.9411406176553819 0.3380152922564987 0
outer loop
vertex 7715.240000000001 9676.550000000001 800.02
vertex 7708.610000000001 9658.09 400.01
vertex 7708.610000000001 9658.09 800.02
endloop
endfacet
facet normal -0.9048187022009856 0.42579703632989746 0
outer loop
vertex 7723.56 9694.23 800.02
vertex 7723.56 9694.23 400.01
vertex 7715.240000000001 9676.550000000001 400.01
endloop
endfacet
facet normal -0.9048187022009856 0.42579703632989746 0
outer loop
vertex 7723.56 9694.23 800.02
vertex 7715.240000000001 9676.550000000001 400.01
vertex 7715.240000000001 9676.550000000001 800.02
endloop
endfacet
facet normal -0.8574929257125766 0.5144957554274722 0
outer loop
vertex 7733.7 9711.130000000001 800.02
vertex 7733.7 9711.130000000001 400.01
vertex 7723.56 9694.23 400.01
endloop
endfacet
facet normal -0.8574929257125766 0.5144957554274722 0
outer loop
vertex 7733.7 9711.130000000001 800.02
vertex 7723.56 9694.23 400.01
vertex 7723.56 9694.23 800.02
endloop
endfacet
facet normal -0.8023809168082335 0.596812252171467 0
outer loop
vertex 7745.400000000001 9726.86 800.02
vertex 7745.400000000001 9726.86 400.01
vertex 7733.7 9711.130000000001 400.01
endloop
endfacet
facet normal -0.8023809168082335 0.596812252171467 0
outer loop
vertex 7745.400000000001 9726.86 800.02
vertex 7733.7 9711.130000000001 400.01
vertex 7733.7 9711.130000000001 800.02
endloop
endfacet
facet normal -0.742634382085911 0.6696970767025023 0
outer loop
vertex 7758.530000000001 9741.42 800.02
vertex 7758.530000000001 9741.42 400.01
vertex 7745.400000000001 9726.86 400.01
endloop
endfacet
facet normal -0.742634382085911 0.6696970767025023 0
outer loop
vertex 7758.530000000001 9741.42 800.02
vertex 7745.400000000001 9726.86 400.01
vertex 7745.400000000001 9726.86 800.02
endloop
endfacet
facet normal -0.6696970767025279 0.742634382085888 0
outer loop
vertex 7773.09 9754.550000000001 800.02
vertex 7773.09 9754.550000000001 400.01
vertex 7758.530000000001 9741.42 400.01
endloop
endfacet
facet normal -0.6696970767025279 0.742634382085888 0
outer loop
vertex 7773.09 9754.550000000001 800.02
vertex 7758.530000000001 9741.42 400.01
vertex 7758.530000000001 9741.42 800.02
endloop
endfacet
facet normal -0.593648948570195 0.8047241302841005 0
outer loop
vertex 7788.95 9766.25 800.02
vertex 7788.95 9766.25 400.01
vertex 7773.09 9754.550000000001 400.01
endloop
endfacet
facet normal -0.593648948570195 0.8047241302841005 0
outer loop
vertex 7788.95 9766.25 800.02
vertex 7773.09 9754.550000000001 400.01
vertex 7773.09 9754.550000000001 800.02
endloop
endfacet
facet normal -0.5174193389092308 0.8557319835805687 0
outer loop
vertex 7805.72 9776.390000000001 800.02
vertex 7805.72 9776.390000000001 400.01
vertex 7788.95 9766.25 400.01
endloop
endfacet
facet normal -0.5174193389092308 0.8557319835805687 0
outer loop
vertex 7805.72 9776.390000000001 800.02
vertex 7788.95 9766.25 400.01
vertex 7788.95 9766.25 800.02
endloop
endfacet
facet normal -0.4312207353142748 0.9022464615807678 0
outer loop
vertex 7823.400000000001 9784.84 800.02
vertex 7823.400000000001 9784.84 400.01
vertex 7805.72 9776.390000000001 400.01
endloop
endfacet
facet normal -0.4312207353142748 0.9022464615807678 0
outer loop
vertex 7823.400000000001 9784.84 800.02
vertex 7805.72 9776.390000000001 400.01
vertex 7805.72 9776.390000000001 800.02
endloop
endfacet
facet normal -0.3300563718411834 0.9439612234657919 0
outer loop
vertex 7841.990000000001 9791.34 800.02
vertex 7841.990000000001 9791.34 400.01
vertex 7823.400000000001 9784.84 400.01
endloop
endfacet
facet normal -0.3300563718411834 0.9439612234657919 0
outer loop
vertex 7841.990000000001 9791.34 800.02
vertex 7823.400000000001 9784.84 400.01
vertex 7823.400000000001 9784.84 800.02
endloop
endfacet
facet normal -0.24565880350760583 0.9693563597868493 0
outer loop
vertex 7860.97 9796.15 800.02
vertex 7860.97 9796.15 400.01
vertex 7841.990000000001 9791.34 400.01
endloop
endfacet
facet normal -0.24565880350760583 0.9693563597868493 0
outer loop
vertex 7860.97 9796.15 800.02
vertex 7841.990000000001 9791.34 400.01
vertex 7841.990000000001 9791.34 800.02
endloop
endfacet
facet normal -0.1460673966802393 0.989274641152323 0
outer loop
vertex 7880.34 9799.01 800.02
vertex 7880.34 9799.01 400.01
vertex 7860.97 9796.15 400.01
endloop
endfacet
facet normal -0.1460673966802393 0.989274641152323 0
outer loop
vertex 7880.34 9799.01 800.02
vertex 7860.97 9796.15 400.01
vertex 7860.97 9796.15 800.02
endloop
endfacet
facet normal -0.049937616944049065 0.998752338877837 0
outer loop
vertex 7892.17 9799.66 599.95
vertex 7899.97 9800.050000000001 800.02
vertex 7899.97 9800.050000000001 599.95
endloop
endfacet
facet normal -0.049937616944049065 0.998752338877837 0
outer loop
vertex 7892.17 9799.66 599.95
vertex 7899.97 9800.050000000001 599.95
vertex 7899.97 9800.050000000001 400.01
endloop
endfacet
facet normal -0.05290593343872995 0.9985994936551951 -0.00011609722064290294
outer loop
vertex 7892.17 9799.66 599.95
vertex 7899.97 9800.050000000001 400.01
vertex 7880.34 9799.01 400.01
endloop
endfacet
facet normal -0.054862303828837757 0.9984939296853999 0
outer loop
vertex 7892.17 9799.66 599.95
vertex 7880.34 9799.01 400.01
vertex 7880.34 9799.01 800.02
endloop
endfacet
facet normal -0.052905933439193156 0.998599493663938 0.00011602178385337761
outer loop
vertex 7892.17 9799.66 599.95
vertex 7880.34 9799.01 800.02
vertex 7899.97 9800.050000000001 800.02
endloop
endfacet
facet normal 0 0 -1
outer loop
vertex 7610.46 10015.98 800.02
vertex 7899.97 9800.050000000001 800.02
vertex 7880.34 9799.01 800.02
endloop
endfacet
facet normal 0 0 -1
outer loop
vertex 7610.46 10015.98 800.02
vertex 7880.34 9799.01 800.02
vertex 7334.7300000000005 9799.01 800.02
endloop
endfacet
facet normal 0 0 -0.9999999999999999
outer loop
vertex 7610.46 10015.98 800.02
vertex 7334.7300000000005 9799.01 800.02
vertex 7345.650000000001 9829.56 800.02
endloop
endfacet
facet normal 0 0 -1
outer loop
vertex 7610.46 10015.98 800.02
vertex 7345.650000000001 9829.56 800.02
vertex 7370.87 9882.86 800.02
endloop
endfacet
facet normal 0 0 -1
outer loop
vertex 7610.46 10015.98 800.02
vertex 7370.87 9882.86 800.02
vertex 7401.16 9933.300000000001 800.02
endloop
endfacet
facet normal 0 0 -1
outer loop
vertex 7610.46 10015.98 800.02
vertex 7401.16 9933.300000000001 800.02
vertex 7436.13 9980.62 800.02
endloop
endfacet
facet normal 0 0 -1
outer loop
vertex 7610.46 10015.98 800.02
vertex 7436.13 9980.62 800.02
vertex 7475.780000000001 10024.300000000001 800.02
endloop
endfacet
facet normal 0 0 -0.9999999999999999
outer loop
vertex 7610.46 10015.98 800.02
vertex 7475.780000000001 10024.300000000001 800.02
vertex 7519.33 10063.82 800.02
endloop
endfacet
facet normal 0 0 -1
outer loop
vertex 7610.46 10015.98 800.02
vertex 7519.33 10063.82 800.02
vertex 7566.650000000001 10098.92 800.02
endloop
endfacet
facet normal 0 0 -1
outer loop
vertex 7610.46 10015.98 800.02
vertex 7566.650000000001 10098.92 800.02
vertex 7617.22 10129.210000000001 800.02
endloop
endfacet
facet normal 0 0 -1
outer loop
vertex 7610.46 10015.98 800.02
vertex 7617.22 10129.210000000001 800.02
vertex 7670.39 10154.300000000001 800.02
endloop
endfacet
facet normal 0 0 -1
outer loop
vertex 7610.46 10015.98 800.02
vertex 7670.39 10154.300000000001 800.02
vertex 7725.77 10174.19 800.02
endloop
endfacet
facet normal 0 0 -1
outer loop
vertex 7610.46 10015.98 800.02
vertex 7725.77 10174.19 800.02
vertex 7782.97 10188.49 800.02
endloop
endfacet
facet normal 0 0 -1
outer loop
vertex 7610.46 10015.98 800.02
vertex 7782.97 10188.49 800.02
vertex 7841.21 10197.07 800.02
endloop
endfacet
facet normal 0 0 -1
outer loop
vertex 7610.46 10015.98 800.02
vertex 7841.21 10197.07 800.02
vertex 7899.97 10200.06 800.02
endloop
endfacet
facet normal 0 0 -0.9999999999999999
outer loop
vertex 7610.46 10015.98 800.02
vertex 7899.97 10200.06 800.02
vertex 7899.97 9800.050000000001 800.02
endloop
endfacet
facet normal 0 0 -1
outer loop
vertex 7880.34 9799.01 800.02
vertex 7860.97 9796.15 800.02
vertex 7333.6900000000005 9796.15 800.02
endloop
endfacet
facet normal 0 0 -1
outer loop
vertex 7880.34 9799.01 800.02
vertex 7333.6900000000005 9796.15 800.02
vertex 7334.7300000000005 9799.01 800.02
endloop
endfacet
facet normal 0 0 -0.9999999999999999
outer loop
vertex 7860.97 9796.15 800.02
vertex 7841.990000000001 9791.34 800.02
vertex 7332 9791.34 800.02
endloop
endfacet
facet normal 0 0 -1
outer loop
vertex 7860.97 9796.15 800.02
vertex 7332 9791.34 800.02
vertex 7333.6900000000005 9796.15 800.02
endloop
endfacet
facet normal 0 0 -1
outer loop
vertex 7841.990000000001 9791.34 800.02
vertex 7823.400000000001 9784.84 800.02
vertex 7329.66 9784.84 800.02
endloop
endfacet
facet normal 0 0 -1
outer loop
vertex 7841.990000000001 9791.34 800.02
vertex 7329.66 9784.84 800.02
vertex 7332 9791.34 800.02
endloop
endfacet
facet normal 0 0 -1
outer loop
vertex 7823.400000000001 9784.84 800.02
vertex 7805.72 9776.390000000001 800.02
vertex 7326.67 9776.390000000001 800.02
endloop
endfacet
facet normal 0 0 -1
outer loop
vertex 7823.400000000001 9784.84 800.02
vertex 7326.67 9776.390000000001 800.02
vertex 7329.66 9784.84 800.02
endloop
endfacet
facet normal 0 0 -1
outer loop
vertex 7514.26 9771.84 800.02
vertex 7805.72 9776.390000000001 800.02
vertex 7788.95 9766.25 800.02
endloop
endfacet
facet normal 0 0 -1
outer loop
vertex 7514.26 9771.84 800.02
vertex 7788.95 9766.25 800.02
vertex 7323.81 9766.25 800.02
endloop
endfacet
facet normal 0 0 -1
outer loop
vertex 7514.26 9771.84 800.02
vertex 7323.81 9766.25 800.02
vertex 7325.89 9774.18 800.02
endloop
endfacet
facet normal 0 0 -1
outer loop
vertex 7514.26 9771.84 800.02
vertex 7325.89 9774.18 800.02
vertex 7326.67 9776.390000000001 800.02
endloop
endfacet
facet normal 0 0 -1
outer loop
vertex 7514.26 9771.84 800.02
vertex 7326.67 9776.390000000001 800.02
vertex 7805.72 9776.390000000001 800.02
endloop
endfacet
facet normal 0 0 -1
outer loop
vertex 7788.95 9766.25 800.02
vertex 7773.09 9754.550000000001 800.02
vertex 7320.95 9754.550000000001 800.02
endloop
endfacet
facet normal 0 0 -1
outer loop
vertex 7788.95 9766.25 800.02
vertex 7320.95 9754.550000000001 800.02
vertex 7323.81 9766.25 800.02
endloop
endfacet
facet normal 0 0 -1
outer loop
vertex 7773.09 9754.550000000001 800.02
vertex 7758.530000000001 9741.42 800.02
vertex 7317.570000000001 9741.42 800.02
endloop
endfacet
facet normal 0 0 -1
outer loop
vertex 7773.09 9754.550000000001 800.02
vertex 7317.570000000001 9741.42 800.02
vertex 7320.95 9754.550000000001 800.02
endloop
endfacet
facet normal 0 0 -1
outer loop
vertex 7758.530000000001 9741.42 800.02
vertex 7745.400000000001 9726.86 800.02
vertex 7313.93 9726.86 800.02
endloop
endfacet
facet normal 0 0 -1
outer loop
vertex 7758.530000000001 9741.42 800.02
vertex 7313.93 9726.86 800.02
vertex 7317.570000000001 9741.42 800.02
endloop
endfacet
facet normal 0 0 -1
outer loop
vertex 7483.06 9718.67 800.02
vertex 7745.400000000001 9726.86 800.02
vertex 7733.7 9711.130000000001 800.02
endloop
endfacet
facet normal 0 0 -1
outer loop
vertex 7483.06 9718.67 800.02
vertex 7733.7 9711.130000000001 800.02
vertex 7310.68 9711.130000000001 800.02
endloop
endfacet
facet normal 0 0 -1
outer loop
vertex 7483.06 9718.67 800.02
vertex 7310.68 9711.130000000001 800.02
vertex 7311.59 9717.11 800.02
endloop
endfacet
facet normal 0 0 -1
outer loop
vertex 7483.06 9718.67 800.02
vertex 7311.59 9717.11 800.02
vertex 7313.93 9726.86 800.02
endloop
endfacet
facet normal 0 0 -1
outer loop
vertex 7483.06 9718.67 800.02
vertex 7313.93 9726.86 800.02
vertex 7745.400000000001 9726.86 800.02
endloop
endfacet
facet normal 0 0 -1
outer loop
vertex 7733.7 9711.130000000001 800.02
vertex 7723.56 9694.23 800.02
vertex 7308.21 9694.23 800.02
endloop
endfacet
facet normal 0 0 -1
outer loop
vertex 7733.7 9711.130000000001 800.02
vertex 7308.21 9694.23 800.02
vertex 7310.68 9711.130000000001 800.02
endloop
endfacet
facet normal 0 0 -1
outer loop
vertex 7723.56 9694.23 800.02
vertex 7715.240000000001 9676.550000000001 800.02
vertex 7305.4800000000005 9676.550000000001 800.02
endloop
endfacet
facet normal 0 0 -1
outer loop
vertex 7723.56 9694.23 800.02
vertex 7305.4800000000005 9676.550000000001 800.02
vertex 7308.21 9694.23 800.02
endloop
endfacet
facet normal 0 0 -0.9999999999999999
outer loop
vertex 7467.070000000001 9665.630000000001 800.02
vertex 7715.240000000001 9676.550000000001 800.02
vertex 7708.610000000001 9658.09 800.02
endloop
endfacet
facet normal 0 0 -1
outer loop
vertex 7467.070000000001 9665.630000000001 800.02
vertex 7708.610000000001 9658.09 800.02
vertex 7302.88 9658.09 800.02
endloop
endfacet
facet normal 0 0 -1
outer loop
vertex 7467.070000000001 9665.630000000001 800.02
vertex 7302.88 9658.09 800.02
vertex 7302.88 9658.87 800.02
endloop
endfacet
facet normal 0 0 -1
outer loop
vertex 7467.070000000001 9665.630000000001 800.02
vertex 7302.88 9658.87 800.02
vertex 7305.4800000000005 9676.550000000001 800.02
endloop
endfacet
facet normal 0 0 -1
outer loop
vertex 7467.070000000001 9665.630000000001 800.02
vertex 7305.4800000000005 9676.550000000001 800.02
vertex 7715.240000000001 9676.550000000001 800.02
endloop
endfacet
facet normal 0 0 -1
outer loop
vertex 7708.610000000001 9658.09 800.02
vertex 7703.8 9638.98 800.02
vertex 7301.97 9638.98 800.02
endloop
endfacet
facet normal 0 0 -0.9999999999999999
outer loop
vertex 7708.610000000001 9658.09 800.02
vertex 7301.97 9638.98 800.02
vertex 7302.88 9658.09 800.02
endloop
endfacet
facet normal 0 0 -1
outer loop
vertex 7703.8 9638.98 800.02
vertex 7700.9400000000005 9619.61 800.02
vertex 7300.93 9619.61 800.02
endloop
endfacet
facet normal 0 0 -0.9999999999999999
outer loop
vertex 7703.8 9638.98 800.02
vertex 7300.93 9619.61 800.02
vertex 7301.97 9638.98 800.02
endloop
endfacet
facet normal 0 0 -1
outer loop
vertex 7700.9400000000005 9619.61 800.02
vertex 7700.030000000001 9599.98 800.02
vertex 7300.02 9599.98 800.02
endloop
endfacet
facet normal 0 0 -1
outer loop
vertex 7700.9400000000005 9619.61 800.02
vertex 7300.02 9599.98 800.02
vertex 7300.93 9619.61 800.02
endloop
endfacet
facet normal 0 0 -1
outer loop
vertex 7700.030000000001 7899.97 800.02
vertex 7700.9400000000005 7880.34 800.02
vertex 7300.93 7880.34 800.02
endloop
endfacet
facet normal 0 0 -1
outer loop
vertex 7700.030000000001 7899.97 800.02
vertex 7300.93 7880.34 800.02
vertex 7300.02 7899.97 800.02
endloop
endfacet
facet normal 0 0 -1
outer loop
vertex 7700.9400000000005 7880.34 800.02
vertex 7703.8 7860.97 800.02
vertex 7301.97 7860.97 800.02
endloop
endfacet
facet normal 0 0 -1
outer loop
vertex 7700.9400000000005 7880.34 800.02
vertex 7301.97 7860.97 800.02
vertex 7300.93 7880.34 800.02
endloop
endfacet
facet normal 0 0 -1
outer loop
vertex 7703.8 7860.97 800.02
vertex 7708.610000000001 7841.990000000001 800.02
vertex 7302.88 7841.990000000001 800.02
endloop
endfacet
facet normal 0 0 -1
outer loop
vertex 7703.8 7860.97 800.02
vertex 7302.88 7841.990000000001 800.02
vertex 7301.97 7860.97 800.02
endloop
endfacet
facet normal 0 0 -1
outer loop
vertex 7467.070000000001 7834.45 800.02
vertex 7708.610000000001 7841.990000000001 800.02
vertex 7715.240000000001 7823.400000000001 800.02
endloop
endfacet
facet normal 0 0 -1
outer loop
vertex 7467.070000000001 7834.45 800.02
vertex 7715.240000000001 7823.400000000001 800.02
vertex 7305.4800000000005 7823.400000000001 800.02
endloop
endfacet
facet normal 0 0 -0.9999999999999999
outer loop
vertex 7467.070000000001 7834.45 800.02
vertex 7305.4800000000005 7823.400000000001 800.02
vertex 7302.88 7841.21 800.02
endloop
endfacet
facet normal 0 0 -1
outer loop
vertex 7467.070000000001 7834.45 800.02
vertex 7302.88 7841.21 800.02
vertex 7302.88 7841.990000000001 800.02
endloop
endfacet
facet normal 0 0 -1
outer loop
vertex 7467.070000000001 7834.45 800.02
vertex 7302.88 7841.990000000001 800.02
vertex 7708.610000000001 7841.990000000001 800.02
endloop
endfacet
facet normal 0 0 -1
outer loop
vertex 7715.240000000001 7823.400000000001 800.02
vertex 7723.56 7805.72 800.02
vertex 7308.21 7805.72 800.02
endloop
endfacet
facet normal 0 0 -1
outer loop
vertex 7715.240000000001 7823.400000000001 800.02
vertex 7308.21 7805.72 800.02
vertex 7305.4800000000005 7823.400000000001 800.02
endloop
endfacet
facet normal 0 0 -1
outer loop
vertex 7723.56 7805.72 800.02
vertex 7733.7 7788.95 800.02
vertex 7310.68 7788.95 800.02
endloop
endfacet
facet normal 0 0 -0.9999999999999999
outer loop
vertex 7723.56 7805.72 800.02
vertex 7310.68 7788.95 800.02
vertex 7308.21 7805.72 800.02
endloop
endfacet
facet normal 0 0 -1
outer loop
vertex 7483.06 7781.41 800.02
vertex 7733.7 7788.95 800.02
vertex 7745.400000000001 7773.09 800.02
endloop
endfacet
facet normal 0 0 -1
outer loop
vertex 7483.06 7781.41 800.02
vertex 7745.400000000001 7773.09 800.02
vertex 7313.93 7773.09 800.02
endloop
endfacet
facet normal 0 0 -1
outer loop
vertex 7483.06 7781.41 800.02
vertex 7313.93 7773.09 800.02
vertex 7311.59 7782.97 800.02
endloop
endfacet
facet normal 0 0 -1
outer loop
vertex 7483.06 7781.41 800.02
vertex 7311.59 7782.97 800.02
vertex 7310.68 7788.95 800.02
endloop
endfacet
facet normal 0 0 -1
outer loop
vertex 7483.06 7781.41 800.02
vertex 7310.68 7788.95 800.02
vertex 7733.7 7788.95 800.02
endloop
endfacet
facet normal 0 0 -1
outer loop
vertex 7745.400000000001 7773.09 800.02
vertex 7758.530000000001 7758.530000000001 800.02
vertex 7317.570000000001 7758.530000000001 800.02
endloop
endfacet
facet normal 0 0 -1
outer loop
vertex 7745.400000000001 7773.09 800.02
vertex 7317.570000000001 7758.530000000001 800.02
vertex 7313.93 7773.09 800.02
endloop
endfacet
facet normal 0 0 -1
outer loop
vertex 7758.530000000001 7758.530000000001 800.02
vertex 7773.09 7745.400000000001 800.02
vertex 7320.95 7745.400000000001 800.02
endloop
endfacet
facet normal 0 0 -1
outer loop
vertex 7758.530000000001 7758.530000000001 800.02
vertex 7320.95 7745.400000000001 800.02
vertex 7317.570000000001 7758.530000000001 800.02
endloop
endfacet
facet normal 0 0 -0.9999999999999999
outer loop
vertex 7773.09 7745.400000000001 800.02
vertex 7788.95 7733.7 800.02
vertex 7323.81 7733.7 800.02
endloop
endfacet
facet normal 0 0 -1
outer loop
vertex 7773.09 7745.400000000001 800.02
vertex 7323.81 7733.7 800.02
vertex 7320.95 7745.400000000001 800.02
endloop
endfacet
facet normal 0 0 -1
outer loop
vertex 7514.26 7728.110000000001 800.02
vertex 7788.95 7733.7 800.02
vertex 7805.72 7723.56 800.02
endloop
endfacet
facet normal 0 0 -1
outer loop
vertex 7514.26 7728.110000000001 800.02
vertex 7805.72 7723.56 800.02
vertex 7326.67 7723.56 800.02
endloop
endfacet
facet normal 0 0 -1
outer loop
vertex 7514.26 7728.110000000001 800.02
vertex 7326.67 7723.56 800.02
vertex 7325.89 7725.77 800.02
endloop
endfacet
facet normal 0 0 -1
outer loop
vertex 7514.26 7728.110000000001 800.02
vertex 7325.89 7725.77 800.02
vertex 7323.81 7733.7 800.02
endloop
endfacet
facet normal 0 0 -0.9999999999999999
outer loop
vertex 7514.26 7728.110000000001 800.02
vertex 7323.81 7733.7 800.02
vertex 7788.95 7733.7 800.02
endloop
endfacet
facet normal 0 0 -1
outer loop
vertex 7805.72 7723.56 800.02
vertex 7823.400000000001 7715.240000000001 800.02
vertex 7329.66 7715.240000000001 800.02
endloop
endfacet
facet normal 0 0 -1
outer loop
vertex 7805.72 7723.56 800.02
vertex 7329.66 7715.240000000001 800.02
vertex 7326.67 7723.56 800.02
endloop
endfacet
facet normal 0 0 -0.9999999999999999
outer loop
vertex 7823.400000000001 7715.240000000001 800.02
vertex 7841.990000000001 7708.610000000001 800.02
vertex 7332 7708.610000000001 800.02
endloop
endfacet
facet normal 0 0 -1
outer loop
vertex 7823.400000000001 7715.240000000001 800.02
vertex 7332 7708.610000000001 800.02
vertex 7329.66 7715.240000000001 800.02
endloop
endfacet
facet normal 0 0 -1
outer loop
vertex 7841.990000000001 7708.610000000001 800.02
vertex 7860.97 7703.8 800.02
vertex 7333.6900000000005 7703.8 800.02
endloop
endfacet
facet normal 0 0 -1
outer loop
vertex 7841.990000000001 7708.610000000001 800.02
vertex 7333.6900000000005 7703.8 800.02
vertex 7332 7708.610000000001 800.02
endloop
endfacet
facet normal 0 0 -1
outer loop
vertex 7860.97 7703.8 800.02
vertex 7880.34 7700.9400000000005 800.02
vertex 7334.7300000000005 7700.9400000000005 800.02
endloop
endfacet
facet normal 0 0 -1
outer loop
vertex 7860.97 7703.8 800.02
vertex 7334.7300000000005 7700.9400000000005 800.02
vertex 7333.6900000000005 7703.8 800.02
endloop
endfacet
facet normal 0 0 -1
outer loop
vertex 7610.46 7484.1 800.02
vertex 7880.34 7700.9400000000005 800.02
vertex 7899.97 7700.030000000001 800.02
endloop
endfacet
facet normal 0 0 -0.9999999999999999
outer loop
vertex 7610.46 7484.1 800.02
vertex 7899.97 7700.030000000001 800.02
vertex 7899.97 7300.02 800.02
endloop
endfacet
facet normal 0 0 -1
outer loop
vertex 7610.46 7484.1 800.02
vertex 7899.97 7300.02 800.02
vertex 7841.21 7302.88 800.02
endloop
endfacet
facet normal 0 0 -1
outer loop
vertex 7610.46 7484.1 800.02
vertex 7841.21 7302.88 800.02
vertex 7782.97 7311.59 800.02
endloop
endfacet
facet normal 0 0 -1
outer loop
vertex 7610.46 7484.1 800.02
vertex 7782.97 7311.59 800.02
vertex 7725.77 7325.89 800.02
endloop
endfacet
facet normal 0 0 -1
outer loop
vertex 7610.46 7484.1 800.02
vertex 7725.77 7325.89 800.02
vertex 7670.39 7345.650000000001 800.02
endloop
endfacet
facet normal 0 0 -1
outer loop
vertex 7610.46 7484.1 800.02
vertex 7670.39 7345.650000000001 800.02
vertex 7617.22 7370.87 800.02
endloop
endfacet
facet normal 0 0 -0.9999999999999999
outer loop
vertex 7610.46 7484.1 800.02
vertex 7617.22 7370.87 800.02
vertex 7566.650000000001 7401.16 800.02
endloop
endfacet
facet normal 0 0 -1
outer loop
vertex 7610.46 7484.1 800.02
vertex 7566.650000000001 7401.16 800.02
vertex 7519.33 7436.13 800.02
endloop
endfacet
facet normal 0 0 -1
outer loop
vertex 7610.46 7484.1 800.02
vertex 7519.33 7436.13 800.02
vertex 7475.780000000001 7475.780000000001 800.02
endloop
endfacet
facet normal 0 0 -1
outer loop
vertex 7610.46 7484.1 800.02
vertex 7475.780000000001 7475.780000000001 800.02
vertex 7436.13 7519.33 800.02
endloop
endfacet
facet normal 0 0 -0.9999999999999999
outer loop
vertex 7610.46 7484.1 800.02
vertex 7436.13 7519.33 800.02
vertex 7401.16 7566.650000000001 800.02
endloop
endfacet
facet normal 0 0 -1
outer loop
vertex 7610.46 7484.1 800.02
vertex 7401.16 7566.650000000001 800.02
vertex 7370.87 7617.22 800.02
endloop
endfacet
facet normal 0 0 -1
outer loop
vertex 7610.46 7484.1 800.02
vertex 7370.87 7617.22 800.02
vertex 7345.650000000001 7670.39 800.02
endloop
endfacet
facet normal 0 0 -1
outer loop
vertex 7610.46 7484.1 800.02
vertex 7345.650000000001 7670.39 800.02
vertex 7334.7300000000005 7700.9400000000005 800.02
endloop
endfacet
facet normal 0 0 -0.9999999999999999
outer loop
vertex 7610.46 7484.1 800.02
vertex 7334.7300000000005 7700.9400000000005 800.02
vertex 7880.34 7700.9400000000005 800.02
endloop
endfacet
facet normal 0 0 1
outer loop
vertex 7610.46 10015.98 400.01
vertex 7841.21 10197.07 400.01
vertex 7782.97 10188.49 400.01
endloop
endfacet
facet normal 0 0 1
outer loop
vertex 7610.46 10015.98 400.01
vertex 7782.97 10188.49 400.01
vertex 7725.77 10174.19 400.01
endloop
endfacet
facet normal 0 0 1
outer loop
vertex 7610.46 10015.98 400.01
vertex 7725.77 10174.19 400.01
vertex 7670.39 10154.300000000001 400.01
endloop
endfacet
facet normal 0 0 1
outer loop
vertex 7610.46 10015.98 400.01
vertex 7670.39 10154.300000000001 400.01
vertex 7617.22 10129.210000000001 400.01
endloop
endfacet
facet normal 0 0 1
outer loop
vertex 7610.46 10015.98 400.01
vertex 7617.22 10129.210000000001 400.01
vertex 7566.650000000001 10098.92 400.01
endloop
endfacet
facet normal 0 0 1
outer loop
vertex 7610.46 10015.98 400.01
vertex 7566.650000000001 10098.92 400.01
vertex 7519.33 10063.82 400.01
endloop
endfacet
facet normal 0 0 0.9999999999999999
outer loop
vertex 7610.46 10015.98 400.01
vertex 7519.33 10063.82 400.01
vertex 7475.780000000001 10024.300000000001 400.01
endloop
endfacet
facet normal 0 0 1
outer loop
vertex 7610.46 10015.98 400.01
vertex 7475.780000000001 10024.300000000001 400.01
vertex 7436.13 9980.62 400.01
endloop
endfacet
facet normal 0 0 1
outer loop
vertex 7610.46 10015.98 400.01
vertex 7436.13 9980.62 400.01
vertex 7401.16 9933.300000000001 400.01
endloop
endfacet
facet normal 0 0 1
outer loop
vertex 7610.46 10015.98 400.01
vertex 7401.16 9933.300000000001 400.01
vertex 7370.87 9882.86 400.01
endloop
endfacet
facet normal 0 0 1
outer loop
vertex 7610.46 10015.98 400.01
vertex 7370.87 9882.86 400.01
vertex 7345.650000000001 9829.56 400.01
endloop
endfacet
facet normal 0 0 0.9999999999999999
outer loop
vertex 7610.46 10015.98 400.01
vertex 7345.650000000001 9829.56 400.01
vertex 7334.7300000000005 9799.01 400.01
endloop
endfacet
facet normal 0 0 1
outer loop
vertex 7610.46 10015.98 400.01
vertex 7334.7300000000005 9799.01 400.01
vertex 7880.34 9799.01 400.01
endloop
endfacet
facet normal 0 0 1
outer loop
vertex 7610.46 10015.98 400.01
vertex 7880.34 9799.01 400.01
vertex 7899.97 9800.050000000001 400.01
endloop
endfacet
facet normal 0 0 0.9999999999999999
outer loop
vertex 7610.46 10015.98 400.01
vertex 7899.97 9800.050000000001 400.01
vertex 7899.97 10200.06 400.01
endloop
endfacet
facet normal 0 0 1
outer loop
vertex 7610.46 10015.98 400.01
vertex 7899.97 10200.06 400.01
vertex 7841.21 10197.07 400.01
endloop
endfacet
facet normal 0 0 1
outer loop
vertex 7334.7300000000005 9799.01 400.01
vertex 7333.6900000000005 9796.15 400.01
vertex 7860.97 9796.15 400.01
endloop
endfacet
facet normal 0 0 1
outer loop
vertex 7334.7300000000005 9799.01 400.01
vertex 7860.97 9796.15 400.01
vertex 7880.34 9799.01 400.01
endloop
endfacet
facet normal 0 0 1
outer loop
vertex 7333.6900000000005 9796.15 400.01
vertex 7332 9791.34 400.01
vertex 7841.990000000001 9791.34 400.01
endloop
endfacet
facet normal 0 0 1
outer loop
vertex 7333.6900000000005 9796.15 400.01
vertex 7841.990000000001 9791.34 400.01
vertex 7860.97 9796.15 400.01
endloop
endfacet
facet normal 0 0 1
outer loop
vertex 7332 9791.34 400.01
vertex 7329.66 9784.84 400.01
vertex 7823.400000000001 9784.84 400.01
endloop
endfacet
facet normal 0 0 1
outer loop
vertex 7332 9791.34 400.01
vertex 7823.400000000001 9784.84 400.01
vertex 7841.990000000001 9791.34 400.01
endloop
endfacet
facet normal 0 0 1
outer loop
vertex 7329.66 9784.84 400.01
vertex 7326.67 9776.390000000001 400.01
vertex 7805.72 9776.390000000001 400.01
endloop
endfacet
facet normal 0 0 1
outer loop
vertex 7329.66 9784.84 400.01
vertex 7805.72 9776.390000000001 400.01
vertex 7823.400000000001 9784.84 400.01
endloop
endfacet
facet normal 0 0 1
outer loop
vertex 7514.26 9771.84 400.01
vertex 7326.67 9776.390000000001 400.01
vertex 7325.89 9774.18 400.01
endloop
endfacet
facet normal 0 0 1
outer loop
vertex 7514.26 9771.84 400.01
vertex 7325.89 9774.18 400.01
vertex 7323.81 9766.25 400.01
endloop
endfacet
facet normal 0 0 1
outer loop
vertex 7514.26 9771.84 400.01
vertex 7323.81 9766.25 400.01
vertex 7788.95 9766.25 400.01
endloop
endfacet
facet normal 0 0 1
outer loop
vertex 7514.26 9771.84 400.01
vertex 7788.95 9766.25 400.01
vertex 7805.72 9776.390000000001 400.01
endloop
endfacet
facet normal 0 0 1
outer loop
vertex 7514.26 9771.84 400.01
vertex 7805.72 9776.390000000001 400.01
vertex 7326.67 9776.390000000001 400.01
endloop
endfacet
facet normal 0 0 1
outer loop
vertex 7323.81 9766.25 400.01
vertex 7320.95 9754.550000000001 400.01
vertex 7773.09 9754.550000000001 400.01
endloop
endfacet
facet normal 0 0 1
outer loop
vertex 7323.81 9766.25 400.01
vertex 7773.09 9754.550000000001 400.01
vertex 7788.95 9766.25 400.01
endloop
endfacet
facet normal 0 0 1
outer loop
vertex 7320.95 9754.550000000001 400.01
vertex 7317.570000000001 9741.42 400.01
vertex 7758.530000000001 9741.42 400.01
endloop
endfacet
facet normal 0 0 1
outer loop
vertex 7320.95 9754.550000000001 400.01
vertex 7758.530000000001 9741.42 400.01
vertex 7773.09 9754.550000000001 400.01
endloop
endfacet
facet normal 0 0 1
outer loop
vertex 7317.570000000001 9741.42 400.01
vertex 7313.93 9726.86 400.01
vertex 7745.400000000001 9726.86 400.01
endloop
endfacet
facet normal 0 0 1
outer loop
vertex 7317.570000000001 9741.42 400.01
vertex 7745.400000000001 9726.86 400.01
vertex 7758.530000000001 9741.42 400.01
endloop
endfacet
facet normal 0 0 1
outer loop
vertex 7483.06 9718.67 400.01
vertex 7313.93 9726.86 400.01
vertex 7311.59 9717.11 400.01
endloop
endfacet
facet normal 0 0 1
outer loop
vertex 7483.06 9718.67 400.01
vertex 7311.59 9717.11 400.01
vertex 7310.68 9711.130000000001 400.01
endloop
endfacet
facet normal 0 0 1
outer loop
vertex 7483.06 9718.67 400.01
vertex 7310.68 9711.130000000001 400.01
vertex 7733.7 9711.130000000001 400.01
endloop
endfacet
facet normal 0 0 1
outer loop
vertex 7483.06 9718.67 400.01
vertex 7733.7 9711.130000000001 400.01
vertex 7745.400000000001 9726.86 400.01
endloop
endfacet
facet normal 0 0 1
outer loop
vertex 7483.06 9718.67 400.01
vertex 7745.400000000001 9726.86 400.01
vertex 7313.93 9726.86 400.01
endloop
endfacet
facet normal 0 0 0.9999999999999999
outer loop
vertex 7310.68 9711.130000000001 400.01
vertex 7308.21 9694.23 400.01
vertex 7723.56 9694.23 400.01
endloop
endfacet
facet normal 0 0 1
outer loop
vertex 7310.68 9711.130000000001 400.01
vertex 7723.56 9694.23 400.01
vertex 7733.7 9711.130000000001 400.01
endloop
endfacet
facet normal 0 0 1
outer loop
vertex 7308.21 9694.23 400.01
vertex 7305.4800000000005 9676.550000000001 400.01
vertex 7715.240000000001 9676.550000000001 400.01
endloop
endfacet
facet normal 0 0 1
outer loop
vertex 7308.21 9694.23 400.01
vertex 7715.240000000001 9676.550000000001 400.01
vertex 7723.56 9694.23 400.01
endloop
endfacet
facet normal 0 0 1
outer loop
vertex 7467.070000000001 9665.630000000001 400.01
vertex 7305.4800000000005 9676.550000000001 400.01
vertex 7302.88 9658.87 400.01
endloop
endfacet
facet normal 0 0 1
outer loop
vertex 7467.070000000001 9665.630000000001 400.01
vertex 7302.88 9658.87 400.01
vertex 7302.88 9658.09 400.01
endloop
endfacet
facet normal 0 0 1
outer loop
vertex 7467.070000000001 9665.630000000001 400.01
vertex 7302.88 9658.09 400.01
vertex 7708.610000000001 9658.09 400.01
endloop
endfacet
facet normal 0 0 0.9999999999999999
outer loop
vertex 7467.070000000001 9665.630000000001 400.01
vertex 7708.610000000001 9658.09 400.01
vertex 7715.240000000001 9676.550000000001 400.01
endloop
endfacet
facet normal 0 0 1
outer loop
vertex 7467.070000000001 9665.630000000001 400.01
vertex 7715.240000000001 9676.550000000001 400.01
vertex 7305.4800000000005 9676.550000000001 400.01
endloop
endfacet
facet normal 0 0 1
outer loop
vertex 7302.88 9658.09 400.01
vertex 7301.97 9638.98 400.01
vertex 7703.8 9638.98 400.01
endloop
endfacet
facet normal 0 0 0.9999999999999999
outer loop
vertex 7302.88 9658.09 400.01
vertex 7703.8 9638.98 400.01
vertex 7708.610000000001 9658.09 400.01
endloop
endfacet
facet normal 0 0 1
outer loop
vertex 7301.97 9638.98 400.01
vertex 7300.93 9619.61 400.01
vertex 7700.9400000000005 9619.61 400.01
endloop
endfacet
facet normal 0 0 0.9999999999999999
outer loop
vertex 7301.97 9638.98 400.01
vertex 7700.9400000000005 9619.61 400.01
vertex 7703.8 9638.98 400.01
endloop
endfacet
facet normal 0 0 1
outer loop
vertex 7300.93 9619.61 400.01
vertex 7300.02 9599.98 400.01
vertex 7700.030000000001 9599.98 400.01
endloop
endfacet
facet normal 0 0 1
outer loop
vertex 7300.93 9619.61 400.01
vertex 7700.030000000001 9599.98 400.01
vertex 7700.9400000000005 9619.61 400.01
endloop
endfacet
facet normal 0 0 1
outer loop
vertex 7300.02 7899.97 400.01
vertex 7300.93 7880.34 400.01
vertex 7700.9400000000005 7880.34 400.01
endloop
endfacet
facet normal 0 0 1
outer loop
vertex 7300.02 7899.97 400.01
vertex 7700.9400000000005 7880.34 400.01
vertex 7700.030000000001 7899.97 400.01
endloop
endfacet
facet normal 0 0 1
outer loop
vertex 7300.93 7880.34 400.01
vertex 7301.97 7860.97 400.01
vertex 7703.8 7860.97 400.01
endloop
endfacet
facet normal 0 0 1
outer loop
vertex 7300.93 7880.34 400.01
vertex 7703.8 7860.97 400.01
vertex 7700.9400000000005 7880.34 400.01
endloop
endfacet
facet normal 0 0 1
outer loop
vertex 7301.97 7860.97 400.01
vertex 7302.88 7841.990000000001 400.01
vertex 7708.610000000001 7841.990000000001 400.01
endloop
endfacet
facet normal 0 0 1
outer loop
vertex 7301.97 7860.97 400.01
vertex 7708.610000000001 7841.990000000001 400.01
vertex 7703.8 7860.97 400.01
endloop
endfacet
facet normal 0 0 1
outer loop
vertex 7467.070000000001 7834.45 400.01
vertex 7302.88 7841.990000000001 400.01
vertex 7302.88 7841.21 400.01
endloop
endfacet
facet normal 0 0 0.9999999999999999
outer loop
vertex 7467.070000000001 7834.45 400.01
vertex 7302.88 7841.21 400.01
vertex 7305.4800000000005 7823.400000000001 400.01
endloop
endfacet
facet normal 0 0 1
outer loop
vertex 7467.070000000001 7834.45 400.01
vertex 7305.4800000000005 7823.400000000001 400.01
vertex 7715.240000000001 7823.400000000001 400.01
endloop
endfacet
facet normal 0 0 1
outer loop
vertex 7467.070000000001 7834.45 400.01
vertex 7715.240000000001 7823.400000000001 400.01
vertex 7708.610000000001 7841.990000000001 400.01
endloop
endfacet
facet normal 0 0 1
outer loop
vertex 7467.070000000001 7834.45 400.01
vertex 7708.610000000001 7841.990000000001 400.01
vertex 7302.88 7841.990000000001 400.01
endloop
endfacet
facet normal 0 0 1
outer loop
vertex 7305.4800000000005 7823.400000000001 400.01
vertex 7308.21 7805.72 400.01
vertex 7723.56 7805.72 400.01
endloop
endfacet
facet normal 0 0 1
outer loop
vertex 7305.4800000000005 7823.400000000001 400.01
vertex 7723.56 7805.72 400.01
vertex 7715.240000000001 7823.400000000001 400.01
endloop
endfacet
facet normal 0 0 1
outer loop
vertex 7308.21 7805.72 400.01
vertex 7310.68 7788.95 400.01
vertex 7733.7 7788.95 400.01
endloop
endfacet
facet normal 0 0 0.9999999999999999
outer loop
vertex 7308.21 7805.72 400.01
vertex 7733.7 7788.95 400.01
vertex 7723.56 7805.72 400.01
endloop
endfacet
facet normal 0 0 1
outer loop
vertex 7483.06 7781.41 400.01
vertex 7310.68 7788.95 400.01
vertex 7311.59 7782.97 400.01
endloop
endfacet
facet normal 0 0 1
outer loop
vertex 7483.06 7781.41 400.01
vertex 7311.59 7782.97 400.01
vertex 7313.93 7773.09 400.01
endloop
endfacet
facet normal 0 0 1
outer loop
vertex 7483.06 7781.41 400.01
vertex 7313.93 7773.09 400.01
vertex 7745.400000000001 7773.09 400.01
endloop
endfacet
facet normal 0 0 1
outer loop
vertex 7483.06 7781.41 400.01
vertex 7745.400000000001 7773.09 400.01
vertex 7733.7 7788.95 400.01
endloop
endfacet
facet normal 0 0 1
outer loop
vertex 7483.06 7781.41 400.01
vertex 7733.7 7788.95 400.01
vertex 7310.68 7788.95 400.01
endloop
endfacet
facet normal 0 0 1
outer loop
vertex 7313.93 7773.09 400.01
vertex 7317.570000000001 7758.530000000001 400.01
vertex 7758.530000000001 7758.530000000001 400.01
endloop
endfacet
facet normal 0 0 1
outer loop
vertex 7313.93 7773.09 400.01
vertex 7758.530000000001 7758.530000000001 400.01
vertex 7745.400000000001 7773.09 400.01
endloop
endfacet
facet normal 0 0 1
outer loop
vertex 7317.570000000001 7758.530000000001 400.01
vertex 7320.95 7745.400000000001 400.01
vertex 7773.09 7745.400000000001 400.01
endloop
endfacet
facet normal 0 0 1
outer loop
vertex 7317.570000000001 7758.530000000001 400.01
vertex 7773.09 7745.400000000001 400.01
vertex 7758.530000000001 7758.530000000001 400.01
endloop
endfacet
facet normal 0 0 0.9999999999999999
outer loop
vertex 7320.95 7745.400000000001 400.01
vertex 7323.81 7733.7 400.01
vertex 7788.95 7733.7 400.01
endloop
endfacet
facet normal 0 0 1
outer loop
vertex 7320.95 7745.400000000001 400.01
vertex 7788.95 7733.7 400.01
vertex 7773.09 7745.400000000001 400.01
endloop
endfacet
facet normal 0 0 1
outer loop
vertex 7514.26 7728.110000000001 400.01
vertex 7323.81 7733.7 400.01
vertex 7325.89 7725.77 400.01
endloop
endfacet
facet normal 0 0 1
outer loop
vertex 7514.26 7728.110000000001 400.01
vertex 7325.89 7725.77 400.01
vertex 7326.67 7723.56 400.01
endloop
endfacet
facet normal 0 0 1
outer loop
vertex 7514.26 7728.110000000001 400.01
vertex 7326.67 7723.56 400.01
vertex 7805.72 7723.56 400.01
endloop
endfacet
facet normal 0 0 1
outer loop
vertex 7514.26 7728.110000000001 400.01
vertex 7805.72 7723.56 400.01
vertex 7788.95 7733.7 400.01
endloop
endfacet
facet normal 0 0 0.9999999999999999
outer loop
vertex 7514.26 7728.110000000001 400.01
vertex 7788.95 7733.7 400.01
vertex 7323.81 7733.7 400.01
endloop
endfacet
facet normal 0 0 1
outer loop
vertex 7326.67 7723.56 400.01
vertex 7329.66 7715.240000000001 400.01
vertex 7823.400000000001 7715.240000000001 400.01
endloop
endfacet
facet normal 0 0 1
outer loop
vertex 7326.67 7723.56 400.01
vertex 7823.400000000001 7715.240000000001 400.01
vertex 7805.72 7723.56 400.01
endloop
endfacet
facet normal 0 0 1
outer loop
vertex 7329.66 7715.240000000001 400.01
vertex 7332 7708.610000000001 400.01
vertex 7841.990000000001 7708.610000000001 400.01
endloop
endfacet
facet normal 0 0 1
outer loop
vertex 7329.66 7715.240000000001 400.01
vertex 7841.990000000001 7708.610000000001 400.01
vertex 7823.400000000001 7715.240000000001 400.01
endloop
endfacet
facet normal 0 0 1
outer loop
vertex 7332 7708.610000000001 400.01
vertex 7333.6900000000005 7703.8 400.01
vertex 7860.97 7703.8 400.01
endloop
endfacet
facet normal 0 0 1
outer loop
vertex 7332 7708.610000000001 400.01
vertex 7860.97 7703.8 400.01
vertex 7841.990000000001 7708.610000000001 400.01
endloop
endfacet
facet normal 0 0 1
outer loop
vertex 7333.6900000000005 7703.8 400.01
vertex 7334.7300000000005 7700.9400000000005 400.01
vertex 7880.34 7700.9400000000005 400.01
endloop
endfacet
facet normal 0 0 1
outer loop
vertex 7333.6900000000005 7703.8 400.01
vertex 7880.34 7700.9400000000005 400.01
vertex 7860.97 7703.8 400.01
endloop
endfacet
facet normal 0 0 1
outer loop
vertex 7610.46 7484.1 400.01
vertex 7334.7300000000005 7700.9400000000005 400.01
vertex 7345.650000000001 7670.39 400.01
endloop
endfacet
facet normal 0 0 1
outer loop
vertex 7610.46 7484.1 400.01
vertex 7345.650000000001 7670.39 400.01
vertex 7370.87 7617.22 400.01
endloop
endfacet
facet normal 0 0 1
outer loop
vertex 7610.46 7484.1 400.01
vertex 7370.87 7617.22 400.01
vertex 7401.16 7566.650000000001 400.01
endloop
endfacet
facet normal 0 0 0.9999999999999999
outer loop
vertex 7610.46 7484.1 400.01
vertex 7401.16 7566.650000000001 400.01
vertex 7436.13 7519.33 400.01
endloop
endfacet
facet normal 0 0 1
outer loop
vertex 7610.46 7484.1 400.01
vertex 7436.13 7519.33 400.01
vertex 7475.780000000001 7475.780000000001 400.01
endloop
endfacet
facet normal 0 0 1
outer loop
vertex 7610.46 7484.1 400.01
vertex 7475.780000000001 7475.780000000001 400.01
vertex 7519.33 7436.13 400.01
endloop
endfacet
facet normal 0 0 1
outer loop
vertex 7610.46 7484.1 400.01
vertex 7519.33 7436.13 400.01
vertex 7566.650000000001 7401.16 400.01
endloop
endfacet
facet normal 0 0 0.9999999999999999
outer loop
vertex 7610.46 7484.1 400.01
vertex 7566.650000000001 7401.16 400.01
vertex 7617.22 7370.87 400.01
endloop
endfacet
facet normal 0 0 1
outer loop
vertex 7610.46 7484.1 400.01
vertex 7617.22 7370.87 400.01
vertex 7670.39 7345.650000000001 400.01
endloop
endfacet
facet normal 0 0 1
outer loop
vertex 7610.46 7484.1 400.01
vertex 7670.39 7345.650000000001 400.01
vertex 7725.77 7325.89 400.01
endloop
endfacet
facet normal 0 0 1
outer loop
vertex 7610.46 7484.1 400.01
vertex 7725.77 7325.89 400.01
vertex 7782.97 7311.59 400.01
endloop
endfacet
facet normal 0 0 1
outer loop
vertex 7610.46 7484.1 400.01
vertex 7782.97 7311.59 400.01
vertex 7841.21 7302.88 400.01
endloop
endfacet
facet normal 0 0 1
outer loop
vertex 7610.46 7484.1 400.01
vertex 7841.21 7302.88 400.01
vertex 7899.97 7300.02 400.01
endloop
endfacet
facet normal 0 0 0.9999999999999999
outer loop
vertex 7610.46 7484.1 400.01
vertex 7899.97 7300.02 400.01
vertex 7899.97 7700.030000000001 400.01
endloop
endfacet
facet normal 0 0 1
outer loop
vertex 7610.46 7484.1 400.01
vertex 7899.97 7700.030000000001 400.01
vertex 7880.34 7700.9400000000005 400.01
endloop
endfacet
facet normal 0 0 0.9999999999999999
outer loop
vertex 7610.46 7484.1 400.01
vertex 7880.34 7700.9400000000005 400.01
vertex 7334.7300000000005 7700.9400000000005 400.01
endloop
endfacet
facet normal -1 0 0
outer loop
vertex 7899.97 7700.030000000001 800.02
vertex 7899.97 7700.030000000001 599.95
vertex 7899.97 7300.02 599.95
endloop
endfacet
facet normal -1 0 0
outer loop
vertex 7899.97 7700.030000000001 800.02
vertex 7899.97 7300.02 599.95
vertex 7899.97 7300.02 800.02
endloop
endfacet
facet normal -1 0 0
outer loop
vertex 7899.97 10200.06 800.02
vertex 7899.97 10200.06 599.95
vertex 7899.97 9800.050000000001 599.95
endloop
endfacet
facet normal -1 0 0
outer loop
vertex 7899.97 10200.06 800.02
vertex 7899.97 9800.050000000001 599.95
vertex 7899.97 9800.050000000001 800.02
endloop
endfacet
facet normal 1 0 0
outer loop
vertex 7899.97 9800.050000000001 400.01
vertex 7899.97 9800.050000000001 199.94
vertex 7899.97 10200.06 199.94
endloop
endfacet
facet normal 1 0 0
outer loop
vertex 7899.97 9800.050000000001 400.01
vertex 7899.97 10200.06 199.94
vertex 7899.97 10200.06 400.01
endloop
endfacet
facet normal 1 0 0
outer loop
vertex 7899.97 7300.02 400.01
vertex 7899.97 7300.02 199.94
vertex 7899.97 7700.030000000001 199.94
endloop
endfacet
facet normal 1 0 0
outer loop
vertex 7899.97 7300.02 400.01
vertex 7899.97 7700.030000000001 199.94
vertex 7899.97 7700.030000000001 400.01
endloop
endfacet
facet normal 1 0 0
outer loop
vertex 7300.02 8750.04 400.01
vertex 7300.02 9599.98 400.01
vertex 7300.02 9599.98 599.95
endloop
endfacet
facet normal 1 0 0
outer loop
vertex 7300.02 8750.04 400.01
vertex 7300.02 9599.98 599.95
vertex 7300.02 7899.97 599.95
endloop
endfacet
facet normal 1 0 0
outer loop
vertex 7300.02 8750.04 400.01
vertex 7300.02 7899.97 599.95
vertex 7300.02 7899.97 400.01
endloop
endfacet
facet normal 1 0 0
outer loop
vertex 7300.02 8750.04 400.01
vertex 7300.02 7899.97 400.01
vertex 7300.02 7899.97 199.94
endloop
endfacet
facet normal 1 0 0
outer loop
vertex 7300.02 8750.04 400.01
vertex 7300.02 7899.97 199.94
vertex 7300.02 9599.98 199.94
endloop
endfacet
facet normal 1 0 0
outer loop
vertex 7300.02 8750.04 400.01
vertex 7300.02 9599.98 199.94
vertex 7300.02 9599.98 400.01
endloop
endfacet
facet normal -1 0 0
outer loop
vertex 7700.030000000001 8749.91 400.01
vertex 7700.030000000001 7899.97 199.94
vertex 7700.030000000001 7899.97 400.01
endloop
endfacet
facet normal -1 0 0
outer loop
vertex 7700.030000000001 8749.91 400.01
vertex 7700.030000000001 7899.97 400.01
vertex 7700.030000000001 7899.97 599.95
endloop
endfacet
facet normal -1 0 0
outer loop
vertex 7700.030000000001 8749.91 400.01
vertex 7700.030000000001 7899.97 599.95
vertex 7700.030000000001 9599.98 599.95
endloop
endfacet
facet normal -1 0 0
outer loop
vertex 7700.030000000001 8749.91 400.01
vertex 7700.030000000001 9599.98 599.95
vertex 7700.030000000001 9599.98 400.01
endloop
endfacet
facet normal -1 0 0
outer loop
vertex 7700.030000000001 8749.91 400.01
vertex 7700.030000000001 9599.98 400.01
vertex 7700.030000000001 9599.98 199.94
endloop
endfacet
facet normal -1 0 0
outer loop
vertex 7700.030000000001 8749.91 400.01
vertex 7700.030000000001 9599.98 199.94
vertex 7700.030000000001 7899.97 199.94
endloop
endfacet
facet normal 0 -1 0
outer loop
vertex 7300.02 9599.98 400.01
vertex 7300.02 9599.98 199.94
vertex 7700.030000000001 9599.98 199.94
endloop
endfacet
facet normal 0 -1 0
outer loop
vertex 7300.02 9599.98 400.01
vertex 7700.030000000001 9599.98 199.94
vertex 7700.030000000001 9599.98 400.01
endloop
endfacet
facet normal 0 1 0
outer loop
vertex 7700.030000000001 9599.98 800.02
vertex 7700.030000000001 9599.98 599.95
vertex 7300.02 9599.98 599.95
endloop
endfacet
facet normal 0 1 0
outer loop
vertex 7700.030000000001 9599.98 800.02
vertex 7300.02 9599.98 599.95
vertex 7300.02 9599.98 800.02
endloop
endfacet
facet normal 0.9988513985015732 0.047915380739915886 0
outer loop
vertex 7301.1900000000005 7876.4400000000005 599.95
vertex 7302.88 7841.21 800.02
vertex 7302.88 7841.21 400.01
endloop
endfacet
facet normal 0.9988175834638404 0.048615015124340466 -0.00012356340290610728
outer loop
vertex 7301.1900000000005 7876.4400000000005 599.95
vertex 7302.88 7841.21 400.01
vertex 7300.02 7899.97 400.01
endloop
endfacet
facet normal 0.9987660616686835 0.049662400856457505 0
outer loop
vertex 7301.1900000000005 7876.4400000000005 599.95
vertex 7300.02 7899.97 400.01
vertex 7300.02 7899.97 599.95
endloop
endfacet
facet normal 0.9987660616686835 0.049662400856457505 0
outer loop
vertex 7301.1900000000005 7876.4400000000005 599.95
vertex 7300.02 7899.97 599.95
vertex 7300.02 7899.97 800.02
endloop
endfacet
facet normal 0.9988175834737462 0.0486150151248226 0.00012348311479628188
outer loop
vertex 7301.1900000000005 7876.4400000000005 599.95
vertex 7300.02 7899.97 800.02
vertex 7302.88 7841.21 800.02
endloop
endfacet
facet normal 0.9890010290116976 0.14790863603523272 0
outer loop
vertex 7311.59 7782.97 800.02
vertex 7311.59 7782.97 400.01
vertex 7302.88 7841.21 400.01
endloop
endfacet
facet normal 0.9890010290116976 0.14790863603523272 0
outer loop
vertex 7311.59 7782.97 800.02
vertex 7302.88 7841.21 400.01
vertex 7302.88 7841.21 800.02
endloop
endfacet
facet normal 0.9701425001453311 0.24253562503633663 0
outer loop
vertex 7325.89 7725.77 800.02
vertex 7325.89 7725.77 400.01
vertex 7311.59 7782.97 400.01
endloop
endfacet
facet normal 0.9701425001453311 0.24253562503633663 0
outer loop
vertex 7325.89 7725.77 800.02
vertex 7311.59 7782.97 400.01
vertex 7311.59 7782.97 800.02
endloop
endfacet
facet normal 0.9418419105018357 0.33605626853586934 0
outer loop
vertex 7345.650000000001 7670.39 800.02
vertex 7345.650000000001 7670.39 400.01
vertex 7325.89 7725.77 400.01
endloop
endfacet
facet normal 0.9418419105018357 0.33605626853586934 0
outer loop
vertex 7345.650000000001 7670.39 800.02
vertex 7325.89 7725.77 400.01
vertex 7325.89 7725.77 800.02
endloop
endfacet
facet normal 0.9035128080610676 0.42856108744215726 0
outer loop
vertex 7370.87 7617.22 800.02
vertex 7370.87 7617.22 400.01
vertex 7345.650000000001 7670.39 400.01
endloop
endfacet
facet normal 0.9035128080610676 0.42856108744215726 0
outer loop
vertex 7370.87 7617.22 800.02
vertex 7345.650000000001 7670.39 400.01
vertex 7345.650000000001 7670.39 800.02
endloop
endfacet
facet normal 0.8578818601239164 0.5138469753441477 0
outer loop
vertex 7401.16 7566.650000000001 800.02
vertex 7401.16 7566.650000000001 400.01
vertex 7370.87 7617.22 400.01
endloop
endfacet
facet normal 0.8578818601239164 0.5138469753441477 0
outer loop
vertex 7401.16 7566.650000000001 800.02
vertex 7370.87 7617.22 400.01
vertex 7370.87 7617.22 800.02
endloop
endfacet
facet normal 0.8042220557187832 0.5943289367811853 0
outer loop
vertex 7436.13 7519.33 800.02
vertex 7436.13 7519.33 400.01
vertex 7401.16 7566.650000000001 400.01
endloop
endfacet
facet normal 0.8042220557187832 0.5943289367811853 0
outer loop
vertex 7436.13 7519.33 800.02
vertex 7401.16 7566.650000000001 400.01
vertex 7401.16 7566.650000000001 800.02
endloop
endfacet
facet normal 0.7394404837368744 0.6732219329544882 0
outer loop
vertex 7475.780000000001 7475.780000000001 800.02
vertex 7475.780000000001 7475.780000000001 400.01
vertex 7436.13 7519.33 400.01
endloop
endfacet
facet normal 0.7394404837368744 0.6732219329544882 0
outer loop
vertex 7475.780000000001 7475.780000000001 800.02
vertex 7436.13 7519.33 400.01
vertex 7436.13 7519.33 800.02
endloop
endfacet
facet normal 0.6732219329544882 0.7394404837368744 0
outer loop
vertex 7519.33 7436.13 800.02
vertex 7519.33 7436.13 400.01
vertex 7475.780000000001 7475.780000000001 400.01
endloop
endfacet
facet normal 0.6732219329544882 0.7394404837368744 0
outer loop
vertex 7519.33 7436.13 800.02
vertex 7475.780000000001 7475.780000000001 400.01
vertex 7475.780000000001 7475.780000000001 800.02
endloop
endfacet
facet normal 0.5943289367811853 0.8042220557187832 0
outer loop
vertex 7566.650000000001 7401.16 800.02
vertex 7566.650000000001 7401.16 400.01
vertex 7519.33 7436.13 400.01
endloop
endfacet
facet normal 0.5943289367811853 0.8042220557187832 0
outer loop
vertex 7566.650000000001 7401.16 800.02
vertex 7519.33 7436.13 400.01
vertex 7519.33 7436.13 800.02
endloop
endfacet
facet normal 0.5138469753441477 0.8578818601239164 0
outer loop
vertex 7617.22 7370.87 800.02
vertex 7617.22 7370.87 400.01
vertex 7566.650000000001 7401.16 400.01
endloop
endfacet
facet normal 0.5138469753441477 0.8578818601239164 0
outer loop
vertex 7617.22 7370.87 800.02
vertex 7566.650000000001 7401.16 400.01
vertex 7566.650000000001 7401.16 800.02
endloop
endfacet
facet normal 0.42856108744215726 0.9035128080610676 0
outer loop
vertex 7670.39 7345.650000000001 800.02
vertex 7670.39 7345.650000000001 400.01
vertex 7617.22 7370.87 400.01
endloop
endfacet
facet normal 0.42856108744215726 0.9035128080610676 0
outer loop
vertex 7670.39 7345.650000000001 800.02
vertex 7617.22 7370.87 400.01
vertex 7617.22 7370.87 800.02
endloop
endfacet
facet normal 0.33605626853586934 0.9418419105018357 0
outer loop
vertex 7725.77 7325.89 800.02
vertex 7725.77 7325.89 400.01
vertex 7670.39 7345.650000000001 400.01
endloop
endfacet
facet normal 0.33605626853586934 0.9418419105018357 0
outer loop
vertex 7725.77 7325.89 800.02
vertex 7670.39 7345.650000000001 400.01
vertex 7670.39 7345.650000000001 800.02
endloop
endfacet
facet normal 0.24253562503633663 0.9701425001453311 0
outer loop
vertex 7782.97 7311.59 800.02
vertex 7782.97 7311.59 400.01
vertex 7725.77 7325.89 400.01
endloop
endfacet
facet normal 0.24253562503633663 0.9701425001453311 0
outer loop
vertex 7782.97 7311.59 800.02
vertex 7725.77 7325.89 400.01
vertex 7725.77 7325.89 800.02
endloop
endfacet
facet normal 0.14790863603523272 0.9890010290116976 0
outer loop
vertex 7841.21 7302.88 800.02
vertex 7841.21 7302.88 400.01
vertex 7782.97 7311.59 400.01
endloop
endfacet
facet normal 0.14790863603523272 0.9890010290116976 0
outer loop
vertex 7841.21 7302.88 800.02
vertex 7782.97 7311.59 400.01
vertex 7782.97 7311.59 800.02
endloop
endfacet
facet normal 0.049662400856457505 0.9987660616686835 0
outer loop
vertex 7876.4400000000005 7301.1900000000005 599.95
vertex 7899.97 7300.02 800.02
vertex 7899.97 7300.02 599.95
endloop
endfacet
facet normal 0.049662400856457505 0.9987660616686835 0
outer loop
vertex 7876.4400000000005 7301.1900000000005 599.95
vertex 7899.97 7300.02 599.95
vertex 7899.97 7300.02 400.01
endloop
endfacet
facet normal 0.048615015124340466 0.9988175834638404 -0.00012356340290610728
outer loop
vertex 7876.4400000000005 7301.1900000000005 599.95
vertex 7899.97 7300.02 400.01
vertex 7841.21 7302.88 400.01
endloop
endfacet
facet normal 0.047915380739915886 0.9988513985015732 0
outer loop
vertex 7876.4400000000005 7301.1900000000005 599.95
vertex 7841.21 7302.88 400.01
vertex 7841.21 7302.88 800.02
endloop
endfacet
facet normal 0.0486150151248226 0.9988175834737462 0.00012348311479628188
outer loop
vertex 7876.4400000000005 7301.1900000000005 599.95
vertex 7841.21 7302.88 800.02
vertex 7899.97 7300.02 800.02
endloop
endfacet
facet normal -0.043913640913334405 -0.9990353307775129 0
outer loop
vertex 7892.17 7700.42 599.95
vertex 7880.34 7700.9400000000005 800.02
vertex 7880.34 7700.9400000000005 400.01
endloop
endfacet
facet normal -0.046307883649383465 -0.9989272044368658 0.00014194316927376575
outer loop
vertex 7892.17 7700.42 599.95
vertex 7880.34 7700.9400000000005 400.01
vertex 7899.97 7700.030000000001 400.01
endloop
endfacet
facet normal -0.04993761694381673 -0.9987523388778485 0
outer loop
vertex 7892.17 7700.42 599.95
vertex 7899.97 7700.030000000001 400.01
vertex 7899.97 7700.030000000001 599.95
endloop
endfacet
facet normal -0.04993761694381673 -0.9987523388778484 0
outer loop
vertex 7892.17 7700.42 599.95
vertex 7899.97 7700.030000000001 599.95
vertex 7899.97 7700.030000000001 800.02
endloop
endfacet
facet normal -0.04630788364998951 -0.9989272044499391 -0.00014185093849636708
outer loop
vertex 7892.17 7700.42 599.95
vertex 7899.97 7700.030000000001 800.02
vertex 7880.34 7700.9400000000005 800.02
endloop
endfacet
facet normal -0.1460673966801939 -0.98927464115233 0
outer loop
vertex 7860.97 7703.8 800.02
vertex 7860.97 7703.8 400.01
vertex 7880.34 7700.9400000000005 400.01
endloop
endfacet
facet normal -0.1460673966801939 -0.98927464115233 0
outer loop
vertex 7860.97 7703.8 800.02
vertex 7880.34 7700.9400000000005 400.01
vertex 7880.34 7700.9400000000005 800.02
endloop
endfacet
facet normal -0.24565880350764946 -0.9693563597868382 0
outer loop
vertex 7841.990000000001 7708.610000000001 800.02
vertex 7841.990000000001 7708.610000000001 400.01
vertex 7860.97 7703.8 400.01
endloop
endfacet
facet normal -0.24565880350764946 -0.9693563597868382 0
outer loop
vertex 7841.990000000001 7708.610000000001 800.02
vertex 7860.97 7703.8 400.01
vertex 7860.97 7703.8 800.02
endloop
endfacet
facet normal -0.33591911018878257 -0.9418908383724606 0
outer loop
vertex 7823.400000000001 7715.240000000001 800.02
vertex 7823.400000000001 7715.240000000001 400.01
vertex 7841.990000000001 7708.610000000001 400.01
endloop
endfacet
facet normal -0.33591911018878257 -0.9418908383724606 0
outer loop
vertex 7823.400000000001 7715.240000000001 800.02
vertex 7841.990000000001 7708.610000000001 400.01
vertex 7841.990000000001 7708.610000000001 800.02
endloop
endfacet
facet normal -0.42579703632986166 -0.9048187022010026 0
outer loop
vertex 7805.72 7723.56 800.02
vertex 7805.72 7723.56 400.01
vertex 7823.400000000001 7715.240000000001 400.01
endloop
endfacet
facet normal -0.42579703632986166 -0.9048187022010026 0
outer loop
vertex 7805.72 7723.56 800.02
vertex 7823.400000000001 7715.240000000001 400.01
vertex 7823.400000000001 7715.240000000001 800.02
endloop
endfacet
facet normal -0.5174193389091628 -0.8557319835806098 0
outer loop
vertex 7788.95 7733.7 800.02
vertex 7788.95 7733.7 400.01
vertex 7805.72 7723.56 400.01
endloop
endfacet
facet normal -0.5174193389091628 -0.8557319835806098 0
outer loop
vertex 7788.95 7733.7 800.02
vertex 7805.72 7723.56 400.01
vertex 7805.72 7723.56 800.02
endloop
endfacet
facet normal -0.5936489485702549 -0.8047241302840564 0
outer loop
vertex 7773.09 7745.400000000001 800.02
vertex 7773.09 7745.400000000001 400.01
vertex 7788.95 7733.7 400.01
endloop
endfacet
facet normal -0.5936489485702549 -0.8047241302840564 0
outer loop
vertex 7773.09 7745.400000000001 800.02
vertex 7788.95 7733.7 400.01
vertex 7788.95 7733.7 800.02
endloop
endfacet
facet normal -0.6696970767025023 -0.742634382085911 0
outer loop
vertex 7758.530000000001 7758.530000000001 800.02
vertex 7758.530000000001 7758.530000000001 400.01
vertex 7773.09 7745.400000000001 400.01
endloop
endfacet
facet normal -0.6696970767025023 -0.742634382085911 0
outer loop
vertex 7758.530000000001 7758.530000000001 800.02
vertex 7773.09 7745.400000000001 400.01
vertex 7773.09 7745.400000000001 800.02
endloop
endfacet
facet normal -0.742634382085911 -0.6696970767025023 0
outer loop
vertex 7745.400000000001 7773.09 800.02
vertex 7745.400000000001 7773.09 400.01
vertex 7758.530000000001 7758.530000000001 400.01
endloop
endfacet
facet normal -0.742634382085911 -0.6696970767025023 0
outer loop
vertex 7745.400000000001 7773.09 800.02
vertex 7758.530000000001 7758.530000000001 400.01
vertex 7758.530000000001 7758.530000000001 800.02
endloop
endfacet
facet normal -0.8047241302840564 -0.5936489485702549 0
outer loop
vertex 7733.7 7788.95 800.02
vertex 7733.7 7788.95 400.01
vertex 7745.400000000001 7773.09 400.01
endloop
endfacet
facet normal -0.8047241302840564 -0.5936489485702549 0
outer loop
vertex 7733.7 7788.95 800.02
vertex 7745.400000000001 7773.09 400.01
vertex 7745.400000000001 7773.09 800.02
endloop
endfacet
facet normal -0.8557319835806098 -0.5174193389091628 0
outer loop
vertex 7723.56 7805.72 800.02
vertex 7723.56 7805.72 400.01
vertex 7733.7 7788.95 400.01
endloop
endfacet
facet normal -0.8557319835806098 -0.5174193389091628 0
outer loop
vertex 7723.56 7805.72 800.02
vertex 7733.7 7788.95 400.01
vertex 7733.7 7788.95 800.02
endloop
endfacet
facet normal -0.9048187022010026 -0.42579703632986166 0
outer loop
vertex 7715.240000000001 7823.400000000001 800.02
vertex 7715.240000000001 7823.400000000001 400.01
vertex 7723.56 7805.72 400.01
endloop
endfacet
facet normal -0.9048187022010026 -0.42579703632986166 0
outer loop
vertex 7715.240000000001 7823.400000000001 800.02
vertex 7723.56 7805.72 400.01
vertex 7723.56 7805.72 800.02
endloop
endfacet
facet normal -0.9418908383724606 -0.33591911018878257 0
outer loop
vertex 7708.610000000001 7841.990000000001 800.02
vertex 7708.610000000001 7841.990000000001 400.01
vertex 7715.240000000001 7823.400000000001 400.01
endloop
endfacet
facet normal -0.9418908383724606 -0.33591911018878257 0
outer loop
vertex 7708.610000000001 7841.990000000001 800.02
vertex 7715.240000000001 7823.400000000001 400.01
vertex 7715.240000000001 7823.400000000001 800.02
endloop
endfacet
facet normal -0.9693563597868382 -0.24565880350764946 0
outer loop
vertex 7703.8 7860.97 800.02
vertex 7703.8 7860.97 400.01
vertex 7708.610000000001 7841.990000000001 400.01
endloop
endfacet
facet normal -0.9693563597868382 -0.24565880350764946 0
outer loop
vertex 7703.8 7860.97 800.02
vertex 7708.610000000001 7841.990000000001 400.01
vertex 7708.610000000001 7841.990000000001 800.02
endloop
endfacet
facet normal -0.98927464115233 -0.1460673966801939 0
outer loop
vertex 7700.9400000000005 7880.34 800.02
vertex 7700.9400000000005 7880.34 400.01
vertex 7703.8 7860.97 400.01
endloop
endfacet
facet normal -0.98927464115233 -0.1460673966801939 0
outer loop
vertex 7700.9400000000005 7880.34 800.02
vertex 7703.8 7860.97 400.01
vertex 7703.8 7860.97 800.02
endloop
endfacet
facet normal -0.9987523388778484 -0.04993761694381673 0
outer loop
vertex 7700.42 7892.17 599.95
vertex 7700.030000000001 7899.97 800.02
vertex 7700.030000000001 7899.97 599.95
endloop
endfacet
facet normal -0.9987523388778485 -0.04993761694381673 0
outer loop
vertex 7700.42 7892.17 599.95
vertex 7700.030000000001 7899.97 599.95
vertex 7700.030000000001 7899.97 400.01
endloop
endfacet
facet normal -0.9989272044368658 -0.046307883649383465 0.00014194316927376575
outer loop
vertex 7700.42 7892.17 599.95
vertex 7700.030000000001 7899.97 400.01
vertex 7700.9400000000005 7880.34 400.01
endloop
endfacet
facet normal -0.9990353307775129 -0.043913640913334405 0
outer loop
vertex 7700.42 7892.17 599.95
vertex 7700.9400000000005 7880.34 400.01
vertex 7700.9400000000005 7880.34 800.02
endloop
endfacet
facet normal -0.9989272044499391 -0.04630788364998951 -0.00014185093849636708
outer loop
vertex 7700.42 7892.17 599.95
vertex 7700.9400000000005 7880.34 800.02
vertex 7700.030000000001 7899.97 800.02
endloop
endfacet
facet normal 0 -1 0
outer loop
vertex 7300.02 7899.97 800.02
vertex 7300.02 7899.97 599.95
vertex 7700.030000000001 7899.97 599.95
endloop
endfacet
facet normal 0 -1 0
outer loop
vertex 7300.02 7899.97 800.02
vertex 7700.030000000001 7899.97 599.95
vertex 7700.030000000001 7899.97 800.02
endloop
endfacet
facet normal 0 1 0
outer loop
vertex 7700.030000000001 7899.97 400.01
vertex 7700.030000000001 7899.97 199.94
vertex 7300.02 7899.97 199.94
endloop
endfacet
facet normal 0 1 0
outer loop
vertex 7700.030000000001 7899.97 400.01
vertex 7300.02 7899.97 199.94
vertex 7300.02 7899.97 400.01
endloop
endfacet
facet normal 0 1 0
outer loop
vertex 6500 7300.02 599.95
vertex 6500 7300.02 199.94
vertex 4499.95 7300.02 199.94
endloop
endfacet
facet normal 0 1 0
outer loop
vertex 6500 7300.02 599.95
vertex 4499.95 7300.02 199.94
vertex 4499.95 7300.02 599.95
endloop
endfacet
facet normal 0 1 0
outer loop
vertex 8740.03 7300.02 400.01
vertex 9999.99 7300.02 599.95
vertex 9999.99 7300.02 199.94
endloop
endfacet
facet normal 0 0.9999999999999999 0
outer loop
vertex 8740.03 7300.02 400.01
vertex 9999.99 7300.02 199.94
vertex 7899.97 7300.02 199.94
endloop
endfacet
facet normal 0 1 0
outer loop
vertex 8740.03 7300.02 400.01
vertex 7899.97 7300.02 199.94
vertex 7899.97 7300.02 400.01
endloop
endfacet
facet normal 0 1 0
outer loop
vertex 8740.03 7300.02 400.01
vertex 7899.97 7300.02 400.01
vertex 7899.97 7300.02 599.95
endloop
endfacet
facet normal 0 1 0
outer loop
vertex 8740.03 7300.02 400.01
vertex 7899.97 7300.02 599.95
vertex 9999.99 7300.02 599.95
endloop
endfacet
facet normal 0 -1 0
outer loop
vertex 8740.03 7700.030000000001 400.01
vertex 7899.97 7700.030000000001 599.95
vertex 7899.97 7700.030000000001 400.01
endloop
endfacet
facet normal 0 -1 0
outer loop
vertex 8740.03 7700.030000000001 400.01
vertex 7899.97 7700.030000000001 400.01
vertex 7899.97 7700.030000000001 199.94
endloop
endfacet
facet normal 0 -0.9999999999999999 0
outer loop
vertex 8740.03 7700.030000000001 400.01
vertex 7899.97 7700.030000000001 199.94
vertex 9999.99 7700.030000000001 199.94
endloop
endfacet
facet normal 0 -1 0
outer loop
vertex 8740.03 7700.030000000001 400.01
vertex 9999.99 7700.030000000001 199.94
vertex 9999.99 7700.030000000001 599.95
endloop
endfacet
facet normal 0 -1 0
outer loop
vertex 8740.03 7700.030000000001 400.01
vertex 9999.99 7700.030000000001 599.95
vertex 7899.97 7700.030000000001 599.95
endloop
endfacet
facet normal 0 -0.9999999999999999 0
outer loop
vertex 4499.95 7700.030000000001 599.95
vertex 4499.95 7700.030000000001 199.94
vertex 6300.06 7700.030000000001 199.94
endloop
endfacet
facet normal 0 -0.9999999999999999 0
outer loop
vertex 4499.95 7700.030000000001 599.95
vertex 6300.06 7700.030000000001 199.94
vertex 6300.06 7700.030000000001 599.95
endloop
endfacet
facet normal 1 0 0
outer loop
vertex 4499.95 9800.050000000001 599.95
vertex 4499.95 9800.050000000001 199.94
vertex 4499.95 10200.06 199.94
endloop
endfacet
facet normal 1 0 0
outer loop
vertex 4499.95 9800.050000000001 599.95
vertex 4499.95 10200.06 199.94
vertex 4499.95 10200.06 599.95
endloop
endfacet
facet normal 1 0 0
outer loop
vertex 4499.95 7300.02 599.95
vertex 4499.95 7300.02 199.94
vertex 4499.95 7700.030000000001 199.94
endloop
endfacet
facet normal 1 0 0
outer loop
vertex 4499.95 7300.02 599.95
vertex 4499.95 7700.030000000001 199.94
vertex 4499.95 7700.030000000001 599.95
endloop
endfacet
facet normal -0.9953602693534073 -0.09621815937084051 0
outer loop
vertex 6699.9400000000005 9999.99 199.94
vertex 6699.9400000000005 9999.99 599.95
vertex 6696.17 10038.99 599.95
endloop
endfacet
facet normal -0.9953602693534073 -0.09621815937084051 0
outer loop
vertex 6699.9400000000005 9999.99 199.94
vertex 6696.17 10038.99 599.95
vertex 6696.17 10038.99 199.94
endloop
endfacet
facet normal -0.9566337830211176 -0.29129333185417317 0
outer loop
vertex 6696.17 10038.99 199.94
vertex 6696.17 10038.99 599.95
vertex 6684.7300000000005 10076.56 599.95
endloop
endfacet
facet normal -0.9566337830211176 -0.29129333185417317 0
outer loop
vertex 6696.17 10038.99 199.94
vertex 6684.7300000000005 10076.56 599.95
vertex 6684.7300000000005 10076.56 199.94
endloop
endfacet
facet normal -0.8821692656664153 -0.4709324651301688 0
outer loop
vertex 6684.7300000000005 10076.56 199.94
vertex 6684.7300000000005 10076.56 599.95
vertex 6666.27 10111.140000000001 599.95
endloop
endfacet
facet normal -0.8821692656664153 -0.4709324651301688 0
outer loop
vertex 6684.7300000000005 10076.56 199.94
vertex 6666.27 10111.140000000001 599.95
vertex 6666.27 10111.140000000001 199.94
endloop
endfacet
facet normal -0.7733654271742612 -0.6339605003875025 0
outer loop
vertex 6666.27 10111.140000000001 199.94
vertex 6666.27 10111.140000000001 599.95
vertex 6641.4400000000005 10141.43 599.95
endloop
endfacet
facet normal -0.7733654271742612 -0.6339605003875025 0
outer loop
vertex 6666.27 10111.140000000001 199.94
vertex 6641.4400000000005 10141.43 599.95
vertex 6641.4400000000005 10141.43 199.94
endloop
endfacet
facet normal -0.6339605003874911 -0.7733654271742705 0
outer loop
vertex 6641.4400000000005 10141.43 199.94
vertex 6641.4400000000005 10141.43 599.95
vertex 6611.150000000001 10166.26 599.95
endloop
endfacet
facet normal -0.6339605003874911 -0.7733654271742705 0
outer loop
vertex 6641.4400000000005 10141.43 199.94
vertex 6611.150000000001 10166.26 599.95
vertex 6611.150000000001 10166.26 199.94
endloop
endfacet
facet normal -0.4709324651302061 -0.8821692656663953 0
outer loop
vertex 6611.150000000001 10166.26 199.94
vertex 6611.150000000001 10166.26 599.95
vertex 6576.570000000001 10184.720000000001 599.95
endloop
endfacet
facet normal -0.4709324651302061 -0.8821692656663953 0
outer loop
vertex 6611.150000000001 10166.26 199.94
vertex 6576.570000000001 10184.720000000001 599.95
vertex 6576.570000000001 10184.720000000001 199.94
endloop
endfacet
facet normal -0.2912933318541455 -0.956633783021126 0
outer loop
vertex 6576.570000000001 10184.720000000001 199.94
vertex 6576.570000000001 10184.720000000001 599.95
vertex 6539 10196.16 599.95
endloop
endfacet
facet normal -0.2912933318541455 -0.956633783021126 0
outer loop
vertex 6576.570000000001 10184.720000000001 199.94
vertex 6539 10196.16 599.95
vertex 6539 10196.16 199.94
endloop
endfacet
facet normal -0.09950371902098973 -0.99503719020999 0
outer loop
vertex 6539 10196.16 199.94
vertex 6539 10196.16 599.95
vertex 6500 10200.06 599.95
endloop
endfacet
facet normal -0.09950371902098973 -0.99503719020999 0
outer loop
vertex 6539 10196.16 199.94
vertex 6500 10200.06 599.95
vertex 6500 10200.06 199.94
endloop
endfacet
facet normal -1 0 0
outer loop
vertex 6699.9400000000005 8750.04 400.01
vertex 6699.9400000000005 9800.050000000001 199.94
vertex 6699.9400000000005 7700.030000000001 199.94
endloop
endfacet
facet normal -1 0 0
outer loop
vertex 6699.9400000000005 8750.04 400.01
vertex 6699.9400000000005 7700.030000000001 199.94
vertex 6699.9400000000005 7499.96 199.94
endloop
endfacet
facet normal -1 0 0
outer loop
vertex 6699.9400000000005 8750.04 400.01
vertex 6699.9400000000005 7499.96 199.94
vertex 6699.9400000000005 7499.96 599.95
endloop
endfacet
facet normal -1 0 0
outer loop
vertex 6699.9400000000005 8750.04 400.01
vertex 6699.9400000000005 7499.96 599.95
vertex 6699.9400000000005 7700.030000000001 599.95
endloop
endfacet
facet normal -1 0 0
outer loop
vertex 6699.9400000000005 8750.04 400.01
vertex 6699.9400000000005 7700.030000000001 599.95
vertex 6699.9400000000005 9800.050000000001 599.95
endloop
endfacet
facet normal -1 0 0
outer loop
vertex 6699.9400000000005 8750.04 400.01
vertex 6699.9400000000005 9800.050000000001 599.95
vertex 6699.9400000000005 9999.99 599.95
endloop
endfacet
facet normal -0.9999999999999999 0 0
outer loop
vertex 6699.9400000000005 8750.04 400.01
vertex 6699.9400000000005 9999.99 599.95
vertex 6699.9400000000005 9999.99 199.94
endloop
endfacet
facet normal -1 0 0
outer loop
vertex 6699.9400000000005 8750.04 400.01
vertex 6699.9400000000005 9999.99 199.94
vertex 6699.9400000000005 9800.050000000001 199.94
endloop
endfacet
facet normal -0.09621815937081751 0.9953602693534094 0
outer loop
vertex 6500 7300.02 199.94
vertex 6500 7300.02 599.95
vertex 6539 7303.79 599.95
endloop
endfacet
facet normal -0.09621815937081751 0.9953602693534094 0
outer loop
vertex 6500 7300.02 199.94
vertex 6539 7303.79 599.95
vertex 6539 7303.79 199.94
endloop
endfacet
facet normal -0.2912933318541879 0.956633783021113 0
outer loop
vertex 6539 7303.79 199.94
vertex 6539 7303.79 599.95
vertex 6576.570000000001 7315.2300000000005 599.95
endloop
endfacet
facet normal -0.2912933318541879 0.956633783021113 0
outer loop
vertex 6539 7303.79 199.94
vertex 6576.570000000001 7315.2300000000005 599.95
vertex 6576.570000000001 7315.2300000000005 199.94
endloop
endfacet
facet normal -0.470932465130188 0.8821692656664049 0
outer loop
vertex 6576.570000000001 7315.2300000000005 199.94
vertex 6576.570000000001 7315.2300000000005 599.95
vertex 6611.150000000001 7333.6900000000005 599.95
endloop
endfacet
facet normal -0.470932465130188 0.8821692656664049 0
outer loop
vertex 6576.570000000001 7315.2300000000005 199.94
vertex 6611.150000000001 7333.6900000000005 599.95
vertex 6611.150000000001 7333.6900000000005 199.94
endloop
endfacet
facet normal -0.6339605003874911 0.7733654271742705 0
outer loop
vertex 6611.150000000001 7333.6900000000005 199.94
vertex 6611.150000000001 7333.6900000000005 599.95
vertex 6641.4400000000005 7358.52 599.95
endloop
endfacet
facet normal -0.6339605003874911 0.7733654271742705 0
outer loop
vertex 6611.150000000001 7333.6900000000005 199.94
vertex 6641.4400000000005 7358.52 599.95
vertex 6641.4400000000005 7358.52 199.94
endloop
endfacet
facet normal -0.7746942974007817 0.6323359436049082 0
outer loop
vertex 6641.4400000000005 7358.52 199.94
vertex 6641.4400000000005 7358.52 599.95
vertex 6666.27 7388.9400000000005 599.95
endloop
endfacet
facet normal -0.7746942974007817 0.6323359436049082 0
outer loop
vertex 6641.4400000000005 7358.52 199.94
vertex 6666.27 7388.9400000000005 599.95
vertex 6666.27 7388.9400000000005 199.94
endloop
endfacet
facet normal -0.8821692656664049 0.470932465130188 0
outer loop
vertex 6666.27 7388.9400000000005 199.94
vertex 6666.27 7388.9400000000005 599.95
vertex 6684.7300000000005 7423.52 599.95
endloop
endfacet
facet normal -0.8821692656664049 0.470932465130188 0
outer loop
vertex 6666.27 7388.9400000000005 199.94
vertex 6684.7300000000005 7423.52 599.95
vertex 6684.7300000000005 7423.52 199.94
endloop
endfacet
facet normal -0.9563515710513408 0.2922185355990137 0
outer loop
vertex 6684.7300000000005 7423.52 199.94
vertex 6684.7300000000005 7423.52 599.95
vertex 6696.17 7460.96 599.95
endloop
endfacet
facet normal -0.9563515710513408 0.2922185355990137 0
outer loop
vertex 6684.7300000000005 7423.52 199.94
vertex 6696.17 7460.96 599.95
vertex 6696.17 7460.96 199.94
endloop
endfacet
facet normal -0.9953602693534073 0.09621815937084051 0
outer loop
vertex 6696.17 7460.96 199.94
vertex 6696.17 7460.96 599.95
vertex 6699.9400000000005 7499.96 599.95
endloop
endfacet
facet normal -0.9953602693534073 0.09621815937084051 0
outer loop
vertex 6696.17 7460.96 199.94
vertex 6699.9400000000005 7499.96 599.95
vertex 6699.9400000000005 7499.96 199.94
endloop
endfacet
facet normal 1 0 0
outer loop
vertex 6300.06 7700.030000000001 599.95
vertex 6300.06 7700.030000000001 199.94
vertex 6300.06 9800.050000000001 199.94
endloop
endfacet
facet normal 1 0 0
outer loop
vertex 6300.06 7700.030000000001 599.95
vertex 6300.06 9800.050000000001 199.94
vertex 6300.06 9800.050000000001 599.95
endloop
endfacet
endsolid JSCAD
