solid JSCAD
facet normal -1 0 0
outer loop
vertex 0 0 0
vertex 0 0 3999.9700000000003
vertex 0 15000.050000000001 3999.9700000000003
endloop
endfacet
facet normal -1 0 0
outer loop
vertex 0 0 0
vertex 0 15000.050000000001 3999.9700000000003
vertex 0 15000.050000000001 0
endloop
endfacet
facet normal 1 0 0
outer loop
vertex 19999.98 0 0
vertex 19999.98 15000.050000000001 0
vertex 19999.98 15000.050000000001 3999.9700000000003
endloop
endfacet
facet normal 1 0 0
outer loop
vertex 19999.98 0 0
vertex 19999.98 15000.050000000001 3999.9700000000003
vertex 19999.98 0 3999.9700000000003
endloop
endfacet
facet normal 0 -1 0
outer loop
vertex 0 0 0
vertex 19999.98 0 0
vertex 19999.98 0 3999.9700000000003
endloop
endfacet
facet normal 0 -1 0
outer loop
vertex 0 0 0
vertex 19999.98 0 3999.9700000000003
vertex 0 0 3999.9700000000003
endloop
endfacet
facet normal 0 1 0
outer loop
vertex 0 15000.050000000001 0
vertex 0 15000.050000000001 3999.9700000000003
vertex 19999.98 15000.050000000001 3999.9700000000003
endloop
endfacet
facet normal 0 1 0
outer loop
vertex 0 15000.050000000001 0
vertex 19999.98 15000.050000000001 3999.9700000000003
vertex 19999.98 15000.050000000001 0
endloop
endfacet
facet normal 0 0 -1
outer loop
vertex 0 0 0
vertex 0 15000.050000000001 0
vertex 19999.98 15000.050000000001 0
endloop
endfacet
facet normal 0 0 -1
outer loop
vertex 0 0 0
vertex 19999.98 15000.050000000001 0
vertex 19999.98 0 0
endloop
endfacet
facet normal 0 0 1
outer loop
vertex 0 0 3999.9700000000003
vertex 19999.98 0 3999.9700000000003
vertex 19999.98 15000.050000000001 3999.9700000000003
endloop
endfacet
facet normal 0 0 1
outer loop
vertex 0 0 3999.9700000000003
vertex 19999.98 15000.050000000001 3999.9700000000003
vertex 0 15000.050000000001 3999.9700000000003
endloop
endfacet
facet normal 0.7071067811865486 -0.7071067811865464 0
outer loop
vertex 2641.4700000000003 12641.460000000001 199.94
vertex 2641.4700000000003 12641.460000000001 599.95
vertex 2358.59 12358.58 599.95
endloop
endfacet
facet normal 0.7071067811865486 -0.7071067811865464 0
outer loop
vertex 2641.4700000000003 12641.460000000001 199.94
vertex 2358.59 12358.58 599.95
vertex 2358.59 12358.58 199.94
endloop
endfacet
facet normal 0.707106781186585 0.70710678118651 3.7478672863946296e-14
outer loop
vertex 4686.76 10030.41 1261.91
vertex 4680.39 10036.78 1257.49
vertex 4686.5 10030.67 1262.43
endloop
endfacet
facet normal 0.7071067811865475 0.7071067811865475 0
outer loop
vertex 5105.360000000001 9611.81 1257.49
vertex 5098.99 9618.18 1261.91
vertex 5099.25 9617.92 1262.43
endloop
endfacet
facet normal 0.7071067811865471 0.707106781186548 2.307724645131751e-15
outer loop
vertex 4821.83 9895.34 911.0400000000001
vertex 4049.63 10667.54 280.54
vertex 3908.19 10808.98 626.99
endloop
endfacet
facet normal 0.7071067811865476 0.7071067811865475 -1.759640041912959e-15
outer loop
vertex 4821.83 9895.34 911.0400000000001
vertex 3908.19 10808.98 626.99
vertex 4680.39 10036.78 1257.49
endloop
endfacet
facet normal 0.7644707871566907 0.6115766297243854 -0.20385887657639962
outer loop
vertex 4043.3900000000003 10673.65 275.47
vertex 4043.3900000000003 10673.78 275.86
vertex 4049.63 10667.54 280.54
endloop
endfacet
facet normal 0.7071067811865477 0.7071067811865472 1.6312937466206063e-15
outer loop
vertex 5883.67 8833.5 621.9200000000001
vertex 5742.2300000000005 8974.94 275.47
vertex 4963.92 9753.25 911.0400000000001
endloop
endfacet
facet normal 0.7071067811865475 0.7071067811865475 0
outer loop
vertex 5883.67 8833.5 621.9200000000001
vertex 4963.92 9753.25 911.0400000000001
vertex 5105.360000000001 9611.81 1257.49
endloop
endfacet
facet normal 0.7071067811865475 0.7071067811865475 0
outer loop
vertex 3837.08 10880.09 599.95
vertex 3837.08 10880.09 199.94
vertex 2358.59 12358.58 199.94
endloop
endfacet
facet normal 0.7071067811865475 0.7071067811865475 0
outer loop
vertex 3837.08 10880.09 599.95
vertex 2358.59 12358.58 199.94
vertex 2358.59 12358.58 599.95
endloop
endfacet
facet normal 0.7071393795213815 0.7070741813488279 0
outer loop
vertex 7358.52 7358.52 599.95
vertex 7358.52 7358.52 199.94
vertex 5948.67 8768.5 199.94
endloop
endfacet
facet normal 0.7071393795213815 0.7070741813488279 0
outer loop
vertex 7358.52 7358.52 599.95
vertex 5948.67 8768.5 199.94
vertex 5948.67 8768.5 599.95
endloop
endfacet
facet normal -0.7070698137484838 -0.7071437075852217 0.00023517719069798574
outer loop
vertex 5240.6900000000005 10042.24 915.98
vertex 6019 9263.800000000001 280.54
vertex 6160.4400000000005 9122.49 626.99
endloop
endfacet
facet normal -0.7071067811865474 -0.7071067811865479 1.6599978288216816e-15
outer loop
vertex 5240.6900000000005 10042.24 915.98
vertex 6160.4400000000005 9122.49 626.99
vertex 5382.13 9900.800000000001 1262.43
endloop
endfacet
facet normal -0.7071067811876195 -0.7071067811854758 -2.5834266217778113e-12
outer loop
vertex 6025.110000000001 9257.69 275.47
vertex 6025.24 9257.56 275.86
vertex 6019 9263.800000000001 280.54
endloop
endfacet
facet normal -0.7070628377095408 -0.707150721022642 0.000035878816005284784
outer loop
vertex 4184.83 11097.970000000001 621.9200000000001
vertex 4326.27 10956.53 275.47
vertex 5110.820000000001 10172.11 915.98
endloop
endfacet
facet normal -0.7070628377095409 -0.7071507210226418 0.000035878816005228
outer loop
vertex 4184.83 11097.970000000001 621.9200000000001
vertex 5110.820000000001 10172.11 915.98
vertex 4969.38 10313.550000000001 1262.43
endloop
endfacet
facet normal -0.7071067811865475 -0.7071067811865475 0
outer loop
vertex 6231.42 9051.380000000001 599.95
vertex 6231.42 9051.380000000001 199.94
vertex 7641.400000000001 7641.400000000001 199.94
endloop
endfacet
facet normal -0.7071067811865475 -0.7071067811865475 0
outer loop
vertex 6231.42 9051.380000000001 599.95
vertex 7641.400000000001 7641.400000000001 199.94
vertex 7641.400000000001 7641.400000000001 599.95
endloop
endfacet
facet normal -0.7071067811865475 -0.7071067811865475 0
outer loop
vertex 2641.4700000000003 12641.460000000001 599.95
vertex 2641.4700000000003 12641.460000000001 199.94
vertex 4119.96 11162.970000000001 199.94
endloop
endfacet
facet normal -0.7071067811865475 -0.7071067811865475 0
outer loop
vertex 2641.4700000000003 12641.460000000001 599.95
vertex 4119.96 11162.970000000001 199.94
vertex 4119.96 11162.970000000001 599.95
endloop
endfacet
facet normal 0 0 1
outer loop
vertex 3387.15 11612.9 199.94
vertex 2358.59 12358.58 199.94
vertex 3837.08 10880.09 199.94
endloop
endfacet
facet normal 0 0 1
outer loop
vertex 3387.15 11612.9 199.94
vertex 3837.08 10880.09 199.94
vertex 3978.52 11021.53 199.94
endloop
endfacet
facet normal 0 0 1
outer loop
vertex 3387.15 11612.9 199.94
vertex 3978.52 11021.53 199.94
vertex 4119.96 11162.970000000001 199.94
endloop
endfacet
facet normal 0 0 1
outer loop
vertex 3387.15 11612.9 199.94
vertex 4119.96 11162.970000000001 199.94
vertex 2641.4700000000003 12641.460000000001 199.94
endloop
endfacet
facet normal 0 0 1
outer loop
vertex 3387.15 11612.9 199.94
vertex 2641.4700000000003 12641.460000000001 199.94
vertex 2358.59 12358.58 199.94
endloop
endfacet
facet normal 0 0 0.9999999999999999
outer loop
vertex 5948.67 8768.5 199.94
vertex 7358.52 7358.52 199.94
vertex 7641.400000000001 7641.400000000001 199.94
endloop
endfacet
facet normal 0 0 1
outer loop
vertex 5948.67 8768.5 199.94
vertex 7641.400000000001 7641.400000000001 199.94
vertex 6231.42 9051.380000000001 199.94
endloop
endfacet
facet normal 0 0 -1
outer loop
vertex 3387.15 11612.9 599.95
vertex 4119.96 11162.970000000001 599.95
vertex 3978.52 11021.53 599.95
endloop
endfacet
facet normal 0 0 -1
outer loop
vertex 3387.15 11612.9 599.95
vertex 3978.52 11021.53 599.95
vertex 3837.08 10880.09 599.95
endloop
endfacet
facet normal 0 0 -1
outer loop
vertex 3387.15 11612.9 599.95
vertex 3837.08 10880.09 599.95
vertex 2358.59 12358.58 599.95
endloop
endfacet
facet normal 0 0 -1
outer loop
vertex 3387.15 11612.9 599.95
vertex 2358.59 12358.58 599.95
vertex 2641.4700000000003 12641.460000000001 599.95
endloop
endfacet
facet normal 0 0 -1
outer loop
vertex 3387.15 11612.9 599.95
vertex 2641.4700000000003 12641.460000000001 599.95
vertex 4119.96 11162.970000000001 599.95
endloop
endfacet
facet normal 0 0 -1
outer loop
vertex 7641.400000000001 7641.400000000001 599.95
vertex 7358.52 7358.52 599.95
vertex 5948.67 8768.5 599.95
endloop
endfacet
facet normal 0 0 -0.9999999999999999
outer loop
vertex 7641.400000000001 7641.400000000001 599.95
vertex 5948.67 8768.5 599.95
vertex 6231.42 9051.380000000001 599.95
endloop
endfacet
facet normal -0.02324324663889665 0.023243246638896573 0.9994596054725606
outer loop
vertex 3848.26 10868.91 200.46
vertex 3978.52 11021.53 199.94
vertex 3837.08 10880.09 199.94
endloop
endfacet
facet normal -0.023243246638896688 0.023243246638896542 0.9994596054725609
outer loop
vertex 3848.26 10868.91 200.46
vertex 3837.08 10880.09 199.94
vertex 3695.6400000000003 10738.65 199.94
endloop
endfacet
facet normal -0.023343156560725026 0.02336032695907784 0.9994545473237622
outer loop
vertex 3848.26 10868.91 200.46
vertex 3695.6400000000003 10738.65 199.94
vertex 3723.46 10710.83 201.24
endloop
endfacet
facet normal -0.023424635995372388 0.02342463599537231 0.9994511358025308
outer loop
vertex 3848.26 10868.91 200.46
vertex 3723.46 10710.83 201.24
vertex 4006.34 10993.710000000001 201.24
endloop
endfacet
facet normal -0.023360326959077755 0.023343156560724745 0.9994545473237623
outer loop
vertex 3848.26 10868.91 200.46
vertex 4006.34 10993.710000000001 201.24
vertex 3978.52 11021.53 199.94
endloop
endfacet
facet normal -0.07007586314811892 0.07007586314811869 0.9950772567032635
outer loop
vertex 4006.34 10993.710000000001 201.24
vertex 3723.46 10710.83 201.24
vertex 3751.15 10683.140000000001 205.14000000000001
endloop
endfacet
facet normal -0.07007586314811644 0.07007586314811666 0.9950772567032636
outer loop
vertex 4006.34 10993.710000000001 201.24
vertex 3751.15 10683.140000000001 205.14000000000001
vertex 4034.03 10966.02 205.14000000000001
endloop
endfacet
facet normal -0.11457921681029339 0.11457921681029376 0.9867842753866112
outer loop
vertex 4034.03 10966.02 205.14000000000001
vertex 3751.15 10683.140000000001 205.14000000000001
vertex 3778.58 10655.710000000001 211.51000000000002
endloop
endfacet
facet normal -0.11457921681029333 0.11457921681029372 0.9867842753866112
outer loop
vertex 4034.03 10966.02 205.14000000000001
vertex 3778.58 10655.710000000001 211.51000000000002
vertex 4061.46 10938.59 211.51000000000002
endloop
endfacet
facet normal -0.1614822782754237 0.16148227827542422 0.9735743153996809
outer loop
vertex 4061.46 10938.59 211.51000000000002
vertex 3778.58 10655.710000000001 211.51000000000002
vertex 3805.6200000000003 10628.67 220.48000000000002
endloop
endfacet
facet normal -0.16148227827543077 0.16148227827543 0.9735743153996786
outer loop
vertex 4061.46 10938.59 211.51000000000002
vertex 3805.6200000000003 10628.67 220.48000000000002
vertex 4088.5 10911.550000000001 220.48000000000002
endloop
endfacet
facet normal -0.20538112423523028 0.20538112423522928 0.9568893288232168
outer loop
vertex 4088.5 10911.550000000001 220.48000000000002
vertex 3805.6200000000003 10628.67 220.48000000000002
vertex 3832.27 10602.02 231.92000000000002
endloop
endfacet
facet normal -0.20538112423521968 0.20538112423522065 0.9568893288232209
outer loop
vertex 4088.5 10911.550000000001 220.48000000000002
vertex 3832.27 10602.02 231.92000000000002
vertex 4115.150000000001 10884.9 231.92000000000002
endloop
endfacet
facet normal -0.24814626866413958 0.24814626866414077 0.9364010138269441
outer loop
vertex 4115.150000000001 10884.9 231.92000000000002
vertex 3832.27 10602.02 231.92000000000002
vertex 3858.27 10576.02 245.70000000000002
endloop
endfacet
facet normal -0.24814626866413955 0.2481462686641408 0.9364010138269441
outer loop
vertex 4115.150000000001 10884.9 231.92000000000002
vertex 3858.27 10576.02 245.70000000000002
vertex 4141.150000000001 10858.9 245.70000000000002
endloop
endfacet
facet normal -0.2919238350969115 0.2919238350969129 0.91080236550232
outer loop
vertex 4018.56 10705.890000000001 255.45000000000002
vertex 4141.150000000001 10858.9 245.70000000000002
vertex 3858.27 10576.02 245.70000000000002
endloop
endfacet
facet normal -0.2919238350968974 0.2919238350968947 0.9108023655023303
outer loop
vertex 4018.56 10705.890000000001 255.45000000000002
vertex 3858.27 10576.02 245.70000000000002
vertex 3883.6200000000003 10550.67 261.95
endloop
endfacet
facet normal -0.2919238350968856 0.29192383509688474 0.9108023655023373
outer loop
vertex 4018.56 10705.890000000001 255.45000000000002
vertex 3883.6200000000003 10550.67 261.95
vertex 4043.3900000000003 10710.44 261.95
endloop
endfacet
facet normal -0.2919238350968854 0.29192383509688324 0.9108023655023378
outer loop
vertex 4018.56 10705.890000000001 255.45000000000002
vertex 4043.3900000000003 10710.44 261.95
vertex 4166.5 10833.550000000001 261.95
endloop
endfacet
facet normal -0.29192383509690795 0.2919238350969102 0.9108023655023219
outer loop
vertex 4018.56 10705.890000000001 255.45000000000002
vertex 4166.5 10833.550000000001 261.95
vertex 4141.150000000001 10858.9 245.70000000000002
endloop
endfacet
facet normal 0.33472706763507165 -0.33472706763507487 -0.8808607043028146
outer loop
vertex 3904.94 10812.23 624.52
vertex 3908.19 10808.98 626.99
vertex 3766.75 10667.54 626.99
endloop
endfacet
facet normal 0.3353967121038808 -0.335358180687707 -0.8803657967888904
outer loop
vertex 3904.94 10812.23 624.52
vertex 3766.75 10667.54 626.99
vertex 3758.56 10675.73 620.75
endloop
endfacet
facet normal 0.3341775560848309 -0.33402398184030535 -0.8813361110068718
outer loop
vertex 3904.94 10812.23 624.52
vertex 3758.56 10675.73 620.75
vertex 4041.31 10958.61 620.75
endloop
endfacet
facet normal 0.3333665358388022 -0.33328354690779743 -0.8819233697682552
outer loop
vertex 3904.94 10812.23 624.52
vertex 4041.31 10958.61 620.75
vertex 4049.63 10950.42 626.99
endloop
endfacet
facet normal 0.33472706763507376 -0.33472706763507265 -0.8808607043028145
outer loop
vertex 3904.94 10812.23 624.52
vertex 4049.63 10950.42 626.99
vertex 3908.19 10808.98 626.99
endloop
endfacet
facet normal 0.2919977739392882 -0.2919977739392882 -0.910754961572541
outer loop
vertex 3758.56 10675.73 620.75
vertex 3750.11 10684.31 615.2900000000001
vertex 4032.86 10967.06 615.2900000000001
endloop
endfacet
facet normal 0.2939247565954359 -0.2937896808800876 -0.9095580579977784
outer loop
vertex 3758.56 10675.73 620.75
vertex 4032.86 10967.06 615.2900000000001
vertex 4041.31 10958.61 620.75
endloop
endfacet
facet normal 0.25114105958294397 -0.25114105958294397 -0.9348028328921091
outer loop
vertex 3750.11 10684.31 615.2900000000001
vertex 3741.4 10693.02 610.61
vertex 4024.15 10975.77 610.61
endloop
endfacet
facet normal 0.25114105958294375 -0.25114105958294375 -0.9348028328921091
outer loop
vertex 3750.11 10684.31 615.2900000000001
vertex 4024.15 10975.77 610.61
vertex 4032.86 10967.06 615.2900000000001
endloop
endfacet
facet normal 0.20278728630602028 -0.20278728630602058 -0.9579951111698224
outer loop
vertex 3741.4 10693.02 610.61
vertex 3732.4300000000003 10701.86 606.84
vertex 4015.31 10984.74 606.84
endloop
endfacet
facet normal 0.20278728630602535 -0.20278728630602535 -0.9579951111698203
outer loop
vertex 3741.4 10693.02 610.61
vertex 4015.31 10984.74 606.84
vertex 4024.15 10975.77 610.61
endloop
endfacet
facet normal 0.16111515793522013 -0.16111515793522016 -0.9736959544781
outer loop
vertex 3732.4300000000003 10701.86 606.84
vertex 3723.46 10710.960000000001 603.85
vertex 4006.21 10993.710000000001 603.85
endloop
endfacet
facet normal 0.16111515793521616 -0.1611151579352164 -0.9736959544781012
outer loop
vertex 3732.4300000000003 10701.86 606.84
vertex 4006.21 10993.710000000001 603.85
vertex 4015.31 10984.74 606.84
endloop
endfacet
facet normal 0.11204163120043426 -0.11204163120043391 -0.9873668749537285
outer loop
vertex 3723.46 10710.960000000001 603.85
vertex 3714.23 10720.06 601.77
vertex 3997.11 11002.94 601.77
endloop
endfacet
facet normal 0.11204163120042868 -0.11204163120042868 -0.9873668749537297
outer loop
vertex 3723.46 10710.960000000001 603.85
vertex 3997.11 11002.94 601.77
vertex 4006.21 10993.710000000001 603.85
endloop
endfacet
facet normal 0.07009196882129733 -0.07005975743856716 -0.9950772564451482
outer loop
vertex 3714.23 10720.06 601.77
vertex 3705 10729.29 600.47
vertex 3987.75 11012.17 600.47
endloop
endfacet
facet normal 0.06959058508638118 -0.06959058508638095 -0.9951453667352677
outer loop
vertex 3714.23 10720.06 601.77
vertex 3987.75 11012.17 600.47
vertex 3997.11 11002.94 601.77
endloop
endfacet
facet normal 0.027934947772300767 -0.02757778862270063 -0.9992292551099775
outer loop
vertex 3840.85 10876.32 600.21
vertex 3705 10729.29 600.47
vertex 3695.6400000000003 10738.65 599.95
endloop
endfacet
facet normal 0.03444182951591154 -0.034441829515911314 -0.9988130559615217
outer loop
vertex 3840.85 10876.32 600.21
vertex 3695.6400000000003 10738.65 599.95
vertex 3837.08 10880.09 599.95
endloop
endfacet
facet normal 0.03444182951591148 -0.034441829515911376 -0.9988130559615217
outer loop
vertex 3840.85 10876.32 600.21
vertex 3837.08 10880.09 599.95
vertex 3978.52 11021.53 599.95
endloop
endfacet
facet normal 0.027775519156667264 -0.028122391967596846 -0.9992185204476538
outer loop
vertex 3840.85 10876.32 600.21
vertex 3978.52 11021.53 599.95
vertex 3987.75 11012.17 600.47
endloop
endfacet
facet normal 0.023384428549202984 -0.023373682028730074 -0.9994532702882346
outer loop
vertex 3840.85 10876.32 600.21
vertex 3987.75 11012.17 600.47
vertex 3705 10729.29 600.47
endloop
endfacet
facet normal 0.7064031063053159 0.707809046299362 0.001002685887226792
outer loop
vertex 4735.12 9699.17 1232.14
vertex 4806.88 9627.41 1332.76
vertex 4861.4800000000005 9572.94 1317.55
endloop
endfacet
facet normal 0.7071774964903507 0.707034887206953 -0.0012871401988965537
outer loop
vertex 4735.12 9699.17 1232.14
vertex 4861.4800000000005 9572.94 1317.55
vertex 4963.92 9470.37 1257.49
endloop
endfacet
facet normal 0.7071067811865462 0.7071067811865488 -8.844384264900095e-16
outer loop
vertex 4735.12 9699.17 1232.14
vertex 4963.92 9470.37 1257.49
vertex 4833.53 9600.76 937.95
endloop
endfacet
facet normal 0.7071067811865496 0.7071067811865456 1.3047780503795835e-15
outer loop
vertex 4735.12 9699.17 1232.14
vertex 4833.53 9600.76 937.95
vertex 4669.34 9764.95 937.95
endloop
endfacet
facet normal 0.7071067811865477 0.7071067811865475 2.1228045559078295e-15
outer loop
vertex 4735.12 9699.17 1232.14
vertex 4669.34 9764.95 937.95
vertex 4538.95 9895.34 1257.49
endloop
endfacet
facet normal 0.7069606757509997 0.707249329008143 -0.0022337321283547634
outer loop
vertex 4735.12 9699.17 1232.14
vertex 4538.95 9895.34 1257.49
vertex 4588.87 9845.550000000001 1292.2
endloop
endfacet
facet normal 0.7076776275596243 0.7065343596307606 0.0012546364942326328
outer loop
vertex 4735.12 9699.17 1232.14
vertex 4588.87 9845.550000000001 1292.2
vertex 4641.39 9792.9 1317.55
endloop
endfacet
facet normal 0.707106781186543 0.707106781186552 -9.875280399536374e-15
outer loop
vertex 4735.12 9699.17 1232.14
vertex 4641.39 9792.9 1317.55
vertex 4695.99 9738.300000000001 1332.76
endloop
endfacet
facet normal 0.7063063987051761 0.7079059854158718 -0.000622061498610321
outer loop
vertex 4735.12 9699.17 1232.14
vertex 4695.99 9738.300000000001 1332.76
vertex 4751.5 9682.92 1337.96
endloop
endfacet
facet normal 0.7078829131771582 0.7063289268966767 -0.0011082692853045947
outer loop
vertex 4735.12 9699.17 1232.14
vertex 4751.5 9682.92 1337.96
vertex 4806.88 9627.41 1332.76
endloop
endfacet
facet normal 0.7060630805716511 0.7060630805716613 -0.054312544658909605
outer loop
vertex 4751.5 9682.92 937.95
vertex 4732.91 9701.380000000001 936.26
vertex 4670.12 9764.17 936.26
endloop
endfacet
facet normal 0.7065466025190895 0.7076663277211731 -0.000516796247496503
outer loop
vertex 4751.5 9682.92 937.95
vertex 4670.12 9764.17 936.26
vertex 4669.34 9764.95 937.95
endloop
endfacet
facet normal 0.7071067811865424 0.7071067811865527 3.852674640667597e-13
outer loop
vertex 4833.53 9600.76 937.95
vertex 4832.75 9601.54 936.26
vertex 4769.96 9664.33 936.26
endloop
endfacet
facet normal 0.7070395554220905 0.7059208219483204 -0.042081589897963935
outer loop
vertex 4833.53 9600.76 937.95
vertex 4769.96 9664.33 936.26
vertex 4751.5 9682.92 937.95
endloop
endfacet
facet normal 0.7057975163395652 0.7079625393958385 0.02527664418186773
outer loop
vertex 4732.91 9701.380000000001 936.26
vertex 4714.71 9719.710000000001 931.0600000000001
vertex 4672.2 9762.09 931.0600000000001
endloop
endfacet
facet normal 0.7071067811865424 0.7071067811865527 -3.9393207583084504e-15
outer loop
vertex 4732.91 9701.380000000001 936.26
vertex 4672.2 9762.09 931.0600000000001
vertex 4670.12 9764.17 936.26
endloop
endfacet
facet normal 0.7081885438229788 0.7060228296216835 -0.0008662856805181249
outer loop
vertex 4832.75 9601.54 936.26
vertex 4830.67 9603.62 931.0600000000001
vertex 4788.29 9646.130000000001 931.0600000000001
endloop
endfacet
facet normal 0.7069963216402627 0.706996321640273 0.017674908041109168
outer loop
vertex 4832.75 9601.54 936.26
vertex 4788.29 9646.130000000001 931.0600000000001
vertex 4769.96 9664.33 936.26
endloop
endfacet
facet normal 0.7070649442619213 0.7070649442618913 -0.010877922219561425
outer loop
vertex 4714.71 9719.710000000001 931.0600000000001
vertex 4697.03 9737.26 922.61
vertex 4675.58 9758.710000000001 922.61
endloop
endfacet
facet normal 0.706022829621676 0.7081885438229865 -0.0008662856804478796
outer loop
vertex 4714.71 9719.710000000001 931.0600000000001
vertex 4675.58 9758.710000000001 922.61
vertex 4672.2 9762.09 931.0600000000001
endloop
endfacet
facet normal 0.7071067811865624 0.7071067811865325 -8.809374915010953e-14
outer loop
vertex 4830.67 9603.62 931.0600000000001
vertex 4827.29 9607 922.61
vertex 4805.84 9628.45 922.61
endloop
endfacet
facet normal 0.7081744695746933 0.7060087984139126 -0.00636374141090958
outer loop
vertex 4830.67 9603.62 931.0600000000001
vertex 4805.84 9628.45 922.61
vertex 4788.29 9646.130000000001 931.0600000000001
endloop
endfacet
facet normal 0.7071067811865624 0.7071067811865326 -4.308103952893589e-14
outer loop
vertex 4697.03 9737.26 922.61
vertex 4680.39 9753.9 911.0400000000001
vertex 4675.58 9758.710000000001 922.61
endloop
endfacet
facet normal 0.7071067811865624 0.7071067811865326 -1.2470827232060388e-14
outer loop
vertex 4827.29 9607 922.61
vertex 4822.4800000000005 9611.81 911.0400000000001
vertex 4805.84 9628.45 922.61
endloop
endfacet
facet normal 0.7071067811865324 0.7071067811865626 -1.1499811268321668e-13
outer loop
vertex 3769.2200000000003 10665.07 620.75
vertex 3758.56 10675.73 620.75
vertex 3766.75 10667.54 626.99
endloop
endfacet
facet normal 0.709251692156892 0.704953197052952 0.0017398670659979092
outer loop
vertex 3769.2200000000003 10665.07 620.75
vertex 3771.4300000000003 10662.86 615.2900000000001
vertex 3750.11 10684.31 615.2900000000001
endloop
endfacet
facet normal 0.7070065889393145 0.7070065889393446 0.01683349021290261
outer loop
vertex 3769.2200000000003 10665.07 620.75
vertex 3750.11 10684.31 615.2900000000001
vertex 3758.56 10675.73 620.75
endloop
endfacet
facet normal 0.7085391111445807 0.7056705317472217 0.0011952414154289097
outer loop
vertex 3771.4300000000003 10662.86 615.2900000000001
vertex 3773.38 10660.91 610.61
vertex 3741.4 10693.02 610.61
endloop
endfacet
facet normal 0.7092300707231453 0.7049317066581978 -0.00799973312073705
outer loop
vertex 3771.4300000000003 10662.86 615.2900000000001
vertex 3741.4 10693.02 610.61
vertex 3750.11 10684.31 615.2900000000001
endloop
endfacet
facet normal 0.7071067811865512 0.7071067811865437 8.843941006254259e-14
outer loop
vertex 3773.38 10660.91 610.61
vertex 3774.94 10659.35 606.84
vertex 3732.4300000000003 10701.86 606.84
endloop
endfacet
facet normal 0.7081959188367013 0.7053287288818845 -0.031143615026289102
outer loop
vertex 3773.38 10660.91 610.61
vertex 3732.4300000000003 10701.86 606.84
vertex 3741.4 10693.02 610.61
endloop
endfacet
facet normal 0.707977973083785 0.7062341849727337 0.0006823518695418857
outer loop
vertex 3774.94 10659.35 606.84
vertex 3776.11 10658.18 603.85
vertex 3723.46 10710.960000000001 603.85
endloop
endfacet
facet normal 0.706772846442456 0.7067728464424484 0.03072925419315502
outer loop
vertex 3774.94 10659.35 606.84
vertex 3723.46 10710.960000000001 603.85
vertex 3732.4300000000003 10701.86 606.84
endloop
endfacet
facet normal 0.7071067811865424 0.7071067811865526 -4.500981725801499e-15
outer loop
vertex 3776.11 10658.18 603.85
vertex 3777.02 10657.27 601.77
vertex 3714.23 10720.06 601.77
endloop
endfacet
facet normal 0.7070273669904127 0.7052859202736801 -0.05180803982310322
outer loop
vertex 3776.11 10658.18 603.85
vertex 3714.23 10720.06 601.77
vertex 3723.46 10710.960000000001 603.85
endloop
endfacet
facet normal 0.7071067811865519 0.7071067811865431 -2.438037145659575e-13
outer loop
vertex 3777.02 10657.27 601.77
vertex 3777.54 10656.75 600.47
vertex 3705 10729.29 600.47
endloop
endfacet
facet normal 0.7071067811865425 0.7071067811865527 8.115000762115585e-13
outer loop
vertex 3777.02 10657.27 601.77
vertex 3705 10729.29 600.47
vertex 3714.23 10720.06 601.77
endloop
endfacet
facet normal 0.7071067811865497 0.7071067811865455 2.7280243288811764e-15
outer loop
vertex 3774.6800000000003 10659.61 369.07
vertex 3777.54 10656.75 600.47
vertex 3908.19 10526.1 280.54
endloop
endfacet
facet normal 0.707106781186548 0.7071067811865469 -1.7015540570969393e-15
outer loop
vertex 3774.6800000000003 10659.61 369.07
vertex 3908.19 10526.1 280.54
vertex 3858.27 10576.02 245.70000000000002
endloop
endfacet
facet normal 0.707106781186548 0.7071067811865471 -1.9434788192523776e-15
outer loop
vertex 3774.6800000000003 10659.61 369.07
vertex 3858.27 10576.02 245.70000000000002
vertex 3805.6200000000003 10628.67 220.48000000000002
endloop
endfacet
facet normal 0.7071067811865533 0.7071067811865417 2.814627475482668e-16
outer loop
vertex 3774.6800000000003 10659.61 369.07
vertex 3805.6200000000003 10628.67 220.48000000000002
vertex 3751.15 10683.140000000001 205.14000000000001
endloop
endfacet
facet normal 0.7071067811865386 0.7071067811865563 4.513102852732263e-15
outer loop
vertex 3774.6800000000003 10659.61 369.07
vertex 3751.15 10683.140000000001 205.14000000000001
vertex 3695.6400000000003 10738.65 199.94
endloop
endfacet
facet normal 0.7071067811865435 0.7071067811865516 0
outer loop
vertex 3774.6800000000003 10659.61 369.07
vertex 3695.6400000000003 10738.65 199.94
vertex 3695.6400000000003 10738.65 599.95
endloop
endfacet
facet normal 0.7071067811865142 0.7071067811865808 -2.0150685000023607e-14
outer loop
vertex 3774.6800000000003 10659.61 369.07
vertex 3695.6400000000003 10738.65 599.95
vertex 3705 10729.29 600.47
endloop
endfacet
facet normal 0.7071067811865519 0.707106781186543 2.669925569075912e-15
outer loop
vertex 3774.6800000000003 10659.61 369.07
vertex 3705 10729.29 600.47
vertex 3777.54 10656.75 600.47
endloop
endfacet
facet normal 0.7071067811865561 0.707106781186539 -3.7033747282740484e-13
outer loop
vertex 3751.15 10683.140000000001 205.14000000000001
vertex 3723.46 10710.83 201.24
vertex 3695.6400000000003 10738.65 199.94
endloop
endfacet
facet normal 0.7050106816276935 0.7091447090797313 -0.008586057015770681
outer loop
vertex 4914.13 9520.29 1292.2
vertex 4963.92 9470.37 1257.49
vertex 4861.4800000000005 9572.94 1317.55
endloop
endfacet
facet normal 0.7071067811865533 0.7071067811865419 1.0892442902811066e-15
outer loop
vertex 3778.58 10655.710000000001 211.51000000000002
vertex 3751.15 10683.140000000001 205.14000000000001
vertex 3805.6200000000003 10628.67 220.48000000000002
endloop
endfacet
facet normal 0.7071067811865476 0.7071067811865476 0
outer loop
vertex 3883.6200000000003 10550.67 261.95
vertex 3858.27 10576.02 245.70000000000002
vertex 3908.19 10526.1 280.54
endloop
endfacet
facet normal 0.7071067811865476 0.7071067811865476 0
outer loop
vertex 3832.27 10602.02 231.92000000000002
vertex 3805.6200000000003 10628.67 220.48000000000002
vertex 3858.27 10576.02 245.70000000000002
endloop
endfacet
facet normal -0.7071067811865671 -0.7071067811865281 5.4946778260106564e-14
outer loop
vertex 4088.5 10911.550000000001 220.48000000000002
vertex 4141.150000000001 10858.9 245.70000000000002
vertex 4184.7 10815.35 276.12
endloop
endfacet
facet normal -0.7071067811868268 -0.7071067811862684 9.573292710759149e-13
outer loop
vertex 4088.5 10911.550000000001 220.48000000000002
vertex 4184.7 10815.35 276.12
vertex 4184.4400000000005 10815.61 276.64
endloop
endfacet
facet normal -0.707106781186536 -0.707106781186559 -2.4615245199905453e-13
outer loop
vertex 3978.52 11021.53 199.94
vertex 4006.34 10993.710000000001 201.24
vertex 4034.03 10966.02 205.14000000000001
endloop
endfacet
facet normal -0.705313827074614 -0.7086651457251615 0.01805869795132552
outer loop
vertex 5144.2300000000005 9855.69 1317.55
vertex 5089.76 9910.29 1332.76
vertex 5034.25 9965.67 1337.96
endloop
endfacet
facet normal -0.706279505380829 -0.7079327813765716 -0.0006613103982975623
outer loop
vertex 5240.17 9759.880000000001 1261.26
vertex 5240.43 9759.62 1261.91
vertex 5196.88 9803.04 1292.2
endloop
endfacet
facet normal -0.7092592040851675 -0.7048893606476727 -0.009075828677874532
outer loop
vertex 5240.17 9759.880000000001 1261.26
vertex 5196.88 9803.04 1292.2
vertex 5144.2300000000005 9855.69 1317.55
endloop
endfacet
facet normal -0.711310273311096 -0.7028455702659918 0.006767528320345873
outer loop
vertex 4979.91 10020.140000000001 922.61
vertex 4997.46 10002.460000000001 931.0600000000001
vertex 5229.25 9770.800000000001 1234.48
endloop
endfacet
facet normal -0.707106781186124 -0.707106781186971 -6.564657731125344e-13
outer loop
vertex 4979.91 10020.140000000001 922.61
vertex 5229.25 9770.800000000001 1234.48
vertex 5230.03 9770.02 1236.43
endloop
endfacet
facet normal -0.7071067811865949 -0.7071067811865002 3.55093638631606e-13
outer loop
vertex 4034.03 10966.02 205.14000000000001
vertex 4061.46 10938.59 211.51000000000002
vertex 4088.5 10911.550000000001 220.48000000000002
endloop
endfacet
facet normal -0.7071067811866114 -0.7071067811864835 2.3956411662385794e-13
outer loop
vertex 4088.5 10911.550000000001 220.48000000000002
vertex 4115.150000000001 10884.9 231.92000000000002
vertex 4141.150000000001 10858.9 245.70000000000002
endloop
endfacet
facet normal 0.7071067811865498 -0.7071067811865452 0
outer loop
vertex 3695.6400000000003 10738.65 599.95
vertex 3695.6400000000003 10738.65 199.94
vertex 3837.08 10880.09 199.94
endloop
endfacet
facet normal 0.7071067811865498 -0.7071067811865452 0
outer loop
vertex 3695.6400000000003 10738.65 599.95
vertex 3837.08 10880.09 199.94
vertex 3837.08 10880.09 599.95
endloop
endfacet
facet normal -0.7071067811865486 0.7071067811865464 0
outer loop
vertex 3978.52 11021.53 599.95
vertex 4119.96 11162.970000000001 599.95
vertex 4119.96 11162.970000000001 199.94
endloop
endfacet
facet normal -0.7071067811865486 0.7071067811865464 0
outer loop
vertex 3978.52 11021.53 599.95
vertex 4119.96 11162.970000000001 199.94
vertex 3978.52 11021.53 199.94
endloop
endfacet
facet normal 0.6123381958041788 -0.6123381958041866 0.5000838608859084
outer loop
vertex 4043.3900000000003 10956.53 621.9200000000001
vertex 4184.7 10815.220000000001 275.86
vertex 4326.14 10956.66 275.86
endloop
endfacet
facet normal 0.6123381958041834 -0.6123381958041794 0.5000838608859121
outer loop
vertex 4043.3900000000003 10956.53 621.9200000000001
vertex 4326.14 10956.66 275.86
vertex 4184.83 11097.970000000001 621.9200000000001
endloop
endfacet
facet normal 0.6882472016114014 -0.6882472016113992 0.22941573387227207
outer loop
vertex 4043.3900000000003 10673.78 275.86
vertex 4043.3900000000003 10673.65 275.47
vertex 4326.27 10956.53 275.47
endloop
endfacet
facet normal 0.6397491364260056 -0.6394551340655176 0.4264014234960188
outer loop
vertex 4043.3900000000003 10673.78 275.86
vertex 4326.27 10956.53 275.47
vertex 4326.14 10956.66 275.86
endloop
endfacet
facet normal 0.353077130519092 -0.35701092546087265 -0.8648004041430458
outer loop
vertex 4332.38 10950.42 742.4300000000001
vertex 4049.63 10950.42 626.99
vertex 4043.3900000000003 10956.53 621.9200000000001
endloop
endfacet
facet normal 0.353632463025024 -0.3536324630250217 -0.8659608317872765
outer loop
vertex 4332.38 10950.42 742.4300000000001
vertex 4043.3900000000003 10956.53 621.9200000000001
vertex 4184.83 11097.970000000001 621.9200000000001
endloop
endfacet
facet normal 0.35337265933856415 -0.35367778514746184 -0.8660483750490944
outer loop
vertex 4389.1900000000005 10610.86 904.2800000000001
vertex 4332.38 10950.42 742.4300000000001
vertex 4969.38 10313.550000000001 1262.43
endloop
endfacet
facet normal 0.3534883402678928 -0.3534883402678916 -0.866078510638211
outer loop
vertex 4389.1900000000005 10610.86 904.2800000000001
vertex 4969.38 10313.550000000001 1262.43
vertex 4686.5 10030.67 1262.43
endloop
endfacet
facet normal 0.35372070932202626 -0.3533464445337636 -0.8660415405349043
outer loop
vertex 4389.1900000000005 10610.86 904.2800000000001
vertex 4686.5 10030.67 1262.43
vertex 3908.19 10808.98 626.99
endloop
endfacet
facet normal 0.3535920476220805 -0.35359204762207935 -0.865993838151779
outer loop
vertex 4389.1900000000005 10610.86 904.2800000000001
vertex 3908.19 10808.98 626.99
vertex 4049.63 10950.42 626.99
endloop
endfacet
facet normal 0.3535643805471934 -0.35361971415565097 -0.8659938374889021
outer loop
vertex 4389.1900000000005 10610.86 904.2800000000001
vertex 4049.63 10950.42 626.99
vertex 4332.38 10950.42 742.4300000000001
endloop
endfacet
facet normal -0.33129457822454905 0.33129457822454905 0.8834522085987653
outer loop
vertex 4043.3900000000003 10673.78 275.86
vertex 4043.3900000000003 10661.300000000001 280.54
vertex 4049.63 10667.54 280.54
endloop
endfacet
facet normal -0.3343390865972747 0.3343390865972722 0.8811553497236465
outer loop
vertex 4166.5 10833.550000000001 261.95
vertex 4043.3900000000003 10710.44 261.95
vertex 4043.3900000000003 10673.78 275.86
endloop
endfacet
facet normal -0.3354163617565259 0.3351080746593208 0.8804535436717479
outer loop
vertex 4166.5 10833.550000000001 261.95
vertex 4043.3900000000003 10673.78 275.86
vertex 4184.7 10815.220000000001 275.86
endloop
endfacet
facet normal -0.33356813036956046 0.3335681303695595 0.8817395334244191
outer loop
vertex 4043.3900000000003 10710.44 261.95
vertex 3883.6200000000003 10550.67 261.95
vertex 3908.19 10526.1 280.54
endloop
endfacet
facet normal -0.33356813036956096 0.33356813036955985 0.8817395334244189
outer loop
vertex 4043.3900000000003 10710.44 261.95
vertex 3908.19 10526.1 280.54
vertex 4043.3900000000003 10661.300000000001 280.54
endloop
endfacet
facet normal -0.7071067811865475 -0.7071067811865475 2.2216522815279077e-15
outer loop
vertex 5002.79 9997.26 937.95
vertex 5108.22 9891.83 937.95
vertex 5229.25 9770.800000000001 1234.48
endloop
endfacet
facet normal -0.7060771882254249 -0.7044000452605058 -0.07263319148072447
outer loop
vertex 5034.25 9965.67 937.95
vertex 5052.84 9947.210000000001 936.26
vertex 5107.4400000000005 9892.48 936.26
endloop
endfacet
facet normal -0.7054618565449466 -0.7067038668557662 0.05378860038395468
outer loop
vertex 5034.25 9965.67 937.95
vertex 5107.4400000000005 9892.48 936.26
vertex 5108.22 9891.83 937.95
endloop
endfacet
facet normal -0.7030487756980249 -0.7094401282043763 0.04916425004885513
outer loop
vertex 5002.79 9997.26 937.95
vertex 5001.360000000001 9998.56 936.26
vertex 5015.79 9984.26 936.26
endloop
endfacet
facet normal -0.7083850538241322 -0.7054698889935778 -0.022424344850417877
outer loop
vertex 5002.79 9997.26 937.95
vertex 5015.79 9984.26 936.26
vertex 5034.25 9965.67 937.95
endloop
endfacet
facet normal -0.7069963216402791 -0.7069963216402604 0.017674908040955888
outer loop
vertex 5052.84 9947.210000000001 936.26
vertex 5071.04 9928.880000000001 931.0600000000001
vertex 5105.360000000001 9894.56 931.0600000000001
endloop
endfacet
facet normal -0.7079469134087304 -0.7062653292913568 0.0006726336469495147
outer loop
vertex 5052.84 9947.210000000001 936.26
vertex 5105.360000000001 9894.56 931.0600000000001
vertex 5107.4400000000005 9892.48 936.26
endloop
endfacet
facet normal -0.7038918905077862 -0.7102909076942263 -0.0047992628899551065
outer loop
vertex 5001.360000000001 9998.56 936.26
vertex 4997.46 10002.460000000001 931.0600000000001
vertex 5015.79 9984.26 936.26
endloop
endfacet
facet normal -0.7070649442619079 -0.7070649442619079 -0.0108779222193469
outer loop
vertex 5071.04 9928.880000000001 931.0600000000001
vertex 5088.72 9911.33 922.61
vertex 5101.9800000000005 9898.07 922.61
endloop
endfacet
facet normal -0.7070649442619167 -0.7070649442618979 -0.010877922219415442
outer loop
vertex 5071.04 9928.880000000001 931.0600000000001
vertex 5101.9800000000005 9898.07 922.61
vertex 5105.360000000001 9894.56 931.0600000000001
endloop
endfacet
facet normal -0.7071067811862378 -0.7071067811868572 8.846001832430694e-13
outer loop
vertex 5088.72 9911.33 922.61
vertex 5098.21 9901.84 915.98
vertex 5099.25 9900.800000000001 915.98
endloop
endfacet
facet normal -0.7071067811865476 -0.7071067811865476 -9.715542924136599e-14
outer loop
vertex 5088.72 9911.33 922.61
vertex 5099.25 9900.800000000001 915.98
vertex 5101.9800000000005 9898.07 922.61
endloop
endfacet
facet normal -0.7064053028219823 -0.7078068315565725 0.001018502248113299
outer loop
vertex 5015.53 9984.390000000001 1191.97
vertex 4978.87 10021.18 1332.76
vertex 4924.27 10075.65 1317.55
endloop
endfacet
facet normal -0.7071067811865511 -0.7071067811865439 -1.0375961424746684e-14
outer loop
vertex 5015.53 9984.390000000001 1191.97
vertex 4924.27 10075.65 1317.55
vertex 4871.62 10128.300000000001 1292.2
endloop
endfacet
facet normal -0.7076342169465061 -0.7065773221945757 -0.001517487017362889
outer loop
vertex 5015.53 9984.390000000001 1191.97
vertex 4871.62 10128.300000000001 1292.2
vertex 4828.2 10171.85 1261.91
endloop
endfacet
facet normal -0.7073960416806157 -0.706817362858957 -0.00023616880883927695
outer loop
vertex 5015.53 9984.390000000001 1191.97
vertex 4828.2 10171.85 1261.91
vertex 4969.38 10030.67 915.98
endloop
endfacet
facet normal -0.7071067419646673 -0.7071067419652857 -0.0003330695912295056
outer loop
vertex 5015.53 9984.390000000001 1191.97
vertex 4969.38 10030.67 915.98
vertex 4970.42 10029.630000000001 915.98
endloop
endfacet
facet normal -0.7069753501821036 -0.7072380877768109 -0.00037607538065985706
outer loop
vertex 5015.53 9984.390000000001 1191.97
vertex 4970.42 10029.630000000001 915.98
vertex 4979.91 10020.140000000001 922.61
endloop
endfacet
facet normal -0.7068499041908589 -0.707363446480755 -0.0004093021399193678
outer loop
vertex 5015.53 9984.390000000001 1191.97
vertex 4979.91 10020.140000000001 922.61
vertex 5230.03 9770.02 1236.43
endloop
endfacet
facet normal -0.7068725626035467 -0.7073408963570277 -0.0001912567160554693
outer loop
vertex 5015.53 9984.390000000001 1191.97
vertex 5230.03 9770.02 1236.43
vertex 5240.17 9759.880000000001 1261.26
endloop
endfacet
facet normal -0.7068072823740005 -0.7074058871885857 -0.0006134769838918585
outer loop
vertex 5015.53 9984.390000000001 1191.97
vertex 5240.17 9759.880000000001 1261.26
vertex 5144.2300000000005 9855.69 1317.55
endloop
endfacet
facet normal -0.7071067811865451 -0.70710678118655 -5.027335437340007e-15
outer loop
vertex 5015.53 9984.390000000001 1191.97
vertex 5144.2300000000005 9855.69 1317.55
vertex 5034.25 9965.67 1337.96
endloop
endfacet
facet normal -0.7079453215019182 -0.7062672125059327 0.00021518049458324937
outer loop
vertex 5015.53 9984.390000000001 1191.97
vertex 5034.25 9965.67 1337.96
vertex 4978.87 10021.18 1332.76
endloop
endfacet
facet normal -0.7071067811862383 -0.7071067811868567 7.647538478301504e-13
outer loop
vertex 5098.21 9901.84 915.98
vertex 5105.360000000001 9894.69 911.0400000000001
vertex 5099.25 9900.800000000001 915.98
endloop
endfacet
facet normal -0.7071067811862383 -0.7071067811868567 -8.949429219892153e-13
outer loop
vertex 4969.38 10030.67 915.98
vertex 4963.27 10036.78 911.0400000000001
vertex 4970.42 10029.630000000001 915.98
endloop
endfacet
facet normal -0.7739672181449219 -0.5804754136086914 0.2530277443934354
outer loop
vertex 4043 10957.050000000001 621.9200000000001
vertex 4043.3900000000003 10956.53 621.9200000000001
vertex 4049.63 10950.42 626.99
endloop
endfacet
facet normal -0.7049344049891432 -0.7049344049891432 0.07832604499912858
outer loop
vertex 4043 10957.050000000001 621.9200000000001
vertex 4041.31 10958.61 620.75
vertex 4043.9100000000003 10956.01 620.75
endloop
endfacet
facet normal -0.7968581125541663 -0.5976435844156247 -0.08853979028355537
outer loop
vertex 4043 10957.050000000001 621.9200000000001
vertex 4043.9100000000003 10956.01 620.75
vertex 4043.3900000000003 10956.53 621.9200000000001
endloop
endfacet
facet normal -0.707106781186499 -0.707106781186596 -3.2338878590343046e-14
outer loop
vertex 4041.31 10958.61 620.75
vertex 4032.86 10967.06 615.2900000000001
vertex 4046.1200000000003 10953.800000000001 615.2900000000001
endloop
endfacet
facet normal -0.7071067811865476 -0.7071067811865476 -1.1785647534328124e-13
outer loop
vertex 4041.31 10958.61 620.75
vertex 4046.1200000000003 10953.800000000001 615.2900000000001
vertex 4043.9100000000003 10956.01 620.75
endloop
endfacet
facet normal -0.7051593080306657 -0.709012637582722 -0.00717147444424249
outer loop
vertex 4032.86 10967.06 615.2900000000001
vertex 4024.15 10975.77 610.61
vertex 4048.07 10951.98 610.61
endloop
endfacet
facet normal -0.7069704188708612 -0.7069704188709582 -0.019638067190560958
outer loop
vertex 4032.86 10967.06 615.2900000000001
vertex 4048.07 10951.98 610.61
vertex 4046.1200000000003 10953.800000000001 615.2900000000001
endloop
endfacet
facet normal -0.7068966766562239 -0.7068966766562332 -0.024375747470776667
outer loop
vertex 4024.15 10975.77 610.61
vertex 4015.31 10984.74 606.84
vertex 4049.63 10950.42 606.84
endloop
endfacet
facet normal -0.7051765454623793 -0.7090299692080515 0.0015945201705373532
outer loop
vertex 4024.15 10975.77 610.61
vertex 4049.63 10950.42 606.84
vertex 4048.07 10951.98 610.61
endloop
endfacet
facet normal -0.7067728464424589 -0.7067728464424589 0.03072925419285361
outer loop
vertex 4015.31 10984.74 606.84
vertex 4006.21 10993.710000000001 603.85
vertex 4050.8 10949.12 603.85
endloop
endfacet
facet normal -0.7067728464424519 -0.7067728464424612 0.030729254192964503
outer loop
vertex 4015.31 10984.74 606.84
vertex 4050.8 10949.12 603.85
vertex 4049.63 10950.42 606.84
endloop
endfacet
facet normal -0.7064172571013642 -0.7064172571013584 -0.044151078568690987
outer loop
vertex 4006.21 10993.710000000001 603.85
vertex 3997.11 11002.94 601.77
vertex 4051.71 10948.34 601.77
endloop
endfacet
facet normal -0.7064172571013652 -0.7064172571013652 -0.044151078568563186
outer loop
vertex 4006.21 10993.710000000001 603.85
vertex 4051.71 10948.34 601.77
vertex 4050.8 10949.12 603.85
endloop
endfacet
facet normal -0.7051033382847208 -0.706527789473171 0.060396730390783915
outer loop
vertex 3997.11 11002.94 601.77
vertex 3987.75 11012.17 600.47
vertex 4052.23 10947.82 600.47
endloop
endfacet
facet normal -0.7071067811865503 -0.7071067811865446 2.446318190909576e-13
outer loop
vertex 3997.11 11002.94 601.77
vertex 4052.23 10947.82 600.47
vertex 4051.71 10948.34 601.77
endloop
endfacet
facet normal -0.6929970011634601 -0.7197329965789079 -0.041708152848058386
outer loop
vertex 4141.150000000001 10858.9 245.70000000000002
vertex 4166.5 10833.550000000001 261.95
vertex 4184.7 10815.220000000001 275.86
endloop
endfacet
facet normal -0.7699988792747627 -0.5706850100828676 0.28534250503969194
outer loop
vertex 4141.150000000001 10858.9 245.70000000000002
vertex 4184.7 10815.220000000001 275.86
vertex 4184.7 10815.35 276.12
endloop
endfacet
facet normal -0.7119491403909813 -0.7022248358977384 -0.00294980422013722
outer loop
vertex 4043.3900000000003 10956.66 386.1
vertex 3987.75 11012.17 600.47
vertex 3978.52 11021.53 599.95
endloop
endfacet
facet normal -0.70710678118655 -0.707106781186545 0
outer loop
vertex 4043.3900000000003 10956.66 386.1
vertex 3978.52 11021.53 599.95
vertex 3978.52 11021.53 199.94
endloop
endfacet
facet normal -0.7071067811865474 -0.7071067811865476 -1.7852694471650714e-15
outer loop
vertex 4043.3900000000003 10956.66 386.1
vertex 3978.52 11021.53 199.94
vertex 4034.03 10966.02 205.14000000000001
endloop
endfacet
facet normal -0.7071067811865442 -0.7071067811865508 -2.1145545694498918e-15
outer loop
vertex 4043.3900000000003 10956.66 386.1
vertex 4034.03 10966.02 205.14000000000001
vertex 4088.5 10911.550000000001 220.48000000000002
endloop
endfacet
facet normal -0.7071067811865466 -0.7071067811865485 -3.3511740937889546e-15
outer loop
vertex 4043.3900000000003 10956.66 386.1
vertex 4088.5 10911.550000000001 220.48000000000002
vertex 4184.4400000000005 10815.61 276.64
endloop
endfacet
facet normal -0.7071067811865459 -0.7071067811865492 -1.633303944835316e-15
outer loop
vertex 4043.3900000000003 10956.66 386.1
vertex 4184.4400000000005 10815.61 276.64
vertex 4052.23 10947.82 600.47
endloop
endfacet
facet normal -0.7063928917846244 -0.7078199481316602 -0.00005884768441535083
outer loop
vertex 4043.3900000000003 10956.66 386.1
vertex 4052.23 10947.82 600.47
vertex 3987.75 11012.17 600.47
endloop
endfacet
facet normal -0.6126450358139799 0.6120945910378617 -0.5000062716753462
outer loop
vertex 3935.23 10666.24 419.12
vertex 3908.19 10808.98 626.99
vertex 4049.63 10667.54 280.54
endloop
endfacet
facet normal -0.6124402125354756 0.6124402125354753 -0.4998339445645958
outer loop
vertex 3935.23 10666.24 419.12
vertex 4049.63 10667.54 280.54
vertex 4043.3900000000003 10661.300000000001 280.54
endloop
endfacet
facet normal -0.6124402125354763 0.6124402125354743 -0.4998339445645963
outer loop
vertex 3935.23 10666.24 419.12
vertex 4043.3900000000003 10661.300000000001 280.54
vertex 3908.19 10526.1 280.54
endloop
endfacet
facet normal -0.6121793648613153 0.6125603103279428 -0.5000062914093492
outer loop
vertex 3935.23 10666.24 419.12
vertex 3908.19 10526.1 280.54
vertex 3766.75 10667.54 626.99
endloop
endfacet
facet normal -0.6123229535036516 0.6123229535036575 -0.5001211865389457
outer loop
vertex 3935.23 10666.24 419.12
vertex 3766.75 10667.54 626.99
vertex 3908.19 10808.98 626.99
endloop
endfacet
facet normal -0.31578947368422206 0.31578947368422 0.8947368421052558
outer loop
vertex 4828.46 9888.710000000001 915.72
vertex 4821.83 9895.34 911.0400000000001
vertex 4680.39 9753.9 911.0400000000001
endloop
endfacet
facet normal -0.3122093003296126 0.31176467247803513 0.8974007698806356
outer loop
vertex 4828.46 9888.710000000001 915.72
vertex 4680.39 9753.9 911.0400000000001
vertex 4697.03 9737.26 922.61
endloop
endfacet
facet normal -0.30944981384902803 0.3094498138490271 0.8991560628820808
outer loop
vertex 4828.46 9888.710000000001 915.72
vertex 4697.03 9737.26 922.61
vertex 4979.91 10020.140000000001 922.61
endloop
endfacet
facet normal -0.3117646724780361 0.3122093003296116 0.8974007698806356
outer loop
vertex 4828.46 9888.710000000001 915.72
vertex 4979.91 10020.140000000001 922.61
vertex 4963.27 10036.78 911.0400000000001
endloop
endfacet
facet normal -0.315789473684221 0.315789473684221 0.8947368421052558
outer loop
vertex 4828.46 9888.710000000001 915.72
vertex 4963.27 10036.78 911.0400000000001
vertex 4821.83 9895.34 911.0400000000001
endloop
endfacet
facet normal -0.22714086189977328 0.22714086189977328 0.9470026703821148
outer loop
vertex 4697.03 9737.26 922.61
vertex 4714.71 9719.710000000001 931.0600000000001
vertex 4997.46 10002.460000000001 931.0600000000001
endloop
endfacet
facet normal -0.2271408618997683 0.22714086189976757 0.9470026703821174
outer loop
vertex 4697.03 9737.26 922.61
vertex 4997.46 10002.460000000001 931.0600000000001
vertex 4979.91 10020.140000000001 922.61
endloop
endfacet
facet normal -0.13954912993122084 0.13954912993122126 0.9803326377668339
outer loop
vertex 4714.71 9719.710000000001 931.0600000000001
vertex 4732.91 9701.380000000001 936.26
vertex 5015.79 9984.26 936.26
endloop
endfacet
facet normal -0.13954912993121768 0.13954912993121768 0.9803326377668349
outer loop
vertex 4714.71 9719.710000000001 931.0600000000001
vertex 5015.79 9984.26 936.26
vertex 4997.46 10002.460000000001 931.0600000000001
endloop
endfacet
facet normal -0.045519423868446145 0.045519423868446145 0.9979258309620858
outer loop
vertex 4732.91 9701.380000000001 936.26
vertex 4751.5 9682.92 937.95
vertex 5034.25 9965.67 937.95
endloop
endfacet
facet normal -0.04551942386844718 0.045519423868447324 0.9979258309620856
outer loop
vertex 4732.91 9701.380000000001 936.26
vertex 5034.25 9965.67 937.95
vertex 5015.79 9984.26 936.26
endloop
endfacet
facet normal 0.04551942386844734 -0.04551942386844719 0.9979258309620858
outer loop
vertex 4751.5 9682.92 937.95
vertex 4769.96 9664.33 936.26
vertex 5052.84 9947.210000000001 936.26
endloop
endfacet
facet normal 0.04551942386844837 -0.04551942386844837 0.9979258309620854
outer loop
vertex 4751.5 9682.92 937.95
vertex 5052.84 9947.210000000001 936.26
vertex 5034.25 9965.67 937.95
endloop
endfacet
facet normal 0.13954912993122437 -0.13954912993122437 0.9803326377668329
outer loop
vertex 4769.96 9664.33 936.26
vertex 4788.29 9646.130000000001 931.0600000000001
vertex 5071.04 9928.880000000001 931.0600000000001
endloop
endfacet
facet normal 0.13954912993122132 -0.13954912993122087 0.980332637766834
outer loop
vertex 4769.96 9664.33 936.26
vertex 5071.04 9928.880000000001 931.0600000000001
vertex 5052.84 9947.210000000001 936.26
endloop
endfacet
facet normal 0.22714086189976762 -0.22714086189976837 0.9470026703821173
outer loop
vertex 4788.29 9646.130000000001 931.0600000000001
vertex 4805.84 9628.45 922.61
vertex 5088.72 9911.33 922.61
endloop
endfacet
facet normal 0.22714086189976299 -0.22714086189976299 0.9470026703821197
outer loop
vertex 4788.29 9646.130000000001 931.0600000000001
vertex 5088.72 9911.33 922.61
vertex 5071.04 9928.880000000001 931.0600000000001
endloop
endfacet
facet normal 0.31176467247801737 -0.31220930032958927 0.8974007698806498
outer loop
vertex 4957.29 9759.880000000001 915.72
vertex 4805.84 9628.45 922.61
vertex 4822.4800000000005 9611.81 911.0400000000001
endloop
endfacet
facet normal 0.31578947368418736 -0.31578947368418536 0.8947368421052803
outer loop
vertex 4957.29 9759.880000000001 915.72
vertex 4822.4800000000005 9611.81 911.0400000000001
vertex 4963.92 9753.25 911.0400000000001
endloop
endfacet
facet normal 0.3157894736841863 -0.3157894736841863 0.89473684210528
outer loop
vertex 4957.29 9759.880000000001 915.72
vertex 4963.92 9753.25 911.0400000000001
vertex 5105.360000000001 9894.69 911.0400000000001
endloop
endfacet
facet normal 0.31220930032960303 -0.3117646724780307 0.8974007698806402
outer loop
vertex 4957.29 9759.880000000001 915.72
vertex 5105.360000000001 9894.69 911.0400000000001
vertex 5088.72 9911.33 922.61
endloop
endfacet
facet normal 0.30944981384903825 -0.3094498138490393 0.899156062882073
outer loop
vertex 4957.29 9759.880000000001 915.72
vertex 5088.72 9911.33 922.61
vertex 4805.84 9628.45 922.61
endloop
endfacet
facet normal -0.22789488513875203 0.2278948851387509 -0.9466402921147982
outer loop
vertex 5025.8 9674.08 1302.3400000000001
vertex 5196.88 9803.04 1292.2
vertex 5012.02 9618.18 1292.2
endloop
endfacet
facet normal -0.227894885138748 0.22789488513875011 -0.9466402921147995
outer loop
vertex 5025.8 9674.08 1302.3400000000001
vertex 5012.02 9618.18 1292.2
vertex 4914.13 9520.29 1292.2
endloop
endfacet
facet normal -0.2278948851387477 0.22789488513874992 -0.9466402921147996
outer loop
vertex 5025.8 9674.08 1302.3400000000001
vertex 4914.13 9520.29 1292.2
vertex 4861.4800000000005 9572.94 1317.55
endloop
endfacet
facet normal -0.2278948851387446 0.2278948851387446 -0.9466402921148014
outer loop
vertex 5025.8 9674.08 1302.3400000000001
vertex 4861.4800000000005 9572.94 1317.55
vertex 5144.2300000000005 9855.69 1317.55
endloop
endfacet
facet normal -0.2278948851387498 0.22789488513874787 -0.9466402921147996
outer loop
vertex 5025.8 9674.08 1302.3400000000001
vertex 5144.2300000000005 9855.69 1317.55
vertex 5196.88 9803.04 1292.2
endloop
endfacet
facet normal -0.13681646715235007 0.13681646715235007 -0.9811027003488982
outer loop
vertex 5144.2300000000005 9855.69 1317.55
vertex 4861.4800000000005 9572.94 1317.55
vertex 4806.88 9627.41 1332.76
endloop
endfacet
facet normal -0.13681646715234913 0.13681646715234871 -0.9811027003488985
outer loop
vertex 5144.2300000000005 9855.69 1317.55
vertex 4806.88 9627.41 1332.76
vertex 5089.76 9910.29 1332.76
endloop
endfacet
facet normal -0.046790538971378165 0.04679053897137802 -0.9978082435646318
outer loop
vertex 5089.76 9910.29 1332.76
vertex 4806.88 9627.41 1332.76
vertex 4751.5 9682.92 1337.96
endloop
endfacet
facet normal -0.046790538971378456 0.04679053897137846 -0.9978082435646319
outer loop
vertex 5089.76 9910.29 1332.76
vertex 4751.5 9682.92 1337.96
vertex 5034.25 9965.67 1337.96
endloop
endfacet
facet normal 0.04679053897137771 -0.04679053897137771 -0.9978082435646319
outer loop
vertex 5034.25 9965.67 1337.96
vertex 4751.5 9682.92 1337.96
vertex 4695.99 9738.300000000001 1332.76
endloop
endfacet
facet normal 0.04679053897137802 -0.04679053897137817 -0.997808243564632
outer loop
vertex 5034.25 9965.67 1337.96
vertex 4695.99 9738.300000000001 1332.76
vertex 4978.87 10021.18 1332.76
endloop
endfacet
facet normal 0.13665967762482148 -0.13665967762482192 -0.9811464034602377
outer loop
vertex 4978.87 10021.18 1332.76
vertex 4695.99 9738.300000000001 1332.76
vertex 4641.39 9792.9 1317.55
endloop
endfacet
facet normal 0.1367850582519267 -0.13684794793388164 -0.9811026893171287
outer loop
vertex 4978.87 10021.18 1332.76
vertex 4641.39 9792.9 1317.55
vertex 4924.27 10075.65 1317.55
endloop
endfacet
facet normal 0.22803983517900642 -0.22814468108023822 -0.9465452118448057
outer loop
vertex 4759.95 9974.51 1302.3400000000001
vertex 4924.27 10075.65 1317.55
vertex 4641.39 9792.9 1317.55
endloop
endfacet
facet normal 0.22810769773188586 -0.22818676452485973 -0.9465187154679694
outer loop
vertex 4759.95 9974.51 1302.3400000000001
vertex 4641.39 9792.9 1317.55
vertex 4588.87 9845.550000000001 1292.2
endloop
endfacet
facet normal 0.22789488513875222 -0.22789488513875447 -0.9466402921147972
outer loop
vertex 4759.95 9974.51 1302.3400000000001
vertex 4588.87 9845.550000000001 1292.2
vertex 4773.7300000000005 10030.41 1292.2
endloop
endfacet
facet normal 0.22789488513876033 -0.2278948851387561 -0.9466402921147951
outer loop
vertex 4759.95 9974.51 1302.3400000000001
vertex 4773.7300000000005 10030.41 1292.2
vertex 4871.62 10128.300000000001 1292.2
endloop
endfacet
facet normal 0.227894885138743 -0.22789488513874398 -0.946640292114802
outer loop
vertex 4759.95 9974.51 1302.3400000000001
vertex 4871.62 10128.300000000001 1292.2
vertex 4924.27 10075.65 1317.55
endloop
endfacet
facet normal 0.31146816895995666 -0.3114681689599122 -0.8977611928845507
outer loop
vertex 4686.76 10030.41 1261.91
vertex 4674.02 10030.41 1257.49
vertex 4680.39 10036.78 1257.49
endloop
endfacet
facet normal 0.31243828496273846 -0.3124382849627326 -0.8970867495282098
outer loop
vertex 4871.62 10128.300000000001 1292.2
vertex 4773.7300000000005 10030.41 1292.2
vertex 4686.76 10030.41 1261.91
endloop
endfacet
facet normal 0.31243828496274156 -0.3124382849627395 -0.8970867495282062
outer loop
vertex 4871.62 10128.300000000001 1292.2
vertex 4686.76 10030.41 1261.91
vertex 4828.2 10171.85 1261.91
endloop
endfacet
facet normal 0.3123144546017219 -0.312314454601725 -0.8971729838184251
outer loop
vertex 4773.7300000000005 10030.41 1292.2
vertex 4588.87 9845.550000000001 1292.2
vertex 4538.95 9895.34 1257.49
endloop
endfacet
facet normal 0.31231445460172086 -0.31231445460172297 -0.897172983818426
outer loop
vertex 4773.7300000000005 10030.41 1292.2
vertex 4538.95 9895.34 1257.49
vertex 4674.02 10030.41 1257.49
endloop
endfacet
facet normal 0.6124402125354735 -0.6124402125354776 0.49983394456459557
outer loop
vertex 4679.09 9922.380000000001 1118.91
vertex 4674.02 10030.41 1257.49
vertex 4538.95 9895.34 1257.49
endloop
endfacet
facet normal 0.612560310327943 -0.6121793648613145 0.5000062914093498
outer loop
vertex 4679.09 9922.380000000001 1118.91
vertex 4538.95 9895.34 1257.49
vertex 4680.39 9753.9 911.0400000000001
endloop
endfacet
facet normal 0.6123229535036557 -0.6123229535036518 0.5001211865389473
outer loop
vertex 4679.09 9922.380000000001 1118.91
vertex 4680.39 9753.9 911.0400000000001
vertex 4821.83 9895.34 911.0400000000001
endloop
endfacet
facet normal 0.6120945910378606 -0.6126450358139796 0.5000062716753482
outer loop
vertex 4679.09 9922.380000000001 1118.91
vertex 4821.83 9895.34 911.0400000000001
vertex 4680.39 10036.78 1257.49
endloop
endfacet
facet normal 0.6124402125355299 -0.612440212535442 0.49983394456456987
outer loop
vertex 4679.09 9922.380000000001 1118.91
vertex 4680.39 10036.78 1257.49
vertex 4674.02 10030.41 1257.49
endloop
endfacet
facet normal -0.35352070223530263 0.3536623092170519 0.8659942748831085
outer loop
vertex 4627.22 10375.17 635.7
vertex 4043.3900000000003 10673.65 275.47
vertex 4680.39 10036.78 795.6
endloop
endfacet
facet normal -0.3532915696831881 0.35372952390041573 0.8660603274091095
outer loop
vertex 4627.22 10375.17 635.7
vertex 4680.39 10036.78 795.6
vertex 4975.49 10036.78 915.98
endloop
endfacet
facet normal -0.35350820048182613 0.3535082004818284 0.8660622982119708
outer loop
vertex 4627.22 10375.17 635.7
vertex 4975.49 10036.78 915.98
vertex 5110.820000000001 10172.11 915.98
endloop
endfacet
facet normal -0.35342400208842717 0.35366678723589967 0.8660319153206978
outer loop
vertex 4627.22 10375.17 635.7
vertex 5110.820000000001 10172.11 915.98
vertex 4326.27 10956.53 275.47
endloop
endfacet
facet normal -0.35357433427048296 0.35357433427048174 0.8660083026682657
outer loop
vertex 4627.22 10375.17 635.7
vertex 4326.27 10956.53 275.47
vertex 4043.3900000000003 10673.65 275.47
endloop
endfacet
facet normal -0.3509503595894328 0.3509503595893806 0.8681403631948766
outer loop
vertex 4963.27 10036.78 911.0400000000001
vertex 4969.38 10030.67 915.98
vertex 4975.49 10036.78 915.98
endloop
endfacet
facet normal -0.3534494164264786 0.3534494164264786 0.8661102816937133
outer loop
vertex 4680.39 10036.78 795.6
vertex 4821.83 9895.34 911.0400000000001
vertex 4963.27 10036.78 911.0400000000001
endloop
endfacet
facet normal -0.5773502691894604 0.5773502691894529 -0.577350269189964
outer loop
vertex 4828.070000000001 10171.98 1262.17
vertex 4969.38 10313.550000000001 1262.43
vertex 4969.64 10313.29 1261.91
endloop
endfacet
facet normal -0.5773502691908039 0.5773502691908038 -0.5773502691872696
outer loop
vertex 4828.070000000001 10171.98 1262.17
vertex 4969.64 10313.29 1261.91
vertex 4828.2 10171.85 1261.91
endloop
endfacet
facet normal -0.5773502691908057 0.5773502691908021 -0.5773502691872696
outer loop
vertex 4828.070000000001 10171.98 1262.17
vertex 4828.2 10171.85 1261.91
vertex 4686.76 10030.41 1261.91
endloop
endfacet
facet normal -0.5773502691894636 0.5773502691894674 -0.5773502691899463
outer loop
vertex 4828.070000000001 10171.98 1262.17
vertex 4686.76 10030.41 1261.91
vertex 4686.5 10030.67 1262.43
endloop
endfacet
facet normal -0.5773502691884482 0.5773502691884463 -0.5773502691919827
outer loop
vertex 4828.070000000001 10171.98 1262.17
vertex 4686.5 10030.67 1262.43
vertex 4969.38 10313.550000000001 1262.43
endloop
endfacet
facet normal -0.612171002642062 0.6126720689064876 -0.4998795850062861
outer loop
vertex 4970.68 10144.94 1054.3
vertex 4969.64 10313.29 1261.91
vertex 5110.820000000001 10172.11 915.98
endloop
endfacet
facet normal -0.612328794945297 0.6123287949453011 -0.5001068823378417
outer loop
vertex 4970.68 10144.94 1054.3
vertex 5110.820000000001 10172.11 915.98
vertex 4975.49 10036.78 915.98
endloop
endfacet
facet normal -0.612328794945355 0.6123287949452646 -0.5001068823378154
outer loop
vertex 4970.68 10144.94 1054.3
vertex 4975.49 10036.78 915.98
vertex 4969.38 10030.67 915.98
endloop
endfacet
facet normal -0.612784188948226 0.6120587983543444 -0.49987955062404876
outer loop
vertex 4970.68 10144.94 1054.3
vertex 4969.38 10030.67 915.98
vertex 4828.2 10171.85 1261.91
endloop
endfacet
facet normal -0.6124833805162898 0.6124833805162897 -0.49972814327659776
outer loop
vertex 4970.68 10144.94 1054.3
vertex 4828.2 10171.85 1261.91
vertex 4969.64 10313.29 1261.91
endloop
endfacet
facet normal 0.5773502691894636 -0.5773502691894674 -0.5773502691899463
outer loop
vertex 5240.56 9759.49 1262.17
vertex 5099.25 9617.92 1262.43
vertex 5098.99 9618.18 1261.91
endloop
endfacet
facet normal 0.5773502691887842 -0.5773502691887843 -0.5773502691913088
outer loop
vertex 5240.56 9759.49 1262.17
vertex 5098.99 9618.18 1261.91
vertex 5240.43 9759.62 1261.91
endloop
endfacet
facet normal 0.5773502691887825 -0.5773502691887862 -0.5773502691913088
outer loop
vertex 5240.56 9759.49 1262.17
vertex 5240.43 9759.62 1261.91
vertex 5381.87 9901.06 1261.91
endloop
endfacet
facet normal 0.5773502691901338 -0.57735026919013 -0.5773502691886135
outer loop
vertex 5240.56 9759.49 1262.17
vertex 5381.87 9901.06 1261.91
vertex 5382.13 9900.800000000001 1262.43
endloop
endfacet
facet normal 0.5773502691904663 -0.5773502691904644 -0.5773502691879465
outer loop
vertex 5240.56 9759.49 1262.17
vertex 5382.13 9900.800000000001 1262.43
vertex 5099.25 9617.92 1262.43
endloop
endfacet
facet normal 0.6124215742140453 -0.6124215742140532 -0.49987961638215606
outer loop
vertex 5240.43 9759.62 1261.91
vertex 5099.25 9900.800000000001 915.98
vertex 5240.6900000000005 10042.24 915.98
endloop
endfacet
facet normal 0.6124215742140477 -0.6124215742140517 -0.49987961638215495
outer loop
vertex 5240.43 9759.62 1261.91
vertex 5240.6900000000005 10042.24 915.98
vertex 5381.87 9901.06 1261.91
endloop
endfacet
facet normal 0.3542739461918756 -0.3476190014483048 0.8681307510287374
outer loop
vertex 5099.25 9900.800000000001 915.98
vertex 5105.360000000001 9894.69 911.0400000000001
vertex 5388.24 9894.69 795.6
endloop
endfacet
facet normal 0.353346279496614 -0.35334627949661856 0.8661944432584396
outer loop
vertex 5099.25 9900.800000000001 915.98
vertex 5388.24 9894.69 795.6
vertex 5240.6900000000005 10042.24 915.98
endloop
endfacet
facet normal 0.3535412928392712 -0.35354129283927127 0.866035281333892
outer loop
vertex 5444.92 9555 633.75
vertex 5105.360000000001 9894.69 911.0400000000001
vertex 4963.92 9753.25 911.0400000000001
endloop
endfacet
facet normal 0.35343875564877947 -0.3537368932397557 0.8659972611772673
outer loop
vertex 5444.92 9555 633.75
vertex 4963.92 9753.25 911.0400000000001
vertex 5742.2300000000005 8974.94 275.47
endloop
endfacet
facet normal 0.3535229457994316 -0.3536854850848567 0.8659838938649966
outer loop
vertex 5444.92 9555 633.75
vertex 5742.2300000000005 8974.94 275.47
vertex 6025.110000000001 9257.69 275.47
endloop
endfacet
facet normal 0.35356283527741256 -0.35362016391396844 0.8659942847294405
outer loop
vertex 5444.92 9555 633.75
vertex 6025.110000000001 9257.69 275.47
vertex 5388.24 9894.69 795.6
endloop
endfacet
facet normal 0.35341881021887495 -0.353663729699274 0.8660352826985016
outer loop
vertex 5444.92 9555 633.75
vertex 5388.24 9894.69 795.6
vertex 5105.360000000001 9894.69 911.0400000000001
endloop
endfacet
facet normal -0.3124382849627404 0.3124382849627404 -0.8970867495282062
outer loop
vertex 5240.43 9759.62 1261.91
vertex 5098.99 9618.18 1261.91
vertex 5012.02 9618.18 1292.2
endloop
endfacet
facet normal -0.3124382849627386 0.3124382849627371 -0.8970867495282081
outer loop
vertex 5240.43 9759.62 1261.91
vertex 5012.02 9618.18 1292.2
vertex 5196.88 9803.04 1292.2
endloop
endfacet
facet normal -0.3122709087777362 0.31066502752640834 -0.8977606140854826
outer loop
vertex 5018.91 9567.74 1272.31
vertex 5098.99 9618.18 1261.91
vertex 5105.360000000001 9611.81 1257.49
endloop
endfacet
facet normal -0.31345662843959776 0.31345662843960176 -0.8963759725553544
outer loop
vertex 5018.91 9567.74 1272.31
vertex 5105.360000000001 9611.81 1257.49
vertex 4963.92 9470.37 1257.49
endloop
endfacet
facet normal -0.31191861878212346 0.3127093629423602 -0.8971731324472638
outer loop
vertex 5018.91 9567.74 1272.31
vertex 4963.92 9470.37 1257.49
vertex 4914.13 9520.29 1292.2
endloop
endfacet
facet normal -0.3114681689599431 0.31146816895994606 -0.8977611928845437
outer loop
vertex 5018.91 9567.74 1272.31
vertex 4914.13 9520.29 1292.2
vertex 5012.02 9618.18 1292.2
endloop
endfacet
facet normal -0.3125716758335532 0.3112025065088542 -0.8974697473504111
outer loop
vertex 5018.91 9567.74 1272.31
vertex 5012.02 9618.18 1292.2
vertex 5098.99 9618.18 1261.91
endloop
endfacet
facet normal -0.6123698598113253 0.6123698598113213 0.5000063095495102
outer loop
vertex 5105.360000000001 9611.81 1257.49
vertex 4963.92 9753.25 911.0400000000001
vertex 4822.4800000000005 9611.81 911.0400000000001
endloop
endfacet
facet normal -0.6123698598113207 0.6123698598113286 0.5000063095495064
outer loop
vertex 5105.360000000001 9611.81 1257.49
vertex 4822.4800000000005 9611.81 911.0400000000001
vertex 4963.92 9470.37 1257.49
endloop
endfacet
facet normal 0.023357108743657186 -0.023346374778241967 0.9994545473686389
outer loop
vertex 6062.29 8937.76 201.24
vertex 6090.110000000001 8909.94 199.94
vertex 6372.860000000001 9192.82 199.94
endloop
endfacet
facet normal 0.023406369828919995 -0.02340636982892007 0.9994519916948805
outer loop
vertex 6062.29 8937.76 201.24
vertex 6372.860000000001 9192.82 199.94
vertex 6345.17 9220.64 201.24
endloop
endfacet
facet normal 0.070075863148117 -0.07007586314811722 0.9950772567032635
outer loop
vertex 6034.6 8965.45 205.14000000000001
vertex 6062.29 8937.76 201.24
vertex 6345.17 9220.64 201.24
endloop
endfacet
facet normal 0.07022301686588528 -0.07025530331042135 0.9950542298081118
outer loop
vertex 6034.6 8965.45 205.14000000000001
vertex 6345.17 9220.64 201.24
vertex 6317.4800000000005 9248.2 205.14000000000001
endloop
endfacet
facet normal 0.1145528827348033 -0.11460555072686529 0.986784274702297
outer loop
vertex 6007.17 8992.880000000001 211.51000000000002
vertex 6034.6 8965.45 205.14000000000001
vertex 6317.4800000000005 9248.2 205.14000000000001
endloop
endfacet
facet normal 0.11455288273480328 -0.11460555072686532 0.9867842747022971
outer loop
vertex 6007.17 8992.880000000001 211.51000000000002
vertex 6317.4800000000005 9248.2 205.14000000000001
vertex 6290.05 9275.630000000001 211.51000000000002
endloop
endfacet
facet normal 0.16144516422214308 -0.1615193918838545 0.9735743140586419
outer loop
vertex 5980.13 9019.92 220.48000000000002
vertex 6007.17 8992.880000000001 211.51000000000002
vertex 6290.05 9275.630000000001 211.51000000000002
endloop
endfacet
facet normal 0.16078660289404173 -0.16071271199197584 0.97381676537939
outer loop
vertex 5980.13 9019.92 220.48000000000002
vertex 6290.05 9275.630000000001 211.51000000000002
vertex 6262.88 9302.800000000001 220.48000000000002
endloop
endfacet
facet normal 0.20542832697774457 -0.20533392057747835 0.9568893266911315
outer loop
vertex 5953.4800000000005 9046.57 231.92000000000002
vertex 5980.13 9019.92 220.48000000000002
vertex 6262.88 9302.800000000001 220.48000000000002
endloop
endfacet
facet normal 0.20584077309508333 -0.2058407730950827 0.9566917749532693
outer loop
vertex 5953.4800000000005 9046.57 231.92000000000002
vertex 6262.88 9302.800000000001 220.48000000000002
vertex 6236.360000000001 9329.45 231.92000000000002
endloop
endfacet
facet normal 0.24814626866414063 -0.24814626866413977 0.9364010138269441
outer loop
vertex 5927.4800000000005 9072.57 245.70000000000002
vertex 5953.4800000000005 9046.57 231.92000000000002
vertex 6236.360000000001 9329.45 231.92000000000002
endloop
endfacet
facet normal 0.24766019151015484 -0.24754637708390848 0.9366884331162548
outer loop
vertex 5927.4800000000005 9072.57 245.70000000000002
vertex 6236.360000000001 9329.45 231.92000000000002
vertex 6210.2300000000005 9355.45 245.70000000000002
endloop
endfacet
facet normal 0.2919909272863027 -0.2918567402792767 0.9108023614023187
outer loop
vertex 5902.13 9097.92 261.95
vertex 5927.4800000000005 9072.57 245.70000000000002
vertex 6210.2300000000005 9355.45 245.70000000000002
endloop
endfacet
facet normal 0.29199092728630277 -0.29185674027927677 0.9108023614023186
outer loop
vertex 5902.13 9097.92 261.95
vertex 6210.2300000000005 9355.45 245.70000000000002
vertex 6184.88 9380.800000000001 261.95
endloop
endfacet
facet normal 0.3315330723793925 -0.3310560463759576 0.8834521583405635
outer loop
vertex 6090.24 9312.94 272.22
vertex 6019 9263.800000000001 280.54
vertex 6025.24 9257.56 275.86
endloop
endfacet
facet normal 0.33522044987799055 -0.33558816130999397 0.8803452936048304
outer loop
vertex 6090.24 9312.94 272.22
vertex 6025.24 9257.56 275.86
vertex 6061.77 9257.56 261.95
endloop
endfacet
facet normal 0.33645361652386335 -0.3360987076456684 0.8796798409915534
outer loop
vertex 6090.24 9312.94 272.22
vertex 6061.77 9257.56 261.95
vertex 6184.88 9380.800000000001 261.95
endloop
endfacet
facet normal 0.3354060241050004 -0.3344841053813463 0.8806947156883116
outer loop
vertex 6090.24 9312.94 272.22
vertex 6184.88 9380.800000000001 261.95
vertex 6160.4400000000005 9405.24 280.54
endloop
endfacet
facet normal 0.3323072744659703 -0.3323072744659745 0.8826911978002238
outer loop
vertex 6090.24 9312.94 272.22
vertex 6160.4400000000005 9405.24 280.54
vertex 6019 9263.800000000001 280.54
endloop
endfacet
facet normal 0.3341853595803421 -0.33449279781362695 0.881155328902328
outer loop
vertex 6025.24 9257.56 275.86
vertex 5883.8 9116.25 275.86
vertex 5902.13 9097.92 261.95
endloop
endfacet
facet normal 0.33526180093570007 -0.33526180093570196 0.8804538884386284
outer loop
vertex 6025.24 9257.56 275.86
vertex 5902.13 9097.92 261.95
vertex 6061.77 9257.56 261.95
endloop
endfacet
facet normal -0.33530036398417956 0.33545452507106893 -0.8803657918850666
outer loop
vertex 6310.070000000001 9255.61 620.75
vertex 6027.1900000000005 8972.86 620.75
vertex 6019 8981.050000000001 626.99
endloop
endfacet
facet normal -0.3353003639841794 0.33545452507106877 -0.8803657918850667
outer loop
vertex 6310.070000000001 9255.61 620.75
vertex 6019 8981.050000000001 626.99
vertex 6301.88 9263.800000000001 626.99
endloop
endfacet
facet normal -0.29199777393928744 0.2919977739392884 -0.9107549615725413
outer loop
vertex 6318.52 9247.16 615.2900000000001
vertex 6035.64 8964.28 615.2900000000001
vertex 6027.1900000000005 8972.86 620.75
endloop
endfacet
facet normal -0.29378968088006197 0.29392475659540923 -0.9095580579977952
outer loop
vertex 6318.52 9247.16 615.2900000000001
vertex 6027.1900000000005 8972.86 620.75
vertex 6310.070000000001 9255.61 620.75
endloop
endfacet
facet normal -0.2511410595829442 0.2511410595829434 -0.9348028328921092
outer loop
vertex 6327.2300000000005 9238.45 610.61
vertex 6044.35 8955.57 610.61
vertex 6035.64 8964.28 615.2900000000001
endloop
endfacet
facet normal -0.2511410595829664 0.25114105958296723 -0.9348028328920966
outer loop
vertex 6327.2300000000005 9238.45 610.61
vertex 6035.64 8964.28 615.2900000000001
vertex 6318.52 9247.16 615.2900000000001
endloop
endfacet
facet normal -0.2028335806290223 0.20274036666733544 -0.95799524126835
outer loop
vertex 6336.070000000001 9229.61 606.84
vertex 6053.320000000001 8946.73 606.84
vertex 6044.35 8955.57 610.61
endloop
endfacet
facet normal -0.20415449149616033 0.20415449149615963 -0.9574141670164948
outer loop
vertex 6336.070000000001 9229.61 606.84
vertex 6044.35 8955.57 610.61
vertex 6327.2300000000005 9238.45 610.61
endloop
endfacet
facet normal -0.16111515793524311 0.16111515793524364 -0.9736959544780922
outer loop
vertex 6345.17 9220.51 603.85
vertex 6062.29 8937.630000000001 603.85
vertex 6053.320000000001 8946.73 606.84
endloop
endfacet
facet normal -0.16006025419973866 0.1599866970976242 -0.9740559387310916
outer loop
vertex 6345.17 9220.51 603.85
vertex 6053.320000000001 8946.73 606.84
vertex 6336.070000000001 9229.61 606.84
endloop
endfacet
facet normal -0.11201605835279807 0.11206755998882238 -0.9873668338916668
outer loop
vertex 6354.400000000001 9211.28 601.77
vertex 6071.52 8928.53 601.77
vertex 6062.29 8937.630000000001 603.85
endloop
endfacet
facet normal -0.11127221183528864 0.111272211835289 -0.9875408800381709
outer loop
vertex 6354.400000000001 9211.28 601.77
vertex 6062.29 8937.630000000001 603.85
vertex 6345.17 9220.51 603.85
endloop
endfacet
facet normal -0.07005975743857569 0.0700919688213061 -0.9950772564451471
outer loop
vertex 6363.63 9202.050000000001 600.47
vertex 6080.75 8919.300000000001 600.47
vertex 6071.52 8928.53 601.77
endloop
endfacet
facet normal -0.07005975743857559 0.070091968821306 -0.9950772564451471
outer loop
vertex 6363.63 9202.050000000001 600.47
vertex 6071.52 8928.53 601.77
vertex 6354.400000000001 9211.28 601.77
endloop
endfacet
facet normal -0.027762748389530016 0.027749989773542264 -0.9992292869353999
outer loop
vertex 6372.860000000001 9192.82 599.95
vertex 6090.110000000001 8909.94 599.95
vertex 6080.75 8919.300000000001 600.47
endloop
endfacet
facet normal -0.028140219710842757 0.02815315774289373 -0.999207449803958
outer loop
vertex 6372.860000000001 9192.82 599.95
vertex 6080.75 8919.300000000001 600.47
vertex 6363.63 9202.050000000001 600.47
endloop
endfacet
facet normal -0.7071067811865177 -0.7071067811865773 7.824157899907372e-14
outer loop
vertex 6299.280000000001 9266.4 620.75
vertex 6310.070000000001 9255.61 620.75
vertex 6301.88 9263.800000000001 626.99
endloop
endfacet
facet normal -0.7071067811865624 -0.7071067811865325 -1.0566220721468325e-13
outer loop
vertex 6299.280000000001 9266.4 620.75
vertex 6297.070000000001 9268.61 615.2900000000001
vertex 6318.52 9247.16 615.2900000000001
endloop
endfacet
facet normal -0.7071067811865177 -0.7071067811865773 2.1013665852302817e-13
outer loop
vertex 6299.280000000001 9266.4 620.75
vertex 6318.52 9247.16 615.2900000000001
vertex 6310.070000000001 9255.61 620.75
endloop
endfacet
facet normal -0.7071067811865475 -0.7071067811865475 2.15083111669445e-13
outer loop
vertex 6336.33 9229.35 603.85
vertex 6345.17 9220.51 603.85
vertex 6336.070000000001 9229.61 606.84
endloop
endfacet
facet normal -0.7071067811865295 -0.7071067811865656 4.509616399709295e-15
outer loop
vertex 6336.33 9229.35 603.85
vertex 6336.59 9229.09 601.77
vertex 6354.400000000001 9211.28 601.77
endloop
endfacet
facet normal -0.7071067811865475 -0.7071067811865475 -3.0931859784719267e-13
outer loop
vertex 6336.33 9229.35 603.85
vertex 6354.400000000001 9211.28 601.77
vertex 6345.17 9220.51 603.85
endloop
endfacet
facet normal -0.7071067811865477 -0.7071067811865475 -4.94693796932939e-13
outer loop
vertex 6336.59 9229.09 601.77
vertex 6336.72 9228.960000000001 600.47
vertex 6363.63 9202.050000000001 600.47
endloop
endfacet
facet normal -0.7071067811865295 -0.7071067811865656 2.5693285135668437e-13
outer loop
vertex 6336.59 9229.09 601.77
vertex 6363.63 9202.050000000001 600.47
vertex 6354.400000000001 9211.28 601.77
endloop
endfacet
facet normal -0.7071067811865563 -0.7071067811865386 0
outer loop
vertex 6336.72 9228.960000000001 600.47
vertex 6372.860000000001 9192.82 199.94
vertex 6372.860000000001 9192.82 599.95
endloop
endfacet
facet normal -0.7071067811865476 -0.7071067811865476 1.2351411960946527e-12
outer loop
vertex 6336.72 9228.960000000001 600.47
vertex 6372.860000000001 9192.82 599.95
vertex 6363.63 9202.050000000001 600.47
endloop
endfacet
facet normal -0.7071067811865481 -0.7071067811865469 2.425120397752508e-15
outer loop
vertex 6299.02 9266.66 351.13
vertex 6297.070000000001 9268.61 615.2900000000001
vertex 6160.4400000000005 9405.24 280.54
endloop
endfacet
facet normal -0.7071067811865461 -0.707106781186549 -5.705743866078365e-15
outer loop
vertex 6299.02 9266.66 351.13
vertex 6160.4400000000005 9405.24 280.54
vertex 6262.88 9302.800000000001 220.48000000000002
endloop
endfacet
facet normal -0.7071067811865482 -0.7071067811865468 -4.513380774976204e-15
outer loop
vertex 6299.02 9266.66 351.13
vertex 6262.88 9302.800000000001 220.48000000000002
vertex 6290.05 9275.630000000001 211.51000000000002
endloop
endfacet
facet normal -0.707106781186548 -0.707106781186547 -4.539673447408758e-15
outer loop
vertex 6299.02 9266.66 351.13
vertex 6290.05 9275.630000000001 211.51000000000002
vertex 6317.4800000000005 9248.2 205.14000000000001
endloop
endfacet
facet normal -0.7054106709175747 -0.7087987033166825 0.00042840659008760697
outer loop
vertex 6299.02 9266.66 351.13
vertex 6317.4800000000005 9248.2 205.14000000000001
vertex 6345.17 9220.64 201.24
endloop
endfacet
facet normal -0.7087985303782903 -0.7054090323855727 -0.001655404006761451
outer loop
vertex 6299.02 9266.66 351.13
vertex 6345.17 9220.64 201.24
vertex 6372.860000000001 9192.82 199.94
endloop
endfacet
facet normal -0.7071067811865455 -0.7071067811865497 2.0315894109072706e-15
outer loop
vertex 6299.02 9266.66 351.13
vertex 6372.860000000001 9192.82 199.94
vertex 6327.2300000000005 9238.45 610.61
endloop
endfacet
facet normal -0.707106781186512 -0.707106781186583 -5.24253837140805e-15
outer loop
vertex 6299.02 9266.66 351.13
vertex 6327.2300000000005 9238.45 610.61
vertex 6318.52 9247.16 615.2900000000001
endloop
endfacet
facet normal -0.7071067811865626 -0.7071067811865326 2.213224323677337e-15
outer loop
vertex 6299.02 9266.66 351.13
vertex 6318.52 9247.16 615.2900000000001
vertex 6297.070000000001 9268.61 615.2900000000001
endloop
endfacet
facet normal -0.7071067811866181 -0.707106781186477 -2.2020892875214464e-13
outer loop
vertex 6184.88 9380.800000000001 261.95
vertex 6210.2300000000005 9355.45 245.70000000000002
vertex 6160.4400000000005 9405.24 280.54
endloop
endfacet
facet normal -0.722087331095156 -0.6881684588838761 -0.07081001672973447
outer loop
vertex 6236.360000000001 9329.45 231.92000000000002
vertex 6262.88 9302.800000000001 220.48000000000002
vertex 6210.2300000000005 9355.45 245.70000000000002
endloop
endfacet
facet normal -0.7071067811865617 -0.7071067811865333 -5.890687078213441e-14
outer loop
vertex 6160.4400000000005 9405.24 280.54
vertex 6210.2300000000005 9355.45 245.70000000000002
vertex 6262.88 9302.800000000001 220.48000000000002
endloop
endfacet
facet normal -0.7071067811865472 -0.7071067811865476 1.6271622225936634e-15
outer loop
vertex 6372.860000000001 9192.82 199.94
vertex 6336.070000000001 9229.61 606.84
vertex 6327.2300000000005 9238.45 610.61
endloop
endfacet
facet normal 0.7071067811871659 0.7071067811859291 1.490408658436581e-12
outer loop
vertex 6025.63 8974.42 621.9200000000001
vertex 6025.110000000001 8974.94 621.9200000000001
vertex 6019 8981.050000000001 626.99
endloop
endfacet
facet normal 0.6879463723402581 0.7241540761479334 -0.048276938409680226
outer loop
vertex 6025.63 8974.42 621.9200000000001
vertex 6027.1900000000005 8972.86 620.75
vertex 6024.59 8975.33 620.75
endloop
endfacet
facet normal 0.704934404989718 0.704934404988485 -0.07832604499987746
outer loop
vertex 6025.63 8974.42 621.9200000000001
vertex 6024.59 8975.33 620.75
vertex 6025.110000000001 8974.94 621.9200000000001
endloop
endfacet
facet normal 0.7070065889393301 0.7070065889393301 -0.01683349021285556
outer loop
vertex 6027.1900000000005 8972.86 620.75
vertex 6035.64 8964.28 615.2900000000001
vertex 6022.38 8977.54 615.2900000000001
endloop
endfacet
facet normal 0.688675335026862 0.7249214052917272 0.01467102844066191
outer loop
vertex 6027.1900000000005 8972.86 620.75
vertex 6022.38 8977.54 615.2900000000001
vertex 6024.59 8975.33 620.75
endloop
endfacet
facet normal 0.7090126375827366 0.7051593080306533 0.007171474444017805
outer loop
vertex 6035.64 8964.28 615.2900000000001
vertex 6044.35 8955.57 610.61
vertex 6020.56 8979.49 610.61
endloop
endfacet
facet normal 0.7069704188709072 0.7069704188709072 0.0196380671907373
outer loop
vertex 6035.64 8964.28 615.2900000000001
vertex 6020.56 8979.49 610.61
vertex 6022.38 8977.54 615.2900000000001
endloop
endfacet
facet normal 0.7068966766562346 0.7068966766562158 0.02437574747096922
outer loop
vertex 6044.35 8955.57 610.61
vertex 6053.320000000001 8946.73 606.84
vertex 6019 8981.050000000001 606.84
endloop
endfacet
facet normal 0.7090299692080652 0.7051765454623659 -0.001594520170464087
outer loop
vertex 6044.35 8955.57 610.61
vertex 6019 8981.050000000001 606.84
vertex 6020.56 8979.49 610.61
endloop
endfacet
facet normal 0.7067728464424566 0.7067728464424566 -0.030729254192960784
outer loop
vertex 6053.320000000001 8946.73 606.84
vertex 6062.29 8937.630000000001 603.85
vertex 6017.7 8982.220000000001 603.85
endloop
endfacet
facet normal 0.706772846442461 0.7067728464424422 -0.03072925419318252
outer loop
vertex 6053.320000000001 8946.73 606.84
vertex 6017.7 8982.220000000001 603.85
vertex 6019 8981.050000000001 606.84
endloop
endfacet
facet normal 0.7064172571013557 0.7064172571013556 0.04415107856887077
outer loop
vertex 6062.29 8937.630000000001 603.85
vertex 6071.52 8928.53 601.77
vertex 6016.92 8983.130000000001 601.77
endloop
endfacet
facet normal 0.7064172571013555 0.7064172571013555 0.04415107856887084
outer loop
vertex 6062.29 8937.630000000001 603.85
vertex 6016.92 8983.130000000001 601.77
vertex 6017.7 8982.220000000001 603.85
endloop
endfacet
facet normal 0.7071067811865425 0.7071067811865525 -7.111070835528524e-14
outer loop
vertex 6071.52 8928.53 601.77
vertex 6080.75 8919.300000000001 600.47
vertex 6016.400000000001 8983.65 600.47
endloop
endfacet
facet normal 0.7071067811865476 0.7071067811865476 -4.983240759260226e-13
outer loop
vertex 6071.52 8928.53 601.77
vertex 6016.400000000001 8983.65 600.47
vertex 6016.92 8983.130000000001 601.77
endloop
endfacet
facet normal 0.7071067811865475 0.7071067811865475 0
outer loop
vertex 5980.13 9019.92 220.48000000000002
vertex 5953.4800000000005 9046.57 231.92000000000002
vertex 5927.4800000000005 9072.57 245.70000000000002
endloop
endfacet
facet normal 0.707120332083077 0.7070930596234941 0.0004909042725015453
outer loop
vertex 6023.68 8976.5 416.39
vertex 6080.75 8919.300000000001 600.47
vertex 6090.110000000001 8909.94 599.95
endloop
endfacet
facet normal 0.7077976519970153 0.7064152347079671 0
outer loop
vertex 6023.68 8976.5 416.39
vertex 6090.110000000001 8909.94 599.95
vertex 6090.110000000001 8909.94 199.94
endloop
endfacet
facet normal 0.7070646366478579 0.7071487796903044 -0.00045053806268834947
outer loop
vertex 6023.68 8976.5 416.39
vertex 6090.110000000001 8909.94 199.94
vertex 5980.13 9019.92 220.48000000000002
endloop
endfacet
facet normal 0.7069851702695726 0.7072282492788713 -0.0004152599742298893
outer loop
vertex 6023.68 8976.5 416.39
vertex 5980.13 9019.92 220.48000000000002
vertex 5884.1900000000005 9115.86 276.64
endloop
endfacet
facet normal 0.7065484894135163 0.7076644858341878 0.000455627603303089
outer loop
vertex 6023.68 8976.5 416.39
vertex 5884.1900000000005 9115.86 276.64
vertex 6016.400000000001 8983.65 600.47
endloop
endfacet
facet normal 0.7071066930210936 0.7071066930211035 0.0004993691334895042
outer loop
vertex 6023.68 8976.5 416.39
vertex 6016.400000000001 8983.65 600.47
vertex 6080.75 8919.300000000001 600.47
endloop
endfacet
facet normal 0.7071067811865245 0.7071067811865704 -4.92304903998101e-13
outer loop
vertex 6090.110000000001 8909.94 199.94
vertex 6062.29 8937.76 201.24
vertex 6034.6 8965.45 205.14000000000001
endloop
endfacet
facet normal 0.7071067811865753 0.7071067811865197 2.396337438618133e-13
outer loop
vertex 6034.6 8965.45 205.14000000000001
vertex 6007.17 8992.880000000001 211.51000000000002
vertex 5980.13 9019.92 220.48000000000002
endloop
endfacet
facet normal 0.7071067811865313 0.7071067811865638 -6.644726673316215e-14
outer loop
vertex 5980.13 9019.92 220.48000000000002
vertex 5927.4800000000005 9072.57 245.70000000000002
vertex 5883.93 9116.12 276.12
endloop
endfacet
facet normal 0.7071067811865476 0.7071067811865476 0
outer loop
vertex 5980.13 9019.92 220.48000000000002
vertex 5883.93 9116.12 276.12
vertex 5884.1900000000005 9115.86 276.64
endloop
endfacet
facet normal 0.7071067811865503 0.7071067811865446 6.337402478482367e-14
outer loop
vertex 6090.110000000001 8909.94 199.94
vertex 6034.6 8965.45 205.14000000000001
vertex 5980.13 9019.92 220.48000000000002
endloop
endfacet
facet normal 0.6124402125354692 -0.6124402125354771 -0.49983394456460134
outer loop
vertex 6160.4400000000005 9122.49 626.99
vertex 6019 9263.800000000001 280.54
vertex 6160.4400000000005 9405.24 280.54
endloop
endfacet
facet normal 0.6120882619302349 -0.6126513606072562 -0.5000062699139897
outer loop
vertex 6160.4400000000005 9122.49 626.99
vertex 6160.4400000000005 9405.24 280.54
vertex 6301.88 9263.800000000001 626.99
endloop
endfacet
facet normal 0.7071067811864652 0.7071067811866298 -2.5715476766402605e-13
outer loop
vertex 5883.93 9116.12 276.12
vertex 5927.4800000000005 9072.57 245.70000000000002
vertex 5902.13 9097.92 261.95
endloop
endfacet
facet normal 0.7071067811858672 0.7071067811872279 -1.7931358178011792e-12
outer loop
vertex 5883.93 9116.12 276.12
vertex 5902.13 9097.92 261.95
vertex 5883.8 9116.25 275.86
endloop
endfacet
facet normal -0.6123381958041844 0.6123381958041803 0.5000838608859097
outer loop
vertex 6025.110000000001 8974.94 621.9200000000001
vertex 5883.8 9116.25 275.86
vertex 5742.360000000001 8974.81 275.86
endloop
endfacet
facet normal -0.6123381958041827 0.6123381958041827 0.5000838608859085
outer loop
vertex 6025.110000000001 8974.94 621.9200000000001
vertex 5742.360000000001 8974.81 275.86
vertex 5883.67 8833.5 621.9200000000001
endloop
endfacet
facet normal -0.6394551340650995 0.6397491364255894 0.42640142349726984
outer loop
vertex 6025.24 9257.56 275.86
vertex 6025.110000000001 9257.69 275.47
vertex 5742.2300000000005 8974.94 275.47
endloop
endfacet
facet normal -0.6394551340646892 0.6397491364251768 0.42640142349850424
outer loop
vertex 6025.24 9257.56 275.86
vertex 5742.2300000000005 8974.94 275.47
vertex 5742.360000000001 8974.81 275.86
endloop
endfacet
facet normal -0.353592047622078 0.3535920476220826 -0.8659938381517787
outer loop
vertex 5679.4400000000005 9320.61 904.2800000000001
vertex 6160.4400000000005 9122.49 626.99
vertex 6019 8981.050000000001 626.99
endloop
endfacet
facet normal -0.35340188440892106 0.3537821852654527 -0.8659938068398785
outer loop
vertex 5679.4400000000005 9320.61 904.2800000000001
vertex 6019 8981.050000000001 626.99
vertex 5736.12 8981.050000000001 742.4300000000001
endloop
endfacet
facet normal -0.35328782245744184 0.35381668853816334 -0.8660262498418666
outer loop
vertex 5679.4400000000005 9320.61 904.2800000000001
vertex 5736.12 8981.050000000001 742.4300000000001
vertex 5099.25 9617.92 1262.43
endloop
endfacet
facet normal -0.35348834026789255 0.3534883402678914 -0.8660785106382111
outer loop
vertex 5679.4400000000005 9320.61 904.2800000000001
vertex 5099.25 9617.92 1262.43
vertex 5382.13 9900.800000000001 1262.43
endloop
endfacet
facet normal -0.3537207093220255 0.3533464445337638 -0.8660415405349047
outer loop
vertex 5679.4400000000005 9320.61 904.2800000000001
vertex 5382.13 9900.800000000001 1262.43
vertex 6160.4400000000005 9122.49 626.99
endloop
endfacet
facet normal -0.3578433464276919 0.3578433464276919 -0.8624942195950428
outer loop
vertex 6019 8981.050000000001 626.99
vertex 6025.110000000001 8974.94 621.9200000000001
vertex 5883.67 8833.5 621.9200000000001
endloop
endfacet
facet normal -0.35338840663246823 0.3538764772976558 -0.8659607802164987
outer loop
vertex 6019 8981.050000000001 626.99
vertex 5883.67 8833.5 621.9200000000001
vertex 5736.12 8981.050000000001 742.4300000000001
endloop
endfacet
facet normal -0.7071067811865475 0.7071067811865475 0
outer loop
vertex 7358.52 7358.52 599.95
vertex 7641.400000000001 7641.400000000001 599.95
vertex 7641.400000000001 7641.400000000001 199.94
endloop
endfacet
facet normal -0.7071067811865475 0.7071067811865475 0
outer loop
vertex 7358.52 7358.52 599.95
vertex 7641.400000000001 7641.400000000001 199.94
vertex 7358.52 7358.52 199.94
endloop
endfacet
facet normal 0.7071067811865475 -0.7071067811865475 0
outer loop
vertex 6090.110000000001 8909.94 199.94
vertex 6090.110000000001 8909.94 599.95
vertex 5948.67 8768.5 599.95
endloop
endfacet
facet normal 0.7071067811865475 -0.7071067811865475 0
outer loop
vertex 6090.110000000001 8909.94 199.94
vertex 5948.67 8768.5 599.95
vertex 5948.67 8768.5 199.94
endloop
endfacet
facet normal -0.707106781186543 0.707106781186552 0
outer loop
vertex 6372.860000000001 9192.82 599.95
vertex 6372.860000000001 9192.82 199.94
vertex 6231.42 9051.380000000001 199.94
endloop
endfacet
facet normal -0.707106781186543 0.707106781186552 0
outer loop
vertex 6372.860000000001 9192.82 599.95
vertex 6231.42 9051.380000000001 199.94
vertex 6231.42 9051.380000000001 599.95
endloop
endfacet
endsolid JSCAD
