solid JSCAD
facet normal -1 0 0
outer loop
vertex 0 8191.43 1142.83
vertex 0 9284.6 0
vertex 0 9248.33 0
endloop
endfacet
facet normal -0.9999999999999999 0 0
outer loop
vertex 0 8191.43 1142.83
vertex 0 9248.33 0
vertex 0 8807.24 0
endloop
endfacet
facet normal -1 0 0
outer loop
vertex 0 8191.43 1142.83
vertex 0 8807.24 0
vertex 0 0 0
endloop
endfacet
facet normal -1 0 0
outer loop
vertex 0 8191.43 1142.83
vertex 0 0 0
vertex 0 0 3999.9700000000003
endloop
endfacet
facet normal -1 0 0
outer loop
vertex 0 8191.43 1142.83
vertex 0 0 3999.9700000000003
vertex 0 15000.050000000001 3999.9700000000003
endloop
endfacet
facet normal -1 0 0
outer loop
vertex 0 8191.43 1142.83
vertex 0 15000.050000000001 3999.9700000000003
vertex 0 15000.050000000001 0
endloop
endfacet
facet normal -0.9999999999999999 0 0
outer loop
vertex 0 8191.43 1142.83
vertex 0 15000.050000000001 0
vertex 0 9284.6 0
endloop
endfacet
facet normal 1 0 0
outer loop
vertex 19999.98 8133.58 1142.83
vertex 19999.98 0 0
vertex 19999.98 8807.24 0
endloop
endfacet
facet normal 1 0 0
outer loop
vertex 19999.98 8133.58 1142.83
vertex 19999.98 8807.24 0
vertex 19999.98 8843.51 0
endloop
endfacet
facet normal 0.9999999999999999 0 0
outer loop
vertex 19999.98 8133.58 1142.83
vertex 19999.98 8843.51 0
vertex 19999.98 9284.6 0
endloop
endfacet
facet normal 0.9999999999999999 0 0
outer loop
vertex 19999.98 8133.58 1142.83
vertex 19999.98 9284.6 0
vertex 19999.98 15000.050000000001 0
endloop
endfacet
facet normal 1 0 0
outer loop
vertex 19999.98 8133.58 1142.83
vertex 19999.98 15000.050000000001 0
vertex 19999.98 15000.050000000001 3999.9700000000003
endloop
endfacet
facet normal 1 0 0
outer loop
vertex 19999.98 8133.58 1142.83
vertex 19999.98 15000.050000000001 3999.9700000000003
vertex 19999.98 0 3999.9700000000003
endloop
endfacet
facet normal 1 0 0
outer loop
vertex 19999.98 8133.58 1142.83
vertex 19999.98 0 3999.9700000000003
vertex 19999.98 0 0
endloop
endfacet
facet normal 0 -1 0
outer loop
vertex 0 0 0
vertex 19999.98 0 0
vertex 19999.98 0 3999.9700000000003
endloop
endfacet
facet normal 0 -1 0
outer loop
vertex 0 0 0
vertex 19999.98 0 3999.9700000000003
vertex 0 0 3999.9700000000003
endloop
endfacet
facet normal 0 1 0
outer loop
vertex 0 15000.050000000001 0
vertex 0 15000.050000000001 3999.9700000000003
vertex 19999.98 15000.050000000001 3999.9700000000003
endloop
endfacet
facet normal 0 1 0
outer loop
vertex 0 15000.050000000001 0
vertex 19999.98 15000.050000000001 3999.9700000000003
vertex 19999.98 15000.050000000001 0
endloop
endfacet
facet normal 0 0 1
outer loop
vertex 0 0 3999.9700000000003
vertex 19999.98 0 3999.9700000000003
vertex 19999.98 15000.050000000001 3999.9700000000003
endloop
endfacet
facet normal 0 0 1
outer loop
vertex 0 0 3999.9700000000003
vertex 19999.98 15000.050000000001 3999.9700000000003
vertex 0 15000.050000000001 3999.9700000000003
endloop
endfacet
facet normal 0.09068227320835523 -0.9958798749476592 0
outer loop
vertex 6199.18 11518.130000000001 199.94
vertex 6199.18 11518.130000000001 599.95
vertex 5800.860000000001 11481.86 599.95
endloop
endfacet
facet normal 0.09068227320835523 -0.9958798749476592 0
outer loop
vertex 6199.18 11518.130000000001 199.94
vertex 5800.860000000001 11481.86 599.95
vertex 5800.860000000001 11481.86 199.94
endloop
endfacet
facet normal -0.09035990568286373 0.9959091763032328 0
outer loop
vertex 5916.17 10213.45 599.95
vertex 6314.49 10249.59 599.95
vertex 6314.49 10249.59 199.94
endloop
endfacet
facet normal -0.09035990568286373 0.9959091763032328 0
outer loop
vertex 5916.17 10213.45 599.95
vertex 6314.49 10249.59 199.94
vertex 5916.17 10213.45 199.94
endloop
endfacet
facet normal 0.9958943172896224 0.09052347648793085 -0.0000948407943899006
outer loop
vertex 6169.150000000001 7430.54 1729.78
vertex 6068.66 8535.41 1089.27
vertex 6050.59 8734.57 1435.5900000000001
endloop
endfacet
facet normal 0.995894316651898 0.09052348353685347 -0.00009480929224796767
outer loop
vertex 6169.150000000001 7430.54 1729.78
vertex 6050.59 8734.57 1435.5900000000001
vertex 6151.08 7629.7 2076.23
endloop
endfacet
facet normal 0.995893206467704 0.09053574604251814 0
outer loop
vertex 5916.17 10213.45 599.95
vertex 5916.17 10213.45 199.94
vertex 5800.860000000001 11481.86 199.94
endloop
endfacet
facet normal 0.995893206467704 0.09053574604251814 0
outer loop
vertex 5916.17 10213.45 599.95
vertex 5800.860000000001 11481.86 199.94
vertex 5800.860000000001 11481.86 599.95
endloop
endfacet
facet normal 0.9958881420507768 0.09059143735835025 0
outer loop
vertex 6300.84 5981.95 599.95
vertex 6300.84 5981.95 199.94
vertex 6186.4400000000005 7239.570000000001 199.94
endloop
endfacet
facet normal 0.9958881420507768 0.09059143735835025 0
outer loop
vertex 6300.84 5981.95 599.95
vertex 6186.4400000000005 7239.570000000001 199.94
vertex 6186.4400000000005 7239.570000000001 599.95
endloop
endfacet
facet normal 0.9959035629227541 0.09042171164218328 0.00008614790751860305
outer loop
vertex 5997.030000000001 9323.86 279.63
vertex 6052.02 8718.32 154.57
vertex 6043.96 8807.24 0
endloop
endfacet
facet normal 0.9959052198902071 0.09040342108051383 0.00012021804109601503
outer loop
vertex 5997.030000000001 9323.86 279.63
vertex 6043.96 8807.24 0
vertex 6003.92 9248.33 0
endloop
endfacet
facet normal 0.9958854138777383 0.090621403226037 0.00006085153937132391
outer loop
vertex 5997.030000000001 9323.86 279.63
vertex 6003.92 9248.33 0
vertex 5933.46 10022.35 448.76
endloop
endfacet
facet normal 0.9958799668835855 0.09068106947919206 -0.00018761145704895594
outer loop
vertex 5997.030000000001 9323.86 279.63
vertex 5933.46 10022.35 448.76
vertex 5951.66 9823.19 795.08
endloop
endfacet
facet normal 0.9959030896584892 0.09042694474644745 0.000060601139902707086
outer loop
vertex 5997.030000000001 9323.86 279.63
vertex 5951.66 9823.19 795.08
vertex 6052.02 8718.32 154.57
endloop
endfacet
facet normal -0.9958943172896222 -0.09052347648793137 0.0000948407943875856
outer loop
vertex 6448.91 8770.84 1435.5900000000001
vertex 6466.9800000000005 8571.68 1089.27
vertex 6567.47 7466.81 1729.78
endloop
endfacet
facet normal -0.9958943166518981 -0.09052348353685297 0.00009480929225028191
outer loop
vertex 6448.91 8770.84 1435.5900000000001
vertex 6567.47 7466.81 1729.78
vertex 6549.400000000001 7665.97 2076.23
endloop
endfacet
facet normal -0.9958974244754467 -0.09048933596381167 0
outer loop
vertex 6584.89 7275.71 599.95
vertex 6584.89 7275.71 199.94
vertex 6699.16 6018.09 199.94
endloop
endfacet
facet normal -0.9958974244754467 -0.09048933596381167 0
outer loop
vertex 6584.89 7275.71 599.95
vertex 6699.16 6018.09 199.94
vertex 6699.16 6018.09 599.95
endloop
endfacet
facet normal -0.9958940429763202 -0.09052654397622376 0
outer loop
vertex 6199.18 11518.130000000001 599.95
vertex 6199.18 11518.130000000001 199.94
vertex 6314.49 10249.59 199.94
endloop
endfacet
facet normal -0.9958940429763202 -0.09052654397622376 0
outer loop
vertex 6199.18 11518.130000000001 599.95
vertex 6314.49 10249.59 199.94
vertex 6314.49 10249.59 599.95
endloop
endfacet
facet normal -0.9959032882514499 -0.09042470546092835 -0.0001144213875046784
outer loop
vertex 6395.35 9360.130000000001 279.63
vertex 6331.91 10058.62 448.76
vertex 6402.24 9284.6 0
endloop
endfacet
facet normal -0.9959052198902071 -0.09040342108051588 -0.00012021804109546059
outer loop
vertex 6395.35 9360.130000000001 279.63
vertex 6402.24 9284.6 0
vertex 6442.280000000001 8843.51 0
endloop
endfacet
facet normal -0.9958722243024182 -0.0907645721118964 0.0005525507203633835
outer loop
vertex 6395.35 9360.130000000001 279.63
vertex 6442.280000000001 8843.51 0
vertex 6450.47 8754.59 154.57
endloop
endfacet
facet normal -0.9958789670324429 -0.09069202662844428 0.0001983139433878011
outer loop
vertex 6395.35 9360.130000000001 279.63
vertex 6450.47 8754.59 154.57
vertex 6349.9800000000005 9859.460000000001 795.08
endloop
endfacet
facet normal -0.9959018226278096 -0.09044090601546965 -0.000046964966377291354
outer loop
vertex 6395.35 9360.130000000001 279.63
vertex 6349.9800000000005 9859.460000000001 795.08
vertex 6331.91 10058.62 448.76
endloop
endfacet
facet normal 0 0 0.9999999999999999
outer loop
vertex 5800.860000000001 11481.86 199.94
vertex 5916.17 10213.45 199.94
vertex 6314.49 10249.59 199.94
endloop
endfacet
facet normal 0 0 0.9999999999999999
outer loop
vertex 5800.860000000001 11481.86 199.94
vertex 6314.49 10249.59 199.94
vertex 6199.18 11518.130000000001 199.94
endloop
endfacet
facet normal 0 0 0.9999999999999999
outer loop
vertex 6186.4400000000005 7239.570000000001 199.94
vertex 6300.84 5981.95 199.94
vertex 6699.16 6018.09 199.94
endloop
endfacet
facet normal 0 0 1
outer loop
vertex 6186.4400000000005 7239.570000000001 199.94
vertex 6699.16 6018.09 199.94
vertex 6584.89 7275.71 199.94
endloop
endfacet
facet normal 0 0 -1
outer loop
vertex 6314.49 10249.59 599.95
vertex 5916.17 10213.45 599.95
vertex 5800.860000000001 11481.86 599.95
endloop
endfacet
facet normal 0 0 -0.9999999999999999
outer loop
vertex 6314.49 10249.59 599.95
vertex 5800.860000000001 11481.86 599.95
vertex 6199.18 11518.130000000001 599.95
endloop
endfacet
facet normal 0 0 -1
outer loop
vertex 6699.16 6018.09 599.95
vertex 6300.84 5981.95 599.95
vertex 6186.4400000000005 7239.570000000001 599.95
endloop
endfacet
facet normal 0 0 -1
outer loop
vertex 6699.16 6018.09 599.95
vertex 6186.4400000000005 7239.570000000001 599.95
vertex 6584.89 7275.71 599.95
endloop
endfacet
facet normal 0.07853019473697619 -0.8624247909465684 -0.5000564852847529
outer loop
vertex 6331.91 10058.62 448.76
vertex 6349.9800000000005 9859.460000000001 795.08
vertex 5951.66 9823.19 795.08
endloop
endfacet
facet normal 0.07850362669385395 -0.862414393608098 -0.5000785881173965
outer loop
vertex 6331.91 10058.62 448.76
vertex 5951.66 9823.19 795.08
vertex 5933.46 10022.35 448.76
endloop
endfacet
facet normal -0.045325404807861666 0.4979296262942433 -0.8660321558334187
outer loop
vertex 6349.9800000000005 9859.460000000001 795.08
vertex 6450.47 8754.59 154.57
vertex 6052.02 8718.32 154.57
endloop
endfacet
facet normal -0.04534043750072154 0.4979322598645496 -0.8660298547471824
outer loop
vertex 6349.9800000000005 9859.460000000001 795.08
vertex 6052.02 8718.32 154.57
vertex 5951.66 9823.19 795.08
endloop
endfacet
facet normal -0.07849817103798563 0.8623544596108349 0.5001827897209141
outer loop
vertex 6043.96 8807.24 0
vertex 6052.02 8718.32 154.57
vertex 6450.47 8754.59 154.57
endloop
endfacet
facet normal -0.07852098622666541 0.8623236623602161 0.5002323020913945
outer loop
vertex 6043.96 8807.24 0
vertex 6450.47 8754.59 154.57
vertex 6442.280000000001 8843.51 0
endloop
endfacet
facet normal 0.045344045935748936 -0.49797188798255554 0.8660068800403758
outer loop
vertex 6003.92 9248.33 0
vertex 6402.24 9284.6 0
vertex 6331.91 10058.62 448.76
endloop
endfacet
facet normal 0.04532885773970876 -0.4979675590401649 0.8660101643742948
outer loop
vertex 6003.92 9248.33 0
vertex 6331.91 10058.62 448.76
vertex 5933.46 10022.35 448.76
endloop
endfacet
facet normal 0 0 -1
outer loop
vertex 9280.44 11570.78 0
vertex 19999.98 15000.050000000001 0
vertex 19999.98 9284.6 0
endloop
endfacet
facet normal 0 0 -0.9999999999999999
outer loop
vertex 9280.44 11570.78 0
vertex 19999.98 9284.6 0
vertex 6402.24 9284.6 0
endloop
endfacet
facet normal 0 0 -1
outer loop
vertex 9280.44 11570.78 0
vertex 6402.24 9284.6 0
vertex 0 9284.6 0
endloop
endfacet
facet normal 0 0 -0.9999999999999999
outer loop
vertex 9280.44 11570.78 0
vertex 0 9284.6 0
vertex 0 15000.050000000001 0
endloop
endfacet
facet normal 0 0 -1
outer loop
vertex 9280.44 11570.78 0
vertex 0 15000.050000000001 0
vertex 19999.98 15000.050000000001 0
endloop
endfacet
facet normal 0 0 -1
outer loop
vertex 6402.24 9284.6 0
vertex 6003.92 9248.33 0
vertex 0 9248.33 0
endloop
endfacet
facet normal 0 0 -1
outer loop
vertex 6402.24 9284.6 0
vertex 0 9248.33 0
vertex 0 9284.6 0
endloop
endfacet
facet normal 0 0 -1
outer loop
vertex 19999.98 9284.6 0
vertex 19999.98 8843.51 0
vertex 6442.280000000001 8843.51 0
endloop
endfacet
facet normal 0 0 -1
outer loop
vertex 19999.98 9284.6 0
vertex 6442.280000000001 8843.51 0
vertex 6402.24 9284.6 0
endloop
endfacet
facet normal 0 0 -0.9999999999999999
outer loop
vertex 6003.92 9248.33 0
vertex 6043.96 8807.24 0
vertex 0 8807.24 0
endloop
endfacet
facet normal 0 0 -1
outer loop
vertex 6003.92 9248.33 0
vertex 0 8807.24 0
vertex 0 9248.33 0
endloop
endfacet
facet normal 0 0 -0.9999999999999999
outer loop
vertex 19999.98 8843.51 0
vertex 19999.98 8807.24 0
vertex 6043.96 8807.24 0
endloop
endfacet
facet normal 0 0 -1
outer loop
vertex 19999.98 8843.51 0
vertex 6043.96 8807.24 0
vertex 6442.280000000001 8843.51 0
endloop
endfacet
facet normal 0 0 -1
outer loop
vertex 9208.81 5284.37 0
vertex 6043.96 8807.24 0
vertex 19999.98 8807.24 0
endloop
endfacet
facet normal 0 0 -1
outer loop
vertex 9208.81 5284.37 0
vertex 19999.98 8807.24 0
vertex 19999.98 0 0
endloop
endfacet
facet normal 0 0 -1
outer loop
vertex 9208.81 5284.37 0
vertex 19999.98 0 0
vertex 0 0 0
endloop
endfacet
facet normal 0 0 -1
outer loop
vertex 9208.81 5284.37 0
vertex 0 0 0
vertex 0 8807.24 0
endloop
endfacet
facet normal 0 0 -1
outer loop
vertex 9208.81 5284.37 0
vertex 0 8807.24 0
vertex 6043.96 8807.24 0
endloop
endfacet
facet normal 0.0785301947369764 -0.8624247909465685 0.5000564852847529
outer loop
vertex 6466.9800000000005 8571.68 1089.27
vertex 6448.91 8770.84 1435.5900000000001
vertex 6050.59 8734.57 1435.5900000000001
endloop
endfacet
facet normal 0.07853019473697624 -0.8624247909465688 0.5000564852847527
outer loop
vertex 6466.9800000000005 8571.68 1089.27
vertex 6050.59 8734.57 1435.5900000000001
vertex 6068.66 8535.41 1089.27
endloop
endfacet
facet normal -0.07853756286594256 0.8625057083198763 -0.49991574723617827
outer loop
vertex 6151.08 7629.7 2076.23
vertex 6549.400000000001 7665.97 2076.23
vertex 6567.47 7466.81 1729.78
endloop
endfacet
facet normal -0.07853756286594275 0.8625057083198762 -0.49991574723617843
outer loop
vertex 6151.08 7629.7 2076.23
vertex 6567.47 7466.81 1729.78
vertex 6169.150000000001 7430.54 1729.78
endloop
endfacet
facet normal -0.04534007615840051 0.49792829157468593 0.866032155259529
outer loop
vertex 6169.150000000001 7430.54 1729.78
vertex 6567.47 7466.81 1729.78
vertex 6466.9800000000005 8571.68 1089.27
endloop
endfacet
facet normal -0.045340076158400536 0.497928291574686 0.866032155259529
outer loop
vertex 6169.150000000001 7430.54 1729.78
vertex 6466.9800000000005 8571.68 1089.27
vertex 6068.66 8535.41 1089.27
endloop
endfacet
facet normal 0.04534697751810832 -0.4980040828511918 -0.8659882130222764
outer loop
vertex 6448.91 8770.84 1435.5900000000001
vertex 6549.400000000001 7665.97 2076.23
vertex 6151.08 7629.7 2076.23
endloop
endfacet
facet normal 0.04534697751810844 -0.49800408285119174 -0.8659882130222762
outer loop
vertex 6448.91 8770.84 1435.5900000000001
vertex 6151.08 7629.7 2076.23
vertex 6050.59 8734.57 1435.5900000000001
endloop
endfacet
facet normal 0.09033066506849625 -0.995911828902681 0
outer loop
vertex 6584.89 7275.71 199.94
vertex 6584.89 7275.71 599.95
vertex 6186.4400000000005 7239.570000000001 599.95
endloop
endfacet
facet normal 0.09033066506849625 -0.995911828902681 0
outer loop
vertex 6584.89 7275.71 199.94
vertex 6186.4400000000005 7239.570000000001 599.95
vertex 6186.4400000000005 7239.570000000001 199.94
endloop
endfacet
facet normal -0.09035990568286599 0.9959091763032327 0
outer loop
vertex 6300.84 5981.95 599.95
vertex 6699.16 6018.09 599.95
vertex 6699.16 6018.09 199.94
endloop
endfacet
facet normal -0.09035990568286599 0.9959091763032327 0
outer loop
vertex 6300.84 5981.95 599.95
vertex 6699.16 6018.09 199.94
vertex 6300.84 5981.95 199.94
endloop
endfacet
endsolid JSCAD
