solid JSCAD
facet normal 0.024560666176514357 0.9996983413395091 0
outer loop
vertex 6758.88266666669 12898.55466666671 799.9973333333361
vertex 6758.88266666669 12898.55466666671 399.99866666666804
vertex 6699.99866666669 12900.001333333377 399.99866666666804
endloop
endfacet
facet normal 0.024560666176514357 0.9996983413395091 0
outer loop
vertex 6758.88266666669 12898.55466666671 799.9973333333361
vertex 6699.99866666669 12900.001333333377 399.99866666666804
vertex 6699.99866666669 12900.001333333377 799.9973333333361
endloop
endfacet
facet normal 0.07353310794385323 0.9972927764884884 0
outer loop
vertex 6817.617333333356 12894.224000000044 799.9973333333361
vertex 6817.617333333356 12894.224000000044 399.99866666666804
vertex 6758.88266666669 12898.55466666671 399.99866666666804
endloop
endfacet
facet normal 0.07353310794385323 0.9972927764884884 0
outer loop
vertex 6817.617333333356 12894.224000000044 799.9973333333361
vertex 6758.88266666669 12898.55466666671 399.99866666666804
vertex 6758.88266666669 12898.55466666671 799.9973333333361
endloop
endfacet
facet normal 0.12249381304674979 0.9924692769880928 0
outer loop
vertex 6876.072000000024 12887.009333333377 799.9973333333361
vertex 6876.072000000024 12887.009333333377 399.99866666666804
vertex 6817.617333333356 12894.224000000044 399.99866666666804
endloop
endfacet
facet normal 0.12249381304674979 0.9924692769880928 0
outer loop
vertex 6876.072000000024 12887.009333333377 799.9973333333361
vertex 6817.617333333356 12894.224000000044 399.99866666666804
vertex 6817.617333333356 12894.224000000044 799.9973333333361
endloop
endfacet
facet normal 0.1709733718479707 0.9852756498152867 0
outer loop
vertex 6934.10666666669 12876.93866666671 799.9973333333361
vertex 6934.10666666669 12876.93866666671 399.99866666666804
vertex 6876.072000000024 12887.009333333377 399.99866666666804
endloop
endfacet
facet normal 0.1709733718479707 0.9852756498152867 0
outer loop
vertex 6934.10666666669 12876.93866666671 799.9973333333361
vertex 6876.072000000024 12887.009333333377 399.99866666666804
vertex 6876.072000000024 12887.009333333377 799.9973333333361
endloop
endfacet
facet normal 0.2190106313164472 0.975722472514788 0
outer loop
vertex 6991.572000000024 12864.040000000045 799.9973333333361
vertex 6991.572000000024 12864.040000000045 399.99866666666804
vertex 6934.10666666669 12876.93866666671 399.99866666666804
endloop
endfacet
facet normal 0.2190106313164472 0.975722472514788 0
outer loop
vertex 6991.572000000024 12864.040000000045 799.9973333333361
vertex 6934.10666666669 12876.93866666671 399.99866666666804
vertex 6934.10666666669 12876.93866666671 799.9973333333361
endloop
endfacet
facet normal 0.266695671831276 0.9637807938667714 0
outer loop
vertex 7048.3373333333575 12848.332000000044 799.9973333333361
vertex 7048.3373333333575 12848.332000000044 399.99866666666804
vertex 6991.572000000024 12864.040000000045 399.99866666666804
endloop
endfacet
facet normal 0.266695671831276 0.9637807938667714 0
outer loop
vertex 7048.3373333333575 12848.332000000044 799.9973333333361
vertex 6991.572000000024 12864.040000000045 399.99866666666804
vertex 6991.572000000024 12864.040000000045 799.9973333333361
endloop
endfacet
facet normal 0.3137074849345917 0.9495196753601332 0
outer loop
vertex 7104.2720000000245 12829.852000000044 799.9973333333361
vertex 7104.2720000000245 12829.852000000044 399.99866666666804
vertex 7048.3373333333575 12848.332000000044 399.99866666666804
endloop
endfacet
facet normal 0.3137074849345917 0.9495196753601332 0
outer loop
vertex 7104.2720000000245 12829.852000000044 799.9973333333361
vertex 7048.3373333333575 12848.332000000044 399.99866666666804
vertex 7048.3373333333575 12848.332000000044 799.9973333333361
endloop
endfacet
facet normal 0.3599134551664134 0.9329856937757267 0
outer loop
vertex 7159.217333333358 12808.656000000045 799.9973333333361
vertex 7159.217333333358 12808.656000000045 399.99866666666804
vertex 7104.2720000000245 12829.852000000044 399.99866666666804
endloop
endfacet
facet normal 0.3599134551664134 0.9329856937757267 0
outer loop
vertex 7159.217333333358 12808.656000000045 799.9973333333361
vertex 7104.2720000000245 12829.852000000044 399.99866666666804
vertex 7104.2720000000245 12829.852000000044 799.9973333333361
endloop
endfacet
facet normal 0.4051532348093379 0.9142487934493156 0
outer loop
vertex 7213.070666666691 12784.790666666711 799.9973333333361
vertex 7213.070666666691 12784.790666666711 399.99866666666804
vertex 7159.217333333358 12808.656000000045 399.99866666666804
endloop
endfacet
facet normal 0.4051532348093379 0.9142487934493156 0
outer loop
vertex 7213.070666666691 12784.790666666711 799.9973333333361
vertex 7159.217333333358 12808.656000000045 399.99866666666804
vertex 7159.217333333358 12808.656000000045 799.9973333333361
endloop
endfacet
facet normal 0.44974737212608984 0.8931558101841339 0
outer loop
vertex 7265.673333333359 12758.30266666671 799.9973333333361
vertex 7265.673333333359 12758.30266666671 399.99866666666804
vertex 7213.070666666691 12784.790666666711 399.99866666666804
endloop
endfacet
facet normal 0.44974737212608984 0.8931558101841339 0
outer loop
vertex 7265.673333333359 12758.30266666671 799.9973333333361
vertex 7213.070666666691 12784.790666666711 399.99866666666804
vertex 7213.070666666691 12784.790666666711 799.9973333333361
endloop
endfacet
facet normal 0.49282464209012933 0.8701286526420885 0
outer loop
vertex 7316.922666666692 12729.276000000043 799.9973333333361
vertex 7316.922666666692 12729.276000000043 399.99866666666804
vertex 7265.673333333359 12758.30266666671 399.99866666666804
endloop
endfacet
facet normal 0.49282464209012933 0.8701286526420885 0
outer loop
vertex 7316.922666666692 12729.276000000043 799.9973333333361
vertex 7265.673333333359 12758.30266666671 399.99866666666804
vertex 7265.673333333359 12758.30266666671 799.9973333333361
endloop
endfacet
facet normal 0.5349465236314321 0.8448859194321123 0
outer loop
vertex 7366.688000000026 12697.76666666671 799.9973333333361
vertex 7366.688000000026 12697.76666666671 399.99866666666804
vertex 7316.922666666692 12729.276000000043 399.99866666666804
endloop
endfacet
facet normal 0.5349465236314321 0.8448859194321123 0
outer loop
vertex 7366.688000000026 12697.76666666671 799.9973333333361
vertex 7316.922666666692 12729.276000000043 399.99866666666804
vertex 7316.922666666692 12729.276000000043 799.9973333333361
endloop
endfacet
facet normal 0.5758741040701932 0.8175383882493545 0
outer loop
vertex 7414.838666666692 12663.849333333377 799.9973333333361
vertex 7414.838666666692 12663.849333333377 399.99866666666804
vertex 7366.688000000026 12697.76666666671 399.99866666666804
endloop
endfacet
facet normal 0.5758741040701932 0.8175383882493545 0
outer loop
vertex 7414.838666666692 12663.849333333377 799.9973333333361
vertex 7366.688000000026 12697.76666666671 399.99866666666804
vertex 7366.688000000026 12697.76666666671 799.9973333333361
endloop
endfacet
facet normal 0.6152780605082746 0.7883101599352732 0
outer loop
vertex 7461.272000000025 12627.608000000044 799.9973333333361
vertex 7461.272000000025 12627.608000000044 399.99866666666804
vertex 7414.838666666692 12663.849333333377 399.99866666666804
endloop
endfacet
facet normal 0.6152780605082746 0.7883101599352732 0
outer loop
vertex 7461.272000000025 12627.608000000044 799.9973333333361
vertex 7414.838666666692 12663.849333333377 399.99866666666804
vertex 7414.838666666692 12663.849333333377 799.9973333333361
endloop
endfacet
facet normal 0.653124576070871 0.7572504791231531 0
outer loop
vertex 7505.866666666692 12589.145333333376 799.9973333333361
vertex 7505.866666666692 12589.145333333376 399.99866666666804
vertex 7461.272000000025 12627.608000000044 399.99866666666804
endloop
endfacet
facet normal 0.653124576070871 0.7572504791231531 0
outer loop
vertex 7505.866666666692 12589.145333333376 799.9973333333361
vertex 7461.272000000025 12627.608000000044 399.99866666666804
vertex 7461.272000000025 12627.608000000044 799.9973333333361
endloop
endfacet
facet normal 0.6895443860503992 0.7242434256977264 0
outer loop
vertex 7548.529333333359 12548.52666666671 799.9973333333361
vertex 7548.529333333359 12548.52666666671 399.99866666666804
vertex 7505.866666666692 12589.145333333376 399.99866666666804
endloop
endfacet
facet normal 0.6895443860503992 0.7242434256977264 0
outer loop
vertex 7548.529333333359 12548.52666666671 799.9973333333361
vertex 7505.866666666692 12589.145333333376 399.99866666666804
vertex 7505.866666666692 12589.145333333376 799.9973333333361
endloop
endfacet
facet normal 0.7242472175295004 0.6895404033853103 0
outer loop
vertex 7589.138666666693 12505.873333333377 799.9973333333361
vertex 7589.138666666693 12505.873333333377 399.99866666666804
vertex 7548.529333333359 12548.52666666671 399.99866666666804
endloop
endfacet
facet normal 0.7242472175295004 0.6895404033853103 0
outer loop
vertex 7589.138666666693 12505.873333333377 799.9973333333361
vertex 7548.529333333359 12548.52666666671 399.99866666666804
vertex 7548.529333333359 12548.52666666671 799.9973333333361
endloop
endfacet
facet normal 0.7572397031796475 0.6531370697858139 0
outer loop
vertex 7627.610666666693 12461.269333333375 799.9973333333361
vertex 7627.610666666693 12461.269333333375 399.99866666666804
vertex 7589.138666666693 12505.873333333377 399.99866666666804
endloop
endfacet
facet normal 0.7572397031796475 0.6531370697858139 0
outer loop
vertex 7627.610666666693 12461.269333333375 799.9973333333361
vertex 7589.138666666693 12505.873333333377 399.99866666666804
vertex 7589.138666666693 12505.873333333377 799.9973333333361
endloop
endfacet
facet normal 0.7883101599352673 0.615278060508282 0
outer loop
vertex 7663.852000000026 12414.836000000043 799.9973333333361
vertex 7663.852000000026 12414.836000000043 399.99866666666804
vertex 7627.610666666693 12461.269333333375 399.99866666666804
endloop
endfacet
facet normal 0.7883101599352673 0.615278060508282 0
outer loop
vertex 7663.852000000026 12414.836000000043 799.9973333333361
vertex 7627.610666666693 12461.269333333375 399.99866666666804
vertex 7627.610666666693 12461.269333333375 799.9973333333361
endloop
endfacet
facet normal 0.8176129949815605 0.5757681742136178 0
outer loop
vertex 7697.760000000027 12366.685333333377 799.9973333333361
vertex 7697.760000000027 12366.685333333377 399.99866666666804
vertex 7663.852000000026 12414.836000000043 399.99866666666804
endloop
endfacet
facet normal 0.8176129949815605 0.5757681742136178 0
outer loop
vertex 7697.760000000027 12366.685333333377 799.9973333333361
vertex 7663.852000000026 12414.836000000043 399.99866666666804
vertex 7663.852000000026 12414.836000000043 799.9973333333361
endloop
endfacet
facet normal 0.8448143008916547 0.5350596200508361 0
outer loop
vertex 7729.278666666693 12316.920000000042 799.9973333333361
vertex 7729.278666666693 12316.920000000042 399.99866666666804
vertex 7697.760000000027 12366.685333333377 399.99866666666804
endloop
endfacet
facet normal 0.8448143008916547 0.5350596200508361 0
outer loop
vertex 7729.278666666693 12316.920000000042 799.9973333333361
vertex 7697.760000000027 12366.685333333377 399.99866666666804
vertex 7697.760000000027 12366.685333333377 799.9973333333361
endloop
endfacet
facet normal 0.870090157432709 0.49289260284439607 0
outer loop
vertex 7758.30533333336 12265.680000000042 799.9973333333361
vertex 7758.30533333336 12265.680000000042 399.99866666666804
vertex 7729.278666666693 12316.920000000042 399.99866666666804
endloop
endfacet
facet normal 0.870090157432709 0.49289260284439607 0
outer loop
vertex 7758.30533333336 12265.680000000042 799.9973333333361
vertex 7729.278666666693 12316.920000000042 399.99866666666804
vertex 7729.278666666693 12316.920000000042 799.9973333333361
endloop
endfacet
facet normal 0.8932514959371135 0.44955729891317414 0
outer loop
vertex 7784.784000000027 12213.068000000041 799.9973333333361
vertex 7784.784000000027 12213.068000000041 399.99866666666804
vertex 7758.30533333336 12265.680000000042 399.99866666666804
endloop
endfacet
facet normal 0.8932514959371135 0.44955729891317414 0
outer loop
vertex 7784.784000000027 12213.068000000041 799.9973333333361
vertex 7758.30533333336 12265.680000000042 399.99866666666804
vertex 7758.30533333336 12265.680000000042 799.9973333333361
endloop
endfacet
facet normal 0.9141640663183668 0.40534437192622863 0
outer loop
vertex 7808.6586666666935 12159.224000000042 799.9973333333361
vertex 7808.6586666666935 12159.224000000042 399.99866666666804
vertex 7784.784000000027 12213.068000000041 399.99866666666804
endloop
endfacet
facet normal 0.9141640663183668 0.40534437192622863 0
outer loop
vertex 7808.6586666666935 12159.224000000042 799.9973333333361
vertex 7784.784000000027 12213.068000000041 399.99866666666804
vertex 7784.784000000027 12213.068000000041 799.9973333333361
endloop
endfacet
facet normal 0.9330062186638476 0.35986024500434693 0
outer loop
vertex 7829.854666666693 12104.269333333375 799.9973333333361
vertex 7829.854666666693 12104.269333333375 399.99866666666804
vertex 7808.6586666666935 12159.224000000042 399.99866666666804
endloop
endfacet
facet normal 0.9330062186638476 0.35986024500434693 0
outer loop
vertex 7829.854666666693 12104.269333333375 799.9973333333361
vertex 7808.6586666666935 12159.224000000042 399.99866666666804
vertex 7808.6586666666935 12159.224000000042 799.9973333333361
endloop
endfacet
facet normal 0.9495512787829473 0.3136118125352893 0
outer loop
vertex 7848.3253333333605 12048.344000000041 799.9973333333361
vertex 7848.3253333333605 12048.344000000041 399.99866666666804
vertex 7829.854666666693 12104.269333333375 399.99866666666804
endloop
endfacet
facet normal 0.9495512787829473 0.3136118125352893 0
outer loop
vertex 7848.3253333333605 12048.344000000041 799.9973333333361
vertex 7829.854666666693 12104.269333333375 399.99866666666804
vertex 7829.854666666693 12104.269333333375 799.9973333333361
endloop
endfacet
facet normal 0.9637807938667743 0.26669567183126563 0
outer loop
vertex 7864.03333333336 11991.578666666708 799.9973333333361
vertex 7864.03333333336 11991.578666666708 399.99866666666804
vertex 7848.3253333333605 12048.344000000041 399.99866666666804
endloop
endfacet
facet normal 0.9637807938667743 0.26669567183126563 0
outer loop
vertex 7864.03333333336 11991.578666666708 799.9973333333361
vertex 7848.3253333333605 12048.344000000041 399.99866666666804
vertex 7848.3253333333605 12048.344000000041 799.9973333333361
endloop
endfacet
facet normal 0.975696206956657 0.21912761517068644 0
outer loop
vertex 7876.9413333333605 11934.104000000041 799.9973333333361
vertex 7876.9413333333605 11934.104000000041 399.99866666666804
vertex 7864.03333333336 11991.578666666708 399.99866666666804
endloop
endfacet
facet normal 0.975696206956657 0.21912761517068644 0
outer loop
vertex 7876.9413333333605 11934.104000000041 799.9973333333361
vertex 7864.03333333336 11991.578666666708 399.99866666666804
vertex 7864.03333333336 11991.578666666708 799.9973333333361
endloop
endfacet
facet normal 0.9852710167790277 0.17100006869946277 0
outer loop
vertex 7887.012000000027 11876.078666666708 799.9973333333361
vertex 7887.012000000027 11876.078666666708 399.99866666666804
vertex 7876.9413333333605 11934.104000000041 399.99866666666804
endloop
endfacet
facet normal 0.9852710167790277 0.17100006869946277 0
outer loop
vertex 7887.012000000027 11876.078666666708 799.9973333333361
vertex 7876.9413333333605 11934.104000000041 399.99866666666804
vertex 7876.9413333333605 11934.104000000041 799.9973333333361
endloop
endfacet
facet normal 0.9924885299484506 0.12233772076004812 0
outer loop
vertex 7894.21733333336 11817.62400000004 799.9973333333361
vertex 7894.21733333336 11817.62400000004 399.99866666666804
vertex 7887.012000000027 11876.078666666708 399.99866666666804
endloop
endfacet
facet normal 0.9924885299484506 0.12233772076004812 0
outer loop
vertex 7894.21733333336 11817.62400000004 799.9973333333361
vertex 7887.012000000027 11876.078666666708 399.99866666666804
vertex 7887.012000000027 11876.078666666708 799.9973333333361
endloop
endfacet
facet normal 0.9972820028098993 0.07367908028386215 0
outer loop
vertex 7898.5573333333605 11758.880000000041 799.9973333333361
vertex 7898.5573333333605 11758.880000000041 399.99866666666804
vertex 7894.21733333336 11817.62400000004 399.99866666666804
endloop
endfacet
facet normal 0.9972820028098993 0.07367908028386215 0
outer loop
vertex 7898.5573333333605 11758.880000000041 799.9973333333361
vertex 7894.21733333336 11817.62400000004 399.99866666666804
vertex 7894.21733333336 11817.62400000004 799.9973333333361
endloop
endfacet
facet normal 0.9996983413395092 0.024560666176513597 0
outer loop
vertex 7900.004000000027 11699.99600000004 799.9973333333361
vertex 7900.004000000027 11699.99600000004 399.99866666666804
vertex 7898.5573333333605 11758.880000000041 399.99866666666804
endloop
endfacet
facet normal 0.9996983413395092 0.024560666176513597 0
outer loop
vertex 7900.004000000027 11699.99600000004 799.9973333333361
vertex 7898.5573333333605 11758.880000000041 399.99866666666804
vertex 7898.5573333333605 11758.880000000041 799.9973333333361
endloop
endfacet
facet normal 0 -1 0
outer loop
vertex 7099.997333333357 11699.99600000004 799.9973333333361
vertex 7099.997333333357 11699.99600000004 399.99866666666804
vertex 7900.004000000027 11699.99600000004 399.99866666666804
endloop
endfacet
facet normal 0 -1 0
outer loop
vertex 7099.997333333357 11699.99600000004 799.9973333333361
vertex 7900.004000000027 11699.99600000004 399.99866666666804
vertex 7900.004000000027 11699.99600000004 799.9973333333361
endloop
endfacet
facet normal -0.9997060724452662 -0.024243941842449056 0
outer loop
vertex 7099.521333333358 11719.62400000004 799.9973333333361
vertex 7099.521333333358 11719.62400000004 399.99866666666804
vertex 7099.997333333357 11699.99600000004 399.99866666666804
endloop
endfacet
facet normal -0.9997060724452662 -0.024243941842449056 0
outer loop
vertex 7099.521333333358 11719.62400000004 799.9973333333361
vertex 7099.997333333357 11699.99600000004 399.99866666666804
vertex 7099.997333333357 11699.99600000004 799.9973333333361
endloop
endfacet
facet normal -0.9972820028098996 -0.07367908028385989 0
outer loop
vertex 7098.074666666691 11739.205333333373 799.9973333333361
vertex 7098.074666666691 11739.205333333373 399.99866666666804
vertex 7099.521333333358 11719.62400000004 399.99866666666804
endloop
endfacet
facet normal -0.9972820028098996 -0.07367908028385989 0
outer loop
vertex 7098.074666666691 11739.205333333373 799.9973333333361
vertex 7099.521333333358 11719.62400000004 399.99866666666804
vertex 7099.521333333358 11719.62400000004 799.9973333333361
endloop
endfacet
facet normal -0.9924523834145694 -0.12263061059433963 0
outer loop
vertex 7095.666666666691 11758.693333333375 799.9973333333361
vertex 7095.666666666691 11758.693333333375 399.99866666666804
vertex 7098.074666666691 11739.205333333373 399.99866666666804
endloop
endfacet
facet normal -0.9924523834145694 -0.12263061059433963 0
outer loop
vertex 7095.666666666691 11758.693333333375 799.9973333333361
vertex 7098.074666666691 11739.205333333373 399.99866666666804
vertex 7098.074666666691 11739.205333333373 799.9973333333361
endloop
endfacet
facet normal -0.985319754745517 -0.17071901156061758 0
outer loop
vertex 7092.316000000024 11778.032000000041 799.9973333333361
vertex 7092.316000000024 11778.032000000041 399.99866666666804
vertex 7095.666666666691 11758.693333333375 399.99866666666804
endloop
endfacet
facet normal -0.985319754745517 -0.17071901156061758 0
outer loop
vertex 7092.316000000024 11778.032000000041 799.9973333333361
vertex 7095.666666666691 11758.693333333375 399.99866666666804
vertex 7095.666666666691 11758.693333333375 799.9973333333361
endloop
endfacet
facet normal -0.9757038131692063 -0.21909374470091666 0
outer loop
vertex 7088.013333333358 11797.193333333375 799.9973333333361
vertex 7088.013333333358 11797.193333333375 399.99866666666804
vertex 7092.316000000024 11778.032000000041 399.99866666666804
endloop
endfacet
facet normal -0.9757038131692063 -0.21909374470091666 0
outer loop
vertex 7088.013333333358 11797.193333333375 799.9973333333361
vertex 7092.316000000024 11778.032000000041 399.99866666666804
vertex 7092.316000000024 11778.032000000041 799.9973333333361
endloop
endfacet
facet normal -0.9637695202495027 -0.266736408909701 0
outer loop
vertex 7082.777333333358 11816.112000000041 799.9973333333361
vertex 7082.777333333358 11816.112000000041 399.99866666666804
vertex 7088.013333333358 11797.193333333375 399.99866666666804
endloop
endfacet
facet normal -0.9637695202495027 -0.266736408909701 0
outer loop
vertex 7082.777333333358 11816.112000000041 799.9973333333361
vertex 7088.013333333358 11797.193333333375 399.99866666666804
vertex 7088.013333333358 11797.193333333375 799.9973333333361
endloop
endfacet
facet normal -0.9495352641160499 -0.3136602974558041 0
outer loop
vertex 7076.617333333357 11834.76000000004 799.9973333333361
vertex 7076.617333333357 11834.76000000004 399.99866666666804
vertex 7082.777333333358 11816.112000000041 399.99866666666804
endloop
endfacet
facet normal -0.9495352641160499 -0.3136602974558041 0
outer loop
vertex 7076.617333333357 11834.76000000004 799.9973333333361
vertex 7082.777333333358 11816.112000000041 399.99866666666804
vertex 7082.777333333358 11816.112000000041 799.9973333333361
endloop
endfacet
facet normal -0.9329651597810519 -0.35996667989512077 0
outer loop
vertex 7069.552000000024 11853.07200000004 799.9973333333361
vertex 7069.552000000024 11853.07200000004 399.99866666666804
vertex 7076.617333333357 11834.76000000004 399.99866666666804
endloop
endfacet
facet normal -0.9329651597810519 -0.35996667989512077 0
outer loop
vertex 7069.552000000024 11853.07200000004 799.9973333333361
vertex 7076.617333333357 11834.76000000004 399.99866666666804
vertex 7076.617333333357 11834.76000000004 799.9973333333361
endloop
endfacet
facet normal -0.9142814792001547 -0.4050794697236297 0
outer loop
vertex 7061.600000000024 11871.02000000004 799.9973333333361
vertex 7061.600000000024 11871.02000000004 399.99866666666804
vertex 7069.552000000024 11853.07200000004 399.99866666666804
endloop
endfacet
facet normal -0.9142814792001547 -0.4050794697236297 0
outer loop
vertex 7061.600000000024 11871.02000000004 799.9973333333361
vertex 7069.552000000024 11853.07200000004 399.99866666666804
vertex 7069.552000000024 11853.07200000004 799.9973333333361
endloop
endfacet
facet normal -0.8931878582122466 -0.44968372212280444 0
outer loop
vertex 7052.770666666691 11888.557333333374 799.9973333333361
vertex 7052.770666666691 11888.557333333374 399.99866666666804
vertex 7061.600000000024 11871.02000000004 399.99866666666804
endloop
endfacet
facet normal -0.8931878582122466 -0.44968372212280444 0
outer loop
vertex 7052.770666666691 11888.557333333374 799.9973333333361
vertex 7061.600000000024 11871.02000000004 399.99866666666804
vertex 7061.600000000024 11871.02000000004 799.9973333333361
endloop
endfacet
facet normal -0.8700221858486111 -0.49301257198088266 0
outer loop
vertex 7043.092000000024 11905.637333333374 799.9973333333361
vertex 7043.092000000024 11905.637333333374 399.99866666666804
vertex 7052.770666666691 11888.557333333374 399.99866666666804
endloop
endfacet
facet normal -0.8700221858486111 -0.49301257198088266 0
outer loop
vertex 7043.092000000024 11905.637333333374 799.9973333333361
vertex 7052.770666666691 11888.557333333374 399.99866666666804
vertex 7052.770666666691 11888.557333333374 799.9973333333361
endloop
endfacet
facet normal -0.8450481577429456 -0.5346902010466003 0
outer loop
vertex 7032.592000000024 11922.23200000004 799.9973333333361
vertex 7032.592000000024 11922.23200000004 399.99866666666804
vertex 7043.092000000024 11905.637333333374 399.99866666666804
endloop
endfacet
facet normal -0.8450481577429456 -0.5346902010466003 0
outer loop
vertex 7032.592000000024 11922.23200000004 799.9973333333361
vertex 7043.092000000024 11905.637333333374 399.99866666666804
vertex 7043.092000000024 11905.637333333374 799.9973333333361
endloop
endfacet
facet normal -0.8172839694353979 -0.5762351198112793 0
outer loop
vertex 7021.280000000024 11938.276000000042 799.9973333333361
vertex 7021.280000000024 11938.276000000042 399.99866666666804
vertex 7032.592000000024 11922.23200000004 399.99866666666804
endloop
endfacet
facet normal -0.8172839694353979 -0.5762351198112793 0
outer loop
vertex 7021.280000000024 11938.276000000042 799.9973333333361
vertex 7032.592000000024 11922.23200000004 399.99866666666804
vertex 7032.592000000024 11922.23200000004 799.9973333333361
endloop
endfacet
facet normal -0.7885069158759713 -0.6150258885736145 0
outer loop
vertex 7009.202666666691 11953.76000000004 799.9973333333361
vertex 7009.202666666691 11953.76000000004 399.99866666666804
vertex 7021.280000000024 11938.276000000042 399.99866666666804
endloop
endfacet
facet normal -0.7885069158759713 -0.6150258885736145 0
outer loop
vertex 7009.202666666691 11953.76000000004 799.9973333333361
vertex 7021.280000000024 11938.276000000042 399.99866666666804
vertex 7021.280000000024 11938.276000000042 799.9973333333361
endloop
endfacet
facet normal -0.7572397031796553 -0.6531370697858052 0
outer loop
vertex 6996.378666666691 11968.62800000004 799.9973333333361
vertex 6996.378666666691 11968.62800000004 399.99866666666804
vertex 7009.202666666691 11953.76000000004 399.99866666666804
endloop
endfacet
facet normal -0.7572397031796553 -0.6531370697858052 0
outer loop
vertex 6996.378666666691 11968.62800000004 799.9973333333361
vertex 7009.202666666691 11953.76000000004 399.99866666666804
vertex 7009.202666666691 11953.76000000004 799.9973333333361
endloop
endfacet
facet normal -0.7242510110389059 -0.689536418914275 0
outer loop
vertex 6982.845333333357 11982.842666666707 799.9973333333361
vertex 6982.845333333357 11982.842666666707 399.99866666666804
vertex 6996.378666666691 11968.62800000004 399.99866666666804
endloop
endfacet
facet normal -0.7242510110389059 -0.689536418914275 0
outer loop
vertex 6982.845333333357 11982.842666666707 799.9973333333361
vertex 6996.378666666691 11968.62800000004 399.99866666666804
vertex 6996.378666666691 11968.62800000004 799.9973333333361
endloop
endfacet
facet normal -0.6892989790069539 -0.7244769958666534 0
outer loop
vertex 6968.621333333357 11996.37600000004 799.9973333333361
vertex 6968.621333333357 11996.37600000004 399.99866666666804
vertex 6982.845333333357 11982.842666666707 399.99866666666804
endloop
endfacet
facet normal -0.6892989790069539 -0.7244769958666534 0
outer loop
vertex 6968.621333333357 11996.37600000004 799.9973333333361
vertex 6982.845333333357 11982.842666666707 399.99866666666804
vertex 6982.845333333357 11982.842666666707 799.9973333333361
endloop
endfacet
facet normal -0.6531370697858317 -0.7572397031796324 0
outer loop
vertex 6953.753333333357 12009.20000000004 799.9973333333361
vertex 6953.753333333357 12009.20000000004 399.99866666666804
vertex 6968.621333333357 11996.37600000004 399.99866666666804
endloop
endfacet
facet normal -0.6531370697858317 -0.7572397031796324 0
outer loop
vertex 6953.753333333357 12009.20000000004 799.9973333333361
vertex 6968.621333333357 11996.37600000004 399.99866666666804
vertex 6968.621333333357 11996.37600000004 799.9973333333361
endloop
endfacet
facet normal -0.6155517967218204 -0.7880964316329181 0
outer loop
vertex 6938.278666666691 12021.286666666709 799.9973333333361
vertex 6938.278666666691 12021.286666666709 399.99866666666804
vertex 6953.753333333357 12009.20000000004 399.99866666666804
endloop
endfacet
facet normal -0.6155517967218204 -0.7880964316329181 0
outer loop
vertex 6938.278666666691 12021.286666666709 799.9973333333361
vertex 6953.753333333357 12009.20000000004 399.99866666666804
vertex 6953.753333333357 12009.20000000004 799.9973333333361
endloop
endfacet
facet normal -0.5756935748063169 -0.8176655232591893 0
outer loop
vertex 6922.225333333357 12032.589333333375 799.9973333333361
vertex 6922.225333333357 12032.589333333375 399.99866666666804
vertex 6938.278666666691 12021.286666666709 399.99866666666804
endloop
endfacet
facet normal -0.5756935748063169 -0.8176655232591893 0
outer loop
vertex 6922.225333333357 12032.589333333375 799.9973333333361
vertex 6938.278666666691 12021.286666666709 399.99866666666804
vertex 6938.278666666691 12021.286666666709 799.9973333333361
endloop
endfacet
facet normal -0.5349050201522249 -0.8449121962760084 0
outer loop
vertex 6905.640000000024 12043.089333333375 799.9973333333361
vertex 6905.640000000024 12043.089333333375 399.99866666666804
vertex 6922.225333333357 12032.589333333375 399.99866666666804
endloop
endfacet
facet normal -0.5349050201522249 -0.8449121962760084 0
outer loop
vertex 6905.640000000024 12043.089333333375 799.9973333333361
vertex 6922.225333333357 12032.589333333375 399.99866666666804
vertex 6922.225333333357 12032.589333333375 799.9973333333361
endloop
endfacet
facet normal -0.49301257198088266 -0.8700221858486111 0
outer loop
vertex 6888.560000000024 12052.768000000042 799.9973333333361
vertex 6888.560000000024 12052.768000000042 399.99866666666804
vertex 6905.640000000024 12043.089333333375 399.99866666666804
endloop
endfacet
facet normal -0.49301257198088266 -0.8700221858486111 0
outer loop
vertex 6888.560000000024 12052.768000000042 799.9973333333361
vertex 6905.640000000024 12043.089333333375 399.99866666666804
vertex 6905.640000000024 12043.089333333375 799.9973333333361
endloop
endfacet
facet normal -0.44968372212280444 -0.8931878582122466 0
outer loop
vertex 6871.02266666669 12061.597333333375 799.9973333333361
vertex 6871.02266666669 12061.597333333375 399.99866666666804
vertex 6888.560000000024 12052.768000000042 399.99866666666804
endloop
endfacet
facet normal -0.44968372212280444 -0.8931878582122466 0
outer loop
vertex 6871.02266666669 12061.597333333375 799.9973333333361
vertex 6888.560000000024 12052.768000000042 399.99866666666804
vertex 6888.560000000024 12052.768000000042 799.9973333333361
endloop
endfacet
facet normal -0.40507946972359105 -0.914281479200172 0
outer loop
vertex 6853.07466666669 12069.549333333374 799.9973333333361
vertex 6853.07466666669 12069.549333333374 399.99866666666804
vertex 6871.02266666669 12061.597333333375 399.99866666666804
endloop
endfacet
facet normal -0.40507946972359105 -0.914281479200172 0
outer loop
vertex 6853.07466666669 12069.549333333374 799.9973333333361
vertex 6871.02266666669 12061.597333333375 399.99866666666804
vertex 6871.02266666669 12061.597333333375 799.9973333333361
endloop
endfacet
facet normal -0.3598070494035403 -0.9330267344505829 0
outer loop
vertex 6834.753333333357 12076.614666666708 799.9973333333361
vertex 6834.753333333357 12076.614666666708 399.99866666666804
vertex 6853.07466666669 12069.549333333374 399.99866666666804
endloop
endfacet
facet normal -0.3598070494035403 -0.9330267344505829 0
outer loop
vertex 6834.753333333357 12076.614666666708 799.9973333333361
vertex 6853.07466666669 12069.549333333374 399.99866666666804
vertex 6853.07466666669 12069.549333333374 799.9973333333361
endloop
endfacet
facet normal -0.3138019001720773 -0.9494884767328109 0
outer loop
vertex 6816.11466666669 12082.774666666708 799.9973333333361
vertex 6816.11466666669 12082.774666666708 399.99866666666804
vertex 6834.753333333357 12076.614666666708 399.99866666666804
endloop
endfacet
facet normal -0.3138019001720773 -0.9494884767328109 0
outer loop
vertex 6816.11466666669 12082.774666666708 799.9973333333361
vertex 6834.753333333357 12076.614666666708 399.99866666666804
vertex 6834.753333333357 12076.614666666708 799.9973333333361
endloop
endfacet
facet normal -0.26673640890974404 -0.9637695202494908 0
outer loop
vertex 6797.196000000024 12088.010666666709 799.9973333333361
vertex 6797.196000000024 12088.010666666709 399.99866666666804
vertex 6816.11466666669 12082.774666666708 399.99866666666804
endloop
endfacet
facet normal -0.26673640890974404 -0.9637695202494908 0
outer loop
vertex 6797.196000000024 12088.010666666709 799.9973333333361
vertex 6816.11466666669 12082.774666666708 399.99866666666804
vertex 6816.11466666669 12082.774666666708 799.9973333333361
endloop
endfacet
facet normal -0.21909374470091666 -0.9757038131692063 0
outer loop
vertex 6778.03466666669 12092.313333333375 799.9973333333361
vertex 6778.03466666669 12092.313333333375 399.99866666666804
vertex 6797.196000000024 12088.010666666709 399.99866666666804
endloop
endfacet
facet normal -0.21909374470091666 -0.9757038131692063 0
outer loop
vertex 6778.03466666669 12092.313333333375 799.9973333333361
vertex 6797.196000000024 12088.010666666709 399.99866666666804
vertex 6797.196000000024 12088.010666666709 799.9973333333361
endloop
endfacet
facet normal -0.17118063610014886 -0.9852396611101019 0
outer loop
vertex 6758.696000000024 12095.673333333374 799.9973333333361
vertex 6758.696000000024 12095.673333333374 399.99866666666804
vertex 6778.03466666669 12092.313333333375 399.99866666666804
endloop
endfacet
facet normal -0.17118063610014886 -0.9852396611101019 0
outer loop
vertex 6758.696000000024 12095.673333333374 799.9973333333361
vertex 6778.03466666669 12092.313333333375 399.99866666666804
vertex 6778.03466666669 12092.313333333375 799.9973333333361
endloop
endfacet
facet normal -0.12216240514195845 -0.9925101242657084 0
outer loop
vertex 6739.208000000023 12098.072000000042 799.9973333333361
vertex 6739.208000000023 12098.072000000042 399.99866666666804
vertex 6758.696000000024 12095.673333333374 399.99866666666804
endloop
endfacet
facet normal -0.12216240514195845 -0.9925101242657084 0
outer loop
vertex 6739.208000000023 12098.072000000042 799.9973333333361
vertex 6758.696000000024 12095.673333333374 399.99866666666804
vertex 6758.696000000024 12095.673333333374 799.9973333333361
endloop
endfacet
facet normal -0.07367908028385989 -0.9972820028098996 0
outer loop
vertex 6719.62666666669 12099.518666666709 799.9973333333361
vertex 6719.62666666669 12099.518666666709 399.99866666666804
vertex 6739.208000000023 12098.072000000042 399.99866666666804
endloop
endfacet
facet normal -0.07367908028385989 -0.9972820028098996 0
outer loop
vertex 6719.62666666669 12099.518666666709 799.9973333333361
vertex 6739.208000000023 12098.072000000042 399.99866666666804
vertex 6739.208000000023 12098.072000000042 799.9973333333361
endloop
endfacet
facet normal -0.024719025576056156 -0.9996944382032793 0
outer loop
vertex 6699.99866666669 12100.00400000004 799.9973333333361
vertex 6699.99866666669 12100.00400000004 399.99866666666804
vertex 6719.62666666669 12099.518666666709 399.99866666666804
endloop
endfacet
facet normal -0.024719025576056156 -0.9996944382032793 0
outer loop
vertex 6699.99866666669 12100.00400000004 799.9973333333361
vertex 6719.62666666669 12099.518666666709 399.99866666666804
vertex 6719.62666666669 12099.518666666709 799.9973333333361
endloop
endfacet
facet normal 0 0 1
outer loop
vertex 7318.042666666692 12562.545333333377 799.9973333333361
vertex 6699.99866666669 12100.00400000004 799.9973333333361
vertex 6719.62666666669 12099.518666666709 799.9973333333361
endloop
endfacet
facet normal 0 0 1
outer loop
vertex 7318.042666666692 12562.545333333377 799.9973333333361
vertex 6719.62666666669 12099.518666666709 799.9973333333361
vertex 7831.422666666694 12099.518666666709 799.9973333333361
endloop
endfacet
facet normal 0 0 1
outer loop
vertex 7318.042666666692 12562.545333333377 799.9973333333361
vertex 7831.422666666694 12099.518666666709 799.9973333333361
vertex 7829.854666666693 12104.269333333375 799.9973333333361
endloop
endfacet
facet normal 0 0 1
outer loop
vertex 7318.042666666692 12562.545333333377 799.9973333333361
vertex 7829.854666666693 12104.269333333375 799.9973333333361
vertex 7808.6586666666935 12159.224000000042 799.9973333333361
endloop
endfacet
facet normal 0 0 1
outer loop
vertex 7318.042666666692 12562.545333333377 799.9973333333361
vertex 7808.6586666666935 12159.224000000042 799.9973333333361
vertex 7784.784000000027 12213.068000000041 799.9973333333361
endloop
endfacet
facet normal 0 0 1
outer loop
vertex 7318.042666666692 12562.545333333377 799.9973333333361
vertex 7784.784000000027 12213.068000000041 799.9973333333361
vertex 7758.30533333336 12265.680000000042 799.9973333333361
endloop
endfacet
facet normal 0 0 1
outer loop
vertex 7318.042666666692 12562.545333333377 799.9973333333361
vertex 7758.30533333336 12265.680000000042 799.9973333333361
vertex 7729.278666666693 12316.920000000042 799.9973333333361
endloop
endfacet
facet normal 0 0 0.9999999999999999
outer loop
vertex 7318.042666666692 12562.545333333377 799.9973333333361
vertex 7729.278666666693 12316.920000000042 799.9973333333361
vertex 7697.760000000027 12366.685333333377 799.9973333333361
endloop
endfacet
facet normal 0 0 1
outer loop
vertex 7318.042666666692 12562.545333333377 799.9973333333361
vertex 7697.760000000027 12366.685333333377 799.9973333333361
vertex 7663.852000000026 12414.836000000043 799.9973333333361
endloop
endfacet
facet normal 0 0 1
outer loop
vertex 7318.042666666692 12562.545333333377 799.9973333333361
vertex 7663.852000000026 12414.836000000043 799.9973333333361
vertex 7627.610666666693 12461.269333333375 799.9973333333361
endloop
endfacet
facet normal 0 0 0.9999999999999999
outer loop
vertex 7318.042666666692 12562.545333333377 799.9973333333361
vertex 7627.610666666693 12461.269333333375 799.9973333333361
vertex 7589.138666666693 12505.873333333377 799.9973333333361
endloop
endfacet
facet normal 0 0 1
outer loop
vertex 7318.042666666692 12562.545333333377 799.9973333333361
vertex 7589.138666666693 12505.873333333377 799.9973333333361
vertex 7548.529333333359 12548.52666666671 799.9973333333361
endloop
endfacet
facet normal 0 0 1
outer loop
vertex 7318.042666666692 12562.545333333377 799.9973333333361
vertex 7548.529333333359 12548.52666666671 799.9973333333361
vertex 7505.866666666692 12589.145333333376 799.9973333333361
endloop
endfacet
facet normal 0 0 1
outer loop
vertex 7318.042666666692 12562.545333333377 799.9973333333361
vertex 7505.866666666692 12589.145333333376 799.9973333333361
vertex 7461.272000000025 12627.608000000044 799.9973333333361
endloop
endfacet
facet normal 0 0 1
outer loop
vertex 7318.042666666692 12562.545333333377 799.9973333333361
vertex 7461.272000000025 12627.608000000044 799.9973333333361
vertex 7414.838666666692 12663.849333333377 799.9973333333361
endloop
endfacet
facet normal 0 0 1
outer loop
vertex 7318.042666666692 12562.545333333377 799.9973333333361
vertex 7414.838666666692 12663.849333333377 799.9973333333361
vertex 7366.688000000026 12697.76666666671 799.9973333333361
endloop
endfacet
facet normal 0 0 1
outer loop
vertex 7318.042666666692 12562.545333333377 799.9973333333361
vertex 7366.688000000026 12697.76666666671 799.9973333333361
vertex 7316.922666666692 12729.276000000043 799.9973333333361
endloop
endfacet
facet normal 0 0 1
outer loop
vertex 7318.042666666692 12562.545333333377 799.9973333333361
vertex 7316.922666666692 12729.276000000043 799.9973333333361
vertex 7265.673333333359 12758.30266666671 799.9973333333361
endloop
endfacet
facet normal 0 0 1
outer loop
vertex 7318.042666666692 12562.545333333377 799.9973333333361
vertex 7265.673333333359 12758.30266666671 799.9973333333361
vertex 7213.070666666691 12784.790666666711 799.9973333333361
endloop
endfacet
facet normal 0 0 1
outer loop
vertex 7318.042666666692 12562.545333333377 799.9973333333361
vertex 7213.070666666691 12784.790666666711 799.9973333333361
vertex 7159.217333333358 12808.656000000045 799.9973333333361
endloop
endfacet
facet normal 0 0 1
outer loop
vertex 7318.042666666692 12562.545333333377 799.9973333333361
vertex 7159.217333333358 12808.656000000045 799.9973333333361
vertex 7104.2720000000245 12829.852000000044 799.9973333333361
endloop
endfacet
facet normal 0 0 1
outer loop
vertex 7318.042666666692 12562.545333333377 799.9973333333361
vertex 7104.2720000000245 12829.852000000044 799.9973333333361
vertex 7048.3373333333575 12848.332000000044 799.9973333333361
endloop
endfacet
facet normal 0 0 1
outer loop
vertex 7318.042666666692 12562.545333333377 799.9973333333361
vertex 7048.3373333333575 12848.332000000044 799.9973333333361
vertex 6991.572000000024 12864.040000000045 799.9973333333361
endloop
endfacet
facet normal 0 0 1
outer loop
vertex 7318.042666666692 12562.545333333377 799.9973333333361
vertex 6991.572000000024 12864.040000000045 799.9973333333361
vertex 6934.10666666669 12876.93866666671 799.9973333333361
endloop
endfacet
facet normal 0 0 1
outer loop
vertex 7318.042666666692 12562.545333333377 799.9973333333361
vertex 6934.10666666669 12876.93866666671 799.9973333333361
vertex 6876.072000000024 12887.009333333377 799.9973333333361
endloop
endfacet
facet normal 0 0 1
outer loop
vertex 7318.042666666692 12562.545333333377 799.9973333333361
vertex 6876.072000000024 12887.009333333377 799.9973333333361
vertex 6817.617333333356 12894.224000000044 799.9973333333361
endloop
endfacet
facet normal 0 0 1
outer loop
vertex 7318.042666666692 12562.545333333377 799.9973333333361
vertex 6817.617333333356 12894.224000000044 799.9973333333361
vertex 6758.88266666669 12898.55466666671 799.9973333333361
endloop
endfacet
facet normal 0 0 0.9999999999999999
outer loop
vertex 7318.042666666692 12562.545333333377 799.9973333333361
vertex 6758.88266666669 12898.55466666671 799.9973333333361
vertex 6699.99866666669 12900.001333333377 799.9973333333361
endloop
endfacet
facet normal 0 0 1
outer loop
vertex 7318.042666666692 12562.545333333377 799.9973333333361
vertex 6699.99866666669 12900.001333333377 799.9973333333361
vertex 6699.99866666669 12100.00400000004 799.9973333333361
endloop
endfacet
facet normal 0 0 1
outer loop
vertex 6719.62666666669 12099.518666666709 799.9973333333361
vertex 6739.208000000023 12098.072000000042 799.9973333333361
vertex 7831.898666666693 12098.072000000042 799.9973333333361
endloop
endfacet
facet normal 0 0 1
outer loop
vertex 6719.62666666669 12099.518666666709 799.9973333333361
vertex 7831.898666666693 12098.072000000042 799.9973333333361
vertex 7831.422666666694 12099.518666666709 799.9973333333361
endloop
endfacet
facet normal 0 0 1
outer loop
vertex 6739.208000000023 12098.072000000042 799.9973333333361
vertex 6758.696000000024 12095.673333333374 799.9973333333361
vertex 7832.692000000027 12095.673333333374 799.9973333333361
endloop
endfacet
facet normal 0 0 1
outer loop
vertex 6739.208000000023 12098.072000000042 799.9973333333361
vertex 7832.692000000027 12095.673333333374 799.9973333333361
vertex 7831.898666666693 12098.072000000042 799.9973333333361
endloop
endfacet
facet normal 0 0 0.9999999999999999
outer loop
vertex 6758.696000000024 12095.673333333374 799.9973333333361
vertex 6778.03466666669 12092.313333333375 799.9973333333361
vertex 7833.802666666694 12092.313333333375 799.9973333333361
endloop
endfacet
facet normal 0 0 0.9999999999999999
outer loop
vertex 6758.696000000024 12095.673333333374 799.9973333333361
vertex 7833.802666666694 12092.313333333375 799.9973333333361
vertex 7832.692000000027 12095.673333333374 799.9973333333361
endloop
endfacet
facet normal 0 0 1
outer loop
vertex 6778.03466666669 12092.313333333375 799.9973333333361
vertex 6797.196000000024 12088.010666666709 799.9973333333361
vertex 7835.22133333336 12088.010666666709 799.9973333333361
endloop
endfacet
facet normal 0 0 1
outer loop
vertex 6778.03466666669 12092.313333333375 799.9973333333361
vertex 7835.22133333336 12088.010666666709 799.9973333333361
vertex 7833.802666666694 12092.313333333375 799.9973333333361
endloop
endfacet
facet normal 0 0 1
outer loop
vertex 6797.196000000024 12088.010666666709 799.9973333333361
vertex 6816.11466666669 12082.774666666708 799.9973333333361
vertex 7836.95733333336 12082.774666666708 799.9973333333361
endloop
endfacet
facet normal 0 0 1
outer loop
vertex 6797.196000000024 12088.010666666709 799.9973333333361
vertex 7836.95733333336 12082.774666666708 799.9973333333361
vertex 7835.22133333336 12088.010666666709 799.9973333333361
endloop
endfacet
facet normal 0 0 1
outer loop
vertex 6816.11466666669 12082.774666666708 799.9973333333361
vertex 6834.753333333357 12076.614666666708 799.9973333333361
vertex 7838.982666666693 12076.614666666708 799.9973333333361
endloop
endfacet
facet normal 0 0 1
outer loop
vertex 6816.11466666669 12082.774666666708 799.9973333333361
vertex 7838.982666666693 12076.614666666708 799.9973333333361
vertex 7836.95733333336 12082.774666666708 799.9973333333361
endloop
endfacet
facet normal 0 0 0.9999999999999999
outer loop
vertex 6834.753333333357 12076.614666666708 799.9973333333361
vertex 6853.07466666669 12069.549333333374 799.9973333333361
vertex 7841.3253333333605 12069.549333333374 799.9973333333361
endloop
endfacet
facet normal 0 0 1
outer loop
vertex 6834.753333333357 12076.614666666708 799.9973333333361
vertex 7841.3253333333605 12069.549333333374 799.9973333333361
vertex 7838.982666666693 12076.614666666708 799.9973333333361
endloop
endfacet
facet normal 0 0 1
outer loop
vertex 6853.07466666669 12069.549333333374 799.9973333333361
vertex 6871.02266666669 12061.597333333375 799.9973333333361
vertex 7843.948000000027 12061.597333333375 799.9973333333361
endloop
endfacet
facet normal 0 0 0.9999999999999999
outer loop
vertex 6853.07466666669 12069.549333333374 799.9973333333361
vertex 7843.948000000027 12061.597333333375 799.9973333333361
vertex 7841.3253333333605 12069.549333333374 799.9973333333361
endloop
endfacet
facet normal 0 0 1
outer loop
vertex 6871.02266666669 12061.597333333375 799.9973333333361
vertex 6888.560000000024 12052.768000000042 799.9973333333361
vertex 7846.86933333336 12052.768000000042 799.9973333333361
endloop
endfacet
facet normal 0 0 1
outer loop
vertex 6871.02266666669 12061.597333333375 799.9973333333361
vertex 7846.86933333336 12052.768000000042 799.9973333333361
vertex 7843.948000000027 12061.597333333375 799.9973333333361
endloop
endfacet
facet normal 0 0 1
outer loop
vertex 7467.8333333333585 12048.008000000042 799.9973333333361
vertex 6888.560000000024 12052.768000000042 799.9973333333361
vertex 6905.640000000024 12043.089333333375 799.9973333333361
endloop
endfacet
facet normal 0 0 1
outer loop
vertex 7467.8333333333585 12048.008000000042 799.9973333333361
vertex 6905.640000000024 12043.089333333375 799.9973333333361
vertex 7849.781333333361 12043.089333333375 799.9973333333361
endloop
endfacet
facet normal 0 0 1
outer loop
vertex 7467.8333333333585 12048.008000000042 799.9973333333361
vertex 7849.781333333361 12043.089333333375 799.9973333333361
vertex 7848.3253333333605 12048.344000000041 799.9973333333361
endloop
endfacet
facet normal 0 0 0.9999999999999999
outer loop
vertex 7467.8333333333585 12048.008000000042 799.9973333333361
vertex 7848.3253333333605 12048.344000000041 799.9973333333361
vertex 7846.86933333336 12052.768000000042 799.9973333333361
endloop
endfacet
facet normal 0 0 0.9999999999999999
outer loop
vertex 7467.8333333333585 12048.008000000042 799.9973333333361
vertex 7846.86933333336 12052.768000000042 799.9973333333361
vertex 6888.560000000024 12052.768000000042 799.9973333333361
endloop
endfacet
facet normal 0 0 1
outer loop
vertex 6905.640000000024 12043.089333333375 799.9973333333361
vertex 6922.225333333357 12032.589333333375 799.9973333333361
vertex 7852.684000000027 12032.589333333375 799.9973333333361
endloop
endfacet
facet normal 0 0 1
outer loop
vertex 6905.640000000024 12043.089333333375 799.9973333333361
vertex 7852.684000000027 12032.589333333375 799.9973333333361
vertex 7849.781333333361 12043.089333333375 799.9973333333361
endloop
endfacet
facet normal 0 0 1
outer loop
vertex 6922.225333333357 12032.589333333375 799.9973333333361
vertex 6938.278666666691 12021.286666666709 799.9973333333361
vertex 7855.820000000027 12021.286666666709 799.9973333333361
endloop
endfacet
facet normal 0 0 1
outer loop
vertex 6922.225333333357 12032.589333333375 799.9973333333361
vertex 7855.820000000027 12021.286666666709 799.9973333333361
vertex 7852.684000000027 12032.589333333375 799.9973333333361
endloop
endfacet
facet normal 0 0 1
outer loop
vertex 6938.278666666691 12021.286666666709 799.9973333333361
vertex 6953.753333333357 12009.20000000004 799.9973333333361
vertex 7859.16133333336 12009.20000000004 799.9973333333361
endloop
endfacet
facet normal 0 0 1
outer loop
vertex 6938.278666666691 12021.286666666709 799.9973333333361
vertex 7859.16133333336 12009.20000000004 799.9973333333361
vertex 7855.820000000027 12021.286666666709 799.9973333333361
endloop
endfacet
facet normal 0 0 1
outer loop
vertex 6953.753333333357 12009.20000000004 799.9973333333361
vertex 6968.621333333357 11996.37600000004 799.9973333333361
vertex 7862.708000000027 11996.37600000004 799.9973333333361
endloop
endfacet
facet normal 0 0 0.9999999999999999
outer loop
vertex 6953.753333333357 12009.20000000004 799.9973333333361
vertex 7862.708000000027 11996.37600000004 799.9973333333361
vertex 7859.16133333336 12009.20000000004 799.9973333333361
endloop
endfacet
facet normal 0 0 1
outer loop
vertex 7508.8440000000255 11990.001333333374 799.9973333333361
vertex 6968.621333333357 11996.37600000004 799.9973333333361
vertex 6982.845333333357 11982.842666666707 799.9973333333361
endloop
endfacet
facet normal 0 0 1
outer loop
vertex 7508.8440000000255 11990.001333333374 799.9973333333361
vertex 6982.845333333357 11982.842666666707 799.9973333333361
vertex 7866.002666666694 11982.842666666707 799.9973333333361
endloop
endfacet
facet normal 0 0 1
outer loop
vertex 7508.8440000000255 11990.001333333374 799.9973333333361
vertex 7866.002666666694 11982.842666666707 799.9973333333361
vertex 7864.03333333336 11991.578666666708 799.9973333333361
endloop
endfacet
facet normal 0 0 1
outer loop
vertex 7508.8440000000255 11990.001333333374 799.9973333333361
vertex 7864.03333333336 11991.578666666708 799.9973333333361
vertex 7862.708000000027 11996.37600000004 799.9973333333361
endloop
endfacet
facet normal 0 0 0.9999999999999999
outer loop
vertex 7508.8440000000255 11990.001333333374 799.9973333333361
vertex 7862.708000000027 11996.37600000004 799.9973333333361
vertex 6968.621333333357 11996.37600000004 799.9973333333361
endloop
endfacet
facet normal 0 0 1
outer loop
vertex 6982.845333333357 11982.842666666707 799.9973333333361
vertex 6996.378666666691 11968.62800000004 799.9973333333361
vertex 7869.194666666694 11968.62800000004 799.9973333333361
endloop
endfacet
facet normal 0 0 1
outer loop
vertex 6982.845333333357 11982.842666666707 799.9973333333361
vertex 7869.194666666694 11968.62800000004 799.9973333333361
vertex 7866.002666666694 11982.842666666707 799.9973333333361
endloop
endfacet
facet normal 0 0 0.9999999999999999
outer loop
vertex 6996.378666666691 11968.62800000004 799.9973333333361
vertex 7009.202666666691 11953.76000000004 799.9973333333361
vertex 7872.526666666694 11953.76000000004 799.9973333333361
endloop
endfacet
facet normal 0 0 1
outer loop
vertex 6996.378666666691 11968.62800000004 799.9973333333361
vertex 7872.526666666694 11953.76000000004 799.9973333333361
vertex 7869.194666666694 11968.62800000004 799.9973333333361
endloop
endfacet
facet normal 0 0 1
outer loop
vertex 7009.202666666691 11953.76000000004 799.9973333333361
vertex 7021.280000000024 11938.276000000042 799.9973333333361
vertex 7876.008000000027 11938.276000000042 799.9973333333361
endloop
endfacet
facet normal 0 0 1
outer loop
vertex 7009.202666666691 11953.76000000004 799.9973333333361
vertex 7876.008000000027 11938.276000000042 799.9973333333361
vertex 7872.526666666694 11953.76000000004 799.9973333333361
endloop
endfacet
facet normal 0 0 1
outer loop
vertex 7537.161333333359 11931.024000000041 799.9973333333361
vertex 7021.280000000024 11938.276000000042 799.9973333333361
vertex 7032.592000000024 11922.23200000004 799.9973333333361
endloop
endfacet
facet normal 0 0 1
outer loop
vertex 7537.161333333359 11931.024000000041 799.9973333333361
vertex 7032.592000000024 11922.23200000004 799.9973333333361
vertex 7879.004000000027 11922.23200000004 799.9973333333361
endloop
endfacet
facet normal 0 0 1
outer loop
vertex 7537.161333333359 11931.024000000041 799.9973333333361
vertex 7879.004000000027 11922.23200000004 799.9973333333361
vertex 7876.9413333333605 11934.104000000041 799.9973333333361
endloop
endfacet
facet normal 0 0 1
outer loop
vertex 7537.161333333359 11931.024000000041 799.9973333333361
vertex 7876.9413333333605 11934.104000000041 799.9973333333361
vertex 7876.008000000027 11938.276000000042 799.9973333333361
endloop
endfacet
facet normal 0 0 1
outer loop
vertex 7537.161333333359 11931.024000000041 799.9973333333361
vertex 7876.008000000027 11938.276000000042 799.9973333333361
vertex 7021.280000000024 11938.276000000042 799.9973333333361
endloop
endfacet
facet normal 0 0 1
outer loop
vertex 7032.592000000024 11922.23200000004 799.9973333333361
vertex 7043.092000000024 11905.637333333374 799.9973333333361
vertex 7881.878666666694 11905.637333333374 799.9973333333361
endloop
endfacet
facet normal 0 0 1
outer loop
vertex 7032.592000000024 11922.23200000004 799.9973333333361
vertex 7881.878666666694 11905.637333333374 799.9973333333361
vertex 7879.004000000027 11922.23200000004 799.9973333333361
endloop
endfacet
facet normal 0 0 0.9999999999999999
outer loop
vertex 7043.092000000024 11905.637333333374 799.9973333333361
vertex 7052.770666666691 11888.557333333374 799.9973333333361
vertex 7884.846666666694 11888.557333333374 799.9973333333361
endloop
endfacet
facet normal 0 0 1
outer loop
vertex 7043.092000000024 11905.637333333374 799.9973333333361
vertex 7884.846666666694 11888.557333333374 799.9973333333361
vertex 7881.878666666694 11905.637333333374 799.9973333333361
endloop
endfacet
facet normal 0 0 1
outer loop
vertex 7554.773333333359 11879.046666666707 799.9973333333361
vertex 7052.770666666691 11888.557333333374 799.9973333333361
vertex 7061.600000000024 11871.02000000004 799.9973333333361
endloop
endfacet
facet normal 0 0 0.9999999999999999
outer loop
vertex 7554.773333333359 11879.046666666707 799.9973333333361
vertex 7061.600000000024 11871.02000000004 799.9973333333361
vertex 7887.63733333336 11871.02000000004 799.9973333333361
endloop
endfacet
facet normal 0 0 1
outer loop
vertex 7554.773333333359 11879.046666666707 799.9973333333361
vertex 7887.63733333336 11871.02000000004 799.9973333333361
vertex 7887.012000000027 11876.078666666708 799.9973333333361
endloop
endfacet
facet normal 0 0 1
outer loop
vertex 7554.773333333359 11879.046666666707 799.9973333333361
vertex 7887.012000000027 11876.078666666708 799.9973333333361
vertex 7884.846666666694 11888.557333333374 799.9973333333361
endloop
endfacet
facet normal 0 0 0.9999999999999999
outer loop
vertex 7554.773333333359 11879.046666666707 799.9973333333361
vertex 7884.846666666694 11888.557333333374 799.9973333333361
vertex 7052.770666666691 11888.557333333374 799.9973333333361
endloop
endfacet
facet normal 0 0 1
outer loop
vertex 7061.600000000024 11871.02000000004 799.9973333333361
vertex 7069.552000000024 11853.07200000004 799.9973333333361
vertex 7889.84933333336 11853.07200000004 799.9973333333361
endloop
endfacet
facet normal 0 0 1
outer loop
vertex 7061.600000000024 11871.02000000004 799.9973333333361
vertex 7889.84933333336 11853.07200000004 799.9973333333361
vertex 7887.63733333336 11871.02000000004 799.9973333333361
endloop
endfacet
facet normal 0 0 1
outer loop
vertex 7069.552000000024 11853.07200000004 799.9973333333361
vertex 7076.617333333357 11834.76000000004 799.9973333333361
vertex 7892.1080000000275 11834.76000000004 799.9973333333361
endloop
endfacet
facet normal 0 0 1
outer loop
vertex 7069.552000000024 11853.07200000004 799.9973333333361
vertex 7892.1080000000275 11834.76000000004 799.9973333333361
vertex 7889.84933333336 11853.07200000004 799.9973333333361
endloop
endfacet
facet normal 0 0 1
outer loop
vertex 7568.008000000026 11823.877333333374 799.9973333333361
vertex 7076.617333333357 11834.76000000004 799.9973333333361
vertex 7082.777333333358 11816.112000000041 799.9973333333361
endloop
endfacet
facet normal 0 0 1
outer loop
vertex 7568.008000000026 11823.877333333374 799.9973333333361
vertex 7082.777333333358 11816.112000000041 799.9973333333361
vertex 7894.32933333336 11816.112000000041 799.9973333333361
endloop
endfacet
facet normal 0 0 0.9999999999999999
outer loop
vertex 7568.008000000026 11823.877333333374 799.9973333333361
vertex 7894.32933333336 11816.112000000041 799.9973333333361
vertex 7894.21733333336 11817.62400000004 799.9973333333361
endloop
endfacet
facet normal 0 0 1
outer loop
vertex 7568.008000000026 11823.877333333374 799.9973333333361
vertex 7894.21733333336 11817.62400000004 799.9973333333361
vertex 7892.1080000000275 11834.76000000004 799.9973333333361
endloop
endfacet
facet normal 0 0 1
outer loop
vertex 7568.008000000026 11823.877333333374 799.9973333333361
vertex 7892.1080000000275 11834.76000000004 799.9973333333361
vertex 7076.617333333357 11834.76000000004 799.9973333333361
endloop
endfacet
facet normal 0 0 1
outer loop
vertex 7082.777333333358 11816.112000000041 799.9973333333361
vertex 7088.013333333358 11797.193333333375 799.9973333333361
vertex 7895.72933333336 11797.193333333375 799.9973333333361
endloop
endfacet
facet normal 0 0 1
outer loop
vertex 7082.777333333358 11816.112000000041 799.9973333333361
vertex 7895.72933333336 11797.193333333375 799.9973333333361
vertex 7894.32933333336 11816.112000000041 799.9973333333361
endloop
endfacet
facet normal 0 0 0.9999999999999999
outer loop
vertex 7088.013333333358 11797.193333333375 799.9973333333361
vertex 7092.316000000024 11778.032000000041 799.9973333333361
vertex 7897.138666666694 11778.032000000041 799.9973333333361
endloop
endfacet
facet normal 0 0 1
outer loop
vertex 7088.013333333358 11797.193333333375 799.9973333333361
vertex 7897.138666666694 11778.032000000041 799.9973333333361
vertex 7895.72933333336 11797.193333333375 799.9973333333361
endloop
endfacet
facet normal 0 0 1
outer loop
vertex 7576.4453333333595 11766.46800000004 799.9973333333361
vertex 7092.316000000024 11778.032000000041 799.9973333333361
vertex 7095.666666666691 11758.693333333375 799.9973333333361
endloop
endfacet
facet normal 0 0 0.9999999999999999
outer loop
vertex 7576.4453333333595 11766.46800000004 799.9973333333361
vertex 7095.666666666691 11758.693333333375 799.9973333333361
vertex 7898.5573333333605 11758.693333333375 799.9973333333361
endloop
endfacet
facet normal 0 0 1
outer loop
vertex 7576.4453333333595 11766.46800000004 799.9973333333361
vertex 7898.5573333333605 11758.693333333375 799.9973333333361
vertex 7898.5573333333605 11758.880000000041 799.9973333333361
endloop
endfacet
facet normal 0 0 0.9999999999999999
outer loop
vertex 7576.4453333333595 11766.46800000004 799.9973333333361
vertex 7898.5573333333605 11758.880000000041 799.9973333333361
vertex 7897.138666666694 11778.032000000041 799.9973333333361
endloop
endfacet
facet normal 0 0 1
outer loop
vertex 7576.4453333333595 11766.46800000004 799.9973333333361
vertex 7897.138666666694 11778.032000000041 799.9973333333361
vertex 7092.316000000024 11778.032000000041 799.9973333333361
endloop
endfacet
facet normal 0 0 1
outer loop
vertex 7095.666666666691 11758.693333333375 799.9973333333361
vertex 7098.074666666691 11739.205333333373 799.9973333333361
vertex 7899.03333333336 11739.205333333373 799.9973333333361
endloop
endfacet
facet normal 0 0 0.9999999999999999
outer loop
vertex 7095.666666666691 11758.693333333375 799.9973333333361
vertex 7899.03333333336 11739.205333333373 799.9973333333361
vertex 7898.5573333333605 11758.693333333375 799.9973333333361
endloop
endfacet
facet normal 0 0 1
outer loop
vertex 7098.074666666691 11739.205333333373 799.9973333333361
vertex 7099.521333333358 11719.62400000004 799.9973333333361
vertex 7899.518666666694 11719.62400000004 799.9973333333361
endloop
endfacet
facet normal 0 0 1
outer loop
vertex 7098.074666666691 11739.205333333373 799.9973333333361
vertex 7899.518666666694 11719.62400000004 799.9973333333361
vertex 7899.03333333336 11739.205333333373 799.9973333333361
endloop
endfacet
facet normal 0 0 1
outer loop
vertex 7099.521333333358 11719.62400000004 799.9973333333361
vertex 7099.997333333357 11699.99600000004 799.9973333333361
vertex 7900.004000000027 11699.99600000004 799.9973333333361
endloop
endfacet
facet normal 0 0 1
outer loop
vertex 7099.521333333358 11719.62400000004 799.9973333333361
vertex 7900.004000000027 11699.99600000004 799.9973333333361
vertex 7899.518666666694 11719.62400000004 799.9973333333361
endloop
endfacet
facet normal 0 0 -1
outer loop
vertex 7318.042666666692 12562.545333333377 399.99866666666804
vertex 6758.88266666669 12898.55466666671 399.99866666666804
vertex 6817.617333333356 12894.224000000044 399.99866666666804
endloop
endfacet
facet normal 0 0 -1
outer loop
vertex 7318.042666666692 12562.545333333377 399.99866666666804
vertex 6817.617333333356 12894.224000000044 399.99866666666804
vertex 6876.072000000024 12887.009333333377 399.99866666666804
endloop
endfacet
facet normal 0 0 -1
outer loop
vertex 7318.042666666692 12562.545333333377 399.99866666666804
vertex 6876.072000000024 12887.009333333377 399.99866666666804
vertex 6934.10666666669 12876.93866666671 399.99866666666804
endloop
endfacet
facet normal 0 0 -1
outer loop
vertex 7318.042666666692 12562.545333333377 399.99866666666804
vertex 6934.10666666669 12876.93866666671 399.99866666666804
vertex 6991.572000000024 12864.040000000045 399.99866666666804
endloop
endfacet
facet normal 0 0 -1
outer loop
vertex 7318.042666666692 12562.545333333377 399.99866666666804
vertex 6991.572000000024 12864.040000000045 399.99866666666804
vertex 7048.3373333333575 12848.332000000044 399.99866666666804
endloop
endfacet
facet normal 0 0 -1
outer loop
vertex 7318.042666666692 12562.545333333377 399.99866666666804
vertex 7048.3373333333575 12848.332000000044 399.99866666666804
vertex 7104.2720000000245 12829.852000000044 399.99866666666804
endloop
endfacet
facet normal 0 0 -1
outer loop
vertex 7318.042666666692 12562.545333333377 399.99866666666804
vertex 7104.2720000000245 12829.852000000044 399.99866666666804
vertex 7159.217333333358 12808.656000000045 399.99866666666804
endloop
endfacet
facet normal 0 0 -1
outer loop
vertex 7318.042666666692 12562.545333333377 399.99866666666804
vertex 7159.217333333358 12808.656000000045 399.99866666666804
vertex 7213.070666666691 12784.790666666711 399.99866666666804
endloop
endfacet
facet normal 0 0 -1
outer loop
vertex 7318.042666666692 12562.545333333377 399.99866666666804
vertex 7213.070666666691 12784.790666666711 399.99866666666804
vertex 7265.673333333359 12758.30266666671 399.99866666666804
endloop
endfacet
facet normal 0 0 -1
outer loop
vertex 7318.042666666692 12562.545333333377 399.99866666666804
vertex 7265.673333333359 12758.30266666671 399.99866666666804
vertex 7316.922666666692 12729.276000000043 399.99866666666804
endloop
endfacet
facet normal 0 0 -1
outer loop
vertex 7318.042666666692 12562.545333333377 399.99866666666804
vertex 7316.922666666692 12729.276000000043 399.99866666666804
vertex 7366.688000000026 12697.76666666671 399.99866666666804
endloop
endfacet
facet normal 0 0 -1
outer loop
vertex 7318.042666666692 12562.545333333377 399.99866666666804
vertex 7366.688000000026 12697.76666666671 399.99866666666804
vertex 7414.838666666692 12663.849333333377 399.99866666666804
endloop
endfacet
facet normal 0 0 -1
outer loop
vertex 7318.042666666692 12562.545333333377 399.99866666666804
vertex 7414.838666666692 12663.849333333377 399.99866666666804
vertex 7461.272000000025 12627.608000000044 399.99866666666804
endloop
endfacet
facet normal 0 0 -1
outer loop
vertex 7318.042666666692 12562.545333333377 399.99866666666804
vertex 7461.272000000025 12627.608000000044 399.99866666666804
vertex 7505.866666666692 12589.145333333376 399.99866666666804
endloop
endfacet
facet normal 0 0 -1
outer loop
vertex 7318.042666666692 12562.545333333377 399.99866666666804
vertex 7505.866666666692 12589.145333333376 399.99866666666804
vertex 7548.529333333359 12548.52666666671 399.99866666666804
endloop
endfacet
facet normal 0 0 -1
outer loop
vertex 7318.042666666692 12562.545333333377 399.99866666666804
vertex 7548.529333333359 12548.52666666671 399.99866666666804
vertex 7589.138666666693 12505.873333333377 399.99866666666804
endloop
endfacet
facet normal 0 0 -0.9999999999999999
outer loop
vertex 7318.042666666692 12562.545333333377 399.99866666666804
vertex 7589.138666666693 12505.873333333377 399.99866666666804
vertex 7627.610666666693 12461.269333333375 399.99866666666804
endloop
endfacet
facet normal 0 0 -1
outer loop
vertex 7318.042666666692 12562.545333333377 399.99866666666804
vertex 7627.610666666693 12461.269333333375 399.99866666666804
vertex 7663.852000000026 12414.836000000043 399.99866666666804
endloop
endfacet
facet normal 0 0 -1
outer loop
vertex 7318.042666666692 12562.545333333377 399.99866666666804
vertex 7663.852000000026 12414.836000000043 399.99866666666804
vertex 7697.760000000027 12366.685333333377 399.99866666666804
endloop
endfacet
facet normal 0 0 -0.9999999999999999
outer loop
vertex 7318.042666666692 12562.545333333377 399.99866666666804
vertex 7697.760000000027 12366.685333333377 399.99866666666804
vertex 7729.278666666693 12316.920000000042 399.99866666666804
endloop
endfacet
facet normal 0 0 -1
outer loop
vertex 7318.042666666692 12562.545333333377 399.99866666666804
vertex 7729.278666666693 12316.920000000042 399.99866666666804
vertex 7758.30533333336 12265.680000000042 399.99866666666804
endloop
endfacet
facet normal 0 0 -1
outer loop
vertex 7318.042666666692 12562.545333333377 399.99866666666804
vertex 7758.30533333336 12265.680000000042 399.99866666666804
vertex 7784.784000000027 12213.068000000041 399.99866666666804
endloop
endfacet
facet normal 0 0 -1
outer loop
vertex 7318.042666666692 12562.545333333377 399.99866666666804
vertex 7784.784000000027 12213.068000000041 399.99866666666804
vertex 7808.6586666666935 12159.224000000042 399.99866666666804
endloop
endfacet
facet normal 0 0 -1
outer loop
vertex 7318.042666666692 12562.545333333377 399.99866666666804
vertex 7808.6586666666935 12159.224000000042 399.99866666666804
vertex 7829.854666666693 12104.269333333375 399.99866666666804
endloop
endfacet
facet normal 0 0 -1
outer loop
vertex 7318.042666666692 12562.545333333377 399.99866666666804
vertex 7829.854666666693 12104.269333333375 399.99866666666804
vertex 7831.422666666694 12099.518666666709 399.99866666666804
endloop
endfacet
facet normal 0 0 -1
outer loop
vertex 7318.042666666692 12562.545333333377 399.99866666666804
vertex 7831.422666666694 12099.518666666709 399.99866666666804
vertex 6719.62666666669 12099.518666666709 399.99866666666804
endloop
endfacet
facet normal 0 0 -1
outer loop
vertex 7318.042666666692 12562.545333333377 399.99866666666804
vertex 6719.62666666669 12099.518666666709 399.99866666666804
vertex 6699.99866666669 12100.00400000004 399.99866666666804
endloop
endfacet
facet normal 0 0 -1
outer loop
vertex 7318.042666666692 12562.545333333377 399.99866666666804
vertex 6699.99866666669 12100.00400000004 399.99866666666804
vertex 6699.99866666669 12900.001333333377 399.99866666666804
endloop
endfacet
facet normal 0 0 -0.9999999999999999
outer loop
vertex 7318.042666666692 12562.545333333377 399.99866666666804
vertex 6699.99866666669 12900.001333333377 399.99866666666804
vertex 6758.88266666669 12898.55466666671 399.99866666666804
endloop
endfacet
facet normal 0 0 -1
outer loop
vertex 7831.422666666694 12099.518666666709 399.99866666666804
vertex 7831.898666666693 12098.072000000042 399.99866666666804
vertex 6739.208000000023 12098.072000000042 399.99866666666804
endloop
endfacet
facet normal 0 0 -1
outer loop
vertex 7831.422666666694 12099.518666666709 399.99866666666804
vertex 6739.208000000023 12098.072000000042 399.99866666666804
vertex 6719.62666666669 12099.518666666709 399.99866666666804
endloop
endfacet
facet normal 0 0 -1
outer loop
vertex 7831.898666666693 12098.072000000042 399.99866666666804
vertex 7832.692000000027 12095.673333333374 399.99866666666804
vertex 6758.696000000024 12095.673333333374 399.99866666666804
endloop
endfacet
facet normal 0 0 -1
outer loop
vertex 7831.898666666693 12098.072000000042 399.99866666666804
vertex 6758.696000000024 12095.673333333374 399.99866666666804
vertex 6739.208000000023 12098.072000000042 399.99866666666804
endloop
endfacet
facet normal 0 0 -0.9999999999999999
outer loop
vertex 7832.692000000027 12095.673333333374 399.99866666666804
vertex 7833.802666666694 12092.313333333375 399.99866666666804
vertex 6778.03466666669 12092.313333333375 399.99866666666804
endloop
endfacet
facet normal 0 0 -0.9999999999999999
outer loop
vertex 7832.692000000027 12095.673333333374 399.99866666666804
vertex 6778.03466666669 12092.313333333375 399.99866666666804
vertex 6758.696000000024 12095.673333333374 399.99866666666804
endloop
endfacet
facet normal 0 0 -1
outer loop
vertex 7833.802666666694 12092.313333333375 399.99866666666804
vertex 7835.22133333336 12088.010666666709 399.99866666666804
vertex 6797.196000000024 12088.010666666709 399.99866666666804
endloop
endfacet
facet normal 0 0 -1
outer loop
vertex 7833.802666666694 12092.313333333375 399.99866666666804
vertex 6797.196000000024 12088.010666666709 399.99866666666804
vertex 6778.03466666669 12092.313333333375 399.99866666666804
endloop
endfacet
facet normal 0 0 -1
outer loop
vertex 7835.22133333336 12088.010666666709 399.99866666666804
vertex 7836.95733333336 12082.774666666708 399.99866666666804
vertex 6816.11466666669 12082.774666666708 399.99866666666804
endloop
endfacet
facet normal 0 0 -1
outer loop
vertex 7835.22133333336 12088.010666666709 399.99866666666804
vertex 6816.11466666669 12082.774666666708 399.99866666666804
vertex 6797.196000000024 12088.010666666709 399.99866666666804
endloop
endfacet
facet normal 0 0 -1
outer loop
vertex 7836.95733333336 12082.774666666708 399.99866666666804
vertex 7838.982666666693 12076.614666666708 399.99866666666804
vertex 6834.753333333357 12076.614666666708 399.99866666666804
endloop
endfacet
facet normal 0 0 -1
outer loop
vertex 7836.95733333336 12082.774666666708 399.99866666666804
vertex 6834.753333333357 12076.614666666708 399.99866666666804
vertex 6816.11466666669 12082.774666666708 399.99866666666804
endloop
endfacet
facet normal 0 0 -0.9999999999999999
outer loop
vertex 7838.982666666693 12076.614666666708 399.99866666666804
vertex 7841.3253333333605 12069.549333333374 399.99866666666804
vertex 6853.07466666669 12069.549333333374 399.99866666666804
endloop
endfacet
facet normal 0 0 -1
outer loop
vertex 7838.982666666693 12076.614666666708 399.99866666666804
vertex 6853.07466666669 12069.549333333374 399.99866666666804
vertex 6834.753333333357 12076.614666666708 399.99866666666804
endloop
endfacet
facet normal 0 0 -1
outer loop
vertex 7841.3253333333605 12069.549333333374 399.99866666666804
vertex 7843.948000000027 12061.597333333375 399.99866666666804
vertex 6871.02266666669 12061.597333333375 399.99866666666804
endloop
endfacet
facet normal 0 0 -0.9999999999999999
outer loop
vertex 7841.3253333333605 12069.549333333374 399.99866666666804
vertex 6871.02266666669 12061.597333333375 399.99866666666804
vertex 6853.07466666669 12069.549333333374 399.99866666666804
endloop
endfacet
facet normal 0 0 -1
outer loop
vertex 7843.948000000027 12061.597333333375 399.99866666666804
vertex 7846.86933333336 12052.768000000042 399.99866666666804
vertex 6888.560000000024 12052.768000000042 399.99866666666804
endloop
endfacet
facet normal 0 0 -1
outer loop
vertex 7843.948000000027 12061.597333333375 399.99866666666804
vertex 6888.560000000024 12052.768000000042 399.99866666666804
vertex 6871.02266666669 12061.597333333375 399.99866666666804
endloop
endfacet
facet normal 0 0 -0.9999999999999999
outer loop
vertex 7467.8333333333585 12048.008000000042 399.99866666666804
vertex 7846.86933333336 12052.768000000042 399.99866666666804
vertex 7848.3253333333605 12048.344000000041 399.99866666666804
endloop
endfacet
facet normal 0 0 -1
outer loop
vertex 7467.8333333333585 12048.008000000042 399.99866666666804
vertex 7848.3253333333605 12048.344000000041 399.99866666666804
vertex 7849.781333333361 12043.089333333375 399.99866666666804
endloop
endfacet
facet normal 0 0 -1
outer loop
vertex 7467.8333333333585 12048.008000000042 399.99866666666804
vertex 7849.781333333361 12043.089333333375 399.99866666666804
vertex 6905.640000000024 12043.089333333375 399.99866666666804
endloop
endfacet
facet normal 0 0 -1
outer loop
vertex 7467.8333333333585 12048.008000000042 399.99866666666804
vertex 6905.640000000024 12043.089333333375 399.99866666666804
vertex 6888.560000000024 12052.768000000042 399.99866666666804
endloop
endfacet
facet normal 0 0 -0.9999999999999999
outer loop
vertex 7467.8333333333585 12048.008000000042 399.99866666666804
vertex 6888.560000000024 12052.768000000042 399.99866666666804
vertex 7846.86933333336 12052.768000000042 399.99866666666804
endloop
endfacet
facet normal 0 0 -1
outer loop
vertex 7849.781333333361 12043.089333333375 399.99866666666804
vertex 7852.684000000027 12032.589333333375 399.99866666666804
vertex 6922.225333333357 12032.589333333375 399.99866666666804
endloop
endfacet
facet normal 0 0 -1
outer loop
vertex 7849.781333333361 12043.089333333375 399.99866666666804
vertex 6922.225333333357 12032.589333333375 399.99866666666804
vertex 6905.640000000024 12043.089333333375 399.99866666666804
endloop
endfacet
facet normal 0 0 -1
outer loop
vertex 7852.684000000027 12032.589333333375 399.99866666666804
vertex 7855.820000000027 12021.286666666709 399.99866666666804
vertex 6938.278666666691 12021.286666666709 399.99866666666804
endloop
endfacet
facet normal 0 0 -1
outer loop
vertex 7852.684000000027 12032.589333333375 399.99866666666804
vertex 6938.278666666691 12021.286666666709 399.99866666666804
vertex 6922.225333333357 12032.589333333375 399.99866666666804
endloop
endfacet
facet normal 0 0 -1
outer loop
vertex 7855.820000000027 12021.286666666709 399.99866666666804
vertex 7859.16133333336 12009.20000000004 399.99866666666804
vertex 6953.753333333357 12009.20000000004 399.99866666666804
endloop
endfacet
facet normal 0 0 -1
outer loop
vertex 7855.820000000027 12021.286666666709 399.99866666666804
vertex 6953.753333333357 12009.20000000004 399.99866666666804
vertex 6938.278666666691 12021.286666666709 399.99866666666804
endloop
endfacet
facet normal 0 0 -1
outer loop
vertex 7859.16133333336 12009.20000000004 399.99866666666804
vertex 7862.708000000027 11996.37600000004 399.99866666666804
vertex 6968.621333333357 11996.37600000004 399.99866666666804
endloop
endfacet
facet normal 0 0 -0.9999999999999999
outer loop
vertex 7859.16133333336 12009.20000000004 399.99866666666804
vertex 6968.621333333357 11996.37600000004 399.99866666666804
vertex 6953.753333333357 12009.20000000004 399.99866666666804
endloop
endfacet
facet normal 0 0 -1
outer loop
vertex 7508.8440000000255 11990.001333333374 399.99866666666804
vertex 7862.708000000027 11996.37600000004 399.99866666666804
vertex 7864.03333333336 11991.578666666708 399.99866666666804
endloop
endfacet
facet normal 0 0 -1
outer loop
vertex 7508.8440000000255 11990.001333333374 399.99866666666804
vertex 7864.03333333336 11991.578666666708 399.99866666666804
vertex 7866.002666666694 11982.842666666707 399.99866666666804
endloop
endfacet
facet normal 0 0 -1
outer loop
vertex 7508.8440000000255 11990.001333333374 399.99866666666804
vertex 7866.002666666694 11982.842666666707 399.99866666666804
vertex 6982.845333333357 11982.842666666707 399.99866666666804
endloop
endfacet
facet normal 0 0 -1
outer loop
vertex 7508.8440000000255 11990.001333333374 399.99866666666804
vertex 6982.845333333357 11982.842666666707 399.99866666666804
vertex 6968.621333333357 11996.37600000004 399.99866666666804
endloop
endfacet
facet normal 0 0 -0.9999999999999999
outer loop
vertex 7508.8440000000255 11990.001333333374 399.99866666666804
vertex 6968.621333333357 11996.37600000004 399.99866666666804
vertex 7862.708000000027 11996.37600000004 399.99866666666804
endloop
endfacet
facet normal 0 0 -1
outer loop
vertex 7866.002666666694 11982.842666666707 399.99866666666804
vertex 7869.194666666694 11968.62800000004 399.99866666666804
vertex 6996.378666666691 11968.62800000004 399.99866666666804
endloop
endfacet
facet normal 0 0 -1
outer loop
vertex 7866.002666666694 11982.842666666707 399.99866666666804
vertex 6996.378666666691 11968.62800000004 399.99866666666804
vertex 6982.845333333357 11982.842666666707 399.99866666666804
endloop
endfacet
facet normal 0 0 -0.9999999999999999
outer loop
vertex 7869.194666666694 11968.62800000004 399.99866666666804
vertex 7872.526666666694 11953.76000000004 399.99866666666804
vertex 7009.202666666691 11953.76000000004 399.99866666666804
endloop
endfacet
facet normal 0 0 -1
outer loop
vertex 7869.194666666694 11968.62800000004 399.99866666666804
vertex 7009.202666666691 11953.76000000004 399.99866666666804
vertex 6996.378666666691 11968.62800000004 399.99866666666804
endloop
endfacet
facet normal 0 0 -1
outer loop
vertex 7872.526666666694 11953.76000000004 399.99866666666804
vertex 7876.008000000027 11938.276000000042 399.99866666666804
vertex 7021.280000000024 11938.276000000042 399.99866666666804
endloop
endfacet
facet normal 0 0 -1
outer loop
vertex 7872.526666666694 11953.76000000004 399.99866666666804
vertex 7021.280000000024 11938.276000000042 399.99866666666804
vertex 7009.202666666691 11953.76000000004 399.99866666666804
endloop
endfacet
facet normal 0 0 -1
outer loop
vertex 7537.161333333359 11931.024000000041 399.99866666666804
vertex 7876.008000000027 11938.276000000042 399.99866666666804
vertex 7876.9413333333605 11934.104000000041 399.99866666666804
endloop
endfacet
facet normal 0 0 -1
outer loop
vertex 7537.161333333359 11931.024000000041 399.99866666666804
vertex 7876.9413333333605 11934.104000000041 399.99866666666804
vertex 7879.004000000027 11922.23200000004 399.99866666666804
endloop
endfacet
facet normal 0 0 -1
outer loop
vertex 7537.161333333359 11931.024000000041 399.99866666666804
vertex 7879.004000000027 11922.23200000004 399.99866666666804
vertex 7032.592000000024 11922.23200000004 399.99866666666804
endloop
endfacet
facet normal 0 0 -1
outer loop
vertex 7537.161333333359 11931.024000000041 399.99866666666804
vertex 7032.592000000024 11922.23200000004 399.99866666666804
vertex 7021.280000000024 11938.276000000042 399.99866666666804
endloop
endfacet
facet normal 0 0 -1
outer loop
vertex 7537.161333333359 11931.024000000041 399.99866666666804
vertex 7021.280000000024 11938.276000000042 399.99866666666804
vertex 7876.008000000027 11938.276000000042 399.99866666666804
endloop
endfacet
facet normal 0 0 -1
outer loop
vertex 7879.004000000027 11922.23200000004 399.99866666666804
vertex 7881.878666666694 11905.637333333374 399.99866666666804
vertex 7043.092000000024 11905.637333333374 399.99866666666804
endloop
endfacet
facet normal 0 0 -1
outer loop
vertex 7879.004000000027 11922.23200000004 399.99866666666804
vertex 7043.092000000024 11905.637333333374 399.99866666666804
vertex 7032.592000000024 11922.23200000004 399.99866666666804
endloop
endfacet
facet normal 0 0 -0.9999999999999999
outer loop
vertex 7881.878666666694 11905.637333333374 399.99866666666804
vertex 7884.846666666694 11888.557333333374 399.99866666666804
vertex 7052.770666666691 11888.557333333374 399.99866666666804
endloop
endfacet
facet normal 0 0 -1
outer loop
vertex 7881.878666666694 11905.637333333374 399.99866666666804
vertex 7052.770666666691 11888.557333333374 399.99866666666804
vertex 7043.092000000024 11905.637333333374 399.99866666666804
endloop
endfacet
facet normal 0 0 -1
outer loop
vertex 7554.773333333359 11879.046666666707 399.99866666666804
vertex 7884.846666666694 11888.557333333374 399.99866666666804
vertex 7887.012000000027 11876.078666666708 399.99866666666804
endloop
endfacet
facet normal 0 0 -1
outer loop
vertex 7554.773333333359 11879.046666666707 399.99866666666804
vertex 7887.012000000027 11876.078666666708 399.99866666666804
vertex 7887.63733333336 11871.02000000004 399.99866666666804
endloop
endfacet
facet normal 0 0 -0.9999999999999999
outer loop
vertex 7554.773333333359 11879.046666666707 399.99866666666804
vertex 7887.63733333336 11871.02000000004 399.99866666666804
vertex 7061.600000000024 11871.02000000004 399.99866666666804
endloop
endfacet
facet normal 0 0 -1
outer loop
vertex 7554.773333333359 11879.046666666707 399.99866666666804
vertex 7061.600000000024 11871.02000000004 399.99866666666804
vertex 7052.770666666691 11888.557333333374 399.99866666666804
endloop
endfacet
facet normal 0 0 -0.9999999999999999
outer loop
vertex 7554.773333333359 11879.046666666707 399.99866666666804
vertex 7052.770666666691 11888.557333333374 399.99866666666804
vertex 7884.846666666694 11888.557333333374 399.99866666666804
endloop
endfacet
facet normal 0 0 -1
outer loop
vertex 7887.63733333336 11871.02000000004 399.99866666666804
vertex 7889.84933333336 11853.07200000004 399.99866666666804
vertex 7069.552000000024 11853.07200000004 399.99866666666804
endloop
endfacet
facet normal 0 0 -1
outer loop
vertex 7887.63733333336 11871.02000000004 399.99866666666804
vertex 7069.552000000024 11853.07200000004 399.99866666666804
vertex 7061.600000000024 11871.02000000004 399.99866666666804
endloop
endfacet
facet normal 0 0 -1
outer loop
vertex 7889.84933333336 11853.07200000004 399.99866666666804
vertex 7892.1080000000275 11834.76000000004 399.99866666666804
vertex 7076.617333333357 11834.76000000004 399.99866666666804
endloop
endfacet
facet normal 0 0 -1
outer loop
vertex 7889.84933333336 11853.07200000004 399.99866666666804
vertex 7076.617333333357 11834.76000000004 399.99866666666804
vertex 7069.552000000024 11853.07200000004 399.99866666666804
endloop
endfacet
facet normal 0 0 -1
outer loop
vertex 7568.008000000026 11823.877333333374 399.99866666666804
vertex 7892.1080000000275 11834.76000000004 399.99866666666804
vertex 7894.21733333336 11817.62400000004 399.99866666666804
endloop
endfacet
facet normal 0 0 -0.9999999999999999
outer loop
vertex 7568.008000000026 11823.877333333374 399.99866666666804
vertex 7894.21733333336 11817.62400000004 399.99866666666804
vertex 7894.32933333336 11816.112000000041 399.99866666666804
endloop
endfacet
facet normal 0 0 -1
outer loop
vertex 7568.008000000026 11823.877333333374 399.99866666666804
vertex 7894.32933333336 11816.112000000041 399.99866666666804
vertex 7082.777333333358 11816.112000000041 399.99866666666804
endloop
endfacet
facet normal 0 0 -1
outer loop
vertex 7568.008000000026 11823.877333333374 399.99866666666804
vertex 7082.777333333358 11816.112000000041 399.99866666666804
vertex 7076.617333333357 11834.76000000004 399.99866666666804
endloop
endfacet
facet normal 0 0 -1
outer loop
vertex 7568.008000000026 11823.877333333374 399.99866666666804
vertex 7076.617333333357 11834.76000000004 399.99866666666804
vertex 7892.1080000000275 11834.76000000004 399.99866666666804
endloop
endfacet
facet normal 0 0 -1
outer loop
vertex 7894.32933333336 11816.112000000041 399.99866666666804
vertex 7895.72933333336 11797.193333333375 399.99866666666804
vertex 7088.013333333358 11797.193333333375 399.99866666666804
endloop
endfacet
facet normal 0 0 -1
outer loop
vertex 7894.32933333336 11816.112000000041 399.99866666666804
vertex 7088.013333333358 11797.193333333375 399.99866666666804
vertex 7082.777333333358 11816.112000000041 399.99866666666804
endloop
endfacet
facet normal 0 0 -0.9999999999999999
outer loop
vertex 7895.72933333336 11797.193333333375 399.99866666666804
vertex 7897.138666666694 11778.032000000041 399.99866666666804
vertex 7092.316000000024 11778.032000000041 399.99866666666804
endloop
endfacet
facet normal 0 0 -1
outer loop
vertex 7895.72933333336 11797.193333333375 399.99866666666804
vertex 7092.316000000024 11778.032000000041 399.99866666666804
vertex 7088.013333333358 11797.193333333375 399.99866666666804
endloop
endfacet
facet normal 0 0 -0.9999999999999999
outer loop
vertex 7576.4453333333595 11766.46800000004 399.99866666666804
vertex 7897.138666666694 11778.032000000041 399.99866666666804
vertex 7898.5573333333605 11758.880000000041 399.99866666666804
endloop
endfacet
facet normal 0 0 -1
outer loop
vertex 7576.4453333333595 11766.46800000004 399.99866666666804
vertex 7898.5573333333605 11758.880000000041 399.99866666666804
vertex 7898.5573333333605 11758.693333333375 399.99866666666804
endloop
endfacet
facet normal 0 0 -0.9999999999999999
outer loop
vertex 7576.4453333333595 11766.46800000004 399.99866666666804
vertex 7898.5573333333605 11758.693333333375 399.99866666666804
vertex 7095.666666666691 11758.693333333375 399.99866666666804
endloop
endfacet
facet normal 0 0 -1
outer loop
vertex 7576.4453333333595 11766.46800000004 399.99866666666804
vertex 7095.666666666691 11758.693333333375 399.99866666666804
vertex 7092.316000000024 11778.032000000041 399.99866666666804
endloop
endfacet
facet normal 0 0 -1
outer loop
vertex 7576.4453333333595 11766.46800000004 399.99866666666804
vertex 7092.316000000024 11778.032000000041 399.99866666666804
vertex 7897.138666666694 11778.032000000041 399.99866666666804
endloop
endfacet
facet normal 0 0 -1
outer loop
vertex 7898.5573333333605 11758.693333333375 399.99866666666804
vertex 7899.03333333336 11739.205333333373 399.99866666666804
vertex 7098.074666666691 11739.205333333373 399.99866666666804
endloop
endfacet
facet normal 0 0 -0.9999999999999999
outer loop
vertex 7898.5573333333605 11758.693333333375 399.99866666666804
vertex 7098.074666666691 11739.205333333373 399.99866666666804
vertex 7095.666666666691 11758.693333333375 399.99866666666804
endloop
endfacet
facet normal 0 0 -0.9999999999999999
outer loop
vertex 7899.03333333336 11739.205333333373 399.99866666666804
vertex 7899.518666666694 11719.62400000004 399.99866666666804
vertex 7099.521333333358 11719.62400000004 399.99866666666804
endloop
endfacet
facet normal 0 0 -1
outer loop
vertex 7899.03333333336 11739.205333333373 399.99866666666804
vertex 7099.521333333358 11719.62400000004 399.99866666666804
vertex 7098.074666666691 11739.205333333373 399.99866666666804
endloop
endfacet
facet normal 0 0 -1
outer loop
vertex 7899.518666666694 11719.62400000004 399.99866666666804
vertex 7900.004000000027 11699.99600000004 399.99866666666804
vertex 7099.997333333357 11699.99600000004 399.99866666666804
endloop
endfacet
facet normal 0 0 -1
outer loop
vertex 7899.518666666694 11719.62400000004 399.99866666666804
vertex 7099.997333333357 11699.99600000004 399.99866666666804
vertex 7099.521333333358 11719.62400000004 399.99866666666804
endloop
endfacet
facet normal -1 0 0
outer loop
vertex 6699.99866666669 12900.001333333377 799.9973333333361
vertex 6699.99866666669 12900.001333333377 399.99866666666804
vertex 6699.99866666669 12100.00400000004 399.99866666666804
endloop
endfacet
facet normal -1 0 0
outer loop
vertex 6699.99866666669 12900.001333333377 799.9973333333361
vertex 6699.99866666669 12100.00400000004 399.99866666666804
vertex 6699.99866666669 12100.00400000004 799.9973333333361
endloop
endfacet
endsolid JSCAD
