solid JSCAD
facet normal -1 0 0
outer loop
vertex 0 0 0
vertex 0 0 3999.9700000000003
vertex 0 15000.050000000001 3999.9700000000003
endloop
endfacet
facet normal -1 0 0
outer loop
vertex 0 0 0
vertex 0 15000.050000000001 3999.9700000000003
vertex 0 15000.050000000001 0
endloop
endfacet
facet normal 1 0 0
outer loop
vertex 19999.98 0 0
vertex 19999.98 15000.050000000001 0
vertex 19999.98 15000.050000000001 3999.9700000000003
endloop
endfacet
facet normal 1 0 0
outer loop
vertex 19999.98 0 0
vertex 19999.98 15000.050000000001 3999.9700000000003
vertex 19999.98 0 3999.9700000000003
endloop
endfacet
facet normal 0 -1 0
outer loop
vertex 0 0 0
vertex 19999.98 0 0
vertex 19999.98 0 3999.9700000000003
endloop
endfacet
facet normal 0 -1 0
outer loop
vertex 0 0 0
vertex 19999.98 0 3999.9700000000003
vertex 0 0 3999.9700000000003
endloop
endfacet
facet normal 0 1 0
outer loop
vertex 0 15000.050000000001 0
vertex 0 15000.050000000001 3999.9700000000003
vertex 19999.98 15000.050000000001 3999.9700000000003
endloop
endfacet
facet normal 0 1 0
outer loop
vertex 0 15000.050000000001 0
vertex 19999.98 15000.050000000001 3999.9700000000003
vertex 19999.98 15000.050000000001 0
endloop
endfacet
facet normal 0 0 -1
outer loop
vertex 0 0 0
vertex 0 15000.050000000001 0
vertex 19999.98 15000.050000000001 0
endloop
endfacet
facet normal 0 0 -1
outer loop
vertex 0 0 0
vertex 19999.98 15000.050000000001 0
vertex 19999.98 0 0
endloop
endfacet
facet normal 0 0 1
outer loop
vertex 0 0 3999.9700000000003
vertex 19999.98 0 3999.9700000000003
vertex 19999.98 15000.050000000001 3999.9700000000003
endloop
endfacet
facet normal 0 0 1
outer loop
vertex 0 0 3999.9700000000003
vertex 19999.98 15000.050000000001 3999.9700000000003
vertex 0 15000.050000000001 3999.9700000000003
endloop
endfacet
facet normal 0.49939489614088184 0.8663744789110757 0
outer loop
vertex 3674.4500000000003 10789.09 599.95
vertex 3674.4500000000003 10789.09 199.94
vertex 3317.21 10995.01 199.94
endloop
endfacet
facet normal 0.49939489614088184 0.8663744789110757 0
outer loop
vertex 3674.4500000000003 10789.09 599.95
vertex 3317.21 10995.01 199.94
vertex 3317.21 10995.01 599.95
endloop
endfacet
facet normal -0.8484054315078431 -0.5293469786330989 0
outer loop
vertex 3595.02 11282.83 599.95
vertex 3595.02 11282.83 199.94
vertex 3813.29 10933 199.94
endloop
endfacet
facet normal -0.8484054315078431 -0.5293469786330989 0
outer loop
vertex 3595.02 11282.83 599.95
vertex 3813.29 10933 199.94
vertex 3813.29 10933 599.95
endloop
endfacet
facet normal 0 0 -1
outer loop
vertex 3414.58 11162.970000000001 599.95
vertex 3595.02 11282.83 599.95
vertex 3813.29 10933 599.95
endloop
endfacet
facet normal 0 0 -1
outer loop
vertex 3414.58 11162.970000000001 599.95
vertex 3813.29 10933 599.95
vertex 3424.85 10933 599.95
endloop
endfacet
facet normal 0 0 -1
outer loop
vertex 3414.58 11162.970000000001 599.95
vertex 3424.85 10933 599.95
vertex 3317.21 10995.01 599.95
endloop
endfacet
facet normal 0 0 -1
outer loop
vertex 3414.58 11162.970000000001 599.95
vertex 3317.21 10995.01 599.95
vertex 3029.52 11272.95 599.95
endloop
endfacet
facet normal 0 0 -1
outer loop
vertex 3414.58 11162.970000000001 599.95
vertex 3029.52 11272.95 599.95
vertex 3307.33 11560.640000000001 599.95
endloop
endfacet
facet normal 0 0 -1
outer loop
vertex 3414.58 11162.970000000001 599.95
vertex 3307.33 11560.640000000001 599.95
vertex 3595.02 11282.83 599.95
endloop
endfacet
facet normal 0 0 -1
outer loop
vertex 3813.29 10933 599.95
vertex 3962.27 10789.09 599.95
vertex 3674.4500000000003 10789.09 599.95
endloop
endfacet
facet normal 0 0 -1
outer loop
vertex 3813.29 10933 599.95
vertex 3674.4500000000003 10789.09 599.95
vertex 3424.85 10933 599.95
endloop
endfacet
facet normal 0 0 -1
outer loop
vertex 3962.27 10789.09 599.95
vertex 4101.110000000001 10655.19 599.95
vertex 3962.1400000000003 10511.28 599.95
endloop
endfacet
facet normal 0 0 -1
outer loop
vertex 3962.27 10789.09 599.95
vertex 3962.1400000000003 10511.28 599.95
vertex 3674.4500000000003 10789.09 599.95
endloop
endfacet
facet normal 0 0 -1
outer loop
vertex 7437.820000000001 10731.630000000001 599.95
vertex 7368.27 10337.73 599.95
vertex 6974.37 10407.28 599.95
endloop
endfacet
facet normal 0 0 -1
outer loop
vertex 7437.820000000001 10731.630000000001 599.95
vertex 6974.37 10407.28 599.95
vertex 7043.79 10801.18 599.95
endloop
endfacet
facet normal 0 0 1
outer loop
vertex 3414.58 11162.970000000001 199.94
vertex 3029.52 11272.95 199.94
vertex 3317.21 10995.01 199.94
endloop
endfacet
facet normal 0 0 1
outer loop
vertex 3414.58 11162.970000000001 199.94
vertex 3317.21 10995.01 199.94
vertex 3424.85 10933 199.94
endloop
endfacet
facet normal 0 0 1
outer loop
vertex 3414.58 11162.970000000001 199.94
vertex 3424.85 10933 199.94
vertex 3813.29 10933 199.94
endloop
endfacet
facet normal 0 0 1
outer loop
vertex 3414.58 11162.970000000001 199.94
vertex 3813.29 10933 199.94
vertex 3595.02 11282.83 199.94
endloop
endfacet
facet normal 0 0 1
outer loop
vertex 3414.58 11162.970000000001 199.94
vertex 3595.02 11282.83 199.94
vertex 3307.33 11560.640000000001 199.94
endloop
endfacet
facet normal 0 0 1
outer loop
vertex 3414.58 11162.970000000001 199.94
vertex 3307.33 11560.640000000001 199.94
vertex 3029.52 11272.95 199.94
endloop
endfacet
facet normal 0 0 1
outer loop
vertex 3424.85 10933 199.94
vertex 3674.4500000000003 10789.09 199.94
vertex 3962.27 10789.09 199.94
endloop
endfacet
facet normal 0 0 1
outer loop
vertex 3424.85 10933 199.94
vertex 3962.27 10789.09 199.94
vertex 3813.29 10933 199.94
endloop
endfacet
facet normal 0 0 1
outer loop
vertex 3674.4500000000003 10789.09 199.94
vertex 3962.1400000000003 10511.28 199.94
vertex 4101.110000000001 10655.19 199.94
endloop
endfacet
facet normal 0 0 1
outer loop
vertex 3674.4500000000003 10789.09 199.94
vertex 4101.110000000001 10655.19 199.94
vertex 3962.27 10789.09 199.94
endloop
endfacet
facet normal 0 0 0.9999999999999999
outer loop
vertex 6974.37 10407.28 199.94
vertex 8156.200000000001 10198.890000000001 199.94
vertex 8225.62 10592.79 199.94
endloop
endfacet
facet normal 0 0 0.9999999999999999
outer loop
vertex 6974.37 10407.28 199.94
vertex 8225.62 10592.79 199.94
vertex 7043.79 10801.18 199.94
endloop
endfacet
facet normal 0.7193510498899215 -0.6946467210188699 0
outer loop
vertex 3307.33 11560.640000000001 199.94
vertex 3307.33 11560.640000000001 599.95
vertex 3029.52 11272.95 599.95
endloop
endfacet
facet normal 0.7193510498899215 -0.6946467210188699 0
outer loop
vertex 3307.33 11560.640000000001 199.94
vertex 3029.52 11272.95 599.95
vertex 3029.52 11272.95 199.94
endloop
endfacet
facet normal 0.6948148699626193 0.7191886376179953 0
outer loop
vertex 3029.52 11272.95 599.95
vertex 3317.21 10995.01 599.95
vertex 3317.21 10995.01 199.94
endloop
endfacet
facet normal 0.6948148699626193 0.7191886376179953 0
outer loop
vertex 3029.52 11272.95 599.95
vertex 3317.21 10995.01 199.94
vertex 3029.52 11272.95 199.94
endloop
endfacet
facet normal -0.6946467210188723 -0.7193510498899192 0
outer loop
vertex 3595.02 11282.83 199.94
vertex 3595.02 11282.83 599.95
vertex 3307.33 11560.640000000001 599.95
endloop
endfacet
facet normal -0.6946467210188723 -0.7193510498899192 0
outer loop
vertex 3595.02 11282.83 199.94
vertex 3307.33 11560.640000000001 599.95
vertex 3307.33 11560.640000000001 199.94
endloop
endfacet
facet normal -0.7193454741981931 0.694652494957426 0
outer loop
vertex 3962.1400000000003 10511.28 599.95
vertex 4101.110000000001 10655.19 599.95
vertex 4101.110000000001 10655.19 199.94
endloop
endfacet
facet normal -0.7193454741981931 0.694652494957426 0
outer loop
vertex 3962.1400000000003 10511.28 599.95
vertex 4101.110000000001 10655.19 199.94
vertex 3962.1400000000003 10511.28 199.94
endloop
endfacet
facet normal 0.6946467210188699 0.7193510498899215 0
outer loop
vertex 3674.4500000000003 10789.09 599.95
vertex 3962.1400000000003 10511.28 599.95
vertex 3962.1400000000003 10511.28 199.94
endloop
endfacet
facet normal 0.6946467210188699 0.7193510498899215 0
outer loop
vertex 3674.4500000000003 10789.09 599.95
vertex 3962.1400000000003 10511.28 199.94
vertex 3674.4500000000003 10789.09 199.94
endloop
endfacet
facet normal -0.6944843120071379 -0.7195078459446933 0
outer loop
vertex 4101.110000000001 10655.19 199.94
vertex 4101.110000000001 10655.19 599.95
vertex 3813.29 10933 599.95
endloop
endfacet
facet normal -0.6944843120071379 -0.7195078459446933 0
outer loop
vertex 4101.110000000001 10655.19 199.94
vertex 3813.29 10933 599.95
vertex 3813.29 10933 199.94
endloop
endfacet
facet normal -0.44032163215383446 0.07774655881264066 -0.8944676253784571
outer loop
vertex 7831.72 10662.210000000001 400.01
vertex 7762.17 10268.31 400.01
vertex 7368.27 10337.73 599.95
endloop
endfacet
facet normal -0.44032163215383446 0.07774655881264061 -0.8944676253784571
outer loop
vertex 7831.72 10662.210000000001 400.01
vertex 7368.27 10337.73 599.95
vertex 7437.820000000001 10731.630000000001 599.95
endloop
endfacet
facet normal 0.1737204307231833 0.9847949580752873 0.0003201544076988833
outer loop
vertex 7368.27 10337.73 599.95
vertex 7762.17 10268.31 400.01
vertex 6974.37 10407.28 400.01
endloop
endfacet
facet normal 0.1738780361000302 0.9847671951085681 0
outer loop
vertex 7368.27 10337.73 599.95
vertex 6974.37 10407.28 400.01
vertex 6974.37 10407.28 599.95
endloop
endfacet
facet normal 0.1736493772961797 0.9848075414844512 0
outer loop
vertex 8156.200000000001 10198.890000000001 400.01
vertex 8156.200000000001 10198.890000000001 199.94
vertex 6974.37 10407.28 199.94
endloop
endfacet
facet normal 0.1736493772961797 0.9848075414844512 0
outer loop
vertex 8156.200000000001 10198.890000000001 400.01
vertex 6974.37 10407.28 199.94
vertex 6974.37 10407.28 400.01
endloop
endfacet
facet normal -0.1736926423939447 -0.9847999116461217 0
outer loop
vertex 7043.79 10801.18 599.95
vertex 7043.79 10801.18 400.01
vertex 7831.72 10662.210000000001 400.01
endloop
endfacet
facet normal -0.1738223789427466 -0.9847768795803202 -0.0005272786089922727
outer loop
vertex 7043.79 10801.18 599.95
vertex 7831.72 10662.210000000001 400.01
vertex 7437.820000000001 10731.630000000001 599.95
endloop
endfacet
facet normal -0.1736493772961797 -0.9848075414844512 0
outer loop
vertex 7043.79 10801.18 400.01
vertex 7043.79 10801.18 199.94
vertex 8225.62 10592.79 199.94
endloop
endfacet
facet normal -0.1736493772961797 -0.9848075414844512 0
outer loop
vertex 7043.79 10801.18 400.01
vertex 8225.62 10592.79 199.94
vertex 8225.62 10592.79 400.01
endloop
endfacet
facet normal 0.9848227983298304 -0.1735628298046627 0
outer loop
vertex 7009.08 10604.23 400.01
vertex 7043.79 10801.18 199.94
vertex 7043.79 10801.18 400.01
endloop
endfacet
facet normal 0.9848227983298303 -0.17356282980466273 0
outer loop
vertex 7009.08 10604.23 400.01
vertex 7043.79 10801.18 400.01
vertex 7043.79 10801.18 599.95
endloop
endfacet
facet normal 0.9848227983298302 -0.17356282980466348 7.96105526360014e-16
outer loop
vertex 7009.08 10604.23 400.01
vertex 7043.79 10801.18 599.95
vertex 6974.37 10407.28 599.95
endloop
endfacet
facet normal 0.9848227983298301 -0.17356282980466425 0
outer loop
vertex 7009.08 10604.23 400.01
vertex 6974.37 10407.28 599.95
vertex 6974.37 10407.28 400.01
endloop
endfacet
facet normal 0.98482279832983 -0.17356282980466423 0
outer loop
vertex 7009.08 10604.23 400.01
vertex 6974.37 10407.28 400.01
vertex 6974.37 10407.28 199.94
endloop
endfacet
facet normal 0.9848227983298301 -0.17356282980466345 -7.955882388185197e-16
outer loop
vertex 7009.08 10604.23 400.01
vertex 6974.37 10407.28 199.94
vertex 7043.79 10801.18 199.94
endloop
endfacet
facet normal -0.9848227983298301 0.17356282980466345 0
outer loop
vertex 8156.200000000001 10198.890000000001 400.01
vertex 8225.62 10592.79 400.01
vertex 8225.62 10592.79 199.94
endloop
endfacet
facet normal -0.9848227983298301 0.17356282980466345 0
outer loop
vertex 8156.200000000001 10198.890000000001 400.01
vertex 8225.62 10592.79 199.94
vertex 8156.200000000001 10198.890000000001 199.94
endloop
endfacet
facet normal 0 0 -1
outer loop
vertex 7831.72 10662.210000000001 400.01
vertex 8225.62 10592.79 400.01
vertex 8156.200000000001 10198.890000000001 400.01
endloop
endfacet
facet normal 0 0 -1
outer loop
vertex 7831.72 10662.210000000001 400.01
vertex 8156.200000000001 10198.890000000001 400.01
vertex 7762.17 10268.31 400.01
endloop
endfacet
endsolid JSCAD
