solid JSCAD
facet normal 0 -1 0
outer loop
vertex 9599.997333333335 7499.995333333334 199.99133333333336
vertex 10400.004 7499.995333333334 199.99133333333336
vertex 10400.004 7499.995333333334 599.9946666666667
endloop
endfacet
facet normal 0 -1 0
outer loop
vertex 9599.997333333335 7499.995333333334 199.99133333333336
vertex 10400.004 7499.995333333334 599.9946666666667
vertex 9599.997333333335 7499.995333333334 599.9946666666667
endloop
endfacet
facet normal -1 0 0
outer loop
vertex 9599.997333333335 11984.930666666669 400.0033333333334
vertex 9599.997333333335 12500.006000000001 199.99133333333336
vertex 9599.997333333335 12460.801333333335 199.99133333333336
endloop
endfacet
facet normal -1 0 0
outer loop
vertex 9599.997333333335 11984.930666666669 400.0033333333334
vertex 9599.997333333335 12460.801333333335 199.99133333333336
vertex 9599.997333333335 12421.96866666667 199.99133333333336
endloop
endfacet
facet normal -1 0 0
outer loop
vertex 9599.997333333335 11984.930666666669 400.0033333333334
vertex 9599.997333333335 12421.96866666667 199.99133333333336
vertex 9599.997333333335 12383.880000000003 199.99133333333336
endloop
endfacet
facet normal -1 0 0
outer loop
vertex 9599.997333333335 11984.930666666669 400.0033333333334
vertex 9599.997333333335 12383.880000000003 199.99133333333336
vertex 9599.997333333335 12346.928000000002 199.99133333333336
endloop
endfacet
facet normal -1 0 0
outer loop
vertex 9599.997333333335 11984.930666666669 400.0033333333334
vertex 9599.997333333335 12346.928000000002 199.99133333333336
vertex 9599.997333333335 12311.443333333335 199.99133333333336
endloop
endfacet
facet normal -1 0 0
outer loop
vertex 9599.997333333335 11984.930666666669 400.0033333333334
vertex 9599.997333333335 12311.443333333335 199.99133333333336
vertex 9599.997333333335 12277.777333333335 199.99133333333336
endloop
endfacet
facet normal -1 0 0
outer loop
vertex 9599.997333333335 11984.930666666669 400.0033333333334
vertex 9599.997333333335 12277.777333333335 199.99133333333336
vertex 9599.997333333335 12246.240000000002 199.99133333333336
endloop
endfacet
facet normal -1 0 0
outer loop
vertex 9599.997333333335 11984.930666666669 400.0033333333334
vertex 9599.997333333335 12246.240000000002 199.99133333333336
vertex 9599.997333333335 12217.162000000002 199.99133333333336
endloop
endfacet
facet normal -1 0 0
outer loop
vertex 9599.997333333335 11984.930666666669 400.0033333333334
vertex 9599.997333333335 12217.162000000002 199.99133333333336
vertex 9599.997333333335 12190.791333333334 199.99133333333336
endloop
endfacet
facet normal -1 0 0
outer loop
vertex 9599.997333333335 11984.930666666669 400.0033333333334
vertex 9599.997333333335 12190.791333333334 199.99133333333336
vertex 9599.997333333335 12167.417333333335 199.99133333333336
endloop
endfacet
facet normal -1 0 0
outer loop
vertex 9599.997333333335 11984.930666666669 400.0033333333334
vertex 9599.997333333335 12167.417333333335 199.99133333333336
vertex 9599.997333333335 12147.226000000002 199.99133333333336
endloop
endfacet
facet normal -1 0 0
outer loop
vertex 9599.997333333335 11984.930666666669 400.0033333333334
vertex 9599.997333333335 12147.226000000002 199.99133333333336
vertex 9599.997333333335 12130.444666666668 199.99133333333336
endloop
endfacet
facet normal -1 0 0
outer loop
vertex 9599.997333333335 11984.930666666669 400.0033333333334
vertex 9599.997333333335 12130.444666666668 199.99133333333336
vertex 9599.997333333335 12117.218000000003 199.99133333333336
endloop
endfacet
facet normal -1 0 0
outer loop
vertex 9599.997333333335 11984.930666666669 400.0033333333334
vertex 9599.997333333335 12117.218000000003 199.99133333333336
vertex 9599.997333333335 12107.69066666667 199.99133333333336
endloop
endfacet
facet normal -1 0 0
outer loop
vertex 9599.997333333335 11984.930666666669 400.0033333333334
vertex 9599.997333333335 12107.69066666667 199.99133333333336
vertex 9599.997333333335 12101.92466666667 199.99133333333336
endloop
endfacet
facet normal -1 0 0
outer loop
vertex 9599.997333333335 11984.930666666669 400.0033333333334
vertex 9599.997333333335 12101.92466666667 199.99133333333336
vertex 9599.997333333335 12100.002666666669 199.99133333333336
endloop
endfacet
facet normal -1 0 0
outer loop
vertex 9599.997333333335 11984.930666666669 400.0033333333334
vertex 9599.997333333335 12100.002666666669 199.99133333333336
vertex 9599.997333333335 7499.995333333334 199.99133333333336
endloop
endfacet
facet normal -1 0 0
outer loop
vertex 9599.997333333335 11984.930666666669 400.0033333333334
vertex 9599.997333333335 7499.995333333334 199.99133333333336
vertex 9599.997333333335 7499.995333333334 599.9946666666667
endloop
endfacet
facet normal -1 0 0
outer loop
vertex 9599.997333333335 11984.930666666669 400.0033333333334
vertex 9599.997333333335 7499.995333333334 599.9946666666667
vertex 9599.997333333335 12100.002666666669 599.9946666666667
endloop
endfacet
facet normal -1 0 0
outer loop
vertex 9599.997333333335 11984.930666666669 400.0033333333334
vertex 9599.997333333335 12100.002666666669 599.9946666666667
vertex 9599.997333333335 12101.92466666667 599.9946666666667
endloop
endfacet
facet normal -1 0 0
outer loop
vertex 9599.997333333335 11984.930666666669 400.0033333333334
vertex 9599.997333333335 12101.92466666667 599.9946666666667
vertex 9599.997333333335 12107.69066666667 599.9946666666667
endloop
endfacet
facet normal -0.9999999999999999 0 0
outer loop
vertex 9599.997333333335 11984.930666666669 400.0033333333334
vertex 9599.997333333335 12107.69066666667 599.9946666666667
vertex 9599.997333333335 12117.218000000003 599.9946666666667
endloop
endfacet
facet normal -1 0 0
outer loop
vertex 9599.997333333335 11984.930666666669 400.0033333333334
vertex 9599.997333333335 12117.218000000003 599.9946666666667
vertex 9599.997333333335 12130.444666666668 599.9946666666667
endloop
endfacet
facet normal -1 0 0
outer loop
vertex 9599.997333333335 11984.930666666669 400.0033333333334
vertex 9599.997333333335 12130.444666666668 599.9946666666667
vertex 9599.997333333335 12147.226000000002 599.9946666666667
endloop
endfacet
facet normal -1 0 0
outer loop
vertex 9599.997333333335 11984.930666666669 400.0033333333334
vertex 9599.997333333335 12147.226000000002 599.9946666666667
vertex 9599.997333333335 12167.417333333335 599.9946666666667
endloop
endfacet
facet normal -1 0 0
outer loop
vertex 9599.997333333335 11984.930666666669 400.0033333333334
vertex 9599.997333333335 12167.417333333335 599.9946666666667
vertex 9599.997333333335 12190.791333333334 599.9946666666667
endloop
endfacet
facet normal -1 0 0
outer loop
vertex 9599.997333333335 11984.930666666669 400.0033333333334
vertex 9599.997333333335 12190.791333333334 599.9946666666667
vertex 9599.997333333335 12217.162000000002 599.9946666666667
endloop
endfacet
facet normal -1 0 0
outer loop
vertex 9599.997333333335 11984.930666666669 400.0033333333334
vertex 9599.997333333335 12217.162000000002 599.9946666666667
vertex 9599.997333333335 12246.240000000002 599.9946666666667
endloop
endfacet
facet normal -1 0 0
outer loop
vertex 9599.997333333335 11984.930666666669 400.0033333333334
vertex 9599.997333333335 12246.240000000002 599.9946666666667
vertex 9599.997333333335 12277.777333333335 599.9946666666667
endloop
endfacet
facet normal -1 0 0
outer loop
vertex 9599.997333333335 11984.930666666669 400.0033333333334
vertex 9599.997333333335 12277.777333333335 599.9946666666667
vertex 9599.997333333335 12311.443333333335 599.9946666666667
endloop
endfacet
facet normal -1 0 0
outer loop
vertex 9599.997333333335 11984.930666666669 400.0033333333334
vertex 9599.997333333335 12311.443333333335 599.9946666666667
vertex 9599.997333333335 12346.928000000002 599.9946666666667
endloop
endfacet
facet normal -0.9999999999999999 0 0
outer loop
vertex 9599.997333333335 11984.930666666669 400.0033333333334
vertex 9599.997333333335 12346.928000000002 599.9946666666667
vertex 9599.997333333335 12383.880000000003 599.9946666666667
endloop
endfacet
facet normal -1 0 0
outer loop
vertex 9599.997333333335 11984.930666666669 400.0033333333334
vertex 9599.997333333335 12383.880000000003 599.9946666666667
vertex 9599.997333333335 12421.96866666667 599.9946666666667
endloop
endfacet
facet normal -1 0 0
outer loop
vertex 9599.997333333335 11984.930666666669 400.0033333333334
vertex 9599.997333333335 12421.96866666667 599.9946666666667
vertex 9599.997333333335 12460.801333333335 599.9946666666667
endloop
endfacet
facet normal -1 0 0
outer loop
vertex 9599.997333333335 11984.930666666669 400.0033333333334
vertex 9599.997333333335 12460.801333333335 599.9946666666667
vertex 9599.997333333335 12500.006000000001 599.9946666666667
endloop
endfacet
facet normal -0.9999999999999999 0 0
outer loop
vertex 9599.997333333335 11984.930666666669 400.0033333333334
vertex 9599.997333333335 12500.006000000001 599.9946666666667
vertex 9599.997333333335 12500.006000000001 199.99133333333336
endloop
endfacet
facet normal 1 0 0
outer loop
vertex 10400.004 10700.001333333335 400.0033333333334
vertex 10400.004 12100.002666666669 199.99133333333336
vertex 10400.004 12500.006000000001 199.99133333333336
endloop
endfacet
facet normal 1 0 0
outer loop
vertex 10400.004 10700.001333333335 400.0033333333334
vertex 10400.004 12500.006000000001 199.99133333333336
vertex 10400.004 12500.006000000001 599.9946666666667
endloop
endfacet
facet normal 1 0 0
outer loop
vertex 10400.004 10700.001333333335 400.0033333333334
vertex 10400.004 12500.006000000001 599.9946666666667
vertex 10400.004 12100.002666666669 599.9946666666667
endloop
endfacet
facet normal 1 0 0
outer loop
vertex 10400.004 10700.001333333335 400.0033333333334
vertex 10400.004 12100.002666666669 599.9946666666667
vertex 10400.004 7499.995333333334 599.9946666666667
endloop
endfacet
facet normal 1 0 0
outer loop
vertex 10400.004 10700.001333333335 400.0033333333334
vertex 10400.004 7499.995333333334 599.9946666666667
vertex 10400.004 7499.995333333334 199.99133333333336
endloop
endfacet
facet normal 1 0 0
outer loop
vertex 10400.004 10700.001333333335 400.0033333333334
vertex 10400.004 7499.995333333334 199.99133333333336
vertex 10400.004 12100.002666666669 199.99133333333336
endloop
endfacet
facet normal 0.9988004475174911 0.04896596817034803 0
outer loop
vertex 9599.997333333335 12500.006000000001 199.99133333333336
vertex 9599.997333333335 12500.006000000001 599.9946666666667
vertex 9601.919333333335 12460.801333333335 599.9946666666667
endloop
endfacet
facet normal 0.9988004475174911 0.04896596817034803 0
outer loop
vertex 9599.997333333335 12500.006000000001 199.99133333333336
vertex 9601.919333333335 12460.801333333335 599.9946666666667
vertex 9601.919333333335 12460.801333333335 199.99133333333336
endloop
endfacet
facet normal 0.9891553595176723 0.1468729884541895 0
outer loop
vertex 9601.919333333335 12460.801333333335 199.99133333333336
vertex 9601.919333333335 12460.801333333335 599.9946666666667
vertex 9607.685333333335 12421.96866666667 599.9946666666667
endloop
endfacet
facet normal 0.9891553595176723 0.1468729884541895 0
outer loop
vertex 9601.919333333335 12460.801333333335 199.99133333333336
vertex 9607.685333333335 12421.96866666667 599.9946666666667
vertex 9607.685333333335 12421.96866666667 199.99133333333336
endloop
endfacet
facet normal 0.9699875057815663 0.24315476270814826 0
outer loop
vertex 9607.685333333335 12421.96866666667 199.99133333333336
vertex 9607.685333333335 12421.96866666667 599.9946666666667
vertex 9617.233333333335 12383.880000000003 599.9946666666667
endloop
endfacet
facet normal 0.9699875057815663 0.24315476270814826 0
outer loop
vertex 9607.685333333335 12421.96866666667 199.99133333333336
vertex 9617.233333333335 12383.880000000003 599.9946666666667
vertex 9617.233333333335 12383.880000000003 199.99133333333336
endloop
endfacet
facet normal 0.9416703978359119 0.33653656835410245 0
outer loop
vertex 9617.233333333335 12383.880000000003 199.99133333333336
vertex 9617.233333333335 12383.880000000003 599.9946666666667
vertex 9630.439333333336 12346.928000000002 599.9946666666667
endloop
endfacet
facet normal 0.9416703978359119 0.33653656835410245 0
outer loop
vertex 9617.233333333335 12383.880000000003 199.99133333333336
vertex 9630.439333333336 12346.928000000002 599.9946666666667
vertex 9630.439333333336 12346.928000000002 199.99133333333336
endloop
endfacet
facet normal 0.9038021381110329 0.42795057558779565 0
outer loop
vertex 9630.439333333336 12346.928000000002 199.99133333333336
vertex 9630.439333333336 12346.928000000002 599.9946666666667
vertex 9647.241333333335 12311.443333333335 599.9946666666667
endloop
endfacet
facet normal 0.9038021381110329 0.42795057558779565 0
outer loop
vertex 9630.439333333336 12346.928000000002 199.99133333333336
vertex 9647.241333333335 12311.443333333335 599.9946666666667
vertex 9647.241333333335 12311.443333333335 199.99133333333336
endloop
endfacet
facet normal 0.8578180022310369 0.513953572852989 0
outer loop
vertex 9647.241333333335 12311.443333333335 199.99133333333336
vertex 9647.241333333335 12311.443333333335 599.9946666666667
vertex 9667.412000000002 12277.777333333335 599.9946666666667
endloop
endfacet
facet normal 0.8578180022310369 0.513953572852989 0
outer loop
vertex 9647.241333333335 12311.443333333335 199.99133333333336
vertex 9667.412000000002 12277.777333333335 599.9946666666667
vertex 9667.412000000002 12277.777333333335 199.99133333333336
endloop
endfacet
facet normal 0.8033986165633421 0.5954415696809453 0
outer loop
vertex 9667.412000000002 12277.777333333335 199.99133333333336
vertex 9667.412000000002 12277.777333333335 599.9946666666667
vertex 9690.786000000002 12246.240000000002 599.9946666666667
endloop
endfacet
facet normal 0.8033986165633421 0.5954415696809453 0
outer loop
vertex 9667.412000000002 12277.777333333335 199.99133333333336
vertex 9690.786000000002 12246.240000000002 599.9946666666667
vertex 9690.786000000002 12246.240000000002 199.99133333333336
endloop
endfacet
facet normal 0.7407494976321626 0.6717813496649775 0
outer loop
vertex 9690.786000000002 12246.240000000002 199.99133333333336
vertex 9690.786000000002 12246.240000000002 599.9946666666667
vertex 9717.156666666668 12217.162000000002 599.9946666666667
endloop
endfacet
facet normal 0.7407494976321626 0.6717813496649775 0
outer loop
vertex 9690.786000000002 12246.240000000002 199.99133333333336
vertex 9717.156666666668 12217.162000000002 599.9946666666667
vertex 9717.156666666668 12217.162000000002 199.99133333333336
endloop
endfacet
facet normal 0.6717813496649799 0.7407494976321605 0
outer loop
vertex 9717.156666666668 12217.162000000002 199.99133333333336
vertex 9717.156666666668 12217.162000000002 599.9946666666667
vertex 9746.234666666669 12190.791333333334 599.9946666666667
endloop
endfacet
facet normal 0.6717813496649799 0.7407494976321605 0
outer loop
vertex 9717.156666666668 12217.162000000002 199.99133333333336
vertex 9746.234666666669 12190.791333333334 599.9946666666667
vertex 9746.234666666669 12190.791333333334 199.99133333333336
endloop
endfacet
facet normal 0.5954415696809674 0.8033986165633258 0
outer loop
vertex 9746.234666666669 12190.791333333334 199.99133333333336
vertex 9746.234666666669 12190.791333333334 599.9946666666667
vertex 9777.772 12167.417333333335 599.9946666666667
endloop
endfacet
facet normal 0.5954415696809674 0.8033986165633258 0
outer loop
vertex 9746.234666666669 12190.791333333334 199.99133333333336
vertex 9777.772 12167.417333333335 599.9946666666667
vertex 9777.772 12167.417333333335 199.99133333333336
endloop
endfacet
facet normal 0.5143409090275066 0.857585814540305 0
outer loop
vertex 9777.772 12167.417333333335 199.99133333333336
vertex 9777.772 12167.417333333335 599.9946666666667
vertex 9811.438000000002 12147.226000000002 599.9946666666667
endloop
endfacet
facet normal 0.5143409090275066 0.857585814540305 0
outer loop
vertex 9777.772 12167.417333333335 199.99133333333336
vertex 9811.438000000002 12147.226000000002 599.9946666666667
vertex 9811.438000000002 12147.226000000002 199.99133333333336
endloop
endfacet
facet normal 0.42752044877484624 0.9040056780127845 0
outer loop
vertex 9811.438000000002 12147.226000000002 199.99133333333336
vertex 9811.438000000002 12147.226000000002 599.9946666666667
vertex 9846.92266666667 12130.444666666668 599.9946666666667
endloop
endfacet
facet normal 0.42752044877484624 0.9040056780127845 0
outer loop
vertex 9811.438000000002 12147.226000000002 199.99133333333336
vertex 9846.92266666667 12130.444666666668 599.9946666666667
vertex 9846.92266666667 12130.444666666668 199.99133333333336
endloop
endfacet
facet normal 0.33683646026726477 0.9415631678409151 0
outer loop
vertex 9846.92266666667 12130.444666666668 199.99133333333336
vertex 9846.92266666667 12130.444666666668 599.9946666666667
vertex 9883.895333333336 12117.218000000003 599.9946666666667
endloop
endfacet
facet normal 0.33683646026726477 0.9415631678409151 0
outer loop
vertex 9846.92266666667 12130.444666666668 199.99133333333336
vertex 9883.895333333336 12117.218000000003 599.9946666666667
vertex 9883.895333333336 12117.218000000003 199.99133333333336
endloop
endfacet
facet normal 0.2427834501709315 0.9700805102274238 0
outer loop
vertex 9883.895333333336 12117.218000000003 199.99133333333336
vertex 9883.895333333336 12117.218000000003 599.9946666666667
vertex 9921.963333333335 12107.69066666667 599.9946666666667
endloop
endfacet
facet normal 0.2427834501709315 0.9700805102274238 0
outer loop
vertex 9883.895333333336 12117.218000000003 199.99133333333336
vertex 9921.963333333335 12107.69066666667 599.9946666666667
vertex 9921.963333333335 12107.69066666667 199.99133333333336
endloop
endfacet
facet normal 0.14687298845418276 0.9891553595176731 0
outer loop
vertex 9921.963333333335 12107.69066666667 199.99133333333336
vertex 9921.963333333335 12107.69066666667 599.9946666666667
vertex 9960.796000000002 12101.92466666667 599.9946666666667
endloop
endfacet
facet normal 0.14687298845418276 0.9891553595176731 0
outer loop
vertex 9921.963333333335 12107.69066666667 199.99133333333336
vertex 9960.796000000002 12101.92466666667 599.9946666666667
vertex 9960.796000000002 12101.92466666667 199.99133333333336
endloop
endfacet
facet normal 0.04896596817034803 0.9988004475174911 0
outer loop
vertex 9960.796000000002 12101.92466666667 199.99133333333336
vertex 9960.796000000002 12101.92466666667 599.9946666666667
vertex 10000.000666666669 12100.002666666669 599.9946666666667
endloop
endfacet
facet normal 0.04896596817034803 0.9988004475174911 0
outer loop
vertex 9960.796000000002 12101.92466666667 199.99133333333336
vertex 10000.000666666669 12100.002666666669 599.9946666666667
vertex 10000.000666666669 12100.002666666669 199.99133333333336
endloop
endfacet
facet normal -1 0 0
outer loop
vertex 10000.000666666669 12500.006000000001 199.99133333333336
vertex 10000.000666666669 12100.002666666669 199.99133333333336
vertex 10000.000666666669 12100.002666666669 599.9946666666667
endloop
endfacet
facet normal -1 0 0
outer loop
vertex 10000.000666666669 12500.006000000001 199.99133333333336
vertex 10000.000666666669 12100.002666666669 599.9946666666667
vertex 10000.000666666669 12500.006000000001 599.9946666666667
endloop
endfacet
facet normal 0 1 0
outer loop
vertex 10000.000666666669 12500.006000000001 199.99133333333336
vertex 10000.000666666669 12500.006000000001 599.9946666666667
vertex 10400.004 12500.006000000001 599.9946666666667
endloop
endfacet
facet normal 0 1 0
outer loop
vertex 10000.000666666669 12500.006000000001 199.99133333333336
vertex 10400.004 12500.006000000001 599.9946666666667
vertex 10400.004 12500.006000000001 199.99133333333336
endloop
endfacet
facet normal 0 0 -1
outer loop
vertex 9601.919333333335 12460.801333333335 199.99133333333336
vertex 9599.997333333335 12460.801333333335 199.99133333333336
vertex 9599.997333333335 12500.006000000001 199.99133333333336
endloop
endfacet
facet normal 0 0 -0.9999999999999999
outer loop
vertex 9601.919333333335 12460.801333333335 199.99133333333336
vertex 9607.685333333335 12421.96866666667 199.99133333333336
vertex 9599.997333333335 12421.96866666667 199.99133333333336
endloop
endfacet
facet normal 0 0 -1
outer loop
vertex 9601.919333333335 12460.801333333335 199.99133333333336
vertex 9599.997333333335 12421.96866666667 199.99133333333336
vertex 9599.997333333335 12460.801333333335 199.99133333333336
endloop
endfacet
facet normal 0 0 -1
outer loop
vertex 9607.685333333335 12421.96866666667 199.99133333333336
vertex 9617.233333333335 12383.880000000003 199.99133333333336
vertex 9599.997333333335 12383.880000000003 199.99133333333336
endloop
endfacet
facet normal 0 0 -1
outer loop
vertex 9607.685333333335 12421.96866666667 199.99133333333336
vertex 9599.997333333335 12383.880000000003 199.99133333333336
vertex 9599.997333333335 12421.96866666667 199.99133333333336
endloop
endfacet
facet normal 0 0 -1
outer loop
vertex 9617.233333333335 12383.880000000003 199.99133333333336
vertex 9630.439333333336 12346.928000000002 199.99133333333336
vertex 9599.997333333335 12346.928000000002 199.99133333333336
endloop
endfacet
facet normal 0 0 -1
outer loop
vertex 9617.233333333335 12383.880000000003 199.99133333333336
vertex 9599.997333333335 12346.928000000002 199.99133333333336
vertex 9599.997333333335 12383.880000000003 199.99133333333336
endloop
endfacet
facet normal 0 0 -1
outer loop
vertex 9630.439333333336 12346.928000000002 199.99133333333336
vertex 9647.241333333335 12311.443333333335 199.99133333333336
vertex 9599.997333333335 12311.443333333335 199.99133333333336
endloop
endfacet
facet normal 0 0 -1
outer loop
vertex 9630.439333333336 12346.928000000002 199.99133333333336
vertex 9599.997333333335 12311.443333333335 199.99133333333336
vertex 9599.997333333335 12346.928000000002 199.99133333333336
endloop
endfacet
facet normal 0 0 -1
outer loop
vertex 9647.241333333335 12311.443333333335 199.99133333333336
vertex 9667.412000000002 12277.777333333335 199.99133333333336
vertex 9599.997333333335 12277.777333333335 199.99133333333336
endloop
endfacet
facet normal 0 0 -0.9999999999999999
outer loop
vertex 9647.241333333335 12311.443333333335 199.99133333333336
vertex 9599.997333333335 12277.777333333335 199.99133333333336
vertex 9599.997333333335 12311.443333333335 199.99133333333336
endloop
endfacet
facet normal 0 0 -1
outer loop
vertex 9667.412000000002 12277.777333333335 199.99133333333336
vertex 9690.786000000002 12246.240000000002 199.99133333333336
vertex 9599.997333333335 12246.240000000002 199.99133333333336
endloop
endfacet
facet normal 0 0 -1
outer loop
vertex 9667.412000000002 12277.777333333335 199.99133333333336
vertex 9599.997333333335 12246.240000000002 199.99133333333336
vertex 9599.997333333335 12277.777333333335 199.99133333333336
endloop
endfacet
facet normal 0 0 -1
outer loop
vertex 9690.786000000002 12246.240000000002 199.99133333333336
vertex 9717.156666666668 12217.162000000002 199.99133333333336
vertex 9599.997333333335 12217.162000000002 199.99133333333336
endloop
endfacet
facet normal 0 0 -1
outer loop
vertex 9690.786000000002 12246.240000000002 199.99133333333336
vertex 9599.997333333335 12217.162000000002 199.99133333333336
vertex 9599.997333333335 12246.240000000002 199.99133333333336
endloop
endfacet
facet normal 0 0 -0.9999999999999999
outer loop
vertex 9717.156666666668 12217.162000000002 199.99133333333336
vertex 9746.234666666669 12190.791333333334 199.99133333333336
vertex 9599.997333333335 12190.791333333334 199.99133333333336
endloop
endfacet
facet normal 0 0 -1
outer loop
vertex 9717.156666666668 12217.162000000002 199.99133333333336
vertex 9599.997333333335 12190.791333333334 199.99133333333336
vertex 9599.997333333335 12217.162000000002 199.99133333333336
endloop
endfacet
facet normal 0 0 -1
outer loop
vertex 9746.234666666669 12190.791333333334 199.99133333333336
vertex 9777.772 12167.417333333335 199.99133333333336
vertex 9599.997333333335 12167.417333333335 199.99133333333336
endloop
endfacet
facet normal 0 0 -1
outer loop
vertex 9746.234666666669 12190.791333333334 199.99133333333336
vertex 9599.997333333335 12167.417333333335 199.99133333333336
vertex 9599.997333333335 12190.791333333334 199.99133333333336
endloop
endfacet
facet normal 0 0 -1
outer loop
vertex 9777.772 12167.417333333335 199.99133333333336
vertex 9811.438000000002 12147.226000000002 199.99133333333336
vertex 9599.997333333335 12147.226000000002 199.99133333333336
endloop
endfacet
facet normal 0 0 -0.9999999999999999
outer loop
vertex 9777.772 12167.417333333335 199.99133333333336
vertex 9599.997333333335 12147.226000000002 199.99133333333336
vertex 9599.997333333335 12167.417333333335 199.99133333333336
endloop
endfacet
facet normal 0 0 -1
outer loop
vertex 9811.438000000002 12147.226000000002 199.99133333333336
vertex 9846.92266666667 12130.444666666668 199.99133333333336
vertex 9599.997333333335 12130.444666666668 199.99133333333336
endloop
endfacet
facet normal 0 0 -1
outer loop
vertex 9811.438000000002 12147.226000000002 199.99133333333336
vertex 9599.997333333335 12130.444666666668 199.99133333333336
vertex 9599.997333333335 12147.226000000002 199.99133333333336
endloop
endfacet
facet normal 0 0 -1
outer loop
vertex 9846.92266666667 12130.444666666668 199.99133333333336
vertex 9883.895333333336 12117.218000000003 199.99133333333336
vertex 9599.997333333335 12117.218000000003 199.99133333333336
endloop
endfacet
facet normal 0 0 -1
outer loop
vertex 9846.92266666667 12130.444666666668 199.99133333333336
vertex 9599.997333333335 12117.218000000003 199.99133333333336
vertex 9599.997333333335 12130.444666666668 199.99133333333336
endloop
endfacet
facet normal 0 0 -1
outer loop
vertex 9883.895333333336 12117.218000000003 199.99133333333336
vertex 9921.963333333335 12107.69066666667 199.99133333333336
vertex 9599.997333333335 12107.69066666667 199.99133333333336
endloop
endfacet
facet normal 0 0 -1
outer loop
vertex 9883.895333333336 12117.218000000003 199.99133333333336
vertex 9599.997333333335 12107.69066666667 199.99133333333336
vertex 9599.997333333335 12117.218000000003 199.99133333333336
endloop
endfacet
facet normal 0 0 -1
outer loop
vertex 9921.963333333335 12107.69066666667 199.99133333333336
vertex 9960.796000000002 12101.92466666667 199.99133333333336
vertex 9599.997333333335 12101.92466666667 199.99133333333336
endloop
endfacet
facet normal 0 0 -1
outer loop
vertex 9921.963333333335 12107.69066666667 199.99133333333336
vertex 9599.997333333335 12101.92466666667 199.99133333333336
vertex 9599.997333333335 12107.69066666667 199.99133333333336
endloop
endfacet
facet normal 0 0 -1
outer loop
vertex 9960.796000000002 12101.92466666667 199.99133333333336
vertex 10000.000666666669 12100.002666666669 199.99133333333336
vertex 9599.997333333335 12100.002666666669 199.99133333333336
endloop
endfacet
facet normal 0 0 -1
outer loop
vertex 9960.796000000002 12101.92466666667 199.99133333333336
vertex 9599.997333333335 12100.002666666669 199.99133333333336
vertex 9599.997333333335 12101.92466666667 199.99133333333336
endloop
endfacet
facet normal 0 0 -1
outer loop
vertex 10400.004 12500.006000000001 199.99133333333336
vertex 10400.004 12100.002666666669 199.99133333333336
vertex 10000.000666666669 12100.002666666669 199.99133333333336
endloop
endfacet
facet normal 0 0 -1
outer loop
vertex 10400.004 12500.006000000001 199.99133333333336
vertex 10000.000666666669 12100.002666666669 199.99133333333336
vertex 10000.000666666669 12500.006000000001 199.99133333333336
endloop
endfacet
facet normal 0 0 -0.9999999999999999
outer loop
vertex 10000.000666666669 10260.008000000002 199.99133333333336
vertex 10000.000666666669 12100.002666666669 199.99133333333336
vertex 10400.004 12100.002666666669 199.99133333333336
endloop
endfacet
facet normal 0 0 -1
outer loop
vertex 10000.000666666669 10260.008000000002 199.99133333333336
vertex 10400.004 12100.002666666669 199.99133333333336
vertex 10400.004 7499.995333333334 199.99133333333336
endloop
endfacet
facet normal 0 0 -1
outer loop
vertex 10000.000666666669 10260.008000000002 199.99133333333336
vertex 10400.004 7499.995333333334 199.99133333333336
vertex 9599.997333333335 7499.995333333334 199.99133333333336
endloop
endfacet
facet normal 0 0 -0.9999999999999999
outer loop
vertex 10000.000666666669 10260.008000000002 199.99133333333336
vertex 9599.997333333335 7499.995333333334 199.99133333333336
vertex 9599.997333333335 12100.002666666669 199.99133333333336
endloop
endfacet
facet normal 0 0 -1
outer loop
vertex 10000.000666666669 10260.008000000002 199.99133333333336
vertex 9599.997333333335 12100.002666666669 199.99133333333336
vertex 10000.000666666669 12100.002666666669 199.99133333333336
endloop
endfacet
facet normal 0 0 1
outer loop
vertex 9599.997333333335 12460.801333333335 599.9946666666667
vertex 9601.919333333335 12460.801333333335 599.9946666666667
vertex 9599.997333333335 12500.006000000001 599.9946666666667
endloop
endfacet
facet normal 0 0 0.9999999999999999
outer loop
vertex 9599.997333333335 12460.801333333335 599.9946666666667
vertex 9599.997333333335 12421.96866666667 599.9946666666667
vertex 9607.685333333335 12421.96866666667 599.9946666666667
endloop
endfacet
facet normal 0 0 1
outer loop
vertex 9599.997333333335 12460.801333333335 599.9946666666667
vertex 9607.685333333335 12421.96866666667 599.9946666666667
vertex 9601.919333333335 12460.801333333335 599.9946666666667
endloop
endfacet
facet normal 0 0 1
outer loop
vertex 9599.997333333335 12421.96866666667 599.9946666666667
vertex 9599.997333333335 12383.880000000003 599.9946666666667
vertex 9617.233333333335 12383.880000000003 599.9946666666667
endloop
endfacet
facet normal 0 0 1
outer loop
vertex 9599.997333333335 12421.96866666667 599.9946666666667
vertex 9617.233333333335 12383.880000000003 599.9946666666667
vertex 9607.685333333335 12421.96866666667 599.9946666666667
endloop
endfacet
facet normal 0 0 1
outer loop
vertex 9599.997333333335 12383.880000000003 599.9946666666667
vertex 9599.997333333335 12346.928000000002 599.9946666666667
vertex 9630.439333333336 12346.928000000002 599.9946666666667
endloop
endfacet
facet normal 0 0 1
outer loop
vertex 9599.997333333335 12383.880000000003 599.9946666666667
vertex 9630.439333333336 12346.928000000002 599.9946666666667
vertex 9617.233333333335 12383.880000000003 599.9946666666667
endloop
endfacet
facet normal 0 0 1
outer loop
vertex 9599.997333333335 12346.928000000002 599.9946666666667
vertex 9599.997333333335 12311.443333333335 599.9946666666667
vertex 9647.241333333335 12311.443333333335 599.9946666666667
endloop
endfacet
facet normal 0 0 1
outer loop
vertex 9599.997333333335 12346.928000000002 599.9946666666667
vertex 9647.241333333335 12311.443333333335 599.9946666666667
vertex 9630.439333333336 12346.928000000002 599.9946666666667
endloop
endfacet
facet normal 0 0 1
outer loop
vertex 9599.997333333335 12311.443333333335 599.9946666666667
vertex 9599.997333333335 12277.777333333335 599.9946666666667
vertex 9667.412000000002 12277.777333333335 599.9946666666667
endloop
endfacet
facet normal 0 0 0.9999999999999999
outer loop
vertex 9599.997333333335 12311.443333333335 599.9946666666667
vertex 9667.412000000002 12277.777333333335 599.9946666666667
vertex 9647.241333333335 12311.443333333335 599.9946666666667
endloop
endfacet
facet normal 0 0 1
outer loop
vertex 9599.997333333335 12277.777333333335 599.9946666666667
vertex 9599.997333333335 12246.240000000002 599.9946666666667
vertex 9690.786000000002 12246.240000000002 599.9946666666667
endloop
endfacet
facet normal 0 0 1
outer loop
vertex 9599.997333333335 12277.777333333335 599.9946666666667
vertex 9690.786000000002 12246.240000000002 599.9946666666667
vertex 9667.412000000002 12277.777333333335 599.9946666666667
endloop
endfacet
facet normal 0 0 1
outer loop
vertex 9599.997333333335 12246.240000000002 599.9946666666667
vertex 9599.997333333335 12217.162000000002 599.9946666666667
vertex 9717.156666666668 12217.162000000002 599.9946666666667
endloop
endfacet
facet normal 0 0 1
outer loop
vertex 9599.997333333335 12246.240000000002 599.9946666666667
vertex 9717.156666666668 12217.162000000002 599.9946666666667
vertex 9690.786000000002 12246.240000000002 599.9946666666667
endloop
endfacet
facet normal 0 0 0.9999999999999999
outer loop
vertex 9599.997333333335 12217.162000000002 599.9946666666667
vertex 9599.997333333335 12190.791333333334 599.9946666666667
vertex 9746.234666666669 12190.791333333334 599.9946666666667
endloop
endfacet
facet normal 0 0 1
outer loop
vertex 9599.997333333335 12217.162000000002 599.9946666666667
vertex 9746.234666666669 12190.791333333334 599.9946666666667
vertex 9717.156666666668 12217.162000000002 599.9946666666667
endloop
endfacet
facet normal 0 0 1
outer loop
vertex 9599.997333333335 12190.791333333334 599.9946666666667
vertex 9599.997333333335 12167.417333333335 599.9946666666667
vertex 9777.772 12167.417333333335 599.9946666666667
endloop
endfacet
facet normal 0 0 1
outer loop
vertex 9599.997333333335 12190.791333333334 599.9946666666667
vertex 9777.772 12167.417333333335 599.9946666666667
vertex 9746.234666666669 12190.791333333334 599.9946666666667
endloop
endfacet
facet normal 0 0 1
outer loop
vertex 9599.997333333335 12167.417333333335 599.9946666666667
vertex 9599.997333333335 12147.226000000002 599.9946666666667
vertex 9811.438000000002 12147.226000000002 599.9946666666667
endloop
endfacet
facet normal 0 0 0.9999999999999999
outer loop
vertex 9599.997333333335 12167.417333333335 599.9946666666667
vertex 9811.438000000002 12147.226000000002 599.9946666666667
vertex 9777.772 12167.417333333335 599.9946666666667
endloop
endfacet
facet normal 0 0 1
outer loop
vertex 9599.997333333335 12147.226000000002 599.9946666666667
vertex 9599.997333333335 12130.444666666668 599.9946666666667
vertex 9846.92266666667 12130.444666666668 599.9946666666667
endloop
endfacet
facet normal 0 0 1
outer loop
vertex 9599.997333333335 12147.226000000002 599.9946666666667
vertex 9846.92266666667 12130.444666666668 599.9946666666667
vertex 9811.438000000002 12147.226000000002 599.9946666666667
endloop
endfacet
facet normal 0 0 1
outer loop
vertex 9599.997333333335 12130.444666666668 599.9946666666667
vertex 9599.997333333335 12117.218000000003 599.9946666666667
vertex 9883.895333333336 12117.218000000003 599.9946666666667
endloop
endfacet
facet normal 0 0 1
outer loop
vertex 9599.997333333335 12130.444666666668 599.9946666666667
vertex 9883.895333333336 12117.218000000003 599.9946666666667
vertex 9846.92266666667 12130.444666666668 599.9946666666667
endloop
endfacet
facet normal 0 0 1
outer loop
vertex 9599.997333333335 12117.218000000003 599.9946666666667
vertex 9599.997333333335 12107.69066666667 599.9946666666667
vertex 9921.963333333335 12107.69066666667 599.9946666666667
endloop
endfacet
facet normal 0 0 1
outer loop
vertex 9599.997333333335 12117.218000000003 599.9946666666667
vertex 9921.963333333335 12107.69066666667 599.9946666666667
vertex 9883.895333333336 12117.218000000003 599.9946666666667
endloop
endfacet
facet normal 0 0 1
outer loop
vertex 9599.997333333335 12107.69066666667 599.9946666666667
vertex 9599.997333333335 12101.92466666667 599.9946666666667
vertex 9960.796000000002 12101.92466666667 599.9946666666667
endloop
endfacet
facet normal 0 0 1
outer loop
vertex 9599.997333333335 12107.69066666667 599.9946666666667
vertex 9960.796000000002 12101.92466666667 599.9946666666667
vertex 9921.963333333335 12107.69066666667 599.9946666666667
endloop
endfacet
facet normal 0 0 1
outer loop
vertex 10000.000666666669 12500.006000000001 599.9946666666667
vertex 10000.000666666669 12100.002666666669 599.9946666666667
vertex 10400.004 12100.002666666669 599.9946666666667
endloop
endfacet
facet normal 0 0 1
outer loop
vertex 10000.000666666669 12500.006000000001 599.9946666666667
vertex 10400.004 12100.002666666669 599.9946666666667
vertex 10400.004 12500.006000000001 599.9946666666667
endloop
endfacet
facet normal 0 0 1
outer loop
vertex 9599.997333333335 12101.92466666667 599.9946666666667
vertex 9599.997333333335 12100.002666666669 599.9946666666667
vertex 10000.000666666669 12100.002666666669 599.9946666666667
endloop
endfacet
facet normal 0 0 1
outer loop
vertex 9599.997333333335 12101.92466666667 599.9946666666667
vertex 10000.000666666669 12100.002666666669 599.9946666666667
vertex 9960.796000000002 12101.92466666667 599.9946666666667
endloop
endfacet
facet normal 0 0 1
outer loop
vertex 10000.000666666669 10260.008000000002 599.9946666666667
vertex 10000.000666666669 12100.002666666669 599.9946666666667
vertex 9599.997333333335 12100.002666666669 599.9946666666667
endloop
endfacet
facet normal 0 0 0.9999999999999999
outer loop
vertex 10000.000666666669 10260.008000000002 599.9946666666667
vertex 9599.997333333335 12100.002666666669 599.9946666666667
vertex 9599.997333333335 7499.995333333334 599.9946666666667
endloop
endfacet
facet normal 0 0 1
outer loop
vertex 10000.000666666669 10260.008000000002 599.9946666666667
vertex 9599.997333333335 7499.995333333334 599.9946666666667
vertex 10400.004 7499.995333333334 599.9946666666667
endloop
endfacet
facet normal 0 0 1
outer loop
vertex 10000.000666666669 10260.008000000002 599.9946666666667
vertex 10400.004 7499.995333333334 599.9946666666667
vertex 10400.004 12100.002666666669 599.9946666666667
endloop
endfacet
facet normal 0 0 0.9999999999999999
outer loop
vertex 10000.000666666669 10260.008000000002 599.9946666666667
vertex 10400.004 12100.002666666669 599.9946666666667
vertex 10000.000666666669 12100.002666666669 599.9946666666667
endloop
endfacet
endsolid JSCAD
