solid JSCAD
facet normal -1 0 0
outer loop
vertex 0 0 0
vertex 0 0 3999.9700000000003
vertex 0 15000.050000000001 3999.9700000000003
endloop
endfacet
facet normal -1 0 0
outer loop
vertex 0 0 0
vertex 0 15000.050000000001 3999.9700000000003
vertex 0 15000.050000000001 0
endloop
endfacet
facet normal 1 0 0
outer loop
vertex 19999.98 0 0
vertex 19999.98 15000.050000000001 0
vertex 19999.98 15000.050000000001 3999.9700000000003
endloop
endfacet
facet normal 1 0 0
outer loop
vertex 19999.98 0 0
vertex 19999.98 15000.050000000001 3999.9700000000003
vertex 19999.98 0 3999.9700000000003
endloop
endfacet
facet normal 0 -1 0
outer loop
vertex 0 0 0
vertex 19999.98 0 0
vertex 19999.98 0 3999.9700000000003
endloop
endfacet
facet normal 0 -1 0
outer loop
vertex 0 0 0
vertex 19999.98 0 3999.9700000000003
vertex 0 0 3999.9700000000003
endloop
endfacet
facet normal 0 1 0
outer loop
vertex 0 15000.050000000001 0
vertex 0 15000.050000000001 3999.9700000000003
vertex 19999.98 15000.050000000001 3999.9700000000003
endloop
endfacet
facet normal 0 1 0
outer loop
vertex 0 15000.050000000001 0
vertex 19999.98 15000.050000000001 3999.9700000000003
vertex 19999.98 15000.050000000001 0
endloop
endfacet
facet normal 0 0 -1
outer loop
vertex 0 0 0
vertex 0 15000.050000000001 0
vertex 19999.98 15000.050000000001 0
endloop
endfacet
facet normal 0 0 -1
outer loop
vertex 0 0 0
vertex 19999.98 15000.050000000001 0
vertex 19999.98 0 0
endloop
endfacet
facet normal 0 0 1
outer loop
vertex 0 0 3999.9700000000003
vertex 19999.98 0 3999.9700000000003
vertex 19999.98 15000.050000000001 3999.9700000000003
endloop
endfacet
facet normal 0 0 1
outer loop
vertex 0 0 3999.9700000000003
vertex 19999.98 15000.050000000001 3999.9700000000003
vertex 0 15000.050000000001 3999.9700000000003
endloop
endfacet
facet normal 0.44721359549995976 -0.894427190999915 0
outer loop
vertex 2678.9100000000003 12589.460000000001 199.94
vertex 2678.9100000000003 12589.460000000001 599.95
vertex 2321.15 12410.58 599.95
endloop
endfacet
facet normal 0.44721359549995976 -0.894427190999915 0
outer loop
vertex 2678.9100000000003 12589.460000000001 199.94
vertex 2321.15 12410.58 599.95
vertex 2321.15 12410.58 199.94
endloop
endfacet
facet normal 0.8944271910000504 0.4472135954996886 -6.138744853217663e-13
outer loop
vertex 3457.87 10137.01 1261.91
vertex 3453.84 10145.07 1257.49
vertex 3457.7400000000002 10137.27 1262.43
endloop
endfacet
facet normal 0.9084782108516699 0.4101130208990388 0.08046521296071457
outer loop
vertex 3722.6800000000003 9607.52 1257.49
vertex 3718.65 9615.58 1261.91
vertex 3718.78 9615.19 1262.43
endloop
endfacet
facet normal 0.8944271909999163 0.44721359549995726 -2.0769476171322117e-15
outer loop
vertex 3543.28 9966.19 911.0400000000001
vertex 3054.87 10943.01 280.54
vertex 2965.4300000000003 11121.890000000001 626.99
endloop
endfacet
facet normal 0.894427190999916 0.4472135954999579 1.182706281978066e-15
outer loop
vertex 3543.28 9966.19 911.0400000000001
vertex 2965.4300000000003 11121.890000000001 626.99
vertex 3453.84 10145.07 1257.49
endloop
endfacet
facet normal 0.8576291793703511 0.5002836879661793 0.11911516380166148
outer loop
vertex 3051.1 10950.68 275.47
vertex 3050.9700000000003 10950.81 275.86
vertex 3054.87 10943.01 280.54
endloop
endfacet
facet normal 0.8944626174772622 0.44714273318948816 -0.00004573356683704843
outer loop
vertex 4214.860000000001 8622.9 621.9200000000001
vertex 4125.42 8801.78 275.47
vertex 3633.2400000000002 9786.4 911.0400000000001
endloop
endfacet
facet normal 0.8944626174772621 0.44714273318948833 -0.000045733566838250475
outer loop
vertex 4214.860000000001 8622.9 621.9200000000001
vertex 3633.2400000000002 9786.4 911.0400000000001
vertex 3722.6800000000003 9607.52 1257.49
endloop
endfacet
facet normal 0.8944271909999156 0.44721359549995815 0
outer loop
vertex 2920.58 11211.720000000001 599.95
vertex 2920.58 11211.720000000001 199.94
vertex 2321.15 12410.58 199.94
endloop
endfacet
facet normal 0.8944271909999156 0.44721359549995815 0
outer loop
vertex 2920.58 11211.720000000001 599.95
vertex 2321.15 12410.58 199.94
vertex 2321.15 12410.58 599.95
endloop
endfacet
facet normal 0.8944477638950343 0.4471724473434975 0
outer loop
vertex 4821.05 7410.52 599.95
vertex 4821.05 7410.52 199.94
vertex 4255.9400000000005 8540.87 199.94
endloop
endfacet
facet normal 0.8944477638950343 0.4471724473434975 0
outer loop
vertex 4821.05 7410.52 599.95
vertex 4255.9400000000005 8540.87 199.94
vertex 4255.9400000000005 8540.87 599.95
endloop
endfacet
facet normal -0.8944094733466005 -0.4472490284672198 -0.000022868858699099238
outer loop
vertex 3987.1 9972.95 915.98
vertex 4479.41 8988.460000000001 280.54
vertex 4568.85 8809.58 626.99
endloop
endfacet
facet normal -0.8944094733466006 -0.4472490284672195 -0.00002286885870018685
outer loop
vertex 3987.1 9972.95 915.98
vertex 4568.85 8809.58 626.99
vertex 4076.54 9794.07 1262.43
endloop
endfacet
facet normal -0.8965211744911932 -0.4429869332780352 0.0035157693117106275
outer loop
vertex 4483.18 8980.79 275.47
vertex 4483.31 8980.53 275.86
vertex 4479.41 8988.460000000001 280.54
endloop
endfacet
facet normal -0.8944447679824329 -0.44717843923207035 -0.00002268967676615809
outer loop
vertex 3319.42 11308.44 621.9200000000001
vertex 3408.86 11129.56 275.47
vertex 3904.94 10137.27 915.98
endloop
endfacet
facet normal -0.8944447679824327 -0.44717843923207085 -0.000022689676768287894
outer loop
vertex 3319.42 11308.44 621.9200000000001
vertex 3904.94 10137.27 915.98
vertex 3815.5 10316.15 1262.43
endloop
endfacet
facet normal -0.8944066171583515 -0.44725474081708094 0
outer loop
vertex 4613.7 8719.75 599.95
vertex 4613.7 8719.75 199.94
vertex 5178.9400000000005 7589.400000000001 199.94
endloop
endfacet
facet normal -0.8944066171583515 -0.44725474081708094 0
outer loop
vertex 4613.7 8719.75 599.95
vertex 5178.9400000000005 7589.400000000001 199.94
vertex 5178.9400000000005 7589.400000000001 599.95
endloop
endfacet
facet normal -0.894427190999916 -0.44721359549995765 0
outer loop
vertex 2678.9100000000003 12589.460000000001 599.95
vertex 2678.9100000000003 12589.460000000001 199.94
vertex 3278.34 11390.6 199.94
endloop
endfacet
facet normal -0.894427190999916 -0.44721359549995765 0
outer loop
vertex 2678.9100000000003 12589.460000000001 599.95
vertex 3278.34 11390.6 199.94
vertex 3278.34 11390.6 599.95
endloop
endfacet
facet normal 0 0 1
outer loop
vertex 2859.7400000000002 11780.73 199.94
vertex 2321.15 12410.58 199.94
vertex 2920.58 11211.720000000001 199.94
endloop
endfacet
facet normal 0 0 1
outer loop
vertex 2859.7400000000002 11780.73 199.94
vertex 2920.58 11211.720000000001 199.94
vertex 3099.46 11301.16 199.94
endloop
endfacet
facet normal 0 0 1
outer loop
vertex 2859.7400000000002 11780.73 199.94
vertex 3099.46 11301.16 199.94
vertex 3278.34 11390.6 199.94
endloop
endfacet
facet normal 0 0 1
outer loop
vertex 2859.7400000000002 11780.73 199.94
vertex 3278.34 11390.6 199.94
vertex 2678.9100000000003 12589.460000000001 199.94
endloop
endfacet
facet normal 0 0 1
outer loop
vertex 2859.7400000000002 11780.73 199.94
vertex 2678.9100000000003 12589.460000000001 199.94
vertex 2321.15 12410.58 199.94
endloop
endfacet
facet normal 0 0 1
outer loop
vertex 4660.89 8178.17 199.94
vertex 4434.82 8630.31 199.94
vertex 4255.9400000000005 8540.87 199.94
endloop
endfacet
facet normal 0 0 1
outer loop
vertex 4660.89 8178.17 199.94
vertex 4255.9400000000005 8540.87 199.94
vertex 4821.05 7410.52 199.94
endloop
endfacet
facet normal 0 0 1
outer loop
vertex 4660.89 8178.17 199.94
vertex 4821.05 7410.52 199.94
vertex 5178.9400000000005 7589.400000000001 199.94
endloop
endfacet
facet normal 0 0 1
outer loop
vertex 4660.89 8178.17 199.94
vertex 5178.9400000000005 7589.400000000001 199.94
vertex 4613.7 8719.75 199.94
endloop
endfacet
facet normal 0 0 1
outer loop
vertex 4660.89 8178.17 199.94
vertex 4613.7 8719.75 199.94
vertex 4434.82 8630.31 199.94
endloop
endfacet
facet normal 0 0 -1
outer loop
vertex 2859.7400000000002 11780.73 599.95
vertex 3278.34 11390.6 599.95
vertex 3099.46 11301.16 599.95
endloop
endfacet
facet normal 0 0 -1
outer loop
vertex 2859.7400000000002 11780.73 599.95
vertex 3099.46 11301.16 599.95
vertex 2920.58 11211.720000000001 599.95
endloop
endfacet
facet normal 0 0 -1
outer loop
vertex 2859.7400000000002 11780.73 599.95
vertex 2920.58 11211.720000000001 599.95
vertex 2321.15 12410.58 599.95
endloop
endfacet
facet normal 0 0 -1
outer loop
vertex 2859.7400000000002 11780.73 599.95
vertex 2321.15 12410.58 599.95
vertex 2678.9100000000003 12589.460000000001 599.95
endloop
endfacet
facet normal 0 0 -1
outer loop
vertex 2859.7400000000002 11780.73 599.95
vertex 2678.9100000000003 12589.460000000001 599.95
vertex 3278.34 11390.6 599.95
endloop
endfacet
facet normal 0 0 -1
outer loop
vertex 4660.89 8178.17 599.95
vertex 5178.9400000000005 7589.400000000001 599.95
vertex 4821.05 7410.52 599.95
endloop
endfacet
facet normal 0 0 -1
outer loop
vertex 4660.89 8178.17 599.95
vertex 4821.05 7410.52 599.95
vertex 4255.9400000000005 8540.87 599.95
endloop
endfacet
facet normal 0 0 -1
outer loop
vertex 4660.89 8178.17 599.95
vertex 4255.9400000000005 8540.87 599.95
vertex 4434.82 8630.31 599.95
endloop
endfacet
facet normal 0 0 -1
outer loop
vertex 4660.89 8178.17 599.95
vertex 4434.82 8630.31 599.95
vertex 4613.7 8719.75 599.95
endloop
endfacet
facet normal 0 0 -1
outer loop
vertex 4660.89 8178.17 599.95
vertex 4613.7 8719.75 599.95
vertex 5178.9400000000005 7589.400000000001 599.95
endloop
endfacet
facet normal -0.014806692656958737 0.029613385313917925 0.9994517543447565
outer loop
vertex 2927.6 11197.68 200.46
vertex 3099.46 11301.16 199.94
vertex 2920.58 11211.720000000001 199.94
endloop
endfacet
facet normal -0.014806692656959008 0.02961338531391779 0.9994517543447566
outer loop
vertex 2927.6 11197.68 200.46
vertex 2920.58 11211.720000000001 199.94
vertex 2741.7000000000003 11122.28 199.94
endloop
endfacet
facet normal -0.014806692656959417 0.029613385313918803 0.9994517543447565
outer loop
vertex 2927.6 11197.68 200.46
vertex 2741.7000000000003 11122.28 199.94
vertex 2759.25 11087.18 201.24
endloop
endfacet
facet normal -0.01480669265695904 0.029613385313918238 0.9994517543447567
outer loop
vertex 2927.6 11197.68 200.46
vertex 2759.25 11087.18 201.24
vertex 3117.01 11266.06 201.24
endloop
endfacet
facet normal -0.014806692656959218 0.029613385313918727 0.9994517543447565
outer loop
vertex 2927.6 11197.68 200.46
vertex 3117.01 11266.06 201.24
vertex 3099.46 11301.16 199.94
endloop
endfacet
facet normal -0.04429155312083574 0.08858310624167193 0.9950835601147878
outer loop
vertex 3117.01 11266.06 201.24
vertex 2759.25 11087.18 201.24
vertex 2776.67 11052.08 205.14000000000001
endloop
endfacet
facet normal -0.044213725376975786 0.08845958282181222 0.9950980095926634
outer loop
vertex 3117.01 11266.06 201.24
vertex 2776.67 11052.08 205.14000000000001
vertex 3134.56 11230.960000000001 205.14000000000001
endloop
endfacet
facet normal -0.07236501498343667 0.14478262082078483 0.9868137095291653
outer loop
vertex 3134.56 11230.960000000001 205.14000000000001
vertex 2776.67 11052.08 205.14000000000001
vertex 2794.09 11017.37 211.51000000000002
endloop
endfacet
facet normal -0.07249171136669913 0.14498342273339881 0.9867749281957036
outer loop
vertex 3134.56 11230.960000000001 205.14000000000001
vertex 2794.09 11017.37 211.51000000000002
vertex 3151.85 11196.25 211.51000000000002
endloop
endfacet
facet normal -0.10209413172580002 0.20418826345160082 0.9735933141388013
outer loop
vertex 3151.85 11196.25 211.51000000000002
vertex 2794.09 11017.37 211.51000000000002
vertex 2811.25 10983.18 220.48000000000002
endloop
endfacet
facet normal -0.10209413172579936 0.2041882634515998 0.9735933141388017
outer loop
vertex 3151.85 11196.25 211.51000000000002
vertex 2811.25 10983.18 220.48000000000002
vertex 3169.01 11162.06 220.48000000000002
endloop
endfacet
facet normal -0.1301272648267331 0.2602545296534675 0.9567311402601911
outer loop
vertex 3169.01 11162.06 220.48000000000002
vertex 2811.25 10983.18 220.48000000000002
vertex 2828.02 10949.51 231.92000000000002
endloop
endfacet
facet normal -0.13012726482673934 0.2602545296534774 0.9567311402601877
outer loop
vertex 3169.01 11162.06 220.48000000000002
vertex 2828.02 10949.51 231.92000000000002
vertex 3185.78 11128.390000000001 231.92000000000002
endloop
endfacet
facet normal -0.15682309470683967 0.31364618941367767 0.9365001787681885
outer loop
vertex 3185.78 11128.390000000001 231.92000000000002
vertex 2828.02 10949.51 231.92000000000002
vertex 2844.53 10916.62 245.70000000000002
endloop
endfacet
facet normal -0.15682309470683328 0.31364618941366773 0.9365001787681929
outer loop
vertex 3185.78 11128.390000000001 231.92000000000002
vertex 2844.53 10916.62 245.70000000000002
vertex 3202.29 11095.5 245.70000000000002
endloop
endfacet
facet normal -0.1845404955007959 0.3690809910015932 0.9108918857919431
outer loop
vertex 3202.29 11095.5 245.70000000000002
vertex 2844.53 10916.62 245.70000000000002
vertex 2860.52 10884.51 261.95
endloop
endfacet
facet normal -0.18454049550080323 0.3690809910016045 0.9108918857919371
outer loop
vertex 3202.29 11095.5 245.70000000000002
vertex 2860.52 10884.51 261.95
vertex 3218.28 11063.390000000001 261.95
endloop
endfacet
facet normal 0.20975595930012092 -0.41951191860023973 -0.8831829865268194
outer loop
vertex 2963.35 11126.050000000001 624.52
vertex 2965.4300000000003 11121.890000000001 626.99
vertex 2786.55 11032.45 626.99
endloop
endfacet
facet normal 0.21332597789751298 -0.4261486306407248 -0.8791412695108249
outer loop
vertex 2963.35 11126.050000000001 624.52
vertex 2786.55 11032.45 626.99
vertex 2781.35 11042.720000000001 620.75
endloop
endfacet
facet normal 0.2153828272155565 -0.43076565443111514 -0.8763852969460217
outer loop
vertex 2963.35 11126.050000000001 624.52
vertex 2781.35 11042.720000000001 620.75
vertex 3139.11 11221.6 620.75
endloop
endfacet
facet normal 0.2129240566696239 -0.42635155619657567 -0.8791403167982397
outer loop
vertex 2963.35 11126.050000000001 624.52
vertex 3139.11 11221.6 620.75
vertex 3144.31 11211.33 626.99
endloop
endfacet
facet normal 0.20975595930011792 -0.41951191860024123 -0.8831829865268194
outer loop
vertex 2963.35 11126.050000000001 624.52
vertex 3144.31 11211.33 626.99
vertex 2965.4300000000003 11121.890000000001 626.99
endloop
endfacet
facet normal 0.18477119272128106 -0.36954238544256024 -0.9106580212691137
outer loop
vertex 2781.35 11042.720000000001 620.75
vertex 2776.02 11053.51 615.2900000000001
vertex 3133.78 11232.390000000001 615.2900000000001
endloop
endfacet
facet normal 0.18477119272125914 -0.36954238544252016 -0.9106580212691344
outer loop
vertex 2781.35 11042.720000000001 620.75
vertex 3133.78 11232.390000000001 615.2900000000001
vertex 3139.11 11221.6 620.75
endloop
endfacet
facet normal 0.15875213447110526 -0.3175042689422089 -0.9348736807742218
outer loop
vertex 2776.02 11053.51 615.2900000000001
vertex 2770.56 11064.56 610.61
vertex 3128.32 11243.44 610.61
endloop
endfacet
facet normal 0.15875213447110542 -0.3175042689422092 -0.9348736807742215
outer loop
vertex 2776.02 11053.51 615.2900000000001
vertex 3128.32 11243.44 610.61
vertex 3133.78 11232.390000000001 615.2900000000001
endloop
endfacet
facet normal 0.12913783876137958 -0.2582756775227575 -0.9574012184033404
outer loop
vertex 2770.56 11064.56 610.61
vertex 2764.9700000000003 11075.74 606.84
vertex 3122.73 11254.62 606.84
endloop
endfacet
facet normal 0.12913783876137744 -0.25827567752275354 -0.9574012184033417
outer loop
vertex 2770.56 11064.56 610.61
vertex 3122.73 11254.62 606.84
vertex 3128.32 11243.44 610.61
endloop
endfacet
facet normal 0.10133455654758278 -0.20274275739498324 -0.9739746824087286
outer loop
vertex 2764.9700000000003 11075.74 606.84
vertex 2759.12 11087.18 603.85
vertex 3117.01 11266.06 603.85
endloop
endfacet
facet normal 0.10180080961794837 -0.20360161923589543 -0.9737468746063587
outer loop
vertex 2764.9700000000003 11075.74 606.84
vertex 3117.01 11266.06 603.85
vertex 3122.73 11254.62 606.84
endloop
endfacet
facet normal 0.07053456158585793 -0.14106912317171658 -0.9874838622020382
outer loop
vertex 2759.12 11087.18 603.85
vertex 2753.4 11098.880000000001 601.77
vertex 3111.1600000000003 11277.76 601.77
endloop
endfacet
facet normal 0.07020841275861403 -0.1404678490730127 -0.9875928119193241
outer loop
vertex 2759.12 11087.18 603.85
vertex 3111.1600000000003 11277.76 601.77
vertex 3117.01 11266.06 603.85
endloop
endfacet
facet normal 0.044226578208686744 -0.08845315641737293 -0.9950980096954041
outer loop
vertex 2753.4 11098.880000000001 601.77
vertex 2747.55 11110.58 600.47
vertex 3105.31 11289.460000000001 600.47
endloop
endfacet
facet normal 0.044226578208680194 -0.08845315641736083 -0.9950980096954055
outer loop
vertex 2753.4 11098.880000000001 601.77
vertex 3105.31 11289.460000000001 600.47
vertex 3111.1600000000003 11277.76 601.77
endloop
endfacet
facet normal 0.01799612176455907 -0.035411307030261956 -0.9992107780322645
outer loop
vertex 2922.92 11207.04 600.21
vertex 2747.55 11110.58 600.47
vertex 2741.7000000000003 11122.28 599.95
endloop
endfacet
facet normal 0.02219483808092175 -0.04438967616184315 -0.9987677136415696
outer loop
vertex 2922.92 11207.04 600.21
vertex 2741.7000000000003 11122.28 599.95
vertex 2920.58 11211.720000000001 599.95
endloop
endfacet
facet normal 0.02219483808092134 -0.044389676161843354 -0.9987677136415696
outer loop
vertex 2922.92 11207.04 600.21
vertex 2920.58 11211.720000000001 599.95
vertex 3099.46 11301.16 599.95
endloop
endfacet
facet normal 0.017531372565476322 -0.03564368162980881 -0.9992107780322643
outer loop
vertex 2922.92 11207.04 600.21
vertex 3099.46 11301.16 599.95
vertex 3105.31 11289.460000000001 600.47
endloop
endfacet
facet normal 0.014806692656958186 -0.02961338531391618 -0.9994517543447567
outer loop
vertex 2922.92 11207.04 600.21
vertex 3105.31 11289.460000000001 600.47
vertex 2747.55 11110.58 600.47
endloop
endfacet
facet normal 0.894670149432717 0.4467260918142306 -0.0010595312280924393
outer loop
vertex 3409.38 9786.79 1237.6000000000001
vertex 3444.48 9716.720000000001 1332.76
vertex 3478.9300000000003 9647.69 1317.55
endloop
endfacet
facet normal 0.894427190999916 0.447213595499958 0
outer loop
vertex 3409.38 9786.79 1237.6000000000001
vertex 3478.9300000000003 9647.69 1317.55
vertex 3512.21 9581.130000000001 1292.2
endloop
endfacet
facet normal 0.8943066031201571 0.4474532635253011 0.0011298567356717536
outer loop
vertex 3409.38 9786.79 1237.6000000000001
vertex 3512.21 9581.130000000001 1292.2
vertex 3543.8 9518.08 1257.49
endloop
endfacet
facet normal 0.8943427995087098 0.44738233272465494 -0.0000730258179173281
outer loop
vertex 3409.38 9786.79 1237.6000000000001
vertex 3543.8 9518.08 1257.49
vertex 3461.25 9683.050000000001 937.95
endloop
endfacet
facet normal 0.8945391861822314 0.4469895244667648 0.00009696085129371622
outer loop
vertex 3409.38 9786.79 1237.6000000000001
vertex 3461.25 9683.050000000001 937.95
vertex 3357.51 9890.66 937.95
endloop
endfacet
facet normal 0.8944327731500765 0.44720239101580567 0.0001891687352475012
outer loop
vertex 3409.38 9786.79 1237.6000000000001
vertex 3357.51 9890.66 937.95
vertex 3274.96 10055.630000000001 1257.49
endloop
endfacet
facet normal 0.894382518025257 0.4473004935636758 -0.0014764513174230357
outer loop
vertex 3409.38 9786.79 1237.6000000000001
vertex 3274.96 10055.630000000001 1257.49
vertex 3306.55 9992.58 1292.2
endloop
endfacet
facet normal 0.8944937054539902 0.44708032805034004 -0.000437234022807342
outer loop
vertex 3409.38 9786.79 1237.6000000000001
vertex 3306.55 9992.58 1292.2
vertex 3339.83 9926.02 1317.55
endloop
endfacet
facet normal 0.8947167505945506 0.4466336870432619 0.000534606089030439
outer loop
vertex 3409.38 9786.79 1237.6000000000001
vertex 3339.83 9926.02 1317.55
vertex 3374.28 9856.99 1332.76
endloop
endfacet
facet normal 0.8944271909999135 0.44721359549996254 0
outer loop
vertex 3409.38 9786.79 1237.6000000000001
vertex 3374.28 9856.99 1332.76
vertex 3409.38 9786.79 1337.96
endloop
endfacet
facet normal 0.8940951841504097 0.44787699391579033 0
outer loop
vertex 3409.38 9786.79 1237.6000000000001
vertex 3409.38 9786.79 1337.96
vertex 3444.48 9716.720000000001 1332.76
endloop
endfacet
facet normal 0.8932472606913486 0.44735460191743553 0.044533037294743304
outer loop
vertex 3409.38 9786.79 937.95
vertex 3397.6800000000003 9810.32 936.26
vertex 3357.9 9889.75 936.26
endloop
endfacet
facet normal 0.8941310706039453 0.446506003968682 -0.03408837045917379
outer loop
vertex 3409.38 9786.79 937.95
vertex 3357.9 9889.75 936.26
vertex 3357.51 9890.66 937.95
endloop
endfacet
facet normal 0.8935938994118496 0.44752820494275997 0.034762748951086976
outer loop
vertex 3461.25 9683.050000000001 937.95
vertex 3460.86 9683.960000000001 936.26
vertex 3421.08 9763.390000000001 936.26
endloop
endfacet
facet normal 0.894427190999916 0.447213595499958 0
outer loop
vertex 3461.25 9683.050000000001 937.95
vertex 3421.08 9763.390000000001 936.26
vertex 3409.38 9786.79 937.95
endloop
endfacet
facet normal 0.8943712945407167 0.44718564727035837 -0.01117964118176816
outer loop
vertex 3397.6800000000003 9810.32 936.26
vertex 3386.11 9833.33 931.0600000000001
vertex 3359.2000000000003 9887.15 931.0600000000001
endloop
endfacet
facet normal 0.8941342606262922 0.4477988277441011 -0.00036584871547692624
outer loop
vertex 3397.6800000000003 9810.32 936.26
vertex 3359.2000000000003 9887.15 931.0600000000001
vertex 3357.9 9889.75 936.26
endloop
endfacet
facet normal 0.8939937141977532 0.44807917394414576 0.0005411584224778622
outer loop
vertex 3460.86 9683.960000000001 936.26
vertex 3459.56 9686.56 931.0600000000001
vertex 3432.65 9740.25 931.0600000000001
endloop
endfacet
facet normal 0.8941295807466307 0.4477964839745816 -0.003256036525714137
outer loop
vertex 3460.86 9683.960000000001 936.26
vertex 3432.65 9740.25 931.0600000000001
vertex 3421.08 9763.390000000001 936.26
endloop
endfacet
facet normal 0.89442719099991 0.44721359549997003 8.767141375762008e-14
outer loop
vertex 3386.11 9833.33 931.0600000000001
vertex 3374.9300000000003 9855.69 922.61
vertex 3361.4100000000003 9882.73 922.61
endloop
endfacet
facet normal 0.8944271909999159 0.4472135954999579 0
outer loop
vertex 3386.11 9833.33 931.0600000000001
vertex 3361.4100000000003 9882.73 922.61
vertex 3359.2000000000003 9887.15 931.0600000000001
endloop
endfacet
facet normal 0.8944271909999219 0.44721359549994594 -7.843698819685129e-15
outer loop
vertex 3459.56 9686.56 931.0600000000001
vertex 3457.35 9690.98 922.61
vertex 3443.83 9718.02 922.61
endloop
endfacet
facet normal 0.8939865871810804 0.44807560180745976 0.004029516746117851
outer loop
vertex 3459.56 9686.56 931.0600000000001
vertex 3443.83 9718.02 922.61
vertex 3432.65 9740.25 931.0600000000001
endloop
endfacet
facet normal 0.89442719099991 0.44721359549997003 -7.80057066456903e-15
outer loop
vertex 3374.9300000000003 9855.69 922.61
vertex 3364.4 9876.75 911.0400000000001
vertex 3361.4100000000003 9882.73 922.61
endloop
endfacet
facet normal 0.8944271909999219 0.44721359549994594 6.252644923318277e-14
outer loop
vertex 3457.35 9690.98 922.61
vertex 3454.36 9696.960000000001 911.0400000000001
vertex 3443.83 9718.02 922.61
endloop
endfacet
facet normal 0.8909637635737626 0.45404884105202054 0.004818914586641115
outer loop
vertex 2788.2400000000002 11029.2 620.75
vertex 2781.35 11042.720000000001 620.75
vertex 2786.55 11032.45 626.99
endloop
endfacet
facet normal 0.8950997819339289 0.4454085039288433 -0.020190220645217787
outer loop
vertex 2788.2400000000002 11029.2 620.75
vertex 2789.54 11026.34 615.2900000000001
vertex 2776.02 11053.51 615.2900000000001
endloop
endfacet
facet normal 0.8906364945645748 0.4538820597300306 0.027526540010528257
outer loop
vertex 2788.2400000000002 11029.2 620.75
vertex 2776.02 11053.51 615.2900000000001
vertex 2781.35 11042.720000000001 620.75
endloop
endfacet
facet normal 0.8941512609637293 0.4470756304818747 0.024837535026785783
outer loop
vertex 2789.54 11026.34 615.2900000000001
vertex 2790.84 11024 610.61
vertex 2770.56 11064.56 610.61
endloop
endfacet
facet normal 0.8952579169244784 0.4454871931107434 0.007377191766176402
outer loop
vertex 2789.54 11026.34 615.2900000000001
vertex 2770.56 11064.56 610.61
vertex 2776.02 11053.51 615.2900000000001
endloop
endfacet
facet normal 0.8947612225806857 0.4462973652581695 -0.01486661795879306
outer loop
vertex 2790.84 11024 610.61
vertex 2791.75 11022.050000000001 606.84
vertex 2764.9700000000003 11075.74 606.84
endloop
endfacet
facet normal 0.8944271909999119 0.447213595499966 1.3698818253276398e-13
outer loop
vertex 2790.84 11024 610.61
vertex 2764.9700000000003 11075.74 606.84
vertex 2770.56 11064.56 610.61
endloop
endfacet
facet normal 0.8940782583518956 0.4479105504803851 -0.00045465459375579337
outer loop
vertex 2791.75 11022.050000000001 606.84
vertex 2792.53 11020.49 603.85
vertex 2759.12 11087.18 603.85
endloop
endfacet
facet normal 0.8940319676284603 0.4459336206573016 -0.04301217067125813
outer loop
vertex 2791.75 11022.050000000001 606.84
vertex 2759.12 11087.18 603.85
vertex 2764.9700000000003 11075.74 606.84
endloop
endfacet
facet normal 0.8946818016314178 0.4458790024470237 -0.02713648846861933
outer loop
vertex 2792.53 11020.49 603.85
vertex 2793.05 11019.32 601.77
vertex 2753.4 11098.880000000001 601.77
endloop
endfacet
facet normal 0.8924313677057238 0.44708550000072395 0.06066967631357337
outer loop
vertex 2792.53 11020.49 603.85
vertex 2753.4 11098.880000000001 601.77
vertex 2759.12 11087.18 603.85
endloop
endfacet
facet normal 0.8937736265801928 0.4462547244452725 0.0450047257514605
outer loop
vertex 2793.05 11019.32 601.77
vertex 2793.44 11018.67 600.47
vertex 2747.55 11110.58 600.47
endloop
endfacet
facet normal 0.894933886365017 0.44600463291066395 -0.013160792446912154
outer loop
vertex 2793.05 11019.32 601.77
vertex 2747.55 11110.58 600.47
vertex 2753.4 11098.880000000001 601.77
endloop
endfacet
facet normal 0.8946169573594496 0.44683379415501273 0.00024496113221628856
outer loop
vertex 2798.77 11008.140000000001 342.68
vertex 2793.44 11018.67 600.47
vertex 2875.9900000000002 10853.57 280.54
endloop
endfacet
facet normal 0.8945172579169194 0.44703325893636053 -0.0003750913654519114
outer loop
vertex 2798.77 11008.140000000001 342.68
vertex 2875.9900000000002 10853.57 280.54
vertex 2860.52 10884.51 261.95
endloop
endfacet
facet normal 0.894916470152245 0.4462321960278183 0.0011570127211878581
outer loop
vertex 2798.77 11008.140000000001 342.68
vertex 2860.52 10884.51 261.95
vertex 2844.53 10916.62 245.70000000000002
endloop
endfacet
facet normal 0.8944271909999141 0.4472135954999616 -4.246951954712349e-15
outer loop
vertex 2798.77 11008.140000000001 342.68
vertex 2844.53 10916.62 245.70000000000002
vertex 2811.25 10983.18 220.48000000000002
endloop
endfacet
facet normal 0.8937811006002708 0.44850332851964536 -0.0003294185299457954
outer loop
vertex 2798.77 11008.140000000001 342.68
vertex 2811.25 10983.18 220.48000000000002
vertex 2794.09 11017.37 211.51000000000002
endloop
endfacet
facet normal 0.8937808918414056 0.44850374456274866 -0.0003293818060810995
outer loop
vertex 2798.77 11008.140000000001 342.68
vertex 2794.09 11017.37 211.51000000000002
vertex 2776.67 11052.08 205.14000000000001
endloop
endfacet
facet normal 0.8951299989709673 0.44580298310170036 -0.0014089712067047405
outer loop
vertex 2798.77 11008.140000000001 342.68
vertex 2776.67 11052.08 205.14000000000001
vertex 2741.7000000000003 11122.28 199.94
endloop
endfacet
facet normal 0.8944271909999159 0.4472135954999579 0
outer loop
vertex 2798.77 11008.140000000001 342.68
vertex 2741.7000000000003 11122.28 199.94
vertex 2741.7000000000003 11122.28 599.95
endloop
endfacet
facet normal 0.8944271909999294 0.4472135954999308 1.5106535104267766e-14
outer loop
vertex 2798.77 11008.140000000001 342.68
vertex 2741.7000000000003 11122.28 599.95
vertex 2747.55 11110.58 600.47
endloop
endfacet
facet normal 0.8946801114644991 0.4467073258090068 0.00025143276828967136
outer loop
vertex 2798.77 11008.140000000001 342.68
vertex 2747.55 11110.58 600.47
vertex 2793.44 11018.67 600.47
endloop
endfacet
facet normal 0.8928730582594222 0.4480899977561016 0.04464365291285385
outer loop
vertex 2776.67 11052.08 205.14000000000001
vertex 2759.25 11087.18 201.24
vertex 2741.7000000000003 11122.28 199.94
endloop
endfacet
facet normal 0.9001733201261138 0.4332626114980139 -0.04440161270776068
outer loop
vertex 2844.53 10916.62 245.70000000000002
vertex 2828.02 10949.51 231.92000000000002
vertex 2811.25 10983.18 220.48000000000002
endloop
endfacet
facet normal -0.8973944094075341 -0.4391332108173327 0.04295692169328159
outer loop
vertex 3134.56 11230.960000000001 205.14000000000001
vertex 3151.85 11196.25 211.51000000000002
vertex 3169.01 11162.06 220.48000000000002
endloop
endfacet
facet normal -0.9001733201260351 -0.43326261149825546 0.0444016127070006
outer loop
vertex 3169.01 11162.06 220.48000000000002
vertex 3185.78 11128.390000000001 231.92000000000002
vertex 3202.29 11095.5 245.70000000000002
endloop
endfacet
facet normal 0.44721359549996065 -0.8944271909999144 0
outer loop
vertex 2741.7000000000003 11122.28 599.95
vertex 2741.7000000000003 11122.28 199.94
vertex 2920.58 11211.720000000001 199.94
endloop
endfacet
facet normal 0.44721359549996065 -0.8944271909999144 0
outer loop
vertex 2741.7000000000003 11122.28 599.95
vertex 2920.58 11211.720000000001 199.94
vertex 2920.58 11211.720000000001 599.95
endloop
endfacet
facet normal -0.44721359549995976 0.894427190999915 0
outer loop
vertex 3099.46 11301.16 599.95
vertex 3278.34 11390.6 599.95
vertex 3278.34 11390.6 199.94
endloop
endfacet
facet normal -0.44721359549995976 0.894427190999915 0
outer loop
vertex 3099.46 11301.16 599.95
vertex 3278.34 11390.6 199.94
vertex 3099.46 11301.16 199.94
endloop
endfacet
facet normal 0.38683444508394693 -0.7747934089036158 0.5000542826695014
outer loop
vertex 3319.42 11308.44 621.9200000000001
vertex 3229.85 11263.720000000001 621.9200000000001
vertex 3229.85 11040.12 275.47
endloop
endfacet
facet normal 0.38708734840912495 -0.7747373237781593 0.49994546087213176
outer loop
vertex 3319.42 11308.44 621.9200000000001
vertex 3229.85 11040.12 275.47
vertex 3408.86 11129.56 275.47
endloop
endfacet
facet normal 0.38773865783332256 -0.7743501684054811 0.5000405482678545
outer loop
vertex 3229.85 11263.720000000001 621.9200000000001
vertex 3140.54 11219 621.9200000000001
vertex 3229.85 11040.25 275.86
endloop
endfacet
facet normal 0.40824829046420247 -0.8164965809283988 0.4082482904621779
outer loop
vertex 3229.85 11040.25 275.86
vertex 3050.9700000000003 10950.81 275.86
vertex 3051.1 10950.68 275.47
endloop
endfacet
facet normal 0.42882581702645306 -0.8570283407142 0.2856761135696512
outer loop
vertex 3229.85 11040.25 275.86
vertex 3051.1 10950.68 275.47
vertex 3229.85 11040.12 275.47
endloop
endfacet
facet normal 0.22363439708753485 -0.44712063766842497 -0.8660662744907435
outer loop
vertex 3376.23 10749.44 925.34
vertex 3457.7400000000002 10137.27 1262.43
vertex 3144.31 10764.130000000001 857.87
endloop
endfacet
facet normal 0.2236011978995938 -0.44728776555023975 -0.8659885444317035
outer loop
vertex 3376.23 10749.44 925.34
vertex 3144.31 10764.130000000001 857.87
vertex 3144.31 11220.95 621.9200000000001
endloop
endfacet
facet normal 0.22350226253722072 -0.44733662353289366 -0.8659888474379642
outer loop
vertex 3376.23 10749.44 925.34
vertex 3144.31 11220.95 621.9200000000001
vertex 3319.42 11308.44 621.9200000000001
endloop
endfacet
facet normal 0.22328810689904138 -0.4473770407902511 -0.8660232125591093
outer loop
vertex 3376.23 10749.44 925.34
vertex 3319.42 11308.44 621.9200000000001
vertex 3815.5 10316.15 1262.43
endloop
endfacet
facet normal 0.22356749030965067 -0.4471349806193031 -0.8660761435250481
outer loop
vertex 3376.23 10749.44 925.34
vertex 3815.5 10316.15 1262.43
vertex 3457.7400000000002 10137.27 1262.43
endloop
endfacet
facet normal 0.23443736169895768 -0.45324556595114684 -0.8600044071894379
outer loop
vertex 3144.31 11211.33 626.99
vertex 3140.54 11219 621.9200000000001
vertex 3144.31 11220.95 621.9200000000001
endloop
endfacet
facet normal 0.22356824231183922 -0.4471364846236842 -0.8660751729197464
outer loop
vertex 3144.31 10764.130000000001 857.87
vertex 2965.4300000000003 11121.890000000001 626.99
vertex 3144.31 11211.33 626.99
endloop
endfacet
facet normal -0.22258509661823864 0.4173470561591731 0.8810660074470705
outer loop
vertex 3050.9700000000003 10950.81 275.86
vertex 3050.9700000000003 10940.93 280.54
vertex 3054.87 10943.01 280.54
endloop
endfacet
facet normal -0.21125391741475522 0.4228363790245558 0.881238434789542
outer loop
vertex 3218.28 11063.390000000001 261.95
vertex 3050.9700000000003 10979.800000000001 261.95
vertex 3050.9700000000003 10950.81 275.86
endloop
endfacet
facet normal -0.21177948530869617 0.4235589706173891 0.8807651491810524
outer loop
vertex 3218.28 11063.390000000001 261.95
vertex 3050.9700000000003 10950.81 275.86
vertex 3229.85 11040.25 275.86
endloop
endfacet
facet normal -0.21181764579277848 0.42334631798965633 0.880858206509655
outer loop
vertex 3050.9700000000003 10979.800000000001 261.95
vertex 2860.52 10884.51 261.95
vertex 2875.9900000000002 10853.57 280.54
endloop
endfacet
facet normal -0.2105771773639324 0.42178107251763564 0.8819058789005275
outer loop
vertex 3050.9700000000003 10979.800000000001 261.95
vertex 2875.9900000000002 10853.57 280.54
vertex 3050.9700000000003 10940.93 280.54
endloop
endfacet
facet normal -0.8946841762368937 -0.44669834506913497 -0.0009018335806075893
outer loop
vertex 3756.8700000000003 9986.34 1232.92
vertex 3732.04 10035.87 1332.76
vertex 3697.59 10104.9 1317.55
endloop
endfacet
facet normal -0.894427190999917 -0.4472135954999557 -8.851894954530557e-15
outer loop
vertex 3756.8700000000003 9986.34 1232.92
vertex 3697.59 10104.9 1317.55
vertex 3664.31 10171.460000000001 1292.2
endloop
endfacet
facet normal -0.8942710359670103 -0.4475241239837351 0.0012135415445775361
outer loop
vertex 3756.8700000000003 9986.34 1232.92
vertex 3664.31 10171.460000000001 1292.2
vertex 3636.75 10226.45 1261.91
endloop
endfacet
facet normal -0.8943331302333397 -0.44740166383274826 -0.00005802348215381314
outer loop
vertex 3756.8700000000003 9986.34 1232.92
vertex 3636.75 10226.45 1261.91
vertex 3720.4700000000003 10059.140000000001 937.95
endloop
endfacet
facet normal -0.8944271909999167 -0.4472135954999562 -8.40891448784959e-16
outer loop
vertex 3756.8700000000003 9986.34 1232.92
vertex 3720.4700000000003 10059.140000000001 937.95
vertex 3813.94 9872.2 937.95
endloop
endfacet
facet normal -0.8944271909999159 -0.4472135954999579 0
outer loop
vertex 3756.8700000000003 9986.34 1232.92
vertex 3813.94 9872.2 937.95
vertex 3897.4 9705.28 1261.26
endloop
endfacet
facet normal -0.89439264604552 -0.44728187403318503 -0.0008484462593527789
outer loop
vertex 3756.8700000000003 9986.34 1232.92
vertex 3897.4 9705.28 1261.26
vertex 3836.69 9826.57 1317.55
endloop
endfacet
facet normal -0.8947075975694343 -0.44665188669649725 0.0006379357260123231
outer loop
vertex 3756.8700000000003 9986.34 1232.92
vertex 3836.69 9826.57 1317.55
vertex 3802.2400000000002 9895.6 1332.76
endloop
endfacet
facet normal -0.8941159465541672 -0.4478349868092312 -0.0007061919862486519
outer loop
vertex 3756.8700000000003 9986.34 1232.92
vertex 3802.2400000000002 9895.6 1332.76
vertex 3767.1400000000003 9965.67 1337.96
endloop
endfacet
facet normal -0.8944104075606695 -0.4472468081345798 -0.0005616587823090177
outer loop
vertex 3756.8700000000003 9986.34 1232.92
vertex 3767.1400000000003 9965.67 1337.96
vertex 3732.04 10035.87 1332.76
endloop
endfacet
facet normal -0.894427190999916 -0.447213595499958 0
outer loop
vertex 3767.1400000000003 9965.67 937.95
vertex 3778.84 9942.27 936.26
vertex 3813.42 9873.11 936.26
endloop
endfacet
facet normal -0.8936602162894746 -0.44745156865676106 0.03403691419699456
outer loop
vertex 3767.1400000000003 9965.67 937.95
vertex 3813.42 9873.11 936.26
vertex 3813.94 9872.2 937.95
endloop
endfacet
facet normal -0.8935479951453544 -0.44761537986566446 0.034820282586939234
outer loop
vertex 3720.4700000000003 10059.140000000001 937.95
vertex 3720.86 10058.23 936.26
vertex 3755.44 9989.2 936.26
endloop
endfacet
facet normal -0.8943794965546913 -0.4465677875704182 -0.025739604640292867
outer loop
vertex 3720.4700000000003 10059.140000000001 937.95
vertex 3755.44 9989.2 936.26
vertex 3767.1400000000003 9965.67 937.95
endloop
endfacet
facet normal -0.8938737323930831 -0.44827901894787414 0.0059725797433521155
outer loop
vertex 3778.84 9942.27 936.26
vertex 3790.4100000000003 9919.130000000001 931.0600000000001
vertex 3812.1200000000003 9875.84 931.0600000000001
endloop
endfacet
facet normal -0.8943712945407166 -0.4471856472703583 -0.011179641181768785
outer loop
vertex 3778.84 9942.27 936.26
vertex 3812.1200000000003 9875.84 931.0600000000001
vertex 3813.42 9873.11 936.26
endloop
endfacet
facet normal -0.894427190999916 -0.4472135954999579 -1.564445999220324e-13
outer loop
vertex 3720.86 10058.23 936.26
vertex 3722.1600000000003 10055.630000000001 931.0600000000001
vertex 3743.8700000000003 10012.210000000001 931.0600000000001
endloop
endfacet
facet normal -0.8940653641948372 -0.4478745515552358 0.007450544701525668
outer loop
vertex 3720.86 10058.23 936.26
vertex 3743.8700000000003 10012.210000000001 931.0600000000001
vertex 3755.44 9989.2 936.26
endloop
endfacet
facet normal -0.8956967291834669 -0.44437667184300567 -0.016023197301820304
outer loop
vertex 3790.4100000000003 9919.130000000001 931.0600000000001
vertex 3801.59 9896.9 922.61
vertex 3809.9100000000003 9880.130000000001 922.61
endloop
endfacet
facet normal -0.8938725253284252 -0.448278413603136 0.006194542795030487
outer loop
vertex 3790.4100000000003 9919.130000000001 931.0600000000001
vertex 3809.9100000000003 9880.130000000001 922.61
vertex 3812.1200000000003 9875.84 931.0600000000001
endloop
endfacet
facet normal -0.8957781934500764 -0.4444170882232666 -0.008653313496627112
outer loop
vertex 3722.1600000000003 10055.630000000001 931.0600000000001
vertex 3724.3700000000003 10051.34 922.61
vertex 3732.69 10034.57 922.61
endloop
endfacet
facet normal -0.8944271909999159 -0.4472135954999579 9.630824320496957e-14
outer loop
vertex 3722.1600000000003 10055.630000000001 931.0600000000001
vertex 3732.69 10034.57 922.61
vertex 3743.8700000000003 10012.210000000001 931.0600000000001
endloop
endfacet
facet normal -0.907840680877239 -0.41265485494417364 -0.07443969932337202
outer loop
vertex 3801.59 9896.9 922.61
vertex 3807.57 9884.94 915.98
vertex 3808.2200000000003 9883.51 915.98
endloop
endfacet
facet normal -0.895810329779939 -0.4444330318288523 0.001770107050826709
outer loop
vertex 3801.59 9896.9 922.61
vertex 3808.2200000000003 9883.51 915.98
vertex 3809.9100000000003 9880.130000000001 922.61
endloop
endfacet
facet normal -0.8943928051630885 -0.44719640258185706 0.008768556913597863
outer loop
vertex 3724.3700000000003 10051.34 922.61
vertex 3726.06 10047.83 915.98
vertex 3726.71 10046.53 915.98
endloop
endfacet
facet normal -0.8957941619168462 -0.44442501056336947 0.006263342673369194
outer loop
vertex 3724.3700000000003 10051.34 922.61
vertex 3726.71 10046.53 915.98
vertex 3732.69 10034.57 922.61
endloop
endfacet
facet normal -0.9077330903191696 -0.41260595014505086 -0.07600635923730335
outer loop
vertex 3807.57 9884.94 915.98
vertex 3812.1200000000003 9875.84 911.0400000000001
vertex 3808.2200000000003 9883.51 915.98
endloop
endfacet
facet normal -0.8944271909997907 -0.4472135955002083 -6.587104012979103e-13
outer loop
vertex 3726.06 10047.83 915.98
vertex 3722.1600000000003 10055.630000000001 911.0400000000001
vertex 3726.71 10046.53 915.98
endloop
endfacet
facet normal -0.8491272598478776 -0.5094763559088454 -0.13934396059061283
outer loop
vertex 3140.15 11219.65 621.9200000000001
vertex 3140.54 11219 621.9200000000001
vertex 3144.31 11211.33 626.99
endloop
endfacet
facet normal -0.8870444129856843 -0.46126309475257077 0.01971209806600809
outer loop
vertex 3140.15 11219.65 621.9200000000001
vertex 3139.11 11221.6 620.75
vertex 3140.8 11218.35 620.75
endloop
endfacet
facet normal -0.8536271909166641 -0.5121763145501179 0.09484746565714908
outer loop
vertex 3140.15 11219.65 621.9200000000001
vertex 3140.8 11218.35 620.75
vertex 3140.54 11219 621.9200000000001
endloop
endfacet
facet normal -0.892902074366324 -0.44991189793649844 -0.017469106659848077
outer loop
vertex 3139.11 11221.6 620.75
vertex 3133.78 11232.390000000001 615.2900000000001
vertex 3142.23 11215.62 615.2900000000001
endloop
endfacet
facet normal -0.8872155343421633 -0.46135207785793986 -0.0016899343511307654
outer loop
vertex 3139.11 11221.6 620.75
vertex 3142.23 11215.62 615.2900000000001
vertex 3140.8 11218.35 620.75
endloop
endfacet
facet normal -0.8951663621413575 -0.44566222321199134 -0.007897271196652636
outer loop
vertex 3133.78 11232.390000000001 615.2900000000001
vertex 3128.32 11243.44 610.61
vertex 3143.4 11213.15 610.61
endloop
endfacet
facet normal -0.892947943683829 -0.44993501038330336 0.014228714003661876
outer loop
vertex 3133.78 11232.390000000001 615.2900000000001
vertex 3143.4 11213.15 610.61
vertex 3142.23 11215.62 615.2900000000001
endloop
endfacet
facet normal -0.8944271909999159 -0.4472135954999579 0
outer loop
vertex 3128.32 11243.44 610.61
vertex 3122.73 11254.62 606.84
vertex 3144.44 11211.2 606.84
endloop
endfacet
facet normal -0.8950735049080845 -0.4456159938598039 -0.01642579763348666
outer loop
vertex 3128.32 11243.44 610.61
vertex 3144.44 11211.2 606.84
vertex 3143.4 11213.15 610.61
endloop
endfacet
facet normal -0.8952229032107841 -0.4455487260219697 0.007892167449751249
outer loop
vertex 3122.73 11254.62 606.84
vertex 3117.01 11266.06 603.85
vertex 3145.09 11209.640000000001 603.85
endloop
endfacet
facet normal -0.8937516416656246 -0.4468758208328123 0.03885876702883649
outer loop
vertex 3122.73 11254.62 606.84
vertex 3145.09 11209.640000000001 603.85
vertex 3144.44 11211.2 606.84
endloop
endfacet
facet normal -0.8944271909999159 -0.4472135954999579 -1.9544834442257848e-13
outer loop
vertex 3117.01 11266.06 603.85
vertex 3111.1600000000003 11277.76 601.77
vertex 3145.7400000000002 11208.6 601.77
endloop
endfacet
facet normal -0.8938007674693856 -0.44484093496173455 -0.05689227235316745
outer loop
vertex 3117.01 11266.06 603.85
vertex 3145.7400000000002 11208.6 601.77
vertex 3145.09 11209.640000000001 603.85
endloop
endfacet
facet normal -0.8946939578034847 -0.44663350684607706 0.0064212485009877375
outer loop
vertex 3111.1600000000003 11277.76 601.77
vertex 3105.31 11289.460000000001 600.47
vertex 3146 11207.95 600.47
endloop
endfacet
facet normal -0.8935341032175389 -0.44676705160876945 0.0446767051609172
outer loop
vertex 3111.1600000000003 11277.76 601.77
vertex 3146 11207.95 600.47
vertex 3145.7400000000002 11208.6 601.77
endloop
endfacet
facet normal -0.8944271909999022 -0.4472135954999854 1.2137242687707384e-14
outer loop
vertex 3152.11 11195.86 341.12
vertex 3105.31 11289.460000000001 600.47
vertex 3099.46 11301.16 599.95
endloop
endfacet
facet normal -0.8944271909999144 -0.447213595499961 0
outer loop
vertex 3152.11 11195.86 341.12
vertex 3099.46 11301.16 599.95
vertex 3099.46 11301.16 199.94
endloop
endfacet
facet normal -0.8944271909999161 -0.44721359549995787 2.9543968299823128e-15
outer loop
vertex 3152.11 11195.86 341.12
vertex 3099.46 11301.16 199.94
vertex 3117.01 11266.06 201.24
endloop
endfacet
facet normal -0.8944271909999111 -0.4472135954999675 -3.0707116658085357e-15
outer loop
vertex 3152.11 11195.86 341.12
vertex 3117.01 11266.06 201.24
vertex 3134.56 11230.960000000001 205.14000000000001
endloop
endfacet
facet normal -0.8944271909999184 -0.447213595499953 1.6121059943438525e-15
outer loop
vertex 3152.11 11195.86 341.12
vertex 3134.56 11230.960000000001 205.14000000000001
vertex 3169.01 11162.06 220.48000000000002
endloop
endfacet
facet normal -0.8944271909999163 -0.44721359549995704 3.045191344187486e-15
outer loop
vertex 3152.11 11195.86 341.12
vertex 3169.01 11162.06 220.48000000000002
vertex 3202.29 11095.5 245.70000000000002
endloop
endfacet
facet normal -0.8948989011982147 -0.4462671962389758 -0.0012434609891259962
outer loop
vertex 3152.11 11195.86 341.12
vertex 3202.29 11095.5 245.70000000000002
vertex 3218.28 11063.390000000001 261.95
endloop
endfacet
facet normal -0.8945151520914795 -0.4470374801060779 0.00036614090891213283
outer loop
vertex 3152.11 11195.86 341.12
vertex 3218.28 11063.390000000001 261.95
vertex 3229.85 11040.25 275.86
endloop
endfacet
facet normal -0.8946179023225476 -0.4468319013954967 -0.0002464534232475724
outer loop
vertex 3152.11 11195.86 341.12
vertex 3229.85 11040.25 275.86
vertex 3146 11207.95 600.47
endloop
endfacet
facet normal -0.8947123739156607 -0.4466427002162702 -0.0002574989743976456
outer loop
vertex 3152.11 11195.86 341.12
vertex 3146 11207.95 600.47
vertex 3105.31 11289.460000000001 600.47
endloop
endfacet
facet normal -0.3873124114534298 0.7746248229068556 -0.49994547669786094
outer loop
vertex 2875.9900000000002 10853.57 280.54
vertex 2786.55 11032.45 626.99
vertex 2965.4300000000003 11121.890000000001 626.99
endloop
endfacet
facet normal -0.3873124114534307 0.7746248229068554 -0.49994547669786055
outer loop
vertex 2875.9900000000002 10853.57 280.54
vertex 2965.4300000000003 11121.890000000001 626.99
vertex 3054.87 10943.01 280.54
endloop
endfacet
facet normal -0.19900743804198703 0.398014876083972 0.8955334711890032
outer loop
vertex 3547.44 9957.74 915.72
vertex 3722.1600000000003 10055.630000000001 911.0400000000001
vertex 3543.28 9966.19 911.0400000000001
endloop
endfacet
facet normal -0.19900743804198698 0.39801487608397196 0.8955334711890031
outer loop
vertex 3547.44 9957.74 915.72
vertex 3543.28 9966.19 911.0400000000001
vertex 3364.4 9876.75 911.0400000000001
endloop
endfacet
facet normal -0.19743702825313342 0.3943521028422564 0.8974993252690845
outer loop
vertex 3547.44 9957.74 915.72
vertex 3364.4 9876.75 911.0400000000001
vertex 3374.9300000000003 9855.69 922.61
endloop
endfacet
facet normal -0.1960356265885057 0.39207125317701297 0.8988048539812514
outer loop
vertex 3547.44 9957.74 915.72
vertex 3374.9300000000003 9855.69 922.61
vertex 3732.69 10034.57 922.61
endloop
endfacet
facet normal -0.19701958667745065 0.39456082364568423 0.8974993252975101
outer loop
vertex 3547.44 9957.74 915.72
vertex 3732.69 10034.57 922.61
vertex 3722.1600000000003 10055.630000000001 911.0400000000001
endloop
endfacet
facet normal -0.14320342173835277 0.2864068434767066 0.9473457130383486
outer loop
vertex 3732.69 10034.57 922.61
vertex 3374.9300000000003 9855.69 922.61
vertex 3386.11 9833.33 931.0600000000001
endloop
endfacet
facet normal -0.14320342173836112 0.2864068434767208 0.9473457130383428
outer loop
vertex 3732.69 10034.57 922.61
vertex 3386.11 9833.33 931.0600000000001
vertex 3743.8700000000003 10012.210000000001 931.0600000000001
endloop
endfacet
facet normal -0.08850748942649313 0.17701497885298534 0.9802204453984299
outer loop
vertex 3743.8700000000003 10012.210000000001 931.0600000000001
vertex 3386.11 9833.33 931.0600000000001
vertex 3397.6800000000003 9810.32 936.26
endloop
endfacet
facet normal -0.08850748942649383 0.17701497885298656 0.9802204453984296
outer loop
vertex 3743.8700000000003 10012.210000000001 931.0600000000001
vertex 3397.6800000000003 9810.32 936.26
vertex 3755.44 9989.2 936.26
endloop
endfacet
facet normal -0.028701768031569447 0.05740353606313853 0.9979383961744883
outer loop
vertex 3755.44 9989.2 936.26
vertex 3397.6800000000003 9810.32 936.26
vertex 3409.38 9786.79 937.95
endloop
endfacet
facet normal -0.02870176803156719 0.057403536063134655 0.9979383961744887
outer loop
vertex 3755.44 9989.2 936.26
vertex 3409.38 9786.79 937.95
vertex 3767.1400000000003 9965.67 937.95
endloop
endfacet
facet normal 0.02882880252328268 -0.05765760504656566 0.9979200873443563
outer loop
vertex 3767.1400000000003 9965.67 937.95
vertex 3409.38 9786.79 937.95
vertex 3421.08 9763.390000000001 936.26
endloop
endfacet
facet normal 0.028828802523282664 -0.057657605046565634 0.9979200873443563
outer loop
vertex 3767.1400000000003 9965.67 937.95
vertex 3421.08 9763.390000000001 936.26
vertex 3778.84 9942.27 936.26
endloop
endfacet
facet normal 0.08812518260821298 -0.17625036521642684 0.9803926565164313
outer loop
vertex 3778.84 9942.27 936.26
vertex 3421.08 9763.390000000001 936.26
vertex 3432.65 9740.25 931.0600000000001
endloop
endfacet
facet normal 0.08812518260821905 -0.1762503652164372 0.9803926565164289
outer loop
vertex 3778.84 9942.27 936.26
vertex 3432.65 9740.25 931.0600000000001
vertex 3790.4100000000003 9919.130000000001 931.0600000000001
endloop
endfacet
facet normal 0.1438035500691378 -0.2876071001382742 0.9468910681475275
outer loop
vertex 3790.4100000000003 9919.130000000001 931.0600000000001
vertex 3432.65 9740.25 931.0600000000001
vertex 3443.83 9718.02 922.61
endloop
endfacet
facet normal 0.14380355006912832 -0.2876071001382581 0.9468910681475339
outer loop
vertex 3790.4100000000003 9919.130000000001 931.0600000000001
vertex 3443.83 9718.02 922.61
vertex 3801.59 9896.9 922.61
endloop
endfacet
facet normal 0.19603562658850665 -0.3920712531770153 0.8988048539812502
outer loop
vertex 3629.08 9794.85 915.72
vertex 3801.59 9896.9 922.61
vertex 3443.83 9718.02 922.61
endloop
endfacet
facet normal 0.19701958667745853 -0.3945608236457044 0.8974993252974995
outer loop
vertex 3629.08 9794.85 915.72
vertex 3443.83 9718.02 922.61
vertex 3454.36 9696.960000000001 911.0400000000001
endloop
endfacet
facet normal 0.19900743804198032 -0.39801487608396674 0.8955334711890071
outer loop
vertex 3629.08 9794.85 915.72
vertex 3454.36 9696.960000000001 911.0400000000001
vertex 3633.2400000000002 9786.4 911.0400000000001
endloop
endfacet
facet normal 0.19900743804198356 -0.39801487608396513 0.8955334711890071
outer loop
vertex 3629.08 9794.85 915.72
vertex 3633.2400000000002 9786.4 911.0400000000001
vertex 3812.1200000000003 9875.84 911.0400000000001
endloop
endfacet
facet normal 0.19743702825313297 -0.3943521028422565 0.8974993252690845
outer loop
vertex 3629.08 9794.85 915.72
vertex 3812.1200000000003 9875.84 911.0400000000001
vertex 3801.59 9896.9 922.61
endloop
endfacet
facet normal -0.14420627546840492 0.28841255093681173 -0.9465847825618431
outer loop
vertex 3683.29 9699.95 1302.3400000000001
vertex 3718.65 9684.35 1292.2
vertex 3512.21 9581.130000000001 1292.2
endloop
endfacet
facet normal -0.14420627546840575 0.2884125509368129 -0.9465847825618425
outer loop
vertex 3683.29 9699.95 1302.3400000000001
vertex 3512.21 9581.130000000001 1292.2
vertex 3478.9300000000003 9647.69 1317.55
endloop
endfacet
facet normal -0.14420627546840556 0.28841255093681223 -0.9465847825618425
outer loop
vertex 3683.29 9699.95 1302.3400000000001
vertex 3478.9300000000003 9647.69 1317.55
vertex 3836.69 9826.57 1317.55
endloop
endfacet
facet normal -0.1442062754684054 0.28841255093681206 -0.9465847825618426
outer loop
vertex 3683.29 9699.95 1302.3400000000001
vertex 3836.69 9826.57 1317.55
vertex 3869.9700000000003 9760.01 1292.2
endloop
endfacet
facet normal -0.14420627546840514 0.2884125509368112 -0.9465847825618431
outer loop
vertex 3683.29 9699.95 1302.3400000000001
vertex 3869.9700000000003 9760.01 1292.2
vertex 3718.65 9684.35 1292.2
endloop
endfacet
facet normal -0.08650368540628221 0.1730073708125653 -0.9811144490097241
outer loop
vertex 3478.9300000000003 9647.69 1317.55
vertex 3444.48 9716.720000000001 1332.76
vertex 3802.2400000000002 9895.6 1332.76
endloop
endfacet
facet normal -0.0865036854062825 0.17300737081256568 -0.981114449009724
outer loop
vertex 3478.9300000000003 9647.69 1317.55
vertex 3802.2400000000002 9895.6 1332.76
vertex 3836.69 9826.57 1317.55
endloop
endfacet
facet normal -0.02960848478090467 0.05921696956180964 -0.9978059371164789
outer loop
vertex 3444.48 9716.720000000001 1332.76
vertex 3409.38 9786.79 1337.96
vertex 3767.1400000000003 9965.67 1337.96
endloop
endfacet
facet normal -0.02960848478090467 0.05921696956180964 -0.9978059371164789
outer loop
vertex 3444.48 9716.720000000001 1332.76
vertex 3767.1400000000003 9965.67 1337.96
vertex 3802.2400000000002 9895.6 1332.76
endloop
endfacet
facet normal 0.029564812205256558 -0.059129624410512734 -0.9978124119273819
outer loop
vertex 3409.38 9786.79 1337.96
vertex 3374.28 9856.99 1332.76
vertex 3732.04 10035.87 1332.76
endloop
endfacet
facet normal 0.029564812205255607 -0.059129624410511505 -0.9978124119273821
outer loop
vertex 3409.38 9786.79 1337.96
vertex 3732.04 10035.87 1332.76
vertex 3767.1400000000003 9965.67 1337.96
endloop
endfacet
facet normal 0.08650368540628221 -0.1730073708125653 -0.9811144490097241
outer loop
vertex 3374.28 9856.99 1332.76
vertex 3339.83 9926.02 1317.55
vertex 3697.59 10104.9 1317.55
endloop
endfacet
facet normal 0.08650368540628497 -0.17300737081256884 -0.9811144490097232
outer loop
vertex 3374.28 9856.99 1332.76
vertex 3697.59 10104.9 1317.55
vertex 3732.04 10035.87 1332.76
endloop
endfacet
facet normal 0.1442062754684084 -0.28841255093681145 -0.9465847825618424
outer loop
vertex 3493.23 10052.640000000001 1302.3400000000001
vertex 3339.83 9926.02 1317.55
vertex 3306.55 9992.58 1292.2
endloop
endfacet
facet normal 0.14420627546841244 -0.2884125509368249 -0.9465847825618378
outer loop
vertex 3493.23 10052.640000000001 1302.3400000000001
vertex 3306.55 9992.58 1292.2
vertex 3457.87 10068.24 1292.2
endloop
endfacet
facet normal 0.14420627546841325 -0.28841255093682333 -0.9465847825618382
outer loop
vertex 3493.23 10052.640000000001 1302.3400000000001
vertex 3457.87 10068.24 1292.2
vertex 3664.31 10171.460000000001 1292.2
endloop
endfacet
facet normal 0.14420627546840153 -0.288412550936807 -0.946584782561845
outer loop
vertex 3493.23 10052.640000000001 1302.3400000000001
vertex 3664.31 10171.460000000001 1292.2
vertex 3697.59 10104.9 1317.55
endloop
endfacet
facet normal 0.14420627546840045 -0.2884125509368024 -0.9465847825618464
outer loop
vertex 3493.23 10052.640000000001 1302.3400000000001
vertex 3697.59 10104.9 1317.55
vertex 3339.83 9926.02 1317.55
endloop
endfacet
facet normal 0.1975705345317288 -0.39514106906345553 -0.8971228563715432
outer loop
vertex 3457.87 10068.24 1292.2
vertex 3457.87 10137.01 1261.91
vertex 3636.75 10226.45 1261.91
endloop
endfacet
facet normal 0.1975705345317311 -0.39514106906345786 -0.8971228563715415
outer loop
vertex 3457.87 10068.24 1292.2
vertex 3636.75 10226.45 1261.91
vertex 3664.31 10171.460000000001 1292.2
endloop
endfacet
facet normal 0.1972821057313509 -0.39456421146270176 -0.8974401672485027
outer loop
vertex 3390.27 10079.68 1272.31
vertex 3457.87 10068.24 1292.2
vertex 3306.55 9992.58 1292.2
endloop
endfacet
facet normal 0.19767354382546504 -0.3948882380435434 -0.897211485395917
outer loop
vertex 3390.27 10079.68 1272.31
vertex 3306.55 9992.58 1292.2
vertex 3274.96 10055.630000000001 1257.49
endloop
endfacet
facet normal 0.19776978396515882 -0.3955395679303236 -0.8969033185086714
outer loop
vertex 3390.27 10079.68 1272.31
vertex 3274.96 10055.630000000001 1257.49
vertex 3453.84 10145.07 1257.49
endloop
endfacet
facet normal 0.19622048229957686 -0.39424007605732964 -0.8978152843187914
outer loop
vertex 3390.27 10079.68 1272.31
vertex 3453.84 10145.07 1257.49
vertex 3457.87 10137.01 1261.91
endloop
endfacet
facet normal 0.1971097691216131 -0.3951784559226676 -0.8972077389832306
outer loop
vertex 3390.27 10079.68 1272.31
vertex 3457.87 10137.01 1261.91
vertex 3457.87 10068.24 1292.2
endloop
endfacet
facet normal 0.3873124114534235 -0.7746248229068589 0.499945476697861
outer loop
vertex 3453.84 10145.07 1257.49
vertex 3274.96 10055.630000000001 1257.49
vertex 3364.4 9876.75 911.0400000000001
endloop
endfacet
facet normal 0.38731241145343054 -0.7746248229068573 0.499945476697858
outer loop
vertex 3453.84 10145.07 1257.49
vertex 3364.4 9876.75 911.0400000000001
vertex 3543.28 9966.19 911.0400000000001
endloop
endfacet
facet normal -0.3879786892749042 0.7742799105446931 -0.4999631554379076
outer loop
vertex 3744 10190.960000000001 1123.72
vertex 3726.06 10047.83 915.98
vertex 3636.75 10226.45 1261.91
endloop
endfacet
facet normal -0.453168096171624 0.7131400655077067 -0.534855049129995
outer loop
vertex 3744 10190.960000000001 1123.72
vertex 3636.75 10226.45 1261.91
vertex 3636.75 10226.84 1262.43
endloop
endfacet
facet normal -0.38713552873443663 0.7748345735223483 -0.4997574072146893
outer loop
vertex 3744 10190.960000000001 1123.72
vertex 3636.75 10226.84 1262.43
vertex 3815.5 10316.15 1262.43
endloop
endfacet
facet normal -0.38682767654313355 0.7748670481984864 -0.4999454032956054
outer loop
vertex 3744 10190.960000000001 1123.72
vertex 3815.5 10316.15 1262.43
vertex 3904.94 10137.27 915.98
endloop
endfacet
facet normal -0.3872518266251205 0.7745036532502368 -0.5001800814482166
outer loop
vertex 3744 10190.960000000001 1123.72
vertex 3904.94 10137.27 915.98
vertex 3726.06 10047.83 915.98
endloop
endfacet
facet normal -0.39036002917939944 0.780720058358795 -0.4879500364743282
outer loop
vertex 3636.75 10226.45 1261.91
vertex 3457.87 10137.01 1261.91
vertex 3457.7400000000002 10137.27 1262.43
endloop
endfacet
facet normal -0.371623150041507 0.7427069341177882 -0.5570302005875293
outer loop
vertex 3636.75 10226.45 1261.91
vertex 3457.7400000000002 10137.27 1262.43
vertex 3636.75 10226.84 1262.43
endloop
endfacet
facet normal -0.2036611320490934 0.44913348988337437 0.8699432461704973
outer loop
vertex 3722.1600000000003 10502.83 680.16
vertex 3722.1600000000003 10055.630000000001 911.0400000000001
vertex 3726.06 10047.83 915.98
endloop
endfacet
facet normal -0.2235016123821385 0.44700322476427495 0.8661611549318773
outer loop
vertex 3722.1600000000003 10502.83 680.16
vertex 3726.06 10047.83 915.98
vertex 3904.94 10137.27 915.98
endloop
endfacet
facet normal -0.22383408648628023 0.44725985667443297 0.8659427939156363
outer loop
vertex 3489.46 10521.03 610.61
vertex 3722.1600000000003 10502.83 680.16
vertex 3408.86 11129.56 275.47
endloop
endfacet
facet normal -0.22364965347638682 0.44729930695277587 0.8659700702099689
outer loop
vertex 3489.46 10521.03 610.61
vertex 3408.86 11129.56 275.47
vertex 3051.1 10950.68 275.47
endloop
endfacet
facet normal -0.2237584664612561 0.4472045400642097 0.8659909052829976
outer loop
vertex 3489.46 10521.03 610.61
vertex 3051.1 10950.68 275.47
vertex 3543.28 9966.19 911.0400000000001
endloop
endfacet
facet normal -0.22361550162668078 0.4472310032533594 0.8660141668363409
outer loop
vertex 3489.46 10521.03 610.61
vertex 3543.28 9966.19 911.0400000000001
vertex 3722.1600000000003 10055.630000000001 911.0400000000001
endloop
endfacet
facet normal -0.22386752232662394 0.44710497070993044 0.866014132456169
outer loop
vertex 3489.46 10521.03 610.61
vertex 3722.1600000000003 10055.630000000001 911.0400000000001
vertex 3722.1600000000003 10502.83 680.16
endloop
endfacet
facet normal 0.3868344450839626 -0.7747934089036119 -0.5000542826694949
outer loop
vertex 3897.53 9704.630000000001 1262.43
vertex 3897.53 9928.23 915.98
vertex 3987.1 9972.95 915.98
endloop
endfacet
facet normal 0.3870873484091258 -0.7747373237781588 -0.49994546087213176
outer loop
vertex 3897.53 9704.630000000001 1262.43
vertex 3987.1 9972.95 915.98
vertex 4076.54 9794.07 1262.43
endloop
endfacet
facet normal 0.387815057460928 -0.7745027455687827 -0.4997449132437409
outer loop
vertex 3897.53 9705.02 1261.91
vertex 3808.2200000000003 9883.51 915.98
vertex 3897.53 9928.23 915.98
endloop
endfacet
facet normal 0.35239079030133863 -0.7042693846865377 -0.6162997360895457
outer loop
vertex 3897.53 9704.630000000001 1262.43
vertex 3718.78 9615.19 1262.43
vertex 3718.65 9615.58 1261.91
endloop
endfacet
facet normal 0.3713906763542733 -0.7427813527085428 -0.5570860145305951
outer loop
vertex 3897.53 9704.630000000001 1262.43
vertex 3718.65 9615.58 1261.91
vertex 3897.53 9705.02 1261.91
endloop
endfacet
facet normal 0.22363542954983845 -0.44727085909967707 0.8659884371342935
outer loop
vertex 4044.04 9413.95 612.5600000000001
vertex 3987.1 9972.95 915.98
vertex 3812.1200000000003 9885.460000000001 915.98
endloop
endfacet
facet normal 0.22410178854738447 -0.44704045104790213 0.8659868494941199
outer loop
vertex 4044.04 9413.95 612.5600000000001
vertex 3812.1200000000003 9885.460000000001 915.98
vertex 3812.1200000000003 9428.64 680.16
endloop
endfacet
facet normal 0.22409826198651497 -0.44705818887051924 0.8659786052428976
outer loop
vertex 4044.04 9413.95 612.5600000000001
vertex 3812.1200000000003 9428.64 680.16
vertex 4125.42 8801.78 275.47
endloop
endfacet
facet normal 0.22373094265756677 -0.44713693115005326 0.8660329266830844
outer loop
vertex 4044.04 9413.95 612.5600000000001
vertex 4125.42 8801.78 275.47
vertex 4483.18 8980.79 275.47
endloop
endfacet
facet normal 0.223559916277457 -0.4472851324207888 0.866000562441696
outer loop
vertex 4044.04 9413.95 612.5600000000001
vertex 4483.18 8980.79 275.47
vertex 3987.1 9972.95 915.98
endloop
endfacet
facet normal 0.2226681420793576 -0.44533628415855936 0.8672338165193824
outer loop
vertex 3812.1200000000003 9885.460000000001 915.98
vertex 3808.2200000000003 9883.51 915.98
vertex 3812.1200000000003 9875.84 911.0400000000001
endloop
endfacet
facet normal 0.22356824231184244 -0.4471364846236826 0.8660751729197464
outer loop
vertex 3812.1200000000003 9875.84 911.0400000000001
vertex 3633.2400000000002 9786.4 911.0400000000001
vertex 3812.1200000000003 9428.64 680.16
endloop
endfacet
facet normal -0.19757053453172724 0.39514106906345564 -0.8971228563715433
outer loop
vertex 3718.65 9615.58 1261.91
vertex 3718.65 9684.35 1292.2
vertex 3869.9700000000003 9760.01 1292.2
endloop
endfacet
facet normal -0.19757053453173018 0.3951410690634583 -0.8971228563715417
outer loop
vertex 3718.65 9615.58 1261.91
vertex 3869.9700000000003 9760.01 1292.2
vertex 3897.53 9705.02 1261.91
endloop
endfacet
facet normal -0.20198671997352693 0.3913492699487416 -0.897801266352929
outer loop
vertex 3718.65 9605.44 1257.49
vertex 3718.65 9615.58 1261.91
vertex 3722.6800000000003 9607.52 1257.49
endloop
endfacet
facet normal -0.19737262261770763 0.3950389544952602 -0.8972113866153838
outer loop
vertex 3718.65 9605.44 1257.49
vertex 3543.8 9518.08 1257.49
vertex 3512.21 9581.130000000001 1292.2
endloop
endfacet
facet normal -0.1973590842701559 0.3947181685403144 -0.8973555367189894
outer loop
vertex 3718.65 9605.44 1257.49
vertex 3512.21 9581.130000000001 1292.2
vertex 3718.65 9684.35 1292.2
endloop
endfacet
facet normal -0.8940804604618161 -0.4479062515990429 -0.0003464085472541916
outer loop
vertex 3897.4 9705.28 1261.26
vertex 3897.53 9705.02 1261.91
vertex 3869.9700000000003 9760.01 1292.2
endloop
endfacet
facet normal -0.8952887604208383 -0.44544899643887514 -0.005764289697608128
outer loop
vertex 3897.4 9705.28 1261.26
vertex 3869.9700000000003 9760.01 1292.2
vertex 3836.69 9826.57 1317.55
endloop
endfacet
facet normal -0.3873124114534235 0.7746248229068589 0.499945476697861
outer loop
vertex 3633.2400000000002 9786.4 911.0400000000001
vertex 3454.36 9696.960000000001 911.0400000000001
vertex 3543.8 9518.08 1257.49
endloop
endfacet
facet normal -0.38731241145343054 0.7746248229068573 0.499945476697858
outer loop
vertex 3633.2400000000002 9786.4 911.0400000000001
vertex 3543.8 9518.08 1257.49
vertex 3722.6800000000003 9607.52 1257.49
endloop
endfacet
facet normal 0.014806692656959696 -0.029613385313919164 0.9994517543447566
outer loop
vertex 4606.68 8733.79 200.46
vertex 4775.03 8844.29 201.24
vertex 4417.27 8665.41 201.24
endloop
endfacet
facet normal 0.014806692656959605 -0.029613385313918918 0.9994517543447565
outer loop
vertex 4606.68 8733.79 200.46
vertex 4417.27 8665.41 201.24
vertex 4434.82 8630.31 199.94
endloop
endfacet
facet normal 0.01480669265695917 -0.02961338531391819 0.9994517543447566
outer loop
vertex 4606.68 8733.79 200.46
vertex 4434.82 8630.31 199.94
vertex 4613.7 8719.75 199.94
endloop
endfacet
facet normal 0.01480669265695917 -0.029613385313918193 0.9994517543447566
outer loop
vertex 4606.68 8733.79 200.46
vertex 4613.7 8719.75 199.94
vertex 4792.58 8809.19 199.94
endloop
endfacet
facet normal 0.014806692656959358 -0.02961338531391865 0.9994517543447566
outer loop
vertex 4606.68 8733.79 200.46
vertex 4792.58 8809.19 199.94
vertex 4775.03 8844.29 201.24
endloop
endfacet
facet normal 0.04442207451347485 -0.08884414902695015 0.995054469101866
outer loop
vertex 4757.610000000001 8879.26 205.14000000000001
vertex 4399.85 8700.380000000001 205.14000000000001
vertex 4417.27 8665.41 201.24
endloop
endfacet
facet normal 0.044422074513477565 -0.08884414902695446 0.9950544691018656
outer loop
vertex 4757.610000000001 8879.26 205.14000000000001
vertex 4417.27 8665.41 201.24
vertex 4775.03 8844.29 201.24
endloop
endfacet
facet normal 0.07238603601177589 -0.14477207202355105 0.9868137154258193
outer loop
vertex 4740.1900000000005 8913.970000000001 211.51000000000002
vertex 4382.43 8735.09 211.51000000000002
vertex 4399.85 8700.380000000001 205.14000000000001
endloop
endfacet
facet normal 0.07238603601177235 -0.14477207202354545 0.9868137154258202
outer loop
vertex 4740.1900000000005 8913.970000000001 211.51000000000002
vertex 4399.85 8700.380000000001 205.14000000000001
vertex 4757.610000000001 8879.26 205.14000000000001
endloop
endfacet
facet normal 0.10180080961793941 -0.2036016192358773 0.9737468746063636
outer loop
vertex 4723.03 8948.29 220.48000000000002
vertex 4365.27 8769.41 220.48000000000002
vertex 4382.43 8735.09 211.51000000000002
endloop
endfacet
facet normal 0.10180080961793823 -0.20360161923587544 0.9737468746063639
outer loop
vertex 4723.03 8948.29 220.48000000000002
vertex 4382.43 8735.09 211.51000000000002
vertex 4740.1900000000005 8913.970000000001 211.51000000000002
endloop
endfacet
facet normal 0.13012726482673348 -0.2602545296534656 0.9567311402601917
outer loop
vertex 4706.26 8981.960000000001 231.92000000000002
vertex 4348.5 8803.08 231.92000000000002
vertex 4365.27 8769.41 220.48000000000002
endloop
endfacet
facet normal 0.1301272648267351 -0.2602545296534682 0.9567311402601906
outer loop
vertex 4706.26 8981.960000000001 231.92000000000002
vertex 4365.27 8769.41 220.48000000000002
vertex 4723.03 8948.29 220.48000000000002
endloop
endfacet
facet normal 0.1568230947068323 -0.3136461894136662 0.9365001787681936
outer loop
vertex 4689.75 9014.85 245.70000000000002
vertex 4331.99 8835.970000000001 245.70000000000002
vertex 4348.5 8803.08 231.92000000000002
endloop
endfacet
facet normal 0.1568230947068397 -0.3136461894136778 0.9365001787681884
outer loop
vertex 4689.75 9014.85 245.70000000000002
vertex 4348.5 8803.08 231.92000000000002
vertex 4706.26 8981.960000000001 231.92000000000002
endloop
endfacet
facet normal 0.1850380255206285 -0.37007605104125885 0.9103870855614852
outer loop
vertex 4673.76 9046.83 261.95
vertex 4316 8867.95 261.95
vertex 4331.99 8835.970000000001 245.70000000000002
endloop
endfacet
facet normal 0.1850380255206285 -0.37007605104125885 0.910387085561485
outer loop
vertex 4673.76 9046.83 261.95
vertex 4331.99 8835.970000000001 245.70000000000002
vertex 4689.75 9014.85 245.70000000000002
endloop
endfacet
facet normal 0.21142629529765444 -0.4228525905953089 0.8811893146671407
outer loop
vertex 4658.29 9077.9 280.54
vertex 4483.31 8990.41 280.54
vertex 4483.31 8951.67 261.95
endloop
endfacet
facet normal 0.2110357500359556 -0.4223598002768786 0.8815192064367271
outer loop
vertex 4658.29 9077.9 280.54
vertex 4483.31 8951.67 261.95
vertex 4673.76 9046.83 261.95
endloop
endfacet
facet normal 0.2093023255812688 -0.4186046511628305 0.8837209302325693
outer loop
vertex 4483.31 8990.41 280.54
vertex 4479.41 8988.460000000001 280.54
vertex 4483.31 8980.53 275.86
endloop
endfacet
facet normal 0.2117794853087061 -0.42355897061741005 0.88076514918104
outer loop
vertex 4483.31 8980.53 275.86
vertex 4304.43 8891.09 275.86
vertex 4316 8867.95 261.95
endloop
endfacet
facet normal 0.21230663441018785 -0.4242836001334078 0.8802893385945632
outer loop
vertex 4483.31 8980.53 275.86
vertex 4316 8867.95 261.95
vertex 4483.31 8951.67 261.95
endloop
endfacet
facet normal -0.21136975420072587 0.4229956520686824 -0.8811342152817101
outer loop
vertex 4570.93 8805.42 624.52
vertex 4395.17 8709.74 620.75
vertex 4389.97 8720.14 626.99
endloop
endfacet
facet normal -0.20975595930012805 0.419511918600254 -0.8831829865268107
outer loop
vertex 4570.93 8805.42 624.52
vertex 4389.97 8720.14 626.99
vertex 4568.85 8809.58 626.99
endloop
endfacet
facet normal -0.20975595930012805 0.41951191860025394 -0.8831829865268107
outer loop
vertex 4570.93 8805.42 624.52
vertex 4568.85 8809.58 626.99
vertex 4747.7300000000005 8899.02 626.99
endloop
endfacet
facet normal -0.21157466913451212 0.4228931946017892 -0.8811342152817101
outer loop
vertex 4570.93 8805.42 624.52
vertex 4747.7300000000005 8899.02 626.99
vertex 4752.93 8888.62 620.75
endloop
endfacet
facet normal -0.2126097421229366 0.42521948424587097 -0.8797644501638456
outer loop
vertex 4570.93 8805.42 624.52
vertex 4752.93 8888.62 620.75
vertex 4395.17 8709.74 620.75
endloop
endfacet
facet normal -0.1862623871345166 0.3725247742690313 -0.9091378419660897
outer loop
vertex 4400.5 8699.08 615.2900000000001
vertex 4395.17 8709.74 620.75
vertex 4752.93 8888.62 620.75
endloop
endfacet
facet normal -0.18626238713451654 0.37252477426903124 -0.9091378419660896
outer loop
vertex 4400.5 8699.08 615.2900000000001
vertex 4752.93 8888.62 620.75
vertex 4758.26 8877.960000000001 615.2900000000001
endloop
endfacet
facet normal -0.15875213447110526 0.3175042689422089 -0.9348736807742218
outer loop
vertex 4405.96 8688.03 610.61
vertex 4400.5 8699.08 615.2900000000001
vertex 4758.26 8877.960000000001 615.2900000000001
endloop
endfacet
facet normal -0.15875213447108585 0.3175042689421733 -0.9348736807742373
outer loop
vertex 4405.96 8688.03 610.61
vertex 4758.26 8877.960000000001 615.2900000000001
vertex 4763.72 8866.91 610.61
endloop
endfacet
facet normal -0.12913783876137644 0.2582756775227542 -0.9574012184033416
outer loop
vertex 4411.55 8676.85 606.84
vertex 4405.96 8688.03 610.61
vertex 4763.72 8866.91 610.61
endloop
endfacet
facet normal -0.1285523014320806 0.25719802750183124 -0.9577700561437923
outer loop
vertex 4411.55 8676.85 606.84
vertex 4763.72 8866.91 610.61
vertex 4769.4400000000005 8855.73 606.84
endloop
endfacet
facet normal -0.10047175825890042 0.20101653378397852 -0.9744217664532334
outer loop
vertex 4417.400000000001 8665.28 603.85
vertex 4411.55 8676.85 606.84
vertex 4769.4400000000005 8855.73 606.84
endloop
endfacet
facet normal -0.10093060030112086 0.20186120060224225 -0.9741997072542552
outer loop
vertex 4417.400000000001 8665.28 603.85
vertex 4769.4400000000005 8855.73 606.84
vertex 4775.16 8844.16 603.85
endloop
endfacet
facet normal -0.07115399211638912 0.14230798423277857 -0.9872616406148392
outer loop
vertex 4423.12 8653.710000000001 601.77
vertex 4417.400000000001 8665.28 603.85
vertex 4775.16 8844.16 603.85
endloop
endfacet
facet normal -0.07115399211638669 0.14230798423277413 -0.9872616406148401
outer loop
vertex 4423.12 8653.710000000001 601.77
vertex 4775.16 8844.16 603.85
vertex 4780.88 8832.59 601.77
endloop
endfacet
facet normal -0.04422657820868021 0.08845315641736086 -0.9950980096954055
outer loop
vertex 4428.97 8642.01 600.47
vertex 4423.12 8653.710000000001 601.77
vertex 4780.88 8832.59 601.77
endloop
endfacet
facet normal -0.044226578208680194 0.08845315641736083 -0.9950980096954055
outer loop
vertex 4428.97 8642.01 600.47
vertex 4780.88 8832.59 601.77
vertex 4786.7300000000005 8820.89 600.47
endloop
endfacet
facet normal -0.022194838080923426 0.04438967616184662 -0.9987677136415694
outer loop
vertex 4611.360000000001 8724.43 600.21
vertex 4613.7 8719.75 599.95
vertex 4434.82 8630.31 599.95
endloop
endfacet
facet normal -0.0175313725654745 0.035643681629804864 -0.9992107780322647
outer loop
vertex 4611.360000000001 8724.43 600.21
vertex 4434.82 8630.31 599.95
vertex 4428.97 8642.01 600.47
endloop
endfacet
facet normal -0.014806692656959386 0.029613385313918925 -0.9994517543447566
outer loop
vertex 4611.360000000001 8724.43 600.21
vertex 4428.97 8642.01 600.47
vertex 4786.7300000000005 8820.89 600.47
endloop
endfacet
facet normal -0.017996121764561432 0.035411307030266924 -0.9992107780322644
outer loop
vertex 4611.360000000001 8724.43 600.21
vertex 4786.7300000000005 8820.89 600.47
vertex 4792.58 8809.19 599.95
endloop
endfacet
facet normal -0.022194838080923426 0.04438967616184662 -0.9987677136415694
outer loop
vertex 4611.360000000001 8724.43 600.21
vertex 4792.58 8809.19 599.95
vertex 4613.7 8719.75 599.95
endloop
endfacet
facet normal -0.8926979002042466 -0.45059989248408167 0.007084903969930428
outer loop
vertex 4746.04 8902.27 620.75
vertex 4752.93 8888.62 620.75
vertex 4747.7300000000005 8899.02 626.99
endloop
endfacet
facet normal -0.8943764908218175 -0.4471882454109389 -0.010647339176399833
outer loop
vertex 4746.04 8902.27 620.75
vertex 4744.74 8905 615.2900000000001
vertex 4758.26 8877.960000000001 615.2900000000001
endloop
endfacet
facet normal -0.8926895602220859 -0.45059568277880063 0.008299381398955266
outer loop
vertex 4746.04 8902.27 620.75
vertex 4758.26 8877.960000000001 615.2900000000001
vertex 4752.93 8888.62 620.75
endloop
endfacet
facet normal -0.8943581845429323 -0.44717909227144603 0.012421641451745308
outer loop
vertex 4744.74 8905 615.2900000000001
vertex 4743.4400000000005 8907.470000000001 610.61
vertex 4763.72 8866.91 610.61
endloop
endfacet
facet normal -0.8943581845429078 -0.447179092271484 0.012421641452152394
outer loop
vertex 4744.74 8905 615.2900000000001
vertex 4763.72 8866.91 610.61
vertex 4758.26 8877.960000000001 615.2900000000001
endloop
endfacet
facet normal -0.893879814362747 -0.448022086133395 -0.015971468670782207
outer loop
vertex 4743.4400000000005 8907.470000000001 610.61
vertex 4742.53 8909.42 606.84
vertex 4769.4400000000005 8855.73 606.84
endloop
endfacet
facet normal -0.894002082995395 -0.44700104149767744 -0.030827658034409303
outer loop
vertex 4743.4400000000005 8907.470000000001 610.61
vertex 4769.4400000000005 8855.73 606.84
vertex 4763.72 8866.91 610.61
endloop
endfacet
facet normal -0.8944271909999157 -0.44721359549995787 0
outer loop
vertex 4742.53 8909.42 606.84
vertex 4741.75 8910.98 603.85
vertex 4775.16 8844.16 603.85
endloop
endfacet
facet normal -0.893744509932334 -0.447954270111372 0.023616156647517414
outer loop
vertex 4742.53 8909.42 606.84
vertex 4775.16 8844.16 603.85
vertex 4769.4400000000005 8855.73 606.84
endloop
endfacet
facet normal -0.8947198099108362 -0.4466277283515574 0.0003660883015394683
outer loop
vertex 4741.75 8910.98 603.85
vertex 4741.2300000000005 8912.02 601.77
vertex 4780.88 8832.59 601.77
endloop
endfacet
facet normal -0.8940780099633844 -0.4470390049816922 0.027939937811182734
outer loop
vertex 4741.75 8910.98 603.85
vertex 4780.88 8832.59 601.77
vertex 4775.16 8844.16 603.85
endloop
endfacet
facet normal -0.8935341032175265 -0.44676705160876323 0.04467670516122795
outer loop
vertex 4741.2300000000005 8912.02 601.77
vertex 4740.84 8912.67 600.47
vertex 4786.7300000000005 8820.89 600.47
endloop
endfacet
facet normal -0.8947004449250225 -0.4466180617056111 -0.006589446812104287
outer loop
vertex 4741.2300000000005 8912.02 601.77
vertex 4786.7300000000005 8820.89 600.47
vertex 4780.88 8832.59 601.77
endloop
endfacet
facet normal -0.8945783867531252 -0.44691107591008156 0.0000135303155317197
outer loop
vertex 4736.03 8922.29 331.63
vertex 4740.84 8912.67 600.47
vertex 4658.29 9077.9 280.54
endloop
endfacet
facet normal -0.894787562332827 -0.4464891984584953 0.0016167728249735995
outer loop
vertex 4736.03 8922.29 331.63
vertex 4658.29 9077.9 280.54
vertex 4673.76 9046.83 261.95
endloop
endfacet
facet normal -0.8944271909999159 -0.4472135954999579 0
outer loop
vertex 4736.03 8922.29 331.63
vertex 4673.76 9046.83 261.95
vertex 4689.75 9014.85 245.70000000000002
endloop
endfacet
facet normal -0.8939389685838857 -0.4481867926667983 -0.0013112308061982408
outer loop
vertex 4736.03 8922.29 331.63
vertex 4689.75 9014.85 245.70000000000002
vertex 4706.26 8981.960000000001 231.92000000000002
endloop
endfacet
facet normal -0.8950664942655175 -0.44593254046120523 0.0003744343091353215
outer loop
vertex 4736.03 8922.29 331.63
vertex 4706.26 8981.960000000001 231.92000000000002
vertex 4723.03 8948.29 220.48000000000002
endloop
endfacet
facet normal -0.8941068233421752 -0.44785371875954305 -0.00018720633648081013
outer loop
vertex 4736.03 8922.29 331.63
vertex 4723.03 8948.29 220.48000000000002
vertex 4757.610000000001 8879.26 205.14000000000001
endloop
endfacet
facet normal -0.8951386502160006 -0.445786562781747 -0.0010664580216868862
outer loop
vertex 4736.03 8922.29 331.63
vertex 4757.610000000001 8879.26 205.14000000000001
vertex 4775.03 8844.29 201.24
endloop
endfacet
facet normal -0.8944271909999157 -0.44721359549995787 0
outer loop
vertex 4736.03 8922.29 331.63
vertex 4775.03 8844.29 201.24
vertex 4792.58 8809.19 199.94
endloop
endfacet
facet normal -0.8944271909999159 -0.4472135954999579 0
outer loop
vertex 4736.03 8922.29 331.63
vertex 4792.58 8809.19 199.94
vertex 4792.58 8809.19 599.95
endloop
endfacet
facet normal -0.8944271909999159 -0.4472135954999579 0
outer loop
vertex 4736.03 8922.29 331.63
vertex 4792.58 8809.19 599.95
vertex 4786.7300000000005 8820.89 600.47
endloop
endfacet
facet normal -0.8944271909999159 -0.4472135954999579 0
outer loop
vertex 4736.03 8922.29 331.63
vertex 4786.7300000000005 8820.89 600.47
vertex 4740.84 8912.67 600.47
endloop
endfacet
facet normal -0.8919666676578784 -0.45159165349974273 0.021457918740373477
outer loop
vertex 4723.03 8948.29 220.48000000000002
vertex 4740.1900000000005 8913.970000000001 211.51000000000002
vertex 4757.610000000001 8879.26 205.14000000000001
endloop
endfacet
facet normal 0.7601079269961093 0.570080945247082 -0.31183914953685826
outer loop
vertex 4394.13 8711.82 621.9200000000001
vertex 4393.74 8712.34 621.9200000000001
vertex 4389.97 8720.14 626.99
endloop
endfacet
facet normal 0.886775687854165 0.4611233576840567 -0.03152980223461757
outer loop
vertex 4394.13 8711.82 621.9200000000001
vertex 4395.17 8709.74 620.75
vertex 4393.4800000000005 8712.99 620.75
endloop
endfacet
facet normal 0.7904931751638729 0.5928698813729045 0.1537070062821372
outer loop
vertex 4394.13 8711.82 621.9200000000001
vertex 4393.4800000000005 8712.99 620.75
vertex 4393.74 8712.34 621.9200000000001
endloop
endfacet
facet normal 0.8930179570993289 0.4499702884608807 -0.006757795540946125
outer loop
vertex 4395.17 8709.74 620.75
vertex 4400.5 8699.08 615.2900000000001
vertex 4392.05 8715.85 615.2900000000001
endloop
endfacet
facet normal 0.8871784801395934 0.46133280967247936 0.009294250744264362
outer loop
vertex 4395.17 8709.74 620.75
vertex 4392.05 8715.85 615.2900000000001
vertex 4393.4800000000005 8712.99 620.75
endloop
endfacet
facet normal 0.8943581845429225 0.44717909227146124 -0.012421641451908343
outer loop
vertex 4400.5 8699.08 615.2900000000001
vertex 4405.96 8688.03 610.61
vertex 4390.88 8718.19 610.61
endloop
endfacet
facet normal 0.893037011423373 0.449979889476872 0.0017306918825929064
outer loop
vertex 4400.5 8699.08 615.2900000000001
vertex 4390.88 8718.19 610.61
vertex 4392.05 8715.85 615.2900000000001
endloop
endfacet
facet normal 0.8949569547547747 0.44613469816605206 0.003985000419821861
outer loop
vertex 4405.96 8688.03 610.61
vertex 4411.55 8676.85 606.84
vertex 4389.97 8720.14 606.84
endloop
endfacet
facet normal 0.8943208571481475 0.44716042857407373 0.01541932512314923
outer loop
vertex 4405.96 8688.03 610.61
vertex 4389.97 8720.14 606.84
vertex 4390.88 8718.19 610.61
endloop
endfacet
facet normal 0.8942581600636972 0.4471290800318486 0.019440394784145564
outer loop
vertex 4411.55 8676.85 606.84
vertex 4417.400000000001 8665.28 603.85
vertex 4389.1900000000005 8721.7 603.85
endloop
endfacet
facet normal 0.8949638409391617 0.44613813091862936 -0.0007011075915292528
outer loop
vertex 4411.55 8676.85 606.84
vertex 4389.1900000000005 8721.7 603.85
vertex 4389.97 8720.14 606.84
endloop
endfacet
facet normal 0.8940780099633747 0.44703900498168736 -0.027939937811573768
outer loop
vertex 4417.400000000001 8665.28 603.85
vertex 4423.12 8653.710000000001 601.77
vertex 4388.54 8722.87 601.77
endloop
endfacet
facet normal 0.8940780099633747 0.44703900498168736 -0.027939937811573664
outer loop
vertex 4417.400000000001 8665.28 603.85
vertex 4388.54 8722.87 601.77
vertex 4389.1900000000005 8721.7 603.85
endloop
endfacet
facet normal 0.894693957803483 0.4466335068460813 0.00642124850094309
outer loop
vertex 4423.12 8653.710000000001 601.77
vertex 4428.97 8642.01 600.47
vertex 4388.28 8723.52 600.47
endloop
endfacet
facet normal 0.8935341032175514 0.4467670516087757 0.044676705160605984
outer loop
vertex 4423.12 8653.710000000001 601.77
vertex 4388.28 8723.52 600.47
vertex 4388.54 8722.87 601.77
endloop
endfacet
facet normal 0.8944271909999432 0.44721359549990347 -2.461785789570014e-14
outer loop
vertex 4381.91 8736.130000000001 339.17
vertex 4428.97 8642.01 600.47
vertex 4434.82 8630.31 599.95
endloop
endfacet
facet normal 0.894427190999919 0.4472135954999518 0
outer loop
vertex 4381.91 8736.130000000001 339.17
vertex 4434.82 8630.31 599.95
vertex 4434.82 8630.31 199.94
endloop
endfacet
facet normal 0.8947785747457407 0.44650963617051 0.0006685677672410174
outer loop
vertex 4381.91 8736.130000000001 339.17
vertex 4434.82 8630.31 199.94
vertex 4399.85 8700.380000000001 205.14000000000001
endloop
endfacet
facet normal 0.8937557033494553 0.4485540575491978 -0.000013655445005877924
outer loop
vertex 4381.91 8736.130000000001 339.17
vertex 4399.85 8700.380000000001 205.14000000000001
vertex 4382.43 8735.09 211.51000000000002
endloop
endfacet
facet normal 0.894427190999916 0.447213595499958 0
outer loop
vertex 4381.91 8736.130000000001 339.17
vertex 4382.43 8735.09 211.51000000000002
vertex 4365.27 8769.41 220.48000000000002
endloop
endfacet
facet normal 0.8950572578768223 0.4459510168678374 -0.00044235343928466906
outer loop
vertex 4381.91 8736.130000000001 339.17
vertex 4365.27 8769.41 220.48000000000002
vertex 4348.5 8803.08 231.92000000000002
endloop
endfacet
facet normal 0.8939377061568441 0.44818933275243006 0.0013036556184117735
outer loop
vertex 4381.91 8736.130000000001 339.17
vertex 4348.5 8803.08 231.92000000000002
vertex 4331.99 8835.970000000001 245.70000000000002
endloop
endfacet
facet normal 0.8946927102377181 0.4466815980782679 -0.0007100603715910844
outer loop
vertex 4381.91 8736.130000000001 339.17
vertex 4331.99 8835.970000000001 245.70000000000002
vertex 4304.56 8890.960000000001 276.12
endloop
endfacet
facet normal 0.8946173003176259 0.44683310721869846 -0.0002454907041528231
outer loop
vertex 4381.91 8736.130000000001 339.17
vertex 4304.56 8890.960000000001 276.12
vertex 4388.28 8723.52 600.47
endloop
endfacet
facet normal 0.8947123740311453 0.4466427002739254 -0.0002569972144042839
outer loop
vertex 4381.91 8736.130000000001 339.17
vertex 4388.28 8723.52 600.47
vertex 4428.97 8642.01 600.47
endloop
endfacet
facet normal 0.8938739611877721 0.4477631117964343 -0.022305542469430447
outer loop
vertex 4434.82 8630.31 199.94
vertex 4417.27 8665.41 201.24
vertex 4399.85 8700.380000000001 205.14000000000001
endloop
endfacet
facet normal 0.38731241145342804 -0.7746248229068563 -0.49994547669786127
outer loop
vertex 4587.57 8953.1 419.12
vertex 4568.85 8809.58 626.99
vertex 4479.41 8988.460000000001 280.54
endloop
endfacet
facet normal 0.3873124114532386 -0.7746248229070195 -0.4999454766977551
outer loop
vertex 4587.57 8953.1 419.12
vertex 4479.41 8988.460000000001 280.54
vertex 4483.31 8990.41 280.54
endloop
endfacet
facet normal 0.38731241145342965 -0.7746248229068592 -0.49994547669785566
outer loop
vertex 4587.57 8953.1 419.12
vertex 4483.31 8990.41 280.54
vertex 4658.29 9077.9 280.54
endloop
endfacet
facet normal 0.38731241145342526 -0.7746248229068597 -0.4999454766978583
outer loop
vertex 4587.57 8953.1 419.12
vertex 4658.29 9077.9 280.54
vertex 4747.7300000000005 8899.02 626.99
endloop
endfacet
facet normal 0.38731241145342993 -0.7746248229068559 -0.4999454766978609
outer loop
vertex 4587.57 8953.1 419.12
vertex 4747.7300000000005 8899.02 626.99
vertex 4568.85 8809.58 626.99
endloop
endfacet
facet normal 0.8893915422519514 0.4565505314994431 -0.023330168414983768
outer loop
vertex 4304.56 8890.960000000001 276.12
vertex 4331.99 8835.970000000001 245.70000000000002
vertex 4316 8867.95 261.95
endloop
endfacet
facet normal 0.8404094194826851 0.5173146534621678 -0.16154738301220953
outer loop
vertex 4304.56 8890.960000000001 276.12
vertex 4316 8867.95 261.95
vertex 4304.43 8891.09 275.86
endloop
endfacet
facet normal -0.38683664461070266 0.7748010928500009 0.5000406752503013
outer loop
vertex 4304.43 8891.09 275.86
vertex 4304.43 8667.75 621.9200000000001
vertex 4393.74 8712.34 621.9200000000001
endloop
endfacet
facet normal -0.38434873861485885 0.768138830807308 0.5120925538720016
outer loop
vertex 4483.18 8980.79 275.47
vertex 4304.43 8891.35 275.47
vertex 4304.43 8891.09 275.86
endloop
endfacet
facet normal -0.3585685828002076 0.7171371656004115 0.5976143046675328
outer loop
vertex 4483.18 8980.79 275.47
vertex 4304.43 8891.09 275.86
vertex 4483.31 8980.53 275.86
endloop
endfacet
facet normal -0.3875373846194356 0.7745123056908059 0.4999454608813238
outer loop
vertex 4304.43 8891.35 275.47
vertex 4125.42 8801.78 275.47
vertex 4214.860000000001 8622.9 621.9200000000001
endloop
endfacet
facet normal -0.3877900657325902 0.7744561022891348 0.49983658384139357
outer loop
vertex 4304.43 8891.35 275.47
vertex 4214.860000000001 8622.9 621.9200000000001
vertex 4304.43 8667.75 621.9200000000001
endloop
endfacet
facet normal -0.22356824231184236 0.44713648462368244 -0.8660751729197466
outer loop
vertex 4389.97 8720.14 626.99
vertex 4389.97 9167.34 857.87
vertex 4568.85 8809.58 626.99
endloop
endfacet
facet normal -0.21958734805121521 0.45485950667753294 -0.8630667562598539
outer loop
vertex 4389.97 8710.52 621.9200000000001
vertex 4389.97 8720.14 626.99
vertex 4393.74 8712.34 621.9200000000001
endloop
endfacet
facet normal -0.22376855247972832 0.4472051041397491 -0.8659880078572008
outer loop
vertex 4158.05 9182.03 925.34
vertex 4389.97 8710.52 621.9200000000001
vertex 4214.860000000001 8622.9 621.9200000000001
endloop
endfacet
facet normal -0.2235492515784025 0.4472465159063016 -0.8660232595770222
outer loop
vertex 4158.05 9182.03 925.34
vertex 4214.860000000001 8622.9 621.9200000000001
vertex 3718.78 9615.19 1262.43
endloop
endfacet
facet normal -0.22360088326944094 0.44720176653888366 -0.8660330392113385
outer loop
vertex 4158.05 9182.03 925.34
vertex 3718.78 9615.19 1262.43
vertex 4076.54 9794.07 1262.43
endloop
endfacet
facet normal -0.22361905659180603 0.44719787004538664 -0.8660303589111992
outer loop
vertex 4158.05 9182.03 925.34
vertex 4076.54 9794.07 1262.43
vertex 4389.97 9167.34 857.87
endloop
endfacet
facet normal -0.2236011978995938 0.44728776555023975 -0.8659885444317035
outer loop
vertex 4158.05 9182.03 925.34
vertex 4389.97 9167.34 857.87
vertex 4389.97 8710.52 621.9200000000001
endloop
endfacet
facet normal -0.44708362460877804 0.8944921646424173 0
outer loop
vertex 4821.05 7410.52 599.95
vertex 5178.9400000000005 7589.400000000001 599.95
vertex 5178.9400000000005 7589.400000000001 199.94
endloop
endfacet
facet normal -0.44708362460877804 0.8944921646424173 0
outer loop
vertex 4821.05 7410.52 599.95
vertex 5178.9400000000005 7589.400000000001 199.94
vertex 4821.05 7410.52 199.94
endloop
endfacet
facet normal 0.44721359549995426 -0.8944271909999176 0
outer loop
vertex 4434.82 8630.31 199.94
vertex 4434.82 8630.31 599.95
vertex 4255.9400000000005 8540.87 599.95
endloop
endfacet
facet normal 0.44721359549995426 -0.8944271909999176 0
outer loop
vertex 4434.82 8630.31 199.94
vertex 4255.9400000000005 8540.87 599.95
vertex 4255.9400000000005 8540.87 199.94
endloop
endfacet
facet normal -0.44721359549995976 0.894427190999915 0
outer loop
vertex 4792.58 8809.19 599.95
vertex 4792.58 8809.19 199.94
vertex 4613.7 8719.75 199.94
endloop
endfacet
facet normal -0.44721359549995976 0.894427190999915 0
outer loop
vertex 4792.58 8809.19 599.95
vertex 4613.7 8719.75 199.94
vertex 4613.7 8719.75 599.95
endloop
endfacet
endsolid JSCAD
