solid JSCAD
facet normal -1 0 0
outer loop
vertex 0 0 0
vertex 0 0 3999.9700000000003
vertex 0 15000.050000000001 3999.9700000000003
endloop
endfacet
facet normal -1 0 0
outer loop
vertex 0 0 0
vertex 0 15000.050000000001 3999.9700000000003
vertex 0 15000.050000000001 0
endloop
endfacet
facet normal 1 0 0
outer loop
vertex 19999.98 0 0
vertex 19999.98 15000.050000000001 0
vertex 19999.98 15000.050000000001 3999.9700000000003
endloop
endfacet
facet normal 1 0 0
outer loop
vertex 19999.98 0 0
vertex 19999.98 15000.050000000001 3999.9700000000003
vertex 19999.98 0 3999.9700000000003
endloop
endfacet
facet normal 0 -1 0
outer loop
vertex 0 0 0
vertex 19999.98 0 0
vertex 19999.98 0 3999.9700000000003
endloop
endfacet
facet normal 0 -1 0
outer loop
vertex 0 0 0
vertex 19999.98 0 3999.9700000000003
vertex 0 0 3999.9700000000003
endloop
endfacet
facet normal 0 1 0
outer loop
vertex 0 15000.050000000001 0
vertex 0 15000.050000000001 3999.9700000000003
vertex 19999.98 15000.050000000001 3999.9700000000003
endloop
endfacet
facet normal 0 1 0
outer loop
vertex 0 15000.050000000001 0
vertex 19999.98 15000.050000000001 3999.9700000000003
vertex 19999.98 15000.050000000001 0
endloop
endfacet
facet normal 0 0 -1
outer loop
vertex 0 0 0
vertex 0 15000.050000000001 0
vertex 19999.98 15000.050000000001 0
endloop
endfacet
facet normal 0 0 -1
outer loop
vertex 0 0 0
vertex 19999.98 15000.050000000001 0
vertex 19999.98 0 0
endloop
endfacet
facet normal 0 0 1
outer loop
vertex 0 0 3999.9700000000003
vertex 19999.98 0 3999.9700000000003
vertex 19999.98 15000.050000000001 3999.9700000000003
endloop
endfacet
facet normal 0 0 1
outer loop
vertex 0 0 3999.9700000000003
vertex 19999.98 15000.050000000001 3999.9700000000003
vertex 0 15000.050000000001 3999.9700000000003
endloop
endfacet
facet normal 0.49939489614088184 0.8663744789110757 0
outer loop
vertex 3674.4500000000003 10789.09 599.95
vertex 3674.4500000000003 10789.09 199.94
vertex 3317.21 10995.01 199.94
endloop
endfacet
facet normal 0.49939489614088184 0.8663744789110757 0
outer loop
vertex 3674.4500000000003 10789.09 599.95
vertex 3317.21 10995.01 199.94
vertex 3317.21 10995.01 599.95
endloop
endfacet
facet normal -0.8484054315078431 -0.5293469786330989 0
outer loop
vertex 3595.02 11282.83 599.95
vertex 3595.02 11282.83 199.94
vertex 3813.29 10933 199.94
endloop
endfacet
facet normal -0.8484054315078431 -0.5293469786330989 0
outer loop
vertex 3595.02 11282.83 599.95
vertex 3813.29 10933 199.94
vertex 3813.29 10933 599.95
endloop
endfacet
facet normal 0 0 -1
outer loop
vertex 3414.58 11162.970000000001 599.95
vertex 3595.02 11282.83 599.95
vertex 3813.29 10933 599.95
endloop
endfacet
facet normal 0 0 -1
outer loop
vertex 3414.58 11162.970000000001 599.95
vertex 3813.29 10933 599.95
vertex 3424.85 10933 599.95
endloop
endfacet
facet normal 0 0 -1
outer loop
vertex 3414.58 11162.970000000001 599.95
vertex 3424.85 10933 599.95
vertex 3317.21 10995.01 599.95
endloop
endfacet
facet normal 0 0 -1
outer loop
vertex 3414.58 11162.970000000001 599.95
vertex 3317.21 10995.01 599.95
vertex 3029.52 11272.95 599.95
endloop
endfacet
facet normal 0 0 -1
outer loop
vertex 3414.58 11162.970000000001 599.95
vertex 3029.52 11272.95 599.95
vertex 3307.33 11560.640000000001 599.95
endloop
endfacet
facet normal 0 0 -1
outer loop
vertex 3414.58 11162.970000000001 599.95
vertex 3307.33 11560.640000000001 599.95
vertex 3595.02 11282.83 599.95
endloop
endfacet
facet normal 0 0 -1
outer loop
vertex 3813.29 10933 599.95
vertex 3962.27 10789.09 599.95
vertex 3674.4500000000003 10789.09 599.95
endloop
endfacet
facet normal 0 0 -1
outer loop
vertex 3813.29 10933 599.95
vertex 3674.4500000000003 10789.09 599.95
vertex 3424.85 10933 599.95
endloop
endfacet
facet normal 0 0 -1
outer loop
vertex 3962.27 10789.09 599.95
vertex 4101.110000000001 10655.19 599.95
vertex 3962.1400000000003 10511.28 599.95
endloop
endfacet
facet normal 0 0 -1
outer loop
vertex 3962.27 10789.09 599.95
vertex 3962.1400000000003 10511.28 599.95
vertex 3674.4500000000003 10789.09 599.95
endloop
endfacet
facet normal 0 0 1
outer loop
vertex 3414.58 11162.970000000001 199.94
vertex 3029.52 11272.95 199.94
vertex 3317.21 10995.01 199.94
endloop
endfacet
facet normal 0 0 1
outer loop
vertex 3414.58 11162.970000000001 199.94
vertex 3317.21 10995.01 199.94
vertex 3424.85 10933 199.94
endloop
endfacet
facet normal 0 0 1
outer loop
vertex 3414.58 11162.970000000001 199.94
vertex 3424.85 10933 199.94
vertex 3813.29 10933 199.94
endloop
endfacet
facet normal 0 0 1
outer loop
vertex 3414.58 11162.970000000001 199.94
vertex 3813.29 10933 199.94
vertex 3595.02 11282.83 199.94
endloop
endfacet
facet normal 0 0 1
outer loop
vertex 3414.58 11162.970000000001 199.94
vertex 3595.02 11282.83 199.94
vertex 3307.33 11560.640000000001 199.94
endloop
endfacet
facet normal 0 0 1
outer loop
vertex 3414.58 11162.970000000001 199.94
vertex 3307.33 11560.640000000001 199.94
vertex 3029.52 11272.95 199.94
endloop
endfacet
facet normal 0 0 1
outer loop
vertex 3424.85 10933 199.94
vertex 3674.4500000000003 10789.09 199.94
vertex 3962.27 10789.09 199.94
endloop
endfacet
facet normal 0 0 1
outer loop
vertex 3424.85 10933 199.94
vertex 3962.27 10789.09 199.94
vertex 3813.29 10933 199.94
endloop
endfacet
facet normal 0 0 1
outer loop
vertex 3674.4500000000003 10789.09 199.94
vertex 3962.1400000000003 10511.28 199.94
vertex 4101.110000000001 10655.19 199.94
endloop
endfacet
facet normal 0 0 1
outer loop
vertex 3674.4500000000003 10789.09 199.94
vertex 4101.110000000001 10655.19 199.94
vertex 3962.27 10789.09 199.94
endloop
endfacet
facet normal 0 0 1
outer loop
vertex 6977.360000000001 10441.99 199.94
vertex 8553.09 10164.18 199.94
vertex 8622.64 10558.08 199.94
endloop
endfacet
facet normal 0 0 0.9999999999999999
outer loop
vertex 6977.360000000001 10441.99 199.94
vertex 8622.64 10558.08 199.94
vertex 7046.91 10835.890000000001 199.94
endloop
endfacet
facet normal 0.7193510498899215 -0.6946467210188699 0
outer loop
vertex 3307.33 11560.640000000001 199.94
vertex 3307.33 11560.640000000001 599.95
vertex 3029.52 11272.95 599.95
endloop
endfacet
facet normal 0.7193510498899215 -0.6946467210188699 0
outer loop
vertex 3307.33 11560.640000000001 199.94
vertex 3029.52 11272.95 599.95
vertex 3029.52 11272.95 199.94
endloop
endfacet
facet normal 0.6948148699626193 0.7191886376179953 0
outer loop
vertex 3029.52 11272.95 599.95
vertex 3317.21 10995.01 599.95
vertex 3317.21 10995.01 199.94
endloop
endfacet
facet normal 0.6948148699626193 0.7191886376179953 0
outer loop
vertex 3029.52 11272.95 599.95
vertex 3317.21 10995.01 199.94
vertex 3029.52 11272.95 199.94
endloop
endfacet
facet normal -0.6946467210188723 -0.7193510498899192 0
outer loop
vertex 3595.02 11282.83 199.94
vertex 3595.02 11282.83 599.95
vertex 3307.33 11560.640000000001 599.95
endloop
endfacet
facet normal -0.6946467210188723 -0.7193510498899192 0
outer loop
vertex 3595.02 11282.83 199.94
vertex 3307.33 11560.640000000001 599.95
vertex 3307.33 11560.640000000001 199.94
endloop
endfacet
facet normal -0.7193454741981931 0.694652494957426 0
outer loop
vertex 3962.1400000000003 10511.28 599.95
vertex 4101.110000000001 10655.19 599.95
vertex 4101.110000000001 10655.19 199.94
endloop
endfacet
facet normal -0.7193454741981931 0.694652494957426 0
outer loop
vertex 3962.1400000000003 10511.28 599.95
vertex 4101.110000000001 10655.19 199.94
vertex 3962.1400000000003 10511.28 199.94
endloop
endfacet
facet normal 0.6946467210188699 0.7193510498899215 0
outer loop
vertex 3674.4500000000003 10789.09 599.95
vertex 3962.1400000000003 10511.28 599.95
vertex 3962.1400000000003 10511.28 199.94
endloop
endfacet
facet normal 0.6946467210188699 0.7193510498899215 0
outer loop
vertex 3674.4500000000003 10789.09 599.95
vertex 3962.1400000000003 10511.28 199.94
vertex 3674.4500000000003 10789.09 199.94
endloop
endfacet
facet normal -0.6944843120071379 -0.7195078459446933 0
outer loop
vertex 4101.110000000001 10655.19 199.94
vertex 4101.110000000001 10655.19 599.95
vertex 3813.29 10933 599.95
endloop
endfacet
facet normal -0.6944843120071379 -0.7195078459446933 0
outer loop
vertex 4101.110000000001 10655.19 199.94
vertex 3813.29 10933 599.95
vertex 3813.29 10933 199.94
endloop
endfacet
facet normal -0.19319039677164743 0.03404741646074585 -0.9805703666884709
outer loop
vertex 8327.15 10610.08 349.96000000000004
vertex 8257.73 10216.18 349.96000000000004
vertex 7272.85 10389.86 550.03
endloop
endfacet
facet normal -0.19319039677164743 0.03404741646074579 -0.9805703666884709
outer loop
vertex 8327.15 10610.08 349.96000000000004
vertex 7272.85 10389.86 550.03
vertex 7342.27 10783.76 550.03
endloop
endfacet
facet normal 0.17368265808131533 0.9848016692244543 0.00008108352187828069
outer loop
vertex 7272.85 10389.86 550.03
vertex 8257.73 10216.18 349.96000000000004
vertex 6977.360000000001 10441.99 349.96000000000004
endloop
endfacet
facet normal 0.17373590172757641 0.9847922808648054 0
outer loop
vertex 7272.85 10389.86 550.03
vertex 6977.360000000001 10441.99 349.96000000000004
vertex 6977.360000000001 10441.99 550.03
endloop
endfacet
facet normal 0.17362774258546743 0.9848113560498146 0
outer loop
vertex 8553.09 10164.18 349.96000000000004
vertex 8553.09 10164.18 199.94
vertex 6977.360000000001 10441.99 199.94
endloop
endfacet
facet normal 0.17362774258546743 0.9848113560498146 0
outer loop
vertex 8553.09 10164.18 349.96000000000004
vertex 6977.360000000001 10441.99 199.94
vertex 6977.360000000001 10441.99 349.96000000000004
endloop
endfacet
facet normal -0.17369976289998645 -0.9847986557507521 0
outer loop
vertex 7046.91 10835.890000000001 550.03
vertex 7046.91 10835.890000000001 349.96000000000004
vertex 8327.15 10610.08 349.96000000000004
endloop
endfacet
facet normal -0.1738100143583817 -0.9847789342200406 -0.0007277535159989365
outer loop
vertex 7046.91 10835.890000000001 550.03
vertex 8327.15 10610.08 349.96000000000004
vertex 7342.27 10783.76 550.03
endloop
endfacet
facet normal -0.1736277425854685 -0.9848113560498143 0
outer loop
vertex 7046.91 10835.890000000001 349.96000000000004
vertex 7046.91 10835.890000000001 199.94
vertex 8622.64 10558.08 199.94
endloop
endfacet
facet normal -0.1736277425854685 -0.9848113560498143 0
outer loop
vertex 7046.91 10835.890000000001 349.96000000000004
vertex 8622.64 10558.08 199.94
vertex 8622.64 10558.08 349.96000000000004
endloop
endfacet
facet normal 0.9847114973023039 -0.17419318896172323 0
outer loop
vertex 7012.070000000001 10638.94 366.6
vertex 7046.91 10835.890000000001 199.94
vertex 7046.91 10835.890000000001 349.96000000000004
endloop
endfacet
facet normal 0.984711497302304 -0.17419318896172326 0
outer loop
vertex 7012.070000000001 10638.94 366.6
vertex 7046.91 10835.890000000001 349.96000000000004
vertex 7046.91 10835.890000000001 550.03
endloop
endfacet
facet normal 0.9847671351492537 -0.1738780255131496 -0.0003489607140833345
outer loop
vertex 7012.070000000001 10638.94 366.6
vertex 7046.91 10835.890000000001 550.03
vertex 6977.360000000001 10441.99 550.03
endloop
endfacet
facet normal 0.9848227983298303 -0.1735628298046627 0
outer loop
vertex 7012.070000000001 10638.94 366.6
vertex 6977.360000000001 10441.99 550.03
vertex 6977.360000000001 10441.99 349.96000000000004
endloop
endfacet
facet normal 0.9848227983298304 -0.1735628298046627 0
outer loop
vertex 7012.070000000001 10638.94 366.6
vertex 6977.360000000001 10441.99 349.96000000000004
vertex 6977.360000000001 10441.99 199.94
endloop
endfacet
facet normal 0.98476712247546 -0.17387802327536755 0.0003840745407446864
outer loop
vertex 7012.070000000001 10638.94 366.6
vertex 6977.360000000001 10441.99 199.94
vertex 7046.91 10835.890000000001 199.94
endloop
endfacet
facet normal 0 0 -1
outer loop
vertex 7046.91 10835.890000000001 550.03
vertex 7342.27 10783.76 550.03
vertex 7272.85 10389.86 550.03
endloop
endfacet
facet normal 0 0 -1
outer loop
vertex 7046.91 10835.890000000001 550.03
vertex 7272.85 10389.86 550.03
vertex 6977.360000000001 10441.99 550.03
endloop
endfacet
facet normal -0.9847671951085687 0.17387803610002617 0
outer loop
vertex 8553.09 10164.18 349.96000000000004
vertex 8622.64 10558.08 349.96000000000004
vertex 8622.64 10558.08 199.94
endloop
endfacet
facet normal -0.9847671951085687 0.17387803610002617 0
outer loop
vertex 8553.09 10164.18 349.96000000000004
vertex 8622.64 10558.08 199.94
vertex 8553.09 10164.18 199.94
endloop
endfacet
facet normal 0 0 -1
outer loop
vertex 8327.15 10610.08 349.96000000000004
vertex 8622.64 10558.08 349.96000000000004
vertex 8553.09 10164.18 349.96000000000004
endloop
endfacet
facet normal 0 0 -1
outer loop
vertex 8327.15 10610.08 349.96000000000004
vertex 8553.09 10164.18 349.96000000000004
vertex 8257.73 10216.18 349.96000000000004
endloop
endfacet
endsolid JSCAD
