solid JSCAD
facet normal -1 0 0
outer loop
vertex 0 0 0
vertex 0 0 3999.9700000000003
vertex 0 15000.050000000001 3999.9700000000003
endloop
endfacet
facet normal -1 0 0
outer loop
vertex 0 0 0
vertex 0 15000.050000000001 3999.9700000000003
vertex 0 15000.050000000001 0
endloop
endfacet
facet normal 1 0 0
outer loop
vertex 19999.98 0 0
vertex 19999.98 15000.050000000001 0
vertex 19999.98 15000.050000000001 3999.9700000000003
endloop
endfacet
facet normal 1 0 0
outer loop
vertex 19999.98 0 0
vertex 19999.98 15000.050000000001 3999.9700000000003
vertex 19999.98 0 3999.9700000000003
endloop
endfacet
facet normal 0 -1 0
outer loop
vertex 0 0 0
vertex 19999.98 0 0
vertex 19999.98 0 3999.9700000000003
endloop
endfacet
facet normal 0 -1 0
outer loop
vertex 0 0 0
vertex 19999.98 0 3999.9700000000003
vertex 0 0 3999.9700000000003
endloop
endfacet
facet normal 0 1 0
outer loop
vertex 0 15000.050000000001 0
vertex 0 15000.050000000001 3999.9700000000003
vertex 19999.98 15000.050000000001 3999.9700000000003
endloop
endfacet
facet normal 0 1 0
outer loop
vertex 0 15000.050000000001 0
vertex 19999.98 15000.050000000001 3999.9700000000003
vertex 19999.98 15000.050000000001 0
endloop
endfacet
facet normal 0 0 -1
outer loop
vertex 0 0 0
vertex 0 15000.050000000001 0
vertex 19999.98 15000.050000000001 0
endloop
endfacet
facet normal 0 0 -1
outer loop
vertex 0 0 0
vertex 19999.98 15000.050000000001 0
vertex 19999.98 0 0
endloop
endfacet
facet normal 0 0 1
outer loop
vertex 0 0 3999.9700000000003
vertex 19999.98 0 3999.9700000000003
vertex 19999.98 15000.050000000001 3999.9700000000003
endloop
endfacet
facet normal 0 0 1
outer loop
vertex 0 0 3999.9700000000003
vertex 19999.98 15000.050000000001 3999.9700000000003
vertex 0 15000.050000000001 3999.9700000000003
endloop
endfacet
facet normal 0.09066759924050717 -0.9958812110126202 0
outer loop
vertex 6022.12 11502.01 475.28000000000003
vertex 6199.18 11518.130000000001 199.94
vertex 6199.18 11518.130000000001 316.03000000000003
endloop
endfacet
facet normal 0.09066759924050716 -0.9958812110126202 0
outer loop
vertex 6022.12 11502.01 475.28000000000003
vertex 6199.18 11518.130000000001 316.03000000000003
vertex 6199.18 11518.130000000001 580.97
endloop
endfacet
facet normal 0.09066759924050707 -0.9958812110126201 0
outer loop
vertex 6022.12 11502.01 475.28000000000003
vertex 6199.18 11518.130000000001 580.97
vertex 6199.18 11518.130000000001 599.82
endloop
endfacet
facet normal 0.09066759924051594 -0.9958812110126194 0
outer loop
vertex 6022.12 11502.01 475.28000000000003
vertex 6199.18 11518.130000000001 599.82
vertex 6199.18 11518.130000000001 599.95
endloop
endfacet
facet normal 0.09068227318833474 -0.9958798747277926 -0.000021013155641087383
outer loop
vertex 6022.12 11502.01 475.28000000000003
vertex 6199.18 11518.130000000001 599.95
vertex 5800.860000000001 11481.86 599.95
endloop
endfacet
facet normal 0.09069401578872323 -0.9958788056285339 0
outer loop
vertex 6022.12 11502.01 475.28000000000003
vertex 5800.860000000001 11481.86 599.95
vertex 5800.860000000001 11481.86 599.82
endloop
endfacet
facet normal 0.09069401578873104 -0.9958788056285329 0
outer loop
vertex 6022.12 11502.01 475.28000000000003
vertex 5800.860000000001 11481.86 599.82
vertex 5800.860000000001 11481.86 580.97
endloop
endfacet
facet normal 0.09069401578873108 -0.9958788056285329 0
outer loop
vertex 6022.12 11502.01 475.28000000000003
vertex 5800.860000000001 11481.86 580.97
vertex 5800.860000000001 11481.86 199.94
endloop
endfacet
facet normal 0.09068227320425074 -0.9958798749025832 0.000009514455270698625
outer loop
vertex 6022.12 11502.01 475.28000000000003
vertex 5800.860000000001 11481.86 199.94
vertex 6199.18 11518.130000000001 199.94
endloop
endfacet
facet normal -0.09035990568286376 0.9959091763032331 0
outer loop
vertex 6314.49 10249.59 599.95
vertex 6314.49 10249.59 599.82
vertex 5916.17 10213.45 599.82
endloop
endfacet
facet normal -0.09035990568286376 0.9959091763032331 0
outer loop
vertex 6314.49 10249.59 599.95
vertex 5916.17 10213.45 599.82
vertex 5916.17 10213.45 599.95
endloop
endfacet
facet normal -0.08725707927319436 0.9961849883681043 0.0012926974708744726
outer loop
vertex 6341.27 10252.06 300.56
vertex 6335.16 10251.54 288.86
vertex 6317.35 10249.98 288.86
endloop
endfacet
facet normal -0.08818171396528848 0.9960992702517225 0.0031983005065125466
outer loop
vertex 6341.27 10252.06 300.56
vertex 6317.35 10249.98 288.86
vertex 6318.26 10249.98 313.95
endloop
endfacet
facet normal -0.09145178311488786 0.9958083050287 -0.0015462861879655264
outer loop
vertex 6335.16 10251.54 288.86
vertex 6329.7 10251.02 276.90000000000003
vertex 6316.96 10249.85 276.90000000000003
endloop
endfacet
facet normal -0.087254372101663 0.9961540814931211 -0.007982510491106307
outer loop
vertex 6335.16 10251.54 288.86
vertex 6316.96 10249.85 276.90000000000003
vertex 6317.35 10249.98 288.86
endloop
endfacet
facet normal -0.09053558158957374 0.9958913974844663 0.001906012244059298
outer loop
vertex 6329.7 10251.02 276.90000000000003
vertex 6325.150000000001 10250.630000000001 264.55
vertex 6316.570000000001 10249.85 264.55
endloop
endfacet
facet normal -0.09145151108087185 0.9958053428805255 0.0028879424551811195
outer loop
vertex 6329.7 10251.02 276.90000000000003
vertex 6316.570000000001 10249.85 264.55
vertex 6316.96 10249.85 276.90000000000003
endloop
endfacet
facet normal -0.07573961095508372 0.9970994936740989 -0.007490730753947455
outer loop
vertex 6325.150000000001 10250.630000000001 264.55
vertex 6321.25 10250.24 252.07000000000002
vertex 6316.18 10249.85 251.42000000000002
endloop
endfacet
facet normal -0.09053541868104743 0.9958896054906772 0.002689170851914556
outer loop
vertex 6325.150000000001 10250.630000000001 264.55
vertex 6316.18 10249.85 251.42000000000002
vertex 6316.570000000001 10249.85 264.55
endloop
endfacet
facet normal -0.08991996636076194 0.9959489945020678 0
outer loop
vertex 6200.74 10239.32 345.8
vertex 6314.49 10249.59 580.97
vertex 6314.49 10249.59 316.03000000000003
endloop
endfacet
facet normal -0.08991996636076191 0.9959489945020675 0
outer loop
vertex 6200.74 10239.32 345.8
vertex 6314.49 10249.59 316.03000000000003
vertex 6314.49 10249.59 251.42000000000002
endloop
endfacet
facet normal -0.08991996636076198 0.9959489945020676 0
outer loop
vertex 6200.74 10239.32 345.8
vertex 6314.49 10249.59 251.42000000000002
vertex 6314.49 10249.59 239.20000000000002
endloop
endfacet
facet normal -0.08991996636076198 0.9959489945020675 0
outer loop
vertex 6200.74 10239.32 345.8
vertex 6314.49 10249.59 239.20000000000002
vertex 6314.49 10249.59 226.07000000000002
endloop
endfacet
facet normal -0.09035989766059781 0.9959090878851652 -0.00042138166133733014
outer loop
vertex 6200.74 10239.32 345.8
vertex 6314.49 10249.59 226.07000000000002
vertex 5916.17 10213.45 226.07000000000002
endloop
endfacet
facet normal -0.0905357460425151 0.9958932064677042 0
outer loop
vertex 6200.74 10239.32 345.8
vertex 5916.17 10213.45 226.07000000000002
vertex 5916.17 10213.45 580.97
endloop
endfacet
facet normal -0.09035990360345805 0.9959091533848913 0.00021453429276730349
outer loop
vertex 6200.74 10239.32 345.8
vertex 5916.17 10213.45 580.97
vertex 6314.49 10249.59 580.97
endloop
endfacet
facet normal -0.15205718425402107 0.9883716976506048 0
outer loop
vertex 6316.18 10249.85 226.07000000000002
vertex 6314.49 10249.59 226.07000000000002
vertex 6316.18 10249.85 226.20000000000002
endloop
endfacet
facet normal -0.09059426289444351 0.99588747059948 -0.0009085337540281509
outer loop
vertex 6316.18 10249.85 226.07000000000002
vertex 6314.88 10249.720000000001 213.20000000000002
vertex 5916.17 10213.45 213.20000000000002
endloop
endfacet
facet normal -0.0906232916125876 0.9958852438997677 0
outer loop
vertex 6316.18 10249.85 226.07000000000002
vertex 5916.17 10213.45 213.20000000000002
vertex 5916.17 10213.45 226.07000000000002
endloop
endfacet
facet normal -0.09035762428697741 0.9958840317097231 -0.007105991753493781
outer loop
vertex 6314.88 10249.720000000001 213.20000000000002
vertex 6314.49 10249.59 199.94
vertex 5916.17 10213.45 199.94
endloop
endfacet
facet normal -0.09059430028424013 0.9958878816192156 0
outer loop
vertex 6314.88 10249.720000000001 213.20000000000002
vertex 5916.17 10213.45 199.94
vertex 5916.17 10213.45 213.20000000000002
endloop
endfacet
facet normal 0.9958932064677039 0.09053574604251814 0
outer loop
vertex 5916.17 10213.45 599.95
vertex 5916.17 10213.45 599.82
vertex 5800.860000000001 11481.86 599.82
endloop
endfacet
facet normal 0.9958932064677039 0.09053574604251814 0
outer loop
vertex 5916.17 10213.45 599.95
vertex 5800.860000000001 11481.86 599.82
vertex 5800.860000000001 11481.86 599.95
endloop
endfacet
facet normal 0.9958958697401085 0.09050644468024784 -0.000010292438070449018
outer loop
vertex 6033.95 8917.48 889.2
vertex 5988.58 9416.68 599.82
vertex 5916.17 10213.45 599.82
endloop
endfacet
facet normal 0.9958978008941849 0.09048513040734936 -0.00010653305447569798
outer loop
vertex 6033.95 8917.48 889.2
vertex 5916.17 10213.45 599.82
vertex 6015.88 9116.77 1235.65
endloop
endfacet
facet normal 0.9958945383387436 0.09052109299195162 -0.00001518562842160175
outer loop
vertex 6186.4400000000005 7239.570000000001 599.82
vertex 6114.030000000001 8036.21 599.82
vertex 6068.66 8535.41 889.2
endloop
endfacet
facet normal 0.995896472687113 0.09049977412935786 0.00008106726553945821
outer loop
vertex 6186.4400000000005 7239.570000000001 599.82
vertex 6068.66 8535.41 889.2
vertex 6086.7300000000005 8336.25 1235.65
endloop
endfacet
facet normal 0.9958881420507767 0.09059143735835024 0
outer loop
vertex 6300.84 5981.95 599.95
vertex 6300.84 5981.95 599.82
vertex 6186.4400000000005 7239.570000000001 599.82
endloop
endfacet
facet normal 0.9958881420507767 0.09059143735835024 0
outer loop
vertex 6300.84 5981.95 599.95
vertex 6186.4400000000005 7239.570000000001 599.82
vertex 6186.4400000000005 7239.570000000001 599.95
endloop
endfacet
facet normal 0.9958939748891595 0.09050686481948657 -0.0019230704660507044
outer loop
vertex 5988.58 9416.68 599.82
vertex 5985.59 9449.18 580.97
vertex 5800.860000000001 11481.86 580.97
endloop
endfacet
facet normal 0.9958942341093822 0.09052444127243753 0
outer loop
vertex 5988.58 9416.68 599.82
vertex 5800.860000000001 11481.86 580.97
vertex 5800.860000000001 11481.86 599.82
endloop
endfacet
facet normal 0.9958921566257479 0.09054729356152297 0
outer loop
vertex 6300.84 5981.95 599.82
vertex 6300.84 5981.95 580.97
vertex 6117.02 8003.71 580.97
endloop
endfacet
facet normal 0.9958889669422439 0.09056400743551452 0.0018237543502847686
outer loop
vertex 6300.84 5981.95 599.82
vertex 6117.02 8003.71 580.97
vertex 6114.030000000001 8036.21 599.82
endloop
endfacet
facet normal 0.9958875787607703 0.09059762949443297 0
outer loop
vertex 6232.2 6736.47 458.90000000000003
vertex 6300.84 5981.95 580.97
vertex 6300.84 5981.95 316.03000000000003
endloop
endfacet
facet normal 0.9958881415094252 0.09059143730910592 0.00003297231567592594
outer loop
vertex 6232.2 6736.47 458.90000000000003
vertex 6300.84 5981.95 316.03000000000003
vertex 6186.4400000000005 7239.570000000001 316.03000000000003
endloop
endfacet
facet normal 0.9958889867692585 0.09058215073456678 0
outer loop
vertex 6232.2 6736.47 458.90000000000003
vertex 6186.4400000000005 7239.570000000001 316.03000000000003
vertex 6186.4400000000005 7239.570000000001 500.5
endloop
endfacet
facet normal 0.9958889867692585 0.0905821507345668 0
outer loop
vertex 6232.2 6736.47 458.90000000000003
vertex 6186.4400000000005 7239.570000000001 500.5
vertex 6186.4400000000005 7239.570000000001 580.97
endloop
endfacet
facet normal 0.9958881413092212 0.09059143729089429 -0.00003859060161933755
outer loop
vertex 6232.2 6736.47 458.90000000000003
vertex 6186.4400000000005 7239.570000000001 580.97
vertex 6300.84 5981.95 580.97
endloop
endfacet
facet normal 0.9959001254909751 0.09045937523595525 -0.00020366389145347167
outer loop
vertex 5985.59 9449.18 580.97
vertex 5933.46 10022.35 248.69
vertex 5916.17 10213.45 580.97
endloop
endfacet
facet normal 0.9958987439939591 0.09047463921278923 0.00017711739138914187
outer loop
vertex 6186.4400000000005 7239.570000000001 580.97
vertex 6169.150000000001 7430.54 248.69
vertex 6117.02 8003.71 580.97
endloop
endfacet
facet normal 0.9958831597816028 0.09064619166523706 0
outer loop
vertex 5877.6900000000005 10636.210000000001 333.58
vertex 5916.17 10213.45 580.97
vertex 5916.17 10213.45 226.07000000000002
endloop
endfacet
facet normal 0.9958831597816026 0.09064619166523696 0
outer loop
vertex 5877.6900000000005 10636.210000000001 333.58
vertex 5916.17 10213.45 226.07000000000002
vertex 5916.17 10213.45 213.20000000000002
endloop
endfacet
facet normal 0.9958831597816027 0.09064619166523702 0
outer loop
vertex 5877.6900000000005 10636.210000000001 333.58
vertex 5916.17 10213.45 213.20000000000002
vertex 5916.17 10213.45 199.94
endloop
endfacet
facet normal 0.9958931446722316 0.09053574042474793 0.0003522791456194179
outer loop
vertex 5877.6900000000005 10636.210000000001 333.58
vertex 5916.17 10213.45 199.94
vertex 5800.860000000001 11481.86 199.94
endloop
endfacet
facet normal 0.9958982245221039 0.09048053046772683 0
outer loop
vertex 5877.6900000000005 10636.210000000001 333.58
vertex 5800.860000000001 11481.86 199.94
vertex 5800.860000000001 11481.86 580.97
endloop
endfacet
facet normal 0.9958931884348137 0.09053574440316449 -0.00019030109175534825
outer loop
vertex 5877.6900000000005 10636.210000000001 333.58
vertex 5800.860000000001 11481.86 580.97
vertex 5916.17 10213.45 580.97
endloop
endfacet
facet normal 0.9958856544606062 0.09061877972898429 0
outer loop
vertex 6236.88 6684.860000000001 253.89000000000001
vertex 6300.84 5981.95 316.03000000000003
vertex 6300.84 5981.95 199.94
endloop
endfacet
facet normal 0.9958904676723476 0.09056289469981565 0.000733827597328904
outer loop
vertex 6236.88 6684.860000000001 253.89000000000001
vertex 6300.84 5981.95 199.94
vertex 6222.71 6841.12 199.94
endloop
endfacet
facet normal 0.9959135553581453 0.09031162856409225 0
outer loop
vertex 6236.88 6684.860000000001 253.89000000000001
vertex 6222.71 6841.12 199.94
vertex 6222.71 6841.12 213.20000000000002
endloop
endfacet
facet normal 0.9959135553581453 0.09031162856409221 0
outer loop
vertex 6236.88 6684.860000000001 253.89000000000001
vertex 6222.71 6841.12 213.20000000000002
vertex 6222.71 6841.12 226.20000000000002
endloop
endfacet
facet normal 0.9959135553581453 0.09031162856409222 0
outer loop
vertex 6236.88 6684.860000000001 253.89000000000001
vertex 6222.71 6841.12 226.20000000000002
vertex 6222.71 6841.12 239.20000000000002
endloop
endfacet
facet normal 0.9959135553581453 0.09031162856409226 0
outer loop
vertex 6236.88 6684.860000000001 253.89000000000001
vertex 6222.71 6841.12 239.20000000000002
vertex 6222.71 6841.12 252.07000000000002
endloop
endfacet
facet normal 0.9959135553581453 0.09031162856409224 0
outer loop
vertex 6236.88 6684.860000000001 253.89000000000001
vertex 6222.71 6841.12 252.07000000000002
vertex 6222.71 6841.12 264.55
endloop
endfacet
facet normal 0.9959135553581453 0.09031162856409225 0
outer loop
vertex 6236.88 6684.860000000001 253.89000000000001
vertex 6222.71 6841.12 264.55
vertex 6222.71 6841.12 276.90000000000003
endloop
endfacet
facet normal 0.9959135553581453 0.09031162856409224 0
outer loop
vertex 6236.88 6684.860000000001 253.89000000000001
vertex 6222.71 6841.12 276.90000000000003
vertex 6222.71 6841.12 288.86
endloop
endfacet
facet normal 0.9959135553581452 0.09031162856409221 0
outer loop
vertex 6236.88 6684.860000000001 253.89000000000001
vertex 6222.71 6841.12 288.86
vertex 6222.71 6841.12 316.03000000000003
endloop
endfacet
facet normal 0.995890533696969 0.09056290070387035 -0.0006371097763211353
outer loop
vertex 6236.88 6684.860000000001 253.89000000000001
vertex 6222.71 6841.12 316.03000000000003
vertex 6300.84 5981.95 316.03000000000003
endloop
endfacet
facet normal 0 0 0.9999999999999999
outer loop
vertex 5800.860000000001 11481.86 199.94
vertex 5916.17 10213.45 199.94
vertex 6314.49 10249.59 199.94
endloop
endfacet
facet normal 0 0 0.9999999999999999
outer loop
vertex 5800.860000000001 11481.86 199.94
vertex 6314.49 10249.59 199.94
vertex 6199.18 11518.130000000001 199.94
endloop
endfacet
facet normal 0 0 0.9999999999999999
outer loop
vertex 6186.4400000000005 7239.570000000001 199.94
vertex 6300.84 5981.95 199.94
vertex 6699.16 6018.09 199.94
endloop
endfacet
facet normal 0 0 1
outer loop
vertex 6186.4400000000005 7239.570000000001 199.94
vertex 6699.16 6018.09 199.94
vertex 6584.89 7275.71 199.94
endloop
endfacet
facet normal 0 0 -1
outer loop
vertex 6314.49 10249.59 599.95
vertex 5916.17 10213.45 599.95
vertex 5800.860000000001 11481.86 599.95
endloop
endfacet
facet normal 0 0 -0.9999999999999999
outer loop
vertex 6314.49 10249.59 599.95
vertex 5800.860000000001 11481.86 599.95
vertex 6199.18 11518.130000000001 599.95
endloop
endfacet
facet normal 0 0 -1
outer loop
vertex 6699.16 6018.09 599.95
vertex 6300.84 5981.95 599.95
vertex 6186.4400000000005 7239.570000000001 599.95
endloop
endfacet
facet normal 0 0 -1
outer loop
vertex 6699.16 6018.09 599.95
vertex 6186.4400000000005 7239.570000000001 599.95
vertex 6584.89 7275.71 599.95
endloop
endfacet
facet normal -0.8820761247975455 -0.08031959491465802 0.4642095138349603
outer loop
vertex 6298.89 10649.86 288.86
vertex 6335.16 10251.54 288.86
vertex 6341.27 10252.06 300.56
endloop
endfacet
facet normal -0.8777092870016315 -0.07960952097437368 0.472534370899428
outer loop
vertex 6298.89 10649.86 288.86
vertex 6341.27 10252.06 300.56
vertex 6305.13 10650.51 300.56
endloop
endfacet
facet normal -0.9052604144168186 -0.08213524647776492 0.4168421564284572
outer loop
vertex 6293.56 10649.34 276.90000000000003
vertex 6329.7 10251.02 276.90000000000003
vertex 6335.16 10251.54 288.86
endloop
endfacet
facet normal -0.9089250331766265 -0.08276438781210042 0.4086628686031514
outer loop
vertex 6293.56 10649.34 276.90000000000003
vertex 6335.16 10251.54 288.86
vertex 6298.89 10649.86 288.86
endloop
endfacet
facet normal -0.9340686166276091 -0.08505389818508689 0.34681645554227253
outer loop
vertex 6288.88 10648.95 264.55
vertex 6325.150000000001 10250.630000000001 264.55
vertex 6329.7 10251.02 276.90000000000003
endloop
endfacet
facet normal -0.9308820527639691 -0.08445992515286536 0.355422459736454
outer loop
vertex 6288.88 10648.95 264.55
vertex 6329.7 10251.02 276.90000000000003
vertex 6293.56 10649.34 276.90000000000003
endloop
endfacet
facet normal -0.9501589490548059 -0.08618081169240825 0.29961782194506476
outer loop
vertex 6285.110000000001 10648.69 252.07000000000002
vertex 6321.25 10250.24 252.07000000000002
vertex 6325.150000000001 10250.630000000001 264.55
endloop
endfacet
facet normal -0.9531612997210682 -0.08679242905423676 0.2897423182293349
outer loop
vertex 6285.110000000001 10648.69 252.07000000000002
vertex 6325.150000000001 10250.630000000001 264.55
vertex 6288.88 10648.95 264.55
endloop
endfacet
facet normal -0.9719760578239682 -0.08850565278488556 0.21778267250196745
outer loop
vertex 6282.12 10648.300000000001 239.20000000000002
vertex 6318.39 10249.98 239.20000000000002
vertex 6321.25 10250.24 252.07000000000002
endloop
endfacet
facet normal -0.9696928998403745 -0.08795256970819552 0.22794741823694903
outer loop
vertex 6282.12 10648.300000000001 239.20000000000002
vertex 6321.25 10250.24 252.07000000000002
vertex 6285.110000000001 10648.69 252.07000000000002
endloop
endfacet
facet normal -0.9817890973729106 -0.08907877580602866 0.16779493431145237
outer loop
vertex 6280.04 10648.17 226.20000000000002
vertex 6316.18 10249.85 226.20000000000002
vertex 6318.39 10249.98 239.20000000000002
endloop
endfacet
facet normal -0.9833342405636541 -0.08953989984244835 0.15822887748861067
outer loop
vertex 6280.04 10648.17 226.20000000000002
vertex 6318.39 10249.98 239.20000000000002
vertex 6282.12 10648.300000000001 239.20000000000002
endloop
endfacet
facet normal -0.9909180323469338 -0.08990705384871094 0.09999087377318884
outer loop
vertex 6278.74 10648.04 213.20000000000002
vertex 6314.88 10249.720000000001 213.20000000000002
vertex 6316.18 10249.85 226.20000000000002
endloop
endfacet
facet normal -0.9909180323469338 -0.08990705384871094 0.09999087377318884
outer loop
vertex 6278.74 10648.04 213.20000000000002
vertex 6316.18 10249.85 226.20000000000002
vertex 6280.04 10648.17 226.20000000000002
endloop
endfacet
facet normal -0.9951239381922788 -0.09058387561358619 0.03902446816436755
outer loop
vertex 6278.74 10648.04 213.20000000000002
vertex 6278.22 10648.04 199.94
vertex 6314.49 10249.59 199.94
endloop
endfacet
facet normal -0.9954560129330541 -0.09031878968518006 0.030163596357721076
outer loop
vertex 6278.74 10648.04 213.20000000000002
vertex 6314.49 10249.59 199.94
vertex 6314.88 10249.720000000001 213.20000000000002
endloop
endfacet
facet normal -0.49656710906237134 -0.045201377953800824 -0.8668205936804436
outer loop
vertex 6341.27 10252.06 300.56
vertex 6314.49 10249.59 316.03000000000003
vertex 6278.22 10648.04 316.03000000000003
endloop
endfacet
facet normal -0.49479104607984065 -0.044878274326328446 -0.8678523844598849
outer loop
vertex 6341.27 10252.06 300.56
vertex 6278.22 10648.04 316.03000000000003
vertex 6305.13 10650.51 300.56
endloop
endfacet
facet normal 0.09053537378882759 -0.9958891116761535 -0.002867636273853813
outer loop
vertex 6278.22 10648.04 285.22
vertex 6281.08 10648.300000000001 285.22
vertex 6281.99 10648.300000000001 313.95
endloop
endfacet
facet normal 0.0688020916154442 -0.9976303284229784 0
outer loop
vertex 6278.22 10648.04 285.22
vertex 6281.99 10648.300000000001 313.95
vertex 6278.22 10648.04 316.03000000000003
endloop
endfacet
facet normal 0.09053574604227581 -0.9958932064677258 0
outer loop
vertex 6283.9400000000005 10648.56 275.34000000000003
vertex 6278.22 10648.04 285.22
vertex 6278.22 10648.04 264.55
endloop
endfacet
facet normal 0.08505613429987784 -0.9963718589415719 0.002927922006757827
outer loop
vertex 6283.9400000000005 10648.56 275.34000000000003
vertex 6278.22 10648.04 264.55
vertex 6288.88 10648.95 264.55
endloop
endfacet
facet normal 0.08066981051740914 -0.9967404677777648 0.0009064023652833842
outer loop
vertex 6283.9400000000005 10648.56 275.34000000000003
vertex 6288.88 10648.95 264.55
vertex 6293.56 10649.34 276.90000000000003
endloop
endfacet
facet normal 0.08125189554705754 -0.9966899187100826 -0.002708396518056094
outer loop
vertex 6283.9400000000005 10648.56 275.34000000000003
vertex 6293.56 10649.34 276.90000000000003
vertex 6281.08 10648.300000000001 285.22
endloop
endfacet
facet normal 0.0905357460426042 -0.9958932064676961 1.9168570702879982e-13
outer loop
vertex 6283.9400000000005 10648.56 275.34000000000003
vertex 6281.08 10648.300000000001 285.22
vertex 6278.22 10648.04 285.22
endloop
endfacet
facet normal 0.09392259459561156 -0.995579502714087 0
outer loop
vertex 6278.22 10648.04 264.55
vertex 6278.22 10648.04 252.07000000000002
vertex 6285.110000000001 10648.69 252.07000000000002
endloop
endfacet
facet normal 0.0850554626082157 -0.9963639905535295 -0.004936254526345978
outer loop
vertex 6278.22 10648.04 264.55
vertex 6285.110000000001 10648.69 252.07000000000002
vertex 6288.88 10648.95 264.55
endloop
endfacet
facet normal 0.10468478451811898 -0.994505452921398 0
outer loop
vertex 6280.6900000000005 10648.300000000001 244.27
vertex 6278.22 10648.04 252.07000000000002
vertex 6278.22 10648.04 238.94
endloop
endfacet
facet normal 0.0995034259861772 -0.9950342598680371 0.0024269128292727605
outer loop
vertex 6280.6900000000005 10648.300000000001 244.27
vertex 6278.22 10648.04 238.94
vertex 6279.52 10648.17 238.94
endloop
endfacet
facet normal 0.04856647710145747 -0.9987260162834708 0.013698237131174408
outer loop
vertex 6280.6900000000005 10648.300000000001 244.27
vertex 6279.52 10648.17 238.94
vertex 6282.12 10648.300000000001 239.20000000000002
endloop
endfacet
facet normal 0.05880233026066117 -0.9981318623746325 0.01658527263761523
outer loop
vertex 6280.6900000000005 10648.300000000001 244.27
vertex 6282.12 10648.300000000001 239.20000000000002
vertex 6285.110000000001 10648.69 252.07000000000002
endloop
endfacet
facet normal 0.09392203764171543 -0.9955735990027882 -0.0034438080469078387
outer loop
vertex 6280.6900000000005 10648.300000000001 244.27
vertex 6285.110000000001 10648.69 252.07000000000002
vertex 6278.22 10648.04 252.07000000000002
endloop
endfacet
facet normal 0 -1 0
outer loop
vertex 6278.22 10648.04 238.94
vertex 6278.22 10648.04 226.20000000000002
vertex 6279.13 10648.04 226.20000000000002
endloop
endfacet
facet normal 0.09950120588769176 -0.9950120588831828 0.007107228991976858
outer loop
vertex 6278.22 10648.04 238.94
vertex 6279.13 10648.04 226.20000000000002
vertex 6279.52 10648.17 238.94
endloop
endfacet
facet normal 0 -1 0
outer loop
vertex 6278.22 10648.04 226.20000000000002
vertex 6278.22 10648.04 213.20000000000002
vertex 6278.74 10648.04 213.20000000000002
endloop
endfacet
facet normal 0.07124676066112519 -0.997454649261734 0.0028498704264424157
outer loop
vertex 6278.22 10648.04 226.20000000000002
vertex 6278.74 10648.04 213.20000000000002
vertex 6280.04 10648.17 226.20000000000002
endloop
endfacet
facet normal 0 -1 0
outer loop
vertex 6278.22 10648.04 213.20000000000002
vertex 6278.22 10648.04 199.94
vertex 6278.74 10648.04 213.20000000000002
endloop
endfacet
facet normal 0.08789066225289677 -0.9960941721998383 0.008463545253972301
outer loop
vertex 6281.21 10648.300000000001 288.86
vertex 6298.89 10649.86 288.86
vertex 6305.13 10650.51 300.56
endloop
endfacet
facet normal 0.09340734012417053 -0.9956237424028677 -0.002903855133392957
outer loop
vertex 6281.21 10648.300000000001 288.86
vertex 6305.13 10650.51 300.56
vertex 6281.99 10648.300000000001 313.95
endloop
endfacet
facet normal 0.0811267103782585 -0.9966995846481388 -0.002897382513511676
outer loop
vertex 6281.21 10648.300000000001 288.86
vertex 6281.08 10648.300000000001 285.22
vertex 6293.56 10649.34 276.90000000000003
endloop
endfacet
facet normal 0.08789305710061596 -0.9961213138073224 0.004139890370732946
outer loop
vertex 6281.21 10648.300000000001 288.86
vertex 6293.56 10649.34 276.90000000000003
vertex 6298.89 10649.86 288.86
endloop
endfacet
facet normal 0.14141900025443307 -0.989933001786968 0.005772204092012436
outer loop
vertex 6279.52 10648.17 238.94
vertex 6279.13 10648.04 226.20000000000002
vertex 6280.04 10648.17 226.20000000000002
endloop
endfacet
facet normal 0.04973501918009143 -0.9987603851595123 0.0020300007828590316
outer loop
vertex 6279.52 10648.17 238.94
vertex 6280.04 10648.17 226.20000000000002
vertex 6282.12 10648.300000000001 239.20000000000002
endloop
endfacet
facet normal -0.15205649853695744 0.9883672404896915 0.0030031948775626365
outer loop
vertex 6318.26 10249.98 313.95
vertex 6316.18 10249.85 251.42000000000002
vertex 6314.49 10249.59 251.42000000000002
endloop
endfacet
facet normal -0.10289915108534158 0.9946917938265682 0
outer loop
vertex 6318.26 10249.98 313.95
vertex 6314.49 10249.59 251.42000000000002
vertex 6314.49 10249.59 316.03000000000003
endloop
endfacet
facet normal -0.07869273743953192 0.996774674235478 0.015738547487919464
outer loop
vertex 6321.12 10250.24 251.42000000000002
vertex 6316.18 10249.85 251.42000000000002
vertex 6321.25 10250.24 252.07000000000002
endloop
endfacet
facet normal -0.09950366327250688 0.9950366327266933 0.0010585496092260997
outer loop
vertex 6321.12 10250.24 251.42000000000002
vertex 6318.39 10249.98 239.20000000000002
vertex 6314.49 10249.59 239.20000000000002
endloop
endfacet
facet normal -0.09757142403131489 0.9952285251199853 0
outer loop
vertex 6321.12 10250.24 251.42000000000002
vertex 6314.49 10249.59 239.20000000000002
vertex 6314.49 10249.59 251.42000000000002
endloop
endfacet
facet normal -0.15325244777153788 0.9880547260842772 0.016172368860379926
outer loop
vertex 6318.39 10249.98 239.20000000000002
vertex 6316.18 10249.85 226.20000000000002
vertex 6314.49 10249.59 226.07000000000002
endloop
endfacet
facet normal -0.09950371902083809 0.9950371902100053 0
outer loop
vertex 6318.39 10249.98 239.20000000000002
vertex 6314.49 10249.59 226.07000000000002
vertex 6314.49 10249.59 239.20000000000002
endloop
endfacet
facet normal -0.9958932064676969 -0.09053574604259468 0
outer loop
vertex 6431.49 8962.33 884.26
vertex 6432.27 8953.75 889.2
vertex 6431.49 8962.33 904.2800000000001
endloop
endfacet
facet normal -0.995884304671415 -0.09063361246873376 0
outer loop
vertex 6351.93 9837.880000000001 838.63
vertex 6395.35 9360.78 838.63
vertex 6395.35 9360.78 1115.14
endloop
endfacet
facet normal -0.9958974244754468 -0.09048933596381169 0
outer loop
vertex 6584.89 7275.71 599.95
vertex 6584.89 7275.71 599.82
vertex 6699.16 6018.09 599.82
endloop
endfacet
facet normal -0.9958974244754468 -0.09048933596381169 0
outer loop
vertex 6584.89 7275.71 599.95
vertex 6699.16 6018.09 599.82
vertex 6699.16 6018.09 599.95
endloop
endfacet
facet normal -0.995895765484947 -0.09050643520559862 -0.0004576849641656772
outer loop
vertex 6466.9800000000005 8571.68 889.2
vertex 6512.4800000000005 8072.4800000000005 599.82
vertex 6584.89 7275.71 599.82
endloop
endfacet
facet normal -0.9958825242395546 -0.09065294458636486 0.00020384325974686512
outer loop
vertex 6466.9800000000005 8571.68 889.2
vertex 6584.89 7275.71 599.82
vertex 6485.18 8372.52 1235.65
endloop
endfacet
facet normal -0.9958945356708636 -0.09052109274945777 0.00007475532698988828
outer loop
vertex 6351.93 9837.880000000001 838.63
vertex 6314.49 10249.59 599.82
vertex 6386.900000000001 9452.95 599.82
endloop
endfacet
facet normal -0.9958958685002729 -0.09050644456757229 0.000050949231358954336
outer loop
vertex 6351.93 9837.880000000001 838.63
vertex 6386.900000000001 9452.95 599.82
vertex 6424.34 9041.11 838.63
endloop
endfacet
facet normal -0.9958940429763202 -0.09052654397622377 0
outer loop
vertex 6199.18 11518.130000000001 599.95
vertex 6199.18 11518.130000000001 599.82
vertex 6314.49 10249.59 599.82
endloop
endfacet
facet normal -0.9958940429763202 -0.09052654397622377 0
outer loop
vertex 6199.18 11518.130000000001 599.95
vertex 6314.49 10249.59 599.82
vertex 6314.49 10249.59 599.95
endloop
endfacet
facet normal -0.9958802077176856 -0.09054038537342024 0.0050050467142654246
outer loop
vertex 6512.4800000000005 8072.4800000000005 599.82
vertex 6515.34 8039.9800000000005 580.97
vertex 6699.16 6018.09 580.97
endloop
endfacet
facet normal -0.9958968215451605 -0.09049597138131023 0
outer loop
vertex 6512.4800000000005 8072.4800000000005 599.82
vertex 6699.16 6018.09 580.97
vertex 6699.16 6018.09 599.82
endloop
endfacet
facet normal -0.9958958164018249 -0.09050703217619528 0
outer loop
vertex 6199.18 11518.130000000001 599.82
vertex 6199.18 11518.130000000001 580.97
vertex 6383.91 9485.45 580.97
endloop
endfacet
facet normal -0.9958924501092392 -0.090524279111025 0.0018928039638726958
outer loop
vertex 6199.18 11518.130000000001 599.82
vertex 6383.91 9485.45 580.97
vertex 6386.900000000001 9452.95 599.82
endloop
endfacet
facet normal -0.9958940429763202 -0.09052654397622377 0
outer loop
vertex 6199.18 11518.130000000001 580.97
vertex 6199.18 11518.130000000001 316.03000000000003
vertex 6314.49 10249.59 316.03000000000003
endloop
endfacet
facet normal -0.9958940429763202 -0.09052654397622377 0
outer loop
vertex 6199.18 11518.130000000001 580.97
vertex 6314.49 10249.59 316.03000000000003
vertex 6314.49 10249.59 580.97
endloop
endfacet
facet normal -0.9958848673483727 -0.09062738629552312 0.00008854239838156115
outer loop
vertex 6515.34 8039.9800000000005 580.97
vertex 6567.47 7466.81 248.69
vertex 6584.89 7275.71 580.97
endloop
endfacet
facet normal -0.9958987371263505 -0.09047463858888603 -0.00021251435362221413
outer loop
vertex 6314.49 10249.59 580.97
vertex 6331.91 10058.62 248.69
vertex 6383.91 9485.45 580.97
endloop
endfacet
facet normal -0.9958678485066617 -0.09081425169384436 0
outer loop
vertex 6604 7066.150000000001 378.56
vertex 6584.89 7275.71 580.97
vertex 6584.89 7275.71 500.5
endloop
endfacet
facet normal -0.9958678485066617 -0.09081425169384434 0
outer loop
vertex 6604 7066.150000000001 378.56
vertex 6584.89 7275.71 500.5
vertex 6584.89 7275.71 465.79
endloop
endfacet
facet normal -0.9958678485066617 -0.09081425169384437 0
outer loop
vertex 6604 7066.150000000001 378.56
vertex 6584.89 7275.71 465.79
vertex 6584.89 7275.71 430.04
endloop
endfacet
facet normal -0.9958678485066615 -0.09081425169384434 0
outer loop
vertex 6604 7066.150000000001 378.56
vertex 6584.89 7275.71 430.04
vertex 6584.89 7275.71 393.25
endloop
endfacet
facet normal -0.9958678485066617 -0.09081425169384436 0
outer loop
vertex 6604 7066.150000000001 378.56
vertex 6584.89 7275.71 393.25
vertex 6584.89 7275.71 355.55
endloop
endfacet
facet normal -0.9958678485066615 -0.09081425169384437 0
outer loop
vertex 6604 7066.150000000001 378.56
vertex 6584.89 7275.71 355.55
vertex 6584.89 7275.71 317.2
endloop
endfacet
facet normal -0.9958678485066617 -0.09081425169384437 0
outer loop
vertex 6604 7066.150000000001 378.56
vertex 6584.89 7275.71 317.2
vertex 6584.89 7275.71 278.46000000000004
endloop
endfacet
facet normal -0.9958678485066615 -0.09081425169384434 0
outer loop
vertex 6604 7066.150000000001 378.56
vertex 6584.89 7275.71 278.46000000000004
vertex 6584.89 7275.71 239.33
endloop
endfacet
facet normal -0.9958678485066617 -0.09081425169384434 0
outer loop
vertex 6604 7066.150000000001 378.56
vertex 6584.89 7275.71 239.33
vertex 6584.89 7275.71 199.94
endloop
endfacet
facet normal -0.9958973509118625 -0.09048932927966959 0.00038436083348926387
outer loop
vertex 6604 7066.150000000001 378.56
vertex 6584.89 7275.71 199.94
vertex 6699.16 6018.09 199.94
endloop
endfacet
facet normal -0.9959033256946117 -0.09042436546867458 0
outer loop
vertex 6604 7066.150000000001 378.56
vertex 6699.16 6018.09 199.94
vertex 6699.16 6018.09 580.97
endloop
endfacet
facet normal -0.9958973671880439 -0.0904893307585577 -0.00033918548095395113
outer loop
vertex 6604 7066.150000000001 378.56
vertex 6699.16 6018.09 580.97
vertex 6584.89 7275.71 580.97
endloop
endfacet
facet normal -0.9959053949027484 -0.09040157301507987 0
outer loop
vertex 6262.360000000001 10822.11 251.16
vertex 6199.18 11518.130000000001 316.03000000000003
vertex 6199.18 11518.130000000001 199.94
endloop
endfacet
facet normal -0.9958988817032556 -0.09046862693494384 -0.000919218532754044
outer loop
vertex 6262.360000000001 10822.11 251.16
vertex 6199.18 11518.130000000001 199.94
vertex 6278.22 10648.04 199.94
endloop
endfacet
facet normal -0.9958748973304017 -0.09073692119066966 0
outer loop
vertex 6262.360000000001 10822.11 251.16
vertex 6278.22 10648.04 199.94
vertex 6278.22 10648.04 213.20000000000002
endloop
endfacet
facet normal -0.9958748973304017 -0.09073692119066971 0
outer loop
vertex 6262.360000000001 10822.11 251.16
vertex 6278.22 10648.04 213.20000000000002
vertex 6278.22 10648.04 226.20000000000002
endloop
endfacet
facet normal -0.9958748973304018 -0.0907369211906697 0
outer loop
vertex 6262.360000000001 10822.11 251.16
vertex 6278.22 10648.04 226.20000000000002
vertex 6278.22 10648.04 238.94
endloop
endfacet
facet normal -0.9958748973304017 -0.09073692119066969 0
outer loop
vertex 6262.360000000001 10822.11 251.16
vertex 6278.22 10648.04 238.94
vertex 6278.22 10648.04 252.07000000000002
endloop
endfacet
facet normal -0.9958748973304017 -0.09073692119066967 0
outer loop
vertex 6262.360000000001 10822.11 251.16
vertex 6278.22 10648.04 252.07000000000002
vertex 6278.22 10648.04 264.55
endloop
endfacet
facet normal -0.9958748973304017 -0.09073692119066969 0
outer loop
vertex 6262.360000000001 10822.11 251.16
vertex 6278.22 10648.04 264.55
vertex 6278.22 10648.04 285.22
endloop
endfacet
facet normal -0.9958748973304018 -0.0907369211906697 0
outer loop
vertex 6262.360000000001 10822.11 251.16
vertex 6278.22 10648.04 285.22
vertex 6278.22 10648.04 316.03000000000003
endloop
endfacet
facet normal -0.9958990401424271 -0.09046864132774471 0.0007257959108690207
outer loop
vertex 6262.360000000001 10822.11 251.16
vertex 6278.22 10648.04 316.03000000000003
vertex 6199.18 11518.130000000001 316.03000000000003
endloop
endfacet
facet normal 0.07825003545934943 -0.86243923973903 0.5000754840111385
outer loop
vertex 6314.49 10249.59 580.97
vertex 5916.17 10213.45 580.97
vertex 5933.46 10022.35 248.69
endloop
endfacet
facet normal 0.07851583075476554 -0.86254846330951 0.49984538885868707
outer loop
vertex 6314.49 10249.59 580.97
vertex 5933.46 10022.35 248.69
vertex 6331.91 10058.62 248.69
endloop
endfacet
facet normal 0.4980998202569455 0.04520266825500706 -0.8659406953380966
outer loop
vertex 6189.17 9229.09 1275.3
vertex 6389.63 9127.04 1385.28
vertex 6129.5 9127.04 1235.65
endloop
endfacet
facet normal 0.49799785522933454 0.045283434213517576 -0.8659951193700878
outer loop
vertex 6189.17 9229.09 1275.3
vertex 6129.5 9127.04 1235.65
vertex 6034.6 9206.08 1185.21
endloop
endfacet
facet normal 0.49803804175806743 0.04498408119105172 -0.8659876104201413
outer loop
vertex 6189.17 9229.09 1275.3
vertex 6034.6 9206.08 1185.21
vertex 6023.68 9326.98 1185.21
endloop
endfacet
facet normal 0.4981823826139266 0.0453206644840599 -0.8658870313290497
outer loop
vertex 6189.17 9229.09 1275.3
vertex 6023.68 9326.98 1185.21
vertex 6368.570000000001 9358.31 1385.28
endloop
endfacet
facet normal 0.49815855100038026 0.04536351054640821 -0.865898498656804
outer loop
vertex 6189.17 9229.09 1275.3
vertex 6368.570000000001 9358.31 1385.28
vertex 6389.63 9127.04 1385.28
endloop
endfacet
facet normal 0.4981982365008203 0.045361240210580314 -0.8658757849911446
outer loop
vertex 6205.81 9046.57 1275.3
vertex 6389.63 9127.04 1385.28
vertex 6404.84 8959.99 1385.28
endloop
endfacet
facet normal 0.49806459720122853 0.04492766193264577 -0.8659752665105648
outer loop
vertex 6205.81 9046.57 1275.3
vertex 6404.84 8959.99 1385.28
vertex 6059.820000000001 8928.53 1185.21
endloop
endfacet
facet normal 0.49785846563113484 0.0452598605119229 -0.866076493865209
outer loop
vertex 6205.81 9046.57 1275.3
vertex 6059.820000000001 8928.53 1185.21
vertex 6045.13 9090.12 1185.21
endloop
endfacet
facet normal 0.4978875292084506 0.04541887541076325 -0.8660514615281969
outer loop
vertex 6205.81 9046.57 1275.3
vertex 6045.13 9090.12 1185.21
vertex 6129.5 9127.04 1235.65
endloop
endfacet
facet normal 0.4980891355215268 0.045673789879832484 -0.8659221200508916
outer loop
vertex 6205.81 9046.57 1275.3
vertex 6129.5 9127.04 1235.65
vertex 6389.63 9127.04 1385.28
endloop
endfacet
facet normal -0.8936324101069153 -0.08137188068532189 -0.44136122693349433
outer loop
vertex 6439.42 8963.11 1314.69
vertex 6404.84 8959.99 1385.28
vertex 6368.570000000001 9358.31 1385.28
endloop
endfacet
facet normal -0.89300902539598 -0.08102366483684029 -0.4426850418725817
outer loop
vertex 6439.42 8963.11 1314.69
vertex 6368.570000000001 9358.31 1385.28
vertex 6403.280000000001 9361.43 1314.69
endloop
endfacet
facet normal -0.942767726807164 -0.08553832508237193 -0.32229211630592947
outer loop
vertex 6464.64 8965.32 1240.3300000000002
vertex 6439.42 8963.11 1314.69
vertex 6403.280000000001 9361.43 1314.69
endloop
endfacet
facet normal -0.9431970686383107 -0.08585709042417337 -0.3209483599210207
outer loop
vertex 6464.64 8965.32 1240.3300000000002
vertex 6403.280000000001 9361.43 1314.69
vertex 6428.37 9363.77 1240.3300000000002
endloop
endfacet
facet normal -0.9768852580034264 -0.08892364991287396 -0.1943907847140687
outer loop
vertex 6479.85 8966.75 1163.24
vertex 6464.64 8965.32 1240.3300000000002
vertex 6428.37 9363.77 1240.3300000000002
endloop
endfacet
facet normal -0.9766259814439766 -0.08861032077070109 -0.1958313136898763
outer loop
vertex 6479.85 8966.75 1163.24
vertex 6428.37 9363.77 1240.3300000000002
vertex 6443.71 9365.07 1163.24
endloop
endfacet
facet normal -0.9937888893424975 -0.09049187340944954 -0.0647677718178812
outer loop
vertex 6443.71 9365.07 1163.24
vertex 6448.780000000001 9365.59 1084.72
vertex 6485.05 8967.27 1084.72
endloop
endfacet
facet normal -0.9937109075096174 -0.09016045440198314 -0.06640575847349589
outer loop
vertex 6443.71 9365.07 1163.24
vertex 6485.05 8967.27 1084.72
vertex 6479.85 8966.75 1163.24
endloop
endfacet
facet normal -0.9938112255174735 -0.09016955636222596 0.06487448759641029
outer loop
vertex 6448.780000000001 9365.59 1084.72
vertex 6443.71 9365.07 1006.33
vertex 6479.85 8966.75 1006.33
endloop
endfacet
facet normal -0.9936743852731845 -0.0904814469618848 0.06651559071106775
outer loop
vertex 6448.780000000001 9365.59 1084.72
vertex 6479.85 8966.75 1006.33
vertex 6485.05 8967.27 1084.72
endloop
endfacet
facet normal -0.9768852580034264 -0.08892364991287398 0.19439078471406906
outer loop
vertex 6428.37 9363.77 929.24
vertex 6464.64 8965.32 929.24
vertex 6479.85 8966.75 1006.33
endloop
endfacet
facet normal -0.9766259814439768 -0.08861032077070112 0.19583131368987663
outer loop
vertex 6428.37 9363.77 929.24
vertex 6479.85 8966.75 1006.33
vertex 6443.71 9365.07 1006.33
endloop
endfacet
facet normal -0.9429385269884032 -0.08555382196565667 0.32178793928301497
outer loop
vertex 6403.280000000001 9361.43 854.75
vertex 6439.42 8963.11 854.75
vertex 6464.64 8965.32 929.24
endloop
endfacet
facet normal -0.9433665242818955 -0.085872515587162 0.3204458018620755
outer loop
vertex 6403.280000000001 9361.43 854.75
vertex 6464.64 8965.32 929.24
vertex 6428.37 9363.77 929.24
endloop
endfacet
facet normal 0.08893191054738715 -0.9960373981312588 -0.0007853727165470858
outer loop
vertex 6395.35 9360.78 1285.18
vertex 6409.91 9362.08 1285.18
vertex 6368.570000000001 9358.31 1385.28
endloop
endfacet
facet normal 0.08981055638800599 -0.9959588566611232 0.0001407108576611026
outer loop
vertex 6023.68 9326.98 1185.21
vertex 6035.25 9328.02 1161.68
vertex 6131.84 9336.73 1161.68
endloop
endfacet
facet normal 0.08996777690528016 -0.9959442972365817 0.0008694369748584144
outer loop
vertex 6023.68 9326.98 1185.21
vertex 6131.84 9336.73 1161.68
vertex 6368.570000000001 9358.31 1385.28
endloop
endfacet
facet normal 0.08978261779616681 -0.9959606671810212 -0.0011962315840418807
outer loop
vertex 6035.25 9328.02 1161.68
vertex 6043.570000000001 9328.800000000001 1136.72
vertex 6105.58 9334.39 1136.72
endloop
endfacet
facet normal 0.08981050124465212 -0.9959582451460197 -0.0011170460353667293
outer loop
vertex 6035.25 9328.02 1161.68
vertex 6105.58 9334.39 1136.72
vertex 6131.84 9336.73 1161.68
endloop
endfacet
facet normal 0.08716653518374459 -0.9961889735287213 0.0030861244066979305
outer loop
vertex 6119.62 9335.69 1115.14
vertex 6130.02 9336.6 1115.14
vertex 6368.570000000001 9358.31 1385.28
endloop
endfacet
facet normal 0.08919529433064256 -0.9960141200258119 -0.00026866052507106496
outer loop
vertex 6043.570000000001 9328.800000000001 1136.72
vertex 6047.860000000001 9329.19 1115.14
vertex 6082.7 9332.31 1115.14
endloop
endfacet
facet normal 0.08978265294363832 -0.9959610570727402 0.000804999970378698
outer loop
vertex 6043.570000000001 9328.800000000001 1136.72
vertex 6082.7 9332.31 1115.14
vertex 6105.58 9334.39 1136.72
endloop
endfacet
facet normal 0.08725715217938677 -0.9961858207149624 0
outer loop
vertex 6413.16 9362.34 1079.13
vertex 6395.35 9360.78 1285.18
vertex 6395.35 9360.78 1115.14
endloop
endfacet
facet normal 0.08725715217938679 -0.9961858207149625 0
outer loop
vertex 6413.16 9362.34 1079.13
vertex 6395.35 9360.78 1115.14
vertex 6395.35 9360.78 838.63
endloop
endfacet
facet normal 0.08070641940221729 -0.996737796539604 0.0004886887029015599
outer loop
vertex 6413.16 9362.34 1079.13
vertex 6395.35 9360.78 838.63
vertex 6403.280000000001 9361.43 854.75
endloop
endfacet
facet normal 0.09303330343287015 -0.9956629957147146 -0.000058453123346275445
outer loop
vertex 6413.16 9362.34 1079.13
vertex 6403.280000000001 9361.43 854.75
vertex 6428.37 9363.77 929.24
endloop
endfacet
facet normal 0.09090642158204246 -0.995859400847219 -0.00027615098371434985
outer loop
vertex 6413.16 9362.34 1079.13
vertex 6428.37 9363.77 929.24
vertex 6448.780000000001 9365.59 1084.72
endloop
endfacet
facet normal 0.09082223088937866 -0.9958670856412885 0.0002647878451605444
outer loop
vertex 6413.16 9362.34 1079.13
vertex 6448.780000000001 9365.59 1084.72
vertex 6428.37 9363.77 1240.3300000000002
endloop
endfacet
facet normal 0.09162250647093495 -0.9957937942804895 0.00018862780644209636
outer loop
vertex 6413.16 9362.34 1079.13
vertex 6428.37 9363.77 1240.3300000000002
vertex 6409.91 9362.08 1285.18
endloop
endfacet
facet normal 0.08893193702815361 -0.9960376947158428 0.00014588204181102934
outer loop
vertex 6413.16 9362.34 1079.13
vertex 6409.91 9362.08 1285.18
vertex 6395.35 9360.78 1285.18
endloop
endfacet
facet normal 0.08222400177940122 -0.9966073053300907 -0.0036183551617461483
outer loop
vertex 6428.37 9363.77 1240.3300000000002
vertex 6403.280000000001 9361.43 1314.69
vertex 6368.570000000001 9358.31 1385.28
endloop
endfacet
facet normal 0.07596626027741678 -0.9971089424922096 -0.0016982642701201527
outer loop
vertex 6448.780000000001 9365.59 1084.72
vertex 6443.71 9365.07 1163.24
vertex 6428.37 9363.77 1240.3300000000002
endloop
endfacet
facet normal 0.07594541185246081 -0.9971105235219582 0.0017024395221307636
outer loop
vertex 6428.37 9363.77 929.24
vertex 6443.71 9365.07 1006.33
vertex 6448.780000000001 9365.59 1084.72
endloop
endfacet
facet normal -0.09298336032030059 0.9956604613278744 0.003786878914060126
outer loop
vertex 6071.39 8929.7 1161.68
vertex 6059.820000000001 8928.53 1185.21
vertex 6404.84 8959.99 1385.28
endloop
endfacet
facet normal -0.09035606846672276 0.9959089745710865 -0.0010465467042702953
outer loop
vertex 6345.95 8954.53 1219.79
vertex 6439.42 8963.11 1314.69
vertex 6464.64 8965.32 1240.3300000000002
endloop
endfacet
facet normal -0.09063708638383285 0.995883813428582 0.0005905275561689072
outer loop
vertex 6345.95 8954.53 1219.79
vertex 6464.64 8965.32 1240.3300000000002
vertex 6479.85 8966.75 1163.24
endloop
endfacet
facet normal -0.0914689898115247 0.9958069468678284 -0.0013958770121838733
outer loop
vertex 6345.95 8954.53 1219.79
vertex 6479.85 8966.75 1163.24
vertex 6481.67 8966.880000000001 1136.72
endloop
endfacet
facet normal -0.09053574513380341 0.9958931964718194 0.00014168348221393494
outer loop
vertex 6345.95 8954.53 1219.79
vertex 6481.67 8966.880000000001 1136.72
vertex 6079.84 8930.35 1136.72
endloop
endfacet
facet normal -0.08917463837794942 0.99600693137185 -0.004251650196406875
outer loop
vertex 6345.95 8954.53 1219.79
vertex 6079.84 8930.35 1136.72
vertex 6071.39 8929.7 1161.68
endloop
endfacet
facet normal -0.08988458182661598 0.9959518053314841 -0.0008737315447434247
outer loop
vertex 6345.95 8954.53 1219.79
vertex 6071.39 8929.7 1161.68
vertex 6404.84 8959.99 1385.28
endloop
endfacet
facet normal -0.0908952922466585 0.9958603238786258 -0.0005110496584124583
outer loop
vertex 6345.95 8954.53 1219.79
vertex 6404.84 8959.99 1385.28
vertex 6439.42 8963.11 1314.69
endloop
endfacet
facet normal -0.09065216529792522 0.9958741456564585 0.0041074249617538946
outer loop
vertex 6481.67 8966.880000000001 1136.72
vertex 6483.360000000001 8967.14 1110.98
vertex 6084.91 8930.87 1110.98
endloop
endfacet
facet normal -0.09053550942974792 0.9958906037272091 0.002286250238142487
outer loop
vertex 6481.67 8966.880000000001 1136.72
vertex 6084.91 8930.87 1110.98
vertex 6079.84 8930.35 1136.72
endloop
endfacet
facet normal -0.09065289296072522 0.9958821395147646 -0.0009039874701315885
outer loop
vertex 6483.360000000001 8967.14 1110.98
vertex 6485.05 8967.27 1084.72
vertex 6086.6 8931 1084.72
endloop
endfacet
facet normal -0.0906528929607205 0.995882139514765 -0.0009039874702034779
outer loop
vertex 6483.360000000001 8967.14 1110.98
vertex 6086.6 8931 1084.72
vertex 6084.91 8930.87 1110.98
endloop
endfacet
facet normal -0.0906528929607205 0.9958821395147651 0.0009039874701312832
outer loop
vertex 6485.05 8967.27 1084.72
vertex 6483.360000000001 8967.14 1058.46
vertex 6084.91 8930.87 1058.46
endloop
endfacet
facet normal -0.09065289296072522 0.9958821395147646 0.0009039874702036527
outer loop
vertex 6485.05 8967.27 1084.72
vertex 6084.91 8930.87 1058.46
vertex 6086.6 8931 1084.72
endloop
endfacet
facet normal -0.09053497942386997 0.9958847736625516 -0.004115226337384728
outer loop
vertex 6483.360000000001 8967.14 1058.46
vertex 6481.67 8966.880000000001 1032.72
vertex 6079.84 8930.35 1032.72
endloop
endfacet
facet normal -0.09065269788599382 0.9958799964895418 -0.0022629533757976264
outer loop
vertex 6483.360000000001 8967.14 1058.46
vertex 6079.84 8930.35 1032.72
vertex 6084.91 8930.87 1058.46
endloop
endfacet
facet normal -0.09030714478721287 0.9959135300568972 0.0009274966258791054
outer loop
vertex 6481.67 8966.880000000001 1032.72
vertex 6479.9800000000005 8966.75 1007.76
vertex 6071.39 8929.7 1007.76
endloop
endfacet
facet normal -0.09053473952680854 0.9958821347948759 0.004715351017035594
outer loop
vertex 6481.67 8966.880000000001 1032.72
vertex 6071.39 8929.7 1007.76
vertex 6079.84 8930.35 1032.72
endloop
endfacet
facet normal -0.09286209808005537 0.9956431907192588 0.008442008916374909
outer loop
vertex 6315.66 8951.800000000001 963.4300000000001
vertex 6479.9800000000005 8966.75 1007.76
vertex 6479.85 8966.75 1006.33
endloop
endfacet
facet normal -0.09051879029255135 0.9958945584376899 -0.0006140669116159966
outer loop
vertex 6315.66 8951.800000000001 963.4300000000001
vertex 6479.85 8966.75 1006.33
vertex 6464.64 8965.32 929.24
endloop
endfacet
facet normal -0.08939341068736648 0.9959869988284523 0.004326232815308454
outer loop
vertex 6315.66 8951.800000000001 963.4300000000001
vertex 6464.64 8965.32 929.24
vertex 6456.1900000000005 8964.67 904.2800000000001
endloop
endfacet
facet normal -0.09071644291096997 0.9958760887518927 0.001158808790484812
outer loop
vertex 6315.66 8951.800000000001 963.4300000000001
vertex 6456.1900000000005 8964.67 904.2800000000001
vertex 6197.88 8941.14 904.2800000000001
endloop
endfacet
facet normal -0.09051975283123974 0.995894367320023 0.0007638636150512462
outer loop
vertex 6315.66 8951.800000000001 963.4300000000001
vertex 6197.88 8941.14 904.2800000000001
vertex 6059.820000000001 8928.53 984.23
endloop
endfacet
facet normal -0.09096637813571813 0.995842455380469 -0.004787704112409301
outer loop
vertex 6315.66 8951.800000000001 963.4300000000001
vertex 6059.820000000001 8928.53 984.23
vertex 6071.39 8929.7 1007.76
endloop
endfacet
facet normal -0.09030712701812775 0.9959133340981796 -0.0011197210274732773
outer loop
vertex 6315.66 8951.800000000001 963.4300000000001
vertex 6071.39 8929.7 1007.76
vertex 6479.9800000000005 8966.75 1007.76
endloop
endfacet
facet normal -0.09378765290953246 0.9955920078086112 -0.000655857712626133
outer loop
vertex 6456.1900000000005 8964.67 904.2800000000001
vertex 6449.43 8964.02 884.26
vertex 6431.49 8962.33 884.26
endloop
endfacet
facet normal -0.09431454772041874 0.995542448159943 0
outer loop
vertex 6456.1900000000005 8964.67 904.2800000000001
vertex 6431.49 8962.33 884.26
vertex 6431.49 8962.33 904.2800000000001
endloop
endfacet
facet normal -0.08834897612957203 0.9960893028187248 -0.0007478147918624083
outer loop
vertex 6449.43 8964.02 884.26
vertex 6439.42 8963.11 854.75
vertex 6404.84 8959.99 784.2900000000001
endloop
endfacet
facet normal -0.09064327811267665 0.995883384527425 0.0002838224607191213
outer loop
vertex 6449.43 8964.02 884.26
vertex 6404.84 8959.99 784.2900000000001
vertex 6232.33 8944.26 884.26
endloop
endfacet
facet normal 0.8928595501462335 0.08071046780984309 -0.44304361421713534
outer loop
vertex 6071.39 8929.7 1007.76
vertex 6059.820000000001 8928.53 984.23
vertex 6055.66 8974.550000000001 984.23
endloop
endfacet
facet normal 0.8923254967418477 0.07988066673889921 -0.4442682601151738
outer loop
vertex 6071.39 8929.7 1007.76
vertex 6055.66 8974.550000000001 984.23
vertex 6066.06 8989.24 1007.76
endloop
endfacet
facet normal 0.9431410408244976 0.0844296564930229 -0.321491228833624
outer loop
vertex 6079.84 8930.35 1032.72
vertex 6071.39 8929.7 1007.76
vertex 6066.06 8989.24 1007.76
endloop
endfacet
facet normal 0.9442539131121761 0.08629385497686323 -0.3177072837779691
outer loop
vertex 6079.84 8930.35 1032.72
vertex 6066.06 8989.24 1007.76
vertex 6073.08 9004.32 1032.72
endloop
endfacet
facet normal 0.9768869422064572 0.08927613531588376 -0.19422068326925992
outer loop
vertex 6084.91 8930.87 1058.46
vertex 6079.84 8930.35 1032.72
vertex 6073.08 9004.32 1032.72
endloop
endfacet
facet normal 0.9766733656200313 0.08878848778363375 -0.195514043806414
outer loop
vertex 6084.91 8930.87 1058.46
vertex 6073.08 9004.32 1032.72
vertex 6076.85 9019.53 1058.46
endloop
endfacet
facet normal 0.9938254899515166 0.09034777181376868 -0.064406332382113
outer loop
vertex 6086.6 8931 1084.72
vertex 6084.91 8930.87 1058.46
vertex 6076.85 9019.53 1058.46
endloop
endfacet
facet normal 0.9937219220190803 0.08954690661499083 -0.06706782547832582
outer loop
vertex 6086.6 8931 1084.72
vertex 6076.85 9019.53 1058.46
vertex 6077.24 9034.87 1084.72
endloop
endfacet
facet normal 0.993896508676021 0.08956263907969639 0.06440701609837285
outer loop
vertex 6084.91 8930.87 1110.98
vertex 6086.6 8931 1084.72
vertex 6077.24 9034.87 1084.72
endloop
endfacet
facet normal 0.9936553312584806 0.09023347100049652 0.06713421908983318
outer loop
vertex 6084.91 8930.87 1110.98
vertex 6077.24 9034.87 1084.72
vertex 6074.12 9049.69 1110.98
endloop
endfacet
facet normal 0.9766537289986401 0.08847734130298865 0.1957530426558044
outer loop
vertex 6043.570000000001 9328.800000000001 1136.72
vertex 6046.95 9291.49 1136.72
vertex 6047.860000000001 9329.19 1115.14
endloop
endfacet
facet normal 0.9769382668471565 0.08871540059990582 0.19421946469412538
outer loop
vertex 6079.84 8930.35 1136.72
vertex 6084.91 8930.87 1110.98
vertex 6074.12 9049.69 1110.98
endloop
endfacet
facet normal 0.9773431164527571 0.08833130207007503 0.1923486776586148
outer loop
vertex 6079.84 8930.35 1136.72
vertex 6074.12 9049.69 1110.98
vertex 6067.75 9064.12 1136.72
endloop
endfacet
facet normal 0.9444569738687234 0.0857205681307174 0.3172585833513108
outer loop
vertex 6035.25 9328.02 1161.68
vertex 6042.530000000001 9247.81 1161.68
vertex 6046.95 9291.49 1136.72
endloop
endfacet
facet normal 0.9443997274143479 0.0855553760026703 0.3174735146382246
outer loop
vertex 6035.25 9328.02 1161.68
vertex 6046.95 9291.49 1136.72
vertex 6043.570000000001 9328.800000000001 1136.72
endloop
endfacet
facet normal 0.9430698000891513 0.08523371371068206 0.32148804986638846
outer loop
vertex 6071.39 8929.7 1161.68
vertex 6079.84 8930.35 1136.72
vertex 6067.75 9064.12 1136.72
endloop
endfacet
facet normal 0.9428585621378888 0.08533781362056747 0.322079476790643
outer loop
vertex 6071.39 8929.7 1161.68
vertex 6067.75 9064.12 1136.72
vertex 6058 9077.64 1161.68
endloop
endfacet
facet normal 0.8925128679914269 0.08061406549600063 0.44375911586571853
outer loop
vertex 6023.68 9326.98 1185.21
vertex 6034.6 9206.08 1185.21
vertex 6042.530000000001 9247.81 1161.68
endloop
endfacet
facet normal 0.893006564023138 0.08105083887406747 0.4426850326466877
outer loop
vertex 6023.68 9326.98 1185.21
vertex 6042.530000000001 9247.81 1161.68
vertex 6035.25 9328.02 1161.68
endloop
endfacet
facet normal 0.8928501933235159 0.08081157285793075 0.4430440406713394
outer loop
vertex 6059.820000000001 8928.53 1185.21
vertex 6071.39 8929.7 1161.68
vertex 6058 9077.64 1161.68
endloop
endfacet
facet normal 0.8919295786133797 0.08108450714667362 0.4448448375505106
outer loop
vertex 6059.820000000001 8928.53 1185.21
vertex 6058 9077.64 1161.68
vertex 6045.13 9090.12 1185.21
endloop
endfacet
facet normal -0.8914992585091183 -0.0808476350742301 0.4457496292545811
outer loop
vertex 6395.35 9360.78 838.63
vertex 6424.34 9041.11 838.63
vertex 6432.400000000001 9041.11 854.75
endloop
endfacet
facet normal -0.8930404878864807 -0.08118549889877073 0.4425919133513786
outer loop
vertex 6395.35 9360.78 838.63
vertex 6432.400000000001 9041.11 854.75
vertex 6403.280000000001 9361.43 854.75
endloop
endfacet
facet normal -0.8931682837153269 -0.08131261757863341 0.44231060939969363
outer loop
vertex 6397.43 9041.11 784.2900000000001
vertex 6424.34 9041.11 838.63
vertex 6389.110000000001 9132.5 784.2900000000001
endloop
endfacet
facet normal -0.8932878284198055 -0.08159840740372983 0.4420164651980775
outer loop
vertex 6397.43 9041.11 784.2900000000001
vertex 6404.84 8959.99 784.2900000000001
vertex 6439.42 8963.11 854.75
endloop
endfacet
facet normal -0.8928487512742502 -0.08035638761467712 0.44312973079847845
outer loop
vertex 6397.43 9041.11 784.2900000000001
vertex 6439.42 8963.11 854.75
vertex 6432.400000000001 9041.11 854.75
endloop
endfacet
facet normal 0.09075571405584477 -0.9958731848815963 0
outer loop
vertex 6130.02 9336.6 1115.14
vertex 6395.35 9360.78 1115.14
vertex 6395.35 9360.78 1285.18
endloop
endfacet
facet normal 0.09091489187018723 -0.9958586344010586 -0.00025044977710471014
outer loop
vertex 6130.02 9336.6 1115.14
vertex 6395.35 9360.78 1285.18
vertex 6368.570000000001 9358.31 1385.28
endloop
endfacet
facet normal 0.0911680226581999 -0.9958353244200393 -0.0006310957369462409
outer loop
vertex 6082.7 9332.31 1115.14
vertex 6119.62 9335.69 1115.14
vertex 6368.570000000001 9358.31 1385.28
endloop
endfacet
facet normal 0.49777784650717927 0.04538893702137678 0.8661160776262872
outer loop
vertex 6232.33 8944.26 884.26
vertex 6404.84 8959.99 784.2900000000001
vertex 6389.110000000001 9132.5 784.2900000000001
endloop
endfacet
facet normal 0.4975460303296235 0.044975912346188494 0.866270809280713
outer loop
vertex 6059.820000000001 8928.53 984.23
vertex 6197.88 8941.14 904.2800000000001
vertex 6055.66 8974.550000000001 984.23
endloop
endfacet
facet normal -0.0783051284061729 0.8632780107109762 -0.4986174717037022
outer loop
vertex 6197.88 8932.43 889.2
vertex 6197.88 8941.14 904.2800000000001
vertex 6431.49 8962.33 904.2800000000001
endloop
endfacet
facet normal -0.07865423781479611 0.8647170169517043 -0.49606248746293985
outer loop
vertex 6197.88 8932.43 889.2
vertex 6431.49 8962.33 904.2800000000001
vertex 6432.27 8953.75 889.2
endloop
endfacet
facet normal -0.07522303603937461 0.8632738897839475 -0.49909887403831293
outer loop
vertex 6067.1 9032.66 1082.64
vertex 6076.85 9019.53 1058.46
vertex 6073.08 9004.32 1032.72
endloop
endfacet
facet normal -0.07844454220236889 0.8628899642261361 -0.49926682589220595
outer loop
vertex 6067.1 9032.66 1082.64
vertex 6073.08 9004.32 1032.72
vertex 6066.06 8989.24 1007.76
endloop
endfacet
facet normal -0.08951426694655207 0.862149495546757 -0.49868371072403567
outer loop
vertex 6067.1 9032.66 1082.64
vertex 6066.06 8989.24 1007.76
vertex 6055.66 8974.550000000001 984.23
endloop
endfacet
facet normal -0.08226229072314754 0.8623241354748796 -0.4996298639017508
outer loop
vertex 6067.1 9032.66 1082.64
vertex 6055.66 8974.550000000001 984.23
vertex 6055.66 9079.85 1165.97
endloop
endfacet
facet normal -0.10761076341014704 0.8586980880658439 -0.5010564011669242
outer loop
vertex 6067.1 9032.66 1082.64
vertex 6055.66 9079.85 1165.97
vertex 6058 9077.64 1161.68
endloop
endfacet
facet normal -0.08573591892439247 0.8616459851885289 -0.5002155019735789
outer loop
vertex 6067.1 9032.66 1082.64
vertex 6058 9077.64 1161.68
vertex 6067.75 9064.12 1136.72
endloop
endfacet
facet normal -0.07022308440202076 0.862613911498976 -0.5009650268287232
outer loop
vertex 6067.1 9032.66 1082.64
vertex 6067.75 9064.12 1136.72
vertex 6074.12 9049.69 1110.98
endloop
endfacet
facet normal -0.08610959191144171 0.8632352878566678 -0.49740323277986515
outer loop
vertex 6067.1 9032.66 1082.64
vertex 6074.12 9049.69 1110.98
vertex 6077.24 9034.87 1084.72
endloop
endfacet
facet normal -0.08473188324354365 0.8609110103416606 -0.5016500176761717
outer loop
vertex 6067.1 9032.66 1082.64
vertex 6077.24 9034.87 1084.72
vertex 6076.85 9019.53 1058.46
endloop
endfacet
facet normal -0.07808616327290845 0.8628915416217847 -0.4993202764788313
outer loop
vertex 6197.88 8932.43 889.2
vertex 6055.66 8919.56 889.2
vertex 6055.66 8974.550000000001 984.23
endloop
endfacet
facet normal -0.07750694793598649 0.8633320214933229 -0.4986486675866093
outer loop
vertex 6197.88 8932.43 889.2
vertex 6055.66 8974.550000000001 984.23
vertex 6197.88 8941.14 904.2800000000001
endloop
endfacet
facet normal -0.07840064981034378 0.8624071479137727 -0.5001072378365944
outer loop
vertex 6045.13 9090.12 1185.21
vertex 6045.13 9119.37 1235.65
vertex 6129.5 9127.04 1235.65
endloop
endfacet
facet normal -0.08513570312403013 0.8619989941315681 -0.4997095618154029
outer loop
vertex 6055.66 8919.56 889.2
vertex 6045.13 8918.52 889.2
vertex 6045.13 9090.12 1185.21
endloop
endfacet
facet normal -0.07153875550753076 0.8631348806075184 -0.49988037002774827
outer loop
vertex 6055.66 8919.56 889.2
vertex 6045.13 9090.12 1185.21
vertex 6055.66 9079.85 1165.97
endloop
endfacet
facet normal -0.0802057686290796 0.8622120127619044 -0.5001574549356274
outer loop
vertex 6045.13 8918.52 889.2
vertex 6033.95 8917.48 889.2
vertex 6015.88 9116.77 1235.65
endloop
endfacet
facet normal -0.0766740476471581 0.8625830360304134 -0.5000715912446495
outer loop
vertex 6045.13 8918.52 889.2
vertex 6015.88 9116.77 1235.65
vertex 6045.13 9119.37 1235.65
endloop
endfacet
facet normal -0.04372430203139489 0.49808018940660903 0.8660278923525176
outer loop
vertex 6389.110000000001 9428.380000000001 614.12
vertex 6389.110000000001 9132.5 784.2900000000001
vertex 6424.34 9041.11 838.63
endloop
endfacet
facet normal -0.04471650195457336 0.4928466258590463 0.8689664192776955
outer loop
vertex 6431.49 8962.33 884.26
vertex 6232.33 8944.26 884.26
vertex 6232.33 8935.550000000001 889.2
endloop
endfacet
facet normal -0.045092653798203514 0.4953750110117239 0.867508069725331
outer loop
vertex 6431.49 8962.33 884.26
vertex 6232.33 8935.550000000001 889.2
vertex 6432.27 8953.75 889.2
endloop
endfacet
facet normal -0.04573075222468213 0.4979717233325688 0.8659866402330676
outer loop
vertex 6315.01 9522.630000000001 556.01
vertex 6389.110000000001 9428.380000000001 614.12
vertex 6331.91 10058.62 248.69
endloop
endfacet
facet normal -0.0455065339096319 0.4979714996396662 0.8659985802056223
outer loop
vertex 6315.01 9522.630000000001 556.01
vertex 6331.91 10058.62 248.69
vertex 6232.33 10049.52 248.69
endloop
endfacet
facet normal -0.045421432712542405 0.49798345114293335 0.8659961754177173
outer loop
vertex 6315.01 9522.630000000001 556.01
vertex 6232.33 10049.52 248.69
vertex 6232.33 8944.26 884.26
endloop
endfacet
facet normal -0.04577063645206006 0.4980132200182807 0.8659606697337915
outer loop
vertex 6315.01 9522.630000000001 556.01
vertex 6232.33 8944.26 884.26
vertex 6389.110000000001 9132.5 784.2900000000001
endloop
endfacet
facet normal -0.04562126736723849 0.4980378980893993 0.8659543590920368
outer loop
vertex 6315.01 9522.630000000001 556.01
vertex 6389.110000000001 9132.5 784.2900000000001
vertex 6389.110000000001 9428.380000000001 614.12
endloop
endfacet
facet normal -0.04526681413347453 0.49793495546821825 0.8660321562511805
outer loop
vertex 6232.33 10049.52 248.69
vertex 5933.46 10022.35 248.69
vertex 6033.95 8917.48 889.2
endloop
endfacet
facet normal -0.045356705013848204 0.4979448334613446 0.8660217734788429
outer loop
vertex 6232.33 10049.52 248.69
vertex 6033.95 8917.48 889.2
vertex 6232.33 8935.550000000001 889.2
endloop
endfacet
facet normal 0.04515854006816756 -0.49795787999897884 -0.8660246278286976
outer loop
vertex 6047.860000000001 9329.19 1115.14
vertex 6047.860000000001 10225.41 599.82
vertex 6314.49 10249.59 599.82
endloop
endfacet
facet normal 0.04527091091209585 -0.49798002003305164 -0.866006030159762
outer loop
vertex 6047.860000000001 9329.19 1115.14
vertex 6314.49 10249.59 599.82
vertex 6395.35 9360.78 1115.14
endloop
endfacet
facet normal 0.0691213776840224 -0.4968513616619876 -0.8650785857722356
outer loop
vertex 6042.400000000001 9587.37 966.4200000000001
vertex 6047.860000000001 9329.19 1115.14
vertex 6046.95 9291.49 1136.72
endloop
endfacet
facet normal 0.030793183027434667 -0.49825080870757615 -0.8664859557438225
outer loop
vertex 6042.400000000001 9587.37 966.4200000000001
vertex 6046.95 9291.49 1136.72
vertex 6042.530000000001 9247.81 1161.68
endloop
endfacet
facet normal 0.05081247164879958 -0.4978374957073931 -0.8657805268038381
outer loop
vertex 6042.400000000001 9587.37 966.4200000000001
vertex 6042.530000000001 9247.81 1161.68
vertex 6034.6 9206.08 1185.21
endloop
endfacet
facet normal 0.04798971352271094 -0.4978635640882153 -0.8659265898154345
outer loop
vertex 6042.400000000001 9587.37 966.4200000000001
vertex 6034.6 9206.08 1185.21
vertex 6034.6 10224.24 599.82
endloop
endfacet
facet normal 0.043940626903815325 -0.49799377157655805 -0.8660666399176536
outer loop
vertex 6042.400000000001 9587.37 966.4200000000001
vertex 6034.6 10224.24 599.82
vertex 6047.860000000001 10225.41 599.82
endloop
endfacet
facet normal 0.04257209046182195 -0.49801448825286454 -0.8661230782076804
outer loop
vertex 6042.400000000001 9587.37 966.4200000000001
vertex 6047.860000000001 10225.41 599.82
vertex 6047.860000000001 9329.19 1115.14
endloop
endfacet
facet normal 0.045060745206816 -0.4983991515299369 -0.8657758456989
outer loop
vertex 6034.6 9118.460000000001 1235.65
vertex 6034.6 9206.08 1185.21
vertex 6129.5 9127.04 1235.65
endloop
endfacet
facet normal 0.04495871465025085 -0.49800422381801995 -0.866008375846567
outer loop
vertex 6034.6 9118.460000000001 1235.65
vertex 6015.88 9116.77 1235.65
vertex 5916.17 10213.45 599.82
endloop
endfacet
facet normal 0.04536862736510378 -0.49796168107967975 -0.8660114617182072
outer loop
vertex 6034.6 9118.460000000001 1235.65
vertex 5916.17 10213.45 599.82
vertex 6034.6 10224.24 599.82
endloop
endfacet
facet normal 0.07851099298130049 -0.8624953171601543 -0.4999378479950233
outer loop
vertex 6466.9800000000005 8571.68 889.2
vertex 6485.18 8372.52 1235.65
vertex 6086.7300000000005 8336.25 1235.65
endloop
endfacet
facet normal 0.07853756286594256 -0.8625057083198763 -0.49991574723617843
outer loop
vertex 6466.9800000000005 8571.68 889.2
vertex 6086.7300000000005 8336.25 1235.65
vertex 6068.66 8535.41 889.2
endloop
endfacet
facet normal 0.04534007615840051 -0.49792829157468593 0.866032155259529
outer loop
vertex 6169.150000000001 7430.54 248.69
vertex 6567.47 7466.81 248.69
vertex 6466.9800000000005 8571.68 889.2
endloop
endfacet
facet normal 0.045340076158400536 -0.497928291574686 0.866032155259529
outer loop
vertex 6169.150000000001 7430.54 248.69
vertex 6466.9800000000005 8571.68 889.2
vertex 6068.66 8535.41 889.2
endloop
endfacet
facet normal 0.8820761247975709 0.08031959491466235 0.4642095138349113
outer loop
vertex 6159.66 7237.1 300.56
vertex 6195.93 6838.780000000001 300.56
vertex 6202.04 6839.3 288.86
endloop
endfacet
facet normal 0.8780737419541318 0.079668570581999 0.47184682106811937
outer loop
vertex 6159.66 7237.1 300.56
vertex 6202.04 6839.3 288.86
vertex 6165.900000000001 7237.62 288.86
endloop
endfacet
facet normal 0.9052604144168186 0.08213524647776492 0.4168421564284572
outer loop
vertex 6165.900000000001 7237.62 288.86
vertex 6202.04 6839.3 288.86
vertex 6207.5 6839.820000000001 276.90000000000003
endloop
endfacet
facet normal 0.9089250331766265 0.08276438781210042 0.4086628686031514
outer loop
vertex 6165.900000000001 7237.62 288.86
vertex 6207.5 6839.820000000001 276.90000000000003
vertex 6171.2300000000005 7238.14 276.90000000000003
endloop
endfacet
facet normal 0.9340686166275872 0.08505389818508279 0.34681645554233315
outer loop
vertex 6171.2300000000005 7238.14 276.90000000000003
vertex 6207.5 6839.820000000001 276.90000000000003
vertex 6212.05 6840.21 264.55
endloop
endfacet
facet normal 0.9308820527639896 0.08445992515286914 0.3554224597363995
outer loop
vertex 6171.2300000000005 7238.14 276.90000000000003
vertex 6212.05 6840.21 264.55
vertex 6175.91 7238.530000000001 264.55
endloop
endfacet
facet normal 0.9529396865839735 0.08646123788196691 0.2905691106727559
outer loop
vertex 6175.91 7238.530000000001 264.55
vertex 6212.05 6840.21 264.55
vertex 6215.820000000001 6840.6 252.07000000000002
endloop
endfacet
facet normal 0.9529396865839751 0.08646123788196727 0.2905691106727502
outer loop
vertex 6175.91 7238.530000000001 264.55
vertex 6215.820000000001 6840.6 252.07000000000002
vertex 6179.68 7238.92 252.07000000000002
endloop
endfacet
facet normal 0.9698863720014208 0.0879988287912525 0.22710489104660297
outer loop
vertex 6179.68 7238.92 252.07000000000002
vertex 6215.820000000001 6840.6 252.07000000000002
vertex 6218.81 6840.860000000001 239.20000000000002
endloop
endfacet
facet normal 0.9698863720014208 0.0879988287912525 0.227104891046603
outer loop
vertex 6179.68 7238.92 252.07000000000002
vertex 6218.81 6840.860000000001 239.20000000000002
vertex 6182.67 7239.18 239.20000000000002
endloop
endfacet
facet normal 0.9817890973729106 0.08907877580602866 0.16779493431145237
outer loop
vertex 6182.67 7239.18 239.20000000000002
vertex 6218.81 6840.860000000001 239.20000000000002
vertex 6221.02 6840.99 226.20000000000002
endloop
endfacet
facet normal 0.9833342405636551 0.08953989984244864 0.15822887748860456
outer loop
vertex 6182.67 7239.18 239.20000000000002
vertex 6221.02 6840.99 226.20000000000002
vertex 6184.75 7239.31 226.20000000000002
endloop
endfacet
facet normal 0.9908888489012223 0.0902278031473381 0.0999911629216101
outer loop
vertex 6184.75 7239.31 226.20000000000002
vertex 6221.02 6840.99 226.20000000000002
vertex 6222.320000000001 6841.12 213.20000000000002
endloop
endfacet
facet normal 0.9908888489012223 0.0902278031473381 0.09999116292161025
outer loop
vertex 6184.75 7239.31 226.20000000000002
vertex 6222.320000000001 6841.12 213.20000000000002
vertex 6186.05 7239.4400000000005 213.20000000000002
endloop
endfacet
facet normal 0.9954556159178471 0.09061406748485326 0.029278106350481177
outer loop
vertex 6222.320000000001 6841.12 213.20000000000002
vertex 6222.71 6841.12 199.94
vertex 6186.4400000000005 7239.570000000001 199.94
endloop
endfacet
facet normal 0.9954266559203077 0.0906410042433971 0.0301658918824206
outer loop
vertex 6222.320000000001 6841.12 213.20000000000002
vertex 6186.4400000000005 7239.570000000001 199.94
vertex 6186.05 7239.4400000000005 213.20000000000002
endloop
endfacet
facet normal 0.09033066506849624 -0.9959118289026809 0
outer loop
vertex 6186.4400000000005 7239.570000000001 599.95
vertex 6186.4400000000005 7239.570000000001 599.82
vertex 6584.89 7275.71 599.82
endloop
endfacet
facet normal 0.09033066506849624 -0.9959118289026809 0
outer loop
vertex 6186.4400000000005 7239.570000000001 599.95
vertex 6584.89 7275.71 599.82
vertex 6584.89 7275.71 599.95
endloop
endfacet
facet normal 0.09033066506849625 -0.9959118289026812 0
outer loop
vertex 6186.4400000000005 7239.570000000001 580.97
vertex 6186.4400000000005 7239.570000000001 500.5
vertex 6584.89 7275.71 500.5
endloop
endfacet
facet normal 0.09033066506849625 -0.9959118289026812 0
outer loop
vertex 6186.4400000000005 7239.570000000001 580.97
vertex 6584.89 7275.71 500.5
vertex 6584.89 7275.71 580.97
endloop
endfacet
facet normal 0.09015763473612087 -0.9959273604571233 -0.0005418410240087934
outer loop
vertex 6504.68 7268.43 500.5
vertex 6523.14 7270.12 465.79
vertex 6584.89 7275.71 465.79
endloop
endfacet
facet normal 0.09039021048632034 -0.9959064262511005 0
outer loop
vertex 6504.68 7268.43 500.5
vertex 6584.89 7275.71 465.79
vertex 6584.89 7275.71 500.5
endloop
endfacet
facet normal 0.09079150411390087 -0.9958693107493873 0.001103942152284146
outer loop
vertex 6523.14 7270.12 465.79
vertex 6539.26 7271.55 430.04
vertex 6584.89 7275.71 430.04
endloop
endfacet
facet normal 0.09015764797089021 -0.9959275066551566 0
outer loop
vertex 6523.14 7270.12 465.79
vertex 6584.89 7275.71 430.04
vertex 6584.89 7275.71 465.79
endloop
endfacet
facet normal 0.08943593859276029 -0.9959911343285924 -0.0016950595493106057
outer loop
vertex 6539.26 7271.55 430.04
vertex 6553.04 7272.85 393.25
vertex 6584.89 7275.71 393.25
endloop
endfacet
facet normal 0.09079155943722222 -0.9958699175770684 0
outer loop
vertex 6539.26 7271.55 430.04
vertex 6584.89 7275.71 393.25
vertex 6584.89 7275.71 430.04
endloop
endfacet
facet normal 0.08881953093222571 -0.996047596882969 -0.000525041562162983
outer loop
vertex 6553.04 7272.85 393.25
vertex 6564.4800000000005 7273.89 355.55
vertex 6584.89 7275.71 355.55
endloop
endfacet
facet normal 0.0894360670779084 -0.9959925651859234 0
outer loop
vertex 6553.04 7272.85 393.25
vertex 6584.89 7275.71 355.55
vertex 6584.89 7275.71 393.25
endloop
endfacet
facet normal 0.08952668330959831 -0.9959843518192907 0.0003793503530135292
outer loop
vertex 6564.4800000000005 7273.89 355.55
vertex 6573.320000000001 7274.67 317.2
vertex 6584.89 7275.71 317.2
endloop
endfacet
facet normal 0.08881954317460798 -0.9960477341725416 0
outer loop
vertex 6564.4800000000005 7273.89 355.55
vertex 6584.89 7275.71 317.2
vertex 6584.89 7275.71 355.55
endloop
endfacet
facet normal 0.09038934041938018 -0.9959065052195157 0
outer loop
vertex 6425.64 7261.280000000001 403.13
vertex 6186.4400000000005 7239.570000000001 500.5
vertex 6186.4400000000005 7239.570000000001 316.03000000000003
endloop
endfacet
facet normal 0.09026344509100684 -0.9959178625654772 0.0003485732551978258
outer loop
vertex 6425.64 7261.280000000001 403.13
vertex 6186.4400000000005 7239.570000000001 316.03000000000003
vertex 6572.280000000001 7274.54 316.03000000000003
endloop
endfacet
facet normal 0.09098826283460572 -0.9958507129651055 0.0015790862014925194
outer loop
vertex 6425.64 7261.280000000001 403.13
vertex 6572.280000000001 7274.54 316.03000000000003
vertex 6564.4800000000005 7273.89 355.55
endloop
endfacet
facet normal 0.0901975847128666 -0.9959236100315177 -0.0007474581959374023
outer loop
vertex 6425.64 7261.280000000001 403.13
vertex 6564.4800000000005 7273.89 355.55
vertex 6539.26 7271.55 430.04
endloop
endfacet
facet normal 0.09000520190820785 -0.9959412927008988 0.00007157321542896355
outer loop
vertex 6425.64 7261.280000000001 403.13
vertex 6539.26 7271.55 430.04
vertex 6504.68 7268.43 500.5
endloop
endfacet
facet normal 0.09031565543654725 -0.9959131734624775 -0.00018250195592419126
outer loop
vertex 6425.64 7261.280000000001 403.13
vertex 6504.68 7268.43 500.5
vertex 6186.4400000000005 7239.570000000001 500.5
endloop
endfacet
facet normal 0.09065205927512773 -0.9958804555707476 0.002079028951003124
outer loop
vertex 6332.43 7252.83 302.12
vertex 6186.4400000000005 7239.570000000001 316.03000000000003
vertex 6159.66 7237.1 300.56
endloop
endfacet
facet normal 0.0906336116857832 -0.9958759603280232 0.004076772440106764
outer loop
vertex 6332.43 7252.83 302.12
vertex 6159.66 7237.1 300.56
vertex 6165.900000000001 7237.62 288.86
endloop
endfacet
facet normal 0.0905629818816365 -0.9958783458997881 0.004966536077443995
outer loop
vertex 6332.43 7252.83 302.12
vertex 6165.900000000001 7237.62 288.86
vertex 6577.610000000001 7275.06 288.86
endloop
endfacet
facet normal 0.09022458843806354 -0.995920514396335 -0.0013611192900867786
outer loop
vertex 6332.43 7252.83 302.12
vertex 6577.610000000001 7275.06 288.86
vertex 6572.280000000001 7274.54 316.03000000000003
endloop
endfacet
facet normal 0.09026326362627168 -0.9959158603820798 -0.0020352589407841206
outer loop
vertex 6332.43 7252.83 302.12
vertex 6572.280000000001 7274.54 316.03000000000003
vertex 6186.4400000000005 7239.570000000001 316.03000000000003
endloop
endfacet
facet normal 0.07478921310161611 -0.9971895080230012 -0.004433812409865998
outer loop
vertex 6573.320000000001 7274.67 317.2
vertex 6579.6900000000005 7275.320000000001 278.46000000000004
vertex 6584.89 7275.71 278.46000000000004
endloop
endfacet
facet normal 0.08952668975134334 -0.9959844234837043 0
outer loop
vertex 6573.320000000001 7274.67 317.2
vertex 6584.89 7275.71 278.46000000000004
vertex 6584.89 7275.71 317.2
endloop
endfacet
facet normal 0.09040580936236195 -0.9959004602251279 -0.0030104745331204523
outer loop
vertex 6414.85 7260.240000000001 281.97
vertex 6165.900000000001 7237.62 288.86
vertex 6171.2300000000005 7238.14 276.90000000000003
endloop
endfacet
facet normal 0.0906132721176923 -0.9957955044262407 -0.013436825540811059
outer loop
vertex 6414.85 7260.240000000001 281.97
vertex 6171.2300000000005 7238.14 276.90000000000003
vertex 6579.820000000001 7275.320000000001 276.90000000000003
endloop
endfacet
facet normal 0.09126018015867525 -0.9957980434124455 0.0076050150132297685
outer loop
vertex 6414.85 7260.240000000001 281.97
vertex 6579.820000000001 7275.320000000001 276.90000000000003
vertex 6579.6900000000005 7275.320000000001 278.46000000000004
endloop
endfacet
facet normal 0.09095860750615634 -0.9958321078454302 -0.006704081194925896
outer loop
vertex 6414.85 7260.240000000001 281.97
vertex 6579.6900000000005 7275.320000000001 278.46000000000004
vertex 6577.610000000001 7275.06 288.86
endloop
endfacet
facet normal 0.09056375859917216 -0.9958868870957446 0.002741120051866418
outer loop
vertex 6414.85 7260.240000000001 281.97
vertex 6577.610000000001 7275.06 288.86
vertex 6165.900000000001 7237.62 288.86
endloop
endfacet
facet normal 0.09053537602448139 -0.9958891362692976 0.0028590118744262955
outer loop
vertex 6171.2300000000005 7238.14 276.90000000000003
vertex 6175.91 7238.530000000001 264.55
vertex 6580.6 7275.320000000001 264.55
endloop
endfacet
facet normal 0.0906199690085993 -0.9958690999791101 0.005723366463698959
outer loop
vertex 6171.2300000000005 7238.14 276.90000000000003
vertex 6580.6 7275.320000000001 264.55
vertex 6579.820000000001 7275.320000000001 276.90000000000003
endloop
endfacet
facet normal 0.0905351018685953 -0.995886120554555 -0.0037722959111420678
outer loop
vertex 6175.91 7238.530000000001 264.55
vertex 6179.68 7238.92 252.07000000000002
vertex 6581.51 7275.45 252.07000000000002
endloop
endfacet
facet normal 0.09053510186859572 -0.995886120554555 -0.003772295911128529
outer loop
vertex 6175.91 7238.530000000001 264.55
vertex 6581.51 7275.45 252.07000000000002
vertex 6580.6 7275.320000000001 264.55
endloop
endfacet
facet normal 0.09950317533100797 -0.9950317533093838 0.0033057533332773556
outer loop
vertex 6579.6900000000005 7275.320000000001 278.46000000000004
vertex 6583.59 7275.58 239.33
vertex 6584.89 7275.71 239.33
endloop
endfacet
facet normal 0.07478994824152584 -0.9971993098884646 0
outer loop
vertex 6579.6900000000005 7275.320000000001 278.46000000000004
vertex 6584.89 7275.71 239.33
vertex 6584.89 7275.71 278.46000000000004
endloop
endfacet
facet normal 0.09038965466865201 -0.9959060876395692 0.0008803018393740763
outer loop
vertex 6179.68 7238.92 252.07000000000002
vertex 6182.67 7239.18 239.20000000000002
vertex 6582.29 7275.45 239.20000000000002
endloop
endfacet
facet normal 0.09053438317838101 -0.995878214962198 0.00548693231383944
outer loop
vertex 6179.68 7238.92 252.07000000000002
vertex 6582.29 7275.45 239.20000000000002
vertex 6581.51 7275.45 252.07000000000002
endloop
endfacet
facet normal 0.09065199344072501 -0.9958722576911314 0.004545596373595819
outer loop
vertex 6182.67 7239.18 239.20000000000002
vertex 6184.75 7239.31 226.20000000000002
vertex 6583.2 7275.58 226.20000000000002
endloop
endfacet
facet normal 0.09038909358319909 -0.9958999056442923 -0.0036317625056284017
outer loop
vertex 6182.67 7239.18 239.20000000000002
vertex 6583.2 7275.58 226.20000000000002
vertex 6582.29 7275.45 239.20000000000002
endloop
endfacet
facet normal 0.09077038116260543 -0.9958714578449427 -0.0008816764621959754
outer loop
vertex 6184.75 7239.31 226.20000000000002
vertex 6186.05 7239.4400000000005 213.20000000000002
vertex 6583.9800000000005 7275.71 213.20000000000002
endloop
endfacet
facet normal 0.0906520041211354 -0.9958723750225216 -0.004519603502960971
outer loop
vertex 6184.75 7239.31 226.20000000000002
vertex 6583.9800000000005 7275.71 213.20000000000002
vertex 6583.2 7275.58 226.20000000000002
endloop
endfacet
facet normal 0.09950371902106785 -0.9950371902099823 0
outer loop
vertex 6583.59 7275.58 239.33
vertex 6584.89 7275.71 199.94
vertex 6584.89 7275.71 239.33
endloop
endfacet
facet normal 0.0903283838421377 -0.9958866779717855 -0.007106877710254705
outer loop
vertex 6186.05 7239.4400000000005 213.20000000000002
vertex 6186.4400000000005 7239.570000000001 199.94
vertex 6584.89 7275.71 199.94
endloop
endfacet
facet normal 0.09076865533457033 -0.9958525232226652 0.006229221444528323
outer loop
vertex 6186.05 7239.4400000000005 213.20000000000002
vertex 6584.89 7275.71 199.94
vertex 6583.9800000000005 7275.71 213.20000000000002
endloop
endfacet
facet normal 0.10833571495363738 -0.9940994221206976 0.005450853582604199
outer loop
vertex 6564.4800000000005 7273.89 355.55
vertex 6553.04 7272.85 393.25
vertex 6539.26 7271.55 430.04
endloop
endfacet
facet normal 0.050101406158892046 -0.9987427850749557 -0.0016426690544118921
outer loop
vertex 6584.89 7275.71 199.94
vertex 6583.59 7275.58 239.33
vertex 6579.6900000000005 7275.320000000001 278.46000000000004
endloop
endfacet
facet normal 0.05380217872942802 -0.9985203074795498 -0.007907029461946366
outer loop
vertex 6579.6900000000005 7275.320000000001 278.46000000000004
vertex 6573.320000000001 7274.67 317.2
vertex 6564.4800000000005 7273.89 355.55
endloop
endfacet
facet normal 0.10675390030825299 -0.9942502752870025 0.008366293127505559
outer loop
vertex 6539.26 7271.55 430.04
vertex 6523.14 7270.12 465.79
vertex 6504.68 7268.43 500.5
endloop
endfacet
facet normal -0.09066759924050716 0.9958812110126202 0
outer loop
vertex 6477.900000000001 5998.070000000001 475.28000000000003
vertex 6300.84 5981.95 316.03000000000003
vertex 6300.84 5981.95 580.97
endloop
endfacet
facet normal -0.09066759924050707 0.9958812110126201 0
outer loop
vertex 6477.900000000001 5998.070000000001 475.28000000000003
vertex 6300.84 5981.95 580.97
vertex 6300.84 5981.95 599.82
endloop
endfacet
facet normal -0.09066759924051594 0.9958812110126194 0
outer loop
vertex 6477.900000000001 5998.070000000001 475.28000000000003
vertex 6300.84 5981.95 599.82
vertex 6300.84 5981.95 599.95
endloop
endfacet
facet normal -0.09035989691170371 0.995909079631142 0.0004406113457007215
outer loop
vertex 6477.900000000001 5998.070000000001 475.28000000000003
vertex 6300.84 5981.95 599.95
vertex 6699.16 6018.09 599.95
endloop
endfacet
facet normal -0.09011365987917133 0.9959314877556493 0
outer loop
vertex 6477.900000000001 5998.070000000001 475.28000000000003
vertex 6699.16 6018.09 599.95
vertex 6699.16 6018.09 599.82
endloop
endfacet
facet normal -0.09011365987918141 0.9959314877556483 0
outer loop
vertex 6477.900000000001 5998.070000000001 475.28000000000003
vertex 6699.16 6018.09 599.82
vertex 6699.16 6018.09 580.97
endloop
endfacet
facet normal -0.09011365987918137 0.9959314877556483 0
outer loop
vertex 6477.900000000001 5998.070000000001 475.28000000000003
vertex 6699.16 6018.09 580.97
vertex 6699.16 6018.09 199.94
endloop
endfacet
facet normal -0.09035990388464733 0.9959091564840171 -0.00019950250856198408
outer loop
vertex 6477.900000000001 5998.070000000001 475.28000000000003
vertex 6699.16 6018.09 199.94
vertex 6300.84 5981.95 199.94
endloop
endfacet
facet normal -0.09066759924050717 0.9958812110126202 0
outer loop
vertex 6477.900000000001 5998.070000000001 475.28000000000003
vertex 6300.84 5981.95 199.94
vertex 6300.84 5981.95 316.03000000000003
endloop
endfacet
facet normal 0.4967293592593579 0.04523090444953088 -0.86672608644973
outer loop
vertex 6222.71 6841.12 316.03000000000003
vertex 6195.93 6838.780000000001 300.56
vertex 6159.66 7237.1 300.56
endloop
endfacet
facet normal 0.49656710906237006 0.04520137795380071 -0.8668205936804442
outer loop
vertex 6222.71 6841.12 316.03000000000003
vertex 6159.66 7237.1 300.56
vertex 6186.4400000000005 7239.570000000001 316.03000000000003
endloop
endfacet
facet normal -0.08771086274375196 0.9961447983042029 -0.0015314595082548095
outer loop
vertex 6222.71 6841.12 288.86
vertex 6202.04 6839.3 288.86
vertex 6195.93 6838.780000000001 300.56
endloop
endfacet
facet normal -0.08704696967635464 0.9962042085185967 0
outer loop
vertex 6222.71 6841.12 288.86
vertex 6195.93 6838.780000000001 300.56
vertex 6222.71 6841.12 316.03000000000003
endloop
endfacet
facet normal -0.0851596002624083 0.9963673230707374 0
outer loop
vertex 6222.71 6841.12 288.86
vertex 6222.71 6841.12 276.90000000000003
vertex 6207.5 6839.820000000001 276.90000000000003
endloop
endfacet
facet normal -0.08771049702624571 0.9961406447982392 0.003268714174934317
outer loop
vertex 6222.71 6841.12 288.86
vertex 6207.5 6839.820000000001 276.90000000000003
vertex 6202.04 6839.3 288.86
endloop
endfacet
facet normal -0.08505649888374327 0.9963761297811382 0
outer loop
vertex 6222.71 6841.12 276.90000000000003
vertex 6222.71 6841.12 264.55
vertex 6212.05 6840.21 264.55
endloop
endfacet
facet normal -0.08515959992025272 0.996367319067517 0.00008964168409605508
outer loop
vertex 6222.71 6841.12 276.90000000000003
vertex 6212.05 6840.21 264.55
vertex 6207.5 6839.820000000001 276.90000000000003
endloop
endfacet
facet normal -0.07525766947062604 0.9971641204866178 0
outer loop
vertex 6222.71 6841.12 264.55
vertex 6222.71 6841.12 252.07000000000002
vertex 6215.820000000001 6840.6 252.07000000000002
endloop
endfacet
facet normal -0.08505523914284951 0.9963613728163828 0.005442522742799343
outer loop
vertex 6222.71 6841.12 264.55
vertex 6215.820000000001 6840.6 252.07000000000002
vertex 6212.05 6840.21 264.55
endloop
endfacet
facet normal -0.06651901052360405 0.9977851578566203 0
outer loop
vertex 6222.71 6841.12 252.07000000000002
vertex 6222.71 6841.12 239.20000000000002
vertex 6218.81 6840.860000000001 239.20000000000002
endloop
endfacet
facet normal -0.07525740310039104 0.997160591081004 0.002660615261159744
outer loop
vertex 6222.71 6841.12 252.07000000000002
vertex 6218.81 6840.860000000001 239.20000000000002
vertex 6215.820000000001 6840.6 252.07000000000002
endloop
endfacet
facet normal -0.07669649888481911 0.9970544855015753 0
outer loop
vertex 6222.71 6841.12 239.20000000000002
vertex 6222.71 6841.12 226.20000000000002
vertex 6221.02 6840.99 226.20000000000002
endloop
endfacet
facet normal -0.06651895165730119 0.9977842748620774 -0.001330379033182044
outer loop
vertex 6222.71 6841.12 239.20000000000002
vertex 6221.02 6840.99 226.20000000000002
vertex 6218.81 6840.860000000001 239.20000000000002
endloop
endfacet
facet normal 0 1 0
outer loop
vertex 6222.71 6841.12 226.20000000000002
vertex 6222.71 6841.12 213.20000000000002
vertex 6222.320000000001 6841.12 213.20000000000002
endloop
endfacet
facet normal -0.07669629586548111 0.9970518462501814 0.0023008888759609995
outer loop
vertex 6222.71 6841.12 226.20000000000002
vertex 6222.320000000001 6841.12 213.20000000000002
vertex 6221.02 6840.99 226.20000000000002
endloop
endfacet
facet normal 0 1 0
outer loop
vertex 6222.71 6841.12 213.20000000000002
vertex 6222.71 6841.12 199.94
vertex 6222.320000000001 6841.12 213.20000000000002
endloop
endfacet
facet normal -0.07854245156806465 0.862559396432068 0.49982233936512377
outer loop
vertex 6567.47 7466.81 248.69
vertex 6169.150000000001 7430.54 248.69
vertex 6186.4400000000005 7239.570000000001 580.97
endloop
endfacet
facet normal -0.07822351628412973 0.8624283360102928 0.5000984370568099
outer loop
vertex 6567.47 7466.81 248.69
vertex 6186.4400000000005 7239.570000000001 580.97
vertex 6584.89 7275.71 580.97
endloop
endfacet
facet normal -0.04532913184568354 0.49797057027605085 -0.8660084185185855
outer loop
vertex 6186.4400000000005 7239.570000000001 599.82
vertex 6086.7300000000005 8336.25 1235.65
vertex 6485.18 8372.52 1235.65
endloop
endfacet
facet normal -0.04516400814667837 0.4979413128401847 -0.8660338684688492
outer loop
vertex 6186.4400000000005 7239.570000000001 599.82
vertex 6485.18 8372.52 1235.65
vertex 6584.89 7275.71 599.82
endloop
endfacet
endsolid JSCAD
