solid JSCAD
facet normal -1 0 0
outer loop
vertex 0 0 0
vertex 0 0 3999.9700000000003
vertex 0 15000.050000000001 3999.9700000000003
endloop
endfacet
facet normal -1 0 0
outer loop
vertex 0 0 0
vertex 0 15000.050000000001 3999.9700000000003
vertex 0 15000.050000000001 0
endloop
endfacet
facet normal 1 0 0
outer loop
vertex 19999.98 0 0
vertex 19999.98 15000.050000000001 0
vertex 19999.98 15000.050000000001 3999.9700000000003
endloop
endfacet
facet normal 1 0 0
outer loop
vertex 19999.98 0 0
vertex 19999.98 15000.050000000001 3999.9700000000003
vertex 19999.98 0 3999.9700000000003
endloop
endfacet
facet normal 0 -1 0
outer loop
vertex 0 0 0
vertex 19999.98 0 0
vertex 19999.98 0 3999.9700000000003
endloop
endfacet
facet normal 0 -1 0
outer loop
vertex 0 0 0
vertex 19999.98 0 3999.9700000000003
vertex 0 0 3999.9700000000003
endloop
endfacet
facet normal 0 1 0
outer loop
vertex 0 15000.050000000001 0
vertex 0 15000.050000000001 3999.9700000000003
vertex 19999.98 15000.050000000001 3999.9700000000003
endloop
endfacet
facet normal 0 1 0
outer loop
vertex 0 15000.050000000001 0
vertex 19999.98 15000.050000000001 3999.9700000000003
vertex 19999.98 15000.050000000001 0
endloop
endfacet
facet normal 0 0 -1
outer loop
vertex 0 0 0
vertex 0 15000.050000000001 0
vertex 19999.98 15000.050000000001 0
endloop
endfacet
facet normal 0 0 -1
outer loop
vertex 0 0 0
vertex 19999.98 15000.050000000001 0
vertex 19999.98 0 0
endloop
endfacet
facet normal 0 0 1
outer loop
vertex 0 0 3999.9700000000003
vertex 19999.98 0 3999.9700000000003
vertex 19999.98 15000.050000000001 3999.9700000000003
endloop
endfacet
facet normal 0 0 1
outer loop
vertex 0 0 3999.9700000000003
vertex 19999.98 15000.050000000001 3999.9700000000003
vertex 0 15000.050000000001 3999.9700000000003
endloop
endfacet
facet normal 0.7072692784296084 -0.7069442465920923 0
outer loop
vertex 3752.84 10964.33 599.95
vertex 3752.84 10964.33 199.94
vertex 4035.59 11247.210000000001 199.94
endloop
endfacet
facet normal 0.7072692784296084 -0.7069442465920923 0
outer loop
vertex 3752.84 10964.33 599.95
vertex 4035.59 11247.210000000001 199.94
vertex 4035.59 11247.210000000001 599.95
endloop
endfacet
facet normal 0.6836114985796321 0.7298460926864716 0
outer loop
vertex 3781.57 10937.42 599.95
vertex 3781.57 10937.42 199.94
vertex 3752.84 10964.33 199.94
endloop
endfacet
facet normal 0.6836114985796321 0.7298460926864716 0
outer loop
vertex 3781.57 10937.42 599.95
vertex 3752.84 10964.33 199.94
vertex 3752.84 10964.33 599.95
endloop
endfacet
facet normal 0.6359394184773447 0.7717389817980538 0
outer loop
vertex 3811.86 10912.460000000001 599.95
vertex 3811.86 10912.460000000001 199.94
vertex 3781.57 10937.42 199.94
endloop
endfacet
facet normal 0.6359394184773447 0.7717389817980538 0
outer loop
vertex 3811.86 10912.460000000001 599.95
vertex 3781.57 10937.42 199.94
vertex 3781.57 10937.42 599.95
endloop
endfacet
facet normal 0.5818634895297256 0.8132864683199216 0
outer loop
vertex 3843.84 10889.58 599.95
vertex 3843.84 10889.58 199.94
vertex 3811.86 10912.460000000001 199.94
endloop
endfacet
facet normal 0.5818634895297256 0.8132864683199216 0
outer loop
vertex 3843.84 10889.58 599.95
vertex 3811.86 10912.460000000001 199.94
vertex 3811.86 10912.460000000001 599.95
endloop
endfacet
facet normal 0.528513539201258 0.8489248723420466 0
outer loop
vertex 3877.25 10868.78 599.95
vertex 3877.25 10868.78 199.94
vertex 3843.84 10889.58 199.94
endloop
endfacet
facet normal 0.528513539201258 0.8489248723420466 0
outer loop
vertex 3877.25 10868.78 599.95
vertex 3843.84 10889.58 199.94
vertex 3843.84 10889.58 599.95
endloop
endfacet
facet normal 0.46955813187191386 0.8829015578154557 0
outer loop
vertex 3911.96 10850.32 599.95
vertex 3911.96 10850.32 199.94
vertex 3877.25 10868.78 199.94
endloop
endfacet
facet normal 0.46955813187191386 0.8829015578154557 0
outer loop
vertex 3911.96 10850.32 599.95
vertex 3877.25 10868.78 199.94
vertex 3877.25 10868.78 599.95
endloop
endfacet
facet normal 0.4125592291917741 0.9109307780554401 0
outer loop
vertex 3947.84 10834.07 599.95
vertex 3947.84 10834.07 199.94
vertex 3911.96 10850.32 199.94
endloop
endfacet
facet normal 0.4125592291917741 0.9109307780554401 0
outer loop
vertex 3947.84 10834.07 599.95
vertex 3911.96 10850.32 199.94
vertex 3911.96 10850.32 599.95
endloop
endfacet
facet normal 0.35365765913888236 0.9353749302458378 0
outer loop
vertex 3984.63 10820.16 599.95
vertex 3984.63 10820.16 199.94
vertex 3947.84 10834.07 199.94
endloop
endfacet
facet normal 0.35365765913888236 0.9353749302458378 0
outer loop
vertex 3984.63 10820.16 599.95
vertex 3947.84 10834.07 199.94
vertex 3947.84 10834.07 599.95
endloop
endfacet
facet normal 0.28825968092872556 0.9575522734299519 0
outer loop
vertex 4022.2000000000003 10808.85 599.95
vertex 4022.2000000000003 10808.85 199.94
vertex 3984.63 10820.16 199.94
endloop
endfacet
facet normal 0.28825968092872556 0.9575522734299519 0
outer loop
vertex 4022.2000000000003 10808.85 599.95
vertex 3984.63 10820.16 199.94
vertex 3984.63 10820.16 599.95
endloop
endfacet
facet normal -0.965872588623066 0.2590176491024843 0
outer loop
vertex 4125.81 11195.210000000001 599.95
vertex 4125.81 11195.210000000001 199.94
vertex 4022.2000000000003 10808.85 199.94
endloop
endfacet
facet normal -0.965872588623066 0.2590176491024843 0
outer loop
vertex 4125.81 11195.210000000001 599.95
vertex 4022.2000000000003 10808.85 199.94
vertex 4022.2000000000003 10808.85 599.95
endloop
endfacet
facet normal -0.28644158302827244 -0.9580977087501343 0
outer loop
vertex 4113.2 11198.98 599.95
vertex 4113.2 11198.98 199.94
vertex 4125.81 11195.210000000001 199.94
endloop
endfacet
facet normal -0.28644158302827244 -0.9580977087501343 0
outer loop
vertex 4113.2 11198.98 599.95
vertex 4125.81 11195.210000000001 199.94
vertex 4125.81 11195.210000000001 599.95
endloop
endfacet
facet normal -0.3543574858642447 -0.9351100321416573 0
outer loop
vertex 4100.85 11203.66 599.95
vertex 4100.85 11203.66 199.94
vertex 4113.2 11198.98 199.94
endloop
endfacet
facet normal -0.3543574858642447 -0.9351100321416573 0
outer loop
vertex 4100.85 11203.66 599.95
vertex 4113.2 11198.98 199.94
vertex 4113.2 11198.98 599.95
endloop
endfacet
facet normal -0.40705944022439305 -0.913401670747434 0
outer loop
vertex 4088.8900000000003 11208.99 599.95
vertex 4088.8900000000003 11208.99 199.94
vertex 4100.85 11203.66 199.94
endloop
endfacet
facet normal -0.40705944022439305 -0.913401670747434 0
outer loop
vertex 4088.8900000000003 11208.99 599.95
vertex 4100.85 11203.66 199.94
vertex 4100.85 11203.66 599.95
endloop
endfacet
facet normal -0.47468944937676477 -0.8801533540527945 0
outer loop
vertex 4077.32 11215.23 599.95
vertex 4077.32 11215.23 199.94
vertex 4088.8900000000003 11208.99 199.94
endloop
endfacet
facet normal -0.47468944937676477 -0.8801533540527945 0
outer loop
vertex 4077.32 11215.23 599.95
vertex 4088.8900000000003 11208.99 199.94
vertex 4088.8900000000003 11208.99 599.95
endloop
endfacet
facet normal -0.5317681325356768 -0.8468899888530498 0
outer loop
vertex 4066.1400000000003 11222.25 599.95
vertex 4066.1400000000003 11222.25 199.94
vertex 4077.32 11215.23 199.94
endloop
endfacet
facet normal -0.5317681325356768 -0.8468899888530498 0
outer loop
vertex 4066.1400000000003 11222.25 599.95
vertex 4077.32 11215.23 199.94
vertex 4077.32 11215.23 599.95
endloop
endfacet
facet normal -0.5840439198750043 -0.8117220581313775 0
outer loop
vertex 4055.48 11229.92 599.95
vertex 4055.48 11229.92 199.94
vertex 4066.1400000000003 11222.25 199.94
endloop
endfacet
facet normal -0.5840439198750043 -0.8117220581313775 0
outer loop
vertex 4055.48 11229.92 599.95
vertex 4066.1400000000003 11222.25 199.94
vertex 4066.1400000000003 11222.25 599.95
endloop
endfacet
facet normal -0.6294811301221217 -0.7770157699945197 0
outer loop
vertex 4045.21 11238.24 599.95
vertex 4045.21 11238.24 199.94
vertex 4055.48 11229.92 199.94
endloop
endfacet
facet normal -0.6294811301221217 -0.7770157699945197 0
outer loop
vertex 4045.21 11238.24 599.95
vertex 4055.48 11229.92 199.94
vertex 4055.48 11229.92 599.95
endloop
endfacet
facet normal -0.6819660251585985 -0.7313838530685387 0
outer loop
vertex 4035.59 11247.210000000001 599.95
vertex 4035.59 11247.210000000001 199.94
vertex 4045.21 11238.24 199.94
endloop
endfacet
facet normal -0.6819660251585985 -0.7313838530685387 0
outer loop
vertex 4035.59 11247.210000000001 599.95
vertex 4045.21 11238.24 199.94
vertex 4045.21 11238.24 599.95
endloop
endfacet
facet normal 0 0 -1
outer loop
vertex 4045.21 11238.24 599.95
vertex 4026.6200000000003 11238.24 599.95
vertex 4035.59 11247.210000000001 599.95
endloop
endfacet
facet normal 0 0 -1
outer loop
vertex 4045.21 11238.24 599.95
vertex 4055.48 11229.92 599.95
vertex 4018.3 11229.92 599.95
endloop
endfacet
facet normal 0 0 -1
outer loop
vertex 4045.21 11238.24 599.95
vertex 4018.3 11229.92 599.95
vertex 4026.6200000000003 11238.24 599.95
endloop
endfacet
facet normal 0 0 -1
outer loop
vertex 4055.48 11229.92 599.95
vertex 4066.1400000000003 11222.25 599.95
vertex 4010.63 11222.25 599.95
endloop
endfacet
facet normal 0 0 -1
outer loop
vertex 4055.48 11229.92 599.95
vertex 4010.63 11222.25 599.95
vertex 4018.3 11229.92 599.95
endloop
endfacet
facet normal 0 0 -1
outer loop
vertex 4066.1400000000003 11222.25 599.95
vertex 4077.32 11215.23 599.95
vertex 4003.7400000000002 11215.23 599.95
endloop
endfacet
facet normal 0 0 -1
outer loop
vertex 4066.1400000000003 11222.25 599.95
vertex 4003.7400000000002 11215.23 599.95
vertex 4010.63 11222.25 599.95
endloop
endfacet
facet normal 0 0 -1
outer loop
vertex 4077.32 11215.23 599.95
vertex 4088.8900000000003 11208.99 599.95
vertex 3997.5 11208.99 599.95
endloop
endfacet
facet normal 0 0 -1
outer loop
vertex 4077.32 11215.23 599.95
vertex 3997.5 11208.99 599.95
vertex 4003.7400000000002 11215.23 599.95
endloop
endfacet
facet normal 0 0 -1
outer loop
vertex 4088.8900000000003 11208.99 599.95
vertex 4100.85 11203.66 599.95
vertex 3992.04 11203.66 599.95
endloop
endfacet
facet normal 0 0 -1
outer loop
vertex 4088.8900000000003 11208.99 599.95
vertex 3992.04 11203.66 599.95
vertex 3997.5 11208.99 599.95
endloop
endfacet
facet normal 0 0 -1
outer loop
vertex 4100.85 11203.66 599.95
vertex 4113.2 11198.98 599.95
vertex 3987.4900000000002 11198.98 599.95
endloop
endfacet
facet normal 0 0 -0.9999999999999999
outer loop
vertex 4100.85 11203.66 599.95
vertex 3987.4900000000002 11198.98 599.95
vertex 3992.04 11203.66 599.95
endloop
endfacet
facet normal 0 0 -1
outer loop
vertex 3930.03 10956.66 599.95
vertex 4113.2 11198.98 599.95
vertex 4125.81 11195.210000000001 599.95
endloop
endfacet
facet normal 0 0 -1
outer loop
vertex 3930.03 10956.66 599.95
vertex 4125.81 11195.210000000001 599.95
vertex 4022.2000000000003 10808.85 599.95
endloop
endfacet
facet normal 0 0 -1
outer loop
vertex 3930.03 10956.66 599.95
vertex 4022.2000000000003 10808.85 599.95
vertex 3984.63 10820.16 599.95
endloop
endfacet
facet normal 0 0 -1
outer loop
vertex 3930.03 10956.66 599.95
vertex 3984.63 10820.16 599.95
vertex 3947.84 10834.07 599.95
endloop
endfacet
facet normal 0 0 -1
outer loop
vertex 3930.03 10956.66 599.95
vertex 3947.84 10834.07 599.95
vertex 3911.96 10850.32 599.95
endloop
endfacet
facet normal 0 0 -1
outer loop
vertex 3930.03 10956.66 599.95
vertex 3911.96 10850.32 599.95
vertex 3877.25 10868.78 599.95
endloop
endfacet
facet normal 0 0 -1
outer loop
vertex 3930.03 10956.66 599.95
vertex 3877.25 10868.78 599.95
vertex 3843.84 10889.58 599.95
endloop
endfacet
facet normal 0 0 -1
outer loop
vertex 3930.03 10956.66 599.95
vertex 3843.84 10889.58 599.95
vertex 3811.86 10912.460000000001 599.95
endloop
endfacet
facet normal 0 0 -1
outer loop
vertex 3930.03 10956.66 599.95
vertex 3811.86 10912.460000000001 599.95
vertex 3781.57 10937.42 599.95
endloop
endfacet
facet normal 0 0 -1
outer loop
vertex 3930.03 10956.66 599.95
vertex 3781.57 10937.42 599.95
vertex 3752.84 10964.33 599.95
endloop
endfacet
facet normal 0 0 -1
outer loop
vertex 3930.03 10956.66 599.95
vertex 3752.84 10964.33 599.95
vertex 3987.4900000000002 11198.98 599.95
endloop
endfacet
facet normal 0 0 -1
outer loop
vertex 3930.03 10956.66 599.95
vertex 3987.4900000000002 11198.98 599.95
vertex 4113.2 11198.98 599.95
endloop
endfacet
facet normal 0 0 -1
outer loop
vertex 5969.99 9143.42 599.95
vertex 5915.39 9279.79 599.95
vertex 5952.18 9265.880000000001 599.95
endloop
endfacet
facet normal 0 0 -1
outer loop
vertex 5969.99 9143.42 599.95
vertex 5952.18 9265.880000000001 599.95
vertex 5988.06 9249.76 599.95
endloop
endfacet
facet normal 0 0 -1
outer loop
vertex 5969.99 9143.42 599.95
vertex 5988.06 9249.76 599.95
vertex 6022.77 9231.17 599.95
endloop
endfacet
facet normal 0 0 -1
outer loop
vertex 5969.99 9143.42 599.95
vertex 6022.77 9231.17 599.95
vertex 6056.18 9210.37 599.95
endloop
endfacet
facet normal 0 0 -1
outer loop
vertex 5969.99 9143.42 599.95
vertex 6056.18 9210.37 599.95
vertex 6088.030000000001 9187.49 599.95
endloop
endfacet
facet normal 0 0 -1
outer loop
vertex 5969.99 9143.42 599.95
vertex 6088.030000000001 9187.49 599.95
vertex 6118.45 9162.53 599.95
endloop
endfacet
facet normal 0 0 -1
outer loop
vertex 5969.99 9143.42 599.95
vertex 6118.45 9162.53 599.95
vertex 6147.18 9135.62 599.95
endloop
endfacet
facet normal 0 0 -1
outer loop
vertex 5969.99 9143.42 599.95
vertex 6147.18 9135.62 599.95
vertex 5912.530000000001 8900.970000000001 599.95
endloop
endfacet
facet normal 0 0 -1
outer loop
vertex 5969.99 9143.42 599.95
vertex 5912.530000000001 8900.970000000001 599.95
vertex 5786.820000000001 8900.970000000001 599.95
endloop
endfacet
facet normal 0 0 -1
outer loop
vertex 5969.99 9143.42 599.95
vertex 5786.820000000001 8900.970000000001 599.95
vertex 5774.21 8904.87 599.95
endloop
endfacet
facet normal 0 0 -1
outer loop
vertex 5969.99 9143.42 599.95
vertex 5774.21 8904.87 599.95
vertex 5877.820000000001 9291.23 599.95
endloop
endfacet
facet normal 0 0 -1
outer loop
vertex 5969.99 9143.42 599.95
vertex 5877.820000000001 9291.23 599.95
vertex 5915.39 9279.79 599.95
endloop
endfacet
facet normal 0 0 -1
outer loop
vertex 5912.530000000001 8900.970000000001 599.95
vertex 5907.9800000000005 8896.42 599.95
vertex 5799.17 8896.42 599.95
endloop
endfacet
facet normal 0 0 -1
outer loop
vertex 5912.530000000001 8900.970000000001 599.95
vertex 5799.17 8896.42 599.95
vertex 5786.820000000001 8900.970000000001 599.95
endloop
endfacet
facet normal 0 0 -1
outer loop
vertex 5907.9800000000005 8896.42 599.95
vertex 5902.52 8890.960000000001 599.95
vertex 5811.13 8890.960000000001 599.95
endloop
endfacet
facet normal 0 0 -1
outer loop
vertex 5907.9800000000005 8896.42 599.95
vertex 5811.13 8890.960000000001 599.95
vertex 5799.17 8896.42 599.95
endloop
endfacet
facet normal 0 0 -1
outer loop
vertex 5902.52 8890.960000000001 599.95
vertex 5896.280000000001 8884.720000000001 599.95
vertex 5822.7 8884.720000000001 599.95
endloop
endfacet
facet normal 0 0 -1
outer loop
vertex 5902.52 8890.960000000001 599.95
vertex 5822.7 8884.720000000001 599.95
vertex 5811.13 8890.960000000001 599.95
endloop
endfacet
facet normal 0 0 -1
outer loop
vertex 5896.280000000001 8884.720000000001 599.95
vertex 5889.39 8877.83 599.95
vertex 5833.88 8877.83 599.95
endloop
endfacet
facet normal 0 0 -1
outer loop
vertex 5896.280000000001 8884.720000000001 599.95
vertex 5833.88 8877.83 599.95
vertex 5822.7 8884.720000000001 599.95
endloop
endfacet
facet normal 0 0 -1
outer loop
vertex 5889.39 8877.83 599.95
vertex 5881.72 8870.16 599.95
vertex 5844.54 8870.16 599.95
endloop
endfacet
facet normal 0 0 -1
outer loop
vertex 5889.39 8877.83 599.95
vertex 5844.54 8870.16 599.95
vertex 5833.88 8877.83 599.95
endloop
endfacet
facet normal 0 0 -1
outer loop
vertex 5881.72 8870.16 599.95
vertex 5873.400000000001 8861.84 599.95
vertex 5854.81 8861.84 599.95
endloop
endfacet
facet normal 0 0 -1
outer loop
vertex 5881.72 8870.16 599.95
vertex 5854.81 8861.84 599.95
vertex 5844.54 8870.16 599.95
endloop
endfacet
facet normal 0 0 -1
outer loop
vertex 5873.400000000001 8861.84 599.95
vertex 5864.3 8852.87 599.95
vertex 5854.81 8861.84 599.95
endloop
endfacet
facet normal 0 0 1
outer loop
vertex 4026.6200000000003 11238.24 199.94
vertex 4045.21 11238.24 199.94
vertex 4035.59 11247.210000000001 199.94
endloop
endfacet
facet normal 0 0 1
outer loop
vertex 4026.6200000000003 11238.24 199.94
vertex 4018.3 11229.92 199.94
vertex 4055.48 11229.92 199.94
endloop
endfacet
facet normal 0 0 1
outer loop
vertex 4026.6200000000003 11238.24 199.94
vertex 4055.48 11229.92 199.94
vertex 4045.21 11238.24 199.94
endloop
endfacet
facet normal 0 0 1
outer loop
vertex 4018.3 11229.92 199.94
vertex 4010.63 11222.25 199.94
vertex 4066.1400000000003 11222.25 199.94
endloop
endfacet
facet normal 0 0 1
outer loop
vertex 4018.3 11229.92 199.94
vertex 4066.1400000000003 11222.25 199.94
vertex 4055.48 11229.92 199.94
endloop
endfacet
facet normal 0 0 1
outer loop
vertex 4010.63 11222.25 199.94
vertex 4003.7400000000002 11215.23 199.94
vertex 4077.32 11215.23 199.94
endloop
endfacet
facet normal 0 0 1
outer loop
vertex 4010.63 11222.25 199.94
vertex 4077.32 11215.23 199.94
vertex 4066.1400000000003 11222.25 199.94
endloop
endfacet
facet normal 0 0 1
outer loop
vertex 4003.7400000000002 11215.23 199.94
vertex 3997.5 11208.99 199.94
vertex 4088.8900000000003 11208.99 199.94
endloop
endfacet
facet normal 0 0 1
outer loop
vertex 4003.7400000000002 11215.23 199.94
vertex 4088.8900000000003 11208.99 199.94
vertex 4077.32 11215.23 199.94
endloop
endfacet
facet normal 0 0 1
outer loop
vertex 3997.5 11208.99 199.94
vertex 3992.04 11203.66 199.94
vertex 4100.85 11203.66 199.94
endloop
endfacet
facet normal 0 0 1
outer loop
vertex 3997.5 11208.99 199.94
vertex 4100.85 11203.66 199.94
vertex 4088.8900000000003 11208.99 199.94
endloop
endfacet
facet normal 0 0 1
outer loop
vertex 3992.04 11203.66 199.94
vertex 3987.4900000000002 11198.98 199.94
vertex 4113.2 11198.98 199.94
endloop
endfacet
facet normal 0 0 0.9999999999999999
outer loop
vertex 3992.04 11203.66 199.94
vertex 4113.2 11198.98 199.94
vertex 4100.85 11203.66 199.94
endloop
endfacet
facet normal 0 0 1
outer loop
vertex 3930.03 10956.66 199.94
vertex 3987.4900000000002 11198.98 199.94
vertex 3752.84 10964.33 199.94
endloop
endfacet
facet normal 0 0 1
outer loop
vertex 3930.03 10956.66 199.94
vertex 3752.84 10964.33 199.94
vertex 3781.57 10937.42 199.94
endloop
endfacet
facet normal 0 0 1
outer loop
vertex 3930.03 10956.66 199.94
vertex 3781.57 10937.42 199.94
vertex 3811.86 10912.460000000001 199.94
endloop
endfacet
facet normal 0 0 1
outer loop
vertex 3930.03 10956.66 199.94
vertex 3811.86 10912.460000000001 199.94
vertex 3843.84 10889.58 199.94
endloop
endfacet
facet normal 0 0 1
outer loop
vertex 3930.03 10956.66 199.94
vertex 3843.84 10889.58 199.94
vertex 3877.25 10868.78 199.94
endloop
endfacet
facet normal 0 0 1
outer loop
vertex 3930.03 10956.66 199.94
vertex 3877.25 10868.78 199.94
vertex 3911.96 10850.32 199.94
endloop
endfacet
facet normal 0 0 1
outer loop
vertex 3930.03 10956.66 199.94
vertex 3911.96 10850.32 199.94
vertex 3947.84 10834.07 199.94
endloop
endfacet
facet normal 0 0 1
outer loop
vertex 3930.03 10956.66 199.94
vertex 3947.84 10834.07 199.94
vertex 3984.63 10820.16 199.94
endloop
endfacet
facet normal 0 0 1
outer loop
vertex 3930.03 10956.66 199.94
vertex 3984.63 10820.16 199.94
vertex 4022.2000000000003 10808.85 199.94
endloop
endfacet
facet normal 0 0 1
outer loop
vertex 3930.03 10956.66 199.94
vertex 4022.2000000000003 10808.85 199.94
vertex 4125.81 11195.210000000001 199.94
endloop
endfacet
facet normal 0 0 1
outer loop
vertex 3930.03 10956.66 199.94
vertex 4125.81 11195.210000000001 199.94
vertex 4113.2 11198.98 199.94
endloop
endfacet
facet normal 0 0 1
outer loop
vertex 3930.03 10956.66 199.94
vertex 4113.2 11198.98 199.94
vertex 3987.4900000000002 11198.98 199.94
endloop
endfacet
facet normal 0 0 1
outer loop
vertex 5969.99 9143.42 199.94
vertex 5774.21 8904.87 199.94
vertex 5786.820000000001 8900.970000000001 199.94
endloop
endfacet
facet normal 0 0 1
outer loop
vertex 5969.99 9143.42 199.94
vertex 5786.820000000001 8900.970000000001 199.94
vertex 5912.530000000001 8900.970000000001 199.94
endloop
endfacet
facet normal 0 0 1
outer loop
vertex 5969.99 9143.42 199.94
vertex 5912.530000000001 8900.970000000001 199.94
vertex 6147.18 9135.62 199.94
endloop
endfacet
facet normal 0 0 1
outer loop
vertex 5969.99 9143.42 199.94
vertex 6147.18 9135.62 199.94
vertex 6118.45 9162.53 199.94
endloop
endfacet
facet normal 0 0 1
outer loop
vertex 5969.99 9143.42 199.94
vertex 6118.45 9162.53 199.94
vertex 6088.030000000001 9187.49 199.94
endloop
endfacet
facet normal 0 0 1
outer loop
vertex 5969.99 9143.42 199.94
vertex 6088.030000000001 9187.49 199.94
vertex 6056.18 9210.37 199.94
endloop
endfacet
facet normal 0 0 1
outer loop
vertex 5969.99 9143.42 199.94
vertex 6056.18 9210.37 199.94
vertex 6022.77 9231.17 199.94
endloop
endfacet
facet normal 0 0 1
outer loop
vertex 5969.99 9143.42 199.94
vertex 6022.77 9231.17 199.94
vertex 5988.06 9249.76 199.94
endloop
endfacet
facet normal 0 0 1
outer loop
vertex 5969.99 9143.42 199.94
vertex 5988.06 9249.76 199.94
vertex 5952.18 9265.880000000001 199.94
endloop
endfacet
facet normal 0 0 1
outer loop
vertex 5969.99 9143.42 199.94
vertex 5952.18 9265.880000000001 199.94
vertex 5915.39 9279.79 199.94
endloop
endfacet
facet normal 0 0 1
outer loop
vertex 5969.99 9143.42 199.94
vertex 5915.39 9279.79 199.94
vertex 5877.820000000001 9291.23 199.94
endloop
endfacet
facet normal 0 0 1
outer loop
vertex 5969.99 9143.42 199.94
vertex 5877.820000000001 9291.23 199.94
vertex 5774.21 8904.87 199.94
endloop
endfacet
facet normal 0 0 1
outer loop
vertex 5786.820000000001 8900.970000000001 199.94
vertex 5799.17 8896.42 199.94
vertex 5907.9800000000005 8896.42 199.94
endloop
endfacet
facet normal 0 0 1
outer loop
vertex 5786.820000000001 8900.970000000001 199.94
vertex 5907.9800000000005 8896.42 199.94
vertex 5912.530000000001 8900.970000000001 199.94
endloop
endfacet
facet normal 0 0 1
outer loop
vertex 5799.17 8896.42 199.94
vertex 5811.13 8890.960000000001 199.94
vertex 5902.52 8890.960000000001 199.94
endloop
endfacet
facet normal 0 0 1
outer loop
vertex 5799.17 8896.42 199.94
vertex 5902.52 8890.960000000001 199.94
vertex 5907.9800000000005 8896.42 199.94
endloop
endfacet
facet normal 0 0 1
outer loop
vertex 5811.13 8890.960000000001 199.94
vertex 5822.7 8884.720000000001 199.94
vertex 5896.280000000001 8884.720000000001 199.94
endloop
endfacet
facet normal 0 0 1
outer loop
vertex 5811.13 8890.960000000001 199.94
vertex 5896.280000000001 8884.720000000001 199.94
vertex 5902.52 8890.960000000001 199.94
endloop
endfacet
facet normal 0 0 1
outer loop
vertex 5822.7 8884.720000000001 199.94
vertex 5833.88 8877.83 199.94
vertex 5889.39 8877.83 199.94
endloop
endfacet
facet normal 0 0 1
outer loop
vertex 5822.7 8884.720000000001 199.94
vertex 5889.39 8877.83 199.94
vertex 5896.280000000001 8884.720000000001 199.94
endloop
endfacet
facet normal 0 0 1
outer loop
vertex 5833.88 8877.83 199.94
vertex 5844.54 8870.16 199.94
vertex 5881.72 8870.16 199.94
endloop
endfacet
facet normal 0 0 1
outer loop
vertex 5833.88 8877.83 199.94
vertex 5881.72 8870.16 199.94
vertex 5889.39 8877.83 199.94
endloop
endfacet
facet normal 0 0 1
outer loop
vertex 5844.54 8870.16 199.94
vertex 5854.81 8861.84 199.94
vertex 5873.400000000001 8861.84 199.94
endloop
endfacet
facet normal 0 0 1
outer loop
vertex 5844.54 8870.16 199.94
vertex 5873.400000000001 8861.84 199.94
vertex 5881.72 8870.16 199.94
endloop
endfacet
facet normal 0 0 1
outer loop
vertex 5854.81 8861.84 199.94
vertex 5864.3 8852.87 199.94
vertex 5873.400000000001 8861.84 199.94
endloop
endfacet
facet normal 0.9658725886230661 -0.2590176491024832 0
outer loop
vertex 4756.4400000000005 9998.56 1284.27
vertex 4756.4400000000005 9998.56 884.26
vertex 4860.05 10384.92 884.26
endloop
endfacet
facet normal 0.9658725886230661 -0.2590176491024832 0
outer loop
vertex 4756.4400000000005 9998.56 1284.27
vertex 4860.05 10384.92 884.26
vertex 4860.05 10384.92 1284.27
endloop
endfacet
facet normal 0.3206642695320274 0.9471929192331894 0
outer loop
vertex 4781.400000000001 9990.11 1284.27
vertex 4781.400000000001 9990.11 884.26
vertex 4756.4400000000005 9998.56 884.26
endloop
endfacet
facet normal 0.3206642695320274 0.9471929192331894 0
outer loop
vertex 4781.400000000001 9990.11 1284.27
vertex 4756.4400000000005 9998.56 884.26
vertex 4756.4400000000005 9998.56 1284.27
endloop
endfacet
facet normal 0.4412542068470494 0.8973821510035627 0
outer loop
vertex 4804.93 9978.54 1284.27
vertex 4804.93 9978.54 884.26
vertex 4781.400000000001 9990.11 884.26
endloop
endfacet
facet normal 0.4412542068470494 0.8973821510035627 0
outer loop
vertex 4804.93 9978.54 1284.27
vertex 4781.400000000001 9990.11 884.26
vertex 4781.400000000001 9990.11 1284.27
endloop
endfacet
facet normal 0.5581148680929402 0.8297636976956754 0
outer loop
vertex 4826.77 9963.85 1284.27
vertex 4826.77 9963.85 884.26
vertex 4804.93 9978.54 884.26
endloop
endfacet
facet normal 0.5581148680929402 0.8297636976956754 0
outer loop
vertex 4826.77 9963.85 1284.27
vertex 4804.93 9978.54 884.26
vertex 4804.93 9978.54 1284.27
endloop
endfacet
facet normal 0.65850460786855 0.75257669470685 0
outer loop
vertex 4846.53 9946.56 1284.27
vertex 4846.53 9946.56 884.26
vertex 4826.77 9963.85 884.26
endloop
endfacet
facet normal 0.65850460786855 0.75257669470685 0
outer loop
vertex 4846.53 9946.56 1284.27
vertex 4826.77 9963.85 884.26
vertex 4826.77 9963.85 1284.27
endloop
endfacet
facet normal 0.7501258215615317 0.6612951321661434 0
outer loop
vertex 4863.95 9926.800000000001 1284.27
vertex 4863.95 9926.800000000001 884.26
vertex 4846.53 9946.56 884.26
endloop
endfacet
facet normal 0.7501258215615317 0.6612951321661434 0
outer loop
vertex 4863.95 9926.800000000001 1284.27
vertex 4846.53 9946.56 884.26
vertex 4846.53 9946.56 1284.27
endloop
endfacet
facet normal 0.8320502943378384 0.5547001962252371 0
outer loop
vertex 4878.51 9904.960000000001 1284.27
vertex 4878.51 9904.960000000001 884.26
vertex 4863.95 9926.800000000001 884.26
endloop
endfacet
facet normal 0.8320502943378384 0.5547001962252371 0
outer loop
vertex 4878.51 9904.960000000001 1284.27
vertex 4863.95 9926.800000000001 884.26
vertex 4863.95 9926.800000000001 1284.27
endloop
endfacet
facet normal 0.8983410760952012 0.43929865809050217 0
outer loop
vertex 4890.08 9881.300000000001 1284.27
vertex 4890.08 9881.300000000001 884.26
vertex 4878.51 9904.960000000001 884.26
endloop
endfacet
facet normal 0.8983410760952012 0.43929865809050217 0
outer loop
vertex 4890.08 9881.300000000001 1284.27
vertex 4878.51 9904.960000000001 884.26
vertex 4878.51 9904.960000000001 1284.27
endloop
endfacet
facet normal 0.9466820730206991 0.32216929186567694 0
outer loop
vertex 4898.53 9856.470000000001 1284.27
vertex 4898.53 9856.470000000001 884.26
vertex 4890.08 9881.300000000001 884.26
endloop
endfacet
facet normal 0.9466820730206991 0.32216929186567694 0
outer loop
vertex 4898.53 9856.470000000001 1284.27
vertex 4890.08 9881.300000000001 884.26
vertex 4890.08 9881.300000000001 1284.27
endloop
endfacet
facet normal -0.2586332242683174 0.9659755976755179 0
outer loop
vertex 5285.02 9959.95 1284.27
vertex 5285.02 9959.95 884.26
vertex 4898.53 9856.470000000001 884.26
endloop
endfacet
facet normal -0.2586332242683174 0.9659755976755179 0
outer loop
vertex 5285.02 9959.95 1284.27
vertex 4898.53 9856.470000000001 884.26
vertex 4898.53 9856.470000000001 1284.27
endloop
endfacet
facet normal -0.9466820730206955 -0.32216929186568727 0
outer loop
vertex 5259.67 10034.44 1284.27
vertex 5259.67 10034.44 884.26
vertex 5285.02 9959.95 884.26
endloop
endfacet
facet normal -0.9466820730206955 -0.32216929186568727 0
outer loop
vertex 5259.67 10034.44 1284.27
vertex 5285.02 9959.95 884.26
vertex 5285.02 9959.95 1284.27
endloop
endfacet
facet normal -0.8970596566202962 -0.44190946184063146 0
outer loop
vertex 5224.96 10104.9 1284.27
vertex 5224.96 10104.9 884.26
vertex 5259.67 10034.44 884.26
endloop
endfacet
facet normal -0.8970596566202962 -0.44190946184063146 0
outer loop
vertex 5224.96 10104.9 1284.27
vertex 5259.67 10034.44 884.26
vertex 5259.67 10034.44 1284.27
endloop
endfacet
facet normal -0.8315412787833251 -0.5554629615729499 0
outer loop
vertex 5181.28 10170.29 1284.27
vertex 5181.28 10170.29 884.26
vertex 5224.96 10104.9 884.26
endloop
endfacet
facet normal -0.8315412787833251 -0.5554629615729499 0
outer loop
vertex 5181.28 10170.29 1284.27
vertex 5224.96 10104.9 884.26
vertex 5224.96 10104.9 1284.27
endloop
endfacet
facet normal -0.7518597048572713 -0.6593231257979175 0
outer loop
vertex 5129.41 10229.44 1284.27
vertex 5129.41 10229.44 884.26
vertex 5181.28 10170.29 884.26
endloop
endfacet
facet normal -0.7518597048572713 -0.6593231257979175 0
outer loop
vertex 5129.41 10229.44 1284.27
vertex 5181.28 10170.29 884.26
vertex 5181.28 10170.29 1284.27
endloop
endfacet
facet normal -0.6583874855648908 -0.7526791606332279 0
outer loop
vertex 5070.26 10281.18 1284.27
vertex 5070.26 10281.18 884.26
vertex 5129.41 10229.44 884.26
endloop
endfacet
facet normal -0.6583874855648908 -0.7526791606332279 0
outer loop
vertex 5070.26 10281.18 1284.27
vertex 5129.41 10229.44 884.26
vertex 5129.41 10229.44 1284.27
endloop
endfacet
facet normal -0.5562273578888574 -0.8310301597029924 0
outer loop
vertex 5005 10324.86 1284.27
vertex 5005 10324.86 884.26
vertex 5070.26 10281.18 884.26
endloop
endfacet
facet normal -0.5562273578888574 -0.8310301597029924 0
outer loop
vertex 5005 10324.86 1284.27
vertex 5070.26 10281.18 884.26
vertex 5070.26 10281.18 1284.27
endloop
endfacet
facet normal -0.4425836112842964 -0.8967272422663152 0
outer loop
vertex 4934.41 10359.7 1284.27
vertex 4934.41 10359.7 884.26
vertex 5005 10324.86 884.26
endloop
endfacet
facet normal -0.4425836112842964 -0.8967272422663152 0
outer loop
vertex 4934.41 10359.7 1284.27
vertex 5005 10324.86 884.26
vertex 5005 10324.86 1284.27
endloop
endfacet
facet normal -0.32119029215049294 -0.9470146758251853 0
outer loop
vertex 4860.05 10384.92 1284.27
vertex 4860.05 10384.92 884.26
vertex 4934.41 10359.7 884.26
endloop
endfacet
facet normal -0.32119029215049294 -0.9470146758251853 0
outer loop
vertex 4860.05 10384.92 1284.27
vertex 4934.41 10359.7 884.26
vertex 4934.41 10359.7 1284.27
endloop
endfacet
facet normal 0 0 -1
outer loop
vertex 5043.4800000000005 10169.9 1284.27
vertex 4934.41 10359.7 1284.27
vertex 5005 10324.86 1284.27
endloop
endfacet
facet normal 0 0 -1
outer loop
vertex 5043.4800000000005 10169.9 1284.27
vertex 5005 10324.86 1284.27
vertex 5070.26 10281.18 1284.27
endloop
endfacet
facet normal 0 0 -1
outer loop
vertex 5043.4800000000005 10169.9 1284.27
vertex 5070.26 10281.18 1284.27
vertex 5129.41 10229.44 1284.27
endloop
endfacet
facet normal 0 0 -0.9999999999999999
outer loop
vertex 5043.4800000000005 10169.9 1284.27
vertex 5129.41 10229.44 1284.27
vertex 5181.28 10170.29 1284.27
endloop
endfacet
facet normal 0 0 -1
outer loop
vertex 5043.4800000000005 10169.9 1284.27
vertex 5181.28 10170.29 1284.27
vertex 5224.96 10104.9 1284.27
endloop
endfacet
facet normal 0 0 -1
outer loop
vertex 5043.4800000000005 10169.9 1284.27
vertex 5224.96 10104.9 1284.27
vertex 5259.67 10034.44 1284.27
endloop
endfacet
facet normal 0 0 -1
outer loop
vertex 5043.4800000000005 10169.9 1284.27
vertex 5259.67 10034.44 1284.27
vertex 5274.75 9990.11 1284.27
endloop
endfacet
facet normal 0 0 -1
outer loop
vertex 5043.4800000000005 10169.9 1284.27
vertex 5274.75 9990.11 1284.27
vertex 4781.400000000001 9990.11 1284.27
endloop
endfacet
facet normal 0 0 -0.9999999999999999
outer loop
vertex 5043.4800000000005 10169.9 1284.27
vertex 4781.400000000001 9990.11 1284.27
vertex 4756.4400000000005 9998.56 1284.27
endloop
endfacet
facet normal 0 0 -0.9999999999999999
outer loop
vertex 5043.4800000000005 10169.9 1284.27
vertex 4756.4400000000005 9998.56 1284.27
vertex 4860.05 10384.92 1284.27
endloop
endfacet
facet normal 0 0 -1
outer loop
vertex 5043.4800000000005 10169.9 1284.27
vertex 4860.05 10384.92 1284.27
vertex 4934.41 10359.7 1284.27
endloop
endfacet
facet normal 0 0 -0.9999999999999999
outer loop
vertex 5274.75 9990.11 1284.27
vertex 5278.650000000001 9978.54 1284.27
vertex 4804.93 9978.54 1284.27
endloop
endfacet
facet normal 0 0 -1
outer loop
vertex 5274.75 9990.11 1284.27
vertex 4804.93 9978.54 1284.27
vertex 4781.400000000001 9990.11 1284.27
endloop
endfacet
facet normal 0 0 -1
outer loop
vertex 5278.650000000001 9978.54 1284.27
vertex 5283.59 9963.85 1284.27
vertex 4826.77 9963.85 1284.27
endloop
endfacet
facet normal 0 0 -1
outer loop
vertex 5278.650000000001 9978.54 1284.27
vertex 4826.77 9963.85 1284.27
vertex 4804.93 9978.54 1284.27
endloop
endfacet
facet normal 0 0 -1
outer loop
vertex 5095.35 9956.18 1284.27
vertex 5283.59 9963.85 1284.27
vertex 5285.02 9959.95 1284.27
endloop
endfacet
facet normal 0 0 -1
outer loop
vertex 5095.35 9956.18 1284.27
vertex 5285.02 9959.95 1284.27
vertex 5234.84 9946.56 1284.27
endloop
endfacet
facet normal 0 0 -0.9999999999999999
outer loop
vertex 5095.35 9956.18 1284.27
vertex 5234.84 9946.56 1284.27
vertex 4846.53 9946.56 1284.27
endloop
endfacet
facet normal 0 0 -1
outer loop
vertex 5095.35 9956.18 1284.27
vertex 4846.53 9946.56 1284.27
vertex 4826.77 9963.85 1284.27
endloop
endfacet
facet normal 0 0 -1
outer loop
vertex 5095.35 9956.18 1284.27
vertex 4826.77 9963.85 1284.27
vertex 5283.59 9963.85 1284.27
endloop
endfacet
facet normal 0 0 -1
outer loop
vertex 5234.84 9946.56 1284.27
vertex 5161.13 9926.800000000001 1284.27
vertex 4863.95 9926.800000000001 1284.27
endloop
endfacet
facet normal 0 0 -1
outer loop
vertex 5234.84 9946.56 1284.27
vertex 4863.95 9926.800000000001 1284.27
vertex 4846.53 9946.56 1284.27
endloop
endfacet
facet normal 0 0 -1
outer loop
vertex 5161.13 9926.800000000001 1284.27
vertex 5079.49 9904.960000000001 1284.27
vertex 4878.51 9904.960000000001 1284.27
endloop
endfacet
facet normal 0 0 -1
outer loop
vertex 5161.13 9926.800000000001 1284.27
vertex 4878.51 9904.960000000001 1284.27
vertex 4863.95 9926.800000000001 1284.27
endloop
endfacet
facet normal 0 0 -1
outer loop
vertex 5079.49 9904.960000000001 1284.27
vertex 4991.4800000000005 9881.300000000001 1284.27
vertex 4890.08 9881.300000000001 1284.27
endloop
endfacet
facet normal 0 0 -0.9999999999999999
outer loop
vertex 5079.49 9904.960000000001 1284.27
vertex 4890.08 9881.300000000001 1284.27
vertex 4878.51 9904.960000000001 1284.27
endloop
endfacet
facet normal 0 0 -1
outer loop
vertex 4991.4800000000005 9881.300000000001 1284.27
vertex 4898.53 9856.470000000001 1284.27
vertex 4890.08 9881.300000000001 1284.27
endloop
endfacet
facet normal 0 0 0.9999999999999999
outer loop
vertex 5043.4800000000005 10169.9 884.26
vertex 4756.4400000000005 9998.56 884.26
vertex 4781.400000000001 9990.11 884.26
endloop
endfacet
facet normal 0 0 1
outer loop
vertex 5043.4800000000005 10169.9 884.26
vertex 4781.400000000001 9990.11 884.26
vertex 5274.75 9990.11 884.26
endloop
endfacet
facet normal 0 0 1
outer loop
vertex 5043.4800000000005 10169.9 884.26
vertex 5274.75 9990.11 884.26
vertex 5259.67 10034.44 884.26
endloop
endfacet
facet normal 0 0 1
outer loop
vertex 5043.4800000000005 10169.9 884.26
vertex 5259.67 10034.44 884.26
vertex 5224.96 10104.9 884.26
endloop
endfacet
facet normal 0 0 1
outer loop
vertex 5043.4800000000005 10169.9 884.26
vertex 5224.96 10104.9 884.26
vertex 5181.28 10170.29 884.26
endloop
endfacet
facet normal 0 0 0.9999999999999999
outer loop
vertex 5043.4800000000005 10169.9 884.26
vertex 5181.28 10170.29 884.26
vertex 5129.41 10229.44 884.26
endloop
endfacet
facet normal 0 0 1
outer loop
vertex 5043.4800000000005 10169.9 884.26
vertex 5129.41 10229.44 884.26
vertex 5070.26 10281.18 884.26
endloop
endfacet
facet normal 0 0 1
outer loop
vertex 5043.4800000000005 10169.9 884.26
vertex 5070.26 10281.18 884.26
vertex 5005 10324.86 884.26
endloop
endfacet
facet normal 0 0 1
outer loop
vertex 5043.4800000000005 10169.9 884.26
vertex 5005 10324.86 884.26
vertex 4934.41 10359.7 884.26
endloop
endfacet
facet normal 0 0 1
outer loop
vertex 5043.4800000000005 10169.9 884.26
vertex 4934.41 10359.7 884.26
vertex 4860.05 10384.92 884.26
endloop
endfacet
facet normal 0 0 0.9999999999999999
outer loop
vertex 5043.4800000000005 10169.9 884.26
vertex 4860.05 10384.92 884.26
vertex 4756.4400000000005 9998.56 884.26
endloop
endfacet
facet normal 0 0 0.9999999999999999
outer loop
vertex 4781.400000000001 9990.11 884.26
vertex 4804.93 9978.54 884.26
vertex 5278.650000000001 9978.54 884.26
endloop
endfacet
facet normal 0 0 1
outer loop
vertex 4781.400000000001 9990.11 884.26
vertex 5278.650000000001 9978.54 884.26
vertex 5274.75 9990.11 884.26
endloop
endfacet
facet normal 0 0 1
outer loop
vertex 4804.93 9978.54 884.26
vertex 4826.77 9963.85 884.26
vertex 5283.59 9963.85 884.26
endloop
endfacet
facet normal 0 0 1
outer loop
vertex 4804.93 9978.54 884.26
vertex 5283.59 9963.85 884.26
vertex 5278.650000000001 9978.54 884.26
endloop
endfacet
facet normal 0 0 1
outer loop
vertex 5095.35 9956.18 884.26
vertex 4826.77 9963.85 884.26
vertex 4846.53 9946.56 884.26
endloop
endfacet
facet normal 0 0 0.9999999999999999
outer loop
vertex 5095.35 9956.18 884.26
vertex 4846.53 9946.56 884.26
vertex 5234.84 9946.56 884.26
endloop
endfacet
facet normal 0 0 1
outer loop
vertex 5095.35 9956.18 884.26
vertex 5234.84 9946.56 884.26
vertex 5285.02 9959.95 884.26
endloop
endfacet
facet normal 0 0 1
outer loop
vertex 5095.35 9956.18 884.26
vertex 5285.02 9959.95 884.26
vertex 5283.59 9963.85 884.26
endloop
endfacet
facet normal 0 0 1
outer loop
vertex 5095.35 9956.18 884.26
vertex 5283.59 9963.85 884.26
vertex 4826.77 9963.85 884.26
endloop
endfacet
facet normal 0 0 1
outer loop
vertex 4846.53 9946.56 884.26
vertex 4863.95 9926.800000000001 884.26
vertex 5161.13 9926.800000000001 884.26
endloop
endfacet
facet normal 0 0 1
outer loop
vertex 4846.53 9946.56 884.26
vertex 5161.13 9926.800000000001 884.26
vertex 5234.84 9946.56 884.26
endloop
endfacet
facet normal 0 0 1
outer loop
vertex 4863.95 9926.800000000001 884.26
vertex 4878.51 9904.960000000001 884.26
vertex 5079.49 9904.960000000001 884.26
endloop
endfacet
facet normal 0 0 1
outer loop
vertex 4863.95 9926.800000000001 884.26
vertex 5079.49 9904.960000000001 884.26
vertex 5161.13 9926.800000000001 884.26
endloop
endfacet
facet normal 0 0 1
outer loop
vertex 4878.51 9904.960000000001 884.26
vertex 4890.08 9881.300000000001 884.26
vertex 4991.4800000000005 9881.300000000001 884.26
endloop
endfacet
facet normal 0 0 0.9999999999999999
outer loop
vertex 4878.51 9904.960000000001 884.26
vertex 4991.4800000000005 9881.300000000001 884.26
vertex 5079.49 9904.960000000001 884.26
endloop
endfacet
facet normal 0 0 1
outer loop
vertex 4890.08 9881.300000000001 884.26
vertex 4898.53 9856.470000000001 884.26
vertex 4991.4800000000005 9881.300000000001 884.26
endloop
endfacet
facet normal -0.7069442465920934 0.7072692784296073 0
outer loop
vertex 6147.18 9135.62 599.95
vertex 6147.18 9135.62 199.94
vertex 5864.3 8852.87 199.94
endloop
endfacet
facet normal -0.7069442465920934 0.7072692784296073 0
outer loop
vertex 6147.18 9135.62 599.95
vertex 5864.3 8852.87 199.94
vertex 5864.3 8852.87 599.95
endloop
endfacet
facet normal -0.6836114985796264 -0.729846092686477 0
outer loop
vertex 6118.45 9162.53 599.95
vertex 6118.45 9162.53 199.94
vertex 6147.18 9135.62 199.94
endloop
endfacet
facet normal -0.6836114985796264 -0.729846092686477 0
outer loop
vertex 6118.45 9162.53 599.95
vertex 6147.18 9135.62 199.94
vertex 6147.18 9135.62 599.95
endloop
endfacet
facet normal -0.63431661167802 -0.7730733704825927 0
outer loop
vertex 6088.030000000001 9187.49 599.95
vertex 6088.030000000001 9187.49 199.94
vertex 6118.45 9162.53 199.94
endloop
endfacet
facet normal -0.63431661167802 -0.7730733704825927 0
outer loop
vertex 6088.030000000001 9187.49 599.95
vertex 6118.45 9162.53 199.94
vertex 6118.45 9162.53 599.95
endloop
endfacet
facet normal -0.5834311131793428 -0.8121626291416719 0
outer loop
vertex 6056.18 9210.37 599.95
vertex 6056.18 9210.37 199.94
vertex 6088.030000000001 9187.49 199.94
endloop
endfacet
facet normal -0.5834311131793428 -0.8121626291416719 0
outer loop
vertex 6056.18 9210.37 599.95
vertex 6088.030000000001 9187.49 199.94
vertex 6088.030000000001 9187.49 599.95
endloop
endfacet
facet normal -0.528513539201258 -0.8489248723420466 0
outer loop
vertex 6022.77 9231.17 599.95
vertex 6022.77 9231.17 199.94
vertex 6056.18 9210.37 199.94
endloop
endfacet
facet normal -0.528513539201258 -0.8489248723420466 0
outer loop
vertex 6022.77 9231.17 599.95
vertex 6056.18 9210.37 199.94
vertex 6056.18 9210.37 599.95
endloop
endfacet
facet normal -0.47212978955456 -0.8815290476298367 0
outer loop
vertex 5988.06 9249.76 599.95
vertex 5988.06 9249.76 199.94
vertex 6022.77 9231.17 199.94
endloop
endfacet
facet normal -0.47212978955456 -0.8815290476298367 0
outer loop
vertex 5988.06 9249.76 599.95
vertex 6022.77 9231.17 199.94
vertex 6022.77 9231.17 599.95
endloop
endfacet
facet normal -0.4098149214410509 -0.9121686961106839 0
outer loop
vertex 5952.18 9265.880000000001 599.95
vertex 5952.18 9265.880000000001 199.94
vertex 5988.06 9249.76 199.94
endloop
endfacet
facet normal -0.4098149214410509 -0.9121686961106839 0
outer loop
vertex 5952.18 9265.880000000001 599.95
vertex 5988.06 9249.76 199.94
vertex 5988.06 9249.76 599.95
endloop
endfacet
facet normal -0.35365765913888236 -0.9353749302458378 0
outer loop
vertex 5915.39 9279.79 599.95
vertex 5915.39 9279.79 199.94
vertex 5952.18 9265.880000000001 199.94
endloop
endfacet
facet normal -0.35365765913888236 -0.9353749302458378 0
outer loop
vertex 5915.39 9279.79 599.95
vertex 5952.18 9265.880000000001 199.94
vertex 5952.18 9265.880000000001 599.95
endloop
endfacet
facet normal -0.2912933318541519 -0.9566337830211238 0
outer loop
vertex 5877.820000000001 9291.23 599.95
vertex 5877.820000000001 9291.23 199.94
vertex 5915.39 9279.79 199.94
endloop
endfacet
facet normal -0.2912933318541519 -0.9566337830211238 0
outer loop
vertex 5877.820000000001 9291.23 599.95
vertex 5915.39 9279.79 199.94
vertex 5915.39 9279.79 599.95
endloop
endfacet
facet normal 0.9658725886230652 -0.2590176491024865 0
outer loop
vertex 5774.21 8904.87 599.95
vertex 5774.21 8904.87 199.94
vertex 5877.820000000001 9291.23 199.94
endloop
endfacet
facet normal 0.9658725886230652 -0.2590176491024865 0
outer loop
vertex 5774.21 8904.87 599.95
vertex 5877.820000000001 9291.23 199.94
vertex 5877.820000000001 9291.23 599.95
endloop
endfacet
facet normal 0.29546972292203005 0.955352104114697 0
outer loop
vertex 5786.820000000001 8900.970000000001 599.95
vertex 5786.820000000001 8900.970000000001 199.94
vertex 5774.21 8904.87 199.94
endloop
endfacet
facet normal 0.29546972292203005 0.955352104114697 0
outer loop
vertex 5786.820000000001 8900.970000000001 599.95
vertex 5774.21 8904.87 199.94
vertex 5774.21 8904.87 599.95
endloop
endfacet
facet normal 0.34570535882744285 0.9383431168170784 0
outer loop
vertex 5799.17 8896.42 599.95
vertex 5799.17 8896.42 199.94
vertex 5786.820000000001 8900.970000000001 199.94
endloop
endfacet
facet normal 0.34570535882744285 0.9383431168170784 0
outer loop
vertex 5799.17 8896.42 599.95
vertex 5786.820000000001 8900.970000000001 199.94
vertex 5786.820000000001 8900.970000000001 599.95
endloop
endfacet
facet normal 0.41529234958958994 0.9096880038630595 0
outer loop
vertex 5811.13 8890.960000000001 599.95
vertex 5811.13 8890.960000000001 199.94
vertex 5799.17 8896.42 199.94
endloop
endfacet
facet normal 0.41529234958958994 0.9096880038630595 0
outer loop
vertex 5811.13 8890.960000000001 599.95
vertex 5799.17 8896.42 199.94
vertex 5799.17 8896.42 599.95
endloop
endfacet
facet normal 0.47468944937677926 0.8801533540527868 0
outer loop
vertex 5822.7 8884.720000000001 599.95
vertex 5822.7 8884.720000000001 199.94
vertex 5811.13 8890.960000000001 199.94
endloop
endfacet
facet normal 0.47468944937677926 0.8801533540527868 0
outer loop
vertex 5822.7 8884.720000000001 599.95
vertex 5811.13 8890.960000000001 199.94
vertex 5811.13 8890.960000000001 599.95
endloop
endfacet
facet normal 0.5246496229386283 0.8513182560889643 0
outer loop
vertex 5833.88 8877.83 599.95
vertex 5833.88 8877.83 199.94
vertex 5822.7 8884.720000000001 199.94
endloop
endfacet
facet normal 0.5246496229386283 0.8513182560889643 0
outer loop
vertex 5833.88 8877.83 599.95
vertex 5822.7 8884.720000000001 199.94
vertex 5822.7 8884.720000000001 599.95
endloop
endfacet
facet normal 0.5840439198750207 0.8117220581313658 0
outer loop
vertex 5844.54 8870.16 599.95
vertex 5844.54 8870.16 199.94
vertex 5833.88 8877.83 199.94
endloop
endfacet
facet normal 0.5840439198750207 0.8117220581313658 0
outer loop
vertex 5844.54 8870.16 599.95
vertex 5833.88 8877.83 199.94
vertex 5833.88 8877.83 599.95
endloop
endfacet
facet normal 0.6294811301221049 0.7770157699945334 0
outer loop
vertex 5854.81 8861.84 599.95
vertex 5854.81 8861.84 199.94
vertex 5844.54 8870.16 199.94
endloop
endfacet
facet normal 0.6294811301221049 0.7770157699945334 0
outer loop
vertex 5854.81 8861.84 599.95
vertex 5844.54 8870.16 199.94
vertex 5844.54 8870.16 599.95
endloop
endfacet
facet normal 0.6869158027872883 0.726737008746008 0
outer loop
vertex 5864.3 8852.87 599.95
vertex 5864.3 8852.87 199.94
vertex 5854.81 8861.84 199.94
endloop
endfacet
facet normal 0.6869158027872883 0.726737008746008 0
outer loop
vertex 5864.3 8852.87 599.95
vertex 5854.81 8861.84 199.94
vertex 5854.81 8861.84 599.95
endloop
endfacet
endsolid JSCAD
