solid JSCAD
facet normal -1 0 0
outer loop
vertex 0 0 0
vertex 0 0 3999.9700000000003
vertex 0 15000.050000000001 3999.9700000000003
endloop
endfacet
facet normal -1 0 0
outer loop
vertex 0 0 0
vertex 0 15000.050000000001 3999.9700000000003
vertex 0 15000.050000000001 0
endloop
endfacet
facet normal 1 0 0
outer loop
vertex 19999.98 0 0
vertex 19999.98 15000.050000000001 0
vertex 19999.98 15000.050000000001 3999.9700000000003
endloop
endfacet
facet normal 1 0 0
outer loop
vertex 19999.98 0 0
vertex 19999.98 15000.050000000001 3999.9700000000003
vertex 19999.98 0 3999.9700000000003
endloop
endfacet
facet normal 0 -1 0
outer loop
vertex 0 0 0
vertex 19999.98 0 0
vertex 19999.98 0 3999.9700000000003
endloop
endfacet
facet normal 0 -1 0
outer loop
vertex 0 0 0
vertex 19999.98 0 3999.9700000000003
vertex 0 0 3999.9700000000003
endloop
endfacet
facet normal 0 1 0
outer loop
vertex 0 15000.050000000001 0
vertex 0 15000.050000000001 3999.9700000000003
vertex 19999.98 15000.050000000001 3999.9700000000003
endloop
endfacet
facet normal 0 1 0
outer loop
vertex 0 15000.050000000001 0
vertex 19999.98 15000.050000000001 3999.9700000000003
vertex 19999.98 15000.050000000001 0
endloop
endfacet
facet normal 0 0 -1
outer loop
vertex 0 0 0
vertex 0 15000.050000000001 0
vertex 19999.98 15000.050000000001 0
endloop
endfacet
facet normal 0 0 -1
outer loop
vertex 0 0 0
vertex 19999.98 15000.050000000001 0
vertex 19999.98 0 0
endloop
endfacet
facet normal 0 0 1
outer loop
vertex 0 0 3999.9700000000003
vertex 19999.98 0 3999.9700000000003
vertex 19999.98 15000.050000000001 3999.9700000000003
endloop
endfacet
facet normal 0 0 1
outer loop
vertex 0 0 3999.9700000000003
vertex 19999.98 15000.050000000001 3999.9700000000003
vertex 0 15000.050000000001 3999.9700000000003
endloop
endfacet
facet normal -1 0 0
outer loop
vertex 9999.99 7700.030000000001 599.95
vertex 9999.99 7700.030000000001 199.94
vertex 9999.99 7300.02 199.94
endloop
endfacet
facet normal -1 0 0
outer loop
vertex 9999.99 7700.030000000001 599.95
vertex 9999.99 7300.02 199.94
vertex 9999.99 7300.02 599.95
endloop
endfacet
facet normal -1 0 0
outer loop
vertex 9999.99 10200.06 599.95
vertex 9999.99 10200.06 199.94
vertex 9999.99 9800.050000000001 199.94
endloop
endfacet
facet normal -1 0 0
outer loop
vertex 9999.99 10200.06 599.95
vertex 9999.99 9800.050000000001 199.94
vertex 9999.99 9800.050000000001 599.95
endloop
endfacet
facet normal 0 -1 0
outer loop
vertex 9999.99 10200.06 599.95
vertex 7499.96 10200.06 599.95
vertex 7499.96 10200.06 199.94
endloop
endfacet
facet normal 0 -1 0
outer loop
vertex 9999.99 10200.06 599.95
vertex 7499.96 10200.06 199.94
vertex 9999.99 10200.06 199.94
endloop
endfacet
facet normal 0 0 0.9999999999999999
outer loop
vertex 7798.83 10054.98 199.94
vertex 7499.96 10200.06 199.94
vertex 7460.96 10196.16 199.94
endloop
endfacet
facet normal 0 0 1
outer loop
vertex 7798.83 10054.98 199.94
vertex 7460.96 10196.16 199.94
vertex 7423.52 10184.720000000001 199.94
endloop
endfacet
facet normal 0 0 1
outer loop
vertex 7798.83 10054.98 199.94
vertex 7423.52 10184.720000000001 199.94
vertex 7388.9400000000005 10166.26 199.94
endloop
endfacet
facet normal 0 0 0.9999999999999999
outer loop
vertex 7798.83 10054.98 199.94
vertex 7388.9400000000005 10166.26 199.94
vertex 7358.52 10141.43 199.94
endloop
endfacet
facet normal 0 0 1
outer loop
vertex 7798.83 10054.98 199.94
vertex 7358.52 10141.43 199.94
vertex 7333.6900000000005 10111.140000000001 199.94
endloop
endfacet
facet normal 0 0 1
outer loop
vertex 7798.83 10054.98 199.94
vertex 7333.6900000000005 10111.140000000001 199.94
vertex 7315.2300000000005 10076.56 199.94
endloop
endfacet
facet normal 0 0 1
outer loop
vertex 7798.83 10054.98 199.94
vertex 7315.2300000000005 10076.56 199.94
vertex 7303.79 10038.99 199.94
endloop
endfacet
facet normal 0 0 1
outer loop
vertex 7798.83 10054.98 199.94
vertex 7303.79 10038.99 199.94
vertex 7300.02 9999.99 199.94
endloop
endfacet
facet normal 0 0 0.9999999999999999
outer loop
vertex 7798.83 10054.98 199.94
vertex 7300.02 9999.99 199.94
vertex 7300.02 9800.050000000001 199.94
endloop
endfacet
facet normal 0 0 1
outer loop
vertex 7798.83 10054.98 199.94
vertex 7300.02 9800.050000000001 199.94
vertex 7700.030000000001 9800.050000000001 199.94
endloop
endfacet
facet normal 0 0 1
outer loop
vertex 7798.83 10054.98 199.94
vertex 7700.030000000001 9800.050000000001 199.94
vertex 9999.99 9800.050000000001 199.94
endloop
endfacet
facet normal 0 0 0.9999999999999999
outer loop
vertex 7798.83 10054.98 199.94
vertex 9999.99 9800.050000000001 199.94
vertex 9999.99 10200.06 199.94
endloop
endfacet
facet normal 0 0 1
outer loop
vertex 7798.83 10054.98 199.94
vertex 9999.99 10200.06 199.94
vertex 7499.96 10200.06 199.94
endloop
endfacet
facet normal 0 0 1
outer loop
vertex 7300.02 9800.050000000001 199.94
vertex 7300.02 7700.030000000001 199.94
vertex 7700.030000000001 7700.030000000001 199.94
endloop
endfacet
facet normal 0 0 1
outer loop
vertex 7300.02 9800.050000000001 199.94
vertex 7700.030000000001 7700.030000000001 199.94
vertex 7700.030000000001 9800.050000000001 199.94
endloop
endfacet
facet normal 0 0 1
outer loop
vertex 7798.83 7444.97 199.94
vertex 7700.030000000001 7700.030000000001 199.94
vertex 7300.02 7700.030000000001 199.94
endloop
endfacet
facet normal 0 0 1
outer loop
vertex 7798.83 7444.97 199.94
vertex 7300.02 7700.030000000001 199.94
vertex 7300.02 7499.96 199.94
endloop
endfacet
facet normal 0 0 1
outer loop
vertex 7798.83 7444.97 199.94
vertex 7300.02 7499.96 199.94
vertex 7303.79 7460.96 199.94
endloop
endfacet
facet normal 0 0 1
outer loop
vertex 7798.83 7444.97 199.94
vertex 7303.79 7460.96 199.94
vertex 7315.2300000000005 7423.52 199.94
endloop
endfacet
facet normal 0 0 1
outer loop
vertex 7798.83 7444.97 199.94
vertex 7315.2300000000005 7423.52 199.94
vertex 7333.6900000000005 7388.9400000000005 199.94
endloop
endfacet
facet normal 0 0 1
outer loop
vertex 7798.83 7444.97 199.94
vertex 7333.6900000000005 7388.9400000000005 199.94
vertex 7358.52 7358.52 199.94
endloop
endfacet
facet normal 0 0 1
outer loop
vertex 7798.83 7444.97 199.94
vertex 7358.52 7358.52 199.94
vertex 7388.9400000000005 7333.6900000000005 199.94
endloop
endfacet
facet normal 0 0 1
outer loop
vertex 7798.83 7444.97 199.94
vertex 7388.9400000000005 7333.6900000000005 199.94
vertex 7423.52 7315.2300000000005 199.94
endloop
endfacet
facet normal 0 0 1
outer loop
vertex 7798.83 7444.97 199.94
vertex 7423.52 7315.2300000000005 199.94
vertex 7460.96 7303.79 199.94
endloop
endfacet
facet normal 0 0 1
outer loop
vertex 7798.83 7444.97 199.94
vertex 7460.96 7303.79 199.94
vertex 7499.96 7300.02 199.94
endloop
endfacet
facet normal 0 0 1
outer loop
vertex 7798.83 7444.97 199.94
vertex 7499.96 7300.02 199.94
vertex 9999.99 7300.02 199.94
endloop
endfacet
facet normal 0 0 1
outer loop
vertex 7798.83 7444.97 199.94
vertex 9999.99 7300.02 199.94
vertex 9999.99 7700.030000000001 199.94
endloop
endfacet
facet normal 0 0 1
outer loop
vertex 7798.83 7444.97 199.94
vertex 9999.99 7700.030000000001 199.94
vertex 7700.030000000001 7700.030000000001 199.94
endloop
endfacet
facet normal 0 0 -0.9999999999999999
outer loop
vertex 7798.83 10054.98 599.95
vertex 9999.99 10200.06 599.95
vertex 9999.99 9800.050000000001 599.95
endloop
endfacet
facet normal 0 0 -1
outer loop
vertex 7798.83 10054.98 599.95
vertex 9999.99 9800.050000000001 599.95
vertex 7700.030000000001 9800.050000000001 599.95
endloop
endfacet
facet normal 0 0 -1
outer loop
vertex 7798.83 10054.98 599.95
vertex 7700.030000000001 9800.050000000001 599.95
vertex 7300.02 9800.050000000001 599.95
endloop
endfacet
facet normal 0 0 -0.9999999999999999
outer loop
vertex 7798.83 10054.98 599.95
vertex 7300.02 9800.050000000001 599.95
vertex 7300.02 9999.99 599.95
endloop
endfacet
facet normal 0 0 -1
outer loop
vertex 7798.83 10054.98 599.95
vertex 7300.02 9999.99 599.95
vertex 7303.79 10038.99 599.95
endloop
endfacet
facet normal 0 0 -1
outer loop
vertex 7798.83 10054.98 599.95
vertex 7303.79 10038.99 599.95
vertex 7315.2300000000005 10076.56 599.95
endloop
endfacet
facet normal 0 0 -1
outer loop
vertex 7798.83 10054.98 599.95
vertex 7315.2300000000005 10076.56 599.95
vertex 7333.6900000000005 10111.140000000001 599.95
endloop
endfacet
facet normal 0 0 -1
outer loop
vertex 7798.83 10054.98 599.95
vertex 7333.6900000000005 10111.140000000001 599.95
vertex 7358.52 10141.43 599.95
endloop
endfacet
facet normal 0 0 -0.9999999999999999
outer loop
vertex 7798.83 10054.98 599.95
vertex 7358.52 10141.43 599.95
vertex 7388.9400000000005 10166.26 599.95
endloop
endfacet
facet normal 0 0 -1
outer loop
vertex 7798.83 10054.98 599.95
vertex 7388.9400000000005 10166.26 599.95
vertex 7423.52 10184.720000000001 599.95
endloop
endfacet
facet normal 0 0 -1
outer loop
vertex 7798.83 10054.98 599.95
vertex 7423.52 10184.720000000001 599.95
vertex 7460.96 10196.16 599.95
endloop
endfacet
facet normal 0 0 -0.9999999999999999
outer loop
vertex 7798.83 10054.98 599.95
vertex 7460.96 10196.16 599.95
vertex 7499.96 10200.06 599.95
endloop
endfacet
facet normal 0 0 -1
outer loop
vertex 7798.83 10054.98 599.95
vertex 7499.96 10200.06 599.95
vertex 9999.99 10200.06 599.95
endloop
endfacet
facet normal 0 0 -1
outer loop
vertex 7700.030000000001 9800.050000000001 599.95
vertex 7700.030000000001 7700.030000000001 599.95
vertex 7300.02 7700.030000000001 599.95
endloop
endfacet
facet normal 0 0 -1
outer loop
vertex 7700.030000000001 9800.050000000001 599.95
vertex 7300.02 7700.030000000001 599.95
vertex 7300.02 9800.050000000001 599.95
endloop
endfacet
facet normal 0 0 -1
outer loop
vertex 7798.83 7444.97 599.95
vertex 7700.030000000001 7700.030000000001 599.95
vertex 9999.99 7700.030000000001 599.95
endloop
endfacet
facet normal 0 0 -1
outer loop
vertex 7798.83 7444.97 599.95
vertex 9999.99 7700.030000000001 599.95
vertex 9999.99 7300.02 599.95
endloop
endfacet
facet normal 0 0 -1
outer loop
vertex 7798.83 7444.97 599.95
vertex 9999.99 7300.02 599.95
vertex 7499.96 7300.02 599.95
endloop
endfacet
facet normal 0 0 -1
outer loop
vertex 7798.83 7444.97 599.95
vertex 7499.96 7300.02 599.95
vertex 7460.96 7303.79 599.95
endloop
endfacet
facet normal 0 0 -1
outer loop
vertex 7798.83 7444.97 599.95
vertex 7460.96 7303.79 599.95
vertex 7423.52 7315.2300000000005 599.95
endloop
endfacet
facet normal 0 0 -1
outer loop
vertex 7798.83 7444.97 599.95
vertex 7423.52 7315.2300000000005 599.95
vertex 7388.9400000000005 7333.6900000000005 599.95
endloop
endfacet
facet normal 0 0 -1
outer loop
vertex 7798.83 7444.97 599.95
vertex 7388.9400000000005 7333.6900000000005 599.95
vertex 7358.52 7358.52 599.95
endloop
endfacet
facet normal 0 0 -1
outer loop
vertex 7798.83 7444.97 599.95
vertex 7358.52 7358.52 599.95
vertex 7333.6900000000005 7388.9400000000005 599.95
endloop
endfacet
facet normal 0 0 -1
outer loop
vertex 7798.83 7444.97 599.95
vertex 7333.6900000000005 7388.9400000000005 599.95
vertex 7315.2300000000005 7423.52 599.95
endloop
endfacet
facet normal 0 0 -1
outer loop
vertex 7798.83 7444.97 599.95
vertex 7315.2300000000005 7423.52 599.95
vertex 7303.79 7460.96 599.95
endloop
endfacet
facet normal 0 0 -1
outer loop
vertex 7798.83 7444.97 599.95
vertex 7303.79 7460.96 599.95
vertex 7300.02 7499.96 599.95
endloop
endfacet
facet normal 0 0 -1
outer loop
vertex 7798.83 7444.97 599.95
vertex 7300.02 7499.96 599.95
vertex 7300.02 7700.030000000001 599.95
endloop
endfacet
facet normal 0 0 -1
outer loop
vertex 7798.83 7444.97 599.95
vertex 7300.02 7700.030000000001 599.95
vertex 7700.030000000001 7700.030000000001 599.95
endloop
endfacet
facet normal 0.09950371902098973 -0.99503719020999 0
outer loop
vertex 7499.96 10200.06 199.94
vertex 7499.96 10200.06 599.95
vertex 7460.96 10196.16 599.95
endloop
endfacet
facet normal 0.09950371902098973 -0.99503719020999 0
outer loop
vertex 7499.96 10200.06 199.94
vertex 7460.96 10196.16 599.95
vertex 7460.96 10196.16 199.94
endloop
endfacet
facet normal 0.29221853559899247 -0.9563515710513474 0
outer loop
vertex 7460.96 10196.16 199.94
vertex 7460.96 10196.16 599.95
vertex 7423.52 10184.720000000001 599.95
endloop
endfacet
facet normal 0.29221853559899247 -0.9563515710513474 0
outer loop
vertex 7460.96 10196.16 199.94
vertex 7423.52 10184.720000000001 599.95
vertex 7423.52 10184.720000000001 199.94
endloop
endfacet
facet normal 0.4709324651302061 -0.8821692656663953 0
outer loop
vertex 7423.52 10184.720000000001 199.94
vertex 7423.52 10184.720000000001 599.95
vertex 7388.9400000000005 10166.26 599.95
endloop
endfacet
facet normal 0.4709324651302061 -0.8821692656663953 0
outer loop
vertex 7423.52 10184.720000000001 199.94
vertex 7388.9400000000005 10166.26 599.95
vertex 7388.9400000000005 10166.26 199.94
endloop
endfacet
facet normal 0.6323359436049082 -0.7746942974007817 0
outer loop
vertex 7388.9400000000005 10166.26 199.94
vertex 7388.9400000000005 10166.26 599.95
vertex 7358.52 10141.43 599.95
endloop
endfacet
facet normal 0.6323359436049082 -0.7746942974007817 0
outer loop
vertex 7388.9400000000005 10166.26 199.94
vertex 7358.52 10141.43 599.95
vertex 7358.52 10141.43 199.94
endloop
endfacet
facet normal 0.7733654271742612 -0.6339605003875025 0
outer loop
vertex 7358.52 10141.43 199.94
vertex 7358.52 10141.43 599.95
vertex 7333.6900000000005 10111.140000000001 599.95
endloop
endfacet
facet normal 0.7733654271742612 -0.6339605003875025 0
outer loop
vertex 7358.52 10141.43 199.94
vertex 7333.6900000000005 10111.140000000001 599.95
vertex 7333.6900000000005 10111.140000000001 199.94
endloop
endfacet
facet normal 0.8821692656664153 -0.4709324651301688 0
outer loop
vertex 7333.6900000000005 10111.140000000001 199.94
vertex 7333.6900000000005 10111.140000000001 599.95
vertex 7315.2300000000005 10076.56 599.95
endloop
endfacet
facet normal 0.8821692656664153 -0.4709324651301688 0
outer loop
vertex 7333.6900000000005 10111.140000000001 199.94
vertex 7315.2300000000005 10076.56 599.95
vertex 7315.2300000000005 10076.56 199.94
endloop
endfacet
facet normal 0.956633783021111 -0.2912933318541943 0
outer loop
vertex 7315.2300000000005 10076.56 199.94
vertex 7315.2300000000005 10076.56 599.95
vertex 7303.79 10038.99 599.95
endloop
endfacet
facet normal 0.956633783021111 -0.2912933318541943 0
outer loop
vertex 7315.2300000000005 10076.56 199.94
vertex 7303.79 10038.99 599.95
vertex 7303.79 10038.99 199.94
endloop
endfacet
facet normal 0.9953602693534094 -0.09621815937081751 0
outer loop
vertex 7303.79 10038.99 199.94
vertex 7303.79 10038.99 599.95
vertex 7300.02 9999.99 599.95
endloop
endfacet
facet normal 0.9953602693534094 -0.09621815937081751 0
outer loop
vertex 7303.79 10038.99 199.94
vertex 7300.02 9999.99 599.95
vertex 7300.02 9999.99 199.94
endloop
endfacet
facet normal 1 0 0
outer loop
vertex 7300.02 8750.04 400.01
vertex 7300.02 9999.99 599.95
vertex 7300.02 9800.050000000001 599.95
endloop
endfacet
facet normal 1 0 0
outer loop
vertex 7300.02 8750.04 400.01
vertex 7300.02 9800.050000000001 599.95
vertex 7300.02 7700.030000000001 599.95
endloop
endfacet
facet normal 1 0 0
outer loop
vertex 7300.02 8750.04 400.01
vertex 7300.02 7700.030000000001 599.95
vertex 7300.02 7499.96 599.95
endloop
endfacet
facet normal 1 0 0
outer loop
vertex 7300.02 8750.04 400.01
vertex 7300.02 7499.96 599.95
vertex 7300.02 7499.96 199.94
endloop
endfacet
facet normal 1 0 0
outer loop
vertex 7300.02 8750.04 400.01
vertex 7300.02 7499.96 199.94
vertex 7300.02 7700.030000000001 199.94
endloop
endfacet
facet normal 1 0 0
outer loop
vertex 7300.02 8750.04 400.01
vertex 7300.02 7700.030000000001 199.94
vertex 7300.02 9800.050000000001 199.94
endloop
endfacet
facet normal 1 0 0
outer loop
vertex 7300.02 8750.04 400.01
vertex 7300.02 9800.050000000001 199.94
vertex 7300.02 9999.99 199.94
endloop
endfacet
facet normal 0.9999999999999999 0 0
outer loop
vertex 7300.02 8750.04 400.01
vertex 7300.02 9999.99 199.94
vertex 7300.02 9999.99 599.95
endloop
endfacet
facet normal 0 1 0
outer loop
vertex 7700.030000000001 9800.050000000001 199.94
vertex 7700.030000000001 9800.050000000001 599.95
vertex 9999.99 9800.050000000001 599.95
endloop
endfacet
facet normal 0 1 0
outer loop
vertex 7700.030000000001 9800.050000000001 199.94
vertex 9999.99 9800.050000000001 599.95
vertex 9999.99 9800.050000000001 199.94
endloop
endfacet
facet normal 0.9953602693534094 0.09621815937081751 0
outer loop
vertex 7300.02 7499.96 199.94
vertex 7300.02 7499.96 599.95
vertex 7303.79 7460.96 599.95
endloop
endfacet
facet normal 0.9953602693534094 0.09621815937081751 0
outer loop
vertex 7300.02 7499.96 199.94
vertex 7303.79 7460.96 599.95
vertex 7303.79 7460.96 199.94
endloop
endfacet
facet normal 0.9563515710513344 0.29221853559903493 0
outer loop
vertex 7303.79 7460.96 199.94
vertex 7303.79 7460.96 599.95
vertex 7315.2300000000005 7423.52 599.95
endloop
endfacet
facet normal 0.9563515710513344 0.29221853559903493 0
outer loop
vertex 7303.79 7460.96 199.94
vertex 7315.2300000000005 7423.52 599.95
vertex 7315.2300000000005 7423.52 199.94
endloop
endfacet
facet normal 0.8821692656664049 0.470932465130188 0
outer loop
vertex 7315.2300000000005 7423.52 199.94
vertex 7315.2300000000005 7423.52 599.95
vertex 7333.6900000000005 7388.9400000000005 599.95
endloop
endfacet
facet normal 0.8821692656664049 0.470932465130188 0
outer loop
vertex 7315.2300000000005 7423.52 199.94
vertex 7333.6900000000005 7388.9400000000005 599.95
vertex 7333.6900000000005 7388.9400000000005 199.94
endloop
endfacet
facet normal 0.7746942974007817 0.6323359436049082 0
outer loop
vertex 7333.6900000000005 7388.9400000000005 199.94
vertex 7333.6900000000005 7388.9400000000005 599.95
vertex 7358.52 7358.52 599.95
endloop
endfacet
facet normal 0.7746942974007817 0.6323359436049082 0
outer loop
vertex 7333.6900000000005 7388.9400000000005 199.94
vertex 7358.52 7358.52 599.95
vertex 7358.52 7358.52 199.94
endloop
endfacet
facet normal 0.6323359436049082 0.7746942974007817 0
outer loop
vertex 7358.52 7358.52 199.94
vertex 7358.52 7358.52 599.95
vertex 7388.9400000000005 7333.6900000000005 599.95
endloop
endfacet
facet normal 0.6323359436049082 0.7746942974007817 0
outer loop
vertex 7358.52 7358.52 199.94
vertex 7388.9400000000005 7333.6900000000005 599.95
vertex 7388.9400000000005 7333.6900000000005 199.94
endloop
endfacet
facet normal 0.470932465130188 0.8821692656664049 0
outer loop
vertex 7388.9400000000005 7333.6900000000005 199.94
vertex 7388.9400000000005 7333.6900000000005 599.95
vertex 7423.52 7315.2300000000005 599.95
endloop
endfacet
facet normal 0.470932465130188 0.8821692656664049 0
outer loop
vertex 7388.9400000000005 7333.6900000000005 199.94
vertex 7423.52 7315.2300000000005 599.95
vertex 7423.52 7315.2300000000005 199.94
endloop
endfacet
facet normal 0.29221853559903493 0.9563515710513344 0
outer loop
vertex 7423.52 7315.2300000000005 199.94
vertex 7423.52 7315.2300000000005 599.95
vertex 7460.96 7303.79 599.95
endloop
endfacet
facet normal 0.29221853559903493 0.9563515710513344 0
outer loop
vertex 7423.52 7315.2300000000005 199.94
vertex 7460.96 7303.79 599.95
vertex 7460.96 7303.79 199.94
endloop
endfacet
facet normal 0.09621815937081751 0.9953602693534094 0
outer loop
vertex 7460.96 7303.79 199.94
vertex 7460.96 7303.79 599.95
vertex 7499.96 7300.02 599.95
endloop
endfacet
facet normal 0.09621815937081751 0.9953602693534094 0
outer loop
vertex 7460.96 7303.79 199.94
vertex 7499.96 7300.02 599.95
vertex 7499.96 7300.02 199.94
endloop
endfacet
facet normal 0 1 0
outer loop
vertex 7499.96 7300.02 599.95
vertex 9999.99 7300.02 599.95
vertex 9999.99 7300.02 199.94
endloop
endfacet
facet normal 0 1 0
outer loop
vertex 7499.96 7300.02 599.95
vertex 9999.99 7300.02 199.94
vertex 7499.96 7300.02 199.94
endloop
endfacet
facet normal 0 -1 0
outer loop
vertex 7700.030000000001 7700.030000000001 199.94
vertex 9999.99 7700.030000000001 199.94
vertex 9999.99 7700.030000000001 599.95
endloop
endfacet
facet normal 0 -1 0
outer loop
vertex 7700.030000000001 7700.030000000001 199.94
vertex 9999.99 7700.030000000001 599.95
vertex 7700.030000000001 7700.030000000001 599.95
endloop
endfacet
facet normal -1 0 0
outer loop
vertex 7700.030000000001 7700.030000000001 599.95
vertex 7700.030000000001 9800.050000000001 599.95
vertex 7700.030000000001 9800.050000000001 199.94
endloop
endfacet
facet normal -1 0 0
outer loop
vertex 7700.030000000001 7700.030000000001 599.95
vertex 7700.030000000001 9800.050000000001 199.94
vertex 7700.030000000001 7700.030000000001 199.94
endloop
endfacet
endsolid JSCAD
