solid JSCAD
facet normal -1 0 0
outer loop
vertex 0 0 0
vertex 0 0 3999.986666666667
vertex 0 9999.966666666667 3999.986666666667
endloop
endfacet
facet normal -1 0 0
outer loop
vertex 0 0 0
vertex 0 9999.966666666667 3999.986666666667
vertex 0 9999.966666666667 0
endloop
endfacet
facet normal 1 0 0
outer loop
vertex 20000.04666666667 0 0
vertex 20000.04666666667 9999.966666666667 0
vertex 20000.04666666667 9999.966666666667 3999.986666666667
endloop
endfacet
facet normal 1 0 0
outer loop
vertex 20000.04666666667 0 0
vertex 20000.04666666667 9999.966666666667 3999.986666666667
vertex 20000.04666666667 0 3999.986666666667
endloop
endfacet
facet normal 0 -1 0
outer loop
vertex 0 0 0
vertex 20000.04666666667 0 0
vertex 20000.04666666667 0 3999.986666666667
endloop
endfacet
facet normal 0 -1 0
outer loop
vertex 0 0 0
vertex 20000.04666666667 0 3999.986666666667
vertex 0 0 3999.986666666667
endloop
endfacet
facet normal 0 1 0
outer loop
vertex 0 9999.966666666667 0
vertex 0 9999.966666666667 3999.986666666667
vertex 20000.04666666667 9999.966666666667 3999.986666666667
endloop
endfacet
facet normal 0 1 0
outer loop
vertex 0 9999.966666666667 0
vertex 20000.04666666667 9999.966666666667 3999.986666666667
vertex 20000.04666666667 9999.966666666667 0
endloop
endfacet
facet normal 0 0 -1
outer loop
vertex 0 0 0
vertex 0 9999.966666666667 0
vertex 20000.04666666667 9999.966666666667 0
endloop
endfacet
facet normal 0 0 -1
outer loop
vertex 0 0 0
vertex 20000.04666666667 9999.966666666667 0
vertex 20000.04666666667 0 0
endloop
endfacet
facet normal 0 0 1
outer loop
vertex 0 0 3999.986666666667
vertex 20000.04666666667 0 3999.986666666667
vertex 20000.04666666667 9999.966666666667 3999.986666666667
endloop
endfacet
facet normal 0 0 1
outer loop
vertex 0 0 3999.986666666667
vertex 20000.04666666667 9999.966666666667 3999.986666666667
vertex 0 9999.966666666667 3999.986666666667
endloop
endfacet
facet normal -0.6139351082607165 -0.7893564992098958 0
outer loop
vertex 6500.006666666667 7499.946666666668 599.9866666666667
vertex 6500.006666666667 7499.946666666668 200.03333333333336
vertex 11000.02 3999.986666666667 200.03333333333336
endloop
endfacet
facet normal -0.6139351082607165 -0.7893564992098958 0
outer loop
vertex 6500.006666666667 7499.946666666668 599.9866666666667
vertex 11000.02 3999.986666666667 200.03333333333336
vertex 11000.02 3999.986666666667 599.9866666666667
endloop
endfacet
facet normal 0.8137281300386687 -0.5812456712817495 0
outer loop
vertex 3999.986666666667 3999.986666666667 599.9866666666667
vertex 3999.986666666667 3999.986666666667 200.03333333333336
vertex 6500.006666666667 7499.946666666668 200.03333333333336
endloop
endfacet
facet normal 0.8137281300386687 -0.5812456712817495 0
outer loop
vertex 3999.986666666667 3999.986666666667 599.9866666666667
vertex 6500.006666666667 7499.946666666668 200.03333333333336
vertex 6500.006666666667 7499.946666666668 599.9866666666667
endloop
endfacet
facet normal 0 0.9999999999999999 0
outer loop
vertex 11000.02 3999.986666666667 599.9866666666667
vertex 11000.02 3999.986666666667 200.03333333333336
vertex 3999.986666666667 3999.986666666667 200.03333333333336
endloop
endfacet
facet normal 0 0.9999999999999999 0
outer loop
vertex 11000.02 3999.986666666667 599.9866666666667
vertex 3999.986666666667 3999.986666666667 200.03333333333336
vertex 3999.986666666667 3999.986666666667 599.9866666666667
endloop
endfacet
facet normal 0 0 -1
outer loop
vertex 6500.006666666667 7499.946666666668 599.9866666666667
vertex 11000.02 3999.986666666667 599.9866666666667
vertex 3999.986666666667 3999.986666666667 599.9866666666667
endloop
endfacet
facet normal 0 0 1
outer loop
vertex 3999.986666666667 3999.986666666667 200.03333333333336
vertex 11000.02 3999.986666666667 200.03333333333336
vertex 6500.006666666667 7499.946666666668 200.03333333333336
endloop
endfacet
endsolid JSCAD
